%FSLAX43Y43*%
%MOMM*%
G71*
G01*
G75*
%ADD10R,1.400X3.600*%
%ADD11R,1.400X5.080*%
%ADD12C,0.700*%
%ADD13C,2.000*%
%ADD14C,0.210*%
%ADD15C,1.000*%
%ADD16C,0.254*%
%ADD17C,0.200*%
%ADD18C,0.250*%
D16*
X9234Y19524D02*
X9742D01*
X9488D01*
Y18254D01*
X9742Y18000D01*
X9996D01*
X10250Y18254D01*
X8726Y18000D02*
X8219D01*
X8473D01*
Y19524D01*
X8726Y19270D01*
X9734Y16024D02*
X10242D01*
X9988D01*
Y14754D01*
X10242Y14500D01*
X10496D01*
X10750Y14754D01*
X8211Y16024D02*
X8719Y15770D01*
X9226Y15262D01*
Y14754D01*
X8973Y14500D01*
X8465D01*
X8211Y14754D01*
Y15008D01*
X8465Y15262D01*
X9226D01*
X21484Y15774D02*
X21992D01*
X21738D01*
Y14504D01*
X21992Y14250D01*
X22246D01*
X22500Y14504D01*
X19961Y15774D02*
X20976D01*
Y15012D01*
X20469Y15266D01*
X20215D01*
X19961Y15012D01*
Y14504D01*
X20215Y14250D01*
X20723D01*
X20976Y14504D01*
X9734Y11774D02*
X10242D01*
X9988D01*
Y10504D01*
X10242Y10250D01*
X10496D01*
X10750Y10504D01*
X8465Y10250D02*
Y11774D01*
X9226Y11012D01*
X8211D01*
X21234Y19774D02*
X21742D01*
X21488D01*
Y18504D01*
X21742Y18250D01*
X21996D01*
X22250Y18504D01*
X20726Y19520D02*
X20473Y19774D01*
X19965D01*
X19711Y19520D01*
Y19266D01*
X19965Y19012D01*
X20219D01*
X19965D01*
X19711Y18758D01*
Y18504D01*
X19965Y18250D01*
X20473D01*
X20726Y18504D01*
X21484Y11774D02*
X21992D01*
X21738D01*
Y10504D01*
X21992Y10250D01*
X22246D01*
X22500Y10504D01*
X19961Y10250D02*
X20976D01*
X19961Y11266D01*
Y11520D01*
X20215Y11774D01*
X20723D01*
X20976Y11520D01*
X19500Y7274D02*
X18484D01*
Y7020D01*
X19500Y6004D01*
Y5750D01*
X18484D01*
X17976Y7274D02*
Y5750D01*
X16961D01*
X16453Y7020D02*
X16199Y7274D01*
X15691D01*
X15437Y7020D01*
Y6766D01*
X15691Y6512D01*
X15945D01*
X15691D01*
X15437Y6258D01*
Y6004D01*
X15691Y5750D01*
X16199D01*
X16453Y6004D01*
X13914Y7274D02*
X14422D01*
X14168D01*
Y6004D01*
X14422Y5750D01*
X14676D01*
X14929Y6004D01*
X13406Y7274D02*
Y6258D01*
X12898Y5750D01*
X12390Y6258D01*
Y7274D01*
X11882D02*
X10867Y5750D01*
Y7274D02*
X11882Y5750D01*
X20250Y24024D02*
Y22500D01*
Y23008D01*
X19234Y24024D01*
X19996Y23262D01*
X19234Y22500D01*
X18726D02*
X18219D01*
X18473D01*
Y23516D01*
X18726D01*
X17457D02*
Y22754D01*
X17203Y22500D01*
X16949Y22754D01*
X16695Y22500D01*
X16441Y22754D01*
Y23516D01*
X15933Y22500D02*
X15426D01*
X15679D01*
Y23516D01*
X15933D01*
X13648Y23770D02*
X13902Y24024D01*
X14410D01*
X14664Y23770D01*
Y23516D01*
X14410Y23262D01*
X13902D01*
X13648Y23008D01*
Y22754D01*
X13902Y22500D01*
X14410D01*
X14664Y22754D01*
X13140Y22500D02*
Y23516D01*
X12632Y24024D01*
X12125Y23516D01*
Y22500D01*
Y23262D01*
X13140D01*
X11617Y24024D02*
X10601D01*
X11109D01*
Y22500D01*
M02*
