%FSLAX43Y43*%
%MOMM*%
G71*
G01*
G75*
%ADD10R,1.400X3.600*%
%ADD11R,1.400X5.080*%
%ADD12C,0.700*%
%ADD13C,2.000*%
%ADD14C,0.210*%
%ADD15C,1.000*%
D13*
X5500Y15000D02*
D03*
Y19000D02*
D03*
X24500D02*
D03*
X5500Y11000D02*
D03*
X24500D02*
D03*
Y15000D02*
D03*
D14*
X25859Y19000D02*
X25836Y19250D01*
X25767Y19491D01*
X25655Y19715D01*
X25504Y19916D01*
X25319Y20085D01*
X25106Y20217D01*
X24872Y20307D01*
X24625Y20353D01*
X24375D01*
X24128Y20307D01*
X23894Y20217D01*
X23681Y20085D01*
X23496Y19916D01*
X23345Y19715D01*
X23233Y19491D01*
X23164Y19250D01*
X23141Y19000D01*
X23164Y18750D01*
X23233Y18509D01*
X23345Y18285D01*
X23496Y18084D01*
X23681Y17915D01*
X23894Y17783D01*
X24128Y17693D01*
X24375Y17647D01*
X24625D01*
X24872Y17693D01*
X25106Y17783D01*
X25319Y17915D01*
X25504Y18084D01*
X25655Y18285D01*
X25767Y18509D01*
X25836Y18750D01*
X25859Y19000D01*
Y15000D02*
X25836Y15250D01*
X25767Y15491D01*
X25655Y15715D01*
X25504Y15916D01*
X25319Y16085D01*
X25106Y16217D01*
X24872Y16307D01*
X24625Y16353D01*
X24375D01*
X24128Y16307D01*
X23894Y16217D01*
X23681Y16085D01*
X23496Y15916D01*
X23345Y15715D01*
X23233Y15491D01*
X23164Y15250D01*
X23141Y15000D01*
X23164Y14750D01*
X23233Y14509D01*
X23345Y14285D01*
X23496Y14084D01*
X23681Y13915D01*
X23894Y13783D01*
X24128Y13693D01*
X24375Y13647D01*
X24625D01*
X24872Y13693D01*
X25106Y13783D01*
X25319Y13915D01*
X25504Y14084D01*
X25655Y14285D01*
X25767Y14509D01*
X25836Y14750D01*
X25859Y15000D01*
Y11000D02*
X25836Y11250D01*
X25767Y11491D01*
X25655Y11715D01*
X25504Y11916D01*
X25319Y12085D01*
X25106Y12217D01*
X24872Y12307D01*
X24625Y12353D01*
X24375D01*
X24128Y12307D01*
X23894Y12217D01*
X23681Y12085D01*
X23496Y11916D01*
X23345Y11715D01*
X23233Y11491D01*
X23164Y11250D01*
X23141Y11000D01*
X23164Y10750D01*
X23233Y10509D01*
X23345Y10285D01*
X23496Y10084D01*
X23681Y9915D01*
X23894Y9783D01*
X24128Y9693D01*
X24375Y9647D01*
X24625D01*
X24872Y9693D01*
X25106Y9783D01*
X25319Y9915D01*
X25504Y10084D01*
X25655Y10285D01*
X25767Y10509D01*
X25836Y10750D01*
X25859Y11000D01*
X18534Y15000D02*
X18525Y15255D01*
X18497Y15509D01*
X18451Y15760D01*
X18388Y16007D01*
X18306Y16249D01*
X18207Y16484D01*
X18092Y16711D01*
X17960Y16930D01*
X17813Y17139D01*
X17652Y17336D01*
X17476Y17521D01*
X17288Y17693D01*
X17088Y17852D01*
X16876Y17995D01*
X16655Y18122D01*
X16426Y18234D01*
X16189Y18328D01*
X15945Y18405D01*
X15697Y18465D01*
X15445Y18506D01*
X15191Y18529D01*
X14936Y18533D01*
X14681Y18520D01*
X14428Y18487D01*
X14178Y18437D01*
X13932Y18369D01*
X13692Y18283D01*
X13458Y18180D01*
X13233Y18061D01*
X13017Y17925D01*
X12811Y17774D01*
X12616Y17609D01*
X12434Y17430D01*
X12266Y17239D01*
X12111Y17036D01*
X11972Y16822D01*
X11848Y16599D01*
X11741Y16367D01*
X11651Y16128D01*
X11578Y15884D01*
X11523Y15635D01*
X11487Y15382D01*
X11468Y15128D01*
Y14872D01*
X11487Y14618D01*
X11523Y14365D01*
X11578Y14116D01*
X11651Y13872D01*
X11741Y13633D01*
X11848Y13401D01*
X11972Y13178D01*
X12111Y12964D01*
X12266Y12761D01*
X12434Y12570D01*
X12616Y12391D01*
X12811Y12226D01*
X13017Y12075D01*
X13233Y11939D01*
X13458Y11820D01*
X13692Y11717D01*
X13932Y11631D01*
X14178Y11563D01*
X14428Y11513D01*
X14681Y11480D01*
X14936Y11467D01*
X15191Y11471D01*
X15445Y11494D01*
X15697Y11535D01*
X15945Y11595D01*
X16189Y11672D01*
X16426Y11766D01*
X16655Y11878D01*
X16876Y12005D01*
X17088Y12148D01*
X17288Y12307D01*
X17476Y12479D01*
X17652Y12664D01*
X17813Y12861D01*
X17960Y13070D01*
X18092Y13289D01*
X18207Y13516D01*
X18306Y13751D01*
X18388Y13993D01*
X18451Y14240D01*
X18497Y14491D01*
X18525Y14745D01*
X18534Y15000D01*
X6859Y19000D02*
X6836Y19250D01*
X6767Y19491D01*
X6655Y19715D01*
X6504Y19916D01*
X6319Y20085D01*
X6106Y20217D01*
X5872Y20307D01*
X5625Y20353D01*
X5375D01*
X5128Y20307D01*
X4894Y20217D01*
X4681Y20085D01*
X4496Y19916D01*
X4345Y19715D01*
X4233Y19491D01*
X4164Y19250D01*
X4141Y19000D01*
X4164Y18750D01*
X4233Y18509D01*
X4345Y18285D01*
X4496Y18084D01*
X4681Y17915D01*
X4894Y17783D01*
X5128Y17693D01*
X5375Y17647D01*
X5625D01*
X5872Y17693D01*
X6106Y17783D01*
X6319Y17915D01*
X6504Y18084D01*
X6655Y18285D01*
X6767Y18509D01*
X6836Y18750D01*
X6859Y19000D01*
Y15000D02*
X6836Y15250D01*
X6767Y15491D01*
X6655Y15715D01*
X6504Y15916D01*
X6319Y16085D01*
X6106Y16217D01*
X5872Y16307D01*
X5625Y16353D01*
X5375D01*
X5128Y16307D01*
X4894Y16217D01*
X4681Y16085D01*
X4496Y15916D01*
X4345Y15715D01*
X4233Y15491D01*
X4164Y15250D01*
X4141Y15000D01*
X4164Y14750D01*
X4233Y14509D01*
X4345Y14285D01*
X4496Y14084D01*
X4681Y13915D01*
X4894Y13783D01*
X5128Y13693D01*
X5375Y13647D01*
X5625D01*
X5872Y13693D01*
X6106Y13783D01*
X6319Y13915D01*
X6504Y14084D01*
X6655Y14285D01*
X6767Y14509D01*
X6836Y14750D01*
X6859Y15000D01*
Y11000D02*
X6836Y11250D01*
X6767Y11491D01*
X6655Y11715D01*
X6504Y11916D01*
X6319Y12085D01*
X6106Y12217D01*
X5872Y12307D01*
X5625Y12353D01*
X5375D01*
X5128Y12307D01*
X4894Y12217D01*
X4681Y12085D01*
X4496Y11916D01*
X4345Y11715D01*
X4233Y11491D01*
X4164Y11250D01*
X4141Y11000D01*
X4164Y10750D01*
X4233Y10509D01*
X4345Y10285D01*
X4496Y10084D01*
X4681Y9915D01*
X4894Y9783D01*
X5128Y9693D01*
X5375Y9647D01*
X5625D01*
X5872Y9693D01*
X6106Y9783D01*
X6319Y9915D01*
X6504Y10084D01*
X6655Y10285D01*
X6767Y10509D01*
X6836Y10750D01*
X6859Y11000D01*
X29250Y709D02*
Y29291D01*
X25850Y19159D02*
Y29291D01*
Y15159D02*
Y18841D01*
X25650Y19725D02*
Y29291D01*
Y15725D02*
Y18275D01*
X29291Y709D02*
Y29291D01*
X29050Y709D02*
Y29291D01*
X28850Y709D02*
Y29291D01*
X28650Y709D02*
Y29291D01*
X25050Y20243D02*
Y29291D01*
X24850Y20313D02*
Y29291D01*
X24650Y20351D02*
Y29291D01*
X24450Y20358D02*
Y29291D01*
X24250Y20336D02*
Y29291D01*
X25450Y19972D02*
Y29291D01*
X25250Y20134D02*
Y29291D01*
X25450Y15972D02*
Y18028D01*
X25250Y16134D02*
Y17866D01*
X25050Y16243D02*
Y17757D01*
Y12243D02*
Y13757D01*
X24850Y16313D02*
Y17687D01*
Y12313D02*
Y13687D01*
X25850Y11159D02*
Y14841D01*
X25650Y11725D02*
Y14275D01*
X25450Y11972D02*
Y14028D01*
X25250Y12134D02*
Y13866D01*
X24650Y16351D02*
Y17649D01*
X24450Y16358D02*
Y17642D01*
X24250Y16336D02*
Y17664D01*
X24650Y12351D02*
Y13649D01*
X24450Y12358D02*
Y13642D01*
X24250Y12336D02*
Y13664D01*
X24050Y20282D02*
Y29291D01*
X23850Y20193D02*
Y29291D01*
X23650Y20060D02*
Y29291D01*
X23450Y19862D02*
Y29291D01*
X23250Y19533D02*
Y29291D01*
X18450Y15767D02*
Y29291D01*
X18250Y16389D02*
Y29291D01*
X18050Y16786D02*
Y29291D01*
X17850Y17090D02*
Y29291D01*
X16850Y18011D02*
Y29291D01*
X16650Y18125D02*
Y29291D01*
X16450Y18223D02*
Y29291D01*
X16250Y18306D02*
Y29291D01*
X16050Y18375D02*
Y29291D01*
X17650Y17338D02*
Y29291D01*
X17450Y17547D02*
Y29291D01*
X17250Y17725D02*
Y29291D01*
X17050Y17879D02*
Y29291D01*
X23850Y16193D02*
Y17807D01*
X23650Y16060D02*
Y17940D01*
X24050Y16282D02*
Y17718D01*
X23250Y15533D02*
Y18467D01*
X23450Y15862D02*
Y18138D01*
X23850Y12193D02*
Y13807D01*
X24050Y12282D02*
Y13718D01*
X23450Y11862D02*
Y14138D01*
X23650Y12060D02*
Y13940D01*
X15650Y18474D02*
Y29291D01*
X15450Y18505D02*
Y29291D01*
X15250Y18525D02*
Y29291D01*
X15050Y18534D02*
Y29291D01*
X15850Y18430D02*
Y29291D01*
X23250Y11533D02*
Y14467D01*
X14850Y18531D02*
Y29291D01*
X14650Y18517D02*
Y29291D01*
X28450Y709D02*
Y29291D01*
X28250Y709D02*
Y29291D01*
X28050Y709D02*
Y29291D01*
X27850Y709D02*
Y29291D01*
X27650Y709D02*
Y29291D01*
X27450Y709D02*
Y29291D01*
X27250Y709D02*
Y29291D01*
X27050Y709D02*
Y29291D01*
X26850Y709D02*
Y29291D01*
X26650Y709D02*
Y29291D01*
X26450Y709D02*
Y29291D01*
X26250Y709D02*
Y29291D01*
X26050Y709D02*
Y29291D01*
X23050Y709D02*
Y29291D01*
X22850Y709D02*
Y29291D01*
X22650Y709D02*
Y29291D01*
X22450Y709D02*
Y29291D01*
X22250Y709D02*
Y29291D01*
X25850Y709D02*
Y10841D01*
X25650Y709D02*
Y10275D01*
X25450Y709D02*
Y10028D01*
X25250Y709D02*
Y9866D01*
X25050Y709D02*
Y9757D01*
X24850Y709D02*
Y9687D01*
X24650Y709D02*
Y9649D01*
X24250Y709D02*
Y9664D01*
X24450Y709D02*
Y9642D01*
X23850Y709D02*
Y9807D01*
X24050Y709D02*
Y9718D01*
X23450Y709D02*
Y10138D01*
X23650Y709D02*
Y9940D01*
X22050Y709D02*
Y29291D01*
X23250Y709D02*
Y10467D01*
X21850Y709D02*
Y29291D01*
X21650Y709D02*
Y29291D01*
X21450Y709D02*
Y29291D01*
X21250Y709D02*
Y29291D01*
X21050Y709D02*
Y29291D01*
X20850Y709D02*
Y29291D01*
X20650Y709D02*
Y29291D01*
X20450Y709D02*
Y29291D01*
X20250Y709D02*
Y29291D01*
X20050Y709D02*
Y29291D01*
X19850Y709D02*
Y29291D01*
X19650Y709D02*
Y29291D01*
X19450Y709D02*
Y29291D01*
X19250Y709D02*
Y29291D01*
X19050Y709D02*
Y29291D01*
X18850Y709D02*
Y29291D01*
X18650Y709D02*
Y29291D01*
X18450Y709D02*
Y14233D01*
X18250Y709D02*
Y13611D01*
X18050Y709D02*
Y13214D01*
X17850Y709D02*
Y12910D01*
X17650Y709D02*
Y12662D01*
X17450Y709D02*
Y12453D01*
X17250Y709D02*
Y12275D01*
X17050Y709D02*
Y12121D01*
X16850Y709D02*
Y11989D01*
X16650Y709D02*
Y11875D01*
X16450Y709D02*
Y11777D01*
X16250Y709D02*
Y11694D01*
X16050Y709D02*
Y11625D01*
X15850Y709D02*
Y11570D01*
X15650Y709D02*
Y11526D01*
X15450Y709D02*
Y11495D01*
X15250Y709D02*
Y11475D01*
X15050Y709D02*
Y11466D01*
X14850Y709D02*
Y11469D01*
X14450Y18491D02*
Y29291D01*
X14250Y18453D02*
Y29291D01*
X14050Y18404D02*
Y29291D01*
X13850Y18342D02*
Y29291D01*
X13650Y18266D02*
Y29291D01*
X13450Y18176D02*
Y29291D01*
X13250Y18070D02*
Y29291D01*
X13050Y17947D02*
Y29291D01*
X12850Y17805D02*
Y29291D01*
X12650Y17639D02*
Y29291D01*
X709D02*
X29291D01*
X12450Y17446D02*
Y29291D01*
X6850Y19159D02*
Y29291D01*
X6650Y19725D02*
Y29291D01*
X12250Y17219D02*
Y29291D01*
X12050Y16945D02*
Y29291D01*
X11850Y16602D02*
Y29291D01*
X11650Y16125D02*
Y29291D01*
X6850Y15159D02*
Y18841D01*
X6650Y15725D02*
Y18275D01*
X6450Y19972D02*
Y29291D01*
X6650Y11725D02*
Y14275D01*
X14650Y709D02*
Y11483D01*
X14450Y709D02*
Y11509D01*
X6850Y11159D02*
Y14841D01*
X14250Y709D02*
Y11547D01*
X6450Y15972D02*
Y18028D01*
X6250Y20133D02*
Y29291D01*
Y16133D02*
Y17867D01*
X6450Y11972D02*
Y14028D01*
X5850Y20313D02*
Y29291D01*
X5650Y20351D02*
Y29291D01*
X5450Y20358D02*
Y29291D01*
X5250Y20336D02*
Y29291D01*
X5050Y20282D02*
Y29291D01*
X6050Y20243D02*
Y29291D01*
Y16243D02*
Y17757D01*
X5050Y16282D02*
Y17718D01*
X5850Y16313D02*
Y17687D01*
X4850Y20193D02*
Y29291D01*
X4650Y20060D02*
Y29291D01*
X4450Y19862D02*
Y29291D01*
X4250Y19533D02*
Y29291D01*
X4650Y16060D02*
Y17940D01*
X4850Y16193D02*
Y17807D01*
X4250Y15533D02*
Y18467D01*
X4450Y15862D02*
Y18138D01*
X5650Y16351D02*
Y17649D01*
X5450Y16358D02*
Y17642D01*
X5650Y12351D02*
Y13649D01*
X5250Y16336D02*
Y17664D01*
X5450Y12358D02*
Y13642D01*
X6250Y12134D02*
Y13866D01*
X6050Y12243D02*
Y13757D01*
X5850Y12313D02*
Y13687D01*
X5250Y12336D02*
Y13664D01*
X5050Y12282D02*
Y13718D01*
X4650Y12060D02*
Y13940D01*
X4850Y12193D02*
Y13807D01*
X4250Y11533D02*
Y14467D01*
X4450Y11862D02*
Y14138D01*
X11450Y709D02*
Y29291D01*
X11250Y709D02*
Y29291D01*
X11050Y709D02*
Y29291D01*
X10850Y709D02*
Y29291D01*
X10650Y709D02*
Y29291D01*
X10450Y709D02*
Y29291D01*
X10250Y709D02*
Y29291D01*
X10050Y709D02*
Y29291D01*
X9850Y709D02*
Y29291D01*
X9650Y709D02*
Y29291D01*
X9450Y709D02*
Y29291D01*
X9250Y709D02*
Y29291D01*
X9050Y709D02*
Y29291D01*
X8850Y709D02*
Y29291D01*
X8650Y709D02*
Y29291D01*
X8450Y709D02*
Y29291D01*
X8250Y709D02*
Y29291D01*
X8050Y709D02*
Y29291D01*
X14050Y709D02*
Y11596D01*
X13650Y709D02*
Y11734D01*
X13850Y709D02*
Y11658D01*
X13250Y709D02*
Y11930D01*
X13450Y709D02*
Y11824D01*
X12850Y709D02*
Y12195D01*
X13050Y709D02*
Y12053D01*
X12450Y709D02*
Y12554D01*
X12650Y709D02*
Y12361D01*
X12050Y709D02*
Y13054D01*
X12250Y709D02*
Y12781D01*
X11650Y709D02*
Y13875D01*
X11850Y709D02*
Y13398D01*
X7850Y709D02*
Y29291D01*
X709Y709D02*
X29291D01*
X7650D02*
Y29291D01*
X7450Y709D02*
Y29291D01*
X7250Y709D02*
Y29291D01*
X7050Y709D02*
Y29291D01*
X4050Y709D02*
Y29291D01*
X3850Y709D02*
Y29291D01*
X3650Y709D02*
Y29291D01*
X3450Y709D02*
Y29291D01*
X3250Y709D02*
Y29291D01*
X3050Y709D02*
Y29291D01*
X2850Y709D02*
Y29291D01*
X2650Y709D02*
Y29291D01*
X2450Y709D02*
Y29291D01*
X2250Y709D02*
Y29291D01*
X2050Y709D02*
Y29291D01*
X1850Y709D02*
Y29291D01*
X1650Y709D02*
Y29291D01*
X1450Y709D02*
Y29291D01*
X1250Y709D02*
Y29291D01*
X6850Y709D02*
Y10841D01*
X6650Y709D02*
Y10275D01*
X6450Y709D02*
Y10028D01*
X6250Y709D02*
Y9866D01*
X6050Y709D02*
Y9757D01*
X5850Y709D02*
Y9687D01*
X5650Y709D02*
Y9649D01*
X5250Y709D02*
Y9664D01*
X5450Y709D02*
Y9642D01*
X4850Y709D02*
Y9807D01*
X5050Y709D02*
Y9718D01*
X4450Y709D02*
Y10138D01*
X4650Y709D02*
Y9940D01*
X1050Y709D02*
Y29291D01*
X4250Y709D02*
Y10467D01*
X850Y709D02*
Y29291D01*
X709Y709D02*
Y29291D01*
D15*
X5500Y15000D02*
X6754D01*
X5500D02*
Y16254D01*
X4246Y15000D02*
X5500D01*
Y13746D02*
Y15000D01*
M02*
