%FSLAX42Y42*%
%MOMM*%
G71*
G01*
G75*
%ADD10C,0.38*%
%ADD11C,0.40*%
%ADD12R,1.52X1.27*%
%ADD13R,1.27X1.52*%
%ADD14R,1.27X1.02*%
%ADD15R,1.52X2.54*%
%ADD16R,2.54X1.52*%
%ADD17O,2.03X0.61*%
%ADD18R,6.73X6.73*%
%ADD19R,1.02X1.27*%
%ADD20R,3.00X1.60*%
%ADD21R,1.52X1.52*%
%ADD22C,1.00*%
%ADD23C,0.50*%
%ADD24C,1.40*%
%ADD25C,0.80*%
%ADD26C,0.70*%
%ADD27C,0.80*%
%ADD28C,1.50*%
%ADD29C,1.40*%
%ADD30C,0.30*%
%ADD31C,0.51*%
%ADD32C,0.20*%
%ADD33C,0.15*%
%ADD34C,0.18*%
%ADD35C,3.50*%
%ADD36C,2.41*%
%ADD37C,6.20*%
%ADD38C,1.32*%
%ADD39C,1.78*%
%ADD40C,1.57*%
%ADD41C,1.52*%
%ADD42R,1.78X1.78*%
%ADD43C,1.90*%
%ADD44C,6.99*%
%ADD45C,2.03*%
%ADD46R,2.03X2.03*%
%ADD47C,1.27*%
%ADD48R,2.39X3.00*%
%ADD49C,0.13*%
%ADD50C,0.25*%
%ADD51C,0.30*%
%ADD52C,0.20*%
%ADD53C,0.33*%
%ADD54C,0.10*%
%ADD55C,7.70*%
%ADD56R,4.00X15.50*%
%ADD57R,47.10X4.00*%
%ADD58R,15.30X4.00*%
%ADD59R,4.00X9.30*%
%ADD60R,1.73X1.47*%
%ADD61R,1.47X1.73*%
%ADD62R,1.47X1.22*%
%ADD63R,1.73X2.74*%
%ADD64R,2.74X1.73*%
%ADD65O,2.24X0.81*%
%ADD66R,6.93X6.93*%
%ADD67R,1.22X1.47*%
%ADD68R,3.20X1.80*%
%ADD69R,1.73X1.73*%
%ADD70C,3.70*%
%ADD71C,2.62*%
%ADD72C,6.40*%
%ADD73C,1.98*%
%ADD74C,1.73*%
%ADD75R,1.98X1.98*%
%ADD76C,2.11*%
%ADD77C,7.19*%
%ADD78C,2.24*%
%ADD79R,2.24X2.24*%
%ADD80C,0.51*%
%ADD81C,10.16*%
%ADD82C,4.00*%
%ADD83R,2.59X3.20*%
D39*
X25596Y19634D02*
D03*
X26789Y21915D02*
D03*
X27239Y22364D02*
D03*
X28867Y19637D02*
D03*
X29316Y20087D02*
D03*
X27716D02*
D03*
X27267Y19637D02*
D03*
X26046Y20084D02*
D03*
X28139Y22364D02*
D03*
X27689Y21915D02*
D03*
X28517Y20087D02*
D03*
X28067Y19637D02*
D03*
D41*
X25046Y22106D02*
D03*
Y21684D02*
D03*
D70*
X28046Y23109D02*
D03*
X30018Y20834D02*
D03*
X28046D02*
D03*
X26046D02*
D03*
X24046D02*
D03*
Y23109D02*
D03*
X26046D02*
D03*
D71*
X20656Y18663D02*
D03*
X20148Y18155D02*
D03*
Y18663D02*
D03*
X20656Y18155D02*
D03*
X20092Y19155D02*
D03*
Y19663D02*
D03*
X20600D02*
D03*
Y19155D02*
D03*
X20402Y18409D02*
D03*
X20346Y19409D02*
D03*
D72*
X30018Y17909D02*
D03*
X21246D02*
D03*
X30018Y23109D02*
D03*
X25675Y17909D02*
D03*
D73*
X22850Y19941D02*
D03*
X23304Y19215D02*
D03*
X20984Y19411D02*
D03*
X21344Y18807D02*
D03*
X25619Y18834D02*
D03*
X25258Y19195D02*
D03*
X21820Y18746D02*
D03*
X22424Y19107D02*
D03*
D74*
X24500Y19134D02*
D03*
X24246Y19388D02*
D03*
Y18880D02*
D03*
D75*
X22096Y22059D02*
D03*
X21696Y22159D02*
D03*
X21646Y20884D02*
D03*
X21696Y22434D02*
D03*
X21646Y20609D02*
D03*
D76*
X27010Y21765D02*
D03*
Y22514D02*
D03*
X29095Y19488D02*
D03*
Y20237D02*
D03*
X27495D02*
D03*
Y19488D02*
D03*
X25825Y20234D02*
D03*
Y19485D02*
D03*
X27910Y22514D02*
D03*
Y21765D02*
D03*
X28296Y20237D02*
D03*
Y19488D02*
D03*
D77*
X21053Y20309D02*
D03*
Y22809D02*
D03*
D78*
X20926Y21970D02*
D03*
Y21695D02*
D03*
Y21421D02*
D03*
Y21147D02*
D03*
X21180Y22107D02*
D03*
Y21832D02*
D03*
Y21558D02*
D03*
Y21284D02*
D03*
D79*
Y21009D02*
D03*
D80*
X28936Y21765D02*
D03*
X25566Y20244D02*
D03*
X25846Y18634D02*
D03*
X26036Y19015D02*
D03*
X23296Y20074D02*
D03*
X26965Y19634D02*
D03*
X26546Y19015D02*
D03*
X28546Y23104D02*
D03*
X24546D02*
D03*
X25046D02*
D03*
X25546D02*
D03*
X26546D02*
D03*
X27046D02*
D03*
X27546D02*
D03*
X29046D02*
D03*
X29546D02*
D03*
X21546Y23104D02*
D03*
X22996Y21659D02*
D03*
X22456Y21424D02*
D03*
X21871Y21059D02*
D03*
X26526Y19681D02*
D03*
X24965Y20104D02*
D03*
X22285Y20184D02*
D03*
X23992Y19134D02*
D03*
X27966Y20267D02*
D03*
X25040Y21890D02*
D03*
X20271Y21684D02*
D03*
X29142Y18449D02*
D03*
X20546Y22259D02*
D03*
X20346Y20059D02*
D03*
X22171Y18544D02*
D03*
X21966Y19514D02*
D03*
X27036Y21484D02*
D03*
X26415Y20304D02*
D03*
X24329Y20278D02*
D03*
X23593Y20811D02*
D03*
X27644Y18449D02*
D03*
X24850Y22233D02*
D03*
X24171Y18544D02*
D03*
X22636Y20115D02*
D03*
X23716Y20204D02*
D03*
X29447Y19312D02*
D03*
X26074Y21474D02*
D03*
X29489Y22314D02*
D03*
X26539Y21764D02*
D03*
X25650Y21205D02*
D03*
X26641Y18449D02*
D03*
X28239Y21514D02*
D03*
X22272Y19604D02*
D03*
X25904Y21205D02*
D03*
X28139Y18449D02*
D03*
X28489Y21514D02*
D03*
X26145Y18449D02*
D03*
X25409Y21179D02*
D03*
X23676Y19634D02*
D03*
X26464Y22514D02*
D03*
X25261Y22301D02*
D03*
X24916Y19364D02*
D03*
X23425Y20204D02*
D03*
X27149Y18449D02*
D03*
X22371Y22534D02*
D03*
X22971Y22134D02*
D03*
X23171Y18544D02*
D03*
X24671D02*
D03*
X22671D02*
D03*
X22265Y17909D02*
D03*
X23265D02*
D03*
X24265D02*
D03*
X27146Y17915D02*
D03*
X28146D02*
D03*
X29146D02*
D03*
X24666Y19564D02*
D03*
X29447Y20354D02*
D03*
X20496Y21409D02*
D03*
X23676Y19134D02*
D03*
X20271Y21959D02*
D03*
X24977Y18893D02*
D03*
X28226Y21174D02*
D03*
X27459Y22514D02*
D03*
X26739D02*
D03*
X26106D02*
D03*
X22971Y22409D02*
D03*
X22671Y22534D02*
D03*
X23021Y21909D02*
D03*
X30014Y18829D02*
D03*
X30016Y19334D02*
D03*
Y19834D02*
D03*
Y20334D02*
D03*
X21765Y17909D02*
D03*
X22765D02*
D03*
X23765D02*
D03*
X27646Y17915D02*
D03*
X28646D02*
D03*
X22846Y21144D02*
D03*
X24278Y21357D02*
D03*
X22966Y19064D02*
D03*
X28647Y18449D02*
D03*
X26780Y20163D02*
D03*
X21597Y19134D02*
D03*
X23671Y18544D02*
D03*
X25193Y17915D02*
D03*
X29447Y18804D02*
D03*
X21671Y18544D02*
D03*
X24278Y21725D02*
D03*
X21851Y21834D02*
D03*
X30016Y21334D02*
D03*
Y21834D02*
D03*
Y22334D02*
D03*
X20396Y23084D02*
D03*
X26646Y17915D02*
D03*
X24765Y17909D02*
D03*
X26146Y17915D02*
D03*
X22646Y19454D02*
D03*
X29514Y21424D02*
D03*
X22046Y23104D02*
D03*
X22546Y23104D02*
D03*
X23046D02*
D03*
X23546D02*
D03*
X24546Y20834D02*
D03*
X25046D02*
D03*
X26546D02*
D03*
X27046D02*
D03*
X27546D02*
D03*
X29046D02*
D03*
X29546D02*
D03*
X24046Y21334D02*
D03*
Y21834D02*
D03*
X20036Y22534D02*
D03*
Y22034D02*
D03*
Y21534D02*
D03*
Y21034D02*
D03*
Y20534D02*
D03*
Y20034D02*
D03*
X25546Y20834D02*
D03*
X28466D02*
D03*
X24046Y22554D02*
D03*
Y22094D02*
D03*
X24825Y20254D02*
D03*
X26576Y20164D02*
D03*
X23566Y22054D02*
D03*
X22826Y19214D02*
D03*
X21746Y18984D02*
D03*
X20506Y18924D02*
D03*
X22676Y19064D02*
D03*
X23296Y19794D02*
D03*
X24376Y19564D02*
D03*
X24026Y20204D02*
D03*
D81*
X24246Y19134D02*
D03*
D82*
X24046Y20834D02*
X30016D01*
X24046D02*
Y23104D01*
D83*
X26146Y21895D02*
D03*
M02*
