%FSLAX42Y42*%
%MOMM*%
G71*
G01*
G75*
%ADD10C,0.38*%
%ADD11C,0.40*%
%ADD12R,1.52X1.27*%
%ADD13R,1.27X1.52*%
%ADD14R,1.27X1.02*%
%ADD15R,1.52X2.54*%
%ADD16R,2.54X1.52*%
%ADD17O,2.03X0.61*%
%ADD18R,6.73X6.73*%
%ADD19R,1.02X1.27*%
%ADD20R,3.00X1.60*%
%ADD21R,1.52X1.52*%
%ADD22C,1.00*%
%ADD23C,0.50*%
%ADD24C,1.40*%
%ADD25C,0.80*%
%ADD26C,0.70*%
%ADD27C,0.80*%
%ADD28C,1.50*%
%ADD29C,1.40*%
%ADD30C,0.30*%
%ADD31C,0.51*%
%ADD32C,0.20*%
%ADD33C,0.15*%
%ADD34C,0.18*%
%ADD35C,3.50*%
%ADD36C,2.41*%
%ADD37C,6.20*%
%ADD38C,1.32*%
%ADD39C,1.78*%
%ADD40C,1.57*%
%ADD41C,1.52*%
%ADD42R,1.78X1.78*%
%ADD43C,1.90*%
%ADD44C,6.99*%
%ADD45C,2.03*%
%ADD46R,2.03X2.03*%
%ADD47C,1.27*%
%ADD48R,2.39X3.00*%
%ADD49C,0.13*%
%ADD50C,0.25*%
%ADD51C,0.30*%
%ADD52C,0.20*%
%ADD53C,0.33*%
%ADD54C,0.10*%
D31*
X23626Y18722D02*
Y18899D01*
X24226Y18394D02*
X24416Y18514D01*
X23726Y17534D02*
X24226Y18394D01*
X23461Y17534D02*
X23726Y17534D01*
X21627D02*
X23461Y17534D01*
X21617Y17544D02*
X21627Y17534D01*
X21617Y17544D02*
Y17784D01*
X21807Y17974D01*
X23147D01*
X23237Y18064D01*
X23626Y18722D01*
D32*
X22166Y19364D02*
Y19264D01*
X22109D01*
X22036Y19331D02*
X22041Y19317D01*
X22050Y19307D01*
X22065Y19302D01*
X22069D01*
X22084Y19307D01*
X22093Y19317D01*
X22098Y19331D01*
Y19336D01*
X22093Y19350D01*
X22084Y19360D01*
X22069Y19364D01*
X22065D01*
X22050Y19360D01*
X22041Y19350D01*
X22036Y19331D01*
Y19307D01*
X22041Y19283D01*
X22050Y19269D01*
X22065Y19264D01*
X22074D01*
X22088Y19269D01*
X22093Y19279D01*
X25966Y19104D02*
Y19004D01*
X25909D01*
X25898Y19085D02*
X25888Y19090D01*
X25874Y19104D01*
Y19004D01*
X25825Y19085D02*
X25815Y19090D01*
X25801Y19104D01*
Y19004D01*
X25536Y22344D02*
X25603Y22444D01*
Y22344D02*
X25536Y22444D01*
X25625Y22363D02*
X25635Y22359D01*
X25649Y22344D01*
Y22444D01*
X27326Y22664D02*
Y22564D01*
X27269D01*
X27248Y22664D02*
X27196D01*
X27225Y22626D01*
X27210D01*
X27201Y22622D01*
X27196Y22617D01*
X27191Y22602D01*
Y22593D01*
X27196Y22579D01*
X27206Y22569D01*
X27220Y22564D01*
X27234D01*
X27248Y22569D01*
X27253Y22574D01*
X27258Y22583D01*
X20285Y17970D02*
X20295Y17980D01*
X20309Y17984D01*
X20328D01*
X20343Y17980D01*
X20352Y17970D01*
Y17961D01*
X20347Y17951D01*
X20343Y17946D01*
X20333Y17942D01*
X20304Y17932D01*
X20295Y17927D01*
X20290Y17922D01*
X20285Y17913D01*
Y17899D01*
X20295Y17889D01*
X20309Y17884D01*
X20328D01*
X20343Y17889D01*
X20352Y17899D01*
X20258Y17961D02*
Y17965D01*
X20254Y17975D01*
X20249Y17980D01*
X20239Y17984D01*
X20220D01*
X20211Y17980D01*
X20206Y17975D01*
X20201Y17965D01*
Y17956D01*
X20206Y17946D01*
X20215Y17932D01*
X20263Y17884D01*
X20196D01*
X24268Y19964D02*
X24277Y19960D01*
X24287Y19950D01*
X24291Y19941D01*
X24296Y19926D01*
Y19902D01*
X24291Y19888D01*
X24287Y19879D01*
X24277Y19869D01*
X24268Y19864D01*
X24248D01*
X24239Y19869D01*
X24229Y19879D01*
X24225Y19888D01*
X24220Y19902D01*
Y19926D01*
X24225Y19941D01*
X24229Y19950D01*
X24239Y19960D01*
X24248Y19964D01*
X24268D01*
X24253Y19883D02*
X24225Y19855D01*
X24139Y19964D02*
X24187D01*
X24192Y19922D01*
X24187Y19926D01*
X24173Y19931D01*
X24159D01*
X24144Y19926D01*
X24135Y19917D01*
X24130Y19902D01*
Y19893D01*
X24135Y19879D01*
X24144Y19869D01*
X24159Y19864D01*
X24173D01*
X24187Y19869D01*
X24192Y19874D01*
X24197Y19883D01*
X21217Y18682D02*
Y18582D01*
X21160D01*
X21149Y18663D02*
X21139Y18668D01*
X21125Y18682D01*
Y18582D01*
X21018Y18668D02*
X21023Y18677D01*
X21037Y18682D01*
X21047D01*
X21061Y18677D01*
X21071Y18663D01*
X21076Y18639D01*
Y18615D01*
X21071Y18596D01*
X21061Y18587D01*
X21047Y18582D01*
X21042D01*
X21028Y18587D01*
X21018Y18596D01*
X21014Y18610D01*
Y18615D01*
X21018Y18630D01*
X21028Y18639D01*
X21042Y18644D01*
X21047D01*
X21061Y18639D01*
X21071Y18630D01*
X21076Y18615D01*
X29366Y20384D02*
Y20284D01*
X29309D01*
X29241Y20370D02*
X29246Y20380D01*
X29260Y20384D01*
X29269D01*
X29284Y20380D01*
X29293Y20365D01*
X29298Y20342D01*
Y20318D01*
X29293Y20299D01*
X29284Y20289D01*
X29269Y20284D01*
X29265D01*
X29250Y20289D01*
X29241Y20299D01*
X29236Y20313D01*
Y20318D01*
X29241Y20332D01*
X29250Y20342D01*
X29265Y20346D01*
X29269D01*
X29284Y20342D01*
X29293Y20332D01*
X29298Y20318D01*
X27792Y20387D02*
Y20287D01*
X27734D01*
X27700Y20387D02*
X27714Y20383D01*
X27719Y20373D01*
Y20364D01*
X27714Y20354D01*
X27704Y20349D01*
X27685Y20345D01*
X27671Y20340D01*
X27662Y20330D01*
X27657Y20321D01*
Y20306D01*
X27662Y20297D01*
X27666Y20292D01*
X27681Y20287D01*
X27700D01*
X27714Y20292D01*
X27719Y20297D01*
X27723Y20306D01*
Y20321D01*
X27719Y20330D01*
X27709Y20340D01*
X27695Y20345D01*
X27676Y20349D01*
X27666Y20354D01*
X27662Y20364D01*
Y20373D01*
X27666Y20383D01*
X27681Y20387D01*
X27700D01*
X21562Y20284D02*
Y20242D01*
X21558Y20227D01*
X21553Y20223D01*
X21543Y20218D01*
X21529D01*
X21520Y20223D01*
X21515Y20227D01*
X21510Y20242D01*
Y20284D01*
X21610D01*
X21529Y20195D02*
X21524Y20186D01*
X21510Y20172D01*
X21610D01*
X20154Y19920D02*
X20164Y19930D01*
X20178Y19934D01*
X20197D01*
X20212Y19930D01*
X20221Y19920D01*
Y19911D01*
X20216Y19901D01*
X20212Y19896D01*
X20202Y19892D01*
X20173Y19882D01*
X20164Y19877D01*
X20159Y19872D01*
X20154Y19863D01*
Y19849D01*
X20164Y19839D01*
X20178Y19834D01*
X20197D01*
X20212Y19839D01*
X20221Y19849D01*
X20132Y19915D02*
X20123Y19920D01*
X20108Y19934D01*
Y19834D01*
X26126Y20374D02*
Y20274D01*
X26069D01*
X25991Y20374D02*
X26039Y20274D01*
X26058Y20374D02*
X25991D01*
X28276Y22674D02*
Y22574D01*
X28219D01*
X28160Y22674D02*
X28208Y22608D01*
X28137D01*
X28160Y22674D02*
Y22574D01*
X28636Y20387D02*
Y20287D01*
X28579D01*
X28568Y20368D02*
X28558Y20373D01*
X28544Y20387D01*
Y20287D01*
X28466Y20387D02*
X28480Y20383D01*
X28490Y20368D01*
X28494Y20345D01*
Y20330D01*
X28490Y20306D01*
X28480Y20292D01*
X28466Y20287D01*
X28456D01*
X28442Y20292D01*
X28432Y20306D01*
X28428Y20330D01*
Y20345D01*
X28432Y20368D01*
X28442Y20383D01*
X28456Y20387D01*
X28466D01*
X23029Y20215D02*
Y20115D01*
X22972D01*
X22961Y20196D02*
X22952Y20201D01*
X22938Y20215D01*
Y20115D01*
X22879Y20215D02*
X22826D01*
X22855Y20177D01*
X22840D01*
X22831Y20172D01*
X22826Y20167D01*
X22821Y20153D01*
Y20143D01*
X22826Y20129D01*
X22836Y20120D01*
X22850Y20115D01*
X22864D01*
X22879Y20120D01*
X22883Y20124D01*
X22888Y20134D01*
X22215Y20655D02*
X22206Y20660D01*
X22192Y20674D01*
Y20574D01*
X22137Y20651D02*
Y20655D01*
X22132Y20665D01*
X22128Y20670D01*
X22118Y20674D01*
X22099D01*
X22090Y20670D01*
X22085Y20665D01*
X22080Y20655D01*
Y20646D01*
X22085Y20636D01*
X22094Y20622D01*
X22142Y20574D01*
X22075D01*
X22053Y20641D02*
X22024Y20574D01*
X21996Y20641D02*
X22024Y20574D01*
X21980Y20674D02*
Y20574D01*
Y20674D02*
X21946D01*
X21932Y20670D01*
X21923Y20660D01*
X21918Y20651D01*
X21913Y20636D01*
Y20612D01*
X21918Y20598D01*
X21923Y20589D01*
X21932Y20579D01*
X21946Y20574D01*
X21980D01*
X21819Y20651D02*
X21824Y20660D01*
X21833Y20670D01*
X21843Y20674D01*
X21862D01*
X21872Y20670D01*
X21881Y20660D01*
X21886Y20651D01*
X21891Y20636D01*
Y20612D01*
X21886Y20598D01*
X21881Y20589D01*
X21872Y20579D01*
X21862Y20574D01*
X21843D01*
X21833Y20579D01*
X21824Y20589D01*
X21819Y20598D01*
X22403Y22315D02*
Y22215D01*
X22436Y22315D02*
X22369D01*
X22296D02*
X22358D01*
Y22215D01*
X22296D01*
X22358Y22267D02*
X22319D01*
X22279Y22315D02*
Y22215D01*
Y22315D02*
X22241Y22215D01*
X22203Y22315D02*
X22241Y22215D01*
X22203Y22315D02*
Y22215D01*
X22174Y22262D02*
X22131D01*
X22117Y22267D01*
X22112Y22272D01*
X22108Y22281D01*
Y22296D01*
X22112Y22305D01*
X22117Y22310D01*
X22131Y22315D01*
X22174D01*
Y22215D01*
X22085Y22315D02*
Y22215D01*
Y22315D02*
X22042D01*
X22028Y22310D01*
X22023Y22305D01*
X22019Y22296D01*
Y22286D01*
X22023Y22276D01*
X22028Y22272D01*
X22042Y22267D01*
X22085D01*
X22052D02*
X22019Y22215D01*
X21963Y22315D02*
Y22215D01*
X21996Y22315D02*
X21930D01*
X21918D02*
Y22215D01*
Y22315D02*
X21851Y22215D01*
Y22315D02*
Y22215D01*
X22065Y20882D02*
X22022D01*
X22008Y20887D01*
X22003Y20892D01*
X21999Y20901D01*
Y20915D01*
X22003Y20925D01*
X22008Y20930D01*
X22022Y20934D01*
X22065D01*
Y20834D01*
X21943Y20934D02*
Y20834D01*
X21976Y20934D02*
X21910D01*
X21864D02*
Y20834D01*
X21898Y20934D02*
X21831D01*
X21986Y21862D02*
X22029D01*
X22043Y21867D01*
X22048Y21872D01*
X22053Y21881D01*
Y21896D01*
X22048Y21905D01*
X22043Y21910D01*
X22029Y21915D01*
X21986D01*
Y21815D01*
X22075Y21915D02*
X22099Y21815D01*
X22123Y21915D02*
X22099Y21815D01*
X22123Y21915D02*
X22147Y21815D01*
X22170Y21915D02*
X22147Y21815D01*
X22190Y21915D02*
Y21815D01*
Y21915D02*
X22233D01*
X22247Y21910D01*
X22252Y21905D01*
X22257Y21896D01*
Y21886D01*
X22252Y21876D01*
X22247Y21872D01*
X22233Y21867D01*
X22190D01*
X22224D02*
X22257Y21815D01*
X22308Y21915D02*
X22298Y21910D01*
X22289Y21900D01*
X22284Y21891D01*
X22279Y21876D01*
Y21853D01*
X22284Y21838D01*
X22289Y21829D01*
X22298Y21819D01*
X22308Y21815D01*
X22327D01*
X22336Y21819D01*
X22346Y21829D01*
X22351Y21838D01*
X22356Y21853D01*
Y21876D01*
X22351Y21891D01*
X22346Y21900D01*
X22336Y21910D01*
X22327Y21915D01*
X22308D01*
X22379D02*
Y21843D01*
X22384Y21829D01*
X22393Y21819D01*
X22407Y21815D01*
X22417D01*
X22431Y21819D01*
X22441Y21829D01*
X22446Y21843D01*
Y21915D01*
X22506D02*
Y21815D01*
X22473Y21915D02*
X22540D01*
X22153Y22515D02*
Y22415D01*
X22186Y22515D02*
X22119D01*
X22046D02*
X22108D01*
Y22415D01*
X22046D01*
X22108Y22467D02*
X22069D01*
X22029Y22515D02*
Y22415D01*
Y22515D02*
X21991Y22415D01*
X21953Y22515D02*
X21991Y22415D01*
X21953Y22515D02*
Y22415D01*
X21924Y22462D02*
X21881D01*
X21867Y22467D01*
X21862Y22472D01*
X21858Y22481D01*
Y22496D01*
X21862Y22505D01*
X21867Y22510D01*
X21881Y22515D01*
X21924D01*
Y22415D01*
D50*
X24652Y19134D02*
X24652Y19160D01*
X24649Y19185D01*
X24645Y19210D01*
X24640Y19234D01*
X24633Y19259D01*
X24625Y19283D01*
X24615Y19306D01*
X24603Y19328D01*
X24590Y19350D01*
X24576Y19371D01*
X24561Y19391D01*
X24544Y19410D01*
X24527Y19428D01*
X24508Y19445D01*
X24488Y19461D01*
X24467Y19475D01*
X24446Y19488D01*
X24423Y19500D01*
X24400Y19510D01*
X24376Y19519D01*
X24352Y19527D01*
X24328Y19533D01*
X24303Y19537D01*
X24278Y19540D01*
X24252Y19541D01*
X24227Y19540D01*
X24202Y19538D01*
X24177Y19535D01*
X24152Y19530D01*
X24128Y19523D01*
X24104Y19515D01*
X24080Y19505D01*
X24058Y19494D01*
X24036Y19482D01*
X24014Y19468D01*
X23994Y19453D01*
X23975Y19437D01*
X23957Y19420D01*
X23939Y19401D01*
X23923Y19381D01*
X23909Y19361D01*
X23895Y19339D01*
X23883Y19317D01*
X23872Y19294D01*
X23863Y19271D01*
X23856Y19247D01*
X23849Y19222D01*
X23845Y19197D01*
X23841Y19172D01*
X23840Y19147D01*
Y19122D01*
X23841Y19097D01*
X23845Y19071D01*
X23849Y19047D01*
X23856Y19022D01*
X23863Y18998D01*
X23872Y18975D01*
X23883Y18952D01*
X23895Y18929D01*
X23909Y18908D01*
X23923Y18887D01*
X23939Y18868D01*
X23957Y18849D01*
X23975Y18832D01*
X23994Y18816D01*
X24014Y18800D01*
X24036Y18787D01*
X24058Y18774D01*
X24080Y18763D01*
X24104Y18754D01*
X24128Y18746D01*
X24152Y18739D01*
X24177Y18734D01*
X24202Y18730D01*
X24227Y18728D01*
X24252Y18728D01*
X24278Y18729D01*
X24303Y18732D01*
X24328Y18736D01*
X24352Y18742D01*
X24376Y18749D01*
X24400Y18758D01*
X24423Y18769D01*
X24446Y18780D01*
X24467Y18793D01*
X24488Y18808D01*
X24508Y18824D01*
X24527Y18840D01*
X24544Y18858D01*
X24561Y18877D01*
X24576Y18898D01*
X24590Y18919D01*
X24603Y18940D01*
X24615Y18963D01*
X24625Y18986D01*
X24633Y19010D01*
X24640Y19034D01*
X24645Y19059D01*
X24649Y19084D01*
X24652Y19109D01*
X24652Y19134D01*
X24896D02*
X24896Y19160D01*
X24894Y19185D01*
X24892Y19210D01*
X24888Y19235D01*
X24884Y19260D01*
X24878Y19285D01*
X24872Y19310D01*
X24865Y19334D01*
X24856Y19358D01*
X24847Y19382D01*
X24837Y19405D01*
X24826Y19428D01*
X24814Y19450D01*
X24801Y19472D01*
X24788Y19494D01*
X24773Y19514D01*
X24758Y19535D01*
X24742Y19554D01*
X24725Y19573D01*
X24708Y19592D01*
X24690Y19609D01*
X24671Y19626D01*
X24651Y19643D01*
X24631Y19658D01*
X24611Y19673D01*
X24589Y19686D01*
X24567Y19699D01*
X24545Y19712D01*
X24522Y19723D01*
X24499Y19733D01*
X24476Y19743D01*
X24452Y19751D01*
X24428Y19759D01*
X24403Y19765D01*
X24378Y19771D01*
X24353Y19775D01*
X24328Y19779D01*
X24303Y19782D01*
X24278Y19784D01*
X24252Y19784D01*
X24227Y19784D01*
X24202Y19783D01*
X24176Y19781D01*
X24151Y19777D01*
X24126Y19773D01*
X24101Y19768D01*
X24077Y19762D01*
X24052Y19755D01*
X24028Y19747D01*
X24005Y19738D01*
X23981Y19728D01*
X23958Y19717D01*
X23936Y19706D01*
X23914Y19693D01*
X23892Y19680D01*
X23871Y19665D01*
X23851Y19650D01*
X23831Y19635D01*
X23812Y19618D01*
X23793Y19601D01*
X23775Y19583D01*
X23758Y19564D01*
X23742Y19545D01*
X23726Y19525D01*
X23711Y19504D01*
X23697Y19483D01*
X23684Y19461D01*
X23672Y19439D01*
X23660Y19416D01*
X23650Y19393D01*
X23640Y19370D01*
X23632Y19346D01*
X23624Y19322D01*
X23617Y19298D01*
X23611Y19273D01*
X23606Y19248D01*
X23602Y19223D01*
X23599Y19198D01*
X23597Y19172D01*
X23596Y19147D01*
Y19122D01*
X23597Y19096D01*
X23599Y19071D01*
X23602Y19046D01*
X23606Y19021D01*
X23611Y18996D01*
X23617Y18971D01*
X23624Y18947D01*
X23632Y18923D01*
X23640Y18899D01*
X23650Y18875D01*
X23660Y18852D01*
X23672Y18830D01*
X23684Y18808D01*
X23697Y18786D01*
X23711Y18765D01*
X23726Y18744D01*
X23742Y18724D01*
X23758Y18705D01*
X23775Y18686D01*
X23793Y18668D01*
X23812Y18651D01*
X23831Y18634D01*
X23851Y18618D01*
X23871Y18603D01*
X23892Y18589D01*
X23914Y18576D01*
X23936Y18563D01*
X23958Y18552D01*
X23981Y18541D01*
X24005Y18531D01*
X24028Y18522D01*
X24052Y18514D01*
X24077Y18507D01*
X24101Y18501D01*
X24126Y18496D01*
X24151Y18491D01*
X24176Y18488D01*
X24202Y18486D01*
X24227Y18485D01*
X24252Y18484D01*
X24278Y18485D01*
X24303Y18487D01*
X24328Y18490D01*
X24353Y18493D01*
X24378Y18498D01*
X24403Y18504D01*
X24428Y18510D01*
X24452Y18518D01*
X24476Y18526D01*
X24499Y18536D01*
X24522Y18546D01*
X24545Y18557D01*
X24567Y18569D01*
X24589Y18582D01*
X24611Y18596D01*
X24631Y18611D01*
X24651Y18626D01*
X24671Y18642D01*
X24690Y18659D01*
X24708Y18677D01*
X24725Y18695D01*
X24742Y18714D01*
X24758Y18734D01*
X24773Y18754D01*
X24788Y18775D01*
X24801Y18797D01*
X24814Y18819D01*
X24826Y18841D01*
X24837Y18864D01*
X24847Y18887D01*
X24856Y18911D01*
X24865Y18935D01*
X24872Y18959D01*
X24878Y18984D01*
X24884Y19008D01*
X24888Y19033D01*
X24892Y19058D01*
X24894Y19084D01*
X24896Y19109D01*
X24896Y19134D01*
X21741Y19206D02*
X22503Y19203D01*
X21741Y18647D02*
X22506Y18650D01*
X22503Y19203D02*
X22506Y18650D01*
X21741Y18647D02*
Y19206D01*
X28296Y19488D02*
X28666D01*
X27917D02*
Y20237D01*
X28666Y19488D02*
Y20237D01*
X27917D02*
X28656D01*
X27917Y19488D02*
X28296D01*
X27910Y22514D02*
X28288D01*
X27549Y21765D02*
X28288D01*
X27539D02*
Y22514D01*
X28288Y21765D02*
Y22514D01*
X27539D02*
X27910D01*
X25825Y19485D02*
X26196D01*
X25446D02*
Y20234D01*
X26196Y19485D02*
Y20234D01*
X25446D02*
X26185D01*
X25446Y19485D02*
X25825D01*
X27495Y19488D02*
X27866D01*
X27117D02*
Y20237D01*
X27866Y19488D02*
Y20237D01*
X27117D02*
X27856D01*
X27117Y19488D02*
X27495D01*
X28717D02*
X29095D01*
X28717Y20237D02*
X29456D01*
X29466Y19488D02*
Y20237D01*
X28717Y19488D02*
Y20237D01*
X29095Y19488D02*
X29466D01*
X26639Y22514D02*
X27010D01*
X27388Y21765D02*
Y22514D01*
X26639Y21765D02*
Y22514D01*
X26649Y21765D02*
X27388D01*
X27010Y22514D02*
X27388D01*
X21441Y18728D02*
X21443Y19490D01*
X20885D02*
X20887Y18726D01*
X21441Y18728D01*
X20885Y19490D02*
X21443D01*
X18695Y19663D02*
X19965D01*
X18695Y19155D02*
Y19663D01*
Y19155D02*
X19965D01*
X22748Y20038D02*
X23409D01*
X22748Y19118D02*
X23409D01*
Y19906D01*
Y20038D01*
X22748Y19118D02*
Y20038D01*
X18751Y18663D02*
X20021D01*
X18751Y18155D02*
Y18663D01*
Y18155D02*
X20021D01*
D51*
X25156Y18751D02*
Y19289D01*
X25723Y18751D02*
Y19299D01*
X25156Y18751D02*
X25723D01*
X25156Y19289D02*
X25723Y19299D01*
X25249Y22294D02*
X26011D01*
X25249Y21494D02*
X26011D01*
Y22294D01*
X25249Y21494D02*
Y22294D01*
X19965Y19028D02*
Y19778D01*
X20727Y19028D02*
Y19727D01*
X19965Y19778D02*
Y19790D01*
X20727D01*
Y19727D02*
Y19790D01*
X19965Y19028D02*
X20727D01*
X20021Y18028D02*
Y18778D01*
X20783Y18028D02*
Y18727D01*
X20021Y18778D02*
Y18790D01*
X20783D01*
Y18727D02*
Y18790D01*
X20021Y18028D02*
X20783D01*
D52*
X19380Y22609D02*
X19355Y22602D01*
X19336Y22583D01*
X19329Y22558D01*
Y20558D02*
X19336Y20533D01*
X19355Y20514D01*
X19380Y20507D01*
X23916Y19490D02*
X23967Y19439D01*
X23865D02*
X23916Y19490D01*
X23865Y19439D02*
X23916Y19388D01*
X19846Y23095D02*
X20804Y23099D01*
X19380Y22609D02*
X19846D01*
X19380Y20507D02*
X19846D01*
X19329Y20558D02*
Y22558D01*
X19846Y20021D02*
Y23095D01*
X21451Y20009D02*
Y23099D01*
X19846Y20021D02*
X20804Y20018D01*
D53*
X22376Y18728D02*
X22417Y19028D01*
X22315Y19107D02*
X22376Y18728D01*
X22277D02*
X22315Y19107D01*
X22206D02*
X22277Y18728D01*
X22165D02*
X22206Y19107D01*
X22097D02*
X22165Y18728D01*
X22056D02*
X22097Y19107D01*
X21988D02*
X22056Y18728D01*
X21947D02*
X21988Y19107D01*
X21886D02*
X21947Y18728D01*
X21845Y18787D02*
X21886Y19107D01*
X25278Y19185D02*
X25619Y19144D01*
X25240Y19093D02*
X25619Y19144D01*
X25240Y19093D02*
X25619Y19035D01*
X25240Y19015D02*
X25619Y19035D01*
X25240Y19015D02*
X25619Y18954D01*
X25240Y18916D02*
X25619Y18954D01*
X25240Y18916D02*
X25558Y18834D01*
X20966Y18855D02*
X21266Y18814D01*
X20966Y18855D02*
X21344Y18916D01*
X20966Y18954D02*
X21344Y18916D01*
X20966Y18954D02*
X21344Y19025D01*
X20966Y19066D02*
X21344Y19025D01*
X20966Y19066D02*
X21344Y19135D01*
X20966Y19175D02*
X21344Y19135D01*
X20966Y19175D02*
X21344Y19244D01*
X20966Y19284D02*
X21344Y19244D01*
X20966Y19284D02*
X21344Y19345D01*
X21024Y19386D02*
X21344Y19345D01*
X22847Y19258D02*
X23236Y19230D01*
X22847Y19258D02*
X23307Y19350D01*
X22847Y19360D02*
X23307Y19350D01*
X22847Y19360D02*
X23307Y19438D01*
X22847Y19459D02*
X23307Y19438D01*
X22847Y19459D02*
X23307Y19550D01*
X22847Y19568D02*
X23307Y19550D01*
X22847Y19568D02*
X23307Y19649D01*
X22847Y19670D02*
X23307Y19649D01*
X22847Y19670D02*
X23307Y19748D01*
X22847D02*
X23307Y19830D01*
X22847Y19840D02*
X23307Y19830D01*
X22847Y19840D02*
X23307Y19918D01*
X22906Y19939D02*
X23307Y19918D01*
X22847Y19748D02*
X23307D01*
D54*
X25744Y21931D02*
X25749Y21940D01*
X25758Y21950D01*
X25768Y21954D01*
X25787D01*
X25796Y21950D01*
X25806Y21940D01*
X25811Y21931D01*
X25815Y21916D01*
Y21892D01*
X25811Y21878D01*
X25806Y21869D01*
X25796Y21859D01*
X25787Y21854D01*
X25768D01*
X25758Y21859D01*
X25749Y21869D01*
X25744Y21878D01*
X25716Y21921D02*
Y21854D01*
Y21892D02*
X25711Y21907D01*
X25702Y21916D01*
X25692Y21921D01*
X25678D01*
X25664D02*
X25635Y21854D01*
X25607Y21921D02*
X25635Y21854D01*
X25645Y21835D01*
X25654Y21826D01*
X25664Y21821D01*
X25669D01*
X25538Y21907D02*
X25543Y21916D01*
X25557Y21921D01*
X25571D01*
X25585Y21916D01*
X25590Y21907D01*
X25585Y21897D01*
X25576Y21892D01*
X25552Y21888D01*
X25543Y21883D01*
X25538Y21873D01*
Y21869D01*
X25543Y21859D01*
X25557Y21854D01*
X25571D01*
X25585Y21859D01*
X25590Y21869D01*
X25503Y21954D02*
Y21873D01*
X25498Y21859D01*
X25488Y21854D01*
X25479D01*
X25517Y21921D02*
X25483D01*
X25407D02*
Y21854D01*
Y21907D02*
X25417Y21916D01*
X25426Y21921D01*
X25441D01*
X25450Y21916D01*
X25460Y21907D01*
X25464Y21892D01*
Y21883D01*
X25460Y21869D01*
X25450Y21859D01*
X25441Y21854D01*
X25426D01*
X25417Y21859D01*
X25407Y21869D01*
X25381Y21954D02*
Y21854D01*
M02*
