%FSLAX42Y42*%
%MOMM*%
G71*
G01*
G75*
%ADD10C,0.38*%
%ADD11C,0.40*%
%ADD12R,1.52X1.27*%
%ADD13R,1.27X1.52*%
%ADD14R,1.27X1.02*%
%ADD15R,1.52X2.54*%
%ADD16R,2.54X1.52*%
%ADD17O,2.03X0.61*%
%ADD18R,6.73X6.73*%
%ADD19R,1.02X1.27*%
%ADD20R,3.00X1.60*%
%ADD21R,1.52X1.52*%
%ADD22C,1.00*%
%ADD23C,0.50*%
%ADD24C,1.40*%
%ADD25C,0.80*%
%ADD26C,0.70*%
%ADD27C,0.80*%
%ADD28C,1.50*%
%ADD29C,1.40*%
%ADD30C,0.30*%
%ADD31C,0.51*%
%ADD32C,0.20*%
%ADD33C,0.15*%
%ADD34C,0.18*%
%ADD35C,3.50*%
%ADD36C,2.41*%
%ADD37C,6.20*%
%ADD38C,1.32*%
%ADD39C,1.78*%
%ADD40C,1.57*%
%ADD41C,1.52*%
%ADD42R,1.78X1.78*%
%ADD43C,1.90*%
%ADD44C,6.99*%
%ADD45C,2.03*%
%ADD46R,2.03X2.03*%
%ADD47C,1.27*%
%ADD48R,2.39X3.00*%
%ADD49C,0.13*%
%ADD50C,0.25*%
%ADD51C,0.30*%
%ADD52C,0.20*%
%ADD53C,0.33*%
%ADD54C,0.10*%
%ADD55C,7.70*%
%ADD56R,4.00X15.50*%
%ADD57R,47.10X4.00*%
%ADD58R,15.30X4.00*%
%ADD59R,4.00X9.30*%
%ADD60R,1.73X1.47*%
%ADD61R,1.47X1.73*%
%ADD62R,1.47X1.22*%
%ADD63R,1.73X2.74*%
%ADD64R,2.74X1.73*%
%ADD65O,2.24X0.81*%
%ADD66R,6.93X6.93*%
%ADD67R,1.22X1.47*%
%ADD68R,3.20X1.80*%
%ADD69R,1.73X1.73*%
%ADD70C,3.70*%
%ADD71C,2.62*%
%ADD72C,6.40*%
%ADD73C,1.98*%
%ADD74C,1.73*%
%ADD75R,1.98X1.98*%
%ADD76C,2.11*%
%ADD77C,7.19*%
%ADD78C,2.24*%
%ADD79R,2.24X2.24*%
%ADD80C,0.51*%
%ADD81C,10.16*%
%ADD82C,4.00*%
%ADD83R,2.59X3.20*%
%ADD84C,2.00*%
%ADD85C,2.03*%
D84*
X20246Y23584D02*
X20221Y23584D01*
X20196Y23582D01*
X20170Y23579D01*
X20145Y23574D01*
X20121Y23568D01*
X20096Y23561D01*
X20072Y23553D01*
X20049Y23544D01*
X20026Y23533D01*
X20003Y23522D01*
X19982Y23509D01*
X19960Y23495D01*
X19940Y23480D01*
X19920Y23464D01*
X19902Y23447D01*
X19884Y23429D01*
X19867Y23410D01*
X19851Y23390D01*
X19836Y23370D01*
X19822Y23349D01*
X19809Y23327D01*
X19797Y23305D01*
X19787Y23282D01*
X19777Y23258D01*
X19769Y23234D01*
X19762Y23210D01*
X19756Y23185D01*
X19752Y23160D01*
X19749Y23135D01*
X19747Y23110D01*
X19746Y23084D01*
Y17934D02*
X19747Y17909D01*
X19749Y17884D01*
X19752Y17859D01*
X19756Y17834D01*
X19762Y17809D01*
X19769Y17785D01*
X19777Y17761D01*
X19787Y17737D01*
X19797Y17714D01*
X19809Y17692D01*
X19822Y17670D01*
X19836Y17649D01*
X19851Y17628D01*
X19867Y17609D01*
X19884Y17590D01*
X19902Y17572D01*
X19920Y17555D01*
X19940Y17539D01*
X19960Y17524D01*
X19982Y17510D01*
X20003Y17497D01*
X20026Y17485D01*
X20049Y17475D01*
X20072Y17466D01*
X20096Y17457D01*
X20121Y17450D01*
X20145Y17445D01*
X20170Y17440D01*
X20196Y17437D01*
X20221Y17435D01*
X20246Y17434D01*
X29996D02*
X30021Y17435D01*
X30047Y17437D01*
X30072Y17440D01*
X30097Y17445D01*
X30121Y17450D01*
X30146Y17457D01*
X30170Y17466D01*
X30193Y17475D01*
X30216Y17485D01*
X30239Y17497D01*
X30261Y17510D01*
X30282Y17524D01*
X30302Y17539D01*
X30322Y17555D01*
X30341Y17572D01*
X30358Y17590D01*
X30375Y17609D01*
X30391Y17628D01*
X30406Y17649D01*
X30420Y17670D01*
X30433Y17692D01*
X30445Y17714D01*
X30456Y17737D01*
X30465Y17761D01*
X30473Y17785D01*
X30480Y17809D01*
X30486Y17834D01*
X30490Y17859D01*
X30494Y17884D01*
X30495Y17909D01*
X30496Y17934D01*
Y23084D02*
X30495Y23110D01*
X30494Y23135D01*
X30490Y23160D01*
X30486Y23185D01*
X30480Y23210D01*
X30473Y23234D01*
X30465Y23258D01*
X30456Y23282D01*
X30445Y23305D01*
X30433Y23327D01*
X30420Y23349D01*
X30406Y23370D01*
X30391Y23390D01*
X30375Y23410D01*
X30358Y23429D01*
X30341Y23447D01*
X30322Y23464D01*
X30302Y23480D01*
X30282Y23495D01*
X30261Y23509D01*
X30239Y23522D01*
X30216Y23533D01*
X30193Y23544D01*
X30170Y23553D01*
X30146Y23561D01*
X30121Y23568D01*
X30097Y23574D01*
X30072Y23579D01*
X30047Y23582D01*
X30021Y23584D01*
X29996Y23584D01*
X20246D02*
X29996D01*
D85*
X30496Y17934D02*
Y23084D01*
X20246Y17434D02*
X29996D01*
X19746Y17934D02*
Y23084D01*
M02*
