%FSLAX42Y42*%
%MOMM*%
G71*
G01*
G75*
%ADD10C,0.38*%
%ADD11C,0.40*%
%ADD12R,1.52X1.27*%
%ADD13R,1.27X1.52*%
%ADD14R,1.27X1.02*%
%ADD15R,1.52X2.54*%
%ADD16R,2.54X1.52*%
%ADD17O,2.03X0.61*%
%ADD18R,6.73X6.73*%
%ADD19R,1.02X1.27*%
%ADD20R,3.00X1.60*%
%ADD21R,1.52X1.52*%
%ADD22C,1.00*%
%ADD23C,0.50*%
%ADD24C,1.40*%
%ADD25C,0.80*%
%ADD26C,0.70*%
%ADD27C,0.80*%
%ADD28C,1.50*%
%ADD29C,1.40*%
%ADD30C,0.30*%
%ADD31C,0.51*%
%ADD32C,0.20*%
%ADD33C,0.15*%
%ADD34C,0.18*%
%ADD35C,3.50*%
%ADD36C,2.41*%
%ADD37C,6.20*%
%ADD38C,1.32*%
%ADD39C,1.78*%
%ADD40C,1.57*%
%ADD41C,1.52*%
%ADD42R,1.78X1.78*%
%ADD43C,1.90*%
%ADD44C,6.99*%
%ADD45C,2.03*%
%ADD46R,2.03X2.03*%
%ADD47C,1.27*%
%ADD48R,2.39X3.00*%
%ADD49C,0.13*%
%ADD50C,0.25*%
%ADD51C,0.30*%
%ADD52C,0.20*%
%ADD53C,0.33*%
%ADD54C,0.10*%
%ADD55C,7.70*%
%ADD56R,4.00X15.50*%
%ADD57R,47.10X4.00*%
%ADD58R,15.30X4.00*%
%ADD59R,4.00X9.30*%
%ADD60R,1.73X1.47*%
%ADD61R,1.47X1.73*%
%ADD62R,1.47X1.22*%
%ADD63R,1.73X2.74*%
%ADD64R,2.74X1.73*%
%ADD65O,2.24X0.81*%
%ADD66R,6.93X6.93*%
%ADD67R,1.22X1.47*%
%ADD68R,3.20X1.80*%
%ADD69R,1.73X1.73*%
%ADD70C,3.70*%
%ADD71C,2.62*%
%ADD72C,6.40*%
%ADD73C,1.98*%
%ADD74C,1.73*%
%ADD75R,1.98X1.98*%
%ADD76C,2.11*%
%ADD77C,7.19*%
%ADD78C,2.24*%
%ADD79R,2.24X2.24*%
%ADD80C,0.51*%
%ADD81C,10.16*%
%ADD82C,4.00*%
%ADD83R,2.59X3.20*%
%ADD84C,2.00*%
%ADD85C,2.03*%
D35*
X28046Y23109D02*
D03*
X30018Y20834D02*
D03*
X28046D02*
D03*
X26046D02*
D03*
X24046D02*
D03*
Y23109D02*
D03*
X26046D02*
D03*
D36*
X20656Y18663D02*
D03*
X20148Y18155D02*
D03*
Y18663D02*
D03*
X20656Y18155D02*
D03*
X20092Y19155D02*
D03*
Y19663D02*
D03*
X20600D02*
D03*
Y19155D02*
D03*
X20402Y18409D02*
D03*
X20346Y19409D02*
D03*
D37*
X30018Y17909D02*
D03*
X21246D02*
D03*
X30018Y23109D02*
D03*
X25675Y17909D02*
D03*
D38*
X25046Y22106D02*
D03*
Y21684D02*
D03*
D39*
X22850Y19941D02*
D03*
X23304Y19215D02*
D03*
X20984Y19411D02*
D03*
X21344Y18807D02*
D03*
X25619Y18834D02*
D03*
X25258Y19195D02*
D03*
X21820Y18746D02*
D03*
X22424Y19107D02*
D03*
D40*
X25596Y19634D02*
D03*
X26789Y21915D02*
D03*
X27239Y22364D02*
D03*
X28867Y19637D02*
D03*
X29316Y20087D02*
D03*
X27716D02*
D03*
X27267Y19637D02*
D03*
X26046Y20084D02*
D03*
X28139Y22364D02*
D03*
X27689Y21915D02*
D03*
X28517Y20087D02*
D03*
X28067Y19637D02*
D03*
D41*
X24500Y19134D02*
D03*
X24246Y19388D02*
D03*
Y18880D02*
D03*
D42*
X22096Y22059D02*
D03*
X21696Y22159D02*
D03*
X21646Y20884D02*
D03*
X21696Y22434D02*
D03*
X21646Y20609D02*
D03*
D43*
X27010Y21765D02*
D03*
Y22514D02*
D03*
X29095Y19488D02*
D03*
Y20237D02*
D03*
X27495D02*
D03*
Y19488D02*
D03*
X25825Y20234D02*
D03*
Y19485D02*
D03*
X27910Y22514D02*
D03*
Y21765D02*
D03*
X28296Y20237D02*
D03*
Y19488D02*
D03*
D44*
X21053Y20309D02*
D03*
Y22809D02*
D03*
D45*
X20926Y21970D02*
D03*
Y21695D02*
D03*
Y21421D02*
D03*
Y21147D02*
D03*
X21180Y22107D02*
D03*
Y21832D02*
D03*
Y21558D02*
D03*
Y21284D02*
D03*
D46*
Y21009D02*
D03*
D48*
X26146Y21895D02*
D03*
M02*
