%FSLAX42Y42*%
%MOMM*%
G71*
G01*
G75*
%ADD10C,0.38*%
%ADD11C,0.40*%
%ADD12R,1.52X1.27*%
%ADD13R,1.27X1.52*%
%ADD14R,1.27X1.02*%
%ADD15R,1.52X2.54*%
%ADD16R,2.54X1.52*%
%ADD17O,2.03X0.61*%
%ADD18R,6.73X6.73*%
%ADD19R,1.02X1.27*%
%ADD20R,3.00X1.60*%
%ADD21R,1.52X1.52*%
%ADD22C,1.00*%
%ADD23C,0.50*%
%ADD24C,1.40*%
%ADD25C,0.80*%
%ADD26C,0.70*%
%ADD27C,0.80*%
%ADD28C,1.50*%
%ADD29C,1.40*%
%ADD30C,0.30*%
%ADD31C,0.51*%
%ADD32C,0.20*%
%ADD33C,0.15*%
%ADD34C,0.18*%
%ADD35C,3.50*%
%ADD36C,2.41*%
%ADD37C,6.20*%
%ADD38C,1.32*%
%ADD39C,1.78*%
%ADD40C,1.57*%
%ADD41C,1.52*%
%ADD42R,1.78X1.78*%
%ADD43C,1.90*%
%ADD44C,6.99*%
%ADD45C,2.03*%
%ADD46R,2.03X2.03*%
%ADD47C,1.27*%
%ADD48R,2.39X3.00*%
%ADD49C,0.13*%
D23*
X22456Y21424D02*
X22696Y21659D01*
X22996D01*
D25*
X21871Y20709D02*
Y21059D01*
X21771Y20609D02*
X21871Y20709D01*
X21646Y20609D02*
X21771D01*
D30*
X19918Y17934D02*
X19919Y17909D01*
X19922Y17883D01*
X19927Y17858D01*
X19934Y17833D01*
X19943Y17809D01*
X19954Y17786D01*
X19967Y17763D01*
X19981Y17742D01*
X19997Y17721D01*
X20014Y17703D01*
X20033Y17685D01*
X20053Y17669D01*
X20075Y17655D01*
X20097Y17642D01*
X20121Y17632D01*
X20145Y17623D01*
X20170Y17616D01*
X20195Y17611D01*
X20220Y17608D01*
X20246Y17607D01*
X20322Y18155D02*
X20320Y18181D01*
X20314Y18205D01*
X20305Y18229D01*
X20293Y18251D01*
X20278Y18271D01*
X20259Y18289D01*
X20239Y18304D01*
X20216Y18315D01*
X20192Y18323D01*
X20167Y18328D01*
X20142Y18329D01*
X20117Y18326D01*
X20092Y18320D01*
X20069Y18310D01*
X20047Y18297D01*
X20028Y18280D01*
X20011Y18262D01*
X19997Y18240D01*
X19986Y18217D01*
X19979Y18193D01*
X19975Y18168D01*
Y18143D01*
X19979Y18118D01*
X19986Y18093D01*
X19997Y18070D01*
X20011Y18049D01*
X20028Y18030D01*
X20047Y18014D01*
X20069Y18001D01*
X20092Y17991D01*
X20117Y17985D01*
X20142Y17982D01*
X20167Y17983D01*
X20192Y17987D01*
X20216Y17995D01*
X20239Y18007D01*
X20259Y18022D01*
X20278Y18039D01*
X20293Y18060D01*
X20305Y18082D01*
X20314Y18105D01*
X20320Y18130D01*
X20322Y18155D01*
X20576Y18409D02*
X20574Y18435D01*
X20568Y18459D01*
X20559Y18483D01*
X20547Y18505D01*
X20532Y18525D01*
X20513Y18543D01*
X20493Y18558D01*
X20470Y18569D01*
X20446Y18577D01*
X20421Y18582D01*
X20396Y18583D01*
X20371Y18580D01*
X20346Y18574D01*
X20323Y18564D01*
X20301Y18551D01*
X20282Y18534D01*
X20265Y18516D01*
X20251Y18494D01*
X20240Y18471D01*
X20233Y18447D01*
X20229Y18422D01*
Y18397D01*
X20233Y18372D01*
X20240Y18347D01*
X20251Y18324D01*
X20265Y18303D01*
X20282Y18284D01*
X20301Y18268D01*
X20323Y18255D01*
X20346Y18245D01*
X20371Y18239D01*
X20396Y18236D01*
X20421Y18237D01*
X20446Y18241D01*
X20470Y18249D01*
X20493Y18261D01*
X20513Y18276D01*
X20532Y18293D01*
X20547Y18314D01*
X20559Y18336D01*
X20568Y18359D01*
X20574Y18384D01*
X20576Y18409D01*
X20322Y18663D02*
X20320Y18689D01*
X20314Y18713D01*
X20305Y18737D01*
X20293Y18759D01*
X20278Y18779D01*
X20259Y18797D01*
X20239Y18812D01*
X20216Y18823D01*
X20192Y18831D01*
X20167Y18836D01*
X20142Y18837D01*
X20117Y18834D01*
X20092Y18828D01*
X20069Y18818D01*
X20047Y18805D01*
X20028Y18788D01*
X20011Y18770D01*
X19997Y18748D01*
X19986Y18725D01*
X19979Y18701D01*
X19975Y18676D01*
Y18651D01*
X19979Y18626D01*
X19986Y18601D01*
X19997Y18578D01*
X20011Y18557D01*
X20028Y18538D01*
X20047Y18522D01*
X20069Y18509D01*
X20092Y18499D01*
X20117Y18493D01*
X20142Y18490D01*
X20167Y18491D01*
X20192Y18495D01*
X20216Y18503D01*
X20239Y18515D01*
X20259Y18530D01*
X20278Y18547D01*
X20293Y18568D01*
X20305Y18590D01*
X20314Y18613D01*
X20320Y18638D01*
X20322Y18663D01*
X20830Y18155D02*
X20828Y18181D01*
X20822Y18205D01*
X20813Y18229D01*
X20801Y18251D01*
X20786Y18271D01*
X20767Y18289D01*
X20747Y18304D01*
X20724Y18315D01*
X20700Y18323D01*
X20675Y18328D01*
X20650Y18329D01*
X20625Y18326D01*
X20600Y18320D01*
X20577Y18310D01*
X20555Y18297D01*
X20536Y18280D01*
X20519Y18262D01*
X20505Y18240D01*
X20494Y18217D01*
X20487Y18193D01*
X20483Y18168D01*
Y18143D01*
X20487Y18118D01*
X20494Y18093D01*
X20505Y18070D01*
X20519Y18049D01*
X20536Y18030D01*
X20555Y18014D01*
X20577Y18001D01*
X20600Y17991D01*
X20625Y17985D01*
X20650Y17982D01*
X20675Y17983D01*
X20700Y17987D01*
X20724Y17995D01*
X20747Y18007D01*
X20767Y18022D01*
X20786Y18039D01*
X20801Y18060D01*
X20813Y18082D01*
X20822Y18105D01*
X20828Y18130D01*
X20830Y18155D01*
Y18663D02*
X20828Y18689D01*
X20822Y18713D01*
X20813Y18737D01*
X20801Y18759D01*
X20786Y18779D01*
X20767Y18797D01*
X20747Y18812D01*
X20724Y18823D01*
X20700Y18831D01*
X20675Y18836D01*
X20650Y18837D01*
X20625Y18834D01*
X20600Y18828D01*
X20577Y18818D01*
X20555Y18805D01*
X20536Y18788D01*
X20519Y18770D01*
X20505Y18748D01*
X20494Y18725D01*
X20487Y18701D01*
X20483Y18676D01*
Y18651D01*
X20487Y18626D01*
X20494Y18601D01*
X20505Y18578D01*
X20519Y18557D01*
X20536Y18538D01*
X20555Y18522D01*
X20577Y18509D01*
X20600Y18499D01*
X20625Y18493D01*
X20650Y18490D01*
X20675Y18491D01*
X20700Y18495D01*
X20724Y18503D01*
X20747Y18515D01*
X20767Y18530D01*
X20786Y18547D01*
X20801Y18568D01*
X20813Y18590D01*
X20822Y18613D01*
X20828Y18638D01*
X20830Y18663D01*
X20266Y19155D02*
X20264Y19181D01*
X20258Y19205D01*
X20249Y19229D01*
X20237Y19251D01*
X20222Y19271D01*
X20203Y19289D01*
X20183Y19304D01*
X20160Y19315D01*
X20136Y19323D01*
X20111Y19328D01*
X20086Y19329D01*
X20061Y19326D01*
X20036Y19320D01*
X20013Y19310D01*
X19991Y19297D01*
X19972Y19280D01*
X19955Y19262D01*
X19941Y19240D01*
X19930Y19217D01*
X19923Y19193D01*
X19919Y19168D01*
Y19143D01*
X19923Y19118D01*
X19930Y19093D01*
X19941Y19070D01*
X19955Y19049D01*
X19972Y19030D01*
X19991Y19014D01*
X20013Y19001D01*
X20036Y18991D01*
X20061Y18985D01*
X20086Y18982D01*
X20111Y18983D01*
X20136Y18987D01*
X20160Y18995D01*
X20183Y19007D01*
X20203Y19022D01*
X20222Y19039D01*
X20237Y19060D01*
X20249Y19082D01*
X20258Y19105D01*
X20264Y19130D01*
X20266Y19155D01*
X20520Y19409D02*
X20518Y19435D01*
X20512Y19459D01*
X20503Y19483D01*
X20491Y19505D01*
X20476Y19525D01*
X20457Y19543D01*
X20437Y19558D01*
X20414Y19569D01*
X20390Y19577D01*
X20365Y19582D01*
X20340Y19583D01*
X20315Y19580D01*
X20290Y19574D01*
X20267Y19564D01*
X20245Y19551D01*
X20226Y19534D01*
X20209Y19516D01*
X20195Y19494D01*
X20184Y19471D01*
X20177Y19447D01*
X20173Y19422D01*
Y19397D01*
X20177Y19372D01*
X20184Y19347D01*
X20195Y19324D01*
X20209Y19303D01*
X20226Y19284D01*
X20245Y19268D01*
X20267Y19255D01*
X20290Y19245D01*
X20315Y19239D01*
X20340Y19236D01*
X20365Y19237D01*
X20390Y19241D01*
X20414Y19249D01*
X20437Y19261D01*
X20457Y19276D01*
X20476Y19293D01*
X20491Y19314D01*
X20503Y19336D01*
X20512Y19359D01*
X20518Y19384D01*
X20520Y19409D01*
X20266Y19663D02*
X20264Y19689D01*
X20258Y19713D01*
X20249Y19737D01*
X20237Y19759D01*
X20222Y19779D01*
X20203Y19797D01*
X20183Y19812D01*
X20160Y19823D01*
X20136Y19831D01*
X20111Y19836D01*
X20086Y19837D01*
X20061Y19834D01*
X20036Y19828D01*
X20013Y19818D01*
X19991Y19805D01*
X19972Y19788D01*
X19955Y19770D01*
X19941Y19748D01*
X19930Y19725D01*
X19923Y19701D01*
X19919Y19676D01*
Y19651D01*
X19923Y19626D01*
X19930Y19601D01*
X19941Y19578D01*
X19955Y19557D01*
X19972Y19538D01*
X19991Y19522D01*
X20013Y19509D01*
X20036Y19499D01*
X20061Y19493D01*
X20086Y19490D01*
X20111Y19491D01*
X20136Y19495D01*
X20160Y19503D01*
X20183Y19515D01*
X20203Y19530D01*
X20222Y19547D01*
X20237Y19568D01*
X20249Y19590D01*
X20258Y19613D01*
X20264Y19638D01*
X20266Y19663D01*
X20774Y19155D02*
X20772Y19181D01*
X20766Y19205D01*
X20757Y19229D01*
X20745Y19251D01*
X20730Y19271D01*
X20711Y19289D01*
X20691Y19304D01*
X20668Y19315D01*
X20644Y19323D01*
X20619Y19328D01*
X20594Y19329D01*
X20569Y19326D01*
X20544Y19320D01*
X20521Y19310D01*
X20499Y19297D01*
X20480Y19280D01*
X20463Y19262D01*
X20449Y19240D01*
X20438Y19217D01*
X20431Y19193D01*
X20427Y19168D01*
Y19143D01*
X20431Y19118D01*
X20438Y19093D01*
X20449Y19070D01*
X20463Y19049D01*
X20480Y19030D01*
X20499Y19014D01*
X20521Y19001D01*
X20544Y18991D01*
X20569Y18985D01*
X20594Y18982D01*
X20619Y18983D01*
X20644Y18987D01*
X20668Y18995D01*
X20691Y19007D01*
X20711Y19022D01*
X20730Y19039D01*
X20745Y19060D01*
X20757Y19082D01*
X20766Y19105D01*
X20772Y19130D01*
X20774Y19155D01*
Y19663D02*
X20772Y19689D01*
X20766Y19713D01*
X20757Y19737D01*
X20745Y19759D01*
X20730Y19779D01*
X20711Y19797D01*
X20691Y19812D01*
X20668Y19823D01*
X20644Y19831D01*
X20619Y19836D01*
X20594Y19837D01*
X20569Y19834D01*
X20544Y19828D01*
X20521Y19818D01*
X20499Y19805D01*
X20480Y19788D01*
X20463Y19770D01*
X20449Y19748D01*
X20438Y19725D01*
X20431Y19701D01*
X20427Y19676D01*
Y19651D01*
X20431Y19626D01*
X20438Y19601D01*
X20449Y19578D01*
X20463Y19557D01*
X20480Y19538D01*
X20499Y19522D01*
X20521Y19509D01*
X20544Y19499D01*
X20569Y19493D01*
X20594Y19490D01*
X20619Y19491D01*
X20644Y19495D01*
X20668Y19503D01*
X20691Y19515D01*
X20711Y19530D01*
X20730Y19547D01*
X20745Y19568D01*
X20757Y19590D01*
X20766Y19613D01*
X20772Y19638D01*
X20774Y19663D01*
X21228Y18725D02*
X21245Y18706D01*
X21264Y18689D01*
X21287Y18677D01*
X21311Y18669D01*
X21337Y18665D01*
X21362Y18666D01*
X21387Y18671D01*
X21411Y18681D01*
X21432Y18695D01*
X21451Y18713D01*
X21466Y18734D01*
X21477Y18757D01*
X21484Y18781D01*
X21486Y18807D01*
X20912Y18784D02*
X20917Y18762D01*
X20930Y18742D01*
X20949Y18729D01*
X20972Y18725D01*
X20912Y18784D02*
X20917Y18762D01*
X20930Y18742D01*
X20949Y18729D01*
X20972Y18725D01*
X21486Y18807D02*
X21484Y18833D01*
X21477Y18859D01*
X21465Y18882D01*
X21449Y18903D01*
X21429Y18921D01*
X21406Y18935D01*
X22422Y18675D02*
X22445Y18679D01*
X22464Y18692D01*
X22477Y18712D01*
X22481Y18734D01*
X22422Y18675D02*
X22445Y18679D01*
X22464Y18692D01*
X22477Y18712D01*
X22481Y18734D01*
X21782Y18883D02*
X21759Y18874D01*
X21737Y18861D01*
X21718Y18845D01*
X21702Y18825D01*
X21690Y18803D01*
X21682Y18779D01*
X21678Y18754D01*
X21679Y18729D01*
X21684Y18704D01*
X21694Y18681D01*
X21707Y18659D01*
X21725Y18641D01*
X21745Y18626D01*
X21767Y18614D01*
X21792Y18607D01*
X21817Y18604D01*
X21842Y18606D01*
X21866Y18612D01*
X21889Y18622D01*
X21910Y18637D01*
X21928Y18654D01*
X21943Y18675D01*
X22481Y18977D02*
X22505Y18990D01*
X22526Y19008D01*
X22543Y19029D01*
X22556Y19053D01*
X22564Y19080D01*
X22566Y19107D01*
X21114Y19468D02*
X21101Y19491D01*
X21085Y19510D01*
X21066Y19527D01*
X21044Y19540D01*
X21020Y19549D01*
X20995Y19553D01*
X20969Y19553D01*
X20944Y19548D01*
X20921Y19539D01*
X20899Y19525D01*
X20880Y19508D01*
X20864Y19488D01*
X20852Y19466D01*
X20845Y19441D01*
X20842Y19416D01*
X20843Y19391D01*
X20849Y19366D01*
X20860Y19342D01*
X20874Y19321D01*
X20892Y19303D01*
X20913Y19288D01*
X21842Y19169D02*
X21819Y19164D01*
X21800Y19151D01*
X21787Y19132D01*
X21782Y19109D01*
X21842Y19169D02*
X21819Y19164D01*
X21800Y19151D01*
X21787Y19132D01*
X21782Y19109D01*
X21122Y19469D02*
X21114Y19468D01*
X21406Y19409D02*
X21402Y19432D01*
X21389Y19451D01*
X21370Y19464D01*
X21347Y19469D01*
X21406Y19409D02*
X21402Y19432D01*
X21389Y19451D01*
X21370Y19464D01*
X21347Y19469D01*
X22566Y19107D02*
X22564Y19133D01*
X22557Y19157D01*
X22546Y19180D01*
X22531Y19201D01*
X22512Y19219D01*
X22490Y19233D01*
X22466Y19243D01*
X22441Y19248D01*
X22415Y19249D01*
X22390Y19245D01*
X22366Y19236D01*
X22343Y19223D01*
X22323Y19207D01*
X22307Y19187D01*
X22295Y19164D01*
X22272Y19169D01*
X22944Y19172D02*
X22963Y19159D01*
X22986Y19155D01*
X22944Y19172D02*
X22963Y19159D01*
X22986Y19155D01*
X23156D02*
X23174Y19158D01*
X23187Y19135D01*
X23203Y19115D01*
X23223Y19099D01*
X23245Y19086D01*
X23270Y19077D01*
X23295Y19073D01*
X23321Y19074D01*
X23346Y19079D01*
X23370Y19089D01*
X23392Y19103D01*
X23411Y19120D01*
X23426Y19141D01*
X23437Y19164D01*
X23444Y19189D01*
X23446Y19215D01*
X22757Y19384D02*
X22761Y19362D01*
X22774Y19342D01*
X22757Y19384D02*
X22761Y19362D01*
X22774Y19342D01*
X23338Y19726D02*
X23319Y19739D01*
X23296Y19744D01*
X23338Y19726D02*
X23319Y19739D01*
X23296Y19744D01*
X23382Y19334D02*
X23386Y19354D01*
Y19654D02*
X23381Y19677D01*
X23368Y19696D01*
X23386Y19654D02*
X23381Y19677D01*
X23368Y19696D01*
X21455Y20309D02*
X21455Y20335D01*
X21452Y20360D01*
X21448Y20385D01*
X21443Y20409D01*
X21436Y20434D01*
X21427Y20458D01*
X21417Y20481D01*
X21406Y20503D01*
X21393Y20525D01*
X21379Y20546D01*
X21363Y20566D01*
X21346Y20585D01*
X21329Y20603D01*
X21310Y20619D01*
X21290Y20635D01*
X21269Y20649D01*
X21247Y20662D01*
X21224Y20673D01*
X21201Y20683D01*
X21177Y20692D01*
X21153Y20699D01*
X21128Y20705D01*
X21104Y20709D01*
X21078Y20711D01*
X21053Y20712D01*
X21028Y20711D01*
X21003Y20709D01*
X20978Y20705D01*
X20953Y20699D01*
X20929Y20692D01*
X20905Y20683D01*
X20882Y20673D01*
X20859Y20662D01*
X20838Y20649D01*
X20817Y20635D01*
X20797Y20619D01*
X20778Y20603D01*
X20760Y20585D01*
X20743Y20566D01*
X20728Y20546D01*
X20713Y20525D01*
X20701Y20503D01*
X20689Y20481D01*
X20679Y20458D01*
X20670Y20434D01*
X20663Y20409D01*
X20658Y20385D01*
X20654Y20360D01*
X20652Y20335D01*
X20651Y20309D01*
X20652Y20284D01*
X20654Y20259D01*
X20658Y20234D01*
X20663Y20209D01*
X20670Y20185D01*
X20679Y20161D01*
X20689Y20138D01*
X20701Y20116D01*
X20713Y20094D01*
X20728Y20073D01*
X20743Y20053D01*
X20760Y20034D01*
X20778Y20016D01*
X20797Y19999D01*
X20817Y19984D01*
X20838Y19970D01*
X20859Y19957D01*
X20882Y19945D01*
X20905Y19935D01*
X20929Y19927D01*
X20953Y19920D01*
X20978Y19914D01*
X21003Y19910D01*
X21028Y19908D01*
X21053Y19907D01*
X21078Y19908D01*
X21104Y19910D01*
X21128Y19914D01*
X21153Y19920D01*
X21177Y19927D01*
X21201Y19935D01*
X21224Y19945D01*
X21247Y19957D01*
X21269Y19970D01*
X21290Y19984D01*
X21310Y19999D01*
X21329Y20016D01*
X21346Y20034D01*
X21363Y20053D01*
X21379Y20073D01*
X21393Y20094D01*
X21406Y20116D01*
X21417Y20138D01*
X21427Y20161D01*
X21436Y20185D01*
X21443Y20209D01*
X21448Y20234D01*
X21452Y20259D01*
X21455Y20284D01*
X21455Y20309D01*
X20855Y21284D02*
X20833Y21270D01*
X20813Y21252D01*
X20797Y21232D01*
X20785Y21209D01*
X20776Y21185D01*
X20772Y21159D01*
X20772Y21133D01*
X20776Y21108D01*
X20785Y21083D01*
X20797Y21061D01*
X20814Y21040D01*
X20833Y21023D01*
X20855Y21009D01*
X20879Y20999D01*
X20904Y20993D01*
X20930Y20992D01*
X20956Y20995D01*
X20981Y21002D01*
X21004Y21013D01*
X21025Y21028D01*
X21027Y21264D02*
X20998Y21284D01*
X21027Y21303D01*
X21025Y21284D01*
X21027Y21264D01*
X20855Y21558D02*
X20833Y21544D01*
X20813Y21527D01*
X20797Y21507D01*
X20785Y21484D01*
X20776Y21459D01*
X20772Y21434D01*
Y21408D01*
X20776Y21382D01*
X20785Y21358D01*
X20797Y21335D01*
X20813Y21315D01*
X20833Y21298D01*
X20855Y21284D01*
X21080Y21401D02*
X21081Y21421D01*
X21109D02*
X21080Y21401D01*
X21081Y21421D02*
X21080Y21440D01*
X21278Y21164D02*
X21298Y21183D01*
X21314Y21205D01*
X21325Y21230D01*
X21332Y21257D01*
X21335Y21284D01*
X21333Y21308D01*
X21327Y21331D01*
X21318Y21353D01*
X21306Y21374D01*
X21290Y21392D01*
X21272Y21408D01*
X21252Y21421D01*
X21080Y21440D02*
X21109Y21421D01*
X21252D02*
X21272Y21434D01*
X21290Y21449D01*
X21306Y21468D01*
X21318Y21488D01*
X21327Y21511D01*
X21333Y21534D01*
X21335Y21558D01*
Y21558D02*
X21333Y21582D01*
X21327Y21605D01*
X21318Y21628D01*
X21306Y21648D01*
X21290Y21667D01*
X21272Y21682D01*
X21252Y21695D01*
X20246Y23412D02*
X20220Y23411D01*
X20195Y23408D01*
X20170Y23403D01*
X20145Y23396D01*
X20121Y23387D01*
X20097Y23377D01*
X20075Y23364D01*
X20053Y23350D01*
X20033Y23334D01*
X20014Y23316D01*
X19997Y23297D01*
X19981Y23277D01*
X19967Y23256D01*
X19954Y23233D01*
X19943Y23210D01*
X19934Y23186D01*
X19927Y23161D01*
X19922Y23136D01*
X19919Y23110D01*
X19918Y23084D01*
X21455Y22809D02*
X21455Y22835D01*
X21452Y22860D01*
X21448Y22885D01*
X21443Y22909D01*
X21436Y22934D01*
X21427Y22958D01*
X21417Y22981D01*
X21406Y23003D01*
X21393Y23025D01*
X21379Y23046D01*
X21363Y23066D01*
X21346Y23085D01*
X21329Y23103D01*
X21310Y23119D01*
X21290Y23135D01*
X21269Y23149D01*
X21247Y23162D01*
X21224Y23173D01*
X21201Y23183D01*
X21177Y23192D01*
X21153Y23199D01*
X21128Y23205D01*
X21104Y23209D01*
X21078Y23211D01*
X21053Y23212D01*
X21028Y23211D01*
X21003Y23209D01*
X20978Y23205D01*
X20953Y23199D01*
X20929Y23192D01*
X20905Y23183D01*
X20882Y23173D01*
X20859Y23162D01*
X20838Y23149D01*
X20817Y23135D01*
X20797Y23119D01*
X20778Y23103D01*
X20760Y23085D01*
X20743Y23066D01*
X20728Y23046D01*
X20713Y23025D01*
X20701Y23003D01*
X20689Y22981D01*
X20679Y22958D01*
X20670Y22934D01*
X20663Y22909D01*
X20658Y22885D01*
X20654Y22860D01*
X20652Y22835D01*
X20651Y22809D01*
X20652Y22784D01*
X20654Y22759D01*
X20658Y22734D01*
X20663Y22709D01*
X20670Y22685D01*
X20679Y22661D01*
X20689Y22638D01*
X20701Y22616D01*
X20713Y22594D01*
X20728Y22573D01*
X20743Y22553D01*
X20760Y22534D01*
X20778Y22516D01*
X20797Y22499D01*
X20817Y22484D01*
X20838Y22470D01*
X20859Y22457D01*
X20882Y22445D01*
X20905Y22435D01*
X20929Y22427D01*
X20953Y22420D01*
X20978Y22414D01*
X21003Y22410D01*
X21028Y22408D01*
X21053Y22407D01*
X21078Y22408D01*
X21104Y22410D01*
X21128Y22414D01*
X21153Y22420D01*
X21177Y22427D01*
X21201Y22435D01*
X21224Y22445D01*
X21247Y22457D01*
X21269Y22470D01*
X21290Y22484D01*
X21310Y22499D01*
X21329Y22516D01*
X21346Y22534D01*
X21363Y22553D01*
X21379Y22573D01*
X21393Y22594D01*
X21406Y22616D01*
X21417Y22638D01*
X21427Y22661D01*
X21436Y22685D01*
X21443Y22709D01*
X21448Y22734D01*
X21452Y22759D01*
X21455Y22784D01*
X21455Y22809D01*
X20855Y21832D02*
X20833Y21818D01*
X20813Y21801D01*
X20797Y21781D01*
X20785Y21758D01*
X20776Y21734D01*
X20772Y21708D01*
Y21682D01*
X20776Y21657D01*
X20785Y21632D01*
X20797Y21610D01*
X20813Y21589D01*
X20833Y21572D01*
X20855Y21558D01*
X21027Y22087D02*
X21007Y22102D01*
X20984Y22113D01*
X20961Y22120D01*
X20936Y22124D01*
X20912Y22124D01*
X20887Y22119D01*
X20864Y22111D01*
X20842Y22099D01*
X20822Y22084D01*
X20805Y22066D01*
X20791Y22046D01*
X20781Y22023D01*
X20774Y21999D01*
X20771Y21975D01*
X20773Y21950D01*
X20778Y21926D01*
X20787Y21902D01*
X20799Y21881D01*
X20815Y21862D01*
X20834Y21846D01*
X20855Y21832D01*
X21252Y21695D02*
X21272Y21708D01*
X21290Y21724D01*
X21306Y21742D01*
X21318Y21763D01*
X21327Y21785D01*
X21333Y21808D01*
X21335Y21832D01*
Y21832D02*
X21333Y21856D01*
X21327Y21880D01*
X21318Y21902D01*
X21306Y21923D01*
X21290Y21941D01*
X21272Y21957D01*
X21252Y21970D01*
X21272Y21982D01*
X21290Y21998D01*
X21306Y22016D01*
X21318Y22037D01*
X21327Y22059D01*
X21333Y22083D01*
X21335Y22107D01*
Y22107D02*
X21333Y22132D01*
X21327Y22156D01*
X21317Y22180D01*
X21303Y22201D01*
X21286Y22219D01*
X21266Y22235D01*
X21244Y22248D01*
X21220Y22256D01*
X21196Y22261D01*
X21170Y22261D01*
X21145Y22257D01*
X21121Y22250D01*
X21099Y22238D01*
X21078Y22223D01*
X21061Y22205D01*
X21046Y22184D01*
X21035Y22162D01*
X21028Y22137D01*
X21026Y22112D01*
X21027Y22087D01*
X21788Y20518D02*
X21815Y20527D01*
X21837Y20544D01*
X21788Y20518D02*
X21814Y20527D01*
X21837Y20544D01*
X21937Y20643D02*
X21952Y20663D01*
X21961Y20685D01*
X21964Y20709D01*
X21937Y20644D02*
X21952Y20663D01*
X21961Y20685D01*
X21964Y20709D01*
X21988Y21059D02*
X21985Y21084D01*
X21977Y21108D01*
X21964Y21129D01*
X21947Y21148D01*
X21927Y21162D01*
X21904Y21171D01*
X21879Y21176D01*
X21854Y21175D01*
X21830Y21169D01*
X21808Y21157D01*
X21789Y21142D01*
X21773Y21122D01*
X21762Y21100D01*
X21756Y21076D01*
X21755Y21051D01*
X21759Y21026D01*
X22759Y19832D02*
X22757Y19814D01*
X22986Y20024D02*
X22967Y20021D01*
X22951Y20041D01*
X22932Y20057D01*
X22910Y20070D01*
X22886Y20079D01*
X22860Y20083D01*
X22835Y20083D01*
X22810Y20078D01*
X22786Y20068D01*
X22764Y20055D01*
X22745Y20037D01*
X22730Y20017D01*
X22718Y19994D01*
X22711Y19970D01*
X22708Y19945D01*
X22710Y19919D01*
X22716Y19894D01*
X22727Y19871D01*
X22741Y19850D01*
X22759Y19832D01*
X23188Y20006D02*
X23169Y20019D01*
X23146Y20024D01*
X23246Y19924D02*
X23241Y19947D01*
X23228Y19966D01*
X23246Y19924D02*
X23241Y19947D01*
X23228Y19966D01*
X23188Y20006D02*
X23169Y20019D01*
X23146Y20024D01*
X23276Y20624D02*
X23250Y20618D01*
X23230Y20601D01*
X23218Y20578D01*
Y20551D01*
X23230Y20527D01*
X23250Y20511D01*
X23276Y20505D01*
X21964Y20989D02*
X21977Y21011D01*
X21985Y21034D01*
X21988Y21059D01*
X22463Y21541D02*
X22438Y21540D01*
X22414Y21533D01*
X22391Y21521D01*
X22372Y21505D01*
X22357Y21485D01*
X22346Y21462D01*
X22340Y21438D01*
X22340Y21412D01*
X22345Y21388D01*
X22356Y21365D01*
X22371Y21345D01*
X22390Y21328D01*
X22413Y21316D01*
X22437Y21309D01*
X22462Y21308D01*
X22487Y21312D01*
X22511Y21321D01*
X22531Y21335D01*
X22549Y21354D01*
X22562Y21375D01*
X22570Y21399D01*
X22573Y21424D01*
X22910Y21581D02*
X22929Y21564D01*
X22951Y21552D01*
X22975Y21545D01*
X23001Y21543D01*
X23026Y21547D01*
X23050Y21556D01*
X23071Y21570D01*
X23088Y21588D01*
X23102Y21610D01*
X23110Y21634D01*
X23113Y21659D01*
X23110Y21685D01*
X23102Y21709D01*
X23088Y21731D01*
X23071Y21749D01*
X23050Y21763D01*
X23026Y21772D01*
X23001Y21776D01*
X22975Y21774D01*
X22951Y21767D01*
X22929Y21754D01*
X22910Y21737D01*
X22696D02*
X22667Y21732D01*
X22641Y21715D01*
X22696Y21737D02*
X22667Y21732D01*
X22641Y21715D01*
X24375Y18880D02*
X24373Y18906D01*
X24366Y18930D01*
X24354Y18952D01*
X24338Y18972D01*
X24318Y18988D01*
X24296Y19000D01*
X24271Y19007D01*
X24246Y19010D01*
X24221Y19007D01*
X24197Y19000D01*
X24174Y18988D01*
X24155Y18972D01*
X24139Y18952D01*
X24127Y18930D01*
X24119Y18906D01*
X24117Y18880D01*
X24119Y18855D01*
X24127Y18831D01*
X24139Y18809D01*
X24155Y18789D01*
X24174Y18773D01*
X24197Y18761D01*
X24221Y18754D01*
X24246Y18751D01*
X24271Y18754D01*
X24296Y18761D01*
X24318Y18773D01*
X24338Y18789D01*
X24354Y18809D01*
X24366Y18831D01*
X24373Y18855D01*
X24375Y18880D01*
X25148Y18769D02*
X25153Y18746D01*
X25165Y18727D01*
X25185Y18714D01*
X25207Y18709D01*
X25148Y18769D02*
X25153Y18746D01*
X25165Y18727D01*
X25185Y18714D01*
X25207Y18709D01*
X23446Y19215D02*
X23445Y19238D01*
X23439Y19261D01*
X23429Y19283D01*
X23416Y19302D01*
X23400Y19320D01*
X23382Y19334D01*
X24375Y19388D02*
X24373Y19414D01*
X24366Y19438D01*
X24354Y19460D01*
X24338Y19480D01*
X24318Y19496D01*
X24296Y19508D01*
X24271Y19515D01*
X24246Y19518D01*
X24221Y19515D01*
X24197Y19508D01*
X24174Y19496D01*
X24155Y19480D01*
X24139Y19460D01*
X24127Y19438D01*
X24119Y19414D01*
X24117Y19388D01*
X24119Y19363D01*
X24127Y19339D01*
X24139Y19317D01*
X24155Y19297D01*
X24174Y19281D01*
X24197Y19269D01*
X24221Y19262D01*
X24246Y19259D01*
X24271Y19262D01*
X24296Y19269D01*
X24318Y19281D01*
X24338Y19297D01*
X24354Y19317D01*
X24366Y19339D01*
X24373Y19363D01*
X24375Y19388D01*
X24629Y19134D02*
X24627Y19160D01*
X24620Y19184D01*
X24608Y19206D01*
X24592Y19226D01*
X24572Y19242D01*
X24550Y19254D01*
X24525Y19261D01*
X24500Y19264D01*
X24475Y19261D01*
X24451Y19254D01*
X24428Y19242D01*
X24409Y19226D01*
X24393Y19206D01*
X24381Y19184D01*
X24373Y19160D01*
X24371Y19134D01*
X24373Y19109D01*
X24381Y19085D01*
X24393Y19063D01*
X24409Y19043D01*
X24428Y19027D01*
X24451Y19015D01*
X24475Y19008D01*
X24500Y19005D01*
X24525Y19008D01*
X24550Y19015D01*
X24572Y19027D01*
X24592Y19043D01*
X24608Y19063D01*
X24620Y19085D01*
X24627Y19109D01*
X24629Y19134D01*
X25387Y19255D02*
X25374Y19276D01*
X25358Y19296D01*
X25339Y19311D01*
X25318Y19324D01*
X25294Y19332D01*
X25270Y19337D01*
X25245Y19336D01*
X25220Y19332D01*
X25197Y19323D01*
X25176Y19311D01*
X25157Y19295D01*
X25141Y19276D01*
X25129Y19254D01*
X25120Y19230D01*
X25116Y19206D01*
X25117Y19181D01*
X25121Y19157D01*
X25130Y19133D01*
X25143Y19112D01*
X25159Y19093D01*
X25159D02*
X25148Y19059D01*
X25446Y19313D02*
X25424Y19309D01*
X25404Y19296D01*
X25391Y19277D01*
X25387Y19255D01*
X25497Y18709D02*
X25533Y18721D01*
X25555Y18707D01*
X25580Y18698D01*
X25605Y18693D01*
X25632Y18693D01*
X25657Y18698D01*
X25682Y18707D01*
X25704Y18721D01*
X25723Y18739D01*
X25739Y18760D01*
X25751Y18783D01*
X25758Y18808D01*
X25761Y18834D01*
X25706Y18947D02*
X25707Y18959D01*
X25707Y19254D02*
X25702Y19277D01*
X25690Y19296D01*
X25670Y19309D01*
X25647Y19313D01*
X25707Y19254D02*
X25702Y19277D01*
X25690Y19296D01*
X25670Y19309D01*
X25647Y19313D01*
X25761Y18834D02*
X25758Y18860D01*
X25751Y18885D01*
X25740Y18908D01*
X25725Y18929D01*
X25706Y18947D01*
X25542Y19754D02*
X25520Y19742D01*
X25500Y19725D01*
X25485Y19705D01*
X25473Y19682D01*
X25466Y19658D01*
X25464Y19633D01*
X25467Y19608D01*
X25475Y19583D01*
X25487Y19561D01*
X25503Y19541D01*
X25522Y19525D01*
X25545Y19513D01*
X25569Y19505D01*
X25594Y19503D01*
X25619Y19505D01*
X25644Y19511D01*
X25666Y19523D01*
X25686Y19538D01*
X25679Y19515D01*
X25676Y19490D01*
X25678Y19465D01*
X25683Y19441D01*
X25692Y19418D01*
X25705Y19397D01*
X25721Y19378D01*
X25740Y19362D01*
X25762Y19350D01*
X25785Y19342D01*
X25810Y19337D01*
X25834Y19337D01*
X25859Y19340D01*
X25882Y19348D01*
X25904Y19359D01*
X25924Y19374D01*
X25941Y19393D01*
X25955Y19413D01*
X25965Y19436D01*
X25971Y19460D01*
X25973Y19485D01*
X25971Y19509D01*
X25965Y19532D01*
X25956Y19554D01*
X25942Y19575D01*
X26046D02*
X26068Y19579D01*
X26088Y19592D01*
X26100Y19611D01*
X26105Y19634D01*
X26046Y19575D02*
X26068Y19579D01*
X26088Y19592D01*
X26100Y19611D01*
X26105Y19634D01*
X26105Y19966D02*
X26126Y19979D01*
X26143Y19995D01*
X26158Y20015D01*
X26169Y20037D01*
X26175Y20060D01*
X26178Y20084D01*
X29996Y17607D02*
X30022Y17608D01*
X30047Y17611D01*
X30073Y17616D01*
X30097Y17623D01*
X30122Y17632D01*
X30145Y17642D01*
X30167Y17655D01*
X30189Y17669D01*
X30209Y17685D01*
X30228Y17703D01*
X30245Y17721D01*
X30261Y17742D01*
X30276Y17763D01*
X30288Y17786D01*
X30299Y17809D01*
X30308Y17833D01*
X30315Y17858D01*
X30320Y17883D01*
X30323Y17909D01*
X30324Y17934D01*
X27357Y19541D02*
X27350Y19518D01*
X27347Y19493D01*
X27348Y19468D01*
X27353Y19444D01*
X27363Y19421D01*
X27375Y19400D01*
X27392Y19381D01*
X27411Y19365D01*
X27432Y19353D01*
X27456Y19345D01*
X27480Y19340D01*
X27505Y19340D01*
X27529Y19343D01*
X27553Y19351D01*
X27575Y19362D01*
X27595Y19377D01*
X27611Y19396D01*
X27625Y19416D01*
X27635Y19439D01*
X27641Y19463D01*
X27643Y19488D01*
X27642Y19512D01*
X27636Y19535D01*
X27626Y19557D01*
X27613Y19578D01*
X27212Y19757D02*
X27190Y19745D01*
X27171Y19728D01*
X27155Y19708D01*
X27144Y19685D01*
X27137Y19661D01*
X27135Y19636D01*
X27137Y19611D01*
X27145Y19586D01*
X27157Y19564D01*
X27173Y19544D01*
X27193Y19528D01*
X27215Y19516D01*
X27239Y19508D01*
X27264Y19506D01*
X27290Y19508D01*
X27314Y19514D01*
X27337Y19526D01*
X27357Y19541D01*
X28157Y19541D02*
X28150Y19518D01*
X28147Y19493D01*
X28148Y19468D01*
X28154Y19444D01*
X28163Y19421D01*
X28176Y19400D01*
X28192Y19381D01*
X28211Y19365D01*
X28233Y19353D01*
X28256Y19345D01*
X28280Y19340D01*
X28305Y19340D01*
X28330Y19343D01*
X28353Y19351D01*
X28375Y19362D01*
X28395Y19377D01*
X28412Y19396D01*
X28426Y19416D01*
X28436Y19439D01*
X28442Y19463D01*
X28444Y19488D01*
X28012Y19757D02*
X27990Y19745D01*
X27971Y19728D01*
X27956Y19708D01*
X27944Y19685D01*
X27937Y19661D01*
X27935Y19636D01*
X27938Y19611D01*
X27945Y19586D01*
X27957Y19564D01*
X27974Y19544D01*
X27993Y19528D01*
X28015Y19516D01*
X28040Y19508D01*
X28065Y19506D01*
X28090Y19508D01*
X28115Y19514D01*
X28137Y19526D01*
X28157Y19541D01*
X28444Y19488D02*
X28442Y19512D01*
X28436Y19535D01*
X28426Y19557D01*
X28413Y19578D01*
X27716Y19578D02*
X27739Y19582D01*
X27758Y19595D01*
X27771Y19614D01*
X27775Y19637D01*
X27716Y19578D02*
X27739Y19582D01*
X27758Y19595D01*
X27771Y19614D01*
X27775Y19637D01*
X28516Y19578D02*
X28539Y19582D01*
X28558Y19595D01*
X28571Y19614D01*
X28576Y19637D01*
X28516Y19578D02*
X28539Y19582D01*
X28558Y19595D01*
X28571Y19614D01*
X28576Y19637D01*
X28957Y19541D02*
X28950Y19518D01*
X28947Y19493D01*
X28948Y19468D01*
X28953Y19444D01*
X28963Y19421D01*
X28975Y19400D01*
X28992Y19381D01*
X29011Y19365D01*
X29032Y19353D01*
X29056Y19345D01*
X29080Y19340D01*
X29105Y19340D01*
X29129Y19343D01*
X29153Y19351D01*
X29175Y19362D01*
X29195Y19377D01*
X29211Y19396D01*
X29225Y19416D01*
X29235Y19439D01*
X29241Y19463D01*
X29243Y19488D01*
X28812Y19757D02*
X28790Y19745D01*
X28771Y19728D01*
X28755Y19708D01*
X28744Y19685D01*
X28737Y19661D01*
X28735Y19636D01*
X28737Y19611D01*
X28745Y19586D01*
X28757Y19564D01*
X28773Y19544D01*
X28793Y19528D01*
X28815Y19516D01*
X28839Y19508D01*
X28864Y19506D01*
X28890Y19508D01*
X28914Y19514D01*
X28937Y19526D01*
X28957Y19541D01*
X29243Y19488D02*
X29242Y19512D01*
X29236Y19535D01*
X29226Y19557D01*
X29213Y19578D01*
X29316D02*
X29339Y19582D01*
X29358Y19595D01*
X29371Y19614D01*
X29375Y19637D01*
X29316Y19578D02*
X29339Y19582D01*
X29358Y19595D01*
X29371Y19614D01*
X29375Y19637D01*
X25601Y20138D02*
X25578Y20134D01*
X25559Y20121D01*
X25546Y20101D01*
X25542Y20079D01*
X25601Y20138D02*
X25578Y20134D01*
X25559Y20121D01*
X25546Y20101D01*
X25542Y20079D01*
X25973Y20234D02*
X25971Y20260D01*
X25964Y20285D01*
X25953Y20308D01*
X25938Y20329D01*
X25920Y20348D01*
X25899Y20362D01*
X25875Y20373D01*
X25850Y20380D01*
X25825Y20382D01*
X25799Y20380D01*
X25774Y20373D01*
X25750Y20362D01*
X25729Y20347D01*
X25711Y20329D01*
X25696Y20308D01*
X25685Y20284D01*
X25679Y20259D01*
X25676Y20234D01*
X25679Y20208D01*
X25685Y20183D01*
X25696Y20159D01*
X25711Y20138D01*
X26178Y20084D02*
X26175Y20108D01*
X26169Y20132D01*
X26158Y20153D01*
X26143Y20173D01*
X26125Y20189D01*
X26104Y20202D01*
X26082Y20211D01*
X26058Y20215D01*
X26033Y20215D01*
X26010Y20211D01*
X25987Y20202D01*
X25966Y20189D01*
X25971Y20211D01*
X25973Y20234D01*
X25165Y21684D02*
X25162Y21710D01*
X25154Y21734D01*
X25141Y21756D01*
X25123Y21775D01*
X25102Y21790D01*
X25078Y21799D01*
X25053Y21803D01*
X25027Y21802D01*
X25002Y21795D01*
X24979Y21783D01*
X24960Y21766D01*
X24944Y21746D01*
X24933Y21722D01*
X24928Y21697D01*
Y21672D01*
X24933Y21646D01*
X24944Y21623D01*
X24960Y21602D01*
X24979Y21586D01*
X25002Y21574D01*
X25027Y21567D01*
X25053Y21565D01*
X25078Y21570D01*
X25102Y21579D01*
X25123Y21594D01*
X25141Y21612D01*
X25154Y21634D01*
X25162Y21659D01*
X25165Y21684D01*
Y22106D02*
X25162Y22132D01*
X25154Y22156D01*
X25141Y22178D01*
X25123Y22197D01*
X25102Y22211D01*
X25078Y22221D01*
X25053Y22225D01*
X25027Y22224D01*
X25002Y22217D01*
X24979Y22205D01*
X24960Y22188D01*
X24944Y22167D01*
X24933Y22144D01*
X24928Y22119D01*
Y22093D01*
X24933Y22068D01*
X24944Y22045D01*
X24960Y22024D01*
X24979Y22007D01*
X25002Y21995D01*
X25027Y21988D01*
X25053Y21987D01*
X25078Y21991D01*
X25102Y22001D01*
X25123Y22015D01*
X25141Y22034D01*
X25154Y22056D01*
X25162Y22080D01*
X25165Y22106D01*
X27271Y20141D02*
X27249Y20137D01*
X27229Y20124D01*
X27217Y20104D01*
X27212Y20082D01*
X27271Y20141D02*
X27249Y20137D01*
X27229Y20124D01*
X27217Y20104D01*
X27212Y20082D01*
X26869Y21810D02*
X26863Y21785D01*
X26862Y21759D01*
X26865Y21734D01*
X26872Y21709D01*
X26884Y21687D01*
X26899Y21666D01*
X26918Y21649D01*
X26939Y21635D01*
X26963Y21624D01*
X26987Y21618D01*
X27013Y21617D01*
X27038Y21619D01*
X27063Y21626D01*
X27086Y21637D01*
X27107Y21652D01*
X27124Y21671D01*
X27139Y21692D01*
X27150Y21715D01*
X27156Y21740D01*
X27158Y21765D01*
Y21765D02*
X27156Y21791D01*
X27149Y21816D01*
X27138Y21839D01*
X27123Y21861D01*
X26730Y22033D02*
X26708Y22019D01*
X26689Y22001D01*
X26674Y21980D01*
X26664Y21957D01*
X26658Y21932D01*
X26657Y21906D01*
X26662Y21880D01*
X26671Y21856D01*
X26684Y21835D01*
X26702Y21816D01*
X26723Y21801D01*
X26746Y21790D01*
X26771Y21784D01*
X26797Y21783D01*
X26822Y21787D01*
X26847Y21796D01*
X26869Y21810D01*
X27234Y21861D02*
X27256Y21865D01*
X27276Y21878D01*
X27289Y21897D01*
X27293Y21920D01*
X27234Y21861D02*
X27256Y21865D01*
X27276Y21878D01*
X27289Y21897D01*
X27293Y21920D01*
X26789Y22424D02*
X26766Y22420D01*
X26747Y22407D01*
X26734Y22387D01*
X26730Y22365D01*
X26789Y22424D02*
X26766Y22420D01*
X26747Y22407D01*
X26734Y22387D01*
X26730Y22365D01*
X27158Y22514D02*
X27156Y22540D01*
X27150Y22564D01*
X27139Y22588D01*
X27124Y22609D01*
X27106Y22627D01*
X27086Y22642D01*
X27063Y22653D01*
X27038Y22660D01*
X27013Y22663D01*
X26987Y22661D01*
X26962Y22655D01*
X26939Y22644D01*
X26918Y22630D01*
X26899Y22613D01*
X26884Y22592D01*
X26872Y22569D01*
X26865Y22545D01*
X26862Y22520D01*
X26863Y22494D01*
X26869Y22469D01*
X26879Y22446D01*
X26892Y22424D01*
X27148Y22460D02*
X27156Y22487D01*
X27158Y22514D01*
X27293Y22244D02*
X27315Y22257D01*
X27334Y22273D01*
X27349Y22293D01*
X27361Y22315D01*
X27368Y22339D01*
X27370Y22364D01*
X27368Y22390D01*
X27361Y22414D01*
X27349Y22437D01*
X27333Y22457D01*
X27313Y22473D01*
X27291Y22485D01*
X27267Y22493D01*
X27241Y22496D01*
X27216Y22494D01*
X27191Y22487D01*
X27168Y22476D01*
X27148Y22460D01*
X27643Y20237D02*
X27641Y20263D01*
X27635Y20288D01*
X27624Y20311D01*
X27609Y20332D01*
X27590Y20351D01*
X27569Y20365D01*
X27546Y20376D01*
X27521Y20383D01*
X27495Y20385D01*
X27469Y20383D01*
X27444Y20376D01*
X27421Y20365D01*
X27400Y20350D01*
X27381Y20332D01*
X27367Y20311D01*
X27356Y20287D01*
X27349Y20262D01*
X27347Y20237D01*
X27349Y20211D01*
X27356Y20186D01*
X27367Y20162D01*
X27382Y20141D01*
X27637Y20192D02*
X27642Y20214D01*
X27643Y20237D01*
X27775Y19969D02*
X27796Y19982D01*
X27814Y19998D01*
X27828Y20018D01*
X27839Y20040D01*
X27846Y20063D01*
X27848Y20087D01*
X28072Y20141D02*
X28049Y20137D01*
X28030Y20124D01*
X28017Y20104D01*
X28012Y20082D01*
X28072Y20141D02*
X28049Y20137D01*
X28030Y20124D01*
X28017Y20104D01*
X28012Y20082D01*
X27848Y20087D02*
X27846Y20111D01*
X27839Y20135D01*
X27828Y20156D01*
X27814Y20176D01*
X27796Y20192D01*
X27775Y20205D01*
X27752Y20214D01*
X27728Y20218D01*
X27704Y20218D01*
X27680Y20214D01*
X27657Y20205D01*
X27637Y20192D01*
X27769Y21810D02*
X27763Y21785D01*
X27762Y21759D01*
X27765Y21734D01*
X27772Y21709D01*
X27784Y21687D01*
X27799Y21666D01*
X27818Y21649D01*
X27839Y21635D01*
X27863Y21624D01*
X27887Y21618D01*
X27913Y21617D01*
X27938Y21619D01*
X27963Y21626D01*
X27986Y21637D01*
X28007Y21652D01*
X28024Y21671D01*
X28039Y21692D01*
X28050Y21715D01*
X28056Y21740D01*
X28058Y21765D01*
X28576Y19969D02*
X28596Y19982D01*
X28614Y19998D01*
X28629Y20018D01*
X28640Y20040D01*
X28646Y20063D01*
X28648Y20087D01*
X28871Y20141D02*
X28849Y20137D01*
X28829Y20124D01*
X28817Y20104D01*
X28812Y20082D01*
X28648Y20087D02*
X28646Y20111D01*
X28639Y20135D01*
X28629Y20156D01*
X28614Y20176D01*
X28596Y20192D01*
X28575Y20205D01*
X28553Y20214D01*
X28529Y20218D01*
X28504Y20218D01*
X28480Y20214D01*
X28458Y20205D01*
X28437Y20192D01*
X28444Y20237D02*
X28442Y20263D01*
X28435Y20288D01*
X28424Y20311D01*
X28409Y20332D01*
X28391Y20351D01*
X28370Y20365D01*
X28346Y20376D01*
X28321Y20383D01*
X28295Y20385D01*
X28270Y20383D01*
X28245Y20376D01*
X28221Y20365D01*
X28200Y20350D01*
X28182Y20332D01*
X28167Y20311D01*
X28156Y20287D01*
X28149Y20262D01*
X28147Y20237D01*
X28150Y20211D01*
X28156Y20186D01*
X28167Y20162D01*
X28182Y20141D01*
X28437Y20192D02*
X28442Y20214D01*
X28444Y20237D01*
X29375Y19969D02*
X29396Y19982D01*
X29414Y19998D01*
X29428Y20018D01*
X29439Y20040D01*
X29446Y20063D01*
X29448Y20087D01*
X28871Y20141D02*
X28849Y20137D01*
X28829Y20124D01*
X28817Y20104D01*
X28812Y20082D01*
X29448Y20087D02*
X29446Y20111D01*
X29439Y20135D01*
X29428Y20156D01*
X29414Y20176D01*
X29396Y20192D01*
X29375Y20205D01*
X29352Y20214D01*
X29328Y20218D01*
X29304Y20218D01*
X29280Y20214D01*
X29257Y20205D01*
X29237Y20192D01*
X29243Y20237D02*
X29241Y20263D01*
X29235Y20288D01*
X29224Y20311D01*
X29209Y20332D01*
X29190Y20351D01*
X29169Y20365D01*
X29146Y20376D01*
X29121Y20383D01*
X29095Y20385D01*
X29069Y20383D01*
X29044Y20376D01*
X29021Y20365D01*
X29000Y20350D01*
X28981Y20332D01*
X28967Y20311D01*
X28956Y20287D01*
X28949Y20262D01*
X28947Y20237D01*
X28949Y20211D01*
X28956Y20186D01*
X28967Y20162D01*
X28982Y20141D01*
X29237Y20192D02*
X29242Y20214D01*
X29243Y20237D01*
X28316Y20505D02*
X28339Y20509D01*
X28358Y20522D01*
X28371Y20542D01*
X28376Y20564D01*
X28371Y20587D01*
X28358Y20606D01*
X28339Y20619D01*
X28316Y20624D01*
X28058Y21765D02*
X28056Y21791D01*
X28049Y21816D01*
X28038Y21839D01*
X28023Y21861D01*
X27630Y22033D02*
X27608Y22019D01*
X27589Y22001D01*
X27574Y21980D01*
X27564Y21957D01*
X27558Y21932D01*
X27557Y21906D01*
X27562Y21880D01*
X27571Y21856D01*
X27584Y21835D01*
X27602Y21816D01*
X27623Y21801D01*
X27646Y21790D01*
X27671Y21784D01*
X27697Y21783D01*
X27722Y21787D01*
X27747Y21796D01*
X27769Y21810D01*
X27689Y22424D02*
X27666Y22420D01*
X27647Y22407D01*
X27634Y22387D01*
X27630Y22365D01*
X27689Y22424D02*
X27666Y22420D01*
X27647Y22407D01*
X27634Y22387D01*
X27630Y22365D01*
X28270Y22364D02*
X28268Y22390D01*
X28261Y22414D01*
X28249Y22437D01*
X28233Y22457D01*
X28213Y22473D01*
X28191Y22485D01*
X28167Y22493D01*
X28141Y22496D01*
X28116Y22494D01*
X28091Y22487D01*
X28068Y22476D01*
X28048Y22460D01*
X28056Y22487D01*
X28058Y22514D01*
X28056Y22540D01*
X28050Y22564D01*
X28039Y22588D01*
X28024Y22609D01*
X28006Y22627D01*
X27986Y22642D01*
X27963Y22653D01*
X27938Y22660D01*
X27913Y22663D01*
X27887Y22661D01*
X27862Y22655D01*
X27839Y22644D01*
X27818Y22630D01*
X27799Y22613D01*
X27784Y22592D01*
X27772Y22569D01*
X27765Y22545D01*
X27762Y22520D01*
X27763Y22494D01*
X27769Y22469D01*
X27779Y22446D01*
X27792Y22424D01*
X28134Y21861D02*
X28156Y21865D01*
X28176Y21878D01*
X28189Y21897D01*
X28193Y21920D01*
X28134Y21861D02*
X28156Y21865D01*
X28176Y21878D01*
X28189Y21897D01*
X28193Y21920D01*
Y22244D02*
X28215Y22257D01*
X28234Y22273D01*
X28249Y22293D01*
X28261Y22315D01*
X28268Y22339D01*
X28270Y22364D01*
X30324Y23084D02*
X30323Y23110D01*
X30320Y23136D01*
X30315Y23161D01*
X30308Y23186D01*
X30299Y23210D01*
X30288Y23233D01*
X30276Y23256D01*
X30261Y23277D01*
X30245Y23297D01*
X30228Y23316D01*
X30209Y23334D01*
X30189Y23350D01*
X30167Y23364D01*
X30145Y23377D01*
X30122Y23387D01*
X30097Y23396D01*
X30073Y23403D01*
X30047Y23408D01*
X30022Y23411D01*
X29996Y23412D01*
X19918Y18035D02*
X20023D01*
X19918Y17995D02*
X20082D01*
X19918Y18015D02*
X20046D01*
X19918Y18095D02*
X19985D01*
X19918Y18055D02*
X20007D01*
X19918Y18075D02*
X19994D01*
X20025Y17692D02*
Y18032D01*
X20065Y17661D02*
Y18003D01*
X20045Y17675D02*
Y18015D01*
X19918Y18115D02*
X19979D01*
X19918Y18135D02*
X19976D01*
X20005Y17712D02*
Y18056D01*
X19985Y17736D02*
Y18095D01*
X19918Y18155D02*
X19974D01*
X19918Y18175D02*
X19975D01*
X19918Y18195D02*
X19979D01*
X19918Y18215D02*
X19985D01*
X19918Y18235D02*
X19993D01*
X19918Y18255D02*
X20005D01*
X19985Y18216D02*
Y18603D01*
X19918Y18275D02*
X20022D01*
X20005Y18254D02*
Y18564D01*
X19918Y18295D02*
X20044D01*
X20025Y18278D02*
Y18540D01*
X20065Y18308D02*
Y18511D01*
X20045Y18295D02*
Y18523D01*
X20145Y17622D02*
Y17982D01*
X20165Y17617D02*
Y17983D01*
X20085Y17649D02*
Y17993D01*
X20125Y17630D02*
Y17983D01*
X20105Y17638D02*
Y17987D01*
X20205Y17609D02*
Y17991D01*
X20225Y17607D02*
Y18000D01*
X20245Y17607D02*
Y18011D01*
X20185Y17612D02*
Y17986D01*
X20265Y17607D02*
Y18027D01*
X20214Y17995D02*
X20590D01*
X20250Y18015D02*
X20554D01*
X19918Y18315D02*
X20079D01*
X20085Y18317D02*
Y18501D01*
X20105Y18324D02*
Y18495D01*
X20265Y18284D02*
Y18302D01*
X20245Y18299D02*
Y18334D01*
X20225Y18311D02*
Y18508D01*
X20252Y18295D02*
X20272D01*
X20218Y18315D02*
X20256D01*
X19918Y18535D02*
X20031D01*
X19918Y18495D02*
X20107D01*
X19918Y18515D02*
X20058D01*
X19918Y18595D02*
X19989D01*
X19918Y18555D02*
X20013D01*
X19918Y18575D02*
X19999D01*
X20125Y18328D02*
Y18491D01*
X20145Y18329D02*
Y18490D01*
X19918Y18655D02*
X19975D01*
X19918Y18675D02*
X19975D01*
X19918Y18615D02*
X19981D01*
X19918Y18635D02*
X19977D01*
X19918Y18695D02*
X19977D01*
X19918Y18715D02*
X19982D01*
X19918Y18735D02*
X19990D01*
X19918Y18755D02*
X20000D01*
X19918Y18775D02*
X20015D01*
X19918Y18795D02*
X20034D01*
X19918Y18815D02*
X20063D01*
X20065Y18816D02*
Y18984D01*
X20085Y18825D02*
Y18982D01*
X19918Y18835D02*
X20119D01*
X20105Y18832D02*
Y18982D01*
X19918Y18375D02*
X20232D01*
X19918Y18335D02*
X20245D01*
X19918Y18355D02*
X20237D01*
X19918Y18395D02*
X20229D01*
X19918Y18415D02*
X20228D01*
X19918Y18435D02*
X20230D01*
X20165Y18328D02*
Y18491D01*
X20185Y18325D02*
Y18494D01*
X20205Y18319D02*
Y18499D01*
X19918Y18455D02*
X20234D01*
X19918Y18475D02*
X20241D01*
X20189Y18495D02*
X20251D01*
X20238Y18515D02*
X20264D01*
X19918Y18855D02*
X20912D01*
X19918Y18875D02*
X20912D01*
X19918Y18895D02*
X20912D01*
X19918Y18915D02*
X20912D01*
X19918Y18935D02*
X20912D01*
X19918Y18955D02*
X20912D01*
X19918Y18975D02*
X20912D01*
X20245Y18484D02*
Y18519D01*
X20265Y18517D02*
Y18535D01*
X20262Y18795D02*
X20542D01*
X20234Y18815D02*
X20571D01*
X20178Y18835D02*
X20627D01*
X20285Y17607D02*
Y18049D01*
X20302Y18075D02*
X20502D01*
X20305Y17607D02*
Y18081D01*
X20317Y18115D02*
X20487D01*
X20311Y18095D02*
X20493D01*
X20311Y18215D02*
X20493D01*
X20365Y17607D02*
Y18240D01*
X20505Y17607D02*
Y18069D01*
X20485Y17607D02*
Y18123D01*
X20321Y18135D02*
X20484D01*
X20322Y18155D02*
X20482D01*
X20321Y18175D02*
X20483D01*
X20317Y18195D02*
X20487D01*
X20305Y18229D02*
Y18265D01*
X20303Y18235D02*
X20501D01*
X20325Y17607D02*
Y18254D01*
X20285Y18262D02*
Y18281D01*
X20291Y18255D02*
X20323D01*
X20274Y18275D02*
X20292D01*
X20345Y17607D02*
Y18245D01*
X20385Y17607D02*
Y18236D01*
X20405Y17607D02*
Y18236D01*
X20425Y17607D02*
Y18237D01*
X20445Y17607D02*
Y18241D01*
X20465Y17607D02*
Y18248D01*
X20485Y18187D02*
Y18257D01*
X20545Y17607D02*
Y18022D01*
X20585Y17607D02*
Y17997D01*
X20565Y17607D02*
Y18007D01*
X20273Y18035D02*
X20531D01*
X20605Y17607D02*
Y17989D01*
X20625Y17607D02*
Y17984D01*
X20645Y17607D02*
Y17982D01*
X20665Y17607D02*
Y17982D01*
X20685Y17607D02*
Y17984D01*
X20705Y17607D02*
Y17989D01*
X20725Y17607D02*
Y17996D01*
X20745Y17607D02*
Y18006D01*
X20765Y17607D02*
Y18020D01*
X20525Y17607D02*
Y18041D01*
X20290Y18055D02*
X20515D01*
X20505Y18242D02*
Y18270D01*
X20481Y18255D02*
X20513D01*
X20785Y17607D02*
Y18039D01*
X20805Y17607D02*
Y18066D01*
X20825Y17607D02*
Y18116D01*
X20805Y18244D02*
Y18574D01*
X20825Y18195D02*
Y18624D01*
X20265Y18535D02*
X20282D01*
X20285Y18538D02*
Y18557D01*
X20284Y18555D02*
X20307D01*
X20297Y18575D02*
X20348D01*
X20498Y18555D02*
X20521D01*
X20505Y18549D02*
Y18577D01*
X20525Y18270D02*
Y18287D01*
X20512Y18275D02*
X20530D01*
X20545Y18289D02*
Y18311D01*
X20523Y18535D02*
X20539D01*
X20525Y18532D02*
Y18549D01*
X20533Y18295D02*
X20552D01*
X20545Y18508D02*
Y18530D01*
X20305Y18554D02*
Y18589D01*
X20308Y18595D02*
X20497D01*
X20315Y18615D02*
X20489D01*
X20307Y18735D02*
X20498D01*
X20296Y18755D02*
X20508D01*
X20282Y18775D02*
X20523D01*
X20485Y18562D02*
Y18631D01*
X20456Y18575D02*
X20507D01*
X20319Y18635D02*
X20485D01*
X20322Y18655D02*
X20483D01*
X20321Y18675D02*
X20483D01*
X20319Y18695D02*
X20485D01*
X20314Y18715D02*
X20490D01*
X20565Y18304D02*
Y18350D01*
X20548Y18315D02*
X20587D01*
X20585Y18314D02*
Y18505D01*
X20565Y18469D02*
Y18515D01*
X20554Y18495D02*
X20615D01*
X20540Y18515D02*
X20566D01*
X20605Y18322D02*
Y18497D01*
X20705Y18322D02*
Y18497D01*
X20725Y18315D02*
Y18504D01*
X20625Y18326D02*
Y18492D01*
X20645Y18329D02*
Y18490D01*
X20665Y18329D02*
Y18490D01*
X20685Y18327D02*
Y18492D01*
X20585Y18822D02*
Y18982D01*
X20605Y18830D02*
Y18982D01*
X20745Y18304D02*
Y18514D01*
X20765Y18291D02*
Y18528D01*
X20785Y18272D02*
Y18547D01*
X20790Y18775D02*
X20913D01*
X20770Y18795D02*
X20912D01*
X20742Y18815D02*
X20912D01*
X20686Y18835D02*
X20912D01*
X19918Y19035D02*
X19967D01*
X19918Y18995D02*
X20026D01*
X19918Y19015D02*
X19990D01*
X19918Y19095D02*
X19929D01*
X19918Y19055D02*
X19951D01*
X19918Y19075D02*
X19938D01*
X19945Y17804D02*
Y19062D01*
X19985Y18724D02*
Y19018D01*
X19965Y17765D02*
Y19037D01*
X20025Y18786D02*
Y18995D01*
X20005Y18762D02*
Y19005D01*
X20045Y18803D02*
Y18988D01*
X20125Y18836D02*
Y18985D01*
X19918Y17934D02*
Y23084D01*
X19925Y17867D02*
Y19107D01*
X19918Y19215D02*
X19929D01*
X19918Y19235D02*
X19937D01*
X19918Y19255D02*
X19949D01*
X19918Y19275D02*
X19966D01*
X19945Y19248D02*
Y19570D01*
X19925Y19204D02*
Y19615D01*
X19985Y19292D02*
Y19526D01*
X19965Y19274D02*
Y19545D01*
X20145Y18837D02*
Y18990D01*
X20185Y18833D02*
Y19009D01*
X20205Y18827D02*
Y19024D01*
X20165Y18836D02*
Y18998D01*
X20158Y18995D02*
X20534D01*
X20194Y19015D02*
X20498D01*
X20225Y18819D02*
Y19044D01*
X20217Y19035D02*
X20475D01*
X20245Y18807D02*
Y19073D01*
X20255Y19095D02*
X20437D01*
X20261Y19115D02*
X20431D01*
X20234Y19055D02*
X20459D01*
X20246Y19075D02*
X20446D01*
X20225Y19267D02*
Y19284D01*
X20205Y19287D02*
Y19308D01*
X20235Y19255D02*
X20267D01*
X20219Y19275D02*
X20236D01*
X20265Y18792D02*
Y19142D01*
X20265Y19135D02*
X20428D01*
X20266Y19155D02*
X20426D01*
X20261Y19195D02*
X20431D01*
X20245Y19237D02*
Y19268D01*
X20255Y19215D02*
X20437D01*
X20247Y19235D02*
X20445D01*
X19918Y19295D02*
X19988D01*
X19918Y19315D02*
X20023D01*
X20005Y19306D02*
Y19513D01*
X20025Y19316D02*
Y19503D01*
X19918Y19375D02*
X20176D01*
X19918Y19495D02*
X20051D01*
X20045Y19323D02*
Y19496D01*
X20145Y19321D02*
Y19498D01*
X20165Y19313D02*
Y19506D01*
X20065Y19327D02*
Y19492D01*
X20085Y19329D02*
Y19490D01*
X20105Y19329D02*
Y19490D01*
X20125Y19326D02*
Y19493D01*
X19918Y19555D02*
X19957D01*
X19918Y19515D02*
X20002D01*
X19918Y19535D02*
X19975D01*
X19918Y19715D02*
X19926D01*
X19918Y19575D02*
X19943D01*
X19918Y19595D02*
X19933D01*
X19918Y19735D02*
X19934D01*
X19925Y19712D02*
Y23152D01*
X19918Y19755D02*
X19944D01*
X19945Y19756D02*
Y23215D01*
X19918Y19395D02*
X20173D01*
X19918Y19335D02*
X20189D01*
X19918Y19355D02*
X20181D01*
X19918Y19415D02*
X20172D01*
X19918Y19435D02*
X20174D01*
X19918Y19455D02*
X20178D01*
X20185Y19302D02*
Y19344D01*
X20196Y19295D02*
X20216D01*
X20162Y19315D02*
X20200D01*
X19918Y19475D02*
X20185D01*
X20185Y19475D02*
Y19517D01*
X20133Y19495D02*
X20195D01*
X20182Y19515D02*
X20208D01*
X20205Y19511D02*
Y19532D01*
X20209Y19535D02*
X20226D01*
X20225Y19534D02*
Y19552D01*
X20228Y19555D02*
X20251D01*
X20241Y19575D02*
X20292D01*
X20245Y19551D02*
Y19581D01*
X20252Y19595D02*
X20441D01*
X20259Y19615D02*
X20433D01*
X20258Y19715D02*
X20434D01*
X20245Y19745D02*
Y23412D01*
X20251Y19735D02*
X20442D01*
X20240Y19755D02*
X20452D01*
X20325Y18565D02*
Y19237D01*
X20345Y18574D02*
Y19236D01*
X20365Y18579D02*
Y19237D01*
X20265Y19175D02*
X20427D01*
X20445Y18578D02*
Y19076D01*
X20465Y18571D02*
Y19046D01*
X20505Y18750D02*
Y19010D01*
X20485Y18695D02*
Y19025D01*
X20545Y18797D02*
Y18991D01*
X20525Y18778D02*
Y18999D01*
X20565Y18812D02*
Y18985D01*
X20305Y18737D02*
Y19240D01*
X20385Y18582D02*
Y19240D01*
X20405Y18583D02*
Y19246D01*
X20265Y19169D02*
Y19256D01*
X20285Y18770D02*
Y19247D01*
X20425Y19255D02*
X20457D01*
X20425Y18582D02*
Y19255D01*
X20445Y19234D02*
Y19267D01*
X20465Y19265D02*
Y19283D01*
X20456Y19275D02*
X20474D01*
X20485Y19286D02*
Y19305D01*
X20477Y19295D02*
X20496D01*
X20505Y19301D02*
Y19340D01*
X20625Y18834D02*
Y18983D01*
X20645Y18837D02*
Y18988D01*
X20685Y18835D02*
Y19004D01*
X20665Y18837D02*
Y18994D01*
X20666Y18995D02*
X20912D01*
X20765Y18799D02*
Y19102D01*
X20912Y18784D02*
Y19284D01*
X20905Y17607D02*
Y19293D01*
X20705Y18830D02*
Y19017D01*
X20725Y18823D02*
Y19035D01*
X20702Y19015D02*
X20912D01*
X20745Y18812D02*
Y19060D01*
Y19251D02*
Y19568D01*
X20685Y19307D02*
Y19512D01*
X20705Y19294D02*
Y19525D01*
X20704Y19295D02*
X20903D01*
X20725Y19276D02*
Y19543D01*
X20845Y17607D02*
Y19379D01*
X20885Y17607D02*
Y19309D01*
X20865Y17607D02*
Y19333D01*
X20765Y19209D02*
Y19610D01*
X20785Y18780D02*
Y20009D01*
X20825Y18703D02*
Y19978D01*
X20805Y18752D02*
Y19992D01*
X20442Y19555D02*
X20465D01*
X20467Y19535D02*
X20483D01*
X20465Y19536D02*
Y19554D01*
X20263Y19635D02*
X20429D01*
X20400Y19575D02*
X20451D01*
X20445Y19552D02*
Y19584D01*
X20525Y19312D02*
Y19507D01*
X20492Y19315D02*
X20531D01*
X20545Y19320D02*
Y19499D01*
X20505Y19479D02*
Y19518D01*
X20485Y19513D02*
Y19533D01*
X20565Y19326D02*
Y19493D01*
X20484Y19515D02*
X20510D01*
X20265Y19563D02*
Y19650D01*
X20285Y19572D02*
Y23412D01*
X20305Y19578D02*
Y23412D01*
X20266Y19655D02*
X20427D01*
X20265Y19677D02*
Y23412D01*
X20265Y19675D02*
X20427D01*
X20263Y19695D02*
X20429D01*
X20385Y19579D02*
Y23412D01*
X20405Y19573D02*
Y23412D01*
X20425Y19564D02*
Y23412D01*
X20325Y19582D02*
Y23412D01*
X20345Y19583D02*
Y23412D01*
X20365Y19582D02*
Y23412D01*
X20445Y19742D02*
Y23412D01*
X20516Y19375D02*
X20847D01*
X20503Y19335D02*
X20864D01*
X20511Y19355D02*
X20854D01*
X20498Y19495D02*
X20559D01*
X20518Y19435D02*
X20844D01*
X20507Y19475D02*
X20857D01*
X20585Y19329D02*
Y19490D01*
X20670Y19315D02*
X20880D01*
X20605Y19329D02*
Y19490D01*
X20519Y19395D02*
X20843D01*
X20625Y19327D02*
Y19491D01*
X20520Y19415D02*
X20842D01*
X20514Y19455D02*
X20848D01*
X20645Y19323D02*
Y19496D01*
X20641Y19495D02*
X20869D01*
X20665Y19316D02*
Y19502D01*
X20865Y19490D02*
Y19954D01*
X20845Y19443D02*
Y19965D01*
X20690Y19515D02*
X20886D01*
X20765Y19717D02*
Y20028D01*
X20905Y19530D02*
Y19935D01*
X20885Y19514D02*
Y19944D01*
X20965Y17607D02*
Y18725D01*
X20246Y17607D02*
X29996D01*
X20985D02*
Y18725D01*
X21245Y17607D02*
Y18705D01*
X20174Y17615D02*
X30068D01*
X21265Y17607D02*
Y18689D01*
X21285Y17607D02*
Y18678D01*
X21305Y17607D02*
Y18670D01*
X21325Y17607D02*
Y18666D01*
X21345Y17607D02*
Y18665D01*
X21365Y17607D02*
Y18666D01*
X21385Y17607D02*
Y18671D01*
X21405Y17607D02*
Y18679D01*
X20925Y17607D02*
Y18747D01*
X21005Y17607D02*
Y18725D01*
X20945Y17607D02*
Y18731D01*
X21025Y17607D02*
Y18725D01*
X21045Y17607D02*
Y18725D01*
X21065Y17607D02*
Y18725D01*
X21085Y17607D02*
Y18725D01*
X21105Y17607D02*
Y18725D01*
X21125Y17607D02*
Y18725D01*
X21145Y17607D02*
Y18725D01*
X21165Y17607D02*
Y18725D01*
X21185Y17607D02*
Y18725D01*
X21205Y17607D02*
Y18725D01*
X19960Y17775D02*
X30282D01*
X19950Y17795D02*
X30293D01*
X19941Y17815D02*
X30301D01*
X19934Y17835D02*
X30308D01*
X19928Y17855D02*
X30314D01*
X19924Y17875D02*
X30318D01*
X20113Y17635D02*
X30129D01*
X20075Y17655D02*
X30167D01*
X20046Y17675D02*
X30196D01*
X20023Y17695D02*
X30220D01*
X20003Y17715D02*
X30239D01*
X19986Y17735D02*
X30256D01*
X19972Y17755D02*
X30270D01*
X19921Y17895D02*
X30322D01*
X19919Y17915D02*
X30323D01*
X19918Y17935D02*
X30324D01*
X19918Y17955D02*
X30324D01*
X19918Y17975D02*
X30324D01*
X20722Y17995D02*
X30324D01*
X20758Y18015D02*
X30324D01*
X20781Y18035D02*
X30324D01*
X20798Y18055D02*
X30324D01*
X20810Y18075D02*
X30324D01*
X20819Y18095D02*
X30324D01*
X20825Y18115D02*
X30324D01*
X20829Y18135D02*
X30324D01*
X20830Y18155D02*
X30324D01*
X20827Y18695D02*
X21257D01*
X20823Y18615D02*
X21766D01*
X20827Y18635D02*
X21732D01*
X20804Y18755D02*
X20920D01*
X20822Y18715D02*
X21236D01*
X20815Y18735D02*
X20939D01*
X20829Y18675D02*
X21293D01*
X20830Y18655D02*
X21711D01*
X21396Y18675D02*
X21697D01*
X20972Y18725D02*
X21222D01*
X20725Y19035D02*
X20912D01*
X20742Y19055D02*
X20912D01*
X20754Y19075D02*
X20912D01*
X20763Y19095D02*
X20912D01*
X20769Y19115D02*
X20912D01*
X20773Y19135D02*
X20912D01*
X21406Y18935D02*
X21782D01*
X21406Y18955D02*
X21782D01*
X21406Y18975D02*
X21782D01*
X20774Y19155D02*
X20912D01*
X21406Y18995D02*
X21782D01*
X21406Y19015D02*
X21782D01*
X20726Y18315D02*
X30324D01*
X20559Y18335D02*
X30324D01*
X20567Y18355D02*
X30324D01*
X20572Y18375D02*
X30324D01*
X20575Y18395D02*
X30324D01*
X20576Y18415D02*
X30324D01*
X20829Y18175D02*
X30324D01*
X20825Y18195D02*
X30324D01*
X20819Y18215D02*
X30324D01*
X20811Y18235D02*
X30324D01*
X20799Y18255D02*
X30324D01*
X20782Y18275D02*
X30324D01*
X20760Y18295D02*
X30324D01*
X20574Y18435D02*
X30324D01*
X20570Y18455D02*
X30324D01*
X20563Y18475D02*
X30324D01*
X20697Y18495D02*
X30324D01*
X20746Y18515D02*
X30324D01*
X20773Y18535D02*
X30324D01*
X20792Y18555D02*
X30324D01*
X21406Y19035D02*
X21782D01*
X20805Y18575D02*
X30324D01*
X20816Y18595D02*
X30324D01*
X21406Y19055D02*
X21782D01*
X21406Y19075D02*
X21782D01*
X21406Y19095D02*
X21782D01*
X21406Y19115D02*
X21783D01*
X21705Y17607D02*
Y18662D01*
X21745Y17607D02*
Y18625D01*
X21725Y17607D02*
Y18640D01*
X21765Y17607D02*
Y18615D01*
X21785Y17607D02*
Y18608D01*
X21805Y17607D02*
Y18605D01*
X21825Y17607D02*
Y18604D01*
X21845Y17607D02*
Y18606D01*
X21865Y17607D02*
Y18612D01*
X21885Y17607D02*
Y18620D01*
X21905Y17607D02*
Y18633D01*
X21925Y17607D02*
Y18651D01*
X21965Y17607D02*
Y18675D01*
X21425Y17607D02*
Y18690D01*
X21445Y17607D02*
Y18707D01*
X21465Y17607D02*
Y18732D01*
X21485Y17607D02*
Y18790D01*
X21985Y17607D02*
Y18675D01*
X21685Y17607D02*
Y18701D01*
X22005Y17607D02*
Y18675D01*
X22025Y17607D02*
Y18675D01*
X22045Y17607D02*
Y18675D01*
X22065Y17607D02*
Y18675D01*
X22085Y17607D02*
Y18675D01*
X22105Y17607D02*
Y18675D01*
X22125Y17607D02*
Y18675D01*
X22145Y17607D02*
Y18675D01*
X22165Y17607D02*
Y18675D01*
X22185Y17607D02*
Y18675D01*
X22205Y17607D02*
Y18675D01*
X22225Y17607D02*
Y18675D01*
X22245Y17607D02*
Y18675D01*
X22265Y17607D02*
Y18675D01*
X22285Y17607D02*
Y18675D01*
X22305Y17607D02*
Y18675D01*
X22325Y17607D02*
Y18675D01*
X22345Y17607D02*
Y18675D01*
X22365Y17607D02*
Y18675D01*
X22385Y17607D02*
Y18675D01*
X22405Y17607D02*
Y18675D01*
X22425Y17607D02*
Y18675D01*
X22445Y17607D02*
Y18680D01*
X22465Y17607D02*
Y18694D01*
X22485Y17607D02*
Y18979D01*
X22505Y17607D02*
Y18990D01*
X22525Y17607D02*
Y19007D01*
X22545Y17607D02*
Y19032D01*
X22565Y17607D02*
Y19089D01*
X23185Y17607D02*
Y19138D01*
X23225Y17607D02*
Y19097D01*
X23205Y17607D02*
Y19113D01*
X23265Y17607D02*
Y19078D01*
X23245Y17607D02*
Y19086D01*
X21452Y18715D02*
X21681D01*
X21431Y18695D02*
X21688D01*
X21467Y18735D02*
X21678D01*
X21476Y18755D02*
X21678D01*
X21478Y18855D02*
X21728D01*
X21469Y18875D02*
X21759D01*
X21947Y18675D02*
X22422D01*
X21483Y18775D02*
X21681D01*
X21486Y18795D02*
X21686D01*
X21486Y18815D02*
X21695D01*
X21484Y18835D02*
X21709D01*
X21782Y18884D02*
Y19109D01*
X22481Y18734D02*
Y18977D01*
X21456Y18895D02*
X21782D01*
X21437Y18915D02*
X21782D01*
X21406Y19135D02*
X21788D01*
X23285Y17607D02*
Y19074D01*
X23305Y17607D02*
Y19073D01*
X23325Y17607D02*
Y19074D01*
X22566Y19115D02*
X23204D01*
X22564Y19135D02*
X23187D01*
X22563Y19075D02*
X23283D01*
X22566Y19095D02*
X23229D01*
X21873Y18615D02*
X30324D01*
X21908Y18635D02*
X30324D01*
X21928Y18655D02*
X30324D01*
X22478Y18715D02*
X25183D01*
X21943Y18675D02*
X30324D01*
X22466Y18695D02*
X25594D01*
X22481Y18775D02*
X24172D01*
X22481Y18735D02*
X25159D01*
X22481Y18755D02*
X24216D01*
X22481Y18835D02*
X24125D01*
X22481Y18855D02*
X24119D01*
X22481Y18795D02*
X24149D01*
X22481Y18815D02*
X24135D01*
X22481Y18875D02*
X24117D01*
X22481Y18895D02*
X24118D01*
X22481Y18915D02*
X24121D01*
X22481Y18935D02*
X24129D01*
X22481Y18955D02*
X24140D01*
X22481Y18975D02*
X24158D01*
X22511Y18995D02*
X24185D01*
X23345Y17607D02*
Y19079D01*
X22532Y19015D02*
X24451D01*
X23365Y17607D02*
Y19087D01*
X23326Y19075D02*
X24385D01*
X23380Y19095D02*
X24377D01*
X22547Y19035D02*
X24418D01*
X22556Y19055D02*
X24398D01*
X20773Y19175D02*
X20912D01*
X20769Y19195D02*
X20912D01*
X20763Y19215D02*
X20912D01*
X20755Y19235D02*
X20912D01*
X20743Y19255D02*
X20912D01*
X20727Y19275D02*
X20912D01*
X21505Y17607D02*
Y20467D01*
X21525Y17607D02*
Y20467D01*
X21545Y17607D02*
Y20467D01*
X21406Y18935D02*
Y19409D01*
X21425Y18924D02*
Y20157D01*
X21445Y18907D02*
Y20220D01*
X21565Y17607D02*
Y20467D01*
X21585Y17607D02*
Y20467D01*
X21605Y17607D02*
Y20467D01*
X21465Y18881D02*
Y23412D01*
X21625Y17607D02*
Y20467D01*
X21485Y18824D02*
Y23412D01*
X21645Y17607D02*
Y20467D01*
X21665Y17607D02*
Y20467D01*
X21685Y18791D02*
Y20467D01*
X21705Y18830D02*
Y20467D01*
X21725Y18852D02*
Y20467D01*
X21745Y18867D02*
Y20467D01*
X21765Y18877D02*
Y20467D01*
X21406Y19155D02*
X21803D01*
X21406Y19175D02*
X22300D01*
X21406Y19195D02*
X22313D01*
X21406Y19215D02*
X22332D01*
X21406Y19235D02*
X22362D01*
X21406Y19255D02*
X22862D01*
X21785Y19128D02*
Y20467D01*
X21805Y19156D02*
Y20523D01*
X21825Y19166D02*
Y20534D01*
X21842Y19169D02*
X22272D01*
X21406Y19275D02*
X22842D01*
X21845Y19169D02*
Y20552D01*
X21865Y19169D02*
Y20572D01*
X21885Y19169D02*
Y20592D01*
X21905Y19169D02*
Y20612D01*
X21925Y19169D02*
Y20632D01*
X21945Y19169D02*
Y20653D01*
X21965Y19169D02*
Y20991D01*
X21985Y19169D02*
Y21036D01*
X22005Y19169D02*
Y21917D01*
X22025Y19169D02*
Y21917D01*
X22045Y19169D02*
Y21917D01*
X22065Y19169D02*
Y21917D01*
X22085Y19169D02*
Y21917D01*
X22105Y19169D02*
Y21917D01*
X20717Y19535D02*
X20913D01*
X21025Y19547D02*
Y19908D01*
X21045Y19539D02*
Y19907D01*
X20965Y19552D02*
Y19917D01*
X20985Y19553D02*
Y19913D01*
X21005Y19552D02*
Y19910D01*
X21122Y19469D02*
X21347D01*
X21125D02*
Y19914D01*
X21065Y19528D02*
Y19907D01*
X21085Y19511D02*
Y19908D01*
X21105Y19485D02*
Y19910D01*
X21145Y19469D02*
Y19918D01*
X21165Y19469D02*
Y19923D01*
X21185Y19469D02*
Y19929D01*
X21205Y19469D02*
Y19937D01*
X20925Y19541D02*
Y19928D01*
X20945Y19548D02*
Y19922D01*
X21225Y19469D02*
Y19946D01*
X21245Y19469D02*
Y19956D01*
X21265Y19469D02*
Y19968D01*
X21285Y19469D02*
Y19981D01*
X21305Y19469D02*
Y19996D01*
X21325Y19469D02*
Y20013D01*
X21345Y19469D02*
Y20033D01*
X21365Y19466D02*
Y20056D01*
X21401Y19435D02*
X22757D01*
X21386Y19455D02*
X22757D01*
X21111Y19475D02*
X22757D01*
X21099Y19495D02*
X22757D01*
X21406Y19335D02*
X22782D01*
X21406Y19295D02*
X22822D01*
X21406Y19315D02*
X22802D01*
X21406Y19375D02*
X22757D01*
X21406Y19395D02*
X22757D01*
X21406Y19355D02*
X22765D01*
X21406Y19415D02*
X22757D01*
X20736Y19555D02*
X22757D01*
X20749Y19575D02*
X22757D01*
X20760Y19595D02*
X22757D01*
X20767Y19615D02*
X22757D01*
X20771Y19635D02*
X22757D01*
X20766Y19715D02*
X22757D01*
X20759Y19735D02*
X22757D01*
X21385Y19455D02*
Y20082D01*
X21081Y19515D02*
X22757D01*
X21405Y19420D02*
Y20115D01*
X21054Y19535D02*
X22757D01*
X20774Y19655D02*
X22757D01*
X20773Y19675D02*
X22757D01*
X20771Y19695D02*
X22757D01*
X22585Y17607D02*
Y21442D01*
X22605Y17607D02*
Y21461D01*
X22545Y19181D02*
Y21349D01*
X22565Y19125D02*
Y21384D01*
X22625Y17607D02*
Y21481D01*
X22725Y17607D02*
Y19873D01*
X22645Y17607D02*
Y21500D01*
X22765Y17607D02*
Y19353D01*
X22745Y17607D02*
Y19845D01*
X22805Y17607D02*
Y19311D01*
X22785Y17607D02*
Y19331D01*
X22125Y19169D02*
Y21917D01*
X22145Y19169D02*
Y21917D01*
X22165Y19169D02*
Y21917D01*
X22185Y19169D02*
Y21917D01*
X22205Y19169D02*
Y21917D01*
X22225Y19169D02*
Y21917D01*
X22665Y17607D02*
Y21520D01*
X22685Y17607D02*
Y21540D01*
X22705Y17607D02*
Y21559D01*
X22245Y19169D02*
Y23412D01*
X22265Y19169D02*
Y23412D01*
X22285Y19167D02*
Y23412D01*
X22305Y19184D02*
Y23412D01*
X22965Y17607D02*
Y19159D01*
X22985Y17607D02*
Y19155D01*
X23005Y17607D02*
Y19155D01*
X23025Y17607D02*
Y19155D01*
X22986D02*
X23156D01*
X22558Y19155D02*
X23176D01*
X23045Y17607D02*
Y19155D01*
X23065Y17607D02*
Y19155D01*
X23085Y17607D02*
Y19155D01*
X23105Y17607D02*
Y19155D01*
X23125Y17607D02*
Y19155D01*
X23145Y17607D02*
Y19155D01*
X23165Y17607D02*
Y19156D01*
X22825Y17607D02*
Y19291D01*
X22865Y17607D02*
Y19251D01*
X22845Y17607D02*
Y19271D01*
X22536Y19195D02*
X22922D01*
X22885Y17607D02*
Y19231D01*
X22549Y19175D02*
X22942D01*
X22774Y19342D02*
X22944Y19172D01*
X22905Y17607D02*
Y19211D01*
X22945Y17607D02*
Y19171D01*
X22925Y17607D02*
Y19191D01*
X22517Y19215D02*
X22902D01*
X22486Y19235D02*
X22882D01*
X22757Y19384D02*
Y19814D01*
X23246Y19749D02*
Y19924D01*
X23338Y19726D02*
X23368Y19696D01*
X23265Y19744D02*
Y20506D01*
X23285Y19744D02*
Y20505D01*
X23251Y19744D02*
X23296D01*
X23305Y19743D02*
Y20505D01*
X22325Y19209D02*
Y23412D01*
X22365Y19236D02*
Y21351D01*
X22345Y19225D02*
Y21388D01*
X22405Y19248D02*
Y21319D01*
X22385Y19243D02*
Y21332D01*
X22445Y19247D02*
Y21308D01*
X22425Y19249D02*
Y21312D01*
X22485Y19235D02*
Y21312D01*
X22505Y19224D02*
Y21319D01*
X22525Y19207D02*
Y21331D01*
X23325Y19736D02*
Y20505D01*
X22465Y19243D02*
Y21308D01*
X23345Y19719D02*
Y20505D01*
X23365Y19699D02*
Y20505D01*
X23382Y19335D02*
X24129D01*
X23385Y19332D02*
Y19349D01*
X23386Y19355D02*
X24121D01*
X23386Y19375D02*
X24118D01*
X23386Y19395D02*
X24117D01*
X23386Y19415D02*
X24119D01*
X23386Y19435D02*
X24125D01*
X23386Y19455D02*
X24135D01*
X23386Y19475D02*
X24150D01*
X23386Y19495D02*
X24172D01*
X23386Y19515D02*
X24218D01*
X23386Y19535D02*
X25510D01*
X23386Y19555D02*
X25491D01*
X23386Y19575D02*
X25479D01*
X23370Y19695D02*
X25479D01*
X23350Y19715D02*
X25491D01*
X23328Y19735D02*
X25510D01*
X23386Y19354D02*
Y19654D01*
Y19595D02*
X25470D01*
X23386Y19615D02*
X25466D01*
X23386Y19635D02*
X25464D01*
X23385Y19660D02*
Y20505D01*
X23386Y19655D02*
X25466D01*
X23382Y19675D02*
X25471D01*
X19918Y19775D02*
X19959D01*
X19918Y19795D02*
X19978D01*
X19918Y19815D02*
X20007D01*
X19918Y19835D02*
X20062D01*
X19918Y20135D02*
X20691D01*
X19918Y20155D02*
X20682D01*
X20226Y19775D02*
X20467D01*
X20206Y19795D02*
X20486D01*
X20178Y19815D02*
X20515D01*
X20122Y19835D02*
X20570D01*
X19918Y20215D02*
X20662D01*
X19918Y20175D02*
X20674D01*
X19918Y20195D02*
X20667D01*
X19918Y20235D02*
X20658D01*
X19918Y20255D02*
X20654D01*
X19918Y20275D02*
X20652D01*
X19918Y20295D02*
X20651D01*
X19918Y20315D02*
X20651D01*
X19918Y20335D02*
X20652D01*
X19918Y20355D02*
X20653D01*
X19918Y20375D02*
X20656D01*
X19918Y20395D02*
X20660D01*
X19918Y20415D02*
X20665D01*
X19918Y20435D02*
X20671D01*
X19918Y20455D02*
X20678D01*
X19918Y20475D02*
X20686D01*
X19918Y19955D02*
X20863D01*
X19918Y19915D02*
X20975D01*
X19918Y19935D02*
X20907D01*
X19918Y20015D02*
X20779D01*
X19918Y19975D02*
X20830D01*
X19918Y19995D02*
X20803D01*
X19918Y20075D02*
X20726D01*
X19918Y20035D02*
X20759D01*
X19918Y20055D02*
X20742D01*
X19918Y20115D02*
X20701D01*
X19918Y20495D02*
X20696D01*
X19918Y20095D02*
X20713D01*
X19918Y20515D02*
X20707D01*
X19918Y20535D02*
X20720D01*
X19918Y20555D02*
X20734D01*
X19918Y20575D02*
X20751D01*
X19918Y20595D02*
X20769D01*
X19918Y20615D02*
X20791D01*
X19918Y20635D02*
X20816D01*
X19918Y20655D02*
X20846D01*
X19918Y20675D02*
X20884D01*
X19918Y20695D02*
X20937D01*
X19918Y20715D02*
X21504D01*
X19918Y20735D02*
X21504D01*
X19918Y20755D02*
X21504D01*
X19918Y21115D02*
X20775D01*
X19918Y21075D02*
X20789D01*
X19918Y21095D02*
X20780D01*
X19918Y21135D02*
X20772D01*
X19918Y21155D02*
X20772D01*
X19918Y21175D02*
X20774D01*
X19918Y21195D02*
X20779D01*
X19918Y21215D02*
X20787D01*
X19918Y21335D02*
X20798D01*
X19918Y21395D02*
X20774D01*
X19918Y21415D02*
X20772D01*
X19918Y21355D02*
X20786D01*
X19918Y21375D02*
X20778D01*
X19918Y21435D02*
X20772D01*
X19918Y21455D02*
X20775D01*
X19918Y21475D02*
X20781D01*
X19918Y21495D02*
X20790D01*
X19918Y21615D02*
X20794D01*
X19918Y21635D02*
X20784D01*
X19918Y21675D02*
X20773D01*
X19918Y21655D02*
X20777D01*
X19918Y21695D02*
X20771D01*
X19918Y21715D02*
X20773D01*
X19918Y21735D02*
X20777D01*
X19918Y21755D02*
X20783D01*
X19918Y21775D02*
X20793D01*
X19918Y20775D02*
X21504D01*
X19918Y20795D02*
X21504D01*
X19918Y20815D02*
X21504D01*
X19918Y20875D02*
X21025D01*
X19918Y20835D02*
X21504D01*
X19918Y20855D02*
X21504D01*
X19918Y20895D02*
X21025D01*
X19918Y20915D02*
X21025D01*
X19918Y20935D02*
X21025D01*
X19918Y20995D02*
X20897D01*
X19918Y21015D02*
X20845D01*
X19918Y20955D02*
X21025D01*
X19918Y20975D02*
X21025D01*
X19918Y21055D02*
X20802D01*
X19918Y21035D02*
X20819D01*
X19918Y21235D02*
X20799D01*
X19918Y21255D02*
X20815D01*
X19918Y21315D02*
X20814D01*
X19918Y21275D02*
X20839D01*
X19918Y21295D02*
X20837D01*
X19918Y21515D02*
X20803D01*
X19918Y21535D02*
X20821D01*
X19918Y21555D02*
X20848D01*
X19918Y21595D02*
X20809D01*
X19918Y21795D02*
X20808D01*
X19918Y21575D02*
X20829D01*
X19918Y21815D02*
X20828D01*
X20705Y19802D02*
Y20107D01*
X20745Y19759D02*
Y20050D01*
X20725Y19784D02*
Y20076D01*
X20665Y19824D02*
Y20202D01*
X20685Y19815D02*
Y20146D01*
X21085Y20710D02*
Y20855D01*
X21145Y20701D02*
Y20855D01*
X21045Y20712D02*
Y20855D01*
X21065Y20712D02*
Y20855D01*
X21105Y20708D02*
Y20855D01*
X21125Y20705D02*
Y20855D01*
X20785Y20610D02*
Y21082D01*
X20825Y20641D02*
Y21029D01*
X20805Y20626D02*
Y21050D01*
X20845Y20654D02*
Y21015D01*
X20885Y20675D02*
Y20997D01*
X20865Y20665D02*
Y21004D01*
X20905Y20684D02*
Y20993D01*
X20925Y20691D02*
Y20992D01*
X20945Y20697D02*
Y20993D01*
X20965Y20702D02*
Y20997D01*
X20985Y20706D02*
Y21004D01*
X21005Y20709D02*
Y21014D01*
X21025Y20711D02*
Y21028D01*
X21315Y20615D02*
X21504D01*
X21290Y20635D02*
X21504D01*
X21260Y20655D02*
X21504D01*
X21222Y20675D02*
X21504D01*
X21169Y20695D02*
X21504D01*
X21420Y20475D02*
X21504D01*
X21410Y20495D02*
X21504D01*
X21399Y20515D02*
X21504D01*
X21387Y20535D02*
X21504D01*
X21372Y20555D02*
X21504D01*
X21356Y20575D02*
X21504D01*
X21337Y20595D02*
X21504D01*
X21225Y20673D02*
Y20855D01*
X21245Y20663D02*
Y20855D01*
X21265Y20651D02*
Y20855D01*
X21165Y20696D02*
Y20855D01*
X21185Y20689D02*
Y20855D01*
X21205Y20682D02*
Y20855D01*
X21025D02*
X21335D01*
X21305Y20623D02*
Y20855D01*
X21504Y20467D02*
Y20742D01*
X21325Y20606D02*
Y20855D01*
X21504Y20742D02*
Y20751D01*
X21285Y20638D02*
Y20855D01*
X21504Y20742D02*
Y20751D01*
Y21026D01*
X20825Y21264D02*
Y21304D01*
X20955Y20995D02*
X21025D01*
X20845Y21278D02*
Y21289D01*
X21025Y20855D02*
Y21028D01*
X21007Y21015D02*
X21025D01*
X21005Y21279D02*
Y21288D01*
X21025Y21265D02*
Y21302D01*
X21013Y21275D02*
X21026D01*
X21015Y21295D02*
X21026D01*
X20785Y21211D02*
Y21357D01*
X20805Y21243D02*
Y21324D01*
Y21518D02*
Y21599D01*
X20785Y21485D02*
Y21631D01*
X20825Y21538D02*
Y21578D01*
X21085Y21406D02*
Y21436D01*
X20845Y21553D02*
Y21563D01*
X21081Y21415D02*
X21098D01*
X21278Y21164D02*
X21335D01*
Y20875D02*
X21504D01*
X21335Y20895D02*
X21504D01*
X21305Y21164D02*
Y21193D01*
X21325Y21164D02*
Y21230D01*
X21335Y20855D02*
Y21164D01*
Y20915D02*
X21504D01*
X21335Y20935D02*
X21504D01*
X21335Y20955D02*
X21504D01*
X21335Y20975D02*
X21504D01*
X21335Y20995D02*
X21504D01*
X21335Y21015D02*
X21504D01*
X21265Y21413D02*
Y21429D01*
X21285Y21397D02*
Y21445D01*
X21305Y21375D02*
Y21467D01*
X21325Y21337D02*
Y21505D01*
X21265Y21687D02*
Y21703D01*
X21285Y21671D02*
Y21719D01*
X21305Y21649D02*
Y21742D01*
X21325Y21611D02*
Y21779D01*
X19965Y19782D02*
Y23254D01*
X19985Y19800D02*
Y23283D01*
X20005Y19814D02*
Y23307D01*
X20025Y19824D02*
Y23327D01*
X20045Y19831D02*
Y23344D01*
X20065Y19835D02*
Y23358D01*
X20125Y19834D02*
Y23389D01*
X20145Y19829D02*
Y23396D01*
X20165Y19821D02*
Y23402D01*
X20085Y19837D02*
Y23370D01*
X20105Y19837D02*
Y23380D01*
X20685Y20473D02*
Y22646D01*
X20665Y20417D02*
Y22702D01*
X20205Y19795D02*
Y23410D01*
X20225Y19775D02*
Y23412D01*
X20465Y19773D02*
Y23412D01*
X20185Y19810D02*
Y23407D01*
X20485Y19794D02*
Y23412D01*
X20505Y19809D02*
Y23412D01*
X20525Y19820D02*
Y23412D01*
X20545Y19828D02*
Y23412D01*
X20565Y19834D02*
Y23412D01*
X20585Y19837D02*
Y23412D01*
X20605Y19837D02*
Y23412D01*
X20625Y19835D02*
Y23412D01*
X20645Y19831D02*
Y23412D01*
X19918Y21875D02*
X20804D01*
X19918Y21835D02*
X20850D01*
X19918Y21855D02*
X20823D01*
X19918Y21915D02*
X20781D01*
X19918Y21895D02*
X20791D01*
X19918Y21935D02*
X20775D01*
X19918Y21955D02*
X20772D01*
X19918Y21975D02*
X20771D01*
X19918Y21995D02*
X20773D01*
X19918Y22015D02*
X20778D01*
X19918Y22035D02*
X20786D01*
X19918Y22055D02*
X20797D01*
X19918Y22075D02*
X20813D01*
X19918Y22095D02*
X20835D01*
X19918Y22115D02*
X20872D01*
X19918Y22135D02*
X21028D01*
X19918Y22155D02*
X21033D01*
X19918Y22175D02*
X21041D01*
X19918Y22195D02*
X21053D01*
X19918Y22215D02*
X21069D01*
X20705Y20512D02*
Y22607D01*
X20745Y20569D02*
Y22550D01*
X20725Y20543D02*
Y22576D01*
X19918Y22235D02*
X21093D01*
X20765Y20591D02*
Y22528D01*
X19918Y22255D02*
X21135D01*
X19918Y22275D02*
X21554D01*
X19918Y22635D02*
X20691D01*
X19918Y22595D02*
X20713D01*
X19918Y22615D02*
X20701D01*
X19918Y22675D02*
X20674D01*
X19918Y22655D02*
X20682D01*
X19918Y22695D02*
X20667D01*
X19918Y22735D02*
X20658D01*
X19918Y22715D02*
X20662D01*
X19918Y22755D02*
X20654D01*
X19918Y22795D02*
X20651D01*
X19918Y22815D02*
X20651D01*
X19918Y22775D02*
X20652D01*
X19918Y22835D02*
X20652D01*
X19918Y22855D02*
X20653D01*
X19918Y22875D02*
X20656D01*
X19918Y22895D02*
X20660D01*
X19918Y22915D02*
X20665D01*
X19918Y22935D02*
X20671D01*
X19918Y22955D02*
X20678D01*
X20665Y22917D02*
Y23412D01*
X19918Y22975D02*
X20686D01*
X20685Y22973D02*
Y23412D01*
X19918Y22995D02*
X20696D01*
X19918Y23015D02*
X20707D01*
X20705Y23012D02*
Y23412D01*
X19918Y22295D02*
X21554D01*
X19918Y22315D02*
X21554D01*
X19918Y22335D02*
X21554D01*
X19918Y22415D02*
X20975D01*
X19918Y22355D02*
X21554D01*
X19918Y22375D02*
X21554D01*
X19918Y22475D02*
X20830D01*
X19918Y22435D02*
X20907D01*
X19918Y22455D02*
X20863D01*
X19918Y22535D02*
X20759D01*
X19918Y22555D02*
X20742D01*
X19918Y22495D02*
X20803D01*
X19918Y22515D02*
X20779D01*
X19918Y23035D02*
X20720D01*
X19918Y22575D02*
X20726D01*
X19918Y23055D02*
X20734D01*
X19918Y23075D02*
X20751D01*
X19918Y23095D02*
X20769D01*
X19920Y23115D02*
X20791D01*
X19922Y23135D02*
X20816D01*
X20725Y23043D02*
Y23412D01*
X19926Y23155D02*
X20846D01*
X20745Y23069D02*
Y23412D01*
X19931Y23175D02*
X20884D01*
X19937Y23195D02*
X20937D01*
X20785Y21759D02*
Y21905D01*
X20805Y21792D02*
Y21873D01*
X20825Y21813D02*
Y21852D01*
X20845Y21827D02*
Y21838D01*
X21265Y21961D02*
Y21978D01*
X21285Y21946D02*
Y21993D01*
X21305Y21923D02*
Y22016D01*
X21005Y22102D02*
Y22410D01*
X21025Y22088D02*
Y22408D01*
X21017Y22095D02*
X21026D01*
X20980Y22115D02*
X21026D01*
X20785Y22034D02*
Y22509D01*
X20825Y22087D02*
Y22478D01*
X20805Y22066D02*
Y22492D01*
X20845Y22101D02*
Y22465D01*
X20885Y22119D02*
Y22444D01*
X20865Y22112D02*
Y22454D01*
X20905Y22123D02*
Y22435D01*
X20965Y22119D02*
Y22417D01*
X20985Y22112D02*
Y22413D01*
X20945Y22123D02*
Y22422D01*
X20925Y22124D02*
Y22428D01*
X21045Y22183D02*
Y22407D01*
X21065Y22210D02*
Y22407D01*
X21317Y22035D02*
X21554D01*
X21319Y22175D02*
X21554D01*
X21307Y22195D02*
X21554D01*
X21325Y21886D02*
Y22053D01*
X21326Y22055D02*
X21554D01*
X21331Y22075D02*
X21554D01*
X21334Y22095D02*
X21554D01*
X21335Y22115D02*
X21554D01*
X21332Y22135D02*
X21554D01*
X21327Y22155D02*
X21554D01*
X21345Y20586D02*
Y22533D01*
X21365Y20563D02*
Y22556D01*
X21385Y20536D02*
Y22582D01*
X21305Y22198D02*
Y22496D01*
X21325Y22160D02*
Y22513D01*
X21291Y22215D02*
X21554D01*
X21405Y20504D02*
Y22615D01*
X21425Y20462D02*
Y22657D01*
X21445Y20399D02*
Y22720D01*
X21505Y21026D02*
Y23412D01*
X21525Y21026D02*
Y23412D01*
X21554Y22017D02*
Y22292D01*
X21545Y21026D02*
Y23412D01*
X20765Y23091D02*
Y23412D01*
X20785Y23110D02*
Y23412D01*
X20805Y23126D02*
Y23412D01*
X20825Y23141D02*
Y23412D01*
X20845Y23154D02*
Y23412D01*
X20865Y23165D02*
Y23412D01*
X21085Y22229D02*
Y22408D01*
X21105Y22242D02*
Y22410D01*
X21125Y22251D02*
Y22414D01*
X21145Y22257D02*
Y22418D01*
X21165Y22261D02*
Y22423D01*
X20885Y23175D02*
Y23412D01*
X20905Y23184D02*
Y23412D01*
X20925Y23191D02*
Y23412D01*
X20945Y23197D02*
Y23412D01*
X20965Y23202D02*
Y23412D01*
X20985Y23206D02*
Y23412D01*
X21005Y23209D02*
Y23412D01*
X21025Y23211D02*
Y23412D01*
X21125Y23205D02*
Y23412D01*
X21145Y23201D02*
Y23412D01*
X21045Y23212D02*
Y23412D01*
X21065Y23212D02*
Y23412D01*
X21085Y23210D02*
Y23412D01*
X21105Y23208D02*
Y23412D01*
X21185Y22261D02*
Y22429D01*
X21225Y22255D02*
X21554D01*
X21205Y22259D02*
Y22437D01*
X21165Y23196D02*
Y23412D01*
X21225Y22255D02*
Y22446D01*
X21265Y22236D02*
Y22468D01*
X21267Y22235D02*
X21554D01*
X21285Y22220D02*
Y22481D01*
X21554Y22292D02*
Y22301D01*
X21245Y22247D02*
Y22456D01*
X21554Y22292D02*
Y22301D01*
Y22576D01*
X21265Y23151D02*
Y23412D01*
X21285Y23138D02*
Y23412D01*
X21305Y23123D02*
Y23412D01*
X21185Y23189D02*
Y23412D01*
X21205Y23182D02*
Y23412D01*
X21225Y23173D02*
Y23412D01*
X21245Y23163D02*
Y23412D01*
X21405Y23004D02*
Y23412D01*
X21425Y22962D02*
Y23412D01*
X21445Y22899D02*
Y23412D01*
X21325Y23106D02*
Y23412D01*
X21345Y23086D02*
Y23412D01*
X21365Y23063D02*
Y23412D01*
X21385Y23036D02*
Y23412D01*
X20714Y19795D02*
X22757D01*
X20686Y19815D02*
X22757D01*
X20630Y19835D02*
X22756D01*
X19918Y19895D02*
X22716D01*
X19918Y19855D02*
X22737D01*
X19918Y19875D02*
X22724D01*
X21131Y19915D02*
X22710D01*
X20748Y19755D02*
X22757D01*
X20734Y19775D02*
X22757D01*
X21199Y19935D02*
X22708D01*
X21243Y19955D02*
X22708D01*
X21276Y19975D02*
X22712D01*
X21304Y19995D02*
X22718D01*
X21327Y20015D02*
X22728D01*
X21347Y20035D02*
X22743D01*
X21364Y20055D02*
X22764D01*
X21504Y20467D02*
X21788D01*
X21380Y20075D02*
X22801D01*
X21788Y20467D02*
Y20518D01*
X21837Y20544D02*
X21937Y20643D01*
X21848Y20555D02*
X23217D01*
X21868Y20575D02*
X23218D01*
X21393Y20095D02*
X25544D01*
X21405Y20115D02*
X25554D01*
X21415Y20135D02*
X25581D01*
X21439Y20195D02*
X25682D01*
X21424Y20155D02*
X25699D01*
X21432Y20175D02*
X25689D01*
X21444Y20215D02*
X25678D01*
X21448Y20235D02*
X25676D01*
X21452Y20255D02*
X25678D01*
X21454Y20275D02*
X25682D01*
X21455Y20295D02*
X25689D01*
X21455Y20315D02*
X25700D01*
X21455Y20335D02*
X25716D01*
X21453Y20355D02*
X25739D01*
X21450Y20375D02*
X25778D01*
X21446Y20395D02*
X30324D01*
X21441Y20415D02*
X30324D01*
X21435Y20435D02*
X30324D01*
X21428Y20455D02*
X30324D01*
X21788Y20475D02*
X30324D01*
X21827Y20535D02*
X23225D01*
X21788Y20495D02*
X30324D01*
X21788Y20515D02*
X23244D01*
X21888Y20595D02*
X23225D01*
X21908Y20615D02*
X23244D01*
X21928Y20635D02*
X30324D01*
X21946Y20655D02*
X30324D01*
X21335Y21035D02*
X21757D01*
X21335Y21055D02*
X21755D01*
X21290Y21175D02*
X21853D01*
X21318Y21355D02*
X22363D01*
X21332Y21315D02*
X22417D01*
X21326Y21335D02*
X22382D01*
X21504Y21026D02*
X21759D01*
X21335Y21075D02*
X21755D01*
X21335Y21095D02*
X21760D01*
X21335Y21115D02*
X21768D01*
X21335Y21135D02*
X21782D01*
X21335Y21155D02*
X21804D01*
X21263Y21415D02*
X22340D01*
X21305Y21375D02*
X22351D01*
X21288Y21395D02*
X22343D01*
X21273Y21435D02*
X22340D01*
X21295Y21455D02*
X22343D01*
X21310Y21475D02*
X22351D01*
X21321Y21495D02*
X22363D01*
X21329Y21515D02*
X22382D01*
X21333Y21535D02*
X22418D01*
X21335Y21555D02*
X22477D01*
X21334Y21575D02*
X22498D01*
X21330Y21595D02*
X22518D01*
X21324Y21615D02*
X22539D01*
X21307Y21195D02*
X30324D01*
X21319Y21215D02*
X30324D01*
X21327Y21235D02*
X30324D01*
X21332Y21255D02*
X30324D01*
X21335Y21275D02*
X30324D01*
X21334Y21295D02*
X30324D01*
X21957Y20675D02*
X30324D01*
X21963Y20695D02*
X30324D01*
X21964Y20715D02*
X30324D01*
X21964Y20735D02*
X30324D01*
X21964Y20755D02*
X30324D01*
X21938Y21155D02*
X30324D01*
X21889Y21175D02*
X30324D01*
X21315Y21635D02*
X22559D01*
X21301Y21655D02*
X22580D01*
X21282Y21675D02*
X22600D01*
X21253Y21695D02*
X22620D01*
X21280Y21715D02*
X22641D01*
X21300Y21735D02*
X22675D01*
X21314Y21755D02*
X22929D01*
X21324Y21775D02*
X22978D01*
X21330Y21795D02*
X25001D01*
X21334Y21815D02*
X25973D01*
X21335Y21835D02*
X25973D01*
X21333Y21855D02*
X25973D01*
X21329Y21875D02*
X25973D01*
X21322Y21895D02*
X25973D01*
X21964Y20709D02*
Y20989D01*
X22945Y20046D02*
Y21554D01*
X22925Y20062D02*
Y21567D01*
X22965Y20024D02*
Y21547D01*
X22986Y20024D02*
X23146D01*
X22985Y20024D02*
Y21543D01*
X23005Y20024D02*
Y21543D01*
X23025Y20024D02*
Y21547D01*
X23045Y20024D02*
Y21554D01*
X22725Y20010D02*
Y21579D01*
X22745Y20037D02*
Y21581D01*
X22765Y20055D02*
Y21581D01*
X22785Y20068D02*
Y21581D01*
X22805Y20076D02*
Y21581D01*
X22825Y20081D02*
Y21581D01*
X23065Y20024D02*
Y21566D01*
X23085Y20024D02*
Y21584D01*
X23105Y20024D02*
Y21619D01*
X22845Y20083D02*
Y21581D01*
X22865Y20082D02*
Y21581D01*
X22885Y20079D02*
Y21581D01*
X22905Y20072D02*
Y21581D01*
X23246Y19755D02*
X25542D01*
X23246Y19775D02*
X25542D01*
X23246Y19795D02*
X25542D01*
X23237Y19955D02*
X25542D01*
X23246Y19815D02*
X25542D01*
X23246Y19835D02*
X25542D01*
X23246Y19855D02*
X25542D01*
X23246Y19875D02*
X25542D01*
X23246Y19895D02*
X25542D01*
X23246Y19915D02*
X25542D01*
X23245Y19935D02*
X25542D01*
X23188Y20006D02*
X23228Y19966D01*
X23178Y20015D02*
X25542D01*
X22957Y20035D02*
X25542D01*
X22935Y20055D02*
X25542D01*
X22899Y20075D02*
X25542D01*
X21964Y20775D02*
X30324D01*
X23225Y19969D02*
Y20533D01*
X23220Y19975D02*
X25542D01*
X23245Y19930D02*
Y20514D01*
X23200Y19995D02*
X25542D01*
X23276Y20505D02*
X28316D01*
X23276Y20624D02*
X28316D01*
X21964Y20795D02*
X30324D01*
X21964Y20815D02*
X30324D01*
X21964Y20835D02*
X30324D01*
X21964Y20855D02*
X30324D01*
X22573Y21429D02*
X22728Y21581D01*
X22701Y21555D02*
X22945D01*
X22721Y21575D02*
X22916D01*
X22728Y21581D02*
X22910D01*
X23104Y21615D02*
X24950D01*
X23076Y21575D02*
X25000D01*
X23093Y21595D02*
X24968D01*
X22463Y21541D02*
X22641Y21715D01*
X22696Y21737D02*
X22910D01*
X23014Y21775D02*
X24968D01*
X23112Y21675D02*
X24927D01*
X23110Y21635D02*
X24938D01*
X23113Y21655D02*
X24931D01*
X23107Y21695D02*
X24927D01*
X23099Y21715D02*
X24931D01*
X23085Y21735D02*
X24938D01*
X23063Y21755D02*
X24950D01*
X21964Y20875D02*
X30324D01*
X21964Y20895D02*
X30324D01*
X21964Y20915D02*
X30324D01*
X21964Y20935D02*
X30324D01*
X21964Y20955D02*
X30324D01*
X21964Y20975D02*
X30324D01*
X21968Y20995D02*
X30324D01*
X21979Y21015D02*
X30324D01*
X21985Y21035D02*
X30324D01*
X21988Y21055D02*
X30324D01*
X21987Y21075D02*
X30324D01*
X21982Y21095D02*
X30324D01*
X21974Y21115D02*
X30324D01*
X21960Y21135D02*
X30324D01*
X22495Y21315D02*
X30324D01*
X22530Y21335D02*
X30324D01*
X22550Y21355D02*
X30324D01*
X22562Y21375D02*
X30324D01*
X22569Y21395D02*
X30324D01*
X22572Y21415D02*
X30324D01*
X22578Y21435D02*
X30324D01*
X22599Y21455D02*
X30324D01*
X22619Y21475D02*
X30324D01*
X22639Y21495D02*
X30324D01*
X22660Y21515D02*
X30324D01*
X22680Y21535D02*
X30324D01*
X23047Y21555D02*
X30324D01*
X21565Y21026D02*
Y22017D01*
X21585Y21026D02*
Y22017D01*
X21605Y21026D02*
Y22017D01*
X21625Y21026D02*
Y22017D01*
X21645Y21026D02*
Y22017D01*
X21665Y21026D02*
Y22017D01*
X21685Y21026D02*
Y22017D01*
X21705Y21026D02*
Y22017D01*
X21725Y21026D02*
Y22017D01*
X21745Y21026D02*
Y22017D01*
X21765Y21108D02*
Y22017D01*
X21785Y21138D02*
Y22017D01*
X21805Y21156D02*
Y22017D01*
X19918Y22395D02*
X21554D01*
X21131Y22415D02*
X21554D01*
X21199Y22435D02*
X21554D01*
X21243Y22455D02*
X21554D01*
X21276Y22475D02*
X21554D01*
X21304Y22495D02*
X21554D01*
X21327Y22515D02*
X21554D01*
X21347Y22535D02*
X21554D01*
X21364Y22555D02*
X21554D01*
X21380Y22575D02*
X21554D01*
X21565Y22576D02*
Y23412D01*
X21585Y22576D02*
Y23412D01*
X21605Y22576D02*
Y23412D01*
X21296Y21935D02*
X21954D01*
X21311Y21915D02*
X25973D01*
X21275Y21955D02*
X21954D01*
X21261Y21975D02*
X21954D01*
X21287Y21995D02*
X21954D01*
X21304Y22015D02*
X21954D01*
X21825Y21167D02*
Y22017D01*
X21554D02*
X21838D01*
Y22035D02*
X21954D01*
X21838Y22055D02*
X21954D01*
X21838Y22075D02*
X21954D01*
X21838Y22095D02*
X21954D01*
X21838Y22115D02*
X21954D01*
X21838Y22135D02*
X21954D01*
X21838Y22155D02*
X21954D01*
X21838Y22175D02*
X21954D01*
X21838Y22195D02*
X21954D01*
X21554Y22576D02*
X21838D01*
Y22215D02*
X24997D01*
X21838Y22235D02*
X26730D01*
X21838Y22017D02*
Y22292D01*
Y22255D02*
X26730D01*
X21838Y22275D02*
X26730D01*
X21838Y22292D02*
Y22301D01*
Y22292D02*
Y22301D01*
Y22295D02*
X26730D01*
X21838Y22315D02*
X26730D01*
X19966Y23255D02*
X30276D01*
X19945Y23215D02*
X30297D01*
X19955Y23235D02*
X30288D01*
X20013Y23315D02*
X30230D01*
X19979Y23275D02*
X30263D01*
X19995Y23295D02*
X30248D01*
X21393Y22595D02*
X26885D01*
X21405Y22615D02*
X26901D01*
X21415Y22635D02*
X26923D01*
X21424Y22655D02*
X26962D01*
X20094Y23375D02*
X30149D01*
X20034Y23335D02*
X30208D01*
X20060Y23355D02*
X30182D01*
X21625Y22576D02*
Y23412D01*
X21645Y22576D02*
Y23412D01*
X21665Y22576D02*
Y23412D01*
X21685Y22576D02*
Y23412D01*
X20140Y23395D02*
X30102D01*
X20246Y23412D02*
X29987D01*
X21705Y22576D02*
Y23412D01*
X21725Y22576D02*
Y23412D01*
X21745Y22576D02*
Y23412D01*
X21765Y22576D02*
Y23412D01*
X21785Y22576D02*
Y23412D01*
X21805Y22576D02*
Y23412D01*
X21825Y22576D02*
Y23412D01*
X21432Y22675D02*
X30324D01*
X21439Y22695D02*
X30324D01*
X21444Y22715D02*
X30324D01*
X21448Y22735D02*
X30324D01*
X21446Y22895D02*
X30324D01*
X21441Y22915D02*
X30324D01*
X21452Y22755D02*
X30324D01*
X21454Y22775D02*
X30324D01*
X21455Y22795D02*
X30324D01*
X21455Y22815D02*
X30324D01*
X21455Y22835D02*
X30324D01*
X21453Y22855D02*
X30324D01*
X21450Y22875D02*
X30324D01*
X21356Y23075D02*
X30324D01*
X21337Y23095D02*
X30324D01*
X21315Y23115D02*
X30323D01*
X21260Y23155D02*
X30316D01*
X21169Y23195D02*
X30305D01*
X21290Y23135D02*
X30320D01*
X21222Y23175D02*
X30311D01*
X21435Y22935D02*
X30324D01*
X21428Y22955D02*
X30324D01*
X21420Y22975D02*
X30324D01*
X21410Y22995D02*
X30324D01*
X21399Y23015D02*
X30324D01*
X21387Y23035D02*
X30324D01*
X21372Y23055D02*
X30324D01*
X21845Y21173D02*
Y23412D01*
X21925Y21163D02*
Y23412D01*
X21945Y21149D02*
Y23412D01*
X21865Y21176D02*
Y23412D01*
X21885Y21175D02*
Y23412D01*
X21905Y21171D02*
Y23412D01*
X21965Y21128D02*
Y21917D01*
X21985Y21083D02*
Y21917D01*
X22345Y21461D02*
Y23412D01*
X22365Y21498D02*
Y23412D01*
X22385Y21517D02*
Y23412D01*
X22405Y21529D02*
Y23412D01*
X22425Y21537D02*
Y23412D01*
X22445Y21540D02*
Y23412D01*
X22465Y21543D02*
Y23412D01*
X22485Y21562D02*
Y23412D01*
X22505Y21582D02*
Y23412D01*
X22525Y21601D02*
Y23412D01*
X22545Y21621D02*
Y23412D01*
X22565Y21641D02*
Y23412D01*
X22585Y21660D02*
Y23412D01*
X22605Y21680D02*
Y23412D01*
X22625Y21699D02*
Y23412D01*
X22645Y21719D02*
Y23412D01*
X22665Y21731D02*
Y23412D01*
X22685Y21737D02*
Y23412D01*
X22705Y21737D02*
Y23412D01*
X22725Y21737D02*
Y23412D01*
X22745Y21737D02*
Y23412D01*
X22765Y21737D02*
Y23412D01*
X22785Y21737D02*
Y23412D01*
X22805Y21737D02*
Y23412D01*
X22825Y21737D02*
Y23412D01*
X23085Y21734D02*
Y23412D01*
X23105Y21700D02*
Y23412D01*
X22845Y21737D02*
Y23412D01*
X22865Y21737D02*
Y23412D01*
X22885Y21737D02*
Y23412D01*
X22905Y21737D02*
Y23412D01*
X23165Y20021D02*
Y23412D01*
X23185Y20009D02*
Y23412D01*
X23205Y19989D02*
Y23412D01*
X23125Y20024D02*
Y23412D01*
X23145Y20024D02*
Y23412D01*
X23225Y20595D02*
Y23412D01*
X23245Y20615D02*
Y23412D01*
X23265Y20623D02*
Y23412D01*
X23285Y20624D02*
Y23412D01*
X23305Y20624D02*
Y23412D01*
X23325Y20624D02*
Y23412D01*
X23345Y20624D02*
Y23412D01*
X23365Y20624D02*
Y23412D01*
X23385Y20624D02*
Y23412D01*
X21954Y21917D02*
Y22201D01*
Y21917D02*
X22238D01*
X21954Y22201D02*
X22238D01*
X21838Y22301D02*
Y22576D01*
X21965Y22201D02*
Y23412D01*
X21985Y22201D02*
Y23412D01*
X22005Y22201D02*
Y23412D01*
X22238Y21917D02*
Y22201D01*
X22025D02*
Y23412D01*
X22045Y22201D02*
Y23412D01*
X22065Y22201D02*
Y23412D01*
X22085Y22201D02*
Y23412D01*
X22105Y22201D02*
Y23412D01*
X22125Y22201D02*
Y23412D01*
X22145Y22201D02*
Y23412D01*
X22925Y21752D02*
Y23412D01*
X22165Y22201D02*
Y23412D01*
X22185Y22201D02*
Y23412D01*
X22205Y22201D02*
Y23412D01*
X22225Y22201D02*
Y23412D01*
X22945Y21764D02*
Y23412D01*
X23045Y21765D02*
Y23412D01*
X23065Y21753D02*
Y23412D01*
X22965Y21772D02*
Y23412D01*
X22985Y21775D02*
Y23412D01*
X23005Y21776D02*
Y23412D01*
X23025Y21772D02*
Y23412D01*
X22238Y21935D02*
X25973D01*
X22238Y21955D02*
X25973D01*
X22238Y21975D02*
X25973D01*
X22238Y22035D02*
X24951D01*
X22238Y21995D02*
X25004D01*
X22238Y22015D02*
X24970D01*
X22238Y22095D02*
X24928D01*
X22238Y22055D02*
X24939D01*
X22238Y22075D02*
X24931D01*
X22238Y22115D02*
X24927D01*
X22238Y22135D02*
X24930D01*
X22238Y22155D02*
X24937D01*
X22238Y22175D02*
X24949D01*
X21838Y22335D02*
X26730D01*
X21838Y22355D02*
X26730D01*
X21838Y22375D02*
X26731D01*
X21838Y22395D02*
X26738D01*
X21838Y22415D02*
X26757D01*
X21838Y22435D02*
X26885D01*
X21838Y22455D02*
X26874D01*
X22238Y22195D02*
X24966D01*
X21838Y22475D02*
X26867D01*
X21838Y22495D02*
X26863D01*
X21838Y22515D02*
X26862D01*
X21838Y22535D02*
X26863D01*
X21838Y22555D02*
X26867D01*
X21838Y22575D02*
X26874D01*
X24125Y17607D02*
Y18834D01*
X24165Y17607D02*
Y18779D01*
X24145Y17607D02*
Y18799D01*
X24185Y17607D02*
Y18766D01*
X24205Y17607D02*
Y18758D01*
X24225Y17607D02*
Y18753D01*
X24245Y17607D02*
Y18751D01*
X24265Y17607D02*
Y18753D01*
X24285Y17607D02*
Y18757D01*
X24305Y17607D02*
Y18765D01*
X24325Y17607D02*
Y18778D01*
X24345Y17607D02*
Y18797D01*
X24365Y17607D02*
Y18830D01*
X23385Y17607D02*
Y19098D01*
X23405Y17607D02*
Y19115D01*
X23425Y17607D02*
Y19140D01*
X23445Y17607D02*
Y19197D01*
X24125Y18927D02*
Y19342D01*
X24365Y18930D02*
Y19338D01*
X24405Y17607D02*
Y19046D01*
X24385Y17607D02*
Y19075D01*
X24165Y18981D02*
Y19287D01*
X24145Y18961D02*
Y19307D01*
X24325Y18983D02*
Y19286D01*
X24345Y18963D02*
Y19305D01*
X24276Y18755D02*
X25150D01*
X24320Y18775D02*
X25148D01*
X24343Y18795D02*
X25148D01*
X24357Y18815D02*
X25148D01*
X24367Y18835D02*
X25148D01*
X24352Y18955D02*
X25148D01*
X24373Y18855D02*
X25148D01*
X24375Y18875D02*
X25148D01*
X24375Y18895D02*
X25148D01*
X24371Y18915D02*
X25148D01*
X24363Y18935D02*
X25148D01*
X24425Y17607D02*
Y19029D01*
X24465Y17607D02*
Y19010D01*
X24445Y17607D02*
Y19017D01*
X24485Y17607D02*
Y19006D01*
X24505Y17607D02*
Y19005D01*
X24335Y18975D02*
X25148D01*
X24525Y17607D02*
Y19008D01*
X24545Y17607D02*
Y19013D01*
X24565Y17607D02*
Y19023D01*
X24585Y17607D02*
Y19037D01*
X24605Y17607D02*
Y19059D01*
X24625Y17607D02*
Y19102D01*
X25145Y17607D02*
Y19109D01*
X25125Y17607D02*
Y19144D01*
X23422Y19135D02*
X24371D01*
X23405Y19115D02*
X24372D01*
X23433Y19155D02*
X24372D01*
X23441Y19175D02*
X24377D01*
X23445Y19195D02*
X24386D01*
X23446Y19215D02*
X24399D01*
X24205Y19003D02*
Y19266D01*
X24225Y19008D02*
Y19261D01*
X24245Y19010D02*
Y19259D01*
X23445Y19235D02*
X24418D01*
X24265Y19008D02*
Y19261D01*
X24615Y19195D02*
X25116D01*
X23441Y19255D02*
X24452D01*
X23433Y19275D02*
X24185D01*
X23406Y19315D02*
X24140D01*
X23422Y19295D02*
X24157D01*
X24185Y18995D02*
Y19274D01*
X24285Y19004D02*
Y19265D01*
X24305Y18995D02*
Y19273D01*
X24307Y18995D02*
X25148D01*
X24549Y19015D02*
X25148D01*
X24582Y19035D02*
X25148D01*
X24582Y19235D02*
X25121D01*
X24602Y19055D02*
X25148D01*
X24548Y19255D02*
X25129D01*
X24628Y19115D02*
X25141D01*
X24615Y19075D02*
X25150D01*
X24623Y19095D02*
X25158D01*
X24628Y19155D02*
X25122D01*
X24623Y19175D02*
X25117D01*
X24629Y19135D02*
X25129D01*
X24602Y19215D02*
X25117D01*
X24308Y19275D02*
X25140D01*
X24335Y19295D02*
X25157D01*
X24352Y19315D02*
X25181D01*
X24357Y19455D02*
X25679D01*
X24274Y19515D02*
X25541D01*
X24342Y19475D02*
X25677D01*
X24320Y19495D02*
X25677D01*
X24364Y19335D02*
X25232D01*
X24371Y19355D02*
X25753D01*
X24373Y19415D02*
X25694D01*
X24367Y19435D02*
X25685D01*
X24375Y19375D02*
X25725D01*
X24375Y19395D02*
X25707D01*
X25205Y17607D02*
Y18709D01*
X25225Y17607D02*
Y18709D01*
X25245Y17607D02*
Y18709D01*
X25265Y17607D02*
Y18709D01*
X25285Y17607D02*
Y18709D01*
X25305Y17607D02*
Y18709D01*
X25325Y17607D02*
Y18709D01*
X25585Y17607D02*
Y18696D01*
X25565Y17607D02*
Y18703D01*
X25605Y17607D02*
Y18693D01*
X25625Y17607D02*
Y18693D01*
X25645Y17607D02*
Y18695D01*
X25665Y17607D02*
Y18700D01*
X25165Y17607D02*
Y18727D01*
X25345Y17607D02*
Y18709D01*
X25185Y17607D02*
Y18714D01*
X25365Y17607D02*
Y18709D01*
X25385Y17607D02*
Y18709D01*
X25405Y17607D02*
Y18709D01*
X25425Y17607D02*
Y18709D01*
X25445Y17607D02*
Y18709D01*
X25465Y17607D02*
Y18709D01*
X25485Y17607D02*
Y18709D01*
X25505Y17607D02*
Y18710D01*
X25525Y17607D02*
Y18716D01*
X25545Y17607D02*
Y18713D01*
X25685Y17607D02*
Y18709D01*
X25705Y17607D02*
Y18722D01*
X25725Y17607D02*
Y18741D01*
X25745Y17607D02*
Y18770D01*
X27105Y17607D02*
Y18994D01*
X27125Y17607D02*
Y18994D01*
X27145Y17607D02*
Y18994D01*
X27165Y17607D02*
Y18994D01*
X27185Y17607D02*
Y18994D01*
X27205Y17607D02*
Y18994D01*
X27225Y17607D02*
Y18994D01*
X27245Y17607D02*
Y18994D01*
X27265Y17607D02*
Y18994D01*
X25765Y17607D02*
Y19349D01*
X25805Y17607D02*
Y19337D01*
X25785Y17607D02*
Y19342D01*
X25825Y17607D02*
Y19336D01*
X25845Y17607D02*
Y19338D01*
X25865Y17607D02*
Y19342D01*
X25885Y17607D02*
Y19349D01*
X25905Y17607D02*
Y19360D01*
X25925Y17607D02*
Y19376D01*
X25945Y17607D02*
Y19398D01*
X27285Y17607D02*
Y18994D01*
X25965Y17607D02*
Y19437D01*
X27305Y17607D02*
Y18994D01*
X27325Y17607D02*
Y18994D01*
X25148Y18769D02*
Y19059D01*
X25207Y18709D02*
X25497D01*
X25376Y19275D02*
X25390D01*
X25359Y19295D02*
X25403D01*
X25522Y18715D02*
X25542D01*
X25446Y19313D02*
X25647D01*
X25707Y18959D02*
X25707Y19254D01*
X25525Y19313D02*
Y19523D01*
X25565Y19313D02*
Y19506D01*
X25545Y19313D02*
Y19513D01*
X25585Y19313D02*
Y19503D01*
X25605Y19313D02*
Y19503D01*
X25625Y19313D02*
Y19506D01*
X25745Y18898D02*
Y19359D01*
X25725Y18928D02*
Y19374D01*
X25645Y19313D02*
Y19512D01*
X25651Y19515D02*
X25679D01*
X25705Y19268D02*
Y19396D01*
X25685Y19300D02*
Y19434D01*
X25707Y18995D02*
X27091D01*
X25707Y19015D02*
X27091D01*
X25707Y19035D02*
X27091D01*
X25707Y19055D02*
X27091D01*
X25707Y19075D02*
X27091D01*
X25707Y19095D02*
X27091D01*
X27345Y17607D02*
Y18994D01*
X25707Y19115D02*
X27091D01*
X25707Y19135D02*
X27091D01*
X25707Y19155D02*
X27091D01*
X25707Y19175D02*
X27091D01*
X25707Y19195D02*
X27091D01*
X25707Y19215D02*
X27091D01*
X25707Y19235D02*
X27091D01*
X25707Y19255D02*
X27091D01*
X25973Y19475D02*
X27347D01*
X27091Y18994D02*
Y19268D01*
X27245D02*
Y19507D01*
X27225Y19268D02*
Y19512D01*
X27265Y19268D02*
Y19506D01*
X25970Y19515D02*
X27219D01*
X27285Y19268D02*
Y19507D01*
X27305Y19268D02*
Y19511D01*
X23465Y17607D02*
Y20505D01*
X23485Y17607D02*
Y20505D01*
X23505Y17607D02*
Y20505D01*
X23525Y17607D02*
Y20505D01*
X23545Y17607D02*
Y20505D01*
X23565Y17607D02*
Y20505D01*
X23585Y17607D02*
Y20505D01*
X23605Y17607D02*
Y20505D01*
X23625Y17607D02*
Y20505D01*
X23645Y17607D02*
Y20505D01*
X23665Y17607D02*
Y20505D01*
X23685Y17607D02*
Y20505D01*
X23705Y17607D02*
Y20505D01*
X23725Y17607D02*
Y20505D01*
X23745Y17607D02*
Y20505D01*
X23765Y17607D02*
Y20505D01*
X23785Y17607D02*
Y20505D01*
X23805Y17607D02*
Y20505D01*
X23825Y17607D02*
Y20505D01*
X23845Y17607D02*
Y20505D01*
X23865Y17607D02*
Y20505D01*
X23885Y17607D02*
Y20505D01*
X23905Y17607D02*
Y20505D01*
X23925Y17607D02*
Y20505D01*
X23945Y17607D02*
Y20505D01*
X23965Y17607D02*
Y20505D01*
X23985Y17607D02*
Y20505D01*
X24005Y17607D02*
Y20505D01*
X24025Y17607D02*
Y20505D01*
X24045Y17607D02*
Y20505D01*
X24065Y17607D02*
Y20505D01*
X24085Y17607D02*
Y20505D01*
X24105Y17607D02*
Y20505D01*
X24645Y17607D02*
Y20505D01*
X24665Y17607D02*
Y20505D01*
X24685Y17607D02*
Y20505D01*
X24705Y17607D02*
Y20505D01*
X24725Y17607D02*
Y20505D01*
X24745Y17607D02*
Y20505D01*
X24765Y17607D02*
Y20505D01*
X24785Y17607D02*
Y20505D01*
X24805Y17607D02*
Y20505D01*
X24825Y17607D02*
Y20505D01*
X24845Y17607D02*
Y20505D01*
X24865Y17607D02*
Y20505D01*
X24885Y17607D02*
Y20505D01*
X24905Y17607D02*
Y20505D01*
X24925Y17607D02*
Y20505D01*
X24945Y17607D02*
Y20505D01*
X24965Y17607D02*
Y20505D01*
X24985Y17607D02*
Y20505D01*
X25005Y17607D02*
Y20505D01*
X25025Y17607D02*
Y20505D01*
X23405Y19315D02*
Y20505D01*
X23425Y19290D02*
Y20505D01*
X23445Y19233D02*
Y20505D01*
X24125Y19435D02*
Y20505D01*
X24145Y19469D02*
Y20505D01*
X24165Y19489D02*
Y20505D01*
X24185Y19503D02*
Y20505D01*
X24205Y19511D02*
Y20505D01*
X24305Y19503D02*
Y20505D01*
X24225Y19516D02*
Y20505D01*
X24245Y19518D02*
Y20505D01*
X24265Y19516D02*
Y20505D01*
X24285Y19512D02*
Y20505D01*
X24385Y19194D02*
Y20505D01*
X24405Y19222D02*
Y20505D01*
X24425Y19240D02*
Y20505D01*
X24325Y19491D02*
Y20505D01*
X24345Y19471D02*
Y20505D01*
X24365Y19438D02*
Y20505D01*
X24445Y19252D02*
Y20505D01*
X24465Y19259D02*
Y20505D01*
X24565Y19246D02*
Y20505D01*
X24485Y19263D02*
Y20505D01*
X24505Y19264D02*
Y20505D01*
X24525Y19261D02*
Y20505D01*
X24545Y19256D02*
Y20505D01*
X25045Y17607D02*
Y20505D01*
X25065Y17607D02*
Y20505D01*
X25085Y17607D02*
Y20505D01*
X24585Y19232D02*
Y20505D01*
X24605Y19210D02*
Y20505D01*
X24625Y19167D02*
Y20505D01*
X25105Y17607D02*
Y20505D01*
X25125Y19246D02*
Y20505D01*
X25145Y19282D02*
Y20505D01*
X25165Y19303D02*
Y20505D01*
X25185Y19317D02*
Y20505D01*
X25465Y19313D02*
Y19618D01*
X25205Y19327D02*
Y20505D01*
X25305Y19329D02*
Y20505D01*
X25325Y19320D02*
Y20505D01*
X25225Y19333D02*
Y20505D01*
X25245Y19337D02*
Y20505D01*
X25265Y19337D02*
Y20505D01*
X25285Y19334D02*
Y20505D01*
X25365Y19288D02*
Y20505D01*
X25385Y19258D02*
Y20505D01*
X25405Y19297D02*
Y20505D01*
X25345Y19307D02*
Y20505D01*
X25425Y19310D02*
Y20505D01*
X25445Y19313D02*
Y20505D01*
X25465Y19651D02*
Y20505D01*
X25985Y17607D02*
Y19575D01*
X26005Y17607D02*
Y19575D01*
X26025Y17607D02*
Y19575D01*
X26045Y17607D02*
Y19575D01*
X26065Y17607D02*
Y19578D01*
X26085Y17607D02*
Y19590D01*
X26105Y17607D02*
Y19966D01*
X26125Y17607D02*
Y19979D01*
X26145Y17607D02*
Y19998D01*
X26165Y17607D02*
Y20029D01*
X26185Y17607D02*
Y20505D01*
X26205Y17607D02*
Y20505D01*
X26225Y17607D02*
Y20505D01*
X26245Y17607D02*
Y20505D01*
X26265Y17607D02*
Y20505D01*
X26285Y17607D02*
Y20505D01*
X26305Y17607D02*
Y20505D01*
X26325Y17607D02*
Y20505D01*
X26345Y17607D02*
Y20505D01*
X26365Y17607D02*
Y20505D01*
X26385Y17607D02*
Y20505D01*
X26405Y17607D02*
Y20505D01*
X26425Y17607D02*
Y20505D01*
X26445Y17607D02*
Y20505D01*
X26465Y17607D02*
Y20505D01*
X26485Y17607D02*
Y20505D01*
X26505Y17607D02*
Y20505D01*
X26525Y17607D02*
Y20505D01*
X26545Y17607D02*
Y20505D01*
X26565Y17607D02*
Y20505D01*
X26585Y17607D02*
Y20505D01*
X26605Y17607D02*
Y20505D01*
X26625Y17607D02*
Y20505D01*
X26645Y17607D02*
Y20505D01*
X26665Y17607D02*
Y20505D01*
X26685Y17607D02*
Y20505D01*
X26705Y17607D02*
Y20505D01*
X26725Y17607D02*
Y20505D01*
X26745Y17607D02*
Y20505D01*
X26765Y17607D02*
Y20505D01*
X26785Y17607D02*
Y20505D01*
X26805Y17607D02*
Y20505D01*
X26825Y17607D02*
Y20505D01*
X26845Y17607D02*
Y20505D01*
X26865Y17607D02*
Y20505D01*
X26885Y17607D02*
Y20505D01*
X26905Y17607D02*
Y20505D01*
X26925Y17607D02*
Y20505D01*
X26945Y17607D02*
Y20505D01*
X26965Y17607D02*
Y20505D01*
X26985Y17607D02*
Y20505D01*
X27005Y17607D02*
Y20505D01*
X27025Y17607D02*
Y20505D01*
X25485Y19313D02*
Y19563D01*
X25665Y19311D02*
Y19522D01*
X25505Y19313D02*
Y19539D01*
X25942Y19575D02*
X26046D01*
X25965Y19532D02*
Y19575D01*
X27145Y19268D02*
Y19586D01*
X26102Y19615D02*
X27137D01*
X26090Y19595D02*
X27142D01*
X26105Y19635D02*
X27135D01*
X26105Y19634D02*
Y19964D01*
Y19655D02*
X27136D01*
X26105Y19675D02*
X27140D01*
X25485Y19706D02*
Y20505D01*
X25505Y19730D02*
Y20505D01*
X25542Y19754D02*
Y20079D01*
X25525Y19746D02*
Y20505D01*
X27045Y17607D02*
Y20505D01*
X27065Y17607D02*
Y20505D01*
X27085Y17607D02*
Y20505D01*
X27105Y19268D02*
Y20505D01*
X27125Y19268D02*
Y20505D01*
X27145Y19689D02*
Y20505D01*
X25943Y19575D02*
X27151D01*
X25964Y19535D02*
X27184D01*
X25955Y19555D02*
X27164D01*
X26105Y19695D02*
X27148D01*
X26105Y19715D02*
X27160D01*
X26105Y19735D02*
X27177D01*
X27165Y19268D02*
Y19553D01*
X27205Y19268D02*
Y19521D01*
X27185Y19268D02*
Y19534D01*
X26105Y19755D02*
X27206D01*
X26105Y19775D02*
X27212D01*
X27325Y19268D02*
Y19519D01*
X27345Y19268D02*
Y19532D01*
X26105Y19795D02*
X27212D01*
X26105Y19815D02*
X27212D01*
X26105Y19835D02*
X27212D01*
X26105Y19855D02*
X27212D01*
X26105Y19875D02*
X27212D01*
X26105Y19895D02*
X27212D01*
X26105Y19915D02*
X27212D01*
X27165Y19722D02*
Y20505D01*
X27185Y19741D02*
Y20505D01*
X27205Y19754D02*
Y20505D01*
X26105Y19935D02*
X27212D01*
Y19757D02*
Y20082D01*
X26105Y19955D02*
X27212D01*
X26119Y19975D02*
X27212D01*
X27365Y17607D02*
Y18994D01*
X27385Y17607D02*
Y18994D01*
X27405Y17607D02*
Y18994D01*
X27425Y17607D02*
Y18994D01*
X27445Y17607D02*
Y18994D01*
X27465Y17607D02*
Y18994D01*
X27485Y17607D02*
Y18994D01*
X27505Y17607D02*
Y18994D01*
X27525Y17607D02*
Y18994D01*
X27545Y17607D02*
Y18994D01*
X27565Y17607D02*
Y18994D01*
X27585Y17607D02*
Y18994D01*
X27605Y17607D02*
Y18994D01*
X27625Y17607D02*
Y18994D01*
X27645Y17607D02*
Y18994D01*
X27665Y17607D02*
Y18994D01*
X27685Y17607D02*
Y18994D01*
X27705Y17607D02*
Y18994D01*
X27725Y17607D02*
Y18994D01*
X27745Y17607D02*
Y18994D01*
X27765Y17607D02*
Y18994D01*
X27785Y17607D02*
Y18994D01*
X27805Y17607D02*
Y18994D01*
X27825Y17607D02*
Y18994D01*
X27845Y17607D02*
Y18994D01*
X27865Y17607D02*
Y18994D01*
X25644Y18695D02*
X30324D01*
X25695Y18715D02*
X30324D01*
X25720Y18735D02*
X30324D01*
X25736Y18755D02*
X30324D01*
X25747Y18775D02*
X30324D01*
X25755Y18795D02*
X30324D01*
X27885Y17607D02*
Y18994D01*
X27905Y17607D02*
Y18994D01*
X27925Y17607D02*
Y18994D01*
X27945Y17607D02*
Y18994D01*
X27965Y17607D02*
Y18994D01*
X25759Y18815D02*
X30324D01*
X27985Y17607D02*
Y18994D01*
X28005Y17607D02*
Y18994D01*
X28025Y17607D02*
Y18994D01*
X28045Y17607D02*
Y18994D01*
X28065Y17607D02*
Y18994D01*
X28085Y17607D02*
Y18994D01*
X28105Y17607D02*
Y18994D01*
X28125Y17607D02*
Y18994D01*
X28145Y17607D02*
Y18994D01*
X28165Y17607D02*
Y18994D01*
X28185Y17607D02*
Y18994D01*
X28205Y17607D02*
Y18994D01*
X28225Y17607D02*
Y18994D01*
X28245Y17607D02*
Y18994D01*
X28265Y17607D02*
Y18994D01*
X27385Y19268D02*
Y19388D01*
X27425Y19268D02*
Y19357D01*
X27405Y19268D02*
Y19369D01*
X25924Y19375D02*
X27399D01*
X27445Y19268D02*
Y19348D01*
X25896Y19355D02*
X27429D01*
X27465Y19268D02*
Y19342D01*
X27485Y19268D02*
Y19340D01*
X27505Y19268D02*
Y19340D01*
X27525Y19268D02*
Y19342D01*
X27545Y19268D02*
Y19348D01*
X27565Y19268D02*
Y19357D01*
X27585Y19268D02*
Y19370D01*
X25964Y19435D02*
X27357D01*
X25943Y19395D02*
X27380D01*
X25956Y19415D02*
X27366D01*
X25973Y19495D02*
X27347D01*
X25970Y19455D02*
X27350D01*
X27365Y19268D02*
Y19416D01*
X27605Y19268D02*
Y19388D01*
X27625Y19268D02*
Y19416D01*
X27640Y19455D02*
X28151D01*
X27643Y19475D02*
X28148D01*
X25719Y18935D02*
X30324D01*
X25707Y18955D02*
X30324D01*
X25707Y18975D02*
X30324D01*
X25703Y19275D02*
X30324D01*
X25691Y19295D02*
X30324D01*
X25335Y19315D02*
X30324D01*
X25761Y18835D02*
X30324D01*
X25759Y18855D02*
X30324D01*
X25755Y18875D02*
X30324D01*
X27091Y18994D02*
X29227D01*
X27091Y19268D02*
X29227D01*
X25747Y18895D02*
X30324D01*
X25736Y18915D02*
X30324D01*
X27591Y19375D02*
X28199D01*
X25284Y19335D02*
X30324D01*
X27561Y19355D02*
X28230D01*
X27634Y19435D02*
X28157D01*
X27643Y19495D02*
X28147D01*
X27611Y19395D02*
X28180D01*
X27624Y19415D02*
X28166D01*
X28165Y19268D02*
Y19417D01*
X28205Y19268D02*
Y19370D01*
X28185Y19268D02*
Y19388D01*
X28245Y19268D02*
Y19348D01*
X28225Y19268D02*
Y19357D01*
X28265Y19268D02*
Y19342D01*
X28285Y17607D02*
Y18994D01*
X28305Y17607D02*
Y18994D01*
X28325Y17607D02*
Y18994D01*
X28345Y17607D02*
Y18994D01*
X28365Y17607D02*
Y18994D01*
X28385Y17607D02*
Y18994D01*
X28405Y17607D02*
Y18994D01*
X28425Y17607D02*
Y18994D01*
X28445Y17607D02*
Y18994D01*
X28465Y17607D02*
Y18994D01*
X28485Y17607D02*
Y18994D01*
X28505Y17607D02*
Y18994D01*
X28525Y17607D02*
Y18994D01*
X28545Y17607D02*
Y18994D01*
X28565Y17607D02*
Y18994D01*
X28585Y17607D02*
Y18994D01*
X28605Y17607D02*
Y18994D01*
X28625Y17607D02*
Y18994D01*
X28645Y17607D02*
Y18994D01*
X28665Y17607D02*
Y18994D01*
X28685Y17607D02*
Y18994D01*
X28705Y17607D02*
Y18994D01*
X28725Y17607D02*
Y18994D01*
X28745Y17607D02*
Y18994D01*
X28765Y17607D02*
Y18994D01*
X28785Y17607D02*
Y18994D01*
X28805Y17607D02*
Y18994D01*
X28825Y17607D02*
Y18994D01*
X28845Y17607D02*
Y18994D01*
X28865Y17607D02*
Y18994D01*
X28885Y17607D02*
Y18994D01*
X28905Y17607D02*
Y18994D01*
X28925Y17607D02*
Y18994D01*
X28945Y17607D02*
Y18994D01*
X28965Y17607D02*
Y18994D01*
X28985Y17607D02*
Y18994D01*
X29005Y17607D02*
Y18994D01*
X29025Y17607D02*
Y18994D01*
X29045Y17607D02*
Y18994D01*
X29065Y17607D02*
Y18994D01*
X29085Y17607D02*
Y18994D01*
X29105Y17607D02*
Y18994D01*
X29125Y17607D02*
Y18994D01*
X29145Y17607D02*
Y18994D01*
X29165Y17607D02*
Y18994D01*
X29185Y17607D02*
Y18994D01*
X29205Y17607D02*
Y18994D01*
X29225Y17607D02*
Y18994D01*
X29227Y18995D02*
X30324D01*
X29227Y18994D02*
Y19268D01*
Y19015D02*
X30324D01*
X29227Y19035D02*
X30324D01*
X28285Y19268D02*
Y19340D01*
X28305Y19268D02*
Y19340D01*
X28325Y19268D02*
Y19342D01*
X28345Y19268D02*
Y19348D01*
X28361Y19355D02*
X29029D01*
X28365Y19268D02*
Y19357D01*
X28385Y19268D02*
Y19369D01*
X29025Y19268D02*
Y19357D01*
X29005Y19268D02*
Y19369D01*
X29045Y19268D02*
Y19348D01*
X29065Y19268D02*
Y19342D01*
X29085Y19268D02*
Y19340D01*
X29105Y19268D02*
Y19340D01*
X28405Y19268D02*
Y19388D01*
X28425Y19268D02*
Y19416D01*
X28425Y19415D02*
X28966D01*
X28392Y19375D02*
X28999D01*
X28411Y19395D02*
X28980D01*
X28965Y19268D02*
Y19416D01*
X28985Y19268D02*
Y19388D01*
X28440Y19455D02*
X28950D01*
X28443Y19475D02*
X28947D01*
X28434Y19435D02*
X28957D01*
X28444Y19495D02*
X28947D01*
X29227Y19055D02*
X30324D01*
X29227Y19075D02*
X30324D01*
X29227Y19095D02*
X30324D01*
X29125Y19268D02*
Y19342D01*
X29227Y19115D02*
X30324D01*
X29145Y19268D02*
Y19348D01*
X29227Y19135D02*
X30324D01*
X29227Y19155D02*
X30324D01*
X29227Y19175D02*
X30324D01*
X29227Y19195D02*
X30324D01*
X29227Y19215D02*
X30324D01*
X29227Y19235D02*
X30324D01*
X29227Y19255D02*
X30324D01*
X29165Y19268D02*
Y19357D01*
X29185Y19268D02*
Y19370D01*
X29205Y19268D02*
Y19388D01*
X29161Y19355D02*
X30324D01*
X29191Y19375D02*
X30324D01*
X29225Y19268D02*
Y19416D01*
X29211Y19395D02*
X30324D01*
X29224Y19415D02*
X30324D01*
X29234Y19435D02*
X30324D01*
X29240Y19455D02*
X30324D01*
X29243Y19475D02*
X30324D01*
X29243Y19495D02*
X30324D01*
X27315Y19515D02*
X27349D01*
X27625Y19559D02*
Y19578D01*
X27636Y19535D02*
X27984D01*
X27627Y19555D02*
X27964D01*
X27645Y19268D02*
Y19578D01*
X27665Y19268D02*
Y19578D01*
X27685Y19268D02*
Y19578D01*
X27965Y19268D02*
Y19553D01*
X27705Y19268D02*
Y19578D01*
X28005Y19268D02*
Y19521D01*
X27985Y19268D02*
Y19534D01*
X27725Y19268D02*
Y19579D01*
X27745Y19268D02*
Y19586D01*
X27765Y19268D02*
Y19604D01*
X27785Y19268D02*
Y19975D01*
X27805Y19268D02*
Y19990D01*
X27825Y19268D02*
Y20013D01*
X27845Y19268D02*
Y20061D01*
X27865Y19268D02*
Y20505D01*
X27885Y19268D02*
Y20505D01*
X27905Y19268D02*
Y20505D01*
X27945Y19268D02*
Y19587D01*
X27925Y19268D02*
Y20505D01*
X28025Y19268D02*
Y19512D01*
X28045Y19268D02*
Y19507D01*
X28065Y19268D02*
Y19506D01*
X27641Y19515D02*
X28019D01*
X28085Y19268D02*
Y19507D01*
X28105Y19268D02*
Y19511D01*
X28125Y19268D02*
Y19519D01*
X28145Y19268D02*
Y19531D01*
X28115Y19515D02*
X28150D01*
X28428Y19555D02*
X28764D01*
X28441Y19515D02*
X28819D01*
X28436Y19535D02*
X28784D01*
X28445Y19268D02*
Y19578D01*
X28465Y19268D02*
Y19578D01*
X28485Y19268D02*
Y19578D01*
X28425Y19559D02*
Y19578D01*
X28505Y19268D02*
Y19578D01*
X28525Y19268D02*
Y19578D01*
X28545Y19268D02*
Y19585D01*
X28565Y19268D02*
Y19603D01*
X28585Y19268D02*
Y19974D01*
X28605Y19268D02*
Y19990D01*
X28625Y19268D02*
Y20012D01*
X28645Y19268D02*
Y20059D01*
X27613Y19578D02*
X27716D01*
X27615Y19575D02*
X27951D01*
X27757Y19595D02*
X27942D01*
X27771Y19615D02*
X27937D01*
X27775Y19635D02*
X27935D01*
X27775Y19655D02*
X27936D01*
X27775Y19675D02*
X27940D01*
X27775Y19695D02*
X27948D01*
X27775Y19715D02*
X27960D01*
X27775Y19735D02*
X27978D01*
X27775Y19755D02*
X28007D01*
X27775Y19775D02*
X28012D01*
X27775Y19795D02*
X28012D01*
X27775Y19815D02*
X28012D01*
X27775Y19835D02*
X28012D01*
X27775Y19855D02*
X28012D01*
X27775Y19875D02*
X28012D01*
X27775Y19637D02*
Y19967D01*
X27945Y19688D02*
Y20505D01*
X27965Y19721D02*
Y20505D01*
X27985Y19741D02*
Y20505D01*
X28005Y19754D02*
Y20505D01*
X27775Y19895D02*
X28012D01*
Y19757D02*
Y20082D01*
X28413Y19578D02*
X28516D01*
X28416Y19575D02*
X28751D01*
X28558Y19595D02*
X28742D01*
X28571Y19615D02*
X28737D01*
X28576Y19635D02*
X28735D01*
X28576Y19655D02*
X28736D01*
X28576Y19675D02*
X28740D01*
X28576Y19695D02*
X28748D01*
X28576Y19715D02*
X28760D01*
X28576Y19735D02*
X28777D01*
X28576Y19755D02*
X28806D01*
X28576Y19775D02*
X28812D01*
X28576Y19795D02*
X28812D01*
X28576Y19815D02*
X28812D01*
X27775Y19915D02*
X28012D01*
X27775Y19935D02*
X28012D01*
X28576Y19835D02*
X28812D01*
X27775Y19955D02*
X28012D01*
X28576Y19637D02*
Y19967D01*
Y19855D02*
X28812D01*
X28576Y19875D02*
X28812D01*
X28576Y19895D02*
X28812D01*
X28576Y19915D02*
X28812D01*
X28576Y19935D02*
X28812D01*
X28576Y19955D02*
X28812D01*
X29245Y17607D02*
Y19578D01*
X29265Y17607D02*
Y19578D01*
X29285Y17607D02*
Y19578D01*
X29305Y17607D02*
Y19578D01*
X29325Y17607D02*
Y19579D01*
X29345Y17607D02*
Y19586D01*
X29365Y17607D02*
Y19604D01*
X29385Y17607D02*
Y19975D01*
X29405Y17607D02*
Y19990D01*
X29425Y17607D02*
Y20013D01*
X29445Y17607D02*
Y20061D01*
X29465Y17607D02*
Y23412D01*
X29485Y17607D02*
Y23412D01*
X29505Y17607D02*
Y23412D01*
X29525Y17607D02*
Y23412D01*
X29545Y17607D02*
Y23412D01*
X29565Y17607D02*
Y23412D01*
X29585Y17607D02*
Y23412D01*
X29605Y17607D02*
Y23412D01*
X29625Y17607D02*
Y23412D01*
X29645Y17607D02*
Y23412D01*
X29665Y17607D02*
Y23412D01*
X29685Y17607D02*
Y23412D01*
X29705Y17607D02*
Y23412D01*
X29725Y17607D02*
Y23412D01*
X29745Y17607D02*
Y23412D01*
X30045Y17610D02*
Y23409D01*
X30085Y17619D02*
Y23400D01*
X30065Y17614D02*
Y23405D01*
X30105Y17625D02*
Y23394D01*
X30145Y17642D02*
Y23376D01*
X30125Y17633D02*
Y23386D01*
X30165Y17654D02*
Y23365D01*
X30205Y17682D02*
Y23337D01*
X30185Y17667D02*
Y23352D01*
X30245Y17721D02*
Y23297D01*
X30225Y17700D02*
Y23319D01*
X30285Y17780D02*
Y23239D01*
X30265Y17747D02*
Y23272D01*
X29765Y17607D02*
Y23412D01*
X29785Y17607D02*
Y23412D01*
X29805Y17607D02*
Y23412D01*
X29825Y17607D02*
Y23412D01*
X29845Y17607D02*
Y23412D01*
X29865Y17607D02*
Y23412D01*
X29885Y17607D02*
Y23412D01*
X29905Y17607D02*
Y23412D01*
X29925Y17607D02*
Y23412D01*
X29945Y17607D02*
Y23412D01*
X29965Y17607D02*
Y23412D01*
X29985Y17607D02*
Y23412D01*
X30005Y17607D02*
Y23412D01*
X30025Y17608D02*
Y23411D01*
X28765Y19268D02*
Y19553D01*
X28805Y19268D02*
Y19521D01*
X28785Y19268D02*
Y19534D01*
X28825Y19268D02*
Y19512D01*
X28845Y19268D02*
Y19507D01*
X28865Y19268D02*
Y19506D01*
X28885Y19268D02*
Y19507D01*
X28905Y19268D02*
Y19511D01*
X28925Y19268D02*
Y19519D01*
X28915Y19515D02*
X28949D01*
X28945Y19268D02*
Y19532D01*
X29225Y19559D02*
Y19578D01*
X28665Y19268D02*
Y23412D01*
X28685Y19268D02*
Y23412D01*
X28705Y19268D02*
Y23412D01*
X28745Y19268D02*
Y19586D01*
X28725Y19268D02*
Y23412D01*
X28745Y19689D02*
Y23412D01*
X29213Y19578D02*
X29316D01*
X28765Y19722D02*
Y23412D01*
X28785Y19741D02*
Y23412D01*
X28812Y19757D02*
Y20082D01*
X28805Y19754D02*
Y23412D01*
X29241Y19515D02*
X30324D01*
X29236Y19535D02*
X30324D01*
X29227Y19555D02*
X30324D01*
X29215Y19575D02*
X30324D01*
X29357Y19595D02*
X30324D01*
X29371Y19615D02*
X30324D01*
X29375Y19635D02*
X30324D01*
X29375Y19655D02*
X30324D01*
X29375Y19675D02*
X30324D01*
X29375Y19695D02*
X30324D01*
X29375Y19715D02*
X30324D01*
X29375Y19735D02*
X30324D01*
X29375Y19755D02*
X30324D01*
X29375Y19775D02*
X30324D01*
X29375Y19795D02*
X30324D01*
X29375Y19815D02*
X30324D01*
X29375Y19835D02*
X30324D01*
X29375Y19855D02*
X30324D01*
X29375Y19875D02*
X30324D01*
X29375Y19637D02*
Y19967D01*
X30324Y17934D02*
Y23084D01*
X30305Y17825D02*
Y23193D01*
X29375Y19895D02*
X30324D01*
X29375Y19915D02*
X30324D01*
X29375Y19935D02*
X30324D01*
X29375Y19955D02*
X30324D01*
X25545Y20099D02*
Y20505D01*
X25565Y20126D02*
Y20505D01*
X25601Y20138D02*
X25711D01*
X25585Y20136D02*
Y20505D01*
X25605Y20138D02*
Y20505D01*
X25625Y20138D02*
Y20505D01*
X25645Y20138D02*
Y20505D01*
X25685Y20138D02*
Y20183D01*
X25665Y20138D02*
Y20505D01*
X24945Y20624D02*
Y21621D01*
X25685Y20285D02*
Y20505D01*
X24965Y20624D02*
Y21597D01*
X24985Y20624D02*
Y21582D01*
X25005Y20624D02*
Y21572D01*
X25025Y20624D02*
Y21567D01*
X25705Y20322D02*
Y20505D01*
X25725Y20344D02*
Y20505D01*
X25745Y20359D02*
Y20505D01*
X25765Y20370D02*
Y20505D01*
X25785Y20377D02*
Y20505D01*
X25805Y20381D02*
Y20505D01*
X25825Y20382D02*
Y20505D01*
X25845Y20381D02*
Y20505D01*
X25949Y20315D02*
X27369D01*
X25972Y20215D02*
X26028D01*
X26117Y20195D02*
X27353D01*
X26064Y20215D02*
X27348D01*
X25973Y20235D02*
X27347D01*
X25972Y20255D02*
X27348D01*
X25967Y20275D02*
X27352D01*
X25960Y20295D02*
X27358D01*
X25945Y20320D02*
Y20505D01*
X25965Y20281D02*
Y20505D01*
X25985Y20201D02*
Y20505D01*
X25865Y20377D02*
Y20505D01*
X25885Y20369D02*
Y20505D01*
X25905Y20358D02*
Y20505D01*
X25925Y20343D02*
Y20505D01*
X26005Y20209D02*
Y20505D01*
X26105Y20202D02*
Y20505D01*
X26125Y20189D02*
Y20505D01*
X26025Y20214D02*
Y20505D01*
X26045Y20216D02*
Y20505D01*
X26065Y20214D02*
Y20505D01*
X26085Y20210D02*
Y20505D01*
X25045Y20624D02*
Y21565D01*
X25065Y20624D02*
Y21567D01*
X25085Y20624D02*
Y21572D01*
X25105Y20624D02*
Y21581D01*
X25091Y21795D02*
X25973D01*
X25125Y20624D02*
Y21595D01*
X25145Y20624D02*
Y21618D01*
X25165Y21695D02*
X25973D01*
X25161Y21715D02*
X25973D01*
X25154Y21735D02*
X25973D01*
X25142Y21755D02*
X25973D01*
X25124Y21775D02*
X25973D01*
X24945Y21748D02*
Y22042D01*
X24985Y21787D02*
Y22004D01*
X24965Y21772D02*
Y22018D01*
X25005Y21796D02*
Y21994D01*
X25025Y21802D02*
Y21989D01*
X25125Y21773D02*
Y22017D01*
X25145Y21750D02*
Y22040D01*
X25973Y21692D02*
Y22098D01*
X25045Y21804D02*
Y21987D01*
X25065Y21802D02*
Y21988D01*
X25085Y21797D02*
Y21994D01*
X25105Y21788D02*
Y22003D01*
X25985Y20624D02*
Y21692D01*
X25154Y21635D02*
X26939D01*
X26005Y20624D02*
Y21692D01*
X25973D02*
X26318D01*
X25161Y21655D02*
X26911D01*
X25165Y21675D02*
X26892D01*
X26025Y20624D02*
Y21692D01*
X26045Y20624D02*
Y21692D01*
X26065Y20624D02*
Y21692D01*
X26085Y20624D02*
Y21692D01*
X26105Y20624D02*
Y21692D01*
X26125Y20624D02*
Y21692D01*
X25088Y21995D02*
X25973D01*
X25122Y22015D02*
X25973D01*
X25141Y22035D02*
X25973D01*
X25154Y22055D02*
X25973D01*
X25144Y22175D02*
X26730D01*
X25126Y22195D02*
X26730D01*
X25095Y22215D02*
X26730D01*
X25161Y22075D02*
X25973D01*
X25165Y22095D02*
X25973D01*
Y22098D02*
X26318D01*
X25165Y22115D02*
X26730D01*
X25162Y22135D02*
X26730D01*
X25155Y22155D02*
X26730D01*
X26145Y20170D02*
Y20505D01*
X26165Y20139D02*
Y20505D01*
X26145Y20624D02*
Y21692D01*
X26165Y20624D02*
Y21692D01*
X26185Y20624D02*
Y21692D01*
X26205Y20624D02*
Y21692D01*
X26225Y20624D02*
Y21692D01*
X26245Y20624D02*
Y21692D01*
X26265Y20624D02*
Y21692D01*
X26905Y20624D02*
Y21660D01*
X26885Y20624D02*
Y21685D01*
X26945Y20624D02*
Y21631D01*
X26925Y20624D02*
Y21643D01*
X26285Y20624D02*
Y21692D01*
X26305Y20624D02*
Y21692D01*
X26665Y20624D02*
Y21869D01*
X26685Y20624D02*
Y21833D01*
X26725Y20624D02*
Y21799D01*
X26705Y20624D02*
Y21813D01*
X26745Y20624D02*
Y21790D01*
X26765Y20624D02*
Y21785D01*
X26785Y20624D02*
Y21783D01*
X26805Y20624D02*
Y21784D01*
X26825Y20624D02*
Y21788D01*
X26865Y20624D02*
Y21732D01*
X26845Y20624D02*
Y21796D01*
X26143Y19995D02*
X27212D01*
X26158Y20015D02*
X27212D01*
X26168Y20035D02*
X27212D01*
X26167Y20135D02*
X27244D01*
X26157Y20155D02*
X27372D01*
X26141Y20175D02*
X27360D01*
X26174Y20055D02*
X27212D01*
X26177Y20075D02*
X27212D01*
X26177Y20095D02*
X27213D01*
X26174Y20115D02*
X27222D01*
X27365Y20141D02*
Y20165D01*
X26965Y20624D02*
Y21623D01*
X27225Y20119D02*
Y20505D01*
X26985Y20624D02*
Y21619D01*
X27005Y20624D02*
Y21617D01*
X27025Y20624D02*
Y21617D01*
X27045Y20624D02*
Y21621D01*
X27065Y20624D02*
Y21627D01*
X27245Y20135D02*
Y20505D01*
X27265Y20141D02*
Y20505D01*
X27285Y20141D02*
Y20505D01*
X27305Y20141D02*
Y20505D01*
X27325Y20141D02*
Y20505D01*
X27345Y20141D02*
Y20505D01*
X27365Y20309D02*
Y20505D01*
X26318Y21735D02*
X26865D01*
X26318Y21715D02*
X26870D01*
X26318Y21755D02*
X26862D01*
X26318Y21775D02*
X26862D01*
X26318Y21795D02*
X26735D01*
X26318Y21815D02*
X26703D01*
X26843Y21795D02*
X26865D01*
X26865Y21798D02*
Y21807D01*
X26318Y21875D02*
X26663D01*
X26318Y21895D02*
X26659D01*
X26318Y21835D02*
X26684D01*
X26318Y21855D02*
X26672D01*
X26318Y21915D02*
X26657D01*
X26318Y21935D02*
X26659D01*
X26318Y21955D02*
X26663D01*
X26318Y21975D02*
X26672D01*
X26318Y21995D02*
X26684D01*
X26318Y22015D02*
X26703D01*
X26318Y21692D02*
Y22098D01*
Y22035D02*
X26730D01*
X26318Y22055D02*
X26730D01*
X26318Y22075D02*
X26730D01*
X26318Y22095D02*
X26730D01*
X27085Y20624D02*
Y21637D01*
X26318Y21695D02*
X26879D01*
X27105Y20624D02*
Y21651D01*
X27125Y20624D02*
Y21672D01*
X27145Y20624D02*
Y21704D01*
Y21826D02*
Y21861D01*
X27165Y20624D02*
Y21861D01*
X27185Y20624D02*
Y21861D01*
X27205Y20624D02*
Y21861D01*
X27225Y20624D02*
Y21861D01*
X27245Y20624D02*
Y21862D01*
X27123Y21861D02*
X27234D01*
X27265Y20624D02*
Y21870D01*
X27285Y20624D02*
Y21891D01*
X27305Y20624D02*
Y22251D01*
X27293Y21920D02*
Y22244D01*
X27325Y20624D02*
Y22265D01*
X27345Y20624D02*
Y22287D01*
X27365Y20624D02*
Y22328D01*
X23405Y20624D02*
Y23412D01*
X23425Y20624D02*
Y23412D01*
X23445Y20624D02*
Y23412D01*
X23465Y20624D02*
Y23412D01*
X23485Y20624D02*
Y23412D01*
X23505Y20624D02*
Y23412D01*
X23525Y20624D02*
Y23412D01*
X23545Y20624D02*
Y23412D01*
X23565Y20624D02*
Y23412D01*
X23585Y20624D02*
Y23412D01*
X23605Y20624D02*
Y23412D01*
X23625Y20624D02*
Y23412D01*
X23645Y20624D02*
Y23412D01*
X23665Y20624D02*
Y23412D01*
X23685Y20624D02*
Y23412D01*
X23705Y20624D02*
Y23412D01*
X23725Y20624D02*
Y23412D01*
X23745Y20624D02*
Y23412D01*
X23765Y20624D02*
Y23412D01*
X23785Y20624D02*
Y23412D01*
X23805Y20624D02*
Y23412D01*
X23825Y20624D02*
Y23412D01*
X23845Y20624D02*
Y23412D01*
X23865Y20624D02*
Y23412D01*
X23885Y20624D02*
Y23412D01*
X23905Y20624D02*
Y23412D01*
X23925Y20624D02*
Y23412D01*
X23945Y20624D02*
Y23412D01*
X23965Y20624D02*
Y23412D01*
X23985Y20624D02*
Y23412D01*
X24005Y20624D02*
Y23412D01*
X24025Y20624D02*
Y23412D01*
X24045Y20624D02*
Y23412D01*
X24065Y20624D02*
Y23412D01*
X24085Y20624D02*
Y23412D01*
X24105Y20624D02*
Y23412D01*
X24125Y20624D02*
Y23412D01*
X24145Y20624D02*
Y23412D01*
X24165Y20624D02*
Y23412D01*
X24185Y20624D02*
Y23412D01*
X24205Y20624D02*
Y23412D01*
X24225Y20624D02*
Y23412D01*
X24245Y20624D02*
Y23412D01*
X24265Y20624D02*
Y23412D01*
X24285Y20624D02*
Y23412D01*
X24305Y20624D02*
Y23412D01*
X24325Y20624D02*
Y23412D01*
X24345Y20624D02*
Y23412D01*
X24365Y20624D02*
Y23412D01*
X24385Y20624D02*
Y23412D01*
X24405Y20624D02*
Y23412D01*
X24425Y20624D02*
Y23412D01*
X24445Y20624D02*
Y23412D01*
X24465Y20624D02*
Y23412D01*
X24485Y20624D02*
Y23412D01*
X24505Y20624D02*
Y23412D01*
X24525Y20624D02*
Y23412D01*
X24545Y20624D02*
Y23412D01*
X24565Y20624D02*
Y23412D01*
X24585Y20624D02*
Y23412D01*
X24605Y20624D02*
Y23412D01*
X24625Y20624D02*
Y23412D01*
X24645Y20624D02*
Y23412D01*
X24665Y20624D02*
Y23412D01*
X24685Y20624D02*
Y23412D01*
X24705Y20624D02*
Y23412D01*
X24725Y20624D02*
Y23412D01*
X24745Y20624D02*
Y23412D01*
X24765Y20624D02*
Y23412D01*
X24785Y20624D02*
Y23412D01*
X24805Y20624D02*
Y23412D01*
X24825Y20624D02*
Y23412D01*
X24845Y20624D02*
Y23412D01*
X24865Y20624D02*
Y23412D01*
X24885Y20624D02*
Y23412D01*
X24905Y20624D02*
Y23412D01*
X24925Y20624D02*
Y23412D01*
X24945Y22170D02*
Y23412D01*
X24965Y22194D02*
Y23412D01*
X24985Y22209D02*
Y23412D01*
X25005Y22218D02*
Y23412D01*
X25085Y22219D02*
Y23412D01*
X25025Y22223D02*
Y23412D01*
X25045Y22225D02*
Y23412D01*
X25065Y22224D02*
Y23412D01*
X25165Y20624D02*
Y23412D01*
X25185Y20624D02*
Y23412D01*
X25205Y20624D02*
Y23412D01*
X25105Y22209D02*
Y23412D01*
X25125Y22195D02*
Y23412D01*
X25145Y22172D02*
Y23412D01*
X25225Y20624D02*
Y23412D01*
X25245Y20624D02*
Y23412D01*
X25265Y20624D02*
Y23412D01*
X25285Y20624D02*
Y23412D01*
X25305Y20624D02*
Y23412D01*
X25325Y20624D02*
Y23412D01*
X25345Y20624D02*
Y23412D01*
X25365Y20624D02*
Y23412D01*
X25385Y20624D02*
Y23412D01*
X25405Y20624D02*
Y23412D01*
X25425Y20624D02*
Y23412D01*
X25445Y20624D02*
Y23412D01*
X25465Y20624D02*
Y23412D01*
X25485Y20624D02*
Y23412D01*
X25505Y20624D02*
Y23412D01*
X25525Y20624D02*
Y23412D01*
X25545Y20624D02*
Y23412D01*
X25565Y20624D02*
Y23412D01*
X25585Y20624D02*
Y23412D01*
X25605Y20624D02*
Y23412D01*
X25625Y20624D02*
Y23412D01*
X25645Y20624D02*
Y23412D01*
X25665Y20624D02*
Y23412D01*
X25685Y20624D02*
Y23412D01*
X25705Y20624D02*
Y23412D01*
X25725Y20624D02*
Y23412D01*
X25745Y20624D02*
Y23412D01*
X25765Y20624D02*
Y23412D01*
X25785Y20624D02*
Y23412D01*
X25805Y20624D02*
Y23412D01*
X25825Y20624D02*
Y23412D01*
X25845Y20624D02*
Y23412D01*
X25865Y20624D02*
Y23412D01*
X25885Y20624D02*
Y23412D01*
X25905Y20624D02*
Y23412D01*
X25925Y20624D02*
Y23412D01*
X25945Y20624D02*
Y23412D01*
X25965Y20624D02*
Y23412D01*
X25985Y22098D02*
Y23412D01*
X26005Y22098D02*
Y23412D01*
X26025Y22098D02*
Y23412D01*
X26045Y22098D02*
Y23412D01*
X26065Y22098D02*
Y23412D01*
X26325Y20624D02*
Y23412D01*
X26085Y22098D02*
Y23412D01*
X26105Y22098D02*
Y23412D01*
X26125Y22098D02*
Y23412D01*
X26345Y20624D02*
Y23412D01*
X26365Y20624D02*
Y23412D01*
X26385Y20624D02*
Y23412D01*
X26405Y20624D02*
Y23412D01*
X26425Y20624D02*
Y23412D01*
X26730Y22034D02*
Y22365D01*
X26445Y20624D02*
Y23412D01*
X26465Y20624D02*
Y23412D01*
X26485Y20624D02*
Y23412D01*
X26505Y20624D02*
Y23412D01*
X26525Y20624D02*
Y23412D01*
X26545Y20624D02*
Y23412D01*
X26565Y20624D02*
Y23412D01*
X26585Y20624D02*
Y23412D01*
X26605Y20624D02*
Y23412D01*
X26625Y20624D02*
Y23412D01*
X26645Y20624D02*
Y23412D01*
X26665Y21960D02*
Y23412D01*
X26685Y21996D02*
Y23412D01*
X26705Y22017D02*
Y23412D01*
X26725Y22030D02*
Y23412D01*
X26145Y22098D02*
Y23412D01*
X26165Y22098D02*
Y23412D01*
X26185Y22098D02*
Y23412D01*
X26205Y22098D02*
Y23412D01*
X26225Y22098D02*
Y23412D01*
X26245Y22098D02*
Y23412D01*
X26265Y22098D02*
Y23412D01*
X26285Y22098D02*
Y23412D01*
X26865Y22424D02*
Y22481D01*
X26789Y22424D02*
X26892D01*
X26885D02*
Y22434D01*
X26305Y22098D02*
Y23412D01*
X26745Y22405D02*
Y23412D01*
X26765Y22419D02*
Y23412D01*
X26785Y22424D02*
Y23412D01*
X26805Y22424D02*
Y23412D01*
X26825Y22424D02*
Y23412D01*
X26845Y22424D02*
Y23412D01*
X26865Y22547D02*
Y23412D01*
X26885Y22595D02*
Y23412D01*
X26905Y22619D02*
Y23412D01*
X26925Y22636D02*
Y23412D01*
X26945Y22648D02*
Y23412D01*
X26965Y22656D02*
Y23412D01*
X26985Y22661D02*
Y23412D01*
X27005Y22663D02*
Y23412D01*
X27025Y22662D02*
Y23412D01*
X27045Y22658D02*
Y23412D01*
X27065Y22652D02*
Y23412D01*
X27153Y22475D02*
X27166D01*
X27157Y22495D02*
X27218D01*
X27165Y22474D02*
Y23412D01*
X27185Y22485D02*
Y23412D01*
X27205Y22492D02*
Y23412D01*
X27085Y22642D02*
Y23412D01*
X27105Y22628D02*
Y23412D01*
X27125Y22608D02*
Y23412D01*
X27145Y22575D02*
Y23412D01*
X27305Y22478D02*
Y23412D01*
X27325Y22464D02*
Y23412D01*
X27345Y22442D02*
Y23412D01*
X27225Y22496D02*
Y23412D01*
X27245Y22496D02*
Y23412D01*
X27265Y22494D02*
Y23412D01*
X27285Y22488D02*
Y23412D01*
X27271Y20141D02*
X27382D01*
X25934Y20335D02*
X27384D01*
X25911Y20355D02*
X27405D01*
X27385Y20337D02*
Y20505D01*
X27642Y20215D02*
X27683D01*
X27405Y20355D02*
Y20505D01*
X27425Y20368D02*
Y20505D01*
X27625Y20308D02*
Y20505D01*
X27645Y20198D02*
Y20505D01*
X27665Y20209D02*
Y20505D01*
X27565Y20368D02*
Y20505D01*
X27585Y20355D02*
Y20505D01*
X27605Y20336D02*
Y20505D01*
X27685Y20215D02*
Y20505D01*
X27785Y20199D02*
Y20505D01*
X27805Y20184D02*
Y20505D01*
X27705Y20218D02*
Y20505D01*
X27725Y20218D02*
Y20505D01*
X27745Y20216D02*
Y20505D01*
X27765Y20209D02*
Y20505D01*
X27785Y19975D02*
X28012D01*
X27810Y19995D02*
X28012D01*
X27826Y20015D02*
X28012D01*
X27837Y20035D02*
X28012D01*
X27844Y20055D02*
X28012D01*
X27847Y20075D02*
X28012D01*
X27848Y20095D02*
X28014D01*
X27845Y20115D02*
X28022D01*
X27839Y20135D02*
X28045D01*
X27643Y20235D02*
X28147D01*
X27639Y20275D02*
X28152D01*
X27632Y20295D02*
X28159D01*
X27621Y20315D02*
X28169D01*
X27607Y20335D02*
X28184D01*
X27585Y20355D02*
X28205D01*
X27825Y20161D02*
Y20505D01*
X27829Y20155D02*
X28172D01*
X27845Y20113D02*
Y20505D01*
X27792Y20195D02*
X28153D01*
X27749Y20215D02*
X28149D01*
X27815Y20175D02*
X28161D01*
X27642Y20255D02*
X28148D01*
X25872Y20375D02*
X27440D01*
X27445Y20377D02*
Y20505D01*
X27465Y20382D02*
Y20505D01*
X27155Y21735D02*
X27765D01*
X27158Y21755D02*
X27762D01*
X27158Y21775D02*
X27762D01*
X27485Y20385D02*
Y20505D01*
X27505Y20385D02*
Y20505D01*
X27545Y20376D02*
Y20505D01*
X27525Y20382D02*
Y20505D01*
X27665Y20624D02*
Y21785D01*
X27765Y20624D02*
Y21732D01*
X27685Y20624D02*
Y21783D01*
X27585Y20624D02*
Y21833D01*
X27155Y21795D02*
X27635D01*
X27605Y20624D02*
Y21813D01*
X27128Y21855D02*
X27572D01*
X27150Y21815D02*
X27603D01*
X27141Y21835D02*
X27584D01*
X27625Y20624D02*
Y21799D01*
X27705Y20624D02*
Y21784D01*
X27645Y20624D02*
Y21790D01*
X27725Y20624D02*
Y21788D01*
X27745Y20624D02*
Y21796D01*
X27743Y21795D02*
X27765D01*
X27765Y21798D02*
Y21807D01*
X27845Y20624D02*
Y21631D01*
X27550Y20375D02*
X28241D01*
X25092Y21575D02*
X30324D01*
X27081Y21635D02*
X27839D01*
X25124Y21595D02*
X30324D01*
X25143Y21615D02*
X30324D01*
X27865Y20624D02*
Y21624D01*
X27885Y20624D02*
Y21619D01*
X27905Y20624D02*
Y21617D01*
X27925Y20624D02*
Y21617D01*
X27945Y20624D02*
Y21621D01*
X27965Y20624D02*
Y21627D01*
X27981Y21635D02*
X30324D01*
X27785Y20624D02*
Y21685D01*
X27109Y21655D02*
X27811D01*
X27141Y21695D02*
X27779D01*
X27150Y21715D02*
X27770D01*
X27128Y21675D02*
X27792D01*
X27805Y20624D02*
Y21660D01*
X27985Y20624D02*
Y21637D01*
X27825Y20624D02*
Y21643D01*
X28005Y20624D02*
Y21651D01*
X28009Y21655D02*
X30324D01*
X28585Y19975D02*
X28812D01*
X28611Y19995D02*
X28812D01*
X28072Y20141D02*
X28182D01*
X28627Y20015D02*
X28812D01*
X28638Y20035D02*
X28812D01*
X28644Y20055D02*
X28812D01*
X28648Y20075D02*
X28812D01*
X28648Y20095D02*
X28813D01*
X28645Y20115D02*
X28822D01*
X28639Y20135D02*
X28844D01*
X28025Y20119D02*
Y20505D01*
X28045Y20135D02*
Y20505D01*
X28065Y20141D02*
Y20505D01*
X28085Y20141D02*
Y20505D01*
X28105Y20141D02*
Y20505D01*
X28125Y20141D02*
Y20505D01*
X28145Y20141D02*
Y20505D01*
X28165Y20141D02*
Y20166D01*
X28442Y20215D02*
X28483D01*
X29385Y19975D02*
X30324D01*
X29410Y19995D02*
X30324D01*
X28871Y20141D02*
X28982D01*
X29426Y20015D02*
X30324D01*
X29437Y20035D02*
X30324D01*
X29444Y20055D02*
X30324D01*
X29447Y20075D02*
X30324D01*
X29448Y20095D02*
X30324D01*
X29445Y20115D02*
X30324D01*
X29439Y20135D02*
X30324D01*
X28965Y20141D02*
Y20165D01*
X28593Y20195D02*
X28953D01*
X28550Y20215D02*
X28948D01*
X28630Y20155D02*
X28972D01*
X28615Y20175D02*
X28960D01*
X29429Y20155D02*
X30324D01*
X29415Y20175D02*
X30324D01*
X29242Y20215D02*
X29283D01*
X29392Y20195D02*
X30324D01*
X29349Y20215D02*
X30324D01*
X28165Y20308D02*
Y20505D01*
X28351Y20375D02*
X29040D01*
X28185Y20336D02*
Y20505D01*
X28444Y20235D02*
X28947D01*
X28443Y20255D02*
X28948D01*
X28439Y20275D02*
X28952D01*
X28432Y20295D02*
X28958D01*
X28422Y20315D02*
X28969D01*
X28407Y20335D02*
X28984D01*
X28386Y20355D02*
X29005D01*
X28205Y20355D02*
Y20505D01*
X28225Y20368D02*
Y20505D01*
X28245Y20376D02*
Y20505D01*
X28025Y20624D02*
Y21672D01*
X28045Y20624D02*
Y21704D01*
X28265Y20382D02*
Y20505D01*
X28045Y21826D02*
Y21861D01*
X28285Y20385D02*
Y20505D01*
X28345Y20377D02*
Y20513D01*
X28365Y20368D02*
Y20531D01*
X28305Y20385D02*
Y20505D01*
X28325Y20382D02*
Y20506D01*
X29150Y20375D02*
X30324D01*
X28349Y20515D02*
X30324D01*
X28368Y20535D02*
X30324D01*
X29243Y20235D02*
X30324D01*
X29242Y20255D02*
X30324D01*
X29239Y20275D02*
X30324D01*
X29232Y20295D02*
X30324D01*
X29221Y20315D02*
X30324D01*
X29207Y20335D02*
X30324D01*
X29185Y20355D02*
X30324D01*
X28028Y21675D02*
X30324D01*
X28041Y21695D02*
X30324D01*
X28050Y21715D02*
X30324D01*
X28055Y21735D02*
X30324D01*
X28050Y21815D02*
X30324D01*
X28041Y21835D02*
X30324D01*
X28028Y21855D02*
X30324D01*
X28375Y20555D02*
X30324D01*
X28375Y20575D02*
X30324D01*
X28367Y20595D02*
X30324D01*
X28348Y20615D02*
X30324D01*
X28058Y21755D02*
X30324D01*
X28058Y21775D02*
X30324D01*
X28055Y21795D02*
X30324D01*
X27293Y21915D02*
X27557D01*
X27272Y21875D02*
X27563D01*
X27287Y21895D02*
X27559D01*
X27293Y21935D02*
X27559D01*
X27293Y21955D02*
X27563D01*
X27293Y21975D02*
X27572D01*
X27565Y20624D02*
Y21869D01*
X27293Y21995D02*
X27584D01*
X27293Y22015D02*
X27603D01*
X27293Y22035D02*
X27630D01*
X27365Y22401D02*
Y23412D01*
X27293Y22055D02*
X27630D01*
Y22034D02*
Y22365D01*
X27385Y20624D02*
Y23412D01*
X27405Y20624D02*
Y23412D01*
X27425Y20624D02*
Y23412D01*
X27445Y20624D02*
Y23412D01*
X27465Y20624D02*
Y23412D01*
X27485Y20624D02*
Y23412D01*
X27505Y20624D02*
Y23412D01*
X27525Y20624D02*
Y23412D01*
X27545Y20624D02*
Y23412D01*
X27565Y21960D02*
Y23412D01*
X27585Y21996D02*
Y23412D01*
X27605Y22017D02*
Y23412D01*
X27625Y22030D02*
Y23412D01*
X27293Y22075D02*
X27630D01*
X27293Y22095D02*
X27630D01*
X27293Y22115D02*
X27630D01*
X27293Y22135D02*
X27630D01*
X27293Y22155D02*
X27630D01*
X27293Y22175D02*
X27630D01*
X28065Y20624D02*
Y21861D01*
X28085Y20624D02*
Y21861D01*
X28023D02*
X28134D01*
X27293Y22195D02*
X27630D01*
X27293Y22215D02*
X27630D01*
X27293Y22235D02*
X27630D01*
X27312Y22255D02*
X27630D01*
X27335Y22275D02*
X27630D01*
X27350Y22295D02*
X27630D01*
X27361Y22315D02*
X27630D01*
X27367Y22335D02*
X27630D01*
X27370Y22355D02*
X27630D01*
X27370Y22375D02*
X27631D01*
X27367Y22395D02*
X27638D01*
X27259Y22495D02*
X27763D01*
X27158Y22515D02*
X27762D01*
X27157Y22535D02*
X27763D01*
X27153Y22555D02*
X27767D01*
X27146Y22575D02*
X27774D01*
X27135Y22595D02*
X27785D01*
X27361Y22415D02*
X27657D01*
X27689Y22424D02*
X27792D01*
X27765D02*
Y22482D01*
X27335Y22455D02*
X27774D01*
X27311Y22475D02*
X27767D01*
X27785Y22424D02*
Y22434D01*
X27350Y22435D02*
X27785D01*
X27645Y22405D02*
Y23412D01*
X27665Y22419D02*
Y23412D01*
X27685Y22424D02*
Y23412D01*
X27705Y22424D02*
Y23412D01*
X27119Y22615D02*
X27801D01*
X27097Y22635D02*
X27823D01*
X27725Y22424D02*
Y23412D01*
X27745Y22424D02*
Y23412D01*
X27765Y22547D02*
Y23412D01*
X27785Y22595D02*
Y23412D01*
X27805Y22619D02*
Y23412D01*
X27825Y22636D02*
Y23412D01*
X27845Y22648D02*
Y23412D01*
X28035Y22595D02*
X30324D01*
X27058Y22655D02*
X27862D01*
X28019Y22615D02*
X30324D01*
X27997Y22635D02*
X30324D01*
X28053Y22475D02*
X28066D01*
X28057Y22495D02*
X28118D01*
X28058Y22515D02*
X30324D01*
X28057Y22535D02*
X30324D01*
X28053Y22555D02*
X30324D01*
X28046Y22575D02*
X30324D01*
X27865Y22656D02*
Y23412D01*
X27885Y22661D02*
Y23412D01*
X27905Y22663D02*
Y23412D01*
X27925Y22662D02*
Y23412D01*
X27945Y22658D02*
Y23412D01*
X28025Y22608D02*
Y23412D01*
X28045Y22575D02*
Y23412D01*
X28065Y22474D02*
Y23412D01*
X27965Y22652D02*
Y23412D01*
X27985Y22642D02*
Y23412D01*
X27958Y22655D02*
X30324D01*
X28005Y22628D02*
Y23412D01*
X28105Y20624D02*
Y21861D01*
X28125Y20624D02*
Y21861D01*
X28345Y20616D02*
Y23412D01*
X28145Y20624D02*
Y21862D01*
X28165Y20624D02*
Y21870D01*
X28185Y20624D02*
Y21891D01*
X28445Y20198D02*
Y23412D01*
X28465Y20208D02*
Y23412D01*
X28485Y20215D02*
Y23412D01*
X28365Y20598D02*
Y23412D01*
X28385Y20355D02*
Y23412D01*
X28405Y20337D02*
Y23412D01*
X28425Y20309D02*
Y23412D01*
X28565Y20209D02*
Y23412D01*
X28585Y20199D02*
Y23412D01*
X28605Y20184D02*
Y23412D01*
X28505Y20218D02*
Y23412D01*
X28525Y20219D02*
Y23412D01*
X28545Y20216D02*
Y23412D01*
X28645Y20115D02*
Y23412D01*
X28825Y20119D02*
Y23412D01*
X28845Y20135D02*
Y23412D01*
X28625Y20161D02*
Y23412D01*
X28865Y20141D02*
Y23412D01*
X28885Y20141D02*
Y23412D01*
X28905Y20141D02*
Y23412D01*
X28925Y20141D02*
Y23412D01*
X28945Y20141D02*
Y23412D01*
X28965Y20309D02*
Y23412D01*
X28985Y20337D02*
Y23412D01*
X29005Y20355D02*
Y23412D01*
X29025Y20368D02*
Y23412D01*
X29045Y20377D02*
Y23412D01*
X29145Y20376D02*
Y23412D01*
X29165Y20368D02*
Y23412D01*
X29065Y20382D02*
Y23412D01*
X29085Y20385D02*
Y23412D01*
X29105Y20385D02*
Y23412D01*
X29125Y20382D02*
Y23412D01*
X29245Y20198D02*
Y23412D01*
X29265Y20209D02*
Y23412D01*
X29285Y20215D02*
Y23412D01*
X29185Y20355D02*
Y23412D01*
X29205Y20336D02*
Y23412D01*
X29225Y20308D02*
Y23412D01*
X29305Y20218D02*
Y23412D01*
X29405Y20184D02*
Y23412D01*
X29425Y20161D02*
Y23412D01*
X29445Y20113D02*
Y23412D01*
X29325Y20218D02*
Y23412D01*
X29345Y20216D02*
Y23412D01*
X29365Y20209D02*
Y23412D01*
X29385Y20199D02*
Y23412D01*
X28172Y21875D02*
X30324D01*
X28187Y21895D02*
X30324D01*
X28193Y21915D02*
X30324D01*
X28193Y21935D02*
X30324D01*
X28205Y20624D02*
Y22251D01*
X28225Y20624D02*
Y22265D01*
X28245Y20624D02*
Y22287D01*
X28193Y21920D02*
Y22244D01*
X28265Y20624D02*
Y22328D01*
X28193Y21955D02*
X30324D01*
X28193Y21975D02*
X30324D01*
X28085Y22485D02*
Y23412D01*
X28105Y22492D02*
Y23412D01*
X28125Y22496D02*
Y23412D01*
X28145Y22496D02*
Y23412D01*
X28165Y22494D02*
Y23412D01*
X28185Y22488D02*
Y23412D01*
X28285Y20624D02*
Y23412D01*
X28305Y20624D02*
Y23412D01*
X28325Y20623D02*
Y23412D01*
X28205Y22478D02*
Y23412D01*
X28225Y22464D02*
Y23412D01*
X28245Y22442D02*
Y23412D01*
X28265Y22401D02*
Y23412D01*
X28193Y21995D02*
X30324D01*
X28193Y22015D02*
X30324D01*
X28193Y22035D02*
X30324D01*
X28193Y22055D02*
X30324D01*
X28193Y22075D02*
X30324D01*
X28193Y22095D02*
X30324D01*
X28193Y22115D02*
X30324D01*
X28193Y22135D02*
X30324D01*
X28193Y22155D02*
X30324D01*
X28193Y22175D02*
X30324D01*
X28193Y22195D02*
X30324D01*
X28193Y22215D02*
X30324D01*
X28193Y22235D02*
X30324D01*
X28212Y22255D02*
X30324D01*
X28235Y22275D02*
X30324D01*
X28250Y22295D02*
X30324D01*
X28250Y22435D02*
X30324D01*
X28235Y22455D02*
X30324D01*
X28211Y22475D02*
X30324D01*
X28159Y22495D02*
X30324D01*
X28261Y22315D02*
X30324D01*
X28267Y22335D02*
X30324D01*
X28270Y22355D02*
X30324D01*
X28270Y22375D02*
X30324D01*
X28267Y22395D02*
X30324D01*
X28261Y22415D02*
X30324D01*
D31*
X20148Y17997D02*
Y18155D01*
X19989D02*
X20148D01*
X20307D01*
X20148D02*
Y18314D01*
Y18505D02*
Y18663D01*
X19989D02*
X20148D01*
Y18822D01*
Y18663D02*
X20307D01*
X20656Y17997D02*
Y18155D01*
X20497D02*
X20656D01*
Y18314D01*
Y18155D02*
X20815D01*
X20656Y18505D02*
Y18663D01*
X20497D02*
X20656D01*
X20815D01*
X20656D02*
Y18822D01*
X20092Y18997D02*
Y19155D01*
X19933D02*
X20092D01*
Y19314D01*
Y19155D02*
X20251D01*
X20092Y19505D02*
Y19663D01*
X19933D02*
X20092D01*
Y19822D01*
Y19663D02*
X20251D01*
X20441Y19155D02*
X20600D01*
Y18997D02*
Y19155D01*
X20759D01*
X20600D02*
Y19314D01*
Y19505D02*
Y19663D01*
X20441D02*
X20600D01*
Y19822D01*
Y19663D02*
X20759D01*
X20666Y20309D02*
X21053D01*
Y19922D02*
Y20309D01*
Y20697D01*
Y20309D02*
X21440D01*
X20786Y21421D02*
X20926D01*
X21066D01*
X21040Y21284D02*
X21180D01*
X21320D01*
X20666Y22809D02*
X21053D01*
Y22422D02*
Y22809D01*
Y23197D01*
Y22809D02*
X21440D01*
X24132Y19388D02*
X24246D01*
Y19274D02*
Y19388D01*
Y19503D01*
Y19388D02*
X24360D01*
X25825Y19351D02*
Y19485D01*
X25691D02*
X25825D01*
X25958D01*
X27362Y19488D02*
X27495D01*
Y19354D02*
Y19488D01*
X27628D01*
X28162Y19488D02*
X28296D01*
Y19354D02*
Y19488D01*
X28429D01*
X29095Y19354D02*
Y19488D01*
X28962D02*
X29095D01*
X29228D01*
X25691Y20234D02*
X25825D01*
Y20367D01*
Y20234D02*
X25958D01*
X26146Y21707D02*
Y21895D01*
X25988D02*
X26146D01*
X26303D01*
X26146D02*
Y22083D01*
X26789Y21798D02*
Y21915D01*
X26672D02*
X26789D01*
X27010Y21632D02*
Y21765D01*
X26877D02*
X27010D01*
X27143D01*
X26877Y22514D02*
X27010D01*
X27143D01*
X27010D02*
Y22648D01*
X27362Y20237D02*
X27495D01*
X27716Y20087D02*
Y20204D01*
X27495Y20237D02*
X27628D01*
X27495D02*
Y20370D01*
X27716Y20087D02*
X27833D01*
X27777Y21765D02*
X27910D01*
Y21632D02*
Y21765D01*
X28043D01*
X28517Y20087D02*
X28633D01*
X28517D02*
Y20204D01*
X29316Y20087D02*
X29433D01*
X29316D02*
Y20204D01*
X28162Y20237D02*
X28296D01*
X28429D01*
X28296D02*
Y20370D01*
X28962Y20237D02*
X29095D01*
X29228D01*
X29095D02*
Y20370D01*
X27689Y21798D02*
Y21915D01*
X27572D02*
X27689D01*
X27777Y22514D02*
X27910D01*
X28043D01*
X27910D02*
Y22648D01*
D34*
X29156Y19191D02*
Y19064D01*
X29071Y19191D02*
X29156Y19107D01*
X29126Y19137D02*
X29071Y19064D01*
X29031Y19191D02*
X29025Y19185D01*
X29019Y19191D01*
X29025Y19197D01*
X29031Y19191D01*
X29025Y19149D02*
Y19064D01*
X28996Y19149D02*
X28972Y19064D01*
X28948Y19149D02*
X28972Y19064D01*
X28948Y19149D02*
X28924Y19064D01*
X28900Y19149D02*
X28924Y19064D01*
X28858Y19191D02*
X28852Y19185D01*
X28846Y19191D01*
X28852Y19197D01*
X28858Y19191D01*
X28852Y19149D02*
Y19064D01*
X28739Y19173D02*
X28751Y19185D01*
X28769Y19191D01*
X28793D01*
X28811Y19185D01*
X28824Y19173D01*
Y19161D01*
X28818Y19149D01*
X28811Y19143D01*
X28799Y19137D01*
X28763Y19125D01*
X28751Y19119D01*
X28745Y19113D01*
X28739Y19101D01*
Y19083D01*
X28751Y19070D01*
X28769Y19064D01*
X28793D01*
X28811Y19070D01*
X28824Y19083D01*
X28614Y19064D02*
X28662Y19191D01*
X28710Y19064D01*
X28692Y19107D02*
X28632D01*
X28542Y19191D02*
Y19064D01*
X28584Y19191D02*
X28499D01*
X28385D02*
X28336Y19064D01*
X28288Y19191D02*
X28336Y19064D01*
X28272Y19191D02*
Y19064D01*
X28187Y19191D02*
Y19064D01*
X28272Y19131D02*
X28187D01*
X28152Y19191D02*
Y19064D01*
Y19191D02*
X28073D01*
X28152Y19131D02*
X28103D01*
X27917Y19191D02*
Y19064D01*
X27959Y19191D02*
X27874D01*
X27859D02*
X27775Y19064D01*
Y19191D02*
X27859Y19064D01*
X27646Y19191D02*
Y19064D01*
Y19191D02*
X27592D01*
X27574Y19185D01*
X27568Y19179D01*
X27562Y19167D01*
Y19155D01*
X27568Y19143D01*
X27574Y19137D01*
X27592Y19131D01*
X27646D01*
X27604D02*
X27562Y19064D01*
X27533Y19113D02*
X27461D01*
Y19125D01*
X27467Y19137D01*
X27473Y19143D01*
X27485Y19149D01*
X27503D01*
X27515Y19143D01*
X27527Y19131D01*
X27533Y19113D01*
Y19101D01*
X27527Y19083D01*
X27515Y19070D01*
X27503Y19064D01*
X27485D01*
X27473Y19070D01*
X27461Y19083D01*
X27433Y19149D02*
X27397Y19064D01*
X27361Y19149D02*
X27397Y19064D01*
X27241Y19191D02*
Y19064D01*
Y19191D02*
X27162D01*
X27241Y19131D02*
X27192D01*
D35*
X28046Y23109D02*
D03*
X30018Y20834D02*
D03*
X28046D02*
D03*
X26046D02*
D03*
X24046D02*
D03*
Y23109D02*
D03*
X26046D02*
D03*
D36*
X20656Y18663D02*
D03*
X20148Y18155D02*
D03*
Y18663D02*
D03*
X20656Y18155D02*
D03*
X20092Y19155D02*
D03*
Y19663D02*
D03*
X20600D02*
D03*
Y19155D02*
D03*
X20402Y18409D02*
D03*
X20346Y19409D02*
D03*
D37*
X30018Y17909D02*
D03*
X21246D02*
D03*
X30018Y23109D02*
D03*
X25675Y17909D02*
D03*
D38*
X25046Y22106D02*
D03*
Y21684D02*
D03*
D39*
X22850Y19941D02*
D03*
X23304Y19215D02*
D03*
X20984Y19411D02*
D03*
X21344Y18807D02*
D03*
X25619Y18834D02*
D03*
X25258Y19195D02*
D03*
X21820Y18746D02*
D03*
X22424Y19107D02*
D03*
D40*
X25596Y19634D02*
D03*
X26789Y21915D02*
D03*
X27239Y22364D02*
D03*
X28867Y19637D02*
D03*
X29316Y20087D02*
D03*
X27716D02*
D03*
X27267Y19637D02*
D03*
X26046Y20084D02*
D03*
X28139Y22364D02*
D03*
X27689Y21915D02*
D03*
X28517Y20087D02*
D03*
X28067Y19637D02*
D03*
D41*
X24500Y19134D02*
D03*
X24246Y19388D02*
D03*
Y18880D02*
D03*
D42*
X22096Y22059D02*
D03*
X21696Y22159D02*
D03*
X21646Y20884D02*
D03*
X21696Y22434D02*
D03*
X21646Y20609D02*
D03*
D43*
X27010Y21765D02*
D03*
Y22514D02*
D03*
X29095Y19488D02*
D03*
Y20237D02*
D03*
X27495D02*
D03*
Y19488D02*
D03*
X25825Y20234D02*
D03*
Y19485D02*
D03*
X27910Y22514D02*
D03*
Y21765D02*
D03*
X28296Y20237D02*
D03*
Y19488D02*
D03*
D44*
X21053Y20309D02*
D03*
Y22809D02*
D03*
D45*
X20926Y21970D02*
D03*
Y21695D02*
D03*
Y21421D02*
D03*
Y21147D02*
D03*
X21180Y22107D02*
D03*
Y21832D02*
D03*
Y21558D02*
D03*
Y21284D02*
D03*
D46*
Y21009D02*
D03*
D47*
X28936Y21765D02*
D03*
X25566Y20244D02*
D03*
X25846Y18634D02*
D03*
X26036Y19015D02*
D03*
X23296Y20074D02*
D03*
X26965Y19634D02*
D03*
X26546Y19015D02*
D03*
X28546Y23104D02*
D03*
X24546D02*
D03*
X25046D02*
D03*
X25546D02*
D03*
X26546D02*
D03*
X27046D02*
D03*
X27546D02*
D03*
X29046D02*
D03*
X29546D02*
D03*
X21546Y23104D02*
D03*
X22996Y21659D02*
D03*
X22456Y21424D02*
D03*
X21871Y21059D02*
D03*
X26526Y19681D02*
D03*
X24965Y20104D02*
D03*
X22285Y20184D02*
D03*
X23992Y19134D02*
D03*
X27966Y20267D02*
D03*
X25040Y21890D02*
D03*
X20271Y21684D02*
D03*
X29142Y18449D02*
D03*
X20546Y22259D02*
D03*
X20346Y20059D02*
D03*
X22171Y18544D02*
D03*
X21966Y19514D02*
D03*
X27036Y21484D02*
D03*
X26415Y20304D02*
D03*
X24329Y20278D02*
D03*
X23593Y20811D02*
D03*
X27644Y18449D02*
D03*
X24850Y22233D02*
D03*
X24171Y18544D02*
D03*
X22636Y20115D02*
D03*
X23716Y20204D02*
D03*
X29447Y19312D02*
D03*
X26074Y21474D02*
D03*
X29489Y22314D02*
D03*
X26539Y21764D02*
D03*
X25650Y21205D02*
D03*
X26641Y18449D02*
D03*
X28239Y21514D02*
D03*
X22272Y19604D02*
D03*
X25904Y21205D02*
D03*
X28139Y18449D02*
D03*
X28489Y21514D02*
D03*
X26145Y18449D02*
D03*
X25409Y21179D02*
D03*
X23676Y19634D02*
D03*
X26464Y22514D02*
D03*
X25261Y22301D02*
D03*
X24916Y19364D02*
D03*
X23425Y20204D02*
D03*
X27149Y18449D02*
D03*
X22371Y22534D02*
D03*
X22971Y22134D02*
D03*
X23171Y18544D02*
D03*
X24671D02*
D03*
X22671D02*
D03*
X22265Y17909D02*
D03*
X23265D02*
D03*
X24265D02*
D03*
X27146Y17915D02*
D03*
X28146D02*
D03*
X29146D02*
D03*
X24666Y19564D02*
D03*
X29447Y20354D02*
D03*
X20496Y21409D02*
D03*
X23676Y19134D02*
D03*
X20271Y21959D02*
D03*
X24977Y18893D02*
D03*
X28226Y21174D02*
D03*
X27459Y22514D02*
D03*
X26739D02*
D03*
X26106D02*
D03*
X22971Y22409D02*
D03*
X22671Y22534D02*
D03*
X23021Y21909D02*
D03*
X30014Y18829D02*
D03*
X30016Y19334D02*
D03*
Y19834D02*
D03*
Y20334D02*
D03*
X21765Y17909D02*
D03*
X22765D02*
D03*
X23765D02*
D03*
X27646Y17915D02*
D03*
X28646D02*
D03*
X22846Y21144D02*
D03*
X24278Y21357D02*
D03*
X22966Y19064D02*
D03*
X28647Y18449D02*
D03*
X26780Y20163D02*
D03*
X21597Y19134D02*
D03*
X23671Y18544D02*
D03*
X25193Y17915D02*
D03*
X29447Y18804D02*
D03*
X21671Y18544D02*
D03*
X24278Y21725D02*
D03*
X21851Y21834D02*
D03*
X30016Y21334D02*
D03*
Y21834D02*
D03*
Y22334D02*
D03*
X20396Y23084D02*
D03*
X26646Y17915D02*
D03*
X24765Y17909D02*
D03*
X26146Y17915D02*
D03*
X22646Y19454D02*
D03*
X29514Y21424D02*
D03*
X22046Y23104D02*
D03*
X22546Y23104D02*
D03*
X23046D02*
D03*
X23546D02*
D03*
X24546Y20834D02*
D03*
X25046D02*
D03*
X26546D02*
D03*
X27046D02*
D03*
X27546D02*
D03*
X29046D02*
D03*
X29546D02*
D03*
X24046Y21334D02*
D03*
Y21834D02*
D03*
X20036Y22534D02*
D03*
Y22034D02*
D03*
Y21534D02*
D03*
Y21034D02*
D03*
Y20534D02*
D03*
Y20034D02*
D03*
X25546Y20834D02*
D03*
X28466D02*
D03*
X24046Y22554D02*
D03*
Y22094D02*
D03*
X24825Y20254D02*
D03*
X26576Y20164D02*
D03*
X23566Y22054D02*
D03*
X22826Y19214D02*
D03*
X21746Y18984D02*
D03*
X20506Y18924D02*
D03*
X22676Y19064D02*
D03*
X23296Y19794D02*
D03*
X24376Y19564D02*
D03*
X24026Y20204D02*
D03*
D48*
X26146Y21895D02*
D03*
D49*
X23326Y19354D02*
Y19654D01*
X23296Y19684D02*
X23326Y19654D01*
X23226Y19684D02*
X23296D01*
X23186Y19724D02*
X23226Y19684D01*
X23186Y19724D02*
Y19924D01*
X23146Y19964D02*
X23186Y19924D01*
X22986Y19964D02*
X23146D01*
X22986Y19214D02*
X23156D01*
X22816Y19384D02*
X22986Y19214D01*
X22816Y19384D02*
Y19814D01*
X23276Y20564D02*
X28316D01*
M02*
