  0
SECTION
  2
HEADER
  9
$ACADVER
  1
AC1018
  9
$ACADMAINTVER
 70
    76
  9
$DWGCODEPAGE
  3
ANSI_1252
  9
$INSBASE
 10
0.0
 20
0.0
 30
0.0
  9
$EXTMIN
 10
0.0
 20
0.0
 30
0.0
  9
$EXTMAX
 10
840.2571641189748
 20
594.0
 30
0.0
  9
$LIMMIN
 10
0.0
 20
0.0
  9
$LIMMAX
 10
840.0
 20
594.0
  9
$ORTHOMODE
 70
     0
  9
$REGENMODE
 70
     0
  9
$FILLMODE
 70
     1
  9
$QTEXTMODE
 70
     0
  9
$MIRRTEXT
 70
     1
  9
$LTSCALE
 40
0.4
  9
$ATTMODE
 70
     1
  9
$TEXTSIZE
 40
5.0
  9
$TRACEWID
 40
1.0
  9
$TEXTSTYLE
  7
Standard
  9
$CLAYER
  8
HID
  9
$CELTYPE
  6
ByLayer
  9
$CECOLOR
 62
   256
  9
$CELTSCALE
 40
1.0
  9
$DISPSILH
 70
     0
  9
$DIMSCALE
 40
1.4
  9
$DIMASZ
 40
5.0
  9
$DIMEXO
 40
2.5
  9
$DIMDLI
 40
10.0
  9
$DIMRND
 40
0.0
  9
$DIMDLE
 40
0.0
  9
$DIMEXE
 40
2.5
  9
$DIMTP
 40
0.0
  9
$DIMTM
 40
0.0
  9
$DIMTXT
 40
3.0
  9
$DIMCEN
 40
2.000000000000001
  9
$DIMTSZ
 40
0.0
  9
$DIMTOL
 70
     0
  9
$DIMLIM
 70
     0
  9
$DIMTIH
 70
     0
  9
$DIMTOH
 70
     1
  9
$DIMSE1
 70
     0
  9
$DIMSE2
 70
     0
  9
$DIMTAD
 70
     1
  9
$DIMZIN
 70
     8
  9
$DIMBLK
  1

  9
$DIMASO
 70
     1
  9
$DIMSHO
 70
     1
  9
$DIMPOST
  1

  9
$DIMAPOST
  1

  9
$DIMALT
 70
     0
  9
$DIMALTD
 70
     3
  9
$DIMALTF
 40
0.03937007874016
  9
$DIMLFAC
 40
1.0
  9
$DIMTOFL
 70
     0
  9
$DIMTVP
 40
0.0
  9
$DIMTIX
 70
     0
  9
$DIMSOXD
 70
     0
  9
$DIMSAH
 70
     0
  9
$DIMBLK1
  1

  9
$DIMBLK2
  1

  9
$DIMSTYLE
  2
A3DIM
  9
$DIMCLRD
 70
     0
  9
$DIMCLRE
 70
     0
  9
$DIMCLRT
 70
     0
  9
$DIMTFAC
 40
1.0
  9
$DIMGAP
 40
1.5
  9
$DIMJUST
 70
     0
  9
$DIMSD1
 70
     0
  9
$DIMSD2
 70
     0
  9
$DIMTOLJ
 70
     0
  9
$DIMTZIN
 70
     8
  9
$DIMALTZ
 70
     0
  9
$DIMALTTZ
 70
     0
  9
$DIMUPT
 70
     0
  9
$DIMDEC
 70
     2
  9
$DIMTDEC
 70
     2
  9
$DIMALTU
 70
     2
  9
$DIMALTTD
 70
     3
  9
$DIMTXSTY
  7
Standard
  9
$DIMAUNIT
 70
     0
  9
$DIMADEC
 70
     2
  9
$DIMALTRND
 40
0.0
  9
$DIMAZIN
 70
     2
  9
$DIMDSEP
 70
    46
  9
$DIMATFIT
 70
     3
  9
$DIMFRAC
 70
     0
  9
$DIMLDRBLK
  1

  9
$DIMLUNIT
 70
     2
  9
$DIMLWD
 70
    -2
  9
$DIMLWE
 70
    -2
  9
$DIMTMOVE
 70
     0
  9
$LUNITS
 70
     2
  9
$LUPREC
 70
     2
  9
$SKETCHINC
 40
1.0
  9
$FILLETRAD
 40
6.0
  9
$AUNITS
 70
     0
  9
$AUPREC
 70
     1
  9
$MENU
  1
.
  9
$ELEVATION
 40
0.0
  9
$PELEVATION
 40
0.0
  9
$THICKNESS
 40
0.0
  9
$LIMCHECK
 70
     0
  9
$CHAMFERA
 40
20.0
  9
$CHAMFERB
 40
10.0
  9
$CHAMFERC
 40
20.0
  9
$CHAMFERD
 40
0.0
  9
$SKPOLY
 70
     0
  9
$TDCREATE
 40
2453545.688547280
  9
$TDUCREATE
 40
2453545.188547280
  9
$TDUPDATE
 40
2455410.749644016
  9
$TDUUPDATE
 40
2455410.249644017
  9
$TDINDWG
 40
0.9501110648
  9
$TDUSRTIMER
 40
0.9501110648
  9
$USRTIMER
 70
     1
  9
$ANGBASE
 50
0.0
  9
$ANGDIR
 70
     0
  9
$PDMODE
 70
     3
  9
$PDSIZE
 40
0.0
  9
$PLINEWID
 40
0.0
  9
$SPLFRAME
 70
     0
  9
$SPLINETYPE
 70
     6
  9
$SPLINESEGS
 70
     8
  9
$HANDSEED
  5
20CC
  9
$SURFTAB1
 70
     6
  9
$SURFTAB2
 70
     6
  9
$SURFTYPE
 70
     6
  9
$SURFU
 70
     6
  9
$SURFV
 70
     6
  9
$UCSBASE
  2

  9
$UCSNAME
  2

  9
$UCSORG
 10
0.0
 20
0.0
 30
0.0
  9
$UCSXDIR
 10
1.0
 20
0.0
 30
0.0
  9
$UCSYDIR
 10
0.0
 20
1.0
 30
0.0
  9
$UCSORTHOREF
  2

  9
$UCSORTHOVIEW
 70
     0
  9
$UCSORGTOP
 10
0.0
 20
0.0
 30
0.0
  9
$UCSORGBOTTOM
 10
0.0
 20
0.0
 30
0.0
  9
$UCSORGLEFT
 10
0.0
 20
0.0
 30
0.0
  9
$UCSORGRIGHT
 10
0.0
 20
0.0
 30
0.0
  9
$UCSORGFRONT
 10
0.0
 20
0.0
 30
0.0
  9
$UCSORGBACK
 10
0.0
 20
0.0
 30
0.0
  9
$PUCSBASE
  2

  9
$PUCSNAME
  2

  9
$PUCSORG
 10
0.0
 20
0.0
 30
0.0
  9
$PUCSXDIR
 10
1.0
 20
0.0
 30
0.0
  9
$PUCSYDIR
 10
0.0
 20
1.0
 30
0.0
  9
$PUCSORTHOREF
  2

  9
$PUCSORTHOVIEW
 70
     0
  9
$PUCSORGTOP
 10
0.0
 20
0.0
 30
0.0
  9
$PUCSORGBOTTOM
 10
0.0
 20
0.0
 30
0.0
  9
$PUCSORGLEFT
 10
0.0
 20
0.0
 30
0.0
  9
$PUCSORGRIGHT
 10
0.0
 20
0.0
 30
0.0
  9
$PUCSORGFRONT
 10
0.0
 20
0.0
 30
0.0
  9
$PUCSORGBACK
 10
0.0
 20
0.0
 30
0.0
  9
$USERI1
 70
     0
  9
$USERI2
 70
     0
  9
$USERI3
 70
     0
  9
$USERI4
 70
     0
  9
$USERI5
 70
     0
  9
$USERR1
 40
0.0
  9
$USERR2
 40
0.0
  9
$USERR3
 40
0.0
  9
$USERR4
 40
0.0
  9
$USERR5
 40
0.0
  9
$WORLDVIEW
 70
     1
  9
$SHADEDGE
 70
     3
  9
$SHADEDIF
 70
    70
  9
$TILEMODE
 70
     1
  9
$MAXACTVP
 70
    64
  9
$PINSBASE
 10
0.0
 20
0.0
 30
0.0
  9
$PLIMCHECK
 70
     0
  9
$PEXTMIN
 10
1.000000000000000E+20
 20
1.000000000000000E+20
 30
1.000000000000000E+20
  9
$PEXTMAX
 10
-1.000000000000000E+20
 20
-1.000000000000000E+20
 30
-1.000000000000000E+20
  9
$PLIMMIN
 10
0.0
 20
0.0
  9
$PLIMMAX
 10
420.0
 20
297.0
  9
$UNITMODE
 70
     0
  9
$VISRETAIN
 70
     1
  9
$PLINEGEN
 70
     0
  9
$PSLTSCALE
 70
     1
  9
$TREEDEPTH
 70
  3020
  9
$CMLSTYLE
  2
Standard
  9
$CMLJUST
 70
     0
  9
$CMLSCALE
 40
20.0
  9
$PROXYGRAPHICS
 70
     1
  9
$MEASUREMENT
 70
     1
  9
$CELWEIGHT
370
    -1
  9
$ENDCAPS
280
     0
  9
$JOINSTYLE
280
     0
  9
$LWDISPLAY
290
     0
  9
$INSUNITS
 70
     4
  9
$HYPERLINKBASE
  1

  9
$STYLESHEET
  1
monochrome.ctb
  9
$XEDIT
290
     1
  9
$CEPSNTYPE
380
     0
  9
$PSTYLEMODE
290
     1
  9
$FINGERPRINTGUID
  2
{FDEAD578-A652-11D2-9A35-0060089B3A3F}
  9
$VERSIONGUID
  2
{2EAE4524-83C2-4088-AE82-A247DBA6A303}
  9
$EXTNAMES
290
     1
  9
$PSVPSCALE
 40
0.0
  9
$OLESTARTUP
290
     0
  9
$SORTENTS
280
   127
  9
$INDEXCTL
280
     0
  9
$HIDETEXT
280
     0
  9
$XCLIPFRAME
290
     0
  9
$HALOGAP
280
     0
  9
$OBSCOLOR
 70
   257
  9
$OBSLTYPE
280
     0
  9
$INTERSECTIONDISPLAY
280
     0
  9
$INTERSECTIONCOLOR
 70
   257
  9
$DIMASSOC
280
     1
  9
$PROJECTNAME
  1

  0
ENDSEC
  0
SECTION
  2
CLASSES
  0
CLASS
  1
ACDBDICTIONARYWDFLT
  2
AcDbDictionaryWithDefault
  3
ObjectDBX Classes
 90
        0
 91
        1
280
     0
281
     0
  0
CLASS
  1
TABLESTYLE
  2
AcDbTableStyle
  3
ObjectDBX Classes
 90
     2047
 91
        1
280
     0
281
     0
  0
CLASS
  1
ACME_DOCUMENT
  2
AcMeDbDoc
  3
AcMeServices
 90
        0
 91
        2
280
     0
281
     0
  0
CLASS
  1
AMGSETTINGSOBJ
  2
AmgSettingsObj
  3
"AcadM|Product Description: AutoCAD Mechanical 2000|Company: Autodesk"
 90
        0
 91
        3
280
     0
281
     0
  0
CLASS
  1
ACMESCOPE
  2
AcMeScope
  3
AcMeServices
 90
        0
 91
        1
280
     0
281
     0
  0
CLASS
  1
ACMECOMMANDHISTORY
  2
AcMeCommandHistory
  3
AcMeServices
 90
        0
 91
        1
280
     0
281
     0
  0
CLASS
  1
ACIMSYSVARMAN
  2
AcImSysVarManager
  3
AcMeServices
 90
        0
 91
        5
280
     0
281
     0
  0
CLASS
  1
ACIMINTSYSVAR
  2
AcImIntSysVar
  3
AcMeServices
 90
        0
 91
       26
280
     0
281
     0
  0
CLASS
  1
ACMEDRAWINGMAN
  2
AcMeDrawingMan
  3
AcMeServices
 90
        0
 91
        1
280
     0
281
     0
  0
CLASS
  1
ACMEVIEW
  2
AcMeView
  3
AcMeServices
 90
        0
 91
        1
280
     0
281
     0
  0
CLASS
  1
ACDBENTITYCACHE
  2
AcMeEntityCache
  3
AcMeServices
 90
        0
 91
        1
280
     0
281
     0
  0
CLASS
  1
GSMANAGER
  2
AcMeGSManager
  3
AcMeServices
 90
        0
 91
        1
280
     0
281
     0
  0
CLASS
  1
AMDTINTERNALREACTOR
  2
AmdtInternalReactor
  3
AcMeServices
 90
        0
 91
        2
280
     0
281
     0
  0
CLASS
  1
ACMESTATEMGR
  2
AcMeStateMgr
  3
AcMeServices
 90
        0
 91
        1
280
     0
281
     0
  0
CLASS
  1
ACGREFMASTER
  2
AcGrefMaster
  3
AcAttribServices
 90
        0
 91
        1
280
     0
281
     0
  0
CLASS
  1
AM_DRAWING_MGR
  2
AcDmDwgMgr
  3
AcMechDwgViewMgmt
 90
        0
 91
        1
280
     0
281
     0
  0
CLASS
  1
AM_DWG_DOCUMENT
  2
AcDmDwgDocument
  3
AcMechDwgViewMgmt
 90
        0
 91
        1
280
     0
281
     0
  0
CLASS
  1
AM_DWG_SHEET
  2
AcDmSheet
  3
AcMechDwgViewMgmt
 90
        0
 91
        2
280
     0
281
     0
  0
CLASS
  1
AM_VIEWDIMPARMAP
  2
AcDmViewDimParMap
  3
AcMechDwgViewMgmt
 90
        0
 91
        2
280
     0
281
     0
  0
CLASS
  1
ACIMREALSYSVAR
  2
AcImRealSysVar
  3
AcMeServices
 90
        0
 91
        1
280
     0
281
     0
  0
CLASS
  1
AM_DWGMGR_NAME
  2
AcDmDwgMgrName
  3
AcMechDwgViewMgmt
 90
        0
 91
        1
280
     0
281
     0
  0
CLASS
  1
ACME_DATABASE
  2
AcMeDbDatabase
  3
AcMeServices
 90
        0
 91
        1
280
     0
281
     0
  0
CLASS
  1
ACRFINSADJUSTERMGR
  2
AcRfInsAdjusterMgr
  3
AcMeServices
 90
        0
 91
        1
280
     0
281
     0
  0
CLASS
  1
ACGREFACADMASTER
  2
AcGrefacadMaster
  3
AcGrefServices
 90
        0
 91
        1
280
     0
281
     0
  0
CLASS
  1
AMDTMENUSTATEMGR
  2
AmdtMenuStateMgr
  3
McadcomServices
 90
        0
 91
        1
280
     0
281
     0
  0
CLASS
  1
AMDTMCOMMENUSTATE
  2
AmdtMcomMenuState
  3
McadcomServices
 90
        0
 91
        1
280
     0
281
     0
  0
CLASS
  1
AMIMASTER
  2
AmiMaster
  3
AmiServices
 90
        0
 91
        1
280
     0
281
     0
  0
CLASS
  1
MAPIAMMOUDLE
  2
MApiAmModule
  3
MApiAmServices
 90
        0
 91
        1
280
     0
281
     0
  0
CLASS
  1
ACIMSTRSYSVAR
  2
AcImStrSysVar
  3
AcMeServices
 90
        0
 91
        5
280
     0
281
     0
  0
CLASS
  1
AMDTADMENUSTATE
  2
AmdtAdMenuState
  3
DesignerServices
 90
        0
 91
        1
280
     0
281
     0
  0
CLASS
  1
ADAPPL
  2
AcAdAppl
  3
DesignerServices
 90
        0
 91
        1
280
     0
281
     0
  0
CLASS
  1
DEPMGR
  2
AcAdDepMgr
  3
DesignerServices
 90
        0
 91
        1
280
     0
281
     0
  0
CLASS
  1
PARAMMGR
  2
AcAdParamMgr
  3
DesignerServices
 90
        0
 91
        1
280
     0
281
     0
  0
CLASS
  1
PARAMSCOPE
  2
AcAdParamScope
  3
DesignerServices
 90
        0
 91
        1
280
     0
281
     0
  0
CLASS
  1
NAMEDAPPL
  2
AcAdNamedAppl
  3
DesignerServices
 90
        0
 91
        1
280
     0
281
     0
  0
CLASS
  1
AMDTDMMENUSTATE
  2
AmdtDmMenuState
  3
AcMechDwgViewMgmt
 90
        0
 91
        1
280
     0
281
     0
  0
CLASS
  1
AMDTAMMENUSTATE
  2
AmdtAmMenuState
  3
DesignerAssemblies
 90
        0
 91
        1
280
     0
281
     0
  0
CLASS
  1
ACAMPROJECT
  2
AcAmProject
  3
DesignerAssemblies
 90
        0
 91
        1
280
     0
281
     0
  0
CLASS
  1
ACAMGRCOMPDEF
  2
AcAmGrCompDef
  3
DesignerAssemblies
 90
        0
 91
        1
280
     0
281
     0
  0
CLASS
  1
ACCMCONTEXT
  2
AcCmContext
  3
DesignerAssemblies
 90
        0
 91
        1
280
     0
281
     0
  0
CLASS
  1
ACAMCOMPDEF
  2
AcAmCompDef
  3
DesignerAssemblies
 90
        0
 91
        1
280
     0
281
     0
  0
CLASS
  1
ACAMCOMPDEFMGR
  2
AcAmCompDefMgr
  3
DesignerAssemblies
 90
        0
 91
        1
280
     0
281
     0
  0
CLASS
  1
AMCONTEXTMGR
  2
AcAmContextMgr
  3
DesignerAssemblies
 90
        0
 91
        1
280
     0
281
     0
  0
CLASS
  1
ACAMCONTEXTMODELER
  2
AcAmContextModeler
  3
DesignerAssemblies
 90
        0
 91
        1
280
     0
281
     0
  0
CLASS
  1
ACMDATADICTIONARY
  2
AcmDataDictionary
  3
"AcmSymBB|Product Description: AutoCAD Mechanical 2004 DX|Company: Autodesk"
 90
        0
 91
        1
280
     0
281
     0
  0
CLASS
  1
CATALOGSTATE
  2
AcAmCatalogState
  3
DesignerAssemblies
 90
        0
 91
        1
280
     0
281
     0
  0
CLASS
  1
ACAMGRCOMPDEFSET
  2
AcAmGrCompDefSet
  3
DesignerAssemblies
 90
        0
 91
        1
280
     0
281
     0
  0
CLASS
  1
AMDTBROWSERDBTAB
  2
AmdtBrowserDbTab
  3
McadcomServices
 90
        0
 91
        1
280
     0
281
     0
  0
CLASS
  1
CBROWSERAPPOBJECT
  2
CBrowserAppObject
  3
McadcomServices
 90
        0
 91
        3
280
     0
281
     0
  0
CLASS
  1
DM_PLACEHOLDER
  2
AcDmSelsetPlaceholder
  3
AcMechDwgViewMgmt
 90
        0
 91
        1
280
     0
281
     0
  0
CLASS
  1
ACMSTANDARDISO
  2
AcmStandardISO
  3
"Amdt_StdImp|Product Description: AutoCAD Mechanical 2004 DX|Company: Autodesk"
 90
        0
 91
        1
280
     0
281
     0
  0
CLASS
  1
AMGOBJPROPCFG
  2
AmgObjPropCfg
  3
"AmgLay|Product Description: AutoCAD Mechanical 2000|Company: Autodesk"
 90
        1
 91
        1
280
     0
281
     0
  0
CLASS
  1
AMDTEDGESTANDARDISO13715
  2
AmdtEdgeStdISO13715
  3
"Amdt_StdImp|Product Description: AutoCAD Mechanical 2004 DX|Company: Autodesk"
 90
        0
 91
        1
280
     0
281
     0
  0
CLASS
  1
ACMSURFSTANDARDISO
  2
AcmSurfTextStdISO
  3
"Amdt_StdImp|Product Description: AutoCAD Mechanical 2004 DX|Company: Autodesk"
 90
        0
 91
        1
280
     0
281
     0
  0
CLASS
  1
ACMFCFSTANDARDISO
  2
AcmFCFStdISO
  3
"Amdt_StdImp|Product Description: AutoCAD Mechanical 2004 DX|Company: Autodesk"
 90
        0
 91
        1
280
     0
281
     0
  0
CLASS
  1
ACMWELDSTANDARDISO
  2
AcmWeldingStdISO
  3
"Amdt_StdImp|Product Description: AutoCAD Mechanical 2004 DX|Company: Autodesk"
 90
        0
 91
        1
280
     0
281
     0
  0
CLASS
  1
ACMIDSTANDARDISO
  2
AcmIdStdISO
  3
"Amdt_StdImp|Product Description: AutoCAD Mechanical 2004 DX|Company: Autodesk"
 90
        0
 91
        1
280
     0
281
     0
  0
CLASS
  1
ACMDATUMSTANDARDISO
  2
AcmDatumStdISO
  3
"Amdt_StdImp|Product Description: AutoCAD Mechanical 2004 DX|Company: Autodesk"
 90
        0
 91
        1
280
     0
281
     0
  0
CLASS
  1
ACMBOMSTANDARDISO
  2
AcmBOMStdISO
  3
"Amdt_StdImp|Product Description: AutoCAD Mechanical 2004 DX|Company: Autodesk"
 90
        0
 91
        1
280
     0
281
     0
  0
CLASS
  1
ACMDETAILSTANDARDISO
  2
AmdtDetailSymStdISO
  3
"Amdt_StdImp|Product Description: AutoCAD Mechanical 2004 DX|Company: Autodesk"
 90
        0
 91
        1
280
     0
281
     0
  0
CLASS
  1
ACMSECTIONSTANDARDISO
  2
AmdtSectionSymStdISO
  3
"Amdt_StdImp|Product Description: AutoCAD Mechanical 2004 DX|Company: Autodesk"
 90
        0
 91
        1
280
     0
281
     0
  0
CLASS
  1
ACMCENTERLINESTANDARDISO
  2
AmdtCenterLineStdISO
  3
"Amdt_StdImp|Product Description: AutoCAD Mechanical 2004 DX|Company: Autodesk"
 90
        0
 91
        1
280
     0
281
     0
  0
CLASS
  1
ACMTHREADLINESTANDARDISO
  2
AmdtThreadLineStdISO
  3
"Amdt_StdImp|Product Description: AutoCAD Mechanical 2004 DX|Company: Autodesk"
 90
        0
 91
        1
280
     0
281
     0
  0
CLASS
  1
ACMNOTESTANDARDISO
  2
AmdtNoteStdISO
  3
"Amdt_StdImp|Product Description: AutoCAD Mechanical 2004 DX|Company: Autodesk"
 90
        0
 91
        1
280
     0
281
     0
  0
CLASS
  1
AMDTNOTETEMPLATEDB
  2
AmdtNoteTemplateDB
  3
AMDT_STDIMP_MODULE_NAME
 90
        0
 91
        6
280
     0
281
     0
  0
CLASS
  1
ACAMGLAYSTD
  2
AcAmgLayStd
  3
"AcAmgLayStd|Product Description: AutoCAD Mechanical 2000|Company: Autodesk"
 90
        0
 91
        1
280
     0
281
     0
  0
CLASS
  1
ACAMGDIMSTD
  2
AcAmgDimStd
  3
"AcAmgDimStd|Product Description: AutoCAD Mechanical 2000|Company: Autodesk"
 90
        0
 91
        1
280
     0
281
     0
  0
CLASS
  1
ACAMGHOLECHARTSTDISO
  2
AcAmgHoleChartStdISO
  3
ACMSYMBB_MODULE_NAME
 90
        0
 91
        1
280
     0
281
     0
  0
CLASS
  1
ACAMGTITLESTD
  2
AcAmgTitleStd
  3
"TITLEAPP"
 90
        0
 91
        1
280
     0
281
     0
  0
CLASS
  1
ACAMGFILTERDAT
  2
AcAmgFilterDat
  3
"AcadM|Product Description: AutoCAD Mechanical 2000|Company: Autodesk"
 90
        0
 91
        6
280
     0
281
     0
  0
CLASS
  1
DICTIONARYVAR
  2
AcDbDictionaryVar
  3
ObjectDBX Classes
 90
        0
 91
        1
280
     0
281
     0
  0
CLASS
  1
SORTENTSTABLE
  2
AcDbSortentsTable
  3
ObjectDBX Classes
 90
        0
 91
        1
280
     0
281
     0
  0
CLASS
  1
ACMDATAENTRYBLOCK
  2
AcmDataEntryBlock
  3
"AcmSymBB|Product Description: AutoCAD Mechanical 2004 DX|Company: Autodesk"
 90
        0
 91
        0
280
     0
281
     0
  0
ENDSEC
  0
SECTION
  2
TABLES
  0
TABLE
  2
VPORT
  5
8
330
0
100
AcDbSymbolTable
 70
     3
  0
VPORT
  5
20CB
330
8
100
AcDbSymbolTableRecord
100
AcDbViewportTableRecord
  2
*Active
 70
     0
 10
0.0
 20
0.0
 11
1.0
 21
1.0
 12
420.128585972359
 22
297.0000027661125
 13
0.0
 23
0.0
 14
5.0
 24
5.0
 15
10.0
 25
10.0
 16
0.0
 26
0.0
 36
1.0
 17
0.0
 27
0.0
 37
0.0
 40
598.5959067397896
 41
1.532401524777636
 42
50.0
 43
0.0
 44
0.0
 50
0.0
 51
0.0
 71
     0
 72
  1000
 73
     1
 74
     3
 75
     0
 76
     0
 77
     0
 78
     0
281
     0
 65
     1
110
0.0
120
0.0
130
0.0
111
1.0
121
0.0
131
0.0
112
0.0
122
1.0
132
0.0
 79
     0
146
0.0
  0
ENDTAB
  0
TABLE
  2
LTYPE
  5
5
330
0
100
AcDbSymbolTable
 70
    15
  0
LTYPE
  5
14
330
5
100
AcDbSymbolTableRecord
100
AcDbLinetypeTableRecord
  2
ByBlock
 70
     0
  3

 72
    65
 73
     0
 40
0.0
  0
LTYPE
  5
15
330
5
100
AcDbSymbolTableRecord
100
AcDbLinetypeTableRecord
  2
ByLayer
 70
     0
  3

 72
    65
 73
     0
 40
0.0
  0
LTYPE
  5
16
330
5
100
AcDbSymbolTableRecord
100
AcDbLinetypeTableRecord
  2
Continuous
 70
     0
  3
Solid line
 72
    65
 73
     0
 40
0.0
  0
LTYPE
  5
4B
330
5
100
AcDbSymbolTableRecord
100
AcDbLinetypeTableRecord
  2
CENTER
 70
     0
  3
Center ____ _ ____ _ ____ _ ____ _ ____ _ ____
 72
    65
 73
     4
 40
50.8
 49
31.75
 74
     0
 49
-6.349999999999999
 74
     0
 49
6.349999999999999
 74
     0
 49
-6.349999999999999
 74
     0
  0
LTYPE
  5
4C
330
5
100
AcDbSymbolTableRecord
100
AcDbLinetypeTableRecord
  2
HIDDEN
 70
     0
  3
Hidden __ __ __ __ __ __ __ __ __ __ __ __ __ _
 72
    65
 73
     2
 40
9.524999999999998
 49
6.349999999999999
 74
     0
 49
-3.174999999999999
 74
     0
  0
LTYPE
  5
BD4
330
5
100
AcDbSymbolTableRecord
100
AcDbLinetypeTableRecord
  2
HIDDEN2
 70
     0
  3
Hidden (.5x) _ _ _ _ _ _ _ _ _ _ _ _ _ _ _ _ _
 72
    65
 73
     2
 40
4.762499999999999
 49
3.174999999999999
 74
     0
 49
-1.587499999999999
 74
     0
  0
LTYPE
  5
13A4
330
5
100
AcDbSymbolTableRecord
100
AcDbLinetypeTableRecord
  2
PHANTOM2
 70
     0
  3
Phantom (.5x) ___ _ _ ___ _ _ ___ _ _ ___ _ _
 72
    65
 73
     6
 40
31.75
 49
15.875
 74
     0
 49
-3.174999999999999
 74
     0
 49
3.174999999999999
 74
     0
 49
-3.174999999999999
 74
     0
 49
3.174999999999999
 74
     0
 49
-3.174999999999999
 74
     0
  0
LTYPE
  5
13D8
330
5
100
AcDbSymbolTableRecord
100
AcDbLinetypeTableRecord
  2
AM_ISO02W050
 70
     0
  3
__ __ __ __ __ __ __ __ __ __ __ __ __ __ __
 72
    65
 73
     2
 40
7.5
 49
6.0
 74
     0
 49
-1.5
 74
     0
  0
LTYPE
  5
13D9
330
5
100
AcDbSymbolTableRecord
100
AcDbLinetypeTableRecord
  2
AM_ISO08W050
 70
     0
  3
____ . ____ . ____ . ____ . ____ . ____ . ____
 72
    65
 73
     4
 40
18.0
 49
12.0
 74
     0
 49
-1.5
 74
     0
 49
3.0
 74
     0
 49
-1.5
 74
     0
  0
LTYPE
  5
13DA
330
5
100
AcDbSymbolTableRecord
100
AcDbLinetypeTableRecord
  2
AM_ISO09W050
 70
     0
  3
_____ . . _____ . . _____ . . ____ .. ____
 72
    65
 73
     6
 40
22.5
 49
12.0
 74
     0
 49
-1.5
 74
     0
 49
3.0
 74
     0
 49
-1.5
 74
     0
 49
3.0
 74
     0
 49
-1.5
 74
     0
  0
LTYPE
  5
13DB
330
5
100
AcDbSymbolTableRecord
100
AcDbLinetypeTableRecord
  2
Amconstr
 70
     0
  3
_______________________
 72
    65
 73
     2
 40
9999.0
 49
9999.0
 74
     0
 49
0.0
 74
     0
  0
LTYPE
  5
13DC
330
5
100
AcDbSymbolTableRecord
100
AcDbLinetypeTableRecord
  2
AM_ISO08W050x2
 70
     0
  3
__ . __ . __ . __ . __ . __
 72
    65
 73
     4
 40
9.0
 49
6.0
 74
     0
 49
-0.75
 74
     0
 49
1.5
 74
     0
 49
-0.75
 74
     0
  0
LTYPE
  5
13DD
330
5
100
AcDbSymbolTableRecord
100
AcDbLinetypeTableRecord
  2
AM_ISO02W050x2
 70
     0
  3
 _ _ _ _ _ _ _ _ _ _ _ _
 72
    65
 73
     2
 40
3.75
 49
3.0
 74
     0
 49
-0.75
 74
     0
  0
LTYPE
  5
13E0
330
5
100
AcDbSymbolTableRecord
100
AcDbLinetypeTableRecord
  2
Amzigzag
 70
     0
  3
/\/-/\/-/\/-/\/-/\/-/\/
 72
    65
 73
     2
 40
11.0001
 49
0.0001
 74
     4
 75
   136
340
13DF
 46
0.04
 50
0.0
 44
0.0
 45
0.0
 49
-11.0
 74
     0
  0
LTYPE
  5
13EF
330
5
100
AcDbSymbolTableRecord
100
AcDbLinetypeTableRecord
  2
ACISOWELD
 70
     0
  3
_ _ _ _ _
 72
    65
 73
     2
 40
2.0
 49
2.0
 74
     0
 49
-1.0
 74
     0
  0
LTYPE
  5
13F0
330
5
100
AcDbSymbolTableRecord
100
AcDbLinetypeTableRecord
  2
ACISOTGB
 70
     0
  3
__ . . __ . .
 72
    65
 73
     6
 40
9.0
 49
4.0
 74
     0
 49
-1.0
 74
     0
 49
1.0
 74
     0
 49
-1.0
 74
     0
 49
1.0
 74
     0
 49
-1.0
 74
     0
  0
LTYPE
  5
13F1
330
5
100
AcDbSymbolTableRecord
100
AcDbLinetypeTableRecord
  2
ACISOTGL
 70
     0
  3
_ _ _ _ _
 72
    65
 73
     2
 40
3.0
 49
2.0
 74
     0
 49
-1.0
 74
     0
  0
ENDTAB
  0
TABLE
  2
LAYER
  5
2
102
{ACAD_XDICTIONARY
360
17EE
102
}
330
0
100
AcDbSymbolTable
 70
    11
  0
LAYER
  5
10
330
2
100
AcDbSymbolTableRecord
100
AcDbLayerTableRecord
  2
0
 70
     0
 62
     7
  6
Continuous
370
    -3
390
F
  0
LAYER
  5
4D
330
2
100
AcDbSymbolTableRecord
100
AcDbLayerTableRecord
  2
OUT
 70
     0
 62
     1
  6
Continuous
370
    -3
390
F
  0
LAYER
  5
4E
330
2
100
AcDbSymbolTableRecord
100
AcDbLayerTableRecord
  2
CL
 70
     0
 62
     3
  6
CENTER
370
    -3
390
F
  0
LAYER
  5
4F
330
2
100
AcDbSymbolTableRecord
100
AcDbLayerTableRecord
  2
HID
 70
     0
 62
     2
  6
HIDDEN
370
    -3
390
F
  0
LAYER
  5
50
330
2
100
AcDbSymbolTableRecord
100
AcDbLayerTableRecord
  2
DIMS
 70
     0
 62
     6
  6
Continuous
370
    -3
390
F
  0
LAYER
  5
51
330
2
100
AcDbSymbolTableRecord
100
AcDbLayerTableRecord
  2
TEXT
 70
     0
 62
     5
  6
Continuous
370
    -3
390
F
  0
LAYER
  5
52
330
2
100
AcDbSymbolTableRecord
100
AcDbLayerTableRecord
  2
SECT
 70
     0
 62
     4
  6
Continuous
370
    -3
390
F
  0
LAYER
  5
53
330
2
100
AcDbSymbolTableRecord
100
AcDbLayerTableRecord
  2
CONS
 70
     0
 62
   220
  6
Continuous
370
    -3
390
F
  0
LAYER
  5
7D
330
2
100
AcDbSymbolTableRecord
100
AcDbLayerTableRecord
  2
Defpoints
 70
     0
 62
     7
  6
Continuous
290
     0
370
    -3
390
F
  0
LAYER
  5
377
330
2
100
AcDbSymbolTableRecord
100
AcDbLayerTableRecord
  2
BORDER
 70
     0
 62
     7
  6
Continuous
370
    -3
390
F
  0
LAYER
  5
195B
330
2
100
AcDbSymbolTableRecord
100
AcDbLayerTableRecord
  2
AM_5
 70
     0
 62
     3
  6
Continuous
370
    25
390
F
1001
AcAecLayerStandard
1000

1000

  0
ENDTAB
  0
TABLE
  2
STYLE
  5
3
330
0
100
AcDbSymbolTable
 70
     7
  0
STYLE
  5
11
330
3
100
AcDbSymbolTableRecord
100
AcDbTextStyleTableRecord
  2
Standard
 70
     0
 40
0.0
 41
1.0
 50
0.0
 71
     0
 42
5.0
  3
txt
  4

  0
STYLE
  5
4A
330
3
100
AcDbSymbolTableRecord
100
AcDbTextStyleTableRecord
  2

 70
     1
 40
0.0
 41
1.0
 50
0.0
 71
     0
 42
2.5
  3
ltypeshp.shx
  4

  0
STYLE
  5
378
330
3
100
AcDbSymbolTableRecord
100
AcDbTextStyleTableRecord
  2
SIMPLEX
 70
     0
 40
0.06
 41
1.0
 50
0.0
 71
     0
 42
0.05
  3
simplex
  4

  0
STYLE
  5
379
330
3
100
AcDbSymbolTableRecord
100
AcDbTextStyleTableRecord
  2
COMPLEX
 70
     0
 40
8.0
 41
1.5
 50
0.0
 71
     0
 42
8.0
  3
complex
  4

  0
STYLE
  5
13DF
330
3
100
AcDbSymbolTableRecord
100
AcDbTextStyleTableRecord
  2

 70
     1
 40
0.0
 41
1.0
 50
0.0
 71
     0
 42
5.0
  3
genltshp.shx
  4

  0
STYLE
  5
13E1
330
3
100
AcDbSymbolTableRecord
100
AcDbTextStyleTableRecord
  2
ACISOTS
 70
     0
 40
1.0
 41
1.0
 50
0.0
 71
     0
 42
5.0
  3
isocp.shx
  4

  0
STYLE
  5
13EE
330
3
100
AcDbSymbolTableRecord
100
AcDbTextStyleTableRecord
  2
ACISOGDT
 70
     0
 40
0.0
 41
1.0
 50
0.0
 71
     0
 42
5.0
  3
AMGDT
  4

  0
ENDTAB
  0
TABLE
  2
VIEW
  5
6
330
0
100
AcDbSymbolTable
 70
     0
  0
ENDTAB
  0
TABLE
  2
UCS
  5
7
330
0
100
AcDbSymbolTable
 70
     0
  0
ENDTAB
  0
TABLE
  2
APPID
  5
9
330
0
100
AcDbSymbolTable
 70
    17
  0
APPID
  5
12
330
9
100
AcDbSymbolTableRecord
100
AcDbRegAppTableRecord
  2
ACAD
 70
     0
  0
APPID
  5
1375
330
9
100
AcDbSymbolTableRecord
100
AcDbRegAppTableRecord
  2
MCAD_NO_VIS
 70
     0
  0
APPID
  5
1376
330
9
100
AcDbSymbolTableRecord
100
AcDbRegAppTableRecord
  2
ACAD_TEMP_GRAPHIC
 70
     0
  0
APPID
  5
13A6
330
9
100
AcDbSymbolTableRecord
100
AcDbRegAppTableRecord
  2
AD_DRAW
 70
     0
  0
APPID
  5
13A9
330
9
100
AcDbSymbolTableRecord
100
AcDbRegAppTableRecord
  2
ACATTRIBSERVICES
 70
     0
  0
APPID
  5
13C9
330
9
100
AcDbSymbolTableRecord
100
AcDbRegAppTableRecord
  2
DESIGNERASSEMBLIES
 70
     0
  0
APPID
  5
13CF
330
9
100
AcDbSymbolTableRecord
100
AcDbRegAppTableRecord
  2
ACADM_DIM_EDIT
 70
     0
  0
APPID
  5
13D0
330
9
100
AcDbSymbolTableRecord
100
AcDbRegAppTableRecord
  2
AMDT_DM_ADJ
 70
     0
  0
APPID
  5
13FD
330
9
100
AcDbSymbolTableRecord
100
AcDbRegAppTableRecord
  2
ACAD_DSTYLE_DIMARC_LENGTH_SYMBOL
 70
     0
  0
APPID
  5
13FE
330
9
100
AcDbSymbolTableRecord
100
AcDbRegAppTableRecord
  2
ACAD_DSTYLE_DIMJOGGED_JOGANGLE_SYMBOL
 70
     0
  0
APPID
  5
144F
330
9
100
AcDbSymbolTableRecord
100
AcDbRegAppTableRecord
  2
GENIUS_GENOBJ-N-FIL_13
 70
     0
  0
APPID
  5
1450
330
9
100
AcDbSymbolTableRecord
100
AcDbRegAppTableRecord
  2
GENIUS_GENODEF_13
 70
     0
  0
APPID
  5
1649
330
9
100
AcDbSymbolTableRecord
100
AcDbRegAppTableRecord
  2
GENIUS_GENREC_14
 70
     0
  0
APPID
  5
164A
330
9
100
AcDbSymbolTableRecord
100
AcDbRegAppTableRecord
  2
GENIUS_GENOBJ-N-REC_13
 70
     0
  0
APPID
  5
16FA
330
9
100
AcDbSymbolTableRecord
100
AcDbRegAppTableRecord
  2
ACAD_EXEMPT_FROM_CAD_STANDARDS
 70
     0
  0
APPID
  5
17ED
330
9
100
AcDbSymbolTableRecord
100
AcDbRegAppTableRecord
  2
ACAD_PSEXT
 70
     0
  0
APPID
  5
195C
330
9
100
AcDbSymbolTableRecord
100
AcDbRegAppTableRecord
  2
AcAecLayerStandard
 70
     0
  0
ENDTAB
  0
TABLE
  2
DIMSTYLE
  5
A
330
0
100
AcDbSymbolTable
 70
    12
100
AcDbDimStyleTable
 71
     2
340
7B
340
27
  0
DIMSTYLE
105
27
330
A
100
AcDbSymbolTableRecord
100
AcDbDimStyleTableRecord
  2
ISO-25
 70
     0
 41
2.5
 42
0.625
 43
3.75
 44
1.25
 73
     0
 74
     0
 77
     1
 78
     8
140
2.5
141
2.5
143
0.03937007874016
147
0.625
171
     3
172
     1
271
     2
272
     2
274
     3
278
    44
283
     0
284
     8
340
11
  0
DIMSTYLE
105
7B
330
A
100
AcDbSymbolTableRecord
100
AcDbDimStyleTableRecord
  2
A3DIM
 70
     0
 40
1.4
 41
5.0
 42
2.5
 43
10.0
 44
2.5
 73
     0
 77
     1
 78
     8
 79
     2
140
3.0
141
2.000000000000001
143
0.03937007874016
147
1.5
171
     3
179
     2
271
     2
272
     2
274
     3
283
     0
284
     8
340
11
  0
DIMSTYLE
105
37A
330
A
100
AcDbSymbolTableRecord
100
AcDbDimStyleTableRecord
  2
STDIMP
 70
     0
 41
0.175
 42
0.175
 43
0.75
 44
0.175
 73
     0
 74
     0
 77
     1
 78
     8
 79
     3
141
0.0
143
0.03937007874016
147
0.08
171
     3
179
     2
271
     2
272
     2
274
     3
277
     3
283
     0
284
     8
340
11
  0
DIMSTYLE
105
13FC
330
A
100
AcDbSymbolTableRecord
100
AcDbDimStyleTableRecord
  2
AM_ISO
 70
     0
  4
"
 41
2.5
 42
1.0
 43
10.0
 44
1.0
 47
0.1
 48
0.1
 73
     0
 74
     0
 77
     1
 78
     8
 79
     2
140
3.5
141
0.0
143
0.0393701
146
0.71
147
1.5
172
     1
176
   256
177
   256
178
     2
271
     2
272
     3
274
     4
283
     0
284
     8
340
11
371
    -1
372
    -1
1001
ACAD_DSTYLE_DIMARC_LENGTH_SYMBOL
1070
   379
1070
     1
1001
ACAD_DSTYLE_DIMJOGGED_JOGANGLE_SYMBOL
1070
   384
1040
0.7853981633974483
  0
DIMSTYLE
105
1405
330
A
100
AcDbSymbolTableRecord
100
AcDbDimStyleTableRecord
  2
AM_ISO$3
 70
     0
  4
"
 41
2.5
 42
1.0
 43
10.0
 44
1.0
 47
0.1
 48
0.1
 73
     0
 77
     1
 78
     8
 79
     2
140
3.5
141
0.0
143
0.0393701
146
0.71
147
1.5
176
   256
177
   256
178
     2
271
     2
272
     3
274
     4
283
     0
284
     8
288
     1
289
     0
340
11
371
    -1
372
    -1
1001
ACAD_DSTYLE_DIMARC_LENGTH_SYMBOL
1070
   379
1070
     1
1001
ACAD_DSTYLE_DIMJOGGED_JOGANGLE_SYMBOL
1070
   384
1040
0.7853981633974483
  0
DIMSTYLE
105
1408
330
A
100
AcDbSymbolTableRecord
100
AcDbDimStyleTableRecord
  2
AM_ISO$4
 70
     0
  4
"
 41
2.5
 42
1.0
 43
10.0
 44
1.0
 47
0.1
 48
0.1
 73
     0
 77
     1
 78
     8
 79
     2
140
3.5
141
0.0
143
0.0393701
146
0.71
147
1.5
176
   256
177
   256
178
     2
271
     2
272
     3
274
     4
283
     0
284
     8
288
     1
289
     0
340
11
371
    -1
372
    -1
1001
ACAD_DSTYLE_DIMARC_LENGTH_SYMBOL
1070
   379
1070
     1
1001
ACAD_DSTYLE_DIMJOGGED_JOGANGLE_SYMBOL
1070
   384
1040
0.7853981633974483
  0
DIMSTYLE
105
140B
330
A
100
AcDbSymbolTableRecord
100
AcDbDimStyleTableRecord
  2
AM_ISO$6
 70
     0
  4
"
 41
2.5
 42
1.0
 43
10.0
 44
1.0
 47
0.1
 48
0.1
 73
     0
 74
     0
 78
     8
 79
     2
140
3.5
141
0.0
143
0.0393701
146
0.71
147
1.5
172
     1
176
   256
177
   256
178
     2
271
     2
272
     3
274
     4
283
     0
284
     8
340
11
371
    -1
372
    -1
1001
ACAD_DSTYLE_DIMARC_LENGTH_SYMBOL
1070
   379
1070
     1
1001
ACAD_DSTYLE_DIMJOGGED_JOGANGLE_SYMBOL
1070
   384
1040
0.7853981633974483
  0
DIMSTYLE
105
140E
330
A
100
AcDbSymbolTableRecord
100
AcDbDimStyleTableRecord
  2
AM_ISO$7
 70
     0
  4
"
 41
2.5
 42
1.0
 43
10.0
 44
1.0
 47
0.1
 48
0.1
 73
     0
 74
     0
 77
     1
 78
     8
 79
     2
140
5.0
141
0.0
143
0.0393701
146
0.71
147
1.5
172
     1
176
   256
177
   256
178
     2
271
     2
272
     3
274
     4
283
     0
284
     8
340
11
371
    -1
372
    -1
1001
ACAD_DSTYLE_DIMARC_LENGTH_SYMBOL
1070
   379
1070
     1
1001
ACAD_DSTYLE_DIMJOGGED_JOGANGLE_SYMBOL
1070
   384
1040
0.7853981633974483
  0
DIMSTYLE
105
1411
330
A
100
AcDbSymbolTableRecord
100
AcDbDimStyleTableRecord
  2
AM_ISO$SF
 70
     0
  4
"
 41
2.5
 42
1.0
 43
10.0
 44
1.0
 47
0.1
 48
0.1
 73
     0
 74
     0
 75
     1
 76
     1
 77
     1
 78
     8
 79
     2
140
3.5
141
0.0
143
0.0393701
146
0.71
147
1.5
172
     1
176
   256
177
   256
178
     2
271
     2
272
     3
274
     4
283
     0
284
     8
340
11
371
    -1
372
    -1
1001
ACAD_DSTYLE_DIMARC_LENGTH_SYMBOL
1070
   379
1070
     1
1001
ACAD_DSTYLE_DIMJOGGED_JOGANGLE_SYMBOL
1070
   384
1040
0.7853981633974483
  0
DIMSTYLE
105
1418
330
A
100
AcDbSymbolTableRecord
100
AcDbDimStyleTableRecord
  2
AM_ISO$SH
 70
     0
  4
"
 41
2.5
 42
1.0
 43
10.0
 44
1.0
 47
0.1
 48
0.1
 73
     0
 74
     0
 75
     1
 76
     1
 77
     1
 78
     8
 79
     2
140
3.5
141
0.0
143
0.0393701
144
2.0
146
0.71
147
1.5
172
     1
173
     1
176
   256
177
   256
178
     2
271
     2
272
     3
274
     4
283
     0
284
     8
340
11
343
1412
371
    -1
372
    -1
1001
ACAD_DSTYLE_DIMARC_LENGTH_SYMBOL
1070
   379
1070
     1
1001
ACAD_DSTYLE_DIMJOGGED_JOGANGLE_SYMBOL
1070
   384
1040
0.7853981633974483
  0
DIMSTYLE
105
17EC
330
A
100
AcDbSymbolTableRecord
100
AcDbDimStyleTableRecord
  2
AM_ISO$0
 70
     0
  4
"
 41
2.5
 42
1.0
 43
10.0
 44
1.0
 47
0.1
 48
0.1
 73
     0
 74
     0
 77
     1
 78
     8
 79
     2
140
3.5
141
0.0
143
0.0393701
146
0.71
147
1.5
172
     1
176
   256
177
   256
178
     2
271
     2
272
     3
274
     4
283
     0
284
     8
340
11
371
    -1
372
    -1
1001
ACAD_DSTYLE_DIMARC_LENGTH_SYMBOL
1070
   379
1070
     1
1001
ACAD_DSTYLE_DIMJOGGED_JOGANGLE_SYMBOL
1070
   384
1040
0.7853981633974483
  0
DIMSTYLE
105
1968
102
{ACAD_REACTORS
330
196C
330
19B9
330
1BB7
330
1D80
330
1DD6
330
1F15
330
204C
330
2070
330
2094
102
}
330
A
100
AcDbSymbolTableRecord
100
AcDbDimStyleTableRecord
  2
A3DIM$0
 70
     0
 40
1.4
 41
5.0
 42
2.5
 43
10.0
 44
2.5
 73
     0
 77
     1
 78
     8
 79
     2
140
3.0
141
2.000000000000001
143
0.03937007874016
147
1.5
171
     3
179
     2
271
     2
272
     2
274
     3
283
     0
284
     8
340
11
  0
ENDTAB
  0
TABLE
  2
BLOCK_RECORD
  5
1
330
0
100
AcDbSymbolTable
 70
    15
  0
BLOCK_RECORD
  5
1F
102
{ACAD_XDICTIONARY
360
165E
102
}
330
1
100
AcDbSymbolTableRecord
100
AcDbBlockTableRecord
  2
*Model_Space
340
22
  0
BLOCK_RECORD
  5
1B
330
1
100
AcDbSymbolTableRecord
100
AcDbBlockTableRecord
  2
*Paper_Space
340
1E
  0
BLOCK_RECORD
  5
23
330
1
100
AcDbSymbolTableRecord
100
AcDbBlockTableRecord
  2
*Paper_Space0
340
26
  0
BLOCK_RECORD
  5
B1A
330
1
100
AcDbSymbolTableRecord
100
AcDbBlockTableRecord
  2
rkad_temp_blk
340
0
  0
BLOCK_RECORD
  5
C93
330
1
100
AcDbSymbolTableRecord
100
AcDbBlockTableRecord
  2
A$C531429CE
340
0
  0
BLOCK_RECORD
  5
1412
330
1
100
AcDbSymbolTableRecord
100
AcDbBlockTableRecord
  2
GENAXEH
340
0
  0
BLOCK_RECORD
  5
196D
330
1
100
AcDbSymbolTableRecord
100
AcDbBlockTableRecord
  2
*D5
340
0
  0
BLOCK_RECORD
  5
19BA
330
1
100
AcDbSymbolTableRecord
100
AcDbBlockTableRecord
  2
*D6
340
0
  0
BLOCK_RECORD
  5
1BB8
330
1
100
AcDbSymbolTableRecord
100
AcDbBlockTableRecord
  2
*D7
340
0
  0
BLOCK_RECORD
  5
1D81
330
1
100
AcDbSymbolTableRecord
100
AcDbBlockTableRecord
  2
*D8
340
0
  0
BLOCK_RECORD
  5
1DD7
330
1
100
AcDbSymbolTableRecord
100
AcDbBlockTableRecord
  2
*D9
340
0
  0
BLOCK_RECORD
  5
1F16
330
1
100
AcDbSymbolTableRecord
100
AcDbBlockTableRecord
  2
*D10
340
0
  0
BLOCK_RECORD
  5
204D
330
1
100
AcDbSymbolTableRecord
100
AcDbBlockTableRecord
  2
*D12
340
0
  0
BLOCK_RECORD
  5
2071
330
1
100
AcDbSymbolTableRecord
100
AcDbBlockTableRecord
  2
*D13
340
0
  0
BLOCK_RECORD
  5
2095
330
1
100
AcDbSymbolTableRecord
100
AcDbBlockTableRecord
  2
*D14
340
0
  0
ENDTAB
  0
ENDSEC
  0
SECTION
  2
BLOCKS
  0
BLOCK
  5
20
330
1F
100
AcDbEntity
  8
0
100
AcDbBlockBegin
  2
*Model_Space
 70
     0
 10
0.0
 20
0.0
 30
0.0
  3
*Model_Space
  1

  0
ENDBLK
  5
21
330
1F
100
AcDbEntity
  8
0
100
AcDbBlockEnd
  0
BLOCK
  5
1C
330
1B
100
AcDbEntity
 67
     1
  8
0
100
AcDbBlockBegin
  2
*Paper_Space
 70
     0
 10
0.0
 20
0.0
 30
0.0
  3
*Paper_Space
  1

  0
ENDBLK
  5
1D
330
1B
100
AcDbEntity
 67
     1
  8
0
100
AcDbBlockEnd
  0
BLOCK
  5
24
330
23
100
AcDbEntity
 67
     1
  8
0
100
AcDbBlockBegin
  2
*Paper_Space0
 70
     0
 10
0.0
 20
0.0
 30
0.0
  3
*Paper_Space0
  1

  0
ENDBLK
  5
25
330
23
100
AcDbEntity
 67
     1
  8
0
100
AcDbBlockEnd
  0
BLOCK
  5
FC8
330
B1A
100
AcDbEntity
  8
0
100
AcDbBlockBegin
  2
rkad_temp_blk
 70
     0
 10
0.0
 20
0.0
 30
0.0
  3
rkad_temp_blk
  1

  0
LINE
  5
FC9
330
B1A
100
AcDbEntity
  8
OUT
100
AcDbLine
 10
-2.85
 20
-0.0000000000000003
 30
0.0
 11
2.85
 21
-0.0000000000000003
 31
0.0
  0
LINE
  5
FCA
330
B1A
100
AcDbEntity
  8
OUT
100
AcDbLine
 10
-2.85
 20
-0.0000000000000003
 30
0.0
 11
-2.85
 21
0.3799999999999997
 31
0.0
  0
LINE
  5
FCB
330
B1A
100
AcDbEntity
  8
OUT
100
AcDbLine
 10
-2.85
 20
0.3799999999999997
 30
0.0
 11
2.85
 21
0.3799999999999997
 31
0.0
  0
LINE
  5
FCC
330
B1A
100
AcDbEntity
  8
OUT
100
AcDbLine
 10
2.85
 20
0.3799999999999997
 30
0.0
 11
2.85
 21
-0.0000000000000003
 31
0.0
  0
ARC
  5
FCD
330
B1A
100
AcDbEntity
  8
OUT
100
AcDbCircle
 10
0.0000000000000004
 20
-1.547664041994751
 30
0.0
 40
3.440695955587989
100
AcDbArc
 50
111.6638802883451
 51
145.9266272054521
  0
ARC
  5
FCE
330
B1A
100
AcDbEntity
  8
OUT
100
AcDbCircle
 10
-0.0000000000000004
 20
-1.54766404199475
 30
0.0
 40
3.440695955587988
100
AcDbArc
 50
34.07337279454791
 51
68.33611971165488
  0
LINE
  5
FCF
330
B1A
100
AcDbEntity
  8
OUT
100
AcDbLine
 10
1.270170592217177
 20
1.649999999999999
 30
0.0
 11
-1.270170592217176
 21
1.649999999999999
 31
0.0
  0
LINE
  5
FD0
330
B1A
100
AcDbEntity
  8
OUT
100
AcDbLine
 10
1.154700538379251
 20
0.6099999999999999
 30
0.0
 11
1.154700538379251
 21
1.649999999999999
 31
0.0
  0
LINE
  5
FD1
330
B1A
100
AcDbEntity
  8
OUT
100
AcDbLine
 10
0.5773502691896259
 20
0.6099999999999999
 30
0.0
 11
0.577350269189626
 21
1.649999999999999
 31
0.0
  0
LINE
  5
FD2
330
B1A
100
AcDbEntity
  8
OUT
100
AcDbLine
 10
-0.5773502691896259
 20
0.6099999999999998
 30
0.0
 11
-0.5773502691896258
 21
1.649999999999999
 31
0.0
  0
LINE
  5
FD3
330
B1A
100
AcDbEntity
  8
OUT
100
AcDbLine
 10
-1.154700538379251
 20
0.6099999999999998
 30
0.0
 11
-1.154700538379251
 21
1.649999999999999
 31
0.0
  0
ARC
  5
FD4
330
B1A
100
AcDbEntity
  8
OUT
100
AcDbCircle
 10
0.8660254037844389
 20
1.031848152207588
 30
0.0
 40
0.5111645496846295
100
AcDbArc
 50
235.615752531958
 51
304.384247468042
  0
ARC
  5
FD5
330
B1A
100
AcDbEntity
  8
OUT
100
AcDbCircle
 10
-0.0000000000000002
 20
2.431367205045917
 30
0.0
 40
1.910683602522959
100
AcDbArc
 50
252.4120462260062
 51
287.5879537739938
  0
ARC
  5
FD6
330
B1A
100
AcDbEntity
  8
OUT
100
AcDbCircle
 10
-0.8660254037844389
 20
1.031848152207588
 30
0.0
 40
0.5111645496846295
100
AcDbArc
 50
235.615752531958
 51
304.384247468042
  0
LINE
  5
FD7
330
B1A
100
AcDbEntity
  8
OUT
100
AcDbLine
 10
0.0
 20
-0.058393828513641
 30
0.0
 11
1.121607678626753
 21
0.5891666666666663
 31
0.0
  0
LINE
  5
FD8
330
B1A
100
AcDbEntity
  8
OUT
100
AcDbLine
 10
0.0
 20
-0.058393828513641
 30
0.0
 11
-1.121607678626753
 21
0.5891666666666661
 31
0.0
  0
ENDBLK
  5
FD9
330
B1A
100
AcDbEntity
  8
0
100
AcDbBlockEnd
  0
BLOCK
  5
CF1
330
C93
100
AcDbEntity
  8
0
100
AcDbBlockBegin
  2
A$C531429CE
 70
     0
 10
0.0
 20
0.0
 30
0.0
  3
A$C531429CE
  1

  0
LINE
  5
C94
330
C93
100
AcDbEntity
  8
OUT
100
AcDbLine
 10
2.748569557154496
 20
0.68475496914796
 30
0.0
 11
3.158475819768142
 21
0.68475496914796
 31
0.0
  0
LINE
  5
C95
330
C93
100
AcDbEntity
  8
OUT
100
AcDbLine
 10
2.748569557154496
 20
1.826484969147969
 30
0.0
 11
3.158475819768142
 21
1.826484969147969
 31
0.0
  0
LINE
  5
C96
330
C93
100
AcDbEntity
  8
CL
100
AcDbLine
 10
0.2184415805092499
 20
0.4288499691479615
 30
0.0
 11
7.392608728108967
 21
0.4288499691479615
 31
0.0
  0
LINE
  5
C97
330
C93
100
AcDbEntity
  8
CL
100
AcDbLine
 10
0.0000007276313454
 20
2.082389969147953
 30
0.0
 11
7.110903614769654
 21
2.082389969147953
 31
0.0
  0
LINE
  5
C98
330
C93
100
AcDbEntity
  8
OUT
100
AcDbLine
 10
1.001236286431748
 20
2.220184969147965
 30
0.0
 11
7.076787343814856
 21
2.220184969147965
 31
0.0
  0
LINE
  5
C99
330
C93
100
AcDbEntity
  8
OUT
100
AcDbLine
 10
1.001236286431748
 20
0.2910549691479645
 30
0.0
 11
7.076787343814856
 21
0.2910549691479645
 31
0.0
  0
ARC
  5
C9A
330
C93
100
AcDbEntity
  8
HID
100
AcDbCircle
 10
1.355566286431752
 20
1.708374969147968
 30
0.0
 40
0.11811
100
AcDbArc
 50
90.0
 51
180.0
  0
LINE
  5
C9B
330
C93
100
AcDbEntity
  8
OUT
100
AcDbLine
 10
2.748569557154496
 20
2.220184969147965
 30
0.0
 11
2.748569557154496
 21
0.2910549691479645
 31
0.0
  0
LINE
  5
C9C
330
C93
100
AcDbEntity
  8
OUT
100
AcDbLine
 10
2.076063414235335
 20
2.220184969147965
 30
0.0
 11
2.076063414235335
 21
0.2910549691479645
 31
0.0
  0
LINE
  5
C9D
330
C93
100
AcDbEntity
  8
OUT
100
AcDbLine
 10
1.657764305504116
 20
2.220184969147965
 30
0.0
 11
1.657764305504116
 21
0.2910549691479645
 31
0.0
  0
LINE
  5
C9E
330
C93
100
AcDbEntity
  8
OUT
100
AcDbLine
 10
2.482322886578543
 20
2.220184969147965
 30
0.0
 11
2.482322886578543
 21
0.2910549691479645
 31
0.0
  0
LINE
  5
C9F
330
C93
100
AcDbEntity
  8
OUT
100
AcDbLine
 10
2.339814907557524
 20
2.220184969147965
 30
0.0
 11
2.339814907557524
 21
0.2910549691479645
 31
0.0
  0
LINE
  5
CA0
330
C93
100
AcDbEntity
  8
OUT
100
AcDbLine
 10
1.394936286431743
 20
2.220184969147965
 30
0.0
 11
1.394936286431743
 21
0.2910549691479645
 31
0.0
  0
LINE
  5
CA1
330
C93
100
AcDbEntity
  8
CL
100
AcDbLine
 10
1.19808628643176
 20
2.505570517852561
 30
0.0
 11
1.19808628643176
 21
0.0153737724946126
 31
0.0
  0
LINE
  5
CA2
330
C93
100
AcDbEntity
  8
OUT
  6
HIDDEN2
100
AcDbLine
 10
2.339814907557524
 20
1.86585496914796
 30
0.0
 11
2.339814907557524
 21
0.6453849691479548
 31
0.0
  0
LINE
  5
CA3
330
C93
100
AcDbEntity
  8
OUT
  6
HIDDEN2
100
AcDbLine
 10
2.482322886578515
 20
1.86585496914796
 30
0.0
 11
2.482322886578515
 21
0.645384969147969
 31
0.0
  0
LINE
  5
CA4
330
C93
100
AcDbEntity
  8
OUT
  6
HIDDEN2
100
AcDbLine
 10
1.394936286431772
 20
1.86585496914796
 30
0.0
 11
1.394936286431743
 21
0.6453849691479548
 31
0.0
  0
LINE
  5
CA5
330
C93
100
AcDbEntity
  8
OUT
100
AcDbLine
 10
1.001236286431748
 20
2.220184969147965
 30
0.0
 11
1.001236286431748
 21
0.2910549691479645
 31
0.0
  0
LINE
  5
CA6
330
C93
100
AcDbEntity
  8
HID
100
AcDbLine
 10
2.076063414235335
 20
0.68475496914796
 30
0.0
 11
2.748569557154496
 21
0.68475496914796
 31
0.0
  0
LINE
  5
CA7
330
C93
100
AcDbEntity
  8
HID
100
AcDbLine
 10
1.355566286431752
 20
0.68475496914796
 30
0.0
 11
1.657764305504116
 21
0.68475496914796
 31
0.0
  0
ARC
  5
CA8
330
C93
100
AcDbEntity
  8
HID
100
AcDbCircle
 10
1.355566286431752
 20
0.8028649691479614
 30
0.0
 40
0.11811
100
AcDbArc
 50
180.0
 51
270.0
  0
LINE
  5
CA9
330
C93
100
AcDbEntity
  8
HID
100
AcDbLine
 10
1.237456286431751
 20
1.708374969147968
 30
0.0
 11
1.237456286431751
 21
0.8028649691479614
 31
0.0
  0
LINE
  5
CAA
330
C93
100
AcDbEntity
  8
OUT
100
AcDbLine
 10
1.657764305504116
 20
0.68475496914796
 30
0.0
 11
2.076063414235335
 21
0.68475496914796
 31
0.0
  0
CIRCLE
  5
CAB
330
C93
100
AcDbEntity
  8
OUT
100
AcDbCircle
 10
1.19808628643176
 20
0.4288499691479615
 30
0.0
 40
0.059055
  0
CIRCLE
  5
CAC
330
C93
100
AcDbEntity
  8
OUT
100
AcDbCircle
 10
1.19808628643176
 20
0.4288499691479615
 30
0.0
 40
0.11811
  0
LINE
  5
CAD
330
C93
100
AcDbEntity
  8
HID
100
AcDbLine
 10
2.076063414235335
 20
1.826484969147955
 30
0.0
 11
2.748569557154496
 21
1.826484969147969
 31
0.0
  0
LINE
  5
CAE
330
C93
100
AcDbEntity
  8
HID
100
AcDbLine
 10
1.355566286431752
 20
1.826484969147955
 30
0.0
 11
1.657764305504116
 21
1.826484969147955
 31
0.0
  0
LINE
  5
CAF
330
C93
100
AcDbEntity
  8
OUT
100
AcDbLine
 10
1.657764305504116
 20
1.826484969147955
 30
0.0
 11
2.076063414235335
 21
1.826484969147955
 31
0.0
  0
CIRCLE
  5
CB0
330
C93
100
AcDbEntity
  8
OUT
100
AcDbCircle
 10
1.19808628643176
 20
2.082389969147953
 30
0.0
 40
0.059055
  0
CIRCLE
  5
CB1
330
C93
100
AcDbEntity
  8
OUT
100
AcDbCircle
 10
1.19808628643176
 20
2.082389969147953
 30
0.0
 40
0.11811
  0
ARC
  5
CB2
330
C93
100
AcDbEntity
  8
HID
100
AcDbCircle
 10
6.722457343814852
 20
1.708374969147968
 30
0.0
 40
0.11811
100
AcDbArc
 50
0.0
 51
90.0
  0
LINE
  5
CB3
330
C93
100
AcDbEntity
  8
OUT
100
AcDbLine
 10
6.405055154558624
 20
2.220184969147965
 30
0.0
 11
6.405055154558624
 21
0.2910549691479645
 31
0.0
  0
LINE
  5
CB4
330
C93
100
AcDbEntity
  8
OUT
100
AcDbLine
 10
6.021643193913604
 20
2.220184969147965
 30
0.0
 11
6.021643193913604
 21
0.2910549691479645
 31
0.0
  0
LINE
  5
CB5
330
C93
100
AcDbEntity
  8
OUT
100
AcDbLine
 10
5.322978999921673
 20
2.220184969147965
 30
0.0
 11
5.322978999921673
 21
0.2910549691479645
 31
0.0
  0
LINE
  5
CB6
330
C93
100
AcDbEntity
  8
OUT
100
AcDbLine
 10
4.930501691367339
 20
2.220184969147965
 30
0.0
 11
4.930501691367339
 21
0.2910549691479645
 31
0.0
  0
LINE
  5
CB7
330
C93
100
AcDbEntity
  8
OUT
100
AcDbLine
 10
4.240783314485355
 20
2.220184969147965
 30
0.0
 11
4.240783314485355
 21
0.2910549691479645
 31
0.0
  0
LINE
  5
CB8
330
C93
100
AcDbEntity
  8
OUT
100
AcDbLine
 10
3.839479719620499
 20
2.220184969147965
 30
0.0
 11
3.839479719620499
 21
0.2910549691479645
 31
0.0
  0
LINE
  5
CB9
330
C93
100
AcDbEntity
  8
OUT
100
AcDbLine
 10
3.158475819768142
 20
2.220184969147965
 30
0.0
 11
3.158475819768142
 21
0.2910549691479645
 31
0.0
  0
LINE
  5
CBA
330
C93
100
AcDbEntity
  8
OUT
100
AcDbLine
 10
3.42564596459394
 20
1.988790942523763
 30
0.0
 11
3.42564596459394
 21
0.5224489957721659
 31
0.0
  0
LINE
  5
CBB
330
C93
100
AcDbEntity
  8
OUT
100
AcDbLine
 10
3.569718089795202
 20
1.988790942523763
 30
0.0
 11
3.569718089795202
 21
0.5224489957721659
 31
0.0
  0
LINE
  5
CBC
330
C93
100
AcDbEntity
  8
OUT
100
AcDbLine
 10
4.657121939256796
 20
1.989404835512573
 30
0.0
 11
4.657121939256796
 21
0.5218351027833421
 31
0.0
  0
LINE
  5
CBD
330
C93
100
AcDbEntity
  8
OUT
100
AcDbLine
 10
4.511468418560468
 20
1.989404835512573
 30
0.0
 11
4.511468418560468
 21
0.5218351027833421
 31
0.0
  0
LINE
  5
CBE
330
C93
100
AcDbEntity
  8
OUT
100
AcDbLine
 10
6.683087343814861
 20
2.220184969147965
 30
0.0
 11
6.683087343814861
 21
0.2910549691479645
 31
0.0
  0
LINE
  5
CBF
330
C93
100
AcDbEntity
  8
OUT
100
AcDbLine
 10
5.744534478907183
 20
2.220184969147965
 30
0.0
 11
5.744534478907183
 21
0.2910549691479645
 31
0.0
  0
LINE
  5
CC0
330
C93
100
AcDbEntity
  8
OUT
100
AcDbLine
 10
5.597282226282061
 20
2.220184969147965
 30
0.0
 11
5.597282226282061
 21
0.2910549691479645
 31
0.0
  0
LINE
  5
CC1
330
C93
100
AcDbEntity
  8
CL
100
AcDbLine
 10
4.584295178908632
 20
2.515477880006201
 30
0.0
 11
4.584295178908632
 21
-0.000000048068074
 31
0.0
  0
LINE
  5
CC2
330
C93
100
AcDbEntity
  8
CL
100
AcDbLine
 10
3.497682027194571
 20
2.515477880006201
 30
0.0
 11
3.497682027194571
 21
-0.000000048068074
 31
0.0
  0
LINE
  5
CC3
330
C93
100
AcDbEntity
  8
CL
100
AcDbLine
 10
6.879937343814873
 20
2.456762227258835
 30
0.0
 11
6.879937343814873
 21
0.0297684386916757
 31
0.0
  0
LINE
  5
CC4
330
C93
100
AcDbEntity
  8
OUT
  6
HIDDEN2
100
AcDbLine
 10
5.744534478907183
 20
1.86585496914796
 30
0.0
 11
5.744534478907183
 21
0.6453849691479548
 31
0.0
  0
LINE
  5
CC5
330
C93
100
AcDbEntity
  8
OUT
  6
HIDDEN2
100
AcDbLine
 10
6.683087343814861
 20
1.86585496914796
 30
0.0
 11
6.683087343814861
 21
0.6453849691479548
 31
0.0
  0
LINE
  5
CC6
330
C93
100
AcDbEntity
  8
OUT
  6
Continuous
100
AcDbLine
 10
7.076787343814856
 20
2.220184969147965
 30
0.0
 11
7.076787343814856
 21
0.2910549691479645
 31
0.0
  0
LINE
  5
CC7
330
C93
100
AcDbEntity
  8
OUT
  6
HIDDEN2
100
AcDbLine
 10
3.42564596459394
 20
1.86585496914796
 30
0.0
 11
3.42564596459394
 21
0.6453849691479548
 31
0.0
  0
LINE
  5
CC8
330
C93
100
AcDbEntity
  8
OUT
  6
HIDDEN2
100
AcDbLine
 10
3.569718089795202
 20
1.86585496914796
 30
0.0
 11
3.569718089795202
 21
0.6453849691479548
 31
0.0
  0
LINE
  5
CC9
330
C93
100
AcDbEntity
  8
OUT
  6
HIDDEN2
100
AcDbLine
 10
4.511468418560468
 20
1.86585496914796
 30
0.0
 11
4.511468418560468
 21
0.6453849691479548
 31
0.0
  0
LINE
  5
CCA
330
C93
100
AcDbEntity
  8
OUT
  6
HIDDEN2
100
AcDbLine
 10
4.657121939256796
 20
1.86585496914796
 30
0.0
 11
4.657121939256796
 21
0.6453849691479548
 31
0.0
  0
LINE
  5
CCB
330
C93
100
AcDbEntity
  8
OUT
  6
HIDDEN2
100
AcDbLine
 10
5.597282226282061
 20
1.86585496914796
 30
0.0
 11
5.597282226282061
 21
0.645384969147969
 31
0.0
  0
CIRCLE
  5
CCC
330
C93
100
AcDbEntity
  8
OUT
100
AcDbCircle
 10
6.879937343814873
 20
0.4288499691479615
 30
0.0
 40
0.059055
  0
CIRCLE
  5
CCD
330
C93
100
AcDbEntity
  8
OUT
100
AcDbCircle
 10
6.879937343814873
 20
0.4288499691479615
 30
0.0
 40
0.11811
  0
LINE
  5
CCE
330
C93
100
AcDbEntity
  8
HID
100
AcDbLine
 10
6.405055154558624
 20
0.68475496914796
 30
0.0
 11
6.722457343814852
 21
0.68475496914796
 31
0.0
  0
LINE
  5
CCF
330
C93
100
AcDbEntity
  8
HID
100
AcDbLine
 10
5.322978999921673
 20
0.68475496914796
 30
0.0
 11
6.021643193913604
 21
0.68475496914796
 31
0.0
  0
LINE
  5
CD0
330
C93
100
AcDbEntity
  8
HID
100
AcDbLine
 10
4.240783314485355
 20
0.68475496914796
 30
0.0
 11
4.930501691367339
 21
0.68475496914796
 31
0.0
  0
LINE
  5
CD1
330
C93
100
AcDbEntity
  8
HID
100
AcDbLine
 10
3.158475819768142
 20
0.68475496914796
 30
0.0
 11
3.839479719620499
 21
0.68475496914796
 31
0.0
  0
LINE
  5
CD2
330
C93
100
AcDbEntity
  8
OUT
100
AcDbLine
 10
4.930501691367339
 20
0.68475496914796
 30
0.0
 11
5.322978999921673
 21
0.68475496914796
 31
0.0
  0
LINE
  5
CD3
330
C93
100
AcDbEntity
  8
OUT
100
AcDbLine
 10
6.021643193913604
 20
0.68475496914796
 30
0.0
 11
6.405055154558624
 21
0.68475496914796
 31
0.0
  0
LINE
  5
CD4
330
C93
100
AcDbEntity
  8
OUT
100
AcDbLine
 10
3.839479719620499
 20
0.68475496914796
 30
0.0
 11
4.240783314485355
 21
0.68475496914796
 31
0.0
  0
ARC
  5
CD5
330
C93
100
AcDbEntity
  8
HID
100
AcDbCircle
 10
6.722457343814852
 20
0.8028649691479614
 30
0.0
 40
0.11811
100
AcDbArc
 50
270.0
 51
0.0
  0
LINE
  5
CD6
330
C93
100
AcDbEntity
  8
HID
  6
HIDDEN
100
AcDbLine
 10
6.840567343814853
 20
1.708374969147968
 30
0.0
 11
6.840567343814853
 21
0.8028649691479614
 31
0.0
  0
CIRCLE
  5
CD7
330
C93
100
AcDbEntity
  8
OUT
100
AcDbCircle
 10
4.584295178908632
 20
0.4288499691479615
 30
0.0
 40
0.059055
  0
CIRCLE
  5
CD8
330
C93
100
AcDbEntity
  8
OUT
100
AcDbCircle
 10
3.497682027194571
 20
0.4288499691479615
 30
0.0
 40
0.059055
  0
CIRCLE
  5
CD9
330
C93
100
AcDbEntity
  8
OUT
100
AcDbCircle
 10
3.497682027194571
 20
0.4288499691479615
 30
0.0
 40
0.11811
  0
CIRCLE
  5
CDA
330
C93
100
AcDbEntity
  8
OUT
100
AcDbCircle
 10
4.584295178908632
 20
0.4288499691479615
 30
0.0
 40
0.11811
  0
LINE
  5
CDB
330
C93
100
AcDbEntity
  8
OUT
100
AcDbLine
 10
3.42564596459394
 20
0.3352509425237571
 30
0.0
 11
3.42564596459394
 21
0.2910549691479645
 31
0.0
  0
LINE
  5
CDC
330
C93
100
AcDbEntity
  8
OUT
100
AcDbLine
 10
3.569718089795202
 20
0.3352509425237571
 30
0.0
 11
3.569718089795202
 21
0.2910549691479645
 31
0.0
  0
LINE
  5
CDD
330
C93
100
AcDbEntity
  8
OUT
100
AcDbLine
 10
4.657121939256796
 20
0.3358648355125808
 30
0.0
 11
4.657121939256796
 21
0.2910549691479645
 31
0.0
  0
LINE
  5
CDE
330
C93
100
AcDbEntity
  8
OUT
100
AcDbLine
 10
4.511468418560468
 20
0.3358648355125808
 30
0.0
 11
4.511468418560468
 21
0.2910549691479645
 31
0.0
  0
CIRCLE
  5
CDF
330
C93
100
AcDbEntity
  8
OUT
100
AcDbCircle
 10
6.879937343814873
 20
2.082389969147953
 30
0.0
 40
0.059055
  0
CIRCLE
  5
CE0
330
C93
100
AcDbEntity
  8
OUT
100
AcDbCircle
 10
6.879937343814873
 20
2.082389969147953
 30
0.0
 40
0.11811
  0
LINE
  5
CE1
330
C93
100
AcDbEntity
  8
HID
100
AcDbLine
 10
6.405055154558624
 20
1.826484969147955
 30
0.0
 11
6.722457343814852
 21
1.826484969147955
 31
0.0
  0
LINE
  5
CE2
330
C93
100
AcDbEntity
  8
HID
100
AcDbLine
 10
5.322978999921673
 20
1.826484969147955
 30
0.0
 11
6.021643193913575
 21
1.826484969147955
 31
0.0
  0
LINE
  5
CE3
330
C93
100
AcDbEntity
  8
HID
100
AcDbLine
 10
4.240783314485355
 20
1.826484969147955
 30
0.0
 11
4.930501691367339
 21
1.826484969147969
 31
0.0
  0
LINE
  5
CE4
330
C93
100
AcDbEntity
  8
HID
100
AcDbLine
 10
3.158475819768142
 20
1.826484969147969
 30
0.0
 11
3.839479719620499
 21
1.826484969147969
 31
0.0
  0
LINE
  5
CE5
330
C93
100
AcDbEntity
  8
OUT
100
AcDbLine
 10
6.021643193913575
 20
1.826484969147955
 30
0.0
 11
6.405055154558624
 21
1.826484969147955
 31
0.0
  0
LINE
  5
CE6
330
C93
100
AcDbEntity
  8
OUT
100
AcDbLine
 10
4.930501691367368
 20
1.826484969147969
 30
0.0
 11
5.322978999921673
 21
1.826484969147955
 31
0.0
  0
LINE
  5
CE7
330
C93
100
AcDbEntity
  8
OUT
100
AcDbLine
 10
3.839479719620499
 20
1.826484969147969
 30
0.0
 11
4.240783314485355
 21
1.826484969147955
 31
0.0
  0
LINE
  5
CE8
330
C93
100
AcDbEntity
  8
OUT
100
AcDbLine
 10
3.555452171200499
 20
2.082389969147953
 30
0.0
 11
3.556737027194571
 21
2.082389969147953
 31
0.0
  0
CIRCLE
  5
CE9
330
C93
100
AcDbEntity
  8
OUT
100
AcDbCircle
 10
3.497682027194571
 20
2.082389969147953
 30
0.0
 40
0.059055
  0
CIRCLE
  5
CEA
330
C93
100
AcDbEntity
  8
OUT
100
AcDbCircle
 10
4.584295178908632
 20
2.082389969147953
 30
0.0
 40
0.059055
  0
CIRCLE
  5
CEB
330
C93
100
AcDbEntity
  8
OUT
100
AcDbCircle
 10
3.497682027194571
 20
2.082389969147953
 30
0.0
 40
0.11811
  0
CIRCLE
  5
CEC
330
C93
100
AcDbEntity
  8
OUT
100
AcDbCircle
 10
4.584295178908632
 20
2.082389969147953
 30
0.0
 40
0.11811
  0
LINE
  5
CED
330
C93
100
AcDbEntity
  8
OUT
100
AcDbLine
 10
4.657121939256796
 20
2.220184969147965
 30
0.0
 11
4.657121939256796
 21
2.175375102783348
 31
0.0
  0
LINE
  5
CEE
330
C93
100
AcDbEntity
  8
OUT
100
AcDbLine
 10
4.511468418560468
 20
2.220184969147965
 30
0.0
 11
4.511468418560468
 21
2.175375102783348
 31
0.0
  0
LINE
  5
CEF
330
C93
100
AcDbEntity
  8
OUT
100
AcDbLine
 10
3.569718089795202
 20
2.220184969147965
 30
0.0
 11
3.569718089795202
 21
2.175988995772158
 31
0.0
  0
LINE
  5
CF0
330
C93
100
AcDbEntity
  8
OUT
100
AcDbLine
 10
3.42564596459394
 20
2.220184969147965
 30
0.0
 11
3.42564596459394
 21
2.175988995772158
 31
0.0
  0
ENDBLK
  5
CF2
330
C93
100
AcDbEntity
  8
0
100
AcDbBlockEnd
  0
BLOCK
  5
1414
330
1412
100
AcDbEntity
  8
0
100
AcDbBlockBegin
  2
GENAXEH
 70
     0
 10
0.0
 20
0.0
 30
0.0
  3
GENAXEH
  1

  0
LINE
  5
1413
330
1412
100
AcDbEntity
  8
0
100
AcDbLine
 10
-1.0
 20
0.0
 30
0.0
 11
1.0
 21
0.0
 31
0.0
  0
ENDBLK
  5
1415
330
1412
100
AcDbEntity
  8
0
100
AcDbBlockEnd
  0
BLOCK
  5
1977
330
196D
100
AcDbEntity
  8
0
100
AcDbBlockBegin
  2
*D5
 70
     1
 10
0.0
 20
0.0
 30
0.0
  3
*D5
  1

  0
LINE
  5
1979
330
196D
100
AcDbEntity
  8
AM_5
 62
     0
370
    -2
100
AcDbLine
 10
206.7557253514739
 20
426.2271445474651
 30
0.0
 11
189.955725351474
 21
426.2271445474651
 31
0.0
  0
LINE
  5
197A
330
196D
100
AcDbEntity
  8
AM_5
 62
     0
370
    -2
100
AcDbLine
 10
206.7557253514741
 20
192.9768920157705
 30
0.0
 11
189.955725351474
 21
192.9768920157705
 31
0.0
  0
LINE
  5
197B
330
196D
100
AcDbEntity
  8
AM_5
 62
     0
370
    -2
100
AcDbLine
 10
193.455725351474
 20
419.227144547465
 30
0.0
 11
193.455725351474
 21
199.9768920157705
 31
0.0
  0
SOLID
  5
197C
330
196D
100
AcDbEntity
  8
AM_5
 62
     0
100
AcDbTrace
 10
192.2890586848073
 20
419.227144547465
 30
0.0
 11
194.6223920181407
 21
419.227144547465
 31
0.0
 12
193.455725351474
 22
426.2271445474651
 32
0.0
 13
193.455725351474
 23
426.2271445474651
 33
0.0
  0
SOLID
  5
197D
330
196D
100
AcDbEntity
  8
AM_5
 62
     0
100
AcDbTrace
 10
192.2890586848073
 20
199.9768920157705
 30
0.0
 11
194.6223920181406
 21
199.9768920157705
 31
0.0
 12
193.455725351474
 22
192.9768920157705
 32
0.0
 13
193.455725351474
 23
192.9768920157705
 33
0.0
  0
MTEXT
  5
197E
330
196D
100
AcDbEntity
  8
AM_5
 62
     0
100
AcDbMText
 10
189.255725351474
 20
309.6020182816178
 30
0.0
 40
4.199999999999999
 41
0.0
 71
     5
 72
     1
  1
233.25
 11
0.0000000000000001
 21
1.0
 31
0.0
 73
     1
 44
1.0
  0
POINT
  5
197F
330
196D
100
AcDbEntity
  8
Defpoints
 62
     0
100
AcDbPoint
 10
210.2557253514739
 20
426.2271445474651
 30
0.0
  0
POINT
  5
1980
330
196D
100
AcDbEntity
  8
Defpoints
 62
     0
100
AcDbPoint
 10
210.255725351474
 20
192.9768920157705
 30
0.0
  0
POINT
  5
1981
330
196D
100
AcDbEntity
  8
Defpoints
 62
     0
100
AcDbPoint
 10
193.455725351474
 20
192.9768920157705
 30
0.0
  0
ENDBLK
  5
1978
330
196D
100
AcDbEntity
  8
0
100
AcDbBlockEnd
  0
BLOCK
  5
19C4
330
19BA
100
AcDbEntity
  8
0
100
AcDbBlockBegin
  2
*D6
 70
     1
 10
0.0
 20
0.0
 30
0.0
  3
*D6
  1

  0
LINE
  5
19C6
330
19BA
100
AcDbEntity
  8
AM_5
 62
     0
370
    -2
100
AcDbLine
 10
210.255725351474
 20
189.4768920157705
 30
0.0
 11
210.255725351474
 21
160.3574329844287
 31
0.0
  0
LINE
  5
19C7
330
19BA
100
AcDbEntity
  8
AM_5
 62
     0
370
    -2
100
AcDbLine
 10
443.5059778831694
 20
189.4768920157704
 30
0.0
 11
443.5059778831694
 21
160.3574329844287
 31
0.0
  0
LINE
  5
19C8
330
19BA
100
AcDbEntity
  8
AM_5
 62
     0
370
    -2
100
AcDbLine
 10
217.2557253514741
 20
163.8574329844287
 30
0.0
 11
436.5059778831694
 21
163.8574329844287
 31
0.0
  0
SOLID
  5
19C9
330
19BA
100
AcDbEntity
  8
AM_5
 62
     0
100
AcDbTrace
 10
217.2557253514741
 20
165.0240996510953
 30
0.0
 11
217.2557253514741
 21
162.690766317762
 31
0.0
 12
210.255725351474
 22
163.8574329844287
 32
0.0
 13
210.255725351474
 23
163.8574329844287
 33
0.0
  0
SOLID
  5
19CA
330
19BA
100
AcDbEntity
  8
AM_5
 62
     0
100
AcDbTrace
 10
436.5059778831694
 20
165.0240996510953
 30
0.0
 11
436.5059778831694
 21
162.690766317762
 31
0.0
 12
443.5059778831694
 22
163.8574329844287
 32
0.0
 13
443.5059778831694
 23
163.8574329844287
 33
0.0
  0
MTEXT
  5
19CB
330
19BA
100
AcDbEntity
  8
AM_5
 62
     0
100
AcDbMText
 10
326.8808516173217
 20
168.0574329844286
 30
0.0
 40
4.199999999999999
 41
0.0
 71
     5
 72
     1
  1
233.25
 73
     1
 44
1.0
  0
POINT
  5
19CC
330
19BA
100
AcDbEntity
  8
Defpoints
 62
     0
100
AcDbPoint
 10
210.255725351474
 20
192.9768920157705
 30
0.0
  0
POINT
  5
19CD
330
19BA
100
AcDbEntity
  8
Defpoints
 62
     0
100
AcDbPoint
 10
443.5059778831694
 20
192.9768920157704
 30
0.0
  0
POINT
  5
19CE
330
19BA
100
AcDbEntity
  8
Defpoints
 62
     0
100
AcDbPoint
 10
443.5059778831694
 20
163.8574329844287
 30
0.0
  0
ENDBLK
  5
19C5
330
19BA
100
AcDbEntity
  8
0
100
AcDbBlockEnd
  0
BLOCK
  5
1BC2
330
1BB8
100
AcDbEntity
  8
0
100
AcDbBlockBegin
  2
*D7
 70
     1
 10
0.0
 20
0.0
 30
0.0
  3
*D7
  1

  0
LINE
  5
1BC4
330
1BB8
100
AcDbEntity
  8
AM_5
 62
     0
370
    -2
100
AcDbLine
 10
447.0057256972603
 20
74.41901599081811
 30
0.0
 11
473.9979498530051
 21
74.41901599081811
 31
0.0
  0
LINE
  5
1BC5
330
1BB8
100
AcDbEntity
  8
AM_5
 62
     0
370
    -2
100
AcDbLine
 10
447.0057256972603
 20
104.9190159908181
 30
0.0
 11
473.9979498530051
 21
104.9190159908181
 31
0.0
  0
LINE
  5
1BC6
330
1BB8
100
AcDbEntity
  8
AM_5
 62
     0
370
    -2
100
AcDbLine
 10
470.4979498530051
 20
81.4190159908181
 30
0.0
 11
470.4979498530051
 21
97.91901599081811
 31
0.0
  0
SOLID
  5
1BC7
330
1BB8
100
AcDbEntity
  8
AM_5
 62
     0
100
AcDbTrace
 10
469.3312831863384
 20
81.4190159908181
 30
0.0
 11
471.6646165196718
 21
81.4190159908181
 31
0.0
 12
470.4979498530051
 22
74.41901599081811
 32
0.0
 13
470.4979498530051
 23
74.41901599081811
 33
0.0
  0
SOLID
  5
1BC8
330
1BB8
100
AcDbEntity
  8
AM_5
 62
     0
100
AcDbTrace
 10
469.3312831863384
 20
97.91901599081811
 30
0.0
 11
471.6646165196718
 21
97.91901599081811
 31
0.0
 12
470.4979498530051
 22
104.9190159908181
 32
0.0
 13
470.4979498530051
 23
104.9190159908181
 33
0.0
  0
MTEXT
  5
1BC9
330
1BB8
100
AcDbEntity
  8
AM_5
 62
     0
100
AcDbMText
 10
466.2979498530051
 20
89.66901599081818
 30
0.0
 40
4.199999999999999
 41
0.0
 71
     5
 72
     1
  1
30.5
 11
0.0000000000000001
 21
1.0
 31
0.0
 73
     1
 44
1.0
  0
POINT
  5
1BCA
330
1BB8
100
AcDbEntity
  8
Defpoints
 62
     0
100
AcDbPoint
 10
443.5057256972604
 20
74.41901599081811
 30
0.0
  0
POINT
  5
1BCB
330
1BB8
100
AcDbEntity
  8
Defpoints
 62
     0
100
AcDbPoint
 10
443.5057256972603
 20
104.9190159908181
 30
0.0
  0
POINT
  5
1BCC
330
1BB8
100
AcDbEntity
  8
Defpoints
 62
     0
100
AcDbPoint
 10
470.4979498530051
 20
104.9190159908181
 30
0.0
  0
ENDBLK
  5
1BC3
330
1BB8
100
AcDbEntity
  8
0
100
AcDbBlockEnd
  0
BLOCK
  5
1D8D
330
1D81
100
AcDbEntity
  8
0
100
AcDbBlockBegin
  2
*D8
 70
     1
 10
0.0
 20
0.0
 30
0.0
  3
*D8
  1

  0
LINE
  5
1D8F
330
1D81
100
AcDbEntity
  8
AM_5
 62
     0
370
    -2
100
AcDbLine
 10
447.0057256972604
 20
74.41901599081811
 30
0.0
 11
492.6480660421332
 21
74.41901599081809
 31
0.0
  0
LINE
  5
1D90
330
1D81
100
AcDbEntity
  8
AM_5
 62
     0
370
    -2
100
AcDbLine
 10
433.4059778831693
 20
76.41901599081811
 30
0.0
 11
492.6480660421332
 21
76.41901599081809
 31
0.0
  0
LINE
  5
1D91
330
1D81
100
AcDbEntity
  8
AM_5
 62
     0
370
    -2
100
AcDbLine
 10
489.1480660421332
 20
67.4190159908181
 30
0.0
 11
489.1480660421332
 21
60.41901599081811
 31
0.0
  0
LINE
  5
1D92
330
1D81
100
AcDbEntity
  8
AM_5
 62
     0
370
    -2
100
AcDbLine
 10
489.1480660421332
 20
83.41901599081809
 30
0.0
 11
489.1480660421332
 21
90.41901599081809
 31
0.0
  0
LINE
  5
1D93
330
1D81
100
AcDbEntity
  8
AM_5
 62
     0
370
    -2
100
AcDbLine
 10
489.1480660421332
 20
90.41901599081809
 30
0.0
 11
494.0480660421331
 21
90.41901599081809
 31
0.0
  0
SOLID
  5
1D94
330
1D81
100
AcDbEntity
  8
AM_5
 62
     0
100
AcDbTrace
 10
487.9813993754665
 20
67.4190159908181
 30
0.0
 11
490.3147327087999
 21
67.4190159908181
 31
0.0
 12
489.1480660421332
 22
74.41901599081809
 32
0.0
 13
489.1480660421332
 23
74.41901599081809
 33
0.0
  0
SOLID
  5
1D95
330
1D81
100
AcDbEntity
  8
AM_5
 62
     0
100
AcDbTrace
 10
487.9813993754665
 20
83.41901599081809
 30
0.0
 11
490.3147327087999
 21
83.41901599081809
 31
0.0
 12
489.1480660421332
 22
76.41901599081809
 32
0.0
 13
489.1480660421332
 23
76.41901599081809
 33
0.0
  0
MTEXT
  5
1D96
330
1D81
100
AcDbEntity
  8
AM_5
 62
     0
100
AcDbMText
 10
492.6480660421332
 20
94.61901599081818
 30
0.0
 40
4.199999999999999
 41
0.0
 71
     5
 72
     1
  1
2
 73
     1
 44
1.0
  0
POINT
  5
1D97
330
1D81
100
AcDbEntity
  8
Defpoints
 62
     0
100
AcDbPoint
 10
443.5057256972604
 20
74.41901599081811
 30
0.0
  0
POINT
  5
1D98
330
1D81
100
AcDbEntity
  8
Defpoints
 62
     0
100
AcDbPoint
 10
429.9059778831693
 20
76.41901599081811
 30
0.0
  0
POINT
  5
1D99
330
1D81
100
AcDbEntity
  8
Defpoints
 62
     0
100
AcDbPoint
 10
489.1480660421332
 20
76.41901599081809
 30
0.0
  0
ENDBLK
  5
1D8E
330
1D81
100
AcDbEntity
  8
0
100
AcDbBlockEnd
  0
BLOCK
  5
1DE3
330
1DD7
100
AcDbEntity
  8
0
100
AcDbBlockBegin
  2
*D9
 70
     1
 10
0.0
 20
0.0
 30
0.0
  3
*D9
  1

  0
LINE
  5
1DE5
330
1DD7
100
AcDbEntity
  8
AM_5
 62
     0
370
    -2
100
AcDbLine
 10
420.3808516173218
 20
81.06901599081806
 30
0.0
 11
478.6480660421332
 21
81.06901599081806
 31
0.0
  0
LINE
  5
1DE6
330
1DD7
100
AcDbEntity
  8
AM_5
 62
     0
370
    -2
100
AcDbLine
 10
420.731301979424
 20
76.41901599081811
 30
0.0
 11
478.6480660421332
 21
76.41901599081811
 31
0.0
  0
LINE
  5
1DE7
330
1DD7
100
AcDbEntity
  8
AM_5
 62
     0
370
    -2
100
AcDbLine
 10
475.1480660421332
 20
88.06901599081806
 30
0.0
 11
475.1480660421332
 21
95.06901599081805
 31
0.0
  0
LINE
  5
1DE8
330
1DD7
100
AcDbEntity
  8
AM_5
 62
     0
370
    -2
100
AcDbLine
 10
475.1480660421332
 20
69.41901599081811
 30
0.0
 11
475.1480660421332
 21
62.4190159908181
 31
0.0
  0
LINE
  5
1DE9
330
1DD7
100
AcDbEntity
  8
AM_5
 62
     0
370
    -2
100
AcDbLine
 10
475.1480660421332
 20
62.4190159908181
 30
0.0
 11
460.4480660421333
 21
62.41901599081811
 31
0.0
  0
SOLID
  5
1DEA
330
1DD7
100
AcDbEntity
  8
AM_5
 62
     0
100
AcDbTrace
 10
473.9813993754665
 20
88.06901599081806
 30
0.0
 11
476.3147327087999
 21
88.06901599081806
 31
0.0
 12
475.1480660421332
 22
81.06901599081806
 32
0.0
 13
475.1480660421332
 23
81.06901599081806
 33
0.0
  0
SOLID
  5
1DEB
330
1DD7
100
AcDbEntity
  8
AM_5
 62
     0
100
AcDbTrace
 10
473.9813993754665
 20
69.41901599081811
 30
0.0
 11
476.3147327087999
 21
69.41901599081811
 31
0.0
 12
475.1480660421332
 22
76.41901599081811
 32
0.0
 13
475.1480660421332
 23
76.41901599081811
 33
0.0
  0
MTEXT
  5
1DEC
330
1DD7
100
AcDbEntity
  8
AM_5
 62
     0
100
AcDbMText
 10
466.7480660421333
 20
66.61901599081819
 30
0.0
 40
4.199999999999999
 41
0.0
 71
     5
 72
     1
  1
4.65
 73
     1
 44
1.0
  0
POINT
  5
1DED
330
1DD7
100
AcDbEntity
  8
Defpoints
 62
     0
100
AcDbPoint
 10
416.8808516173218
 20
81.06901599081806
 30
0.0
  0
POINT
  5
1DEE
330
1DD7
100
AcDbEntity
  8
Defpoints
 62
     0
100
AcDbPoint
 10
417.2313019794239
 20
76.41901599081811
 30
0.0
  0
POINT
  5
1DEF
330
1DD7
100
AcDbEntity
  8
Defpoints
 62
     0
100
AcDbPoint
 10
475.1480660421332
 20
76.41901599081811
 30
0.0
  0
ENDBLK
  5
1DE4
330
1DD7
100
AcDbEntity
  8
0
100
AcDbBlockEnd
  0
BLOCK
  5
1F21
330
1F16
100
AcDbEntity
  8
0
100
AcDbBlockBegin
  2
*D10
 70
     1
 10
0.0
 20
0.0
 30
0.0
  3
*D10
  1

  0
LINE
  5
1F23
330
1F16
100
AcDbEntity
  8
AM_5
 62
     0
370
    -2
100
AcDbLine
 10
285.9059778831693
 20
92.51901599081804
 30
0.0
 11
285.9059778831693
 21
109.319015990818
 31
0.0
  0
LINE
  5
1F24
330
1F16
100
AcDbEntity
  8
AM_5
 62
     0
370
    -2
100
AcDbLine
 10
294.9059778831692
 20
92.51901599081804
 30
0.0
 11
294.9059778831692
 21
109.319015990818
 31
0.0
  0
LINE
  5
1F25
330
1F16
100
AcDbEntity
  8
AM_5
 62
     0
370
    -2
100
AcDbLine
 10
278.9059778831693
 20
105.819015990818
 30
0.0
 11
271.9059778831693
 21
105.819015990818
 31
0.0
  0
LINE
  5
1F26
330
1F16
100
AcDbEntity
  8
AM_5
 62
     0
370
    -2
100
AcDbLine
 10
301.9059778831693
 20
105.819015990818
 30
0.0
 11
308.9059778831693
 21
105.819015990818
 31
0.0
  0
SOLID
  5
1F27
330
1F16
100
AcDbEntity
  8
AM_5
 62
     0
100
AcDbTrace
 10
278.9059778831693
 20
106.9856826574847
 30
0.0
 11
278.9059778831693
 21
104.6523493241513
 31
0.0
 12
285.9059778831693
 22
105.819015990818
 32
0.0
 13
285.9059778831693
 23
105.819015990818
 33
0.0
  0
SOLID
  5
1F28
330
1F16
100
AcDbEntity
  8
AM_5
 62
     0
100
AcDbTrace
 10
301.9059778831693
 20
106.9856826574847
 30
0.0
 11
301.9059778831693
 21
104.6523493241513
 31
0.0
 12
294.9059778831692
 22
105.819015990818
 32
0.0
 13
294.9059778831692
 23
105.819015990818
 33
0.0
  0
MTEXT
  5
1F29
330
1F16
100
AcDbEntity
  8
AM_5
 62
     0
100
AcDbMText
 10
290.4059778831692
 20
110.019015990818
 30
0.0
 40
4.199999999999999
 41
0.0
 71
     5
 72
     1
  1
9
 73
     1
 44
1.0
  0
POINT
  5
1F2A
330
1F16
100
AcDbEntity
  8
Defpoints
 62
     0
100
AcDbPoint
 10
285.9059778831693
 20
89.01901599081805
 30
0.0
  0
POINT
  5
1F2B
330
1F16
100
AcDbEntity
  8
Defpoints
 62
     0
100
AcDbPoint
 10
294.9059778831692
 20
89.01901599081805
 30
0.0
  0
POINT
  5
1F2C
330
1F16
100
AcDbEntity
  8
Defpoints
 62
     0
100
AcDbPoint
 10
294.9059778831692
 20
105.819015990818
 30
0.0
  0
ENDBLK
  5
1F22
330
1F16
100
AcDbEntity
  8
0
100
AcDbBlockEnd
  0
BLOCK
  5
2057
330
204D
100
AcDbEntity
  8
0
100
AcDbBlockBegin
  2
*D12
 70
     1
 10
0.0
 20
0.0
 30
0.0
  3
*D12
  1

  0
LINE
  5
2059
330
204D
100
AcDbEntity
  8
AM_5
 62
     0
370
    -2
100
AcDbLine
 10
443.5057256972604
 20
70.91901599081811
 30
0.0
 11
443.5057256972604
 21
54.11901599081807
 31
0.0
  0
LINE
  5
205A
330
204D
100
AcDbEntity
  8
AM_5
 62
     0
370
    -2
100
AcDbLine
 10
397.9059778831693
 20
85.36401599081811
 30
0.0
 11
397.9059778831693
 21
54.11901599081807
 31
0.0
  0
LINE
  5
205B
330
204D
100
AcDbEntity
  8
AM_5
 62
     0
370
    -2
100
AcDbLine
 10
436.5057256972604
 20
57.61901599081807
 30
0.0
 11
404.9059778831693
 21
57.61901599081807
 31
0.0
  0
SOLID
  5
205C
330
204D
100
AcDbEntity
  8
AM_5
 62
     0
100
AcDbTrace
 10
436.5057256972604
 20
58.78568265748473
 30
0.0
 11
436.5057256972604
 21
56.4523493241514
 31
0.0
 12
443.5057256972604
 22
57.61901599081807
 32
0.0
 13
443.5057256972604
 23
57.61901599081807
 33
0.0
  0
SOLID
  5
205D
330
204D
100
AcDbEntity
  8
AM_5
 62
     0
100
AcDbTrace
 10
404.9059778831693
 20
58.78568265748473
 30
0.0
 11
404.9059778831693
 21
56.4523493241514
 31
0.0
 12
397.9059778831693
 22
57.61901599081807
 32
0.0
 13
397.9059778831693
 23
57.61901599081807
 33
0.0
  0
MTEXT
  5
205E
330
204D
100
AcDbEntity
  8
AM_5
 62
     0
100
AcDbMText
 10
420.7058517902148
 20
61.81901599081808
 30
0.0
 40
4.199999999999999
 41
0.0
 71
     5
 72
     1
  1
45.6
 73
     1
 44
1.0
  0
POINT
  5
205F
330
204D
100
AcDbEntity
  8
Defpoints
 62
     0
100
AcDbPoint
 10
443.5057256972604
 20
74.41901599081811
 30
0.0
  0
POINT
  5
2060
330
204D
100
AcDbEntity
  8
Defpoints
 62
     0
100
AcDbPoint
 10
397.9059778831693
 20
88.86401599081811
 30
0.0
  0
POINT
  5
2061
330
204D
100
AcDbEntity
  8
Defpoints
 62
     0
100
AcDbPoint
 10
397.9059778831693
 20
57.61901599081807
 30
0.0
  0
ENDBLK
  5
2058
330
204D
100
AcDbEntity
  8
0
100
AcDbBlockEnd
  0
BLOCK
  5
207B
330
2071
100
AcDbEntity
  8
0
100
AcDbBlockBegin
  2
*D13
 70
     1
 10
0.0
 20
0.0
 30
0.0
  3
*D13
  1

  0
LINE
  5
207D
330
2071
100
AcDbEntity
  8
AM_5
 62
     0
370
    -2
100
AcDbLine
 10
443.5057256972604
 20
70.91901599081811
 30
0.0
 11
443.5057256972604
 21
35.60240056192106
 31
0.0
  0
LINE
  5
207E
330
2071
100
AcDbEntity
  8
AM_5
 62
     0
370
    -2
100
AcDbLine
 10
341.9059778831693
 20
85.36401599081811
 30
0.0
 11
341.9059778831693
 21
35.60240056192106
 31
0.0
  0
LINE
  5
207F
330
2071
100
AcDbEntity
  8
AM_5
 62
     0
370
    -2
100
AcDbLine
 10
436.5057256972604
 20
39.10240056192106
 30
0.0
 11
348.9059778831693
 21
39.10240056192106
 31
0.0
  0
SOLID
  5
2080
330
2071
100
AcDbEntity
  8
AM_5
 62
     0
100
AcDbTrace
 10
436.5057256972604
 20
40.26906722858772
 30
0.0
 11
436.5057256972604
 21
37.9357338952544
 31
0.0
 12
443.5057256972604
 22
39.10240056192106
 32
0.0
 13
443.5057256972604
 23
39.10240056192106
 33
0.0
  0
SOLID
  5
2081
330
2071
100
AcDbEntity
  8
AM_5
 62
     0
100
AcDbTrace
 10
348.9059778831693
 20
40.26906722858772
 30
0.0
 11
348.9059778831693
 21
37.9357338952544
 31
0.0
 12
341.9059778831693
 22
39.10240056192106
 32
0.0
 13
341.9059778831693
 23
39.10240056192106
 33
0.0
  0
MTEXT
  5
2082
330
2071
100
AcDbEntity
  8
AM_5
 62
     0
100
AcDbMText
 10
392.7058517902149
 20
43.30240056192105
 30
0.0
 40
4.199999999999999
 41
0.0
 71
     5
 72
     1
  1
101.6
 73
     1
 44
1.0
  0
POINT
  5
2083
330
2071
100
AcDbEntity
  8
Defpoints
 62
     0
100
AcDbPoint
 10
443.5057256972604
 20
74.41901599081811
 30
0.0
  0
POINT
  5
2084
330
2071
100
AcDbEntity
  8
Defpoints
 62
     0
100
AcDbPoint
 10
341.9059778831693
 20
88.86401599081811
 30
0.0
  0
POINT
  5
2085
330
2071
100
AcDbEntity
  8
Defpoints
 62
     0
100
AcDbPoint
 10
341.9059778831693
 20
39.10240056192106
 30
0.0
  0
ENDBLK
  5
207C
330
2071
100
AcDbEntity
  8
0
100
AcDbBlockEnd
  0
BLOCK
  5
209F
330
2095
100
AcDbEntity
  8
0
100
AcDbBlockBegin
  2
*D14
 70
     1
 10
0.0
 20
0.0
 30
0.0
  3
*D14
  1

  0
LINE
  5
20A1
330
2095
100
AcDbEntity
  8
AM_5
 62
     0
370
    -2
100
AcDbLine
 10
443.5057256972604
 20
70.91901599081811
 30
0.0
 11
443.5057256972604
 21
14.33249538354289
 31
0.0
  0
LINE
  5
20A2
330
2095
100
AcDbEntity
  8
AM_5
 62
     0
370
    -2
100
AcDbLine
 10
285.9059778831693
 20
85.36401599081811
 30
0.0
 11
285.9059778831693
 21
14.33249538354289
 31
0.0
  0
LINE
  5
20A3
330
2095
100
AcDbEntity
  8
AM_5
 62
     0
370
    -2
100
AcDbLine
 10
436.5057256972604
 20
17.83249538354289
 30
0.0
 11
292.9059778831692
 21
17.83249538354289
 31
0.0
  0
SOLID
  5
20A4
330
2095
100
AcDbEntity
  8
AM_5
 62
     0
100
AcDbTrace
 10
436.5057256972604
 20
18.99916205020956
 30
0.0
 11
436.5057256972604
 21
16.66582871687622
 31
0.0
 12
443.5057256972604
 22
17.83249538354289
 32
0.0
 13
443.5057256972604
 23
17.83249538354289
 33
0.0
  0
SOLID
  5
20A5
330
2095
100
AcDbEntity
  8
AM_5
 62
     0
100
AcDbTrace
 10
292.9059778831692
 20
18.99916205020956
 30
0.0
 11
292.9059778831692
 21
16.66582871687622
 31
0.0
 12
285.9059778831693
 22
17.83249538354289
 32
0.0
 13
285.9059778831693
 23
17.83249538354289
 33
0.0
  0
MTEXT
  5
20A6
330
2095
100
AcDbEntity
  8
AM_5
 62
     0
100
AcDbMText
 10
364.7058517902149
 20
22.03249538354289
 30
0.0
 40
4.199999999999999
 41
0.0
 71
     5
 72
     1
  1
157.6
 73
     1
 44
1.0
  0
POINT
  5
20A7
330
2095
100
AcDbEntity
  8
Defpoints
 62
     0
100
AcDbPoint
 10
443.5057256972604
 20
74.41901599081811
 30
0.0
  0
POINT
  5
20A8
330
2095
100
AcDbEntity
  8
Defpoints
 62
     0
100
AcDbPoint
 10
285.9059778831693
 20
88.86401599081811
 30
0.0
  0
POINT
  5
20A9
330
2095
100
AcDbEntity
  8
Defpoints
 62
     0
100
AcDbPoint
 10
285.9059778831693
 20
17.83249538354289
 30
0.0
  0
ENDBLK
  5
20A0
330
2095
100
AcDbEntity
  8
0
100
AcDbBlockEnd
  0
ENDSEC
  0
SECTION
  2
ENTITIES
  0
LINE
  5
397
330
1F
100
AcDbEntity
  8
BORDER
100
AcDbLine
 10
793.5907307852676
 20
4.999975000038887
 30
0.0
 11
793.5907307852676
 21
0.0
 31
0.0
  0
TEXT
  5
398
330
1F
100
AcDbEntity
  8
BORDER
100
AcDbText
 10
717.1134706487137
 20
2.816719309470443
 30
0.0
 40
1.499994000006
  1
SCALE                   RELEASED                          SHEET
  7
SIMPLEX
100
AcDbText
  0
LINE
  5
399
330
1F
100
AcDbEntity
  8
BORDER
100
AcDbLine
 10
646.9247974507616
 20
39.99980000032002
 30
0.0
 11
840.1594900910685
 21
39.99980000032002
 31
0.0
  0
LINE
  5
39A
330
1F
100
AcDbEntity
  8
BORDER
100
AcDbLine
 10
646.9247974507616
 20
19.99990000016004
 30
0.0
 11
840.1594900910685
 21
19.99990000016004
 31
0.0
  0
LINE
  5
39B
330
1F
100
AcDbEntity
  8
BORDER
100
AcDbLine
 10
646.9247974507616
 20
49.99975000039928
 30
0.0
 11
840.2571641189748
 21
49.99975000039928
 31
0.0
  0
LINE
  5
39C
330
1F
100
AcDbEntity
  8
BORDER
100
AcDbLine
 10
713.5911307846274
 20
4.999975000038887
 30
0.0
 11
840.1594900910685
 21
4.999975000038887
 31
0.0
  0
TEXT
  5
39D
330
1F
100
AcDbEntity
  8
BORDER
100
AcDbText
 10
726.2712413264912
 20
40.97831107130679
 30
0.0
 40
7.999968000032
  1
AMSAT-ZL
 41
1.5
  7
COMPLEX
 72
     1
 11
773.985336183825
 21
40.97831107130679
 31
0.0
100
AcDbText
  0
LINE
  5
39E
330
1F
100
AcDbEntity
  8
BORDER
100
AcDbLine
 10
746.9242974515632
 20
4.999975000038887
 30
0.0
 11
746.9242974515632
 21
0.0
 31
0.0
  0
LINE
  5
39F
330
1F
100
AcDbEntity
  8
BORDER
100
AcDbLine
 10
693.5912307844687
 20
39.99980000032002
 30
0.0
 11
693.5912307844687
 21
0.3738492485908296
 31
0.0
  0
LINE
  5
3A0
330
1F
100
AcDbEntity
  8
BORDER
100
AcDbLine
 10
713.5911307846274
 20
49.99975000039928
 30
0.0
 11
713.5911307846274
 21
0.8525197334925564
 31
0.0
  0
LINE
  5
3A1
330
1F
100
AcDbEntity
  8
BORDER
100
AcDbLine
 10
646.9247974507616
 20
0.0
 30
0.0
 11
646.9247974507616
 21
49.99975000039928
 31
0.0
  0
TEXT
  5
3A2
330
1F
100
AcDbEntity
  8
BORDER
100
AcDbText
 10
662.7695573494969
 20
41.47348743499986
 30
0.0
 40
4.99998000002
  1
KiwiSAT
 41
1.3
  7
SIMPLEX
 72
     1
 11
680.5671052067109
 21
41.47348743499986
 31
0.0
100
AcDbText
  0
LINE
  5
3A3
330
1F
100
AcDbEntity
  8
BORDER
100
AcDbLine
 10
646.9247974507616
 20
29.99985000023929
 30
0.0
 11
713.5911307846274
 21
29.99985000023929
 31
0.0
  0
LINE
  5
3A4
330
1F
100
AcDbEntity
  8
BORDER
100
AcDbLine
 10
646.9247974507616
 20
9.999950000079309
 30
0.0
 11
713.5911307846274
 21
9.999950000079309
 31
0.0
  0
TEXT
  5
3A5
330
1F
100
AcDbEntity
  8
BORDER
100
AcDbText
 10
650.2416451135643
 20
17.98562191722345
 30
0.0
 40
1.499994000006
  1
DESIGN
  7
SIMPLEX
100
AcDbText
  0
TEXT
  5
3A6
330
1F
100
AcDbEntity
  8
BORDER
100
AcDbText
 10
650.2416451135643
 20
7.702459431228135
 30
0.0
 40
1.499994000006
  1
ENGINEER
  7
SIMPLEX
100
AcDbText
  0
TEXT
  5
3A7
330
1F
100
AcDbEntity
  8
BORDER
100
AcDbText
 10
649.8928092996099
 20
37.06641779814385
 30
0.0
 40
1.499994000006
  1
DRAWN
  7
SIMPLEX
100
AcDbText
  0
TEXT
  5
3A8
330
1F
100
AcDbEntity
  8
BORDER
100
AcDbText
 10
650.2416451135643
 20
27.27843167583859
 30
0.0
 40
1.499994000006
  1
CHECK
  7
SIMPLEX
100
AcDbText
  0
TEXT
  5
3A9
330
1F
100
AcDbEntity
  8
BORDER
100
AcDbText
 10
650.2416451135643
 20
47.33307440535083
 30
0.0
 40
1.499994000006
  1
PROJECT
  7
SIMPLEX
100
AcDbText
  0
TEXT
  5
3AA
330
1F
100
AcDbEntity
  8
BORDER
100
AcDbText
 10
697.1135506486346
 20
37.54508828304415
 30
0.0
 40
1.499994000006
  1
DATE          TITLE
  7
SIMPLEX
100
AcDbText
  0
TEXT
  5
3AB
330
1F
100
AcDbEntity
  8
BORDER
100
AcDbText
 10
717.1134706487137
 20
17.98562191722345
 30
0.0
 40
1.499994000006
  1
SIZE           DWG. NO.
  7
SIMPLEX
100
AcDbText
  0
LINE
  5
3AC
330
1F
100
AcDbEntity
  8
BORDER
100
AcDbLine
 10
733.591030784786
 20
19.99990000016004
 30
0.0
 11
733.591030784786
 21
4.999975000038887
 31
0.0
  0
TEXT
  5
3AD
330
1F
100
AcDbEntity
  8
BORDER
100
AcDbText
 10
721.5729806330651
 20
9.143280773021444
 30
0.0
 40
7.619984759999998
  1
A
  7
SIMPLEX
 72
     1
 11
724.4758319702079
 21
9.143280773021444
 31
0.0
100
AcDbText
  0
LWPOLYLINE
  5
3BA
330
1F
100
AcDbEntity
  8
0
100
AcDbPolyline
 90
        5
 70
     1
 43
0.0
 10
0.0
 20
0.0
 10
0.0
 20
594.0
 10
840.0
 20
594.0
 10
840.0
 20
0.0
 10
0.0
 20
0.0
  0
TEXT
  5
B91
330
1F
100
AcDbEntity
  8
0
100
AcDbText
 10
659.9066643574519
 20
32.92251812612062
 30
0.0
 40
5.0
  1
A.G.K.
100
AcDbText
  0
LINE
  5
148A
330
1F
100
AcDbEntity
  8
0
100
AcDbLine
 10
210.2557253514739
 20
426.2271445474651
 30
0.0
 11
228.255725351474
 21
426.2271445474651
 31
0.0
  0
LINE
  5
148B
330
1F
100
AcDbEntity
  8
0
100
AcDbLine
 10
425.5059778831694
 20
426.2271445474651
 30
0.0
 11
443.5059778831693
 21
426.2271445474651
 31
0.0
  0
LINE
  5
148C
330
1F
100
AcDbEntity
  8
0
100
AcDbLine
 10
443.5059778831692
 20
408.227144547465
 30
0.0
 11
443.5059778831693
 21
408.2271445474651
 31
0.0
  0
ARC
  5
148D
330
1F
100
AcDbEntity
  8
0
100
AcDbCircle
 10
443.5059778831692
 20
402.227144547465
 30
0.0
 40
6.0
100
AcDbArc
 50
90.0
 51
180.0
1001
GENIUS_GENOBJ-N-FIL_13
1002
{
1000
OWNER
1000
GEN
1002
}
1001
GENIUS_GENODEF_13
1002
{
1000
HIER
1070
     0
1002
}
1002
{
1000
MANEDIT
1070
     0
1002
}
1002
{
1000
NOSEL
1070
     0
1002
}
1002
{
1000
BEHIND
1070
     0
1002
}
1002
{
1000
OTHER
1070
     0
1002
}
1002
{
1000
REACTOR
1002
}
  0
LINE
  5
148E
330
1F
100
AcDbEntity
  8
0
100
AcDbLine
 10
210.2557253514739
 20
408.227144547465
 30
0.0
 11
210.2557253514739
 21
408.2271445474649
 31
0.0
  0
LINE
  5
148F
330
1F
100
AcDbEntity
  8
0
100
AcDbLine
 10
234.255725351474
 20
420.227144547465
 30
0.0
 11
419.5059778831694
 21
420.227144547465
 31
0.0
  0
ARC
  5
1490
330
1F
100
AcDbEntity
  8
0
100
AcDbCircle
 10
234.255725351474
 20
426.2271445474652
 30
0.0
 40
6.0
100
AcDbArc
 50
180.0
 51
270.0
1001
GENIUS_GENODEF_13
1002
{
1000
HIER
1070
     0
1002
}
1002
{
1000
MANEDIT
1070
     0
1002
}
1002
{
1000
NOSEL
1070
     0
1002
}
1002
{
1000
BEHIND
1070
     0
1002
}
1002
{
1000
OTHER
1070
     0
1002
}
1002
{
1000
REACTOR
1002
}
1001
GENIUS_GENOBJ-N-FIL_13
1002
{
1000
OWNER
1000
GEN
1002
}
  0
LINE
  5
1491
330
1F
100
AcDbEntity
  8
0
100
AcDbLine
 10
223.8557253514739
 20
418.6271445474651
 30
0.0
 11
429.9059778831692
 21
418.627144547465
 31
0.0
  0
ARC
  5
1492
330
1F
100
AcDbEntity
  8
0
100
AcDbCircle
 10
223.8557253514739
 20
412.6271445474651
 30
0.0
 40
6.0
100
AcDbArc
 50
90.0
 51
180.0
1001
GENIUS_GENOBJ-N-FIL_13
1002
{
1000
OWNER
1000
GEN
1002
}
1001
GENIUS_GENODEF_13
1002
{
1000
HIER
1070
     0
1002
}
1002
{
1000
MANEDIT
1070
     0
1002
}
1002
{
1000
NOSEL
1070
     0
1002
}
1002
{
1000
BEHIND
1070
     0
1002
}
1002
{
1000
OTHER
1070
     0
1002
}
1002
{
1000
REACTOR
1002
}
  0
LINE
  5
1494
330
1F
100
AcDbEntity
  8
0
100
AcDbLine
 10
443.5059778831693
 20
426.2271445474651
 30
0.0
 11
443.5059778831692
 21
408.227144547465
 31
0.0
  0
ARC
  5
1495
330
1F
100
AcDbEntity
  8
0
100
AcDbCircle
 10
419.5059778831694
 20
426.2271445474651
 30
0.0
 40
6.0
100
AcDbArc
 50
270.0
 51
0.0
1001
GENIUS_GENOBJ-N-FIL_13
1002
{
1000
OWNER
1000
GEN
1002
}
1001
GENIUS_GENODEF_13
1002
{
1000
HIER
1070
     0
1002
}
1002
{
1000
MANEDIT
1070
     0
1002
}
1002
{
1000
NOSEL
1070
     0
1002
}
1002
{
1000
BEHIND
1070
     0
1002
}
1002
{
1000
OTHER
1070
     0
1002
}
1002
{
1000
REACTOR
1002
}
  0
LINE
  5
1496
330
1F
100
AcDbEntity
  8
0
100
AcDbLine
 10
437.5059778831692
 20
402.227144547465
 30
0.0
 11
437.5059778831694
 21
216.9768920157704
 31
0.0
  0
LINE
  5
1497
330
1F
100
AcDbEntity
  8
0
100
AcDbLine
 10
435.9059778831691
 20
412.627144547465
 30
0.0
 11
435.9059778831693
 21
222.5768920157705
 31
0.0
  0
ARC
  5
1498
330
1F
100
AcDbEntity
  8
0
100
AcDbCircle
 10
429.9059778831693
 20
222.5768920157705
 30
0.0
 40
6.0
100
AcDbArc
 50
270.0
 51
0.0
1001
GENIUS_GENOBJ-N-FIL_13
1002
{
1000
OWNER
1000
GEN
1002
}
1001
GENIUS_GENODEF_13
1002
{
1000
HIER
1070
     0
1002
}
1002
{
1000
MANEDIT
1070
     0
1002
}
1002
{
1000
NOSEL
1070
     0
1002
}
1002
{
1000
BEHIND
1070
     0
1002
}
1002
{
1000
OTHER
1070
     0
1002
}
1002
{
1000
REACTOR
1002
}
  0
ARC
  5
1499
330
1F
100
AcDbEntity
  8
0
100
AcDbCircle
 10
429.9059778831692
 20
412.627144547465
 30
0.0
 40
6.0
100
AcDbArc
 50
0.0
 51
90.0
1001
GENIUS_GENODEF_13
1002
{
1000
HIER
1070
     0
1002
}
1002
{
1000
MANEDIT
1070
     0
1002
}
1002
{
1000
NOSEL
1070
     0
1002
}
1002
{
1000
BEHIND
1070
     0
1002
}
1002
{
1000
OTHER
1070
     0
1002
}
1002
{
1000
REACTOR
1002
}
1001
GENIUS_GENOBJ-N-FIL_13
1002
{
1000
OWNER
1000
GEN
1002
}
  0
LINE
  5
149C
330
1F
100
AcDbEntity
  8
0
100
AcDbLine
 10
210.2557253514739
 20
408.2271445474649
 30
0.0
 11
210.2557253514739
 21
426.2271445474651
 31
0.0
  0
LINE
  5
149D
330
1F
100
AcDbEntity
  8
0
100
AcDbLine
 10
228.2557253514739
 20
192.9768920157705
 30
0.0
 11
228.2557253514739
 21
208.9768920157705
 31
0.0
  0
ARC
  5
149E
330
1F
100
AcDbEntity
  8
0
100
AcDbCircle
 10
234.2557253514739
 20
208.9768920157705
 30
0.0
 40
6.0
100
AcDbArc
 50
90.0
 51
180.0
1001
GENIUS_GENODEF_13
1002
{
1000
HIER
1070
     0
1002
}
1002
{
1000
MANEDIT
1070
     0
1002
}
1002
{
1000
NOSEL
1070
     0
1002
}
1002
{
1000
BEHIND
1070
     0
1002
}
1002
{
1000
OTHER
1070
     0
1002
}
1002
{
1000
REACTOR
1002
}
1001
GENIUS_GENOBJ-N-FIL_13
1002
{
1000
OWNER
1000
GEN
1002
}
  0
LINE
  5
149F
330
1F
100
AcDbEntity
  8
0
100
AcDbLine
 10
216.2557253514739
 20
216.9768920157705
 30
0.0
 11
216.2557253514739
 21
402.2271445474649
 31
0.0
  0
ARC
  5
14A0
330
1F
100
AcDbEntity
  8
0
100
AcDbCircle
 10
210.2557253514739
 20
216.9768920157705
 30
0.0
 40
6.0
100
AcDbArc
 50
270.0
 51
0.0
1001
GENIUS_GENOBJ-N-FIL_13
1002
{
1000
OWNER
1000
GEN
1002
}
1001
GENIUS_GENODEF_13
1002
{
1000
HIER
1070
     0
1002
}
1002
{
1000
MANEDIT
1070
     0
1002
}
1002
{
1000
NOSEL
1070
     0
1002
}
1002
{
1000
BEHIND
1070
     0
1002
}
1002
{
1000
OTHER
1070
     0
1002
}
1002
{
1000
REACTOR
1002
}
  0
ARC
  5
14A1
330
1F
100
AcDbEntity
  8
0
100
AcDbCircle
 10
210.2557253514739
 20
402.2271445474649
 30
0.0
 40
6.0
100
AcDbArc
 50
0.0
 51
90.0
1001
GENIUS_GENODEF_13
1002
{
1000
HIER
1070
     0
1002
}
1002
{
1000
MANEDIT
1070
     0
1002
}
1002
{
1000
NOSEL
1070
     0
1002
}
1002
{
1000
BEHIND
1070
     0
1002
}
1002
{
1000
OTHER
1070
     0
1002
}
1002
{
1000
REACTOR
1002
}
1001
GENIUS_GENOBJ-N-FIL_13
1002
{
1000
OWNER
1000
GEN
1002
}
  0
LINE
  5
14A2
330
1F
100
AcDbEntity
  8
0
100
AcDbLine
 10
217.8557253514741
 20
222.5768920157705
 30
0.0
 11
217.8557253514739
 21
412.6271445474651
 31
0.0
  0
LINE
  5
14A7
330
1F
100
AcDbEntity
  8
0
100
AcDbLine
 10
210.2557253514739
 20
210.9768920157705
 30
0.0
 11
210.255725351474
 21
192.9768920157705
 31
0.0
  0
LINE
  5
14A8
330
1F
100
AcDbEntity
  8
0
100
AcDbLine
 10
228.2557253514739
 20
192.9768920157705
 30
0.0
 11
210.255725351474
 21
192.9768920157705
 31
0.0
  0
LINE
  5
14A9
330
1F
100
AcDbEntity
  8
0
100
AcDbLine
 10
425.5059778831692
 20
192.9768920157704
 30
0.0
 11
443.5059778831694
 21
192.9768920157704
 31
0.0
  0
LINE
  5
14AA
330
1F
100
AcDbEntity
  8
0
100
AcDbLine
 10
443.5059778831694
 20
210.9768920157705
 30
0.0
 11
443.5059778831694
 21
210.9768920157705
 31
0.0
  0
ARC
  5
14AB
330
1F
100
AcDbEntity
  8
0
100
AcDbCircle
 10
443.5059778831694
 20
216.9768920157704
 30
0.0
 40
6.0
100
AcDbArc
 50
180.0
 51
270.0
1001
GENIUS_GENOBJ-N-FIL_13
1002
{
1000
OWNER
1000
GEN
1002
}
1001
GENIUS_GENODEF_13
1002
{
1000
HIER
1070
     0
1002
}
1002
{
1000
MANEDIT
1070
     0
1002
}
1002
{
1000
NOSEL
1070
     0
1002
}
1002
{
1000
BEHIND
1070
     0
1002
}
1002
{
1000
OTHER
1070
     0
1002
}
1002
{
1000
REACTOR
1002
}
  0
LINE
  5
14AC
330
1F
100
AcDbEntity
  8
0
100
AcDbLine
 10
234.2557253514739
 20
214.9768920157705
 30
0.0
 11
419.5059778831693
 21
214.9768920157705
 31
0.0
  0
LINE
  5
14AD
330
1F
100
AcDbEntity
  8
0
100
AcDbLine
 10
223.8557253514741
 20
216.5768920157705
 30
0.0
 11
429.9059778831693
 21
216.5768920157706
 31
0.0
  0
ARC
  5
14AE
330
1F
100
AcDbEntity
  8
0
100
AcDbCircle
 10
223.8557253514741
 20
222.5768920157705
 30
0.0
 40
6.0
100
AcDbArc
 50
180.0
 51
270.0
1001
GENIUS_GENODEF_13
1002
{
1000
HIER
1070
     0
1002
}
1002
{
1000
MANEDIT
1070
     0
1002
}
1002
{
1000
NOSEL
1070
     0
1002
}
1002
{
1000
BEHIND
1070
     0
1002
}
1002
{
1000
OTHER
1070
     0
1002
}
1002
{
1000
REACTOR
1002
}
1001
GENIUS_GENOBJ-N-FIL_13
1002
{
1000
OWNER
1000
GEN
1002
}
  0
LINE
  5
14AF
330
1F
100
AcDbEntity
  8
0
100
AcDbLine
 10
443.5059778831694
 20
210.9768920157705
 30
0.0
 11
443.5059778831694
 21
192.9768920157704
 31
0.0
  0
LINE
  5
14B0
330
1F
100
AcDbEntity
  8
0
100
AcDbLine
 10
425.5059778831693
 20
208.9768920157704
 30
0.0
 11
425.5059778831692
 21
192.9768920157704
 31
0.0
  0
ARC
  5
14B1
330
1F
100
AcDbEntity
  8
0
100
AcDbCircle
 10
419.5059778831693
 20
208.9768920157705
 30
0.0
 40
6.0
100
AcDbArc
 50
0.0
 51
90.0
1001
GENIUS_GENOBJ-N-FIL_13
1002
{
1000
OWNER
1000
GEN
1002
}
1001
GENIUS_GENODEF_13
1002
{
1000
HIER
1070
     0
1002
}
1002
{
1000
MANEDIT
1070
     0
1002
}
1002
{
1000
NOSEL
1070
     0
1002
}
1002
{
1000
BEHIND
1070
     0
1002
}
1002
{
1000
OTHER
1070
     0
1002
}
1002
{
1000
REACTOR
1002
}
  0
TEXT
  5
1639
330
1F
100
AcDbEntity
  8
0
100
AcDbText
 10
722.5792178976775
 20
25.68609442745924
 30
0.0
 40
5.0
  1
Tray - IHU
100
AcDbText
  0
LINE
  5
16D2
330
1F
100
AcDbEntity
  8
0
100
AcDbLine
 10
576.5314590076477
 20
193.0271445474651
 30
0.0
 11
576.5314590076477
 21
426.2271445474651
 31
0.0
  0
LINE
  5
16D4
330
1F
100
AcDbEntity
  8
0
100
AcDbLine
 10
546.0314590076477
 20
211.1271445474652
 30
0.0
 11
576.5314590076477
 21
211.1271445474652
 31
0.0
  0
LINE
  5
16D7
330
1F
100
AcDbEntity
  8
0
100
AcDbLine
 10
546.0314590076477
 20
193.0271445474651
 30
0.0
 11
576.5314590076477
 21
193.0271445474651
 31
0.0
  0
LINE
  5
16D9
330
1F
100
AcDbEntity
  8
HID
100
AcDbLine
 10
546.0314590076477
 20
204.4294164172564
 30
0.0
 11
576.531459007648
 21
204.4465279028999
 31
0.0
  0
LINE
  5
16DA
330
1F
100
AcDbEntity
  8
HID
100
AcDbLine
 10
546.0314590076477
 20
207.5294169051301
 30
0.0
 11
576.531459007648
 21
207.5465283907733
 31
0.0
  0
LINE
  5
16E1
330
1F
100
AcDbEntity
  8
0
100
AcDbLine
 10
546.0314590076477
 20
426.2271445474651
 30
0.0
 11
576.5314590076477
 21
426.2271445474651
 31
0.0
  0
LINE
  5
16E2
330
1F
100
AcDbEntity
  8
0
100
AcDbLine
 10
546.0314590076477
 20
408.2271445474651
 30
0.0
 11
576.5314590076477
 21
408.227144547465
 31
0.0
  0
LINE
  5
16E5
330
1F
100
AcDbEntity
  8
HID
100
AcDbLine
 10
546.0314590076477
 20
414.7271445474651
 30
0.0
 11
576.5314590076477
 21
414.7271445474651
 31
0.0
  0
LINE
  5
16E6
330
1F
100
AcDbEntity
  8
HID
100
AcDbLine
 10
546.0314590076477
 20
411.7271445474652
 30
0.0
 11
576.5314590076477
 21
411.7271445474652
 31
0.0
  0
CIRCLE
  5
1785
330
1F
100
AcDbEntity
  8
0
100
AcDbCircle
 10
216.8808516173217
 20
419.6020182816174
 30
0.0
 40
1.5
  0
CIRCLE
  5
1786
330
1F
100
AcDbEntity
  8
0
100
AcDbCircle
 10
436.8808516173216
 20
419.6020182816175
 30
0.0
 40
1.5
  0
CIRCLE
  5
1787
330
1F
100
AcDbEntity
  8
0
100
AcDbCircle
 10
436.8808516173216
 20
199.6020182816181
 30
0.0
 40
1.5
  0
CIRCLE
  5
1788
330
1F
100
AcDbEntity
  8
0
100
AcDbCircle
 10
216.8808516173214
 20
199.6020182816178
 30
0.0
 40
1.5
  0
LINE
  5
1795
330
1F
100
AcDbEntity
  8
HID
100
AcDbLine
 10
546.0314590076477
 20
201.1020182816182
 30
0.0
 11
576.531459007648
 21
201.1020182816182
 31
0.0
  0
LINE
  5
179B
330
1F
100
AcDbEntity
  8
HID
100
AcDbLine
 10
546.0314590076477
 20
198.1020182816181
 30
0.0
 11
576.531459007648
 21
198.1020182816181
 31
0.0
  0
LINE
  5
17A1
330
1F
100
AcDbEntity
  8
HID
100
AcDbLine
 10
546.0314590076477
 20
421.1020182816175
 30
0.0
 11
576.5314590076477
 21
421.1020182816175
 31
0.0
  0
LINE
  5
17A7
330
1F
100
AcDbEntity
  8
HID
100
AcDbLine
 10
546.0314590076477
 20
418.1020182816174
 30
0.0
 11
576.5314590076477
 21
418.1020182816174
 31
0.0
  0
LINE
  5
18B4
330
1F
100
AcDbEntity
  8
HID
100
AcDbLine
 10
574.5314590076477
 20
412.627144547465
 30
0.0
 11
574.5314590076477
 21
222.5768920157705
 31
0.0
  0
CIRCLE
  5
18EE
330
1F
100
AcDbEntity
  8
0
100
AcDbCircle
 10
214.255725351474
 20
205.9768920157705
 30
0.0
 40
1.6
  0
CIRCLE
  5
18EF
330
1F
100
AcDbEntity
  8
0
100
AcDbCircle
 10
439.5059778831694
 20
205.9768920157704
 30
0.0
 40
1.6
  0
CIRCLE
  5
18F0
330
1F
100
AcDbEntity
  8
0
100
AcDbCircle
 10
439.5059778831692
 20
413.2271445474652
 30
0.0
 40
1.6
  0
CIRCLE
  5
18F1
330
1F
100
AcDbEntity
  8
0
100
AcDbCircle
 10
214.2557253514739
 20
413.227144547465
 30
0.0
 40
1.6
  0
LINE
  5
18FA
330
1F
100
AcDbEntity
  8
HID
100
AcDbLine
 10
546.0314590076477
 20
420.2271445474651
 30
0.0
 11
576.5314590076477
 21
420.2271445474651
 31
0.0
  0
LINE
  5
18FB
330
1F
100
AcDbEntity
  8
HID
100
AcDbLine
 10
546.0314590076476
 20
418.627144547465
 30
0.0
 11
568.5314590076477
 21
418.627144547465
 31
0.0
  0
LINE
  5
18FC
330
1F
100
AcDbEntity
  8
HID
100
AcDbLine
 10
546.0314590076476
 20
216.5768920157705
 30
0.0
 11
568.5314590076477
 21
216.5768920157705
 31
0.0
  0
LINE
  5
18FD
330
1F
100
AcDbEntity
  8
HID
100
AcDbLine
 10
546.0314590076477
 20
214.9768920157705
 30
0.0
 11
576.5314590076476
 21
214.9768920157705
 31
0.0
  0
ARC
  5
1900
330
1F
100
AcDbEntity
  8
HID
100
AcDbCircle
 10
568.5314590076477
 20
412.627144547465
 30
0.0
 40
6.0
100
AcDbArc
 50
0.0
 51
90.0
1001
GENIUS_GENODEF_13
1002
{
1000
HIER
1070
     0
1002
}
1002
{
1000
MANEDIT
1070
     0
1002
}
1002
{
1000
NOSEL
1070
     0
1002
}
1002
{
1000
BEHIND
1070
     0
1002
}
1002
{
1000
OTHER
1070
     0
1002
}
1002
{
1000
REACTOR
1002
}
1001
GENIUS_GENOBJ-N-FIL_13
1002
{
1000
OWNER
1000
GEN
1002
}
  0
ARC
  5
1902
330
1F
100
AcDbEntity
  8
HID
100
AcDbCircle
 10
568.5314590076477
 20
222.5768920157705
 30
0.0
 40
6.0
100
AcDbArc
 50
270.0
 51
0.0
1001
GENIUS_GENODEF_13
1002
{
1000
HIER
1070
     0
1002
}
1002
{
1000
MANEDIT
1070
     0
1002
}
1002
{
1000
NOSEL
1070
     0
1002
}
1002
{
1000
BEHIND
1070
     0
1002
}
1002
{
1000
OTHER
1070
     0
1002
}
1002
{
1000
REACTOR
1002
}
1001
GENIUS_GENOBJ-N-FIL_13
1002
{
1000
OWNER
1000
GEN
1002
}
  0
LINE
  5
191C
330
1F
100
AcDbEntity
  8
0
100
AcDbLine
 10
425.5059778831694
 20
426.2271445474651
 30
0.0
 11
443.5059778831693
 21
426.2271445474651
 31
0.0
  0
DIMENSION
  5
196C
330
1F
100
AcDbEntity
  8
AM_5
100
AcDbDimension
  2
*D5
 10
193.455725351474
 20
192.9768920157705
 30
0.0
 11
189.255725351474
 21
309.6020182816178
 31
0.0
 70
    32
 71
     5
 42
233.2502525316946
  3
A3DIM$0
100
AcDbAlignedDimension
 13
210.2557253514739
 23
426.2271445474651
 33
0.0
 14
210.255725351474
 24
192.9768920157705
 34
0.0
 50
90.0
100
AcDbRotatedDimension
1001
ACAD
1000
DSTYLE
1002
{
1070
    40
1040
1.399999999999999
1002
}
  0
DIMENSION
  5
19B9
330
1F
100
AcDbEntity
  8
AM_5
100
AcDbDimension
  2
*D6
 10
443.5059778831694
 20
163.8574329844287
 30
0.0
 11
326.8808516173217
 21
168.0574329844286
 31
0.0
 70
    32
 71
     5
 42
233.2502525316954
  3
A3DIM$0
100
AcDbAlignedDimension
 13
210.255725351474
 23
192.9768920157705
 33
0.0
 14
443.5059778831694
 24
192.9768920157704
 34
0.0
 50
0.0000000000001132
100
AcDbRotatedDimension
1001
ACAD
1000
DSTYLE
1002
{
1070
    40
1040
1.399999999999999
1002
}
  0
LINE
  5
19F1
330
1F
100
AcDbEntity
  8
SECT
100
AcDbLine
 10
405.9061038032306
 20
216.5768920157705
 30
0.0
 11
405.9061038032306
 21
386.5768920157706
 31
0.0
  0
LINE
  5
19F7
330
1F
100
AcDbEntity
  8
SECT
100
AcDbLine
 10
225.9061038032306
 20
216.5768920157705
 30
0.0
 11
225.9061038032306
 21
386.5768920157705
 31
0.0
  0
LINE
  5
1A01
330
1F
100
AcDbEntity
  8
SECT
100
AcDbLine
 10
225.9061038032306
 20
386.5768920157704
 30
0.0
 11
405.9061038032306
 21
386.5768920157705
 31
0.0
  0
LINE
  5
1A5E
330
1F
100
AcDbEntity
  8
0
100
AcDbLine
 10
300.8059778831693
 20
83.86401599081816
 30
0.0
 11
336.0059778831693
 21
83.86401599081816
 31
0.0
  0
LINE
  5
1A5F
330
1F
100
AcDbEntity
  8
0
100
AcDbLine
 10
299.6559778831693
 20
93.86401599081811
 30
0.0
 11
337.1559778831693
 21
93.86401599081811
 31
0.0
  0
CIRCLE
  5
1A60
330
1F
100
AcDbEntity
  8
0
100
AcDbCircle
 10
294.9059778831692
 20
88.86401599081811
 30
0.0
 40
1.5
  0
CIRCLE
  5
1A61
330
1F
100
AcDbEntity
  8
0
100
AcDbCircle
 10
341.9059778831693
 20
88.86401599081811
 30
0.0
 40
1.5
  0
ARC
  5
1A62
330
1F
100
AcDbEntity
  8
0
100
AcDbCircle
 10
299.6559778831693
 20
91.86401599081809
 30
0.0
 40
2.0
100
AcDbArc
 50
90.0
 51
190.850104629798
  0
ARC
  5
1A63
330
1F
100
AcDbEntity
  8
0
100
AcDbCircle
 10
337.1559778831693
 20
91.86401599081809
 30
0.0
 40
2.0
100
AcDbArc
 50
349.149895370202
 51
90.0
  0
ARC
  5
1A64
330
1F
100
AcDbEntity
  8
0
100
AcDbCircle
 10
300.8059778831693
 20
85.8640159908181
 30
0.0
 40
2.0
100
AcDbArc
 50
190.850104629798
 51
270.0
  0
ARC
  5
1A65
330
1F
100
AcDbEntity
  8
0
100
AcDbCircle
 10
336.0059778831693
 20
85.8640159908181
 30
0.0
 40
2.0
100
AcDbArc
 50
270.0
 51
349.149895370202
  0
LINE
  5
1A66
330
1F
100
AcDbEntity
  8
0
100
AcDbLine
 10
297.6917318593152
 20
91.48753550291273
 30
0.0
 11
298.8417318593152
 21
85.48753550291271
 31
0.0
  0
LINE
  5
1A67
330
1F
100
AcDbEntity
  8
0
100
AcDbLine
 10
339.1202239070234
 20
91.48753550291273
 30
0.0
 11
337.9702239070233
 21
85.48753550291271
 31
0.0
  0
LINE
  5
1A68
330
1F
100
AcDbEntity
  8
0
100
AcDbLine
 10
356.8059778831692
 20
83.86401599081816
 30
0.0
 11
392.0059778831693
 21
83.86401599081816
 31
0.0
  0
LINE
  5
1A69
330
1F
100
AcDbEntity
  8
0
100
AcDbLine
 10
355.6559778831693
 20
93.86401599081811
 30
0.0
 11
393.1559778831693
 21
93.86401599081811
 31
0.0
  0
CIRCLE
  5
1A6A
330
1F
100
AcDbEntity
  8
0
100
AcDbCircle
 10
350.9059778831693
 20
88.86401599081811
 30
0.0
 40
1.5
  0
CIRCLE
  5
1A6B
330
1F
100
AcDbEntity
  8
0
100
AcDbCircle
 10
397.9059778831693
 20
88.86401599081811
 30
0.0
 40
1.5
  0
ARC
  5
1A6C
330
1F
100
AcDbEntity
  8
0
100
AcDbCircle
 10
355.6559778831693
 20
91.86401599081809
 30
0.0
 40
2.0
100
AcDbArc
 50
90.0
 51
190.850104629798
  0
ARC
  5
1A6D
330
1F
100
AcDbEntity
  8
0
100
AcDbCircle
 10
393.1559778831693
 20
91.86401599081809
 30
0.0
 40
2.0
100
AcDbArc
 50
349.149895370202
 51
90.0
  0
ARC
  5
1A6E
330
1F
100
AcDbEntity
  8
0
100
AcDbCircle
 10
356.8059778831692
 20
85.8640159908181
 30
0.0
 40
2.0
100
AcDbArc
 50
190.850104629798
 51
270.0
  0
ARC
  5
1A6F
330
1F
100
AcDbEntity
  8
0
100
AcDbCircle
 10
392.0059778831693
 20
85.8640159908181
 30
0.0
 40
2.0
100
AcDbArc
 50
270.0
 51
349.149895370202
  0
LINE
  5
1A70
330
1F
100
AcDbEntity
  8
0
100
AcDbLine
 10
353.6917318593152
 20
91.48753550291273
 30
0.0
 11
354.8417318593152
 21
85.48753550291271
 31
0.0
  0
LINE
  5
1A71
330
1F
100
AcDbEntity
  8
0
100
AcDbLine
 10
395.1202239070234
 20
91.48753550291273
 30
0.0
 11
393.9702239070233
 21
85.48753550291271
 31
0.0
  0
LINE
  5
1A72
330
1F
100
AcDbEntity
  8
0
100
AcDbLine
 10
356.8059778831692
 20
83.86401599081816
 30
0.0
 11
392.0059778831693
 21
83.86401599081816
 31
0.0
  0
LINE
  5
1A73
330
1F
100
AcDbEntity
  8
0
100
AcDbLine
 10
355.6559778831693
 20
93.86401599081811
 30
0.0
 11
393.1559778831693
 21
93.86401599081811
 31
0.0
  0
CIRCLE
  5
1A74
330
1F
100
AcDbEntity
  8
0
100
AcDbCircle
 10
350.9059778831693
 20
88.86401599081811
 30
0.0
 40
1.5
  0
CIRCLE
  5
1A75
330
1F
100
AcDbEntity
  8
0
100
AcDbCircle
 10
397.9059778831693
 20
88.86401599081811
 30
0.0
 40
1.5
  0
ARC
  5
1A76
330
1F
100
AcDbEntity
  8
0
100
AcDbCircle
 10
355.6559778831693
 20
91.86401599081809
 30
0.0
 40
2.0
100
AcDbArc
 50
90.0
 51
190.850104629798
  0
ARC
  5
1A77
330
1F
100
AcDbEntity
  8
0
100
AcDbCircle
 10
393.1559778831693
 20
91.86401599081809
 30
0.0
 40
2.0
100
AcDbArc
 50
349.149895370202
 51
90.0
  0
ARC
  5
1A78
330
1F
100
AcDbEntity
  8
0
100
AcDbCircle
 10
356.8059778831692
 20
85.8640159908181
 30
0.0
 40
2.0
100
AcDbArc
 50
190.850104629798
 51
270.0
  0
ARC
  5
1A79
330
1F
100
AcDbEntity
  8
0
100
AcDbCircle
 10
392.0059778831693
 20
85.8640159908181
 30
0.0
 40
2.0
100
AcDbArc
 50
270.0
 51
349.149895370202
  0
LINE
  5
1A7A
330
1F
100
AcDbEntity
  8
0
100
AcDbLine
 10
353.6917318593152
 20
91.48753550291273
 30
0.0
 11
354.8417318593152
 21
85.48753550291271
 31
0.0
  0
LINE
  5
1A7B
330
1F
100
AcDbEntity
  8
0
100
AcDbLine
 10
395.1202239070234
 20
91.48753550291273
 30
0.0
 11
393.9702239070233
 21
85.48753550291271
 31
0.0
  0
LINE
  5
1A7C
330
1F
100
AcDbEntity
  8
0
100
AcDbLine
 10
267.3059778831692
 20
83.86401599081816
 30
0.0
 11
279.5059778831693
 21
83.86401599081816
 31
0.0
  0
LINE
  5
1A7D
330
1F
100
AcDbEntity
  8
0
100
AcDbLine
 10
266.1559778831693
 20
93.86401599081811
 30
0.0
 11
280.6559778831693
 21
93.86401599081811
 31
0.0
  0
CIRCLE
  5
1A7E
330
1F
100
AcDbEntity
  8
0
100
AcDbCircle
 10
260.9059778831693
 20
88.86401599081811
 30
0.0
 40
1.5
  0
CIRCLE
  5
1A7F
330
1F
100
AcDbEntity
  8
0
100
AcDbCircle
 10
285.9059778831693
 20
88.86401599081811
 30
0.0
 40
1.5
  0
ARC
  5
1A80
330
1F
100
AcDbEntity
  8
0
100
AcDbCircle
 10
280.6559778831693
 20
91.86401599081809
 30
0.0
 40
2.0
100
AcDbArc
 50
349.149895370202
 51
90.0
  0
ARC
  5
1A81
330
1F
100
AcDbEntity
  8
0
100
AcDbCircle
 10
266.1559778831693
 20
91.86401599081809
 30
0.0
 40
2.0
100
AcDbArc
 50
90.0
 51
190.850104629798
  0
ARC
  5
1A82
330
1F
100
AcDbEntity
  8
0
100
AcDbCircle
 10
267.3059778831692
 20
85.8640159908181
 30
0.0
 40
2.0
100
AcDbArc
 50
190.850104629798
 51
270.0
  0
ARC
  5
1A83
330
1F
100
AcDbEntity
  8
0
100
AcDbCircle
 10
279.5059778831693
 20
85.8640159908181
 30
0.0
 40
2.0
100
AcDbArc
 50
270.0
 51
349.149895370202
  0
LINE
  5
1A84
330
1F
100
AcDbEntity
  8
0
100
AcDbLine
 10
264.1917318593152
 20
91.48753550291273
 30
0.0
 11
265.3417318593152
 21
85.48753550291271
 31
0.0
  0
LINE
  5
1A85
330
1F
100
AcDbEntity
  8
0
100
AcDbLine
 10
282.6202239070234
 20
91.48753550291273
 30
0.0
 11
281.4702239070233
 21
85.48753550291271
 31
0.0
  0
LINE
  5
1A86
330
1F
100
AcDbEntity
  8
0
100
AcDbLine
 10
210.2557256972604
 20
104.9190159908181
 30
0.0
 11
210.2557256972604
 21
74.41901599081813
 31
0.0
  0
LINE
  5
1A87
330
1F
100
AcDbEntity
  8
0
100
AcDbLine
 10
443.5057256972603
 20
104.9190159908181
 30
0.0
 11
443.5057256972604
 21
74.41901599081813
 31
0.0
  0
LINE
  5
1A88
330
1F
100
AcDbEntity
  8
0
100
AcDbLine
 10
228.2557253514739
 20
104.9190159908181
 30
0.0
 11
228.2557253514739
 21
74.41901599081813
 31
0.0
  0
LINE
  5
1A89
330
1F
100
AcDbEntity
  8
0
100
AcDbLine
 10
425.5059778831692
 20
104.9190159908181
 30
0.0
 11
425.5059778831692
 21
74.41901599081811
 31
0.0
  0
TEXT
  5
1A8A
330
1F
100
AcDbEntity
  8
SECT
100
AcDbText
 10
288.4117636900755
 20
297.4013771725479
 30
0.0
 40
10.0
  1
IHU Board
100
AcDbText
  0
LINE
  5
1A94
330
1F
100
AcDbEntity
  8
0
100
AcDbLine
 10
223.855725351474
 20
76.41901599081811
 30
0.0
 11
429.9059778831693
 21
76.41901599081811
 31
0.0
  0
LINE
  5
1AA0
330
1F
100
AcDbEntity
  8
SECT
100
AcDbLine
 10
225.9061038032306
 20
95.2140159908181
 30
0.0
 11
405.9061038032306
 21
95.2140159908181
 31
0.0
  0
LINE
  5
1AA6
330
1F
100
AcDbEntity
  8
SECT
100
AcDbLine
 10
225.9061038032305
 20
81.5190159908181
 30
0.0
 11
405.9061038032306
 21
81.5190159908181
 31
0.0
  0
LINE
  5
1AB0
330
1F
100
AcDbEntity
  8
SECT
100
AcDbLine
 10
225.9061038032305
 20
79.91901599081811
 30
0.0
 11
405.9061038032306
 21
79.91901599081811
 31
0.0
  0
LINE
  5
1AB6
330
1F
100
AcDbEntity
  8
SECT
100
AcDbLine
 10
225.9061038032306
 20
96.81401599081809
 30
0.0
 11
405.9061038032306
 21
96.81401599081809
 31
0.0
  0
LINE
  5
1AB7
330
1F
100
AcDbEntity
  8
SECT
100
AcDbLine
 10
225.9061038032306
 20
96.81401599081809
 30
0.0
 11
225.9061038032305
 21
95.21401599081809
 31
0.0
  0
LINE
  5
1AB8
330
1F
100
AcDbEntity
  8
SECT
100
AcDbLine
 10
405.9061038032306
 20
96.81401599081809
 30
0.0
 11
405.9061038032306
 21
95.2140159908181
 31
0.0
  0
LINE
  5
1AB9
330
1F
100
AcDbEntity
  8
SECT
100
AcDbLine
 10
405.9061038032306
 20
81.51901599081808
 30
0.0
 11
405.9061038032306
 21
79.91901599081811
 31
0.0
  0
LINE
  5
1ABA
330
1F
100
AcDbEntity
  8
SECT
100
AcDbLine
 10
225.9061038032306
 20
81.51901599081808
 30
0.0
 11
225.9061038032306
 21
79.91901599081811
 31
0.0
  0
LINE
  5
1ABB
330
1F
100
AcDbEntity
  8
HID
100
AcDbLine
 10
216.2557253514739
 20
104.9190159908181
 30
0.0
 11
216.2557253514739
 21
74.41901599081813
 31
0.0
  0
LINE
  5
1ABD
330
1F
100
AcDbEntity
  8
HID
100
AcDbLine
 10
217.855725351474
 20
104.9190159908181
 30
0.0
 11
217.855725351474
 21
82.41901599081812
 31
0.0
  0
LINE
  5
1ABE
330
1F
100
AcDbEntity
  8
HID
100
AcDbLine
 10
435.9059778831691
 20
222.5768920157705
 30
0.0
 11
435.9059778831693
 21
222.5768920157705
 31
0.0
  0
LINE
  5
1ABF
330
1F
100
AcDbEntity
  8
HID
100
AcDbLine
 10
435.9059778831693
 20
104.9190159908181
 30
0.0
 11
435.9059778831692
 21
82.41901599081812
 31
0.0
  0
LINE
  5
1AC0
330
1F
100
AcDbEntity
  8
HID
100
AcDbLine
 10
437.5059778831694
 20
104.9190159908181
 30
0.0
 11
437.5059778831694
 21
74.41901599081813
 31
0.0
  0
ARC
  5
1AC3
330
1F
100
AcDbEntity
  8
HID
100
AcDbCircle
 10
429.9059778831693
 20
82.41901599081812
 30
0.0
 40
6.0
100
AcDbArc
 50
270.0
 51
0.0
1001
GENIUS_GENODEF_13
1002
{
1000
HIER
1070
     0
1002
}
1002
{
1000
MANEDIT
1070
     0
1002
}
1002
{
1000
NOSEL
1070
     0
1002
}
1002
{
1000
BEHIND
1070
     0
1002
}
1002
{
1000
OTHER
1070
     0
1002
}
1002
{
1000
REACTOR
1002
}
1001
GENIUS_GENOBJ-N-FIL_13
1002
{
1000
OWNER
1000
GEN
1002
}
  0
ARC
  5
1AC5
330
1F
100
AcDbEntity
  8
HID
100
AcDbCircle
 10
223.855725351474
 20
82.41901599081812
 30
0.0
 40
6.0
100
AcDbArc
 50
180.0
 51
270.0
1001
GENIUS_GENOBJ-N-FIL_13
1002
{
1000
OWNER
1000
GEN
1002
}
1001
GENIUS_GENODEF_13
1002
{
1000
HIER
1070
     0
1002
}
1002
{
1000
MANEDIT
1070
     0
1002
}
1002
{
1000
NOSEL
1070
     0
1002
}
1002
{
1000
BEHIND
1070
     0
1002
}
1002
{
1000
OTHER
1070
     0
1002
}
1002
{
1000
REACTOR
1002
}
  0
LINE
  5
1B92
330
1F
100
AcDbEntity
  8
0
100
AcDbLine
 10
210.2557256972604
 20
74.41901599081811
 30
0.0
 11
443.5057256972604
 21
74.41901599081811
 31
0.0
  0
LINE
  5
1B9C
330
1F
100
AcDbEntity
  8
0
100
AcDbLine
 10
210.2557256972604
 20
104.9190159908181
 30
0.0
 11
443.5057256972604
 21
104.9190159908181
 31
0.0
  0
LINE
  5
1BA6
330
1F
100
AcDbEntity
  8
0
100
AcDbLine
 10
546.0314590076477
 20
193.0271445474651
 30
0.0
 11
546.0314590076477
 21
426.2271445474651
 31
0.0
  0
DIMENSION
  5
1BB7
330
1F
100
AcDbEntity
  8
AM_5
100
AcDbDimension
  2
*D7
 10
470.4979498530051
 20
104.9190159908181
 30
0.0
 11
466.2979498530051
 21
89.66901599081818
 31
0.0
 70
    32
 71
     5
 42
30.5
  3
A3DIM$0
100
AcDbAlignedDimension
 13
443.5057256972604
 23
74.41901599081811
 33
0.0
 14
443.5057256972603
 24
104.9190159908181
 34
0.0
 50
90.0
100
AcDbRotatedDimension
1001
ACAD
1000
DSTYLE
1002
{
1070
    40
1040
1.399999999999999
1002
}
  0
TEXT
  5
1C0D
330
1F
100
AcDbEntity
  8
HID
100
AcDbText
 10
593.4027825977231
 20
564.7729182381636
 30
0.0
 40
5.0
  1
Tray Contents:
100
AcDbText
  0
TEXT
  5
1C0E
330
1F
100
AcDbEntity
  8
HID
100
AcDbText
 10
616.2020200355609
 20
548.0608503814787
 30
0.0
 40
5.0
  1
IHU PCB
100
AcDbText
  0
TEXT
  5
1C0F
330
1F
100
AcDbEntity
  8
HID
100
AcDbText
 10
616.2020200355609
 20
540.5608503814788
 30
0.0
 40
5.0
  1
Ramdisk PCB
100
AcDbText
  0
DIMENSION
  5
1D80
330
1F
100
AcDbEntity
  8
AM_5
100
AcDbDimension
  2
*D8
 10
489.1480660421332
 20
76.41901599081809
 30
0.0
 11
492.6480660421332
 21
94.61901599081818
 31
0.0
 70
    32
 71
     5
 42
2.0
  3
A3DIM$0
100
AcDbAlignedDimension
 13
443.5057256972604
 23
74.41901599081811
 33
0.0
 14
429.9059778831693
 24
76.41901599081811
 34
0.0
 50
90.0
100
AcDbRotatedDimension
1001
ACAD
1000
DSTYLE
1002
{
1070
    40
1040
1.399999999999999
1002
}
  0
DIMENSION
  5
1DD6
330
1F
100
AcDbEntity
  8
AM_5
100
AcDbDimension
  2
*D9
 10
475.1480660421332
 20
76.41901599081811
 30
0.0
 11
466.7480660421333
 21
66.61901599081819
 31
0.0
 70
    32
 71
     5
 42
4.649999999999948
  3
A3DIM$0
100
AcDbAlignedDimension
 13
416.8808516173218
 23
81.06901599081806
 33
0.0
 14
417.2313019794239
 24
76.41901599081811
 34
0.0
 50
90.0
100
AcDbRotatedDimension
1001
ACAD
1000
DSTYLE
1002
{
1070
    40
1040
1.399999999999999
1002
}
  0
DIMENSION
  5
1F15
330
1F
100
AcDbEntity
  8
AM_5
100
AcDbDimension
  2
*D10
 10
294.9059778831692
 20
105.819015990818
 30
0.0
 11
290.4059778831692
 21
110.019015990818
 31
0.0
 70
    32
 71
     5
 42
9.0
  3
A3DIM$0
100
AcDbAlignedDimension
 13
285.9059778831693
 23
89.01901599081805
 33
0.0
 14
294.9059778831692
 24
89.01901599081805
 34
0.0
100
AcDbRotatedDimension
1001
ACAD
1000
DSTYLE
1002
{
1070
    40
1040
1.399999999999999
1002
}
  0
TEXT
  5
1FFC
330
1F
100
AcDbEntity
  8
OUT
100
AcDbText
 10
297.0202215706399
 20
144.701582394114
 30
0.0
 40
10.0
  1
Front 
100
AcDbText
  0
TEXT
  5
1FFD
330
1F
100
AcDbEntity
  8
OUT
100
AcDbText
 10
306.2974589402097
 20
126.8071222109568
 30
0.0
 40
10.0
  1
(X+)
100
AcDbText
  0
TEXT
  5
1FFE
330
1F
100
AcDbEntity
  8
OUT
100
AcDbText
 10
472.5636284646084
 20
305.7353228769498
 30
0.0
 40
10.0
  1
(Y+)
100
AcDbText
  0
TEXT
  5
1FFF
330
1F
100
AcDbEntity
  8
OUT
100
AcDbText
 10
130.5959512123688
 20
307.2545087095229
 30
0.0
 40
10.0
  1
(Y-)
100
AcDbText
  0
TEXT
  5
2000
330
1F
100
AcDbEntity
  8
OUT
100
AcDbText
 10
308.4191427795409
 20
455.3751653924778
 30
0.0
 40
10.0
  1
(X-)
100
AcDbText
  0
DIMENSION
  5
204C
330
1F
100
AcDbEntity
  8
AM_5
100
AcDbDimension
  2
*D12
 10
397.9059778831693
 20
57.61901599081807
 30
0.0
 11
420.7058517902148
 21
61.81901599081808
 31
0.0
 70
    32
 71
     5
 42
45.59974781409119
  3
A3DIM$0
100
AcDbAlignedDimension
 13
443.5057256972604
 23
74.41901599081811
 33
0.0
 14
397.9059778831693
 24
88.86401599081811
 34
0.0
 50
0.0000000000001132
100
AcDbRotatedDimension
1001
ACAD
1000
DSTYLE
1002
{
1070
    40
1040
1.399999999999999
1002
}
  0
DIMENSION
  5
2070
330
1F
100
AcDbEntity
  8
AM_5
100
AcDbDimension
  2
*D13
 10
341.9059778831693
 20
39.10240056192106
 30
0.0
 11
392.7058517902149
 21
43.30240056192105
 31
0.0
 70
    32
 71
     5
 42
101.5997478140911
  3
A3DIM$0
100
AcDbAlignedDimension
 13
443.5057256972604
 23
74.41901599081811
 33
0.0
 14
341.9059778831693
 24
88.86401599081811
 34
0.0
 50
0.0000000000001132
100
AcDbRotatedDimension
1001
ACAD
1000
DSTYLE
1002
{
1070
    40
1040
1.399999999999999
1002
}
  0
DIMENSION
  5
2094
330
1F
100
AcDbEntity
  8
AM_5
100
AcDbDimension
  2
*D14
 10
285.9059778831693
 20
17.83249538354289
 30
0.0
 11
364.7058517902149
 21
22.03249538354289
 31
0.0
 70
    32
 71
     5
 42
157.5997478140912
  3
A3DIM$0
100
AcDbAlignedDimension
 13
443.5057256972604
 23
74.41901599081811
 33
0.0
 14
285.9059778831693
 24
88.86401599081811
 34
0.0
 50
0.0000000000001132
100
AcDbRotatedDimension
1001
ACAD
1000
DSTYLE
1002
{
1070
    40
1040
1.399999999999999
1002
}
  0
ENDSEC
  0
SECTION
  2
OBJECTS
  0
DICTIONARY
  5
C
330
0
100
AcDbDictionary
281
     1
  3
ACAD_COLOR
350
1368
  3
ACAD_GROUP
350
D
  3
ACAD_LAYOUT
350
1A
  3
ACAD_MATERIAL
350
1367
  3
ACAD_MLINESTYLE
350
17
  3
ACAD_PLOTSETTINGS
350
19
  3
ACAD_PLOTSTYLENAME
350
E
  3
ACAD_TABLESTYLE
350
1369
  3
AcDbVariableDictionary
350
1426
  3
AcmDictionary
350
13CA
  3
AMG
350
1370
  3
AMGSNAPSETTINGS
350
141E
  0
DICTIONARY
  5
17EE
330
2
100
AcDbDictionary
280
     1
281
     1
  3
ACAD_LAYERSTATES
360
17EF
  0
DICTIONARY
  5
165E
330
1F
100
AcDbDictionary
280
     1
281
     1
  3
ACAD_SORTENTS
360
165F
  0
DICTIONARY
  5
1368
102
{ACAD_REACTORS
330
C
102
}
330
C
100
AcDbDictionary
281
     1
  0
DICTIONARY
  5
D
102
{ACAD_REACTORS
330
C
102
}
330
C
100
AcDbDictionary
281
     1
  0
DICTIONARY
  5
1A
102
{ACAD_REACTORS
330
C
102
}
330
C
100
AcDbDictionary
281
     1
  3
Layout1
350
1E
  3
Layout2
350
26
  3
Model
350
22
  0
DICTIONARY
  5
1367
102
{ACAD_REACTORS
330
C
102
}
330
C
100
AcDbDictionary
281
     1
  0
DICTIONARY
  5
17
102
{ACAD_REACTORS
330
C
102
}
330
C
100
AcDbDictionary
281
     1
  3
Standard
350
18
  0
DICTIONARY
  5
19
102
{ACAD_REACTORS
330
C
102
}
330
C
100
AcDbDictionary
281
     1
  0
ACDBDICTIONARYWDFLT
  5
E
102
{ACAD_REACTORS
330
C
102
}
330
C
100
AcDbDictionary
281
     1
  3
Normal
350
F
100
AcDbDictionaryWithDefault
340
F
  0
DICTIONARY
  5
1369
102
{ACAD_REACTORS
330
C
102
}
330
C
100
AcDbDictionary
281
     1
  3
Standard
350
136A
  0
DICTIONARY
  5
1426
102
{ACAD_REACTORS
330
C
102
}
330
C
100
AcDbDictionary
281
     1
  3
CTABLESTYLE
350
1427
  0
DICTIONARY
  5
13CA
102
{ACAD_REACTORS
330
C
102
}
330
C
100
AcDbDictionary
281
     1
  3
AcmStdDictionary
350
13D5
  3
AMDTSECTSYM_ARROWCOLOR
350
13F3
  0
DICTIONARY
  5
1370
102
{ACAD_REACTORS
330
C
102
}
330
C
100
AcDbDictionary
281
     1
  0
DICTIONARY
  5
141E
102
{ACAD_REACTORS
330
C
102
}
330
C
100
AcDbDictionary
281
     1
  0
DICTIONARY
  5
17EF
102
{ACAD_REACTORS
330
17EE
102
}
330
17EE
100
AcDbDictionary
281
     1
  0
SORTENTSTABLE
  5
165F
102
{ACAD_REACTORS
330
165E
102
}
330
165E
100
AcDbSortentsTable
330
1F
331
14AC
  5
16D3
331
3A1
  5
3A1
331
3A9
  5
3A9
331
1B9C
  5
1A63
331
1A5E
  5
1A68
331
18F0
  5
1916
331
1A66
  5
1A70
331
148D
  5
1491
331
1495
  5
149D
331
16D4
  5
17A1
331
149D
  5
14A8
331
39A
  5
39A
331
1A6E
  5
1A78
331
1900
  5
1902
331
1ABD
  5
1B52
331
1A76
  5
1A80
331
1A7E
  5
1A88
331
17A1
  5
18F8
331
1AC5
  5
1A66
331
1A86
  5
1AB7
331
14AD
  5
16D8
331
3A2
  5
3A2
331
3AA
  5
3AA
331
3BA
  5
3BA
331
19F7
  5
1A5D
331
1AA6
  5
1ABD
331
1A5F
  5
1A69
331
18F1
  5
191C
331
1A67
  5
1A71
331
148E
  5
1492
331
1496
  5
149E
331
149E
  5
14A9
331
39B
  5
39B
331
1AB6
  5
1AC0
331
1A6F
  5
1A79
331
1ABE
  5
1B53
331
1A77
  5
1A81
331
1C0D
  5
1C0F
331
1A7F
  5
1A89
331
1A87
  5
1AB8
331
16E5
  5
1858
331
14AE
  5
16DB
331
1785
  5
18ED
331
3A3
  5
3A3
331
3AB
  5
3AB
331
1BA6
  5
1785
331
1A60
  5
1A6A
331
148F
  5
1494
331
1497
  5
149F
331
149F
  5
14AA
331
1A68
  5
1A72
331
39C
  5
39C
331
18FA
  5
196C
331
1AB7
  5
1AC3
331
1A70
  5
1A7A
331
1902
  5
1900
331
19B9
  5
1A5C
331
1ABF
  5
1BB7
331
1A78
  5
1A82
331
179B
  5
18FA
331
1C0E
  5
1D38
331
1A80
  5
1A8A
331
1F15
  5
1F7D
331
14A7
  5
14B1
331
16E6
  5
1859
331
14AF
  5
16DD
331
1786
  5
18EE
331
3A4
  5
3A4
331
3AC
  5
3AC
331
1A88
  5
1AB9
331
19F1
  5
1A60
331
1A01
  5
16DA
331
1AA0
  5
1ABF
331
1BB7
  5
1C0E
331
1A61
  5
1A6B
331
1490
  5
1495
331
1498
  5
14A1
331
16D7
  5
17A7
331
1AB0
  5
1ABE
331
1A69
  5
1A73
331
39D
  5
39D
331
18FB
  5
19B9
331
1DD6
  5
1EF0
331
1AB8
  5
1ACF
331
1A71
  5
1A7B
331
1AC0
  5
1C0D
331
1A79
  5
1A83
331
1C0F
  5
1DD6
331
1A81
  5
1A94
331
14A0
  5
14AB
331
14A8
  5
1639
331
14B0
  5
16DE
331
1787
  5
18EF
331
3A5
  5
3A5
331
3AD
  5
3AD
331
1A89
  5
1ABA
331
18B4
  5
18FD
331
1A62
  5
1A6C
331
1491
  5
1496
331
1499
  5
14A2
331
1A6A
  5
1A74
331
39E
  5
39E
331
18FC
  5
19DB
331
1AB9
  5
1AEE
331
1A72
  5
1A7C
331
1795
  5
18FC
331
1A7A
  5
1A84
331
191C
  5
148F
331
1D80
  5
1E03
331
1A82
  5
1AA0
331
14A1
  5
14AD
331
14A9
  5
163A
331
14B1
  5
16E0
331
1639
  5
16E2
331
3A6
  5
3A6
331
1A8A
  5
1ABB
331
196C
  5
1A01
331
1A63
  5
1A6D
331
148A
  5
148A
331
1492
  5
1498
331
16D9
  5
1852
331
397
  5
397
331
1A6B
  5
1A75
331
39F
  5
39F
331
18FD
  5
19E7
331
1ABA
  5
1AC5
331
1A73
  5
1A7D
331
1A7B
  5
1A85
331
1A83
  5
1AA6
331
1B92
  5
1A62
331
14A2
  5
14AF
331
16E1
  5
1856
331
14AA
  5
16D1
331
3A7
  5
3A7
331
18EE
  5
1905
331
1A64
  5
1A6E
331
B91
  5
B91
331
148B
  5
148C
331
16D2
  5
16E3
331
16DA
  5
1853
331
398
  5
398
331
1A6C
  5
1A76
331
1ABB
  5
1B51
331
1A74
  5
1A7E
331
1A7C
  5
1A86
331
1AC3
  5
1A67
331
1A84
  5
1AB0
331
17A7
  5
18F1
331
16E2
  5
1857
331
14AB
  5
16D2
331
3A0
  5
3A0
331
3A8
  5
3A8
331
1A94
  5
1A64
331
18EF
  5
1910
331
1A65
  5
1A6F
331
148C
  5
1490
331
1494
  5
1499
331
149C
  5
14A7
331
399
  5
399
331
1788
  5
18F0
331
1A6D
  5
1A77
331
1A75
  5
1A7F
331
1A7D
  5
1A87
331
1A85
  5
1AB6
  0
LAYOUT
  5
1E
102
{ACAD_REACTORS
330
1A
102
}
330
1A
100
AcDbPlotSettings
  1

  2

  4

  6

 40
0.0
 41
0.0
 42
0.0
 43
0.0
 44
0.0
 45
0.0
 46
0.0
 47
0.0
 48
0.0
 49
0.0
140
0.0
141
0.0
142
1.0
143
1.0
 70
   688
 72
     0
 73
     0
 74
     5
  7
monochrome.ctb
 75
    16
147
1.0
 76
     0
 77
     2
 78
   300
148
0.0
149
0.0
100
AcDbLayout
  1
Layout1
 70
     1
 71
     1
 10
0.0
 20
0.0
 11
420.0
 21
297.0
 12
0.0
 22
0.0
 32
0.0
 14
1.000000000000000E+20
 24
1.000000000000000E+20
 34
1.000000000000000E+20
 15
-1.000000000000000E+20
 25
-1.000000000000000E+20
 35
-1.000000000000000E+20
146
0.0
 13
0.0
 23
0.0
 33
0.0
 16
1.0
 26
0.0
 36
0.0
 17
0.0
 27
1.0
 37
0.0
 76
     0
330
1B
  0
LAYOUT
  5
26
102
{ACAD_REACTORS
330
1A
102
}
330
1A
100
AcDbPlotSettings
  1

  2

  4

  6

 40
0.0
 41
0.0
 42
0.0
 43
0.0
 44
0.0
 45
0.0
 46
0.0
 47
0.0
 48
0.0
 49
0.0
140
0.0
141
0.0
142
1.0
143
1.0
 70
   688
 72
     0
 73
     0
 74
     5
  7
monochrome.ctb
 75
    16
147
1.0
 76
     0
 77
     2
 78
   300
148
0.0
149
0.0
100
AcDbLayout
  1
Layout2
 70
     1
 71
     2
 10
0.0
 20
0.0
 11
12.0
 21
9.0
 12
0.0
 22
0.0
 32
0.0
 14
0.0
 24
0.0
 34
0.0
 15
0.0
 25
0.0
 35
0.0
146
0.0
 13
0.0
 23
0.0
 33
0.0
 16
1.0
 26
0.0
 36
0.0
 17
0.0
 27
1.0
 37
0.0
 76
     0
330
23
  0
LAYOUT
  5
22
102
{ACAD_REACTORS
330
1A
102
}
330
1A
100
AcDbPlotSettings
  1

  2
Brother HL-1440 series
  4
A4
  6

 40
6.720416545867919
 41
5.027085304260253
 42
6.889755249023437
 43
5.027069091796875
 44
209.9733276367187
 45
296.9259948730469
 46
4.579530468429894
 47
0.0
 48
0.0
 49
0.0
140
0.0
141
0.0
142
1.0
143
3.197557761990522
 70
 11956
 72
     1
 73
     1
 74
     0
  7
monochrome.ctb
 75
     0
147
0.3127386819675422
 76
     0
 77
     2
 78
   300
148
38.51605413449369
149
2.297950603782282
100
AcDbLayout
  1
Model
 70
     1
 71
     0
 10
0.0
 20
0.0
 11
12.0
 21
9.0
 12
0.0
 22
0.0
 32
0.0
 14
0.0
 24
0.0
 34
0.0
 15
0.0
 25
0.0
 35
0.0
146
0.0
 13
0.0
 23
0.0
 33
0.0
 16
1.0
 26
0.0
 36
0.0
 17
0.0
 27
1.0
 37
0.0
 76
     0
330
1F
1001
ACAD_PSEXT
1000
Brother HL-1440 series
1000
Brother HL-1440 series
1000
USB001
1000

1070
     0
  0
MLINESTYLE
  5
18
102
{ACAD_REACTORS
330
17
102
}
330
17
100
AcDbMlineStyle
  2
STANDARD
 70
     0
  3

 62
   256
 51
90.0
 52
90.0
 71
     2
 49
0.5
 62
   256
  6
BYLAYER
 49
-0.5
 62
   256
  6
BYLAYER
  0
ACDBPLACEHOLDER
  5
F
102
{ACAD_REACTORS
330
E
102
}
330
E
  0
TABLESTYLE
  5
136A
102
{ACAD_REACTORS
330
1369
102
}
330
1369
100
AcDbTableStyle
  3
Standard
 70
     0
 71
     0
 40
1.5
 41
1.5
280
     0
281
     0
  7
Standard
140
4.5
170
     2
 62
     0
 63
     7
283
     0
274
    -2
284
     1
 64
     0
275
    -2
285
     1
 65
     0
276
    -2
286
     1
 66
     0
277
    -2
287
     1
 67
     0
278
    -2
288
     1
 68
     0
279
    -2
289
     1
 69
     0
  7
Standard
140
6.0
170
     5
 62
     0
 63
     7
283
     0
274
    -2
284
     1
 64
     0
275
    -2
285
     1
 65
     0
276
    -2
286
     1
 66
     0
277
    -2
287
     1
 67
     0
278
    -2
288
     1
 68
     0
279
    -2
289
     1
 69
     0
  7
Standard
140
4.5
170
     5
 62
     0
 63
     7
283
     0
274
    -2
284
     1
 64
     0
275
    -2
285
     1
 65
     0
276
    -2
286
     1
 66
     0
277
    -2
287
     1
 67
     0
278
    -2
288
     1
 68
     0
279
    -2
289
     1
 69
     0
  0
DICTIONARYVAR
  5
1427
102
{ACAD_REACTORS
330
1426
102
}
330
1426
100
DictionaryVariables
280
     0
  1
STANDARD
  0
DICTIONARY
  5
13D5
102
{ACAD_REACTORS
330
13CA
102
}
330
13CA
100
AcDbDictionary
281
     1
  0
XRECORD
  5
13F3
102
{ACAD_REACTORS
330
13CA
102
}
330
13CA
100
AcDbXrecord
280
     1
 90
-1023410169
  0
ENDSEC
  0
EOF
