  0
SECTION
  2
HEADER
  9
$ACADVER
  1
AC1018
  9
$ACADMAINTVER
 70
    76
  9
$DWGCODEPAGE
  3
ANSI_1252
  9
$INSBASE
 10
0.0
 20
0.0
 30
0.0
  9
$EXTMIN
 10
12.96820438197665
 20
-88.57874758400908
 30
0.0
  9
$EXTMAX
 10
966.883874945689
 20
740.8380944139062
 30
0.0
  9
$LIMMIN
 10
0.0
 20
0.0
  9
$LIMMAX
 10
840.0
 20
594.0
  9
$ORTHOMODE
 70
     0
  9
$REGENMODE
 70
     1
  9
$FILLMODE
 70
     1
  9
$QTEXTMODE
 70
     0
  9
$MIRRTEXT
 70
     1
  9
$LTSCALE
 40
0.4
  9
$ATTMODE
 70
     1
  9
$TEXTSIZE
 40
8.0
  9
$TRACEWID
 40
1.0
  9
$TEXTSTYLE
  7
Standard
  9
$CLAYER
  8
0
  9
$CELTYPE
  6
ByLayer
  9
$CECOLOR
 62
   256
  9
$CELTSCALE
 40
1.0
  9
$DISPSILH
 70
     0
  9
$DIMSCALE
 40
1.0
  9
$DIMASZ
 40
6.099999999999996
  9
$DIMEXO
 40
1.0
  9
$DIMDLI
 40
10.0
  9
$DIMRND
 40
0.0
  9
$DIMDLE
 40
0.0
  9
$DIMEXE
 40
1.0
  9
$DIMTP
 40
0.1
  9
$DIMTM
 40
0.1
  9
$DIMTXT
 40
6.999999999999992
  9
$DIMCEN
 40
0.0
  9
$DIMTSZ
 40
0.0
  9
$DIMTOL
 70
     0
  9
$DIMLIM
 70
     0
  9
$DIMTIH
 70
     0
  9
$DIMTOH
 70
     0
  9
$DIMSE1
 70
     0
  9
$DIMSE2
 70
     0
  9
$DIMTAD
 70
     1
  9
$DIMZIN
 70
     8
  9
$DIMBLK
  1

  9
$DIMASO
 70
     1
  9
$DIMSHO
 70
     1
  9
$DIMPOST
  1

  9
$DIMAPOST
  1
"
  9
$DIMALT
 70
     0
  9
$DIMALTD
 70
     2
  9
$DIMALTF
 40
0.0393701
  9
$DIMLFAC
 40
1.0
  9
$DIMTOFL
 70
     1
  9
$DIMTVP
 40
0.0
  9
$DIMTIX
 70
     0
  9
$DIMSOXD
 70
     0
  9
$DIMSAH
 70
     0
  9
$DIMBLK1
  1

  9
$DIMBLK2
  1

  9
$DIMSTYLE
  2
AM_ISO
  9
$DIMCLRD
 70
   256
  9
$DIMCLRE
 70
   256
  9
$DIMCLRT
 70
     3
  9
$DIMTFAC
 40
0.71
  9
$DIMGAP
 40
1.5
  9
$DIMJUST
 70
     0
  9
$DIMSD1
 70
     0
  9
$DIMSD2
 70
     0
  9
$DIMTOLJ
 70
     0
  9
$DIMTZIN
 70
     8
  9
$DIMALTZ
 70
     0
  9
$DIMALTTZ
 70
     0
  9
$DIMUPT
 70
     0
  9
$DIMDEC
 70
     2
  9
$DIMTDEC
 70
     2
  9
$DIMALTU
 70
     2
  9
$DIMALTTD
 70
     2
  9
$DIMTXSTY
  7
Standard
  9
$DIMAUNIT
 70
     0
  9
$DIMADEC
 70
     0
  9
$DIMALTRND
 40
0.0
  9
$DIMAZIN
 70
     2
  9
$DIMDSEP
 70
    46
  9
$DIMATFIT
 70
     3
  9
$DIMFRAC
 70
     0
  9
$DIMLDRBLK
  1

  9
$DIMLUNIT
 70
     2
  9
$DIMLWD
 70
    -1
  9
$DIMLWE
 70
    -1
  9
$DIMTMOVE
 70
     0
  9
$LUNITS
 70
     2
  9
$LUPREC
 70
     2
  9
$SKETCHINC
 40
1.0
  9
$FILLETRAD
 40
1.0
  9
$AUNITS
 70
     0
  9
$AUPREC
 70
     1
  9
$MENU
  1
.
  9
$ELEVATION
 40
0.0
  9
$PELEVATION
 40
0.0
  9
$THICKNESS
 40
0.0
  9
$LIMCHECK
 70
     0
  9
$CHAMFERA
 40
20.0
  9
$CHAMFERB
 40
10.0
  9
$CHAMFERC
 40
20.0
  9
$CHAMFERD
 40
0.0
  9
$SKPOLY
 70
     0
  9
$TDCREATE
 40
2454031.349536516
  9
$TDUCREATE
 40
2454030.849536517
  9
$TDUPDATE
 40
2456755.310527153
  9
$TDUUPDATE
 40
2456754.810527153
  9
$TDINDWG
 40
0.4536977199
  9
$TDUSRTIMER
 40
0.4536974884
  9
$USRTIMER
 70
     1
  9
$ANGBASE
 50
0.0
  9
$ANGDIR
 70
     0
  9
$PDMODE
 70
     3
  9
$PDSIZE
 40
0.0
  9
$PLINEWID
 40
0.0
  9
$SPLFRAME
 70
     0
  9
$SPLINETYPE
 70
     6
  9
$SPLINESEGS
 70
     8
  9
$HANDSEED
  5
1E64
  9
$SURFTAB1
 70
     6
  9
$SURFTAB2
 70
     6
  9
$SURFTYPE
 70
     6
  9
$SURFU
 70
     6
  9
$SURFV
 70
     6
  9
$UCSBASE
  2

  9
$UCSNAME
  2

  9
$UCSORG
 10
-77.56157966048977
 20
-34.95988164060782
 30
0.0
  9
$UCSXDIR
 10
1.0
 20
0.0
 30
0.0
  9
$UCSYDIR
 10
0.0
 20
1.0
 30
0.0
  9
$UCSORTHOREF
  2

  9
$UCSORTHOVIEW
 70
     0
  9
$UCSORGTOP
 10
0.0
 20
0.0
 30
0.0
  9
$UCSORGBOTTOM
 10
0.0
 20
0.0
 30
0.0
  9
$UCSORGLEFT
 10
0.0
 20
0.0
 30
0.0
  9
$UCSORGRIGHT
 10
0.0
 20
0.0
 30
0.0
  9
$UCSORGFRONT
 10
0.0
 20
0.0
 30
0.0
  9
$UCSORGBACK
 10
0.0
 20
0.0
 30
0.0
  9
$PUCSBASE
  2

  9
$PUCSNAME
  2

  9
$PUCSORG
 10
0.0
 20
0.0
 30
0.0
  9
$PUCSXDIR
 10
1.0
 20
0.0
 30
0.0
  9
$PUCSYDIR
 10
0.0
 20
1.0
 30
0.0
  9
$PUCSORTHOREF
  2

  9
$PUCSORTHOVIEW
 70
     0
  9
$PUCSORGTOP
 10
0.0
 20
0.0
 30
0.0
  9
$PUCSORGBOTTOM
 10
0.0
 20
0.0
 30
0.0
  9
$PUCSORGLEFT
 10
0.0
 20
0.0
 30
0.0
  9
$PUCSORGRIGHT
 10
0.0
 20
0.0
 30
0.0
  9
$PUCSORGFRONT
 10
0.0
 20
0.0
 30
0.0
  9
$PUCSORGBACK
 10
0.0
 20
0.0
 30
0.0
  9
$USERI1
 70
     0
  9
$USERI2
 70
     0
  9
$USERI3
 70
     0
  9
$USERI4
 70
     0
  9
$USERI5
 70
     0
  9
$USERR1
 40
0.0
  9
$USERR2
 40
0.0
  9
$USERR3
 40
0.0
  9
$USERR4
 40
0.0
  9
$USERR5
 40
0.0
  9
$WORLDVIEW
 70
     1
  9
$SHADEDGE
 70
     3
  9
$SHADEDIF
 70
    70
  9
$TILEMODE
 70
     1
  9
$MAXACTVP
 70
    64
  9
$PINSBASE
 10
0.0
 20
0.0
 30
0.0
  9
$PLIMCHECK
 70
     0
  9
$PEXTMIN
 10
1.000000000000000E+20
 20
1.000000000000000E+20
 30
1.000000000000000E+20
  9
$PEXTMAX
 10
-1.000000000000000E+20
 20
-1.000000000000000E+20
 30
-1.000000000000000E+20
  9
$PLIMMIN
 10
0.0
 20
0.0
  9
$PLIMMAX
 10
420.0
 20
297.0
  9
$UNITMODE
 70
     0
  9
$VISRETAIN
 70
     1
  9
$PLINEGEN
 70
     0
  9
$PSLTSCALE
 70
     1
  9
$TREEDEPTH
 70
  3020
  9
$CMLSTYLE
  2
Standard
  9
$CMLJUST
 70
     0
  9
$CMLSCALE
 40
20.0
  9
$PROXYGRAPHICS
 70
     1
  9
$MEASUREMENT
 70
     1
  9
$CELWEIGHT
370
    -1
  9
$ENDCAPS
280
     0
  9
$JOINSTYLE
280
     0
  9
$LWDISPLAY
290
     0
  9
$INSUNITS
 70
     4
  9
$HYPERLINKBASE
  1

  9
$STYLESHEET
  1
monochrome.ctb
  9
$XEDIT
290
     1
  9
$CEPSNTYPE
380
     0
  9
$PSTYLEMODE
290
     1
  9
$FINGERPRINTGUID
  2
{090CC539-21F2-4048-BD23-AAC0E820C893}
  9
$VERSIONGUID
  2
{7CC8D804-22C0-4744-89C6-5B388F29D660}
  9
$EXTNAMES
290
     1
  9
$PSVPSCALE
 40
0.0
  9
$OLESTARTUP
290
     0
  9
$SORTENTS
280
   127
  9
$INDEXCTL
280
     0
  9
$HIDETEXT
280
     0
  9
$XCLIPFRAME
290
     0
  9
$HALOGAP
280
     0
  9
$OBSCOLOR
 70
   257
  9
$OBSLTYPE
280
     0
  9
$INTERSECTIONDISPLAY
280
     0
  9
$INTERSECTIONCOLOR
 70
   257
  9
$DIMASSOC
280
     1
  9
$PROJECTNAME
  1

  0
ENDSEC
  0
SECTION
  2
CLASSES
  0
CLASS
  1
ACDBDICTIONARYWDFLT
  2
AcDbDictionaryWithDefault
  3
ObjectDBX Classes
 90
        0
 91
        1
280
     0
281
     0
  0
CLASS
  1
TABLESTYLE
  2
AcDbTableStyle
  3
ObjectDBX Classes
 90
     2047
 91
        1
280
     0
281
     0
  0
CLASS
  1
ACME_DOCUMENT
  2
AcMeDbDoc
  3
AcMeServices
 90
        0
 91
        2
280
     0
281
     0
  0
CLASS
  1
AMGSETTINGSOBJ
  2
AmgSettingsObj
  3
"AcadM|Product Description: AutoCAD Mechanical 2000|Company: Autodesk"
 90
        0
 91
        2
280
     0
281
     0
  0
CLASS
  1
ACMESCOPE
  2
AcMeScope
  3
AcMeServices
 90
        0
 91
        1
280
     0
281
     0
  0
CLASS
  1
ACMECOMMANDHISTORY
  2
AcMeCommandHistory
  3
AcMeServices
 90
        0
 91
        1
280
     0
281
     0
  0
CLASS
  1
ACIMSYSVARMAN
  2
AcImSysVarManager
  3
AcMeServices
 90
        0
 91
        5
280
     0
281
     0
  0
CLASS
  1
ACIMINTSYSVAR
  2
AcImIntSysVar
  3
AcMeServices
 90
        0
 91
       26
280
     0
281
     0
  0
CLASS
  1
ACMEDRAWINGMAN
  2
AcMeDrawingMan
  3
AcMeServices
 90
        0
 91
        1
280
     0
281
     0
  0
CLASS
  1
ACMEVIEW
  2
AcMeView
  3
AcMeServices
 90
        0
 91
        1
280
     0
281
     0
  0
CLASS
  1
ACDBENTITYCACHE
  2
AcMeEntityCache
  3
AcMeServices
 90
        0
 91
        1
280
     0
281
     0
  0
CLASS
  1
GSMANAGER
  2
AcMeGSManager
  3
AcMeServices
 90
        0
 91
        1
280
     0
281
     0
  0
CLASS
  1
AMDTINTERNALREACTOR
  2
AmdtInternalReactor
  3
AcMeServices
 90
        0
 91
        2
280
     0
281
     0
  0
CLASS
  1
ACMESTATEMGR
  2
AcMeStateMgr
  3
AcMeServices
 90
        0
 91
        1
280
     0
281
     0
  0
CLASS
  1
ACGREFMASTER
  2
AcGrefMaster
  3
AcAttribServices
 90
        0
 91
        1
280
     0
281
     0
  0
CLASS
  1
AM_DRAWING_MGR
  2
AcDmDwgMgr
  3
AcMechDwgViewMgmt
 90
        0
 91
        1
280
     0
281
     0
  0
CLASS
  1
AM_DWG_DOCUMENT
  2
AcDmDwgDocument
  3
AcMechDwgViewMgmt
 90
        0
 91
        1
280
     0
281
     0
  0
CLASS
  1
AM_DWG_SHEET
  2
AcDmSheet
  3
AcMechDwgViewMgmt
 90
        0
 91
        2
280
     0
281
     0
  0
CLASS
  1
AM_VIEWDIMPARMAP
  2
AcDmViewDimParMap
  3
AcMechDwgViewMgmt
 90
        0
 91
        2
280
     0
281
     0
  0
CLASS
  1
ACIMREALSYSVAR
  2
AcImRealSysVar
  3
AcMeServices
 90
        0
 91
        1
280
     0
281
     0
  0
CLASS
  1
AM_DWGMGR_NAME
  2
AcDmDwgMgrName
  3
AcMechDwgViewMgmt
 90
        0
 91
        1
280
     0
281
     0
  0
CLASS
  1
ACME_DATABASE
  2
AcMeDbDatabase
  3
AcMeServices
 90
        0
 91
        1
280
     0
281
     0
  0
CLASS
  1
ACRFINSADJUSTERMGR
  2
AcRfInsAdjusterMgr
  3
AcMeServices
 90
        0
 91
        1
280
     0
281
     0
  0
CLASS
  1
ACGREFACADMASTER
  2
AcGrefacadMaster
  3
AcGrefServices
 90
        0
 91
        1
280
     0
281
     0
  0
CLASS
  1
AMDTMENUSTATEMGR
  2
AmdtMenuStateMgr
  3
McadcomServices
 90
        0
 91
        1
280
     0
281
     0
  0
CLASS
  1
AMDTMCOMMENUSTATE
  2
AmdtMcomMenuState
  3
McadcomServices
 90
        0
 91
        1
280
     0
281
     0
  0
CLASS
  1
AMIMASTER
  2
AmiMaster
  3
AmiServices
 90
        0
 91
        1
280
     0
281
     0
  0
CLASS
  1
MAPIAMMOUDLE
  2
MApiAmModule
  3
MApiAmServices
 90
        0
 91
        1
280
     0
281
     0
  0
CLASS
  1
ACIMSTRSYSVAR
  2
AcImStrSysVar
  3
AcMeServices
 90
        0
 91
        5
280
     0
281
     0
  0
CLASS
  1
AMDTADMENUSTATE
  2
AmdtAdMenuState
  3
DesignerServices
 90
        0
 91
        1
280
     0
281
     0
  0
CLASS
  1
ADAPPL
  2
AcAdAppl
  3
DesignerServices
 90
        0
 91
        1
280
     0
281
     0
  0
CLASS
  1
DEPMGR
  2
AcAdDepMgr
  3
DesignerServices
 90
        0
 91
        1
280
     0
281
     0
  0
CLASS
  1
PARAMMGR
  2
AcAdParamMgr
  3
DesignerServices
 90
        0
 91
        1
280
     0
281
     0
  0
CLASS
  1
PARAMSCOPE
  2
AcAdParamScope
  3
DesignerServices
 90
        0
 91
        1
280
     0
281
     0
  0
CLASS
  1
NAMEDAPPL
  2
AcAdNamedAppl
  3
DesignerServices
 90
        0
 91
        1
280
     0
281
     0
  0
CLASS
  1
AMDTDMMENUSTATE
  2
AmdtDmMenuState
  3
AcMechDwgViewMgmt
 90
        0
 91
        1
280
     0
281
     0
  0
CLASS
  1
AMDTAMMENUSTATE
  2
AmdtAmMenuState
  3
DesignerAssemblies
 90
        0
 91
        1
280
     0
281
     0
  0
CLASS
  1
ACAMPROJECT
  2
AcAmProject
  3
DesignerAssemblies
 90
        0
 91
        1
280
     0
281
     0
  0
CLASS
  1
ACAMGRCOMPDEF
  2
AcAmGrCompDef
  3
DesignerAssemblies
 90
        0
 91
        1
280
     0
281
     0
  0
CLASS
  1
ACCMCONTEXT
  2
AcCmContext
  3
DesignerAssemblies
 90
        0
 91
        1
280
     0
281
     0
  0
CLASS
  1
ACAMCOMPDEF
  2
AcAmCompDef
  3
DesignerAssemblies
 90
        0
 91
        1
280
     0
281
     0
  0
CLASS
  1
ACAMCOMPDEFMGR
  2
AcAmCompDefMgr
  3
DesignerAssemblies
 90
        0
 91
        1
280
     0
281
     0
  0
CLASS
  1
AMCONTEXTMGR
  2
AcAmContextMgr
  3
DesignerAssemblies
 90
        0
 91
        1
280
     0
281
     0
  0
CLASS
  1
ACAMCONTEXTMODELER
  2
AcAmContextModeler
  3
DesignerAssemblies
 90
        0
 91
        1
280
     0
281
     0
  0
CLASS
  1
ACMDATADICTIONARY
  2
AcmDataDictionary
  3
"AcmSymBB|Product Description: AutoCAD Mechanical 2004 DX|Company: Autodesk"
 90
        0
 91
        1
280
     0
281
     0
  0
CLASS
  1
ACMSTANDARDISO
  2
AcmStandardISO
  3
"Amdt_StdImp|Product Description: AutoCAD Mechanical 2004 DX|Company: Autodesk"
 90
        0
 91
        1
280
     0
281
     0
  0
CLASS
  1
AMGOBJPROPCFG
  2
AmgObjPropCfg
  3
"AmgLay|Product Description: AutoCAD Mechanical 2000|Company: Autodesk"
 90
        1
 91
        1
280
     0
281
     0
  0
CLASS
  1
AMDTEDGESTANDARDISO13715
  2
AmdtEdgeStdISO13715
  3
"Amdt_StdImp|Product Description: AutoCAD Mechanical 2004 DX|Company: Autodesk"
 90
        0
 91
        1
280
     0
281
     0
  0
CLASS
  1
ACMSURFSTANDARDISO
  2
AcmSurfTextStdISO
  3
"Amdt_StdImp|Product Description: AutoCAD Mechanical 2004 DX|Company: Autodesk"
 90
        0
 91
        1
280
     0
281
     0
  0
CLASS
  1
ACMFCFSTANDARDISO
  2
AcmFCFStdISO
  3
"Amdt_StdImp|Product Description: AutoCAD Mechanical 2004 DX|Company: Autodesk"
 90
        0
 91
        1
280
     0
281
     0
  0
CLASS
  1
ACMWELDSTANDARDISO
  2
AcmWeldingStdISO
  3
"Amdt_StdImp|Product Description: AutoCAD Mechanical 2004 DX|Company: Autodesk"
 90
        0
 91
        1
280
     0
281
     0
  0
CLASS
  1
ACMIDSTANDARDISO
  2
AcmIdStdISO
  3
"Amdt_StdImp|Product Description: AutoCAD Mechanical 2004 DX|Company: Autodesk"
 90
        0
 91
        1
280
     0
281
     0
  0
CLASS
  1
ACMDATUMSTANDARDISO
  2
AcmDatumStdISO
  3
"Amdt_StdImp|Product Description: AutoCAD Mechanical 2004 DX|Company: Autodesk"
 90
        0
 91
        1
280
     0
281
     0
  0
CLASS
  1
ACMBOMSTANDARDISO
  2
AcmBOMStdISO
  3
"Amdt_StdImp|Product Description: AutoCAD Mechanical 2004 DX|Company: Autodesk"
 90
        0
 91
        1
280
     0
281
     0
  0
CLASS
  1
ACMDETAILSTANDARDISO
  2
AmdtDetailSymStdISO
  3
"Amdt_StdImp|Product Description: AutoCAD Mechanical 2004 DX|Company: Autodesk"
 90
        0
 91
        1
280
     0
281
     0
  0
CLASS
  1
ACMSECTIONSTANDARDISO
  2
AmdtSectionSymStdISO
  3
"Amdt_StdImp|Product Description: AutoCAD Mechanical 2004 DX|Company: Autodesk"
 90
        0
 91
        1
280
     0
281
     0
  0
CLASS
  1
ACMCENTERLINESTANDARDISO
  2
AmdtCenterLineStdISO
  3
"Amdt_StdImp|Product Description: AutoCAD Mechanical 2004 DX|Company: Autodesk"
 90
        0
 91
        1
280
     0
281
     0
  0
CLASS
  1
ACMTHREADLINESTANDARDISO
  2
AmdtThreadLineStdISO
  3
"Amdt_StdImp|Product Description: AutoCAD Mechanical 2004 DX|Company: Autodesk"
 90
        0
 91
        1
280
     0
281
     0
  0
CLASS
  1
ACMNOTESTANDARDISO
  2
AmdtNoteStdISO
  3
"Amdt_StdImp|Product Description: AutoCAD Mechanical 2004 DX|Company: Autodesk"
 90
        0
 91
        1
280
     0
281
     0
  0
CLASS
  1
AMDTNOTETEMPLATEDB
  2
AmdtNoteTemplateDB
  3
AMDT_STDIMP_MODULE_NAME
 90
        0
 91
        6
280
     0
281
     0
  0
CLASS
  1
ACAMGLAYSTD
  2
AcAmgLayStd
  3
"AcAmgLayStd|Product Description: AutoCAD Mechanical 2000|Company: Autodesk"
 90
        0
 91
        1
280
     0
281
     0
  0
CLASS
  1
ACAMGDIMSTD
  2
AcAmgDimStd
  3
"AcAmgDimStd|Product Description: AutoCAD Mechanical 2000|Company: Autodesk"
 90
        0
 91
        1
280
     0
281
     0
  0
CLASS
  1
ACAMGHOLECHARTSTDISO
  2
AcAmgHoleChartStdISO
  3
ACMSYMBB_MODULE_NAME
 90
        0
 91
        1
280
     0
281
     0
  0
CLASS
  1
ACAMGTITLESTD
  2
AcAmgTitleStd
  3
"TITLEAPP"
 90
        0
 91
        1
280
     0
281
     0
  0
CLASS
  1
CATALOGSTATE
  2
AcAmCatalogState
  3
DesignerAssemblies
 90
        0
 91
        1
280
     0
281
     0
  0
CLASS
  1
ACAMGRCOMPDEFSET
  2
AcAmGrCompDefSet
  3
DesignerAssemblies
 90
        0
 91
        1
280
     0
281
     0
  0
CLASS
  1
AMDTBROWSERDBTAB
  2
AmdtBrowserDbTab
  3
McadcomServices
 90
        0
 91
        1
280
     0
281
     0
  0
CLASS
  1
CBROWSERAPPOBJECT
  2
CBrowserAppObject
  3
McadcomServices
 90
        0
 91
        3
280
     0
281
     0
  0
CLASS
  1
DM_PLACEHOLDER
  2
AcDmSelsetPlaceholder
  3
AcMechDwgViewMgmt
 90
        0
 91
        1
280
     0
281
     0
  0
CLASS
  1
SORTENTSTABLE
  2
AcDbSortentsTable
  3
ObjectDBX Classes
 90
        0
 91
        1
280
     0
281
     0
  0
CLASS
  1
ACMDATAENTRYBLOCK
  2
AcmDataEntryBlock
  3
"AcmSymBB|Product Description: AutoCAD Mechanical 2004 DX|Company: Autodesk"
 90
        0
 91
        6
280
     0
281
     0
  0
CLASS
  1
ACAMGFILTERDAT
  2
AcAmgFilterDat
  3
"AcadM|Product Description: AutoCAD Mechanical 2000|Company: Autodesk"
 90
        0
 91
        6
280
     0
281
     0
  0
CLASS
  1
DICTIONARYVAR
  2
AcDbDictionaryVar
  3
ObjectDBX Classes
 90
        0
 91
        1
280
     0
281
     0
  0
CLASS
  1
AC_AM_MVD_DEP_MGR
  2
AcAmMVDdepMgr
  3
DesignerAssemblies
 90
        0
 91
        1
280
     0
281
     0
  0
CLASS
  1
AC_AM_MASTER_VIEW_DEF
  2
AcAmMasterViewDef
  3
DesignerAssemblies
 90
        0
 91
        1
280
     0
281
     0
  0
CLASS
  1
AC_AM_DIRTY_NODES
  2
AcAmDirtyNodes
  3
DesignerAssemblies
 90
        0
 91
        1
280
     0
281
     0
  0
CLASS
  1
AC_AM_MAPPER_CACHE
  2
AcAmMapperCache
  3
DesignerAssemblies
 90
        0
 91
        9
280
     0
281
     0
  0
CLASS
  1
ACAMMVDBACKUPOBJECT
  2
AcAmMVDBackupObject
  3
DesignerAssemblies
 90
        0
 91
        1
280
     0
281
     0
  0
CLASS
  1
AC_AM_2D_XREF_MGR
  2
AcAmXrefMgr2d
  3
DesignerAssemblies
 90
        0
 91
        1
280
     0
281
     0
  0
CLASS
  1
STDPART2D
  2
AmgStdPart
  3
"AmgStdPart|Product Description: AutoCAD Mechanical 2000|Company: Autodesk"
 90
     1023
 91
       38
280
     0
281
     1
  0
CLASS
  1
AC_AM_COMP_VIEW_INST
  2
AcAmCompView
  3
DesignerAssemblies
 90
        0
 91
       11
280
     0
281
     0
  0
CLASS
  1
AC_AM_STDP_VIEW_DEF
  2
AcAmStdpViewDef
  3
DesignerAssemblies
 90
        0
 91
        8
280
     0
281
     0
  0
CLASS
  1
ACAMCOMP
  2
AcAmComp
  3
DesignerAssemblies
 90
        0
 91
       11
280
     0
281
     0
  0
CLASS
  1
ACAMSTDPCOMPDEF
  2
AcAmStdpCompDef
  3
DesignerAssemblies
 90
        0
 91
        6
280
     0
281
     0
  0
CLASS
  1
AC_AM_HIDE_SITUATION
  2
AcAmHideSituation
  3
DesignerAssemblies
 90
        0
 91
       11
280
     0
281
     0
  0
CLASS
  1
ACAMWBLOCKTEMPENTS
  2
AcAmStructInOutTempObjsHolder
  3
DesignerAssemblies
 90
        0
 91
        0
280
     0
281
     0
  0
CLASS
  1
ACRFATTGENMGR
  2
AcRfAttGeneralMgr
  3
AcAttribServices
 90
        0
 91
        1
280
     0
281
     0
  0
CLASS
  1
ACRFOBJATTMGR
  2
AcRfObjAttGroupMgr
  3
AcAttribServices
 90
        0
 91
        6
280
     0
281
     0
  0
CLASS
  1
ACRFMCADAPIATTHOLDER
  2
AcRfMCADAPIAttHolder
  3
AcAttribServices
 90
        0
 91
        1
280
     0
281
     0
  0
CLASS
  1
AMDTSYSATTR
  2
AmdtSystemAttribute
  3
AcAttribServices
 90
        0
 91
       72
280
     0
281
     0
  0
CLASS
  1
AC_AM_PROPS_OVERRIDE
  2
AcAmPropertiesOverride
  3
DesignerAssemblies
 90
        0
 91
       10
280
     0
281
     0
  0
CLASS
  1
AC_AM_OVERRIDE_FILTER
  2
AcAmOverrideFilter
  3
DesignerAssemblies
 90
        0
 91
      410
280
     0
281
     0
  0
CLASS
  1
"OBJCLONER"
  2
ObjCloner
  3
DesignerAssemblies
 90
        0
 91
        0
280
     0
281
     1
  0
CLASS
  1
AC_AM_TRANSFORM_GHOST
  2
AcDbTransformGhost
  3
DesignerAssemblies
 90
        0
 91
        0
280
     0
281
     1
  0
ENDSEC
  0
SECTION
  2
TABLES
  0
TABLE
  2
VPORT
  5
8
330
0
100
AcDbSymbolTable
 70
     3
  0
VPORT
  5
1E63
330
8
100
AcDbSymbolTableRecord
100
AcDbViewportTableRecord
  2
*Active
 70
     0
 10
0.0
 20
0.0
 11
1.0
 21
1.0
 12
489.9334696537244
 22
326.1304995667689
 13
0.0
 23
0.0
 14
5.0
 24
5.0
 15
10.0
 25
10.0
 16
0.0
 26
0.0
 36
1.0
 17
0.0
 27
0.0
 37
0.0
 40
835.8040605830703
 41
1.52465233881163
 42
50.0
 43
0.0
 44
0.0
 50
0.0
 51
0.0
 71
     0
 72
   200
 73
     1
 74
     3
 75
     0
 76
     0
 77
     0
 78
     0
281
     0
 65
     1
110
-77.56157966048977
120
-34.95988164060782
130
0.0
111
1.0
121
0.0
131
0.0
112
0.0
122
1.0
132
0.0
 79
     0
146
0.0
  0
ENDTAB
  0
TABLE
  2
LTYPE
  5
5
330
0
100
AcDbSymbolTable
 70
    14
  0
LTYPE
  5
14
330
5
100
AcDbSymbolTableRecord
100
AcDbLinetypeTableRecord
  2
ByBlock
 70
     0
  3

 72
    65
 73
     0
 40
0.0
  0
LTYPE
  5
15
330
5
100
AcDbSymbolTableRecord
100
AcDbLinetypeTableRecord
  2
ByLayer
 70
     0
  3

 72
    65
 73
     0
 40
0.0
  0
LTYPE
  5
16
330
5
100
AcDbSymbolTableRecord
100
AcDbLinetypeTableRecord
  2
Continuous
 70
     0
  3
Solid line
 72
    65
 73
     0
 40
0.0
  0
LTYPE
  5
4B
330
5
100
AcDbSymbolTableRecord
100
AcDbLinetypeTableRecord
  2
CENTER
 70
     0
  3
Center ____ _ ____ _ ____ _ ____ _ ____ _ ____
 72
    65
 73
     4
 40
50.8
 49
31.75
 74
     0
 49
-6.349999999999999
 74
     0
 49
6.349999999999999
 74
     0
 49
-6.349999999999999
 74
     0
  0
LTYPE
  5
4C
330
5
100
AcDbSymbolTableRecord
100
AcDbLinetypeTableRecord
  2
HIDDEN
 70
     0
  3
Hidden __ __ __ __ __ __ __ __ __ __ __ __ __ _
 72
    65
 73
     2
 40
9.524999999999998
 49
6.349999999999999
 74
     0
 49
-3.174999999999999
 74
     0
  0
LTYPE
  5
AD8
330
5
100
AcDbSymbolTableRecord
100
AcDbLinetypeTableRecord
  2
PHANTOM2
 70
     0
  3
Phantom (.5x) ___ _ _ ___ _ _ ___ _ _ ___ _ _
 72
    65
 73
     6
 40
31.75
 49
15.875
 74
     0
 49
-3.174999999999999
 74
     0
 49
3.174999999999999
 74
     0
 49
-3.174999999999999
 74
     0
 49
3.174999999999999
 74
     0
 49
-3.174999999999999
 74
     0
  0
LTYPE
  5
B03
330
5
100
AcDbSymbolTableRecord
100
AcDbLinetypeTableRecord
  2
AM_ISO02W050
 70
     0
  3
__ __ __ __ __ __ __ __ __ __ __ __ __ __ __
 72
    65
 73
     2
 40
7.5
 49
6.0
 74
     0
 49
-1.5
 74
     0
  0
LTYPE
  5
B04
330
5
100
AcDbSymbolTableRecord
100
AcDbLinetypeTableRecord
  2
AM_ISO08W050
 70
     0
  3
____ . ____ . ____ . ____ . ____ . ____ . ____
 72
    65
 73
     4
 40
18.0
 49
12.0
 74
     0
 49
-1.5
 74
     0
 49
3.0
 74
     0
 49
-1.5
 74
     0
  0
LTYPE
  5
B05
330
5
100
AcDbSymbolTableRecord
100
AcDbLinetypeTableRecord
  2
AM_ISO09W050
 70
     0
  3
_____ . . _____ . . _____ . . ____ .. ____
 72
    65
 73
     6
 40
22.5
 49
12.0
 74
     0
 49
-1.5
 74
     0
 49
3.0
 74
     0
 49
-1.5
 74
     0
 49
3.0
 74
     0
 49
-1.5
 74
     0
  0
LTYPE
  5
B06
330
5
100
AcDbSymbolTableRecord
100
AcDbLinetypeTableRecord
  2
Amconstr
 70
     0
  3
_______________________
 72
    65
 73
     2
 40
9999.0
 49
9999.0
 74
     0
 49
0.0
 74
     0
  0
LTYPE
  5
B07
330
5
100
AcDbSymbolTableRecord
100
AcDbLinetypeTableRecord
  2
AM_ISO08W050x2
 70
     0
  3
__ . __ . __ . __ . __ . __
 72
    65
 73
     4
 40
9.0
 49
6.0
 74
     0
 49
-0.75
 74
     0
 49
1.5
 74
     0
 49
-0.75
 74
     0
  0
LTYPE
  5
B08
330
5
100
AcDbSymbolTableRecord
100
AcDbLinetypeTableRecord
  2
AM_ISO02W050x2
 70
     0
  3
 _ _ _ _ _ _ _ _ _ _ _ _
 72
    65
 73
     2
 40
3.75
 49
3.0
 74
     0
 49
-0.75
 74
     0
  0
LTYPE
  5
B0B
330
5
100
AcDbSymbolTableRecord
100
AcDbLinetypeTableRecord
  2
Amzigzag
 70
     0
  3
/\/-/\/-/\/-/\/-/\/-/\/
 72
    65
 73
     2
 40
11.0001
 49
0.0001
 74
     4
 75
   136
340
B0A
 46
0.04
 50
0.0
 44
0.0
 45
0.0
 49
-11.0
 74
     0
  0
LTYPE
  5
B1A
330
5
100
AcDbSymbolTableRecord
100
AcDbLinetypeTableRecord
  2
ACISOWELD
 70
     0
  3
_ _ _ _ _
 72
    65
 73
     2
 40
2.0
 49
2.0
 74
     0
 49
-1.0
 74
     0
  0
LTYPE
  5
B1B
330
5
100
AcDbSymbolTableRecord
100
AcDbLinetypeTableRecord
  2
ACISOTGB
 70
     0
  3
__ . . __ . .
 72
    65
 73
     6
 40
9.0
 49
4.0
 74
     0
 49
-1.0
 74
     0
 49
1.0
 74
     0
 49
-1.0
 74
     0
 49
1.0
 74
     0
 49
-1.0
 74
     0
  0
LTYPE
  5
B1C
330
5
100
AcDbSymbolTableRecord
100
AcDbLinetypeTableRecord
  2
ACISOTGL
 70
     0
  3
_ _ _ _ _
 72
    65
 73
     2
 40
3.0
 49
2.0
 74
     0
 49
-1.0
 74
     0
  0
ENDTAB
  0
TABLE
  2
LAYER
  5
2
102
{ACAD_XDICTIONARY
360
1913
102
}
330
0
100
AcDbSymbolTable
 70
    19
  0
LAYER
  5
10
330
2
100
AcDbSymbolTableRecord
100
AcDbLayerTableRecord
  2
0
 70
     0
 62
     7
  6
Continuous
370
    -3
390
F
  0
LAYER
  5
4D
330
2
100
AcDbSymbolTableRecord
100
AcDbLayerTableRecord
  2
OUT
 70
     0
 62
     1
  6
Continuous
370
    -3
390
F
  0
LAYER
  5
4E
330
2
100
AcDbSymbolTableRecord
100
AcDbLayerTableRecord
  2
CL
 70
     0
 62
     3
  6
CENTER
370
    -3
390
F
  0
LAYER
  5
4F
330
2
100
AcDbSymbolTableRecord
100
AcDbLayerTableRecord
  2
HID
 70
     0
 62
     2
  6
HIDDEN
370
    -3
390
F
  0
LAYER
  5
50
330
2
100
AcDbSymbolTableRecord
100
AcDbLayerTableRecord
  2
DIMS
 70
     0
 62
     6
  6
Continuous
370
    -3
390
F
  0
LAYER
  5
51
330
2
100
AcDbSymbolTableRecord
100
AcDbLayerTableRecord
  2
TEXT
 70
     0
 62
     5
  6
Continuous
370
    -3
390
F
  0
LAYER
  5
52
330
2
100
AcDbSymbolTableRecord
100
AcDbLayerTableRecord
  2
SECT
 70
     0
 62
     4
  6
Continuous
370
    -3
390
F
  0
LAYER
  5
53
330
2
100
AcDbSymbolTableRecord
100
AcDbLayerTableRecord
  2
CONS
 70
     0
 62
   220
  6
Continuous
370
    -3
390
F
  0
LAYER
  5
7D
330
2
100
AcDbSymbolTableRecord
100
AcDbLayerTableRecord
  2
Defpoints
 70
     0
 62
     7
  6
Continuous
290
     0
370
    -3
390
F
  0
LAYER
  5
377
330
2
100
AcDbSymbolTableRecord
100
AcDbLayerTableRecord
  2
BORDER
 70
     0
 62
     7
  6
Continuous
370
    -3
390
F
  0
LAYER
  5
ED5
330
2
100
AcDbSymbolTableRecord
100
AcDbLayerTableRecord
  2
AM_0N
 70
     0
 62
     7
  6
Continuous
370
    50
390
F
1001
AcAecLayerStandard
1000

1000

  0
LAYER
  5
ED6
330
2
100
AcDbSymbolTableRecord
100
AcDbLayerTableRecord
  2
AM_7N
 70
     0
 62
     4
  6
AM_ISO08W050
370
    25
390
F
1001
AcAecLayerStandard
1000

1000

  0
LAYER
  5
ED7
330
2
100
AcDbSymbolTableRecord
100
AcDbLayerTableRecord
  2
AM_9
 70
     0
 62
  -253
  6
Continuous
370
     0
390
F
1001
AcAecLayerStandard
1000

1000

  0
LAYER
  5
F96
330
2
100
AcDbSymbolTableRecord
100
AcDbLayerTableRecord
  2
AM_9N
 70
     0
 62
  -253
  6
Continuous
370
     0
390
F
1001
AcAecLayerStandard
1000

1000

  0
LAYER
  5
11EC
330
2
100
AcDbSymbolTableRecord
100
AcDbLayerTableRecord
  2
AM_4N
 70
     0
 62
     3
  6
Continuous
370
    25
390
F
1001
AcAecLayerStandard
1000

1000

  0
LAYER
  5
13D4
330
2
100
AcDbSymbolTableRecord
100
AcDbLayerTableRecord
  2
AM_5
 70
     0
 62
     3
  6
Continuous
370
    25
390
F
1001
AcAecLayerStandard
1000

1000

  0
LAYER
  5
1912
330
2
100
AcDbSymbolTableRecord
100
AcDbLayerTableRecord
  2
AM_0
 70
     0
 62
     7
  6
Continuous
370
    50
390
F
1001
AcAecLayerStandard
1000

1000

  0
LAYER
  5
1916
330
2
100
AcDbSymbolTableRecord
100
AcDbLayerTableRecord
  2
AM_4
 70
     0
 62
     3
  6
Continuous
370
    25
390
F
1001
AcAecLayerStandard
1000

1000

  0
LAYER
  5
1918
330
2
100
AcDbSymbolTableRecord
100
AcDbLayerTableRecord
  2
AM_8
 70
     0
 62
     1
  6
Continuous
370
    25
390
F
1001
AcAecLayerStandard
1000

1000

  0
ENDTAB
  0
TABLE
  2
STYLE
  5
3
330
0
100
AcDbSymbolTable
 70
     7
  0
STYLE
  5
11
330
3
100
AcDbSymbolTableRecord
100
AcDbTextStyleTableRecord
  2
Standard
 70
     0
 40
0.0
 41
1.0
 50
0.0
 71
     0
 42
8.0
  3
txt
  4

  0
STYLE
  5
4A
330
3
100
AcDbSymbolTableRecord
100
AcDbTextStyleTableRecord
  2

 70
     1
 40
0.0
 41
1.0
 50
0.0
 71
     0
 42
2.5
  3
ltypeshp.shx
  4

  0
STYLE
  5
378
330
3
100
AcDbSymbolTableRecord
100
AcDbTextStyleTableRecord
  2
SIMPLEX
 70
     0
 40
0.06
 41
1.0
 50
0.0
 71
     0
 42
0.05
  3
simplex
  4

  0
STYLE
  5
379
330
3
100
AcDbSymbolTableRecord
100
AcDbTextStyleTableRecord
  2
COMPLEX
 70
     0
 40
8.0
 41
1.5
 50
0.0
 71
     0
 42
8.0
  3
complex
  4

  0
STYLE
  5
B0A
330
3
100
AcDbSymbolTableRecord
100
AcDbTextStyleTableRecord
  2

 70
     1
 40
0.0
 41
1.0
 50
0.0
 71
     0
 42
2.5
  3
genltshp.shx
  4

  0
STYLE
  5
B0C
330
3
100
AcDbSymbolTableRecord
100
AcDbTextStyleTableRecord
  2
ACISOTS
 70
     0
 40
1.0
 41
1.0
 50
0.0
 71
     0
 42
2.5
  3
isocp.shx
  4

  0
STYLE
  5
B19
330
3
100
AcDbSymbolTableRecord
100
AcDbTextStyleTableRecord
  2
ACISOGDT
 70
     0
 40
0.0
 41
1.0
 50
0.0
 71
     0
 42
2.5
  3
AMGDT
  4

  0
ENDTAB
  0
TABLE
  2
VIEW
  5
6
330
0
100
AcDbSymbolTable
 70
     0
  0
ENDTAB
  0
TABLE
  2
UCS
  5
7
330
0
100
AcDbSymbolTable
 70
     0
  0
ENDTAB
  0
TABLE
  2
APPID
  5
9
330
0
100
AcDbSymbolTable
 70
    26
  0
APPID
  5
12
330
9
100
AcDbSymbolTableRecord
100
AcDbRegAppTableRecord
  2
ACAD
 70
     0
  0
APPID
  5
AA9
330
9
100
AcDbSymbolTableRecord
100
AcDbRegAppTableRecord
  2
MCAD_NO_VIS
 70
     0
  0
APPID
  5
AAA
330
9
100
AcDbSymbolTableRecord
100
AcDbRegAppTableRecord
  2
ACAD_TEMP_GRAPHIC
 70
     0
  0
APPID
  5
ADA
330
9
100
AcDbSymbolTableRecord
100
AcDbRegAppTableRecord
  2
AD_DRAW
 70
     0
  0
APPID
  5
ADD
330
9
100
AcDbSymbolTableRecord
100
AcDbRegAppTableRecord
  2
ACATTRIBSERVICES
 70
     0
  0
APPID
  5
AFD
330
9
100
AcDbSymbolTableRecord
100
AcDbRegAppTableRecord
  2
DESIGNERASSEMBLIES
 70
     0
  0
APPID
  5
B28
330
9
100
AcDbSymbolTableRecord
100
AcDbRegAppTableRecord
  2
ACAD_DSTYLE_DIMARC_LENGTH_SYMBOL
 70
     0
  0
APPID
  5
B29
330
9
100
AcDbSymbolTableRecord
100
AcDbRegAppTableRecord
  2
ACAD_DSTYLE_DIMJOGGED_JOGANGLE_SYMBOL
 70
     0
  0
APPID
  5
B4B
330
9
100
AcDbSymbolTableRecord
100
AcDbRegAppTableRecord
  2
ACADM_DIM_EDIT
 70
     0
  0
APPID
  5
B4C
330
9
100
AcDbSymbolTableRecord
100
AcDbRegAppTableRecord
  2
AMDT_DM_ADJ
 70
     0
  0
APPID
  5
EA6
330
9
100
AcDbSymbolTableRecord
100
AcDbRegAppTableRecord
  2
AMG_2DHIDE
 70
     0
  0
APPID
  5
EA7
330
9
100
AcDbSymbolTableRecord
100
AcDbRegAppTableRecord
  2
AMG_2DSTRUCT_BTR
 70
     0
  0
APPID
  5
ED8
330
9
100
AcDbSymbolTableRecord
100
AcDbRegAppTableRecord
  2
AcAecLayerStandard
 70
     0
  0
APPID
  5
ED9
330
9
100
AcDbSymbolTableRecord
100
AcDbRegAppTableRecord
  2
GENIUS_GENOBJ-N-FIL_13
 70
     0
  0
APPID
  5
EDA
330
9
100
AcDbSymbolTableRecord
100
AcDbRegAppTableRecord
  2
GENIUS_GENODEF_13
 70
     0
  0
APPID
  5
1057
330
9
100
AcDbSymbolTableRecord
100
AcDbRegAppTableRecord
  2
ACAD_EXEMPT_FROM_CAD_STANDARDS
 70
     0
  0
APPID
  5
160B
330
9
100
AcDbSymbolTableRecord
100
AcDbRegAppTableRecord
  2
ACAD_DSTYLE_DIMTEXT_FILL
 70
     0
  0
APPID
  5
160C
330
9
100
AcDbSymbolTableRecord
100
AcDbRegAppTableRecord
  2
ACAD_DSTYLE_DIMEXT_LENGTH
 70
     0
  0
APPID
  5
160D
330
9
100
AcDbSymbolTableRecord
100
AcDbRegAppTableRecord
  2
ACAD_DSTYLE_DIMEXT_ENABLED
 70
     0
  0
APPID
  5
160E
330
9
100
AcDbSymbolTableRecord
100
AcDbRegAppTableRecord
  2
ACAD_DSTYLE_DIM_LINETYPE
 70
     0
  0
APPID
  5
160F
330
9
100
AcDbSymbolTableRecord
100
AcDbRegAppTableRecord
  2
ACAD_DSTYLE_DIM_EXT1_LINETYPE
 70
     0
  0
APPID
  5
1610
330
9
100
AcDbSymbolTableRecord
100
AcDbRegAppTableRecord
  2
ACAD_DSTYLE_DIM_EXT2_LINETYPE
 70
     0
  0
APPID
  5
1919
330
9
100
AcDbSymbolTableRecord
100
AcDbRegAppTableRecord
  2
GENIUS_GENOBJ-N-HTC_13
 70
     0
  0
APPID
  5
191A
330
9
100
AcDbSymbolTableRecord
100
AcDbRegAppTableRecord
  2
GENIUS_GENHATCH_13
 70
     0
  0
APPID
  5
1CC4
330
9
100
AcDbSymbolTableRecord
100
AcDbRegAppTableRecord
  2
GENIUS_GENREC_14
 70
     0
  0
APPID
  5
1CC5
330
9
100
AcDbSymbolTableRecord
100
AcDbRegAppTableRecord
  2
GENIUS_GENOBJ-N-REC_13
 70
     0
  0
ENDTAB
  0
TABLE
  2
DIMSTYLE
  5
A
330
0
100
AcDbSymbolTable
 70
    11
100
AcDbDimStyleTable
 71
     3
340
B27
340
7B
340
27
  0
DIMSTYLE
105
27
330
A
100
AcDbSymbolTableRecord
100
AcDbDimStyleTableRecord
  2
ISO-25
 70
     0
 41
2.5
 42
0.625
 43
3.75
 44
1.25
 73
     0
 74
     0
 77
     1
 78
     8
140
2.5
141
2.5
143
0.03937007874016
147
0.625
171
     3
172
     1
271
     2
272
     2
274
     3
278
    44
283
     0
284
     8
340
11
  0
DIMSTYLE
105
7B
330
A
100
AcDbSymbolTableRecord
100
AcDbDimStyleTableRecord
  2
A3DIM
 70
     0
 40
1.4
 41
7.0
 42
2.5
 43
10.0
 44
2.5
 73
     0
 77
     1
 78
     8
 79
     2
140
6.0
141
2.000000000000001
143
0.03937007874016
147
1.5
171
     3
179
     2
271
     2
272
     2
274
     3
283
     0
284
     8
340
11
  0
DIMSTYLE
105
37A
330
A
100
AcDbSymbolTableRecord
100
AcDbDimStyleTableRecord
  2
STDIMP
 70
     0
 41
0.175
 42
0.175
 43
0.75
 44
0.175
 73
     0
 74
     0
 77
     1
 78
     8
 79
     3
141
0.0
143
0.03937007874016
147
0.08
171
     3
179
     2
271
     2
272
     2
274
     3
277
     3
283
     0
284
     8
340
11
  0
DIMSTYLE
105
B27
330
A
100
AcDbSymbolTableRecord
100
AcDbDimStyleTableRecord
  2
AM_ISO
 70
     0
  4
"
 41
6.099999999999996
 42
1.0
 43
10.0
 44
1.0
 47
0.1
 48
0.1
 73
     0
 74
     0
 77
     1
 78
     8
 79
     2
140
6.999999999999992
141
0.0
143
0.0393701
146
0.71
147
1.5
172
     1
176
   256
177
   256
178
     3
271
     2
272
     2
283
     0
284
     8
340
11
371
    -1
372
    -1
1001
ACAD_DSTYLE_DIMEXT_LENGTH
1070
   378
1040
1.0
1001
ACAD_DSTYLE_DIMEXT_ENABLED
1070
   383
1070
     0
1001
ACAD_DSTYLE_DIMARC_LENGTH_SYMBOL
1070
   379
1070
     1
1001
ACAD_DSTYLE_DIMJOGGED_JOGANGLE_SYMBOL
1070
   384
1040
0.7853981633974483
  0
DIMSTYLE
105
B30
330
A
100
AcDbSymbolTableRecord
100
AcDbDimStyleTableRecord
  2
AM_ISO$3
 70
     0
  4
"
 41
6.099999999999996
 42
1.0
 43
10.0
 44
1.0
 47
0.1
 48
0.1
 73
     0
 77
     1
 78
     8
 79
     2
140
6.999999999999992
141
0.0
143
0.0393701
146
0.71
147
1.5
176
   256
177
   256
178
     3
271
     2
272
     2
283
     0
284
     8
288
     1
289
     0
340
11
371
    -1
372
    -1
1001
ACAD_DSTYLE_DIMARC_LENGTH_SYMBOL
1070
   379
1070
     1
1001
ACAD_DSTYLE_DIMJOGGED_JOGANGLE_SYMBOL
1070
   384
1040
0.7853981633974483
  0
DIMSTYLE
105
B33
330
A
100
AcDbSymbolTableRecord
100
AcDbDimStyleTableRecord
  2
AM_ISO$4
 70
     0
  4
"
 41
6.099999999999996
 42
1.0
 43
10.0
 44
1.0
 47
0.1
 48
0.1
 73
     0
 77
     1
 78
     8
 79
     2
140
6.999999999999992
141
0.0
143
0.0393701
146
0.71
147
1.5
176
   256
177
   256
178
     3
271
     2
272
     2
283
     0
284
     8
288
     1
289
     0
340
11
371
    -1
372
    -1
1001
ACAD_DSTYLE_DIMARC_LENGTH_SYMBOL
1070
   379
1070
     1
1001
ACAD_DSTYLE_DIMJOGGED_JOGANGLE_SYMBOL
1070
   384
1040
0.7853981633974483
  0
DIMSTYLE
105
B36
330
A
100
AcDbSymbolTableRecord
100
AcDbDimStyleTableRecord
  2
AM_ISO$6
 70
     0
  4
"
 41
6.099999999999996
 42
1.0
 43
10.0
 44
1.0
 47
0.1
 48
0.1
 73
     0
 74
     0
 78
     8
 79
     2
140
6.999999999999992
141
0.0
143
0.0393701
146
0.71
147
1.5
172
     1
176
   256
177
   256
178
     3
271
     2
272
     2
283
     0
284
     8
340
11
371
    -1
372
    -1
1001
ACAD_DSTYLE_DIMARC_LENGTH_SYMBOL
1070
   379
1070
     1
1001
ACAD_DSTYLE_DIMJOGGED_JOGANGLE_SYMBOL
1070
   384
1040
0.7853981633974483
  0
DIMSTYLE
105
B39
330
A
100
AcDbSymbolTableRecord
100
AcDbDimStyleTableRecord
  2
AM_ISO$7
 70
     0
  4
"
 41
6.099999999999996
 42
1.0
 43
10.0
 44
1.0
 47
0.1
 48
0.1
 73
     0
 74
     0
 77
     1
 78
     8
 79
     2
140
5.0
141
0.0
143
0.0393701
146
0.71
147
1.5
172
     1
176
   256
177
   256
178
     3
271
     2
272
     2
283
     0
284
     8
340
11
371
    -1
372
    -1
1001
ACAD_DSTYLE_DIMARC_LENGTH_SYMBOL
1070
   379
1070
     1
1001
ACAD_DSTYLE_DIMJOGGED_JOGANGLE_SYMBOL
1070
   384
1040
0.7853981633974483
  0
DIMSTYLE
105
B3C
330
A
100
AcDbSymbolTableRecord
100
AcDbDimStyleTableRecord
  2
AM_ISO$SF
 70
     0
  4
"
 41
2.5
 42
1.0
 43
10.0
 44
1.0
 47
0.1
 48
0.1
 73
     0
 74
     0
 75
     1
 76
     1
 77
     1
 78
     8
 79
     2
140
3.5
141
0.0
143
0.0393701
146
0.71
147
1.5
172
     1
176
   256
177
   256
178
     2
271
     2
272
     3
274
     4
283
     0
284
     8
340
11
371
    -1
372
    -1
1001
ACAD_DSTYLE_DIMARC_LENGTH_SYMBOL
1070
   379
1070
     1
1001
ACAD_DSTYLE_DIMJOGGED_JOGANGLE_SYMBOL
1070
   384
1040
0.7853981633974483
  0
DIMSTYLE
105
B43
330
A
100
AcDbSymbolTableRecord
100
AcDbDimStyleTableRecord
  2
AM_ISO$SH
 70
     0
  4
"
 41
2.5
 42
1.0
 43
10.0
 44
1.0
 47
0.1
 48
0.1
 73
     0
 74
     0
 75
     1
 76
     1
 77
     1
 78
     8
 79
     2
140
3.5
141
0.0
143
0.0393701
144
2.0
146
0.71
147
1.5
172
     1
173
     1
176
   256
177
   256
178
     2
271
     2
272
     3
274
     4
283
     0
284
     8
340
11
343
B3D
371
    -1
372
    -1
1001
ACAD_DSTYLE_DIMARC_LENGTH_SYMBOL
1070
   379
1070
     1
1001
ACAD_DSTYLE_DIMJOGGED_JOGANGLE_SYMBOL
1070
   384
1040
0.7853981633974483
  0
DIMSTYLE
105
13E0
102
{ACAD_REACTORS
330
1CD6
330
1CFA
330
1D22
102
}
330
A
100
AcDbSymbolTableRecord
100
AcDbDimStyleTableRecord
  2
AM_ISO$0
 70
     0
  4
"
 41
6.099999999999996
 42
1.0
 43
10.0
 44
1.0
 47
0.1
 48
0.1
 73
     0
 74
     0
 77
     1
 78
     8
 79
     2
140
6.999999999999992
141
0.0
143
0.0393701
146
0.71
147
1.5
172
     1
176
   256
177
   256
178
     3
271
     2
272
     2
283
     0
284
     8
340
11
371
    -1
372
    -1
1001
ACAD_DSTYLE_DIMARC_LENGTH_SYMBOL
1070
   379
1070
     1
1001
ACAD_DSTYLE_DIMJOGGED_JOGANGLE_SYMBOL
1070
   384
1040
0.7853981633974483
  0
ENDTAB
  0
TABLE
  2
BLOCK_RECORD
  5
1
330
0
100
AcDbSymbolTable
 70
    35
  0
BLOCK_RECORD
  5
1F
102
{ACAD_XDICTIONARY
360
F94
102
}
330
1
100
AcDbSymbolTableRecord
100
AcDbBlockTableRecord
  2
*Model_Space
340
22
  0
BLOCK_RECORD
  5
1B
330
1
100
AcDbSymbolTableRecord
100
AcDbBlockTableRecord
  2
*Paper_Space
340
1E
  0
BLOCK_RECORD
  5
23
330
1
100
AcDbSymbolTableRecord
100
AcDbBlockTableRecord
  2
*Paper_Space0
340
26
  0
BLOCK_RECORD
  5
B3D
330
1
100
AcDbSymbolTableRecord
100
AcDbBlockTableRecord
  2
GENAXEH
340
0
  0
BLOCK_RECORD
  5
EB1
330
1
100
AcDbSymbolTableRecord
100
AcDbBlockTableRecord
  2
*U4
340
0
  0
BLOCK_RECORD
  5
1CD7
330
1
100
AcDbSymbolTableRecord
100
AcDbBlockTableRecord
  2
*D21
340
0
  0
BLOCK_RECORD
  5
1CFB
330
1
100
AcDbSymbolTableRecord
100
AcDbBlockTableRecord
  2
*D22
340
0
  0
BLOCK_RECORD
  5
1D23
330
1
100
AcDbSymbolTableRecord
100
AcDbBlockTableRecord
  2
*D23
340
0
  0
BLOCK_RECORD
  5
1DBA
330
1
100
AcDbSymbolTableRecord
100
AcDbBlockTableRecord
  2
*U24
340
0
  0
BLOCK_RECORD
  5
1DC5
330
1
100
AcDbSymbolTableRecord
100
AcDbBlockTableRecord
  2
*U25
340
0
  0
BLOCK_RECORD
  5
1DDA
330
1
100
AcDbSymbolTableRecord
100
AcDbBlockTableRecord
  2
*U26
340
0
  0
BLOCK_RECORD
  5
1DE3
330
1
100
AcDbSymbolTableRecord
100
AcDbBlockTableRecord
  2
*U27
340
0
  0
BLOCK_RECORD
  5
1DF8
330
1
100
AcDbSymbolTableRecord
100
AcDbBlockTableRecord
  2
*U28
340
0
  0
BLOCK_RECORD
  5
1E03
330
1
100
AcDbSymbolTableRecord
100
AcDbBlockTableRecord
  2
*U29
340
0
  0
BLOCK_RECORD
  5
1E18
330
1
100
AcDbSymbolTableRecord
100
AcDbBlockTableRecord
  2
*U30
340
0
  0
BLOCK_RECORD
  5
1E21
330
1
100
AcDbSymbolTableRecord
100
AcDbBlockTableRecord
  2
*U31
340
0
  0
BLOCK_RECORD
  5
1E36
330
1
100
AcDbSymbolTableRecord
100
AcDbBlockTableRecord
  2
*U32
340
0
  0
BLOCK_RECORD
  5
1E45
330
1
100
AcDbSymbolTableRecord
100
AcDbBlockTableRecord
  2
*U33
340
0
  0
BLOCK_RECORD
  5
1E54
330
1
100
AcDbSymbolTableRecord
100
AcDbBlockTableRecord
  2
*U34
340
0
  0
ENDTAB
  0
ENDSEC
  0
SECTION
  2
BLOCKS
  0
BLOCK
  5
20
330
1F
100
AcDbEntity
  8
0
100
AcDbBlockBegin
  2
*Model_Space
 70
     0
 10
0.0
 20
0.0
 30
0.0
  3
*Model_Space
  1

  0
ENDBLK
  5
21
330
1F
100
AcDbEntity
  8
0
100
AcDbBlockEnd
  0
BLOCK
  5
1C
330
1B
100
AcDbEntity
 67
     1
  8
0
100
AcDbBlockBegin
  2
*Paper_Space
 70
     0
 10
0.0
 20
0.0
 30
0.0
  3
*Paper_Space
  1

  0
ENDBLK
  5
1D
330
1B
100
AcDbEntity
 67
     1
  8
0
100
AcDbBlockEnd
  0
BLOCK
  5
24
330
23
100
AcDbEntity
 67
     1
  8
0
100
AcDbBlockBegin
  2
*Paper_Space0
 70
     0
 10
0.0
 20
0.0
 30
0.0
  3
*Paper_Space0
  1

  0
ENDBLK
  5
25
330
23
100
AcDbEntity
 67
     1
  8
0
100
AcDbBlockEnd
  0
BLOCK
  5
B3F
330
B3D
100
AcDbEntity
  8
0
100
AcDbBlockBegin
  2
GENAXEH
 70
     0
 10
0.0
 20
0.0
 30
0.0
  3
GENAXEH
  1

  0
LINE
  5
B3E
330
B3D
100
AcDbEntity
  8
0
100
AcDbLine
 10
-1.0
 20
0.0
 30
0.0
 11
1.0
 21
0.0
 31
0.0
  0
ENDBLK
  5
B40
330
B3D
100
AcDbEntity
  8
0
100
AcDbBlockEnd
  0
BLOCK
  5
EB2
330
EB1
100
AcDbEntity
  8
0
100
AcDbBlockBegin
  2
*U4
 70
     1
 10
0.0
 20
0.0
 30
0.0
  3
*U4
  1

  0
ENDBLK
  5
EB3
330
EB1
100
AcDbEntity
  8
0
100
AcDbBlockEnd
  0
BLOCK
  5
1CE1
330
1CD7
100
AcDbEntity
  8
0
100
AcDbBlockBegin
  2
*D21
 70
     1
 10
0.0
 20
0.0
 30
0.0
  3
*D21
  1

  0
LINE
  5
1D6A
330
1CD7
100
AcDbEntity
  8
AM_5
100
AcDbLine
 10
172.0725927599472
 20
-49.97103193571998
 30
0.0
 11
119.2627594127593
 21
-49.97103193571998
 31
0.0
  0
LINE
  5
1D6B
330
1CD7
100
AcDbEntity
  8
AM_5
100
AcDbLine
 10
161.4135927599472
 20
233.94596806428
 30
0.0
 11
119.2627594127594
 21
233.94596806428
 31
0.0
  0
LINE
  5
1D6C
330
1CD7
100
AcDbEntity
  8
AM_5
100
AcDbLine
 10
120.2627594127593
 20
-43.87103193571998
 30
0.0
 11
120.2627594127594
 21
227.84596806428
 31
0.0
  0
SOLID
  5
1D6D
330
1CD7
100
AcDbEntity
  8
AM_5
100
AcDbTrace
 10
119.2460927460926
 20
-43.87103193571998
 30
0.0
 11
121.2794260794259
 21
-43.87103193571998
 31
0.0
 12
120.2627594127593
 22
-49.97103193571998
 32
0.0
 13
120.2627594127593
 23
-49.97103193571998
 33
0.0
  0
SOLID
  5
1D6E
330
1CD7
100
AcDbEntity
  8
AM_5
100
AcDbTrace
 10
119.2460927460927
 20
227.84596806428
 30
0.0
 11
121.279426079426
 21
227.84596806428
 31
0.0
 12
120.2627594127594
 22
233.94596806428
 32
0.0
 13
120.2627594127594
 23
233.94596806428
 33
0.0
  0
MTEXT
  5
1D6F
330
1CD7
100
AcDbEntity
  8
AM_5
 62
     3
100
AcDbMText
 10
111.7627594127593
 20
91.98746806428005
 30
0.0
 40
6.999999999999992
 41
0.0
 71
     5
 72
     1
  1
283.92
 11
0.0000000000000001
 21
1.0
 31
0.0
 73
     1
 44
1.0
  0
POINT
  5
1D70
330
1CD7
100
AcDbEntity
  8
Defpoints
 62
     0
100
AcDbPoint
 10
173.0725927599472
 20
-49.97103193571998
 30
0.0
  0
POINT
  5
1D71
330
1CD7
100
AcDbEntity
  8
Defpoints
 62
     0
100
AcDbPoint
 10
162.4135927599472
 20
233.94596806428
 30
0.0
  0
POINT
  5
1D72
330
1CD7
100
AcDbEntity
  8
Defpoints
 62
     0
100
AcDbPoint
 10
120.2627594127594
 20
233.94596806428
 30
0.0
  0
ENDBLK
  5
1CE2
330
1CD7
100
AcDbEntity
  8
0
100
AcDbBlockEnd
  0
BLOCK
  5
1D05
330
1CFB
100
AcDbEntity
  8
0
100
AcDbBlockBegin
  2
*D22
 70
     1
 10
0.0
 20
0.0
 30
0.0
  3
*D22
  1

  0
LINE
  5
1D60
330
1CFB
100
AcDbEntity
  8
AM_5
100
AcDbLine
 10
172.0725927599472
 20
-49.97103193571998
 30
0.0
 11
80.70377997201866
 21
-49.97103193571996
 31
0.0
  0
LINE
  5
1D61
330
1CFB
100
AcDbEntity
  8
AM_5
100
AcDbLine
 10
314.8385924841494
 20
673.7427680642795
 30
0.0
 11
80.70377997201884
 21
673.7427680642796
 31
0.0
  0
LINE
  5
1D62
330
1CFB
100
AcDbEntity
  8
AM_5
100
AcDbLine
 10
81.70377997201866
 20
-43.87103193571997
 30
0.0
 11
81.70377997201882
 21
667.6427680642795
 31
0.0
  0
SOLID
  5
1D63
330
1CFB
100
AcDbEntity
  8
AM_5
100
AcDbTrace
 10
80.68711330535199
 20
-43.87103193571997
 30
0.0
 11
82.72044663868532
 21
-43.87103193571997
 31
0.0
 12
81.70377997201866
 22
-49.97103193571996
 32
0.0
 13
81.70377997201866
 23
-49.97103193571996
 33
0.0
  0
SOLID
  5
1D64
330
1CFB
100
AcDbEntity
  8
AM_5
100
AcDbTrace
 10
80.68711330535215
 20
667.6427680642795
 30
0.0
 11
82.72044663868548
 21
667.6427680642795
 31
0.0
 12
81.70377997201883
 22
673.7427680642796
 32
0.0
 13
81.70377997201883
 23
673.7427680642796
 33
0.0
  0
MTEXT
  5
1D65
330
1CFB
100
AcDbEntity
  8
AM_5
 62
     3
100
AcDbMText
 10
73.2037799720187
 20
311.8858680642798
 30
0.0
 40
6.999999999999992
 41
0.0
 71
     5
 72
     1
  1
723.71
 11
0.0000000000000001
 21
1.0
 31
0.0
 73
     1
 44
1.0
  0
POINT
  5
1D66
330
1CFB
100
AcDbEntity
  8
Defpoints
 62
     0
100
AcDbPoint
 10
173.0725927599472
 20
-49.97103193571998
 30
0.0
  0
POINT
  5
1D67
330
1CFB
100
AcDbEntity
  8
Defpoints
 62
     0
100
AcDbPoint
 10
315.8385924841494
 20
673.7427680642795
 30
0.0
  0
POINT
  5
1D68
330
1CFB
100
AcDbEntity
  8
Defpoints
 62
     0
100
AcDbPoint
 10
81.70377997201883
 20
673.7427680642796
 30
0.0
  0
ENDBLK
  5
1D06
330
1CFB
100
AcDbEntity
  8
0
100
AcDbBlockEnd
  0
BLOCK
  5
1D2D
330
1D23
100
AcDbEntity
  8
0
100
AcDbBlockBegin
  2
*D23
 70
     1
 10
0.0
 20
0.0
 30
0.0
  3
*D23
  1

  0
LINE
  5
1D55
330
1D23
100
AcDbEntity
  8
AM_5
100
AcDbLine
 10
147.212096995073
 20
514.3076455680621
 30
0.0
 11
147.212096995073
 21
699.7988726556934
 31
0.0
  0
LINE
  5
1D56
330
1D23
100
AcDbEntity
  8
AM_5
100
AcDbLine
 10
489.6003604251411
 20
510.5995875381754
 30
0.0
 11
489.6003604251411
 21
699.7988726556934
 31
0.0
  0
LINE
  5
1D57
330
1D23
100
AcDbEntity
  8
AM_5
100
AcDbLine
 10
153.3120969950729
 20
698.7988726556935
 30
0.0
 11
483.5003604251411
 21
698.7988726556935
 31
0.0
  0
SOLID
  5
1D58
330
1D23
100
AcDbEntity
  8
AM_5
100
AcDbTrace
 10
153.3120969950729
 20
699.81553932236
 30
0.0
 11
153.3120969950729
 21
697.7822059890268
 31
0.0
 12
147.212096995073
 22
698.7988726556935
 32
0.0
 13
147.212096995073
 23
698.7988726556935
 33
0.0
  0
SOLID
  5
1D59
330
1D23
100
AcDbEntity
  8
AM_5
100
AcDbTrace
 10
483.5003604251411
 20
699.81553932236
 30
0.0
 11
483.5003604251411
 21
697.7822059890268
 31
0.0
 12
489.6003604251411
 22
698.7988726556935
 32
0.0
 13
489.6003604251411
 23
698.7988726556935
 33
0.0
  0
MTEXT
  5
1D5A
330
1D23
100
AcDbEntity
  8
AM_5
 62
     3
100
AcDbMText
 10
318.406228710107
 20
707.2988726556935
 30
0.0
 40
6.999999999999992
 41
0.0
 71
     5
 72
     1
  1
342.39
 73
     1
 44
1.0
  0
POINT
  5
1D5B
330
1D23
100
AcDbEntity
  8
Defpoints
 62
     0
100
AcDbPoint
 10
147.212096995073
 20
513.3076455680622
 30
0.0
  0
POINT
  5
1D5C
330
1D23
100
AcDbEntity
  8
Defpoints
 62
     0
100
AcDbPoint
 10
489.6003604251411
 20
509.5995875381754
 30
0.0
  0
POINT
  5
1D5D
330
1D23
100
AcDbEntity
  8
Defpoints
 62
     0
100
AcDbPoint
 10
489.6003604251411
 20
698.7988726556935
 30
0.0
  0
ENDBLK
  5
1D2E
330
1D23
100
AcDbEntity
  8
0
100
AcDbBlockEnd
  0
BLOCK
  5
1DC2
330
1DBA
100
AcDbEntity
  8
0
100
AcDbBlockBegin
  2
*U24
 70
     1
 10
0.0
 20
0.0
 30
0.0
  3
*U24
  1

  0
LINE
  5
1DBB
330
1DBA
100
AcDbEntity
  8
AM_7N
  6
AM_ISO08W050x2
100
AcDbLine
 10
196.1386930983049
 20
434.5585563564435
 30
0.0
 11
202.6231930983049
 21
434.5585563564435
 31
0.0
  0
LINE
  5
1DBC
330
1DBA
100
AcDbEntity
  8
AM_0N
100
AcDbLine
 10
199.1386930983049
 20
437.9500563564436
 30
0.0
 11
199.1386930983049
 21
436.7872563564437
 31
0.0
  0
LINE
  5
1DBD
330
1DBA
100
AcDbEntity
  8
AM_9N
100
AcDbLine
 10
199.1386930983049
 20
436.7872563564437
 30
0.0
 11
199.1386930983049
 21
432.3298563564435
 31
0.0
  0
LINE
  5
1DBE
330
1DBA
100
AcDbEntity
  8
AM_0N
100
AcDbLine
 10
199.1386930983049
 20
432.3298563564435
 30
0.0
 11
199.1386930983049
 21
431.1670563564436
 31
0.0
  0
LINE
  5
1DBF
330
1DBA
100
AcDbEntity
  8
AM_0N
100
AcDbLine
 10
199.6231930983049
 20
431.1670563564436
 30
0.0
 11
199.6231930983049
 21
437.9500563564436
 31
0.0
  0
LINE
  5
1DC0
330
1DBA
100
AcDbEntity
  8
AM_0N
100
AcDbLine
 10
199.1386930983049
 20
431.1670563564436
 30
0.0
 11
199.6231930983049
 21
431.1670563564436
 31
0.0
  0
LINE
  5
1DC1
330
1DBA
100
AcDbEntity
  8
AM_0N
100
AcDbLine
 10
199.6231930983049
 20
437.9500563564436
 30
0.0
 11
199.1386930983049
 21
437.9500563564436
 31
0.0
  0
ENDBLK
  5
1DC3
330
1DBA
100
AcDbEntity
  8
0
100
AcDbBlockEnd
  0
BLOCK
  5
1DD7
330
1DC5
100
AcDbEntity
  8
0
100
AcDbBlockBegin
  2
*U25
 70
     1
 10
0.0
 20
0.0
 30
0.0
  3
*U25
  1

  0
ARC
  5
1DC6
330
1DC5
100
AcDbEntity
  8
AM_0N
100
AcDbCircle
 10
198.4254446747406
 20
432.2502166689436
 30
0.0
 40
1.360597991555564
100
AcDbArc
 50
145.5615305952682
 51
205.5615305952682
  0
ARC
  5
1DC7
330
1DC5
100
AcDbEntity
  8
AM_0N
100
AcDbCircle
 10
197.5263415218692
 20
432.2502166689436
 30
0.0
 40
1.360597991555564
100
AcDbArc
 50
334.4384694047322
 51
34.43846940473171
  0
LINE
  5
1DC8
330
1DC5
100
AcDbEntity
  8
AM_0N
100
AcDbLine
 10
196.8130930983049
 20
432.3298563564436
 30
0.0
 11
196.8130930983049
 21
436.7872563564437
 31
0.0
  0
LINE
  5
1DC9
330
1DC5
100
AcDbEntity
  8
AM_0N
100
AcDbLine
 10
199.1386930983049
 20
432.3298563564435
 30
0.0
 11
199.1386930983049
 21
436.7872563564437
 31
0.0
  0
ARC
  5
1DCA
330
1DC5
100
AcDbEntity
  8
AM_0N
100
AcDbCircle
 10
198.4254446747406
 20
436.8668960439435
 30
0.0
 40
1.360597991555567
100
AcDbArc
 50
154.4384694047318
 51
214.4384694047317
  0
ARC
  5
1DCB
330
1DC5
100
AcDbEntity
  8
AM_0N
100
AcDbCircle
 10
202.1495387642235
 20
434.5585563564435
 30
0.0
 40
5.084692081038391
100
AcDbArc
 50
162.3830311596133
 51
197.6169688403867
  0
ARC
  5
1DCC
330
1DC5
100
AcDbEntity
  8
AM_0N
100
AcDbCircle
 10
193.8022474323864
 20
434.5585563564435
 30
0.0
 40
5.084692081038379
100
AcDbArc
 50
342.3830311596132
 51
17.61696884038671
  0
ARC
  5
1DCD
330
1DC5
100
AcDbEntity
  8
AM_0N
100
AcDbCircle
 10
197.5263415218692
 20
436.8668960439435
 30
0.0
 40
1.360597991555564
100
AcDbArc
 50
325.5615305952682
 51
25.56153059526837
  0
LINE
  5
1DCE
330
1DC5
100
AcDbEntity
  8
AM_0N
100
AcDbLine
 10
197.3033132733076
 20
437.6363426064435
 30
0.0
 11
196.8130930983049
 21
436.7872563564437
 31
0.0
  0
LINE
  5
1DCF
330
1DC5
100
AcDbEntity
  8
AM_7N
  6
AM_ISO08W050x2
100
AcDbLine
 10
202.1386930983049
 20
434.5585563564435
 30
0.0
 11
193.8130930983049
 21
434.5585563564435
 31
0.0
  0
LINE
  5
1DD0
330
1DC5
100
AcDbEntity
  8
AM_0N
100
AcDbLine
 10
198.6484729233022
 20
433.0196632314436
 30
0.0
 11
197.3033132733076
 21
433.0196632314436
 31
0.0
  0
LINE
  5
1DD1
330
1DC5
100
AcDbEntity
  8
AM_0N
100
AcDbLine
 10
198.6484729233022
 20
437.6363426064435
 30
0.0
 11
199.1386930983049
 21
436.7872563564437
 31
0.0
  0
LINE
  5
1DD2
330
1DC5
100
AcDbEntity
  8
AM_0N
100
AcDbLine
 10
198.6484729233022
 20
437.6363426064435
 30
0.0
 11
197.3033132733076
 21
437.6363426064435
 31
0.0
  0
LINE
  5
1DD3
330
1DC5
100
AcDbEntity
  8
AM_0N
100
AcDbLine
 10
198.6484729233022
 20
436.0974494814436
 30
0.0
 11
197.3033132733076
 21
436.0974494814436
 31
0.0
  0
LINE
  5
1DD4
330
1DC5
100
AcDbEntity
  8
AM_0N
100
AcDbLine
 10
197.3033132733076
 20
431.4807701064436
 30
0.0
 11
196.8130930983049
 21
432.3298563564436
 31
0.0
  0
LINE
  5
1DD5
330
1DC5
100
AcDbEntity
  8
AM_0N
100
AcDbLine
 10
198.6484729233022
 20
431.4807701064436
 30
0.0
 11
199.1386930983049
 21
432.3298563564435
 31
0.0
  0
LINE
  5
1DD6
330
1DC5
100
AcDbEntity
  8
AM_0N
100
AcDbLine
 10
198.6484729233022
 20
431.4807701064436
 30
0.0
 11
197.3033132733076
 21
431.4807701064436
 31
0.0
  0
ENDBLK
  5
1DD8
330
1DC5
100
AcDbEntity
  8
0
100
AcDbBlockEnd
  0
BLOCK
  5
1DE0
330
1DDA
100
AcDbEntity
  8
0
100
AcDbBlockBegin
  2
*U26
 70
     1
 10
0.0
 20
0.0
 30
0.0
  3
*U26
  1

  0
LINE
  5
1DDB
330
1DDA
100
AcDbEntity
  8
AM_7N
  6
AM_ISO08W050x2
100
AcDbLine
 10
200.782093098305
 20
466.0214677986409
 30
0.0
 11
194.297593098305
 21
466.0214677986409
 31
0.0
  0
LINE
  5
1DDC
330
1DDA
100
AcDbEntity
  8
AM_0N
100
AcDbLine
 10
197.782093098305
 20
464.0834677986409
 30
0.0
 11
197.782093098305
 21
467.9594677986409
 31
0.0
  0
LINE
  5
1DDD
330
1DDA
100
AcDbEntity
  8
AM_9N
100
AcDbLine
 10
197.297593098305
 20
467.9594677986409
 30
0.0
 11
197.297593098305
 21
464.0834677986409
 31
0.0
  0
LINE
  5
1DDE
330
1DDA
100
AcDbEntity
  8
AM_0N
100
AcDbLine
 10
197.782093098305
 20
467.9594677986409
 30
0.0
 11
197.2975930983049
 21
467.9594677986409
 31
0.0
  0
LINE
  5
1DDF
330
1DDA
100
AcDbEntity
  8
AM_0N
100
AcDbLine
 10
197.297593098305
 20
464.0834677986409
 30
0.0
 11
197.782093098305
 21
464.0834677986409
 31
0.0
  0
ENDBLK
  5
1DE1
330
1DDA
100
AcDbEntity
  8
0
100
AcDbBlockEnd
  0
BLOCK
  5
1DF5
330
1DE3
100
AcDbEntity
  8
0
100
AcDbBlockBegin
  2
*U27
 70
     1
 10
0.0
 20
0.0
 30
0.0
  3
*U27
  1

  0
ARC
  5
1DE4
330
1DE3
100
AcDbEntity
  8
AM_0N
100
AcDbCircle
 10
196.8482539482356
 20
463.9229771736409
 30
0.0
 40
1.236907265050513
100
AcDbArc
 50
145.5615305952682
 51
205.5615305952682
  0
ARC
  5
1DE5
330
1DE3
100
AcDbEntity
  8
AM_0N
100
AcDbCircle
 10
195.8089322483743
 20
463.9229771736409
 30
0.0
 40
1.236907265050513
100
AcDbArc
 50
334.4384694047324
 51
34.43846940473174
  0
LINE
  5
1DE6
330
1DE3
100
AcDbEntity
  8
AM_0N
100
AcDbLine
 10
195.3595930983049
 20
464.0350177986408
 30
0.0
 11
195.3595930983049
 21
468.0079177986409
 31
0.0
  0
LINE
  5
1DE7
330
1DE3
100
AcDbEntity
  8
AM_0N
100
AcDbLine
 10
197.2975930983049
 20
464.0350177986408
 30
0.0
 11
197.2975930983049
 21
468.0079177986409
 31
0.0
  0
ARC
  5
1DE8
330
1DE3
100
AcDbEntity
  8
AM_0N
100
AcDbCircle
 10
196.8482539482356
 20
468.1199584236408
 30
0.0
 40
1.236907265050512
100
AcDbArc
 50
154.438469404732
 51
214.4384694047317
  0
ARC
  5
1DE9
330
1DE3
100
AcDbEntity
  8
AM_0N
100
AcDbCircle
 10
200.2337940295837
 20
466.0214677986409
 30
0.0
 40
4.622447346398564
100
AcDbArc
 50
162.3830311596134
 51
197.6169688403866
  0
ARC
  5
1DEA
330
1DE3
100
AcDbEntity
  8
AM_0N
100
AcDbCircle
 10
192.4233921670262
 20
466.0214677986409
 30
0.0
 40
4.622447346398555
100
AcDbArc
 50
342.3830311596134
 51
17.61696884038664
  0
ARC
  5
1DEB
330
1DE3
100
AcDbEntity
  8
AM_0N
100
AcDbCircle
 10
195.8089322483743
 20
468.1199584236408
 30
0.0
 40
1.236907265050513
100
AcDbArc
 50
325.5615305952682
 51
25.56153059526732
  0
LINE
  5
1DEC
330
1DE3
100
AcDbEntity
  8
AM_0N
100
AcDbLine
 10
195.8281344923874
 20
468.8194552986408
 30
0.0
 11
195.3595930983049
 21
468.0079177986409
 31
0.0
  0
LINE
  5
1DED
330
1DE3
100
AcDbEntity
  8
AM_7N
  6
AM_ISO08W050x2
100
AcDbLine
 10
200.2975930983049
 20
466.0214677986409
 30
0.0
 11
192.3595930983049
 21
466.0214677986409
 31
0.0
  0
LINE
  5
1DEE
330
1DE3
100
AcDbEntity
  8
AM_0N
100
AcDbLine
 10
196.8290517042225
 20
464.6224740486409
 30
0.0
 11
195.8281344923874
 21
464.6224740486409
 31
0.0
  0
LINE
  5
1DEF
330
1DE3
100
AcDbEntity
  8
AM_0N
100
AcDbLine
 10
196.8290517042225
 20
468.8194552986408
 30
0.0
 11
197.2975930983049
 21
468.0079177986409
 31
0.0
  0
LINE
  5
1DF0
330
1DE3
100
AcDbEntity
  8
AM_0N
100
AcDbLine
 10
196.8290517042225
 20
468.8194552986408
 30
0.0
 11
195.8281344923874
 21
468.8194552986408
 31
0.0
  0
LINE
  5
1DF1
330
1DE3
100
AcDbEntity
  8
AM_0N
100
AcDbLine
 10
196.8290517042225
 20
467.4204615486409
 30
0.0
 11
195.8281344923874
 21
467.4204615486409
 31
0.0
  0
LINE
  5
1DF2
330
1DE3
100
AcDbEntity
  8
AM_0N
100
AcDbLine
 10
195.8281344923874
 20
463.223480298641
 30
0.0
 11
195.3595930983049
 21
464.0350177986408
 31
0.0
  0
LINE
  5
1DF3
330
1DE3
100
AcDbEntity
  8
AM_0N
100
AcDbLine
 10
196.8290517042225
 20
463.223480298641
 30
0.0
 11
197.2975930983049
 21
464.0350177986408
 31
0.0
  0
LINE
  5
1DF4
330
1DE3
100
AcDbEntity
  8
AM_0N
100
AcDbLine
 10
196.8290517042225
 20
463.223480298641
 30
0.0
 11
195.8281344923874
 21
463.223480298641
 31
0.0
  0
ENDBLK
  5
1DF6
330
1DE3
100
AcDbEntity
  8
0
100
AcDbBlockEnd
  0
BLOCK
  5
1E00
330
1DF8
100
AcDbEntity
  8
0
100
AcDbBlockBegin
  2
*U28
 70
     1
 10
0.0
 20
0.0
 30
0.0
  3
*U28
  1

  0
LINE
  5
1DF9
330
1DF8
100
AcDbEntity
  8
AM_7N
  6
AM_ISO08W050x2
100
AcDbLine
 10
440.7064924215891
 20
434.5585563564437
 30
0.0
 11
434.2219924215891
 21
434.5585563564437
 31
0.0
  0
LINE
  5
1DFA
330
1DF8
100
AcDbEntity
  8
AM_0N
100
AcDbLine
 10
437.7064924215891
 20
437.9500563564437
 30
0.0
 11
437.7064924215891
 21
436.7872563564438
 31
0.0
  0
LINE
  5
1DFB
330
1DF8
100
AcDbEntity
  8
AM_9N
100
AcDbLine
 10
437.7064924215891
 20
436.7872563564438
 30
0.0
 11
437.7064924215891
 21
432.3298563564437
 31
0.0
  0
LINE
  5
1DFC
330
1DF8
100
AcDbEntity
  8
AM_0N
100
AcDbLine
 10
437.7064924215891
 20
432.3298563564437
 30
0.0
 11
437.7064924215891
 21
431.1670563564438
 31
0.0
  0
LINE
  5
1DFD
330
1DF8
100
AcDbEntity
  8
AM_0N
100
AcDbLine
 10
437.221992421589
 20
431.1670563564438
 30
0.0
 11
437.221992421589
 21
437.9500563564437
 31
0.0
  0
LINE
  5
1DFE
330
1DF8
100
AcDbEntity
  8
AM_0N
100
AcDbLine
 10
437.7064924215891
 20
431.1670563564438
 30
0.0
 11
437.221992421589
 21
431.1670563564438
 31
0.0
  0
LINE
  5
1DFF
330
1DF8
100
AcDbEntity
  8
AM_0N
100
AcDbLine
 10
437.221992421589
 20
437.9500563564437
 30
0.0
 11
437.7064924215891
 21
437.9500563564437
 31
0.0
  0
ENDBLK
  5
1E01
330
1DF8
100
AcDbEntity
  8
0
100
AcDbBlockEnd
  0
BLOCK
  5
1E15
330
1E03
100
AcDbEntity
  8
0
100
AcDbBlockBegin
  2
*U29
 70
     1
 10
0.0
 20
0.0
 30
0.0
  3
*U29
  1

  0
ARC
  5
1E04
330
1E03
100
AcDbEntity
  8
AM_0N
100
AcDbCircle
 10
-438.4197408451534
 20
432.2502166689438
 30
0.0
 40
1.360597991555564
210
0.0
220
0.0
230
-1.0
100
AcDbArc
 50
145.5615305952682
 51
205.5615305952682
  0
ARC
  5
1E05
330
1E03
100
AcDbEntity
  8
AM_0N
100
AcDbCircle
 10
-439.3188439980248
 20
432.2502166689438
 30
0.0
 40
1.360597991555564
210
0.0
220
0.0
230
-1.0
100
AcDbArc
 50
334.4384694047322
 51
34.43846940473171
  0
LINE
  5
1E06
330
1E03
100
AcDbEntity
  8
AM_0N
100
AcDbLine
 10
440.0320924215891
 20
432.3298563564438
 30
0.0
 11
440.0320924215891
 21
436.7872563564438
 31
0.0
  0
LINE
  5
1E07
330
1E03
100
AcDbEntity
  8
AM_0N
100
AcDbLine
 10
437.7064924215891
 20
432.3298563564437
 30
0.0
 11
437.7064924215891
 21
436.7872563564438
 31
0.0
  0
ARC
  5
1E08
330
1E03
100
AcDbEntity
  8
AM_0N
100
AcDbCircle
 10
-438.4197408451534
 20
436.8668960439437
 30
0.0
 40
1.360597991555567
210
0.0
220
0.0
230
-1.0
100
AcDbArc
 50
154.4384694047318
 51
214.4384694047317
  0
ARC
  5
1E09
330
1E03
100
AcDbEntity
  8
AM_0N
100
AcDbCircle
 10
-434.6956467556706
 20
434.5585563564437
 30
0.0
 40
5.084692081038391
210
0.0
220
0.0
230
-1.0
100
AcDbArc
 50
162.3830311596133
 51
197.6169688403867
  0
ARC
  5
1E0A
330
1E03
100
AcDbEntity
  8
AM_0N
100
AcDbCircle
 10
-443.0429380875076
 20
434.5585563564437
 30
0.0
 40
5.084692081038379
210
0.0
220
0.0
230
-1.0
100
AcDbArc
 50
342.3830311596132
 51
17.61696884038671
  0
ARC
  5
1E0B
330
1E03
100
AcDbEntity
  8
AM_0N
100
AcDbCircle
 10
-439.3188439980248
 20
436.8668960439437
 30
0.0
 40
1.360597991555564
210
0.0
220
0.0
230
-1.0
100
AcDbArc
 50
325.5615305952682
 51
25.56153059526837
  0
LINE
  5
1E0C
330
1E03
100
AcDbEntity
  8
AM_0N
100
AcDbLine
 10
439.5418722465864
 20
437.6363426064437
 30
0.0
 11
440.0320924215891
 21
436.7872563564438
 31
0.0
  0
LINE
  5
1E0D
330
1E03
100
AcDbEntity
  8
AM_7N
  6
AM_ISO08W050x2
100
AcDbLine
 10
434.7064924215891
 20
434.5585563564437
 30
0.0
 11
443.032092421589
 21
434.5585563564437
 31
0.0
  0
LINE
  5
1E0E
330
1E03
100
AcDbEntity
  8
AM_0N
100
AcDbLine
 10
438.1967125965918
 20
433.0196632314438
 30
0.0
 11
439.5418722465864
 21
433.0196632314438
 31
0.0
  0
LINE
  5
1E0F
330
1E03
100
AcDbEntity
  8
AM_0N
100
AcDbLine
 10
438.1967125965918
 20
437.6363426064437
 30
0.0
 11
437.7064924215891
 21
436.7872563564438
 31
0.0
  0
LINE
  5
1E10
330
1E03
100
AcDbEntity
  8
AM_0N
100
AcDbLine
 10
438.1967125965918
 20
437.6363426064437
 30
0.0
 11
439.5418722465864
 21
437.6363426064437
 31
0.0
  0
LINE
  5
1E11
330
1E03
100
AcDbEntity
  8
AM_0N
100
AcDbLine
 10
438.1967125965918
 20
436.0974494814437
 30
0.0
 11
439.5418722465864
 21
436.0974494814437
 31
0.0
  0
LINE
  5
1E12
330
1E03
100
AcDbEntity
  8
AM_0N
100
AcDbLine
 10
439.5418722465864
 20
431.4807701064437
 30
0.0
 11
440.0320924215891
 21
432.3298563564438
 31
0.0
  0
LINE
  5
1E13
330
1E03
100
AcDbEntity
  8
AM_0N
100
AcDbLine
 10
438.1967125965918
 20
431.4807701064437
 30
0.0
 11
437.7064924215891
 21
432.3298563564437
 31
0.0
  0
LINE
  5
1E14
330
1E03
100
AcDbEntity
  8
AM_0N
100
AcDbLine
 10
438.1967125965918
 20
431.4807701064437
 30
0.0
 11
439.5418722465864
 21
431.4807701064437
 31
0.0
  0
ENDBLK
  5
1E16
330
1E03
100
AcDbEntity
  8
0
100
AcDbBlockEnd
  0
BLOCK
  5
1E1E
330
1E18
100
AcDbEntity
  8
0
100
AcDbBlockBegin
  2
*U30
 70
     1
 10
0.0
 20
0.0
 30
0.0
  3
*U30
  1

  0
LINE
  5
1E19
330
1E18
100
AcDbEntity
  8
AM_7N
  6
AM_ISO08W050x2
100
AcDbLine
 10
436.063092421589
 20
466.0214677986409
 30
0.0
 11
442.547592421589
 21
466.0214677986409
 31
0.0
  0
LINE
  5
1E1A
330
1E18
100
AcDbEntity
  8
AM_0N
100
AcDbLine
 10
439.0630924215891
 20
464.083467798641
 30
0.0
 11
439.0630924215891
 21
467.9594677986409
 31
0.0
  0
LINE
  5
1E1B
330
1E18
100
AcDbEntity
  8
AM_9N
100
AcDbLine
 10
439.5475924215891
 20
467.9594677986409
 30
0.0
 11
439.5475924215891
 21
464.083467798641
 31
0.0
  0
LINE
  5
1E1C
330
1E18
100
AcDbEntity
  8
AM_0N
100
AcDbLine
 10
439.0630924215891
 20
467.9594677986409
 30
0.0
 11
439.5475924215891
 21
467.9594677986409
 31
0.0
  0
LINE
  5
1E1D
330
1E18
100
AcDbEntity
  8
AM_0N
100
AcDbLine
 10
439.5475924215891
 20
464.083467798641
 30
0.0
 11
439.0630924215891
 21
464.083467798641
 31
0.0
  0
ENDBLK
  5
1E1F
330
1E18
100
AcDbEntity
  8
0
100
AcDbBlockEnd
  0
BLOCK
  5
1E33
330
1E21
100
AcDbEntity
  8
0
100
AcDbBlockBegin
  2
*U31
 70
     1
 10
0.0
 20
0.0
 30
0.0
  3
*U31
  1

  0
ARC
  5
1E22
330
1E21
100
AcDbEntity
  8
AM_0N
100
AcDbCircle
 10
-439.9969315716584
 20
463.9229771736411
 30
0.0
 40
1.236907265050513
210
0.0
220
0.0
230
-1.0
100
AcDbArc
 50
145.5615305952682
 51
205.5615305952682
  0
ARC
  5
1E23
330
1E21
100
AcDbEntity
  8
AM_0N
100
AcDbCircle
 10
-441.0362532715197
 20
463.9229771736411
 30
0.0
 40
1.236907265050513
210
0.0
220
0.0
230
-1.0
100
AcDbArc
 50
334.4384694047324
 51
34.43846940473175
  0
LINE
  5
1E24
330
1E21
100
AcDbEntity
  8
AM_0N
100
AcDbLine
 10
441.4855924215891
 20
464.035017798641
 30
0.0
 11
441.4855924215891
 21
468.007917798641
 31
0.0
  0
LINE
  5
1E25
330
1E21
100
AcDbEntity
  8
AM_0N
100
AcDbLine
 10
439.5475924215891
 20
464.035017798641
 30
0.0
 11
439.5475924215891
 21
468.007917798641
 31
0.0
  0
ARC
  5
1E26
330
1E21
100
AcDbEntity
  8
AM_0N
100
AcDbCircle
 10
-439.9969315716584
 20
468.1199584236409
 30
0.0
 40
1.236907265050512
210
0.0
220
0.0
230
-1.0
100
AcDbArc
 50
154.438469404732
 51
214.4384694047317
  0
ARC
  5
1E27
330
1E21
100
AcDbEntity
  8
AM_0N
100
AcDbCircle
 10
-436.6113914903104
 20
466.0214677986409
 30
0.0
 40
4.622447346398564
210
0.0
220
0.0
230
-1.0
100
AcDbArc
 50
162.3830311596134
 51
197.6169688403866
  0
ARC
  5
1E28
330
1E21
100
AcDbEntity
  8
AM_0N
100
AcDbCircle
 10
-444.4217933528677
 20
466.0214677986409
 30
0.0
 40
4.622447346398555
210
0.0
220
0.0
230
-1.0
100
AcDbArc
 50
342.3830311596134
 51
17.61696884038664
  0
ARC
  5
1E29
330
1E21
100
AcDbEntity
  8
AM_0N
100
AcDbCircle
 10
-441.0362532715197
 20
468.1199584236409
 30
0.0
 40
1.236907265050513
210
0.0
220
0.0
230
-1.0
100
AcDbArc
 50
325.5615305952682
 51
25.56153059526732
  0
LINE
  5
1E2A
330
1E21
100
AcDbEntity
  8
AM_0N
100
AcDbLine
 10
441.0170510275066
 20
468.8194552986409
 30
0.0
 11
441.4855924215891
 21
468.007917798641
 31
0.0
  0
LINE
  5
1E2B
330
1E21
100
AcDbEntity
  8
AM_7N
  6
AM_ISO08W050x2
100
AcDbLine
 10
436.5475924215891
 20
466.0214677986409
 30
0.0
 11
444.485592421589
 21
466.0214677986409
 31
0.0
  0
LINE
  5
1E2C
330
1E21
100
AcDbEntity
  8
AM_0N
100
AcDbLine
 10
440.0161338156715
 20
464.622474048641
 30
0.0
 11
441.0170510275066
 21
464.622474048641
 31
0.0
  0
LINE
  5
1E2D
330
1E21
100
AcDbEntity
  8
AM_0N
100
AcDbLine
 10
440.0161338156715
 20
468.8194552986409
 30
0.0
 11
439.5475924215891
 21
468.007917798641
 31
0.0
  0
LINE
  5
1E2E
330
1E21
100
AcDbEntity
  8
AM_0N
100
AcDbLine
 10
440.0161338156715
 20
468.8194552986409
 30
0.0
 11
441.0170510275066
 21
468.8194552986409
 31
0.0
  0
LINE
  5
1E2F
330
1E21
100
AcDbEntity
  8
AM_0N
100
AcDbLine
 10
440.0161338156715
 20
467.420461548641
 30
0.0
 11
441.0170510275066
 21
467.420461548641
 31
0.0
  0
LINE
  5
1E30
330
1E21
100
AcDbEntity
  8
AM_0N
100
AcDbLine
 10
441.0170510275066
 20
463.2234802986411
 30
0.0
 11
441.4855924215891
 21
464.035017798641
 31
0.0
  0
LINE
  5
1E31
330
1E21
100
AcDbEntity
  8
AM_0N
100
AcDbLine
 10
440.0161338156715
 20
463.2234802986411
 30
0.0
 11
439.5475924215891
 21
464.035017798641
 31
0.0
  0
LINE
  5
1E32
330
1E21
100
AcDbEntity
  8
AM_0N
100
AcDbLine
 10
440.0161338156715
 20
463.2234802986411
 30
0.0
 11
441.0170510275066
 21
463.2234802986411
 31
0.0
  0
ENDBLK
  5
1E34
330
1E21
100
AcDbEntity
  8
0
100
AcDbBlockEnd
  0
BLOCK
  5
1E42
330
1E36
100
AcDbEntity
  8
0
100
AcDbBlockBegin
  2
*U32
 70
     1
 10
0.0
 20
0.0
 30
0.0
  3
*U32
  1

  0
CIRCLE
  5
1E37
330
1E36
100
AcDbEntity
  8
AM_0N
100
AcDbCircle
 10
308.7325927599472
 20
466.0214680642799
 30
0.0
 40
1.986449999999999
  0
ARC
  5
1E38
330
1E36
100
AcDbEntity
  8
AM_4N
100
AcDbCircle
 10
308.7325927599472
 20
466.0214680642799
 30
0.0
 40
1.211249999999999
100
AcDbArc
 50
260.0
 51
170.0
  0
CIRCLE
  5
1E39
330
1E36
100
AcDbEntity
  8
AM_0N
100
AcDbCircle
 10
308.7325927599472
 20
466.0214680642799
 30
0.0
 40
0.9752310141748898
  0
LINE
  5
1E3A
330
1E36
100
AcDbEntity
  8
AM_0N
100
AcDbLine
 10
306.3100927599472
 20
464.622837037168
 30
0.0
 11
308.7325927599473
 21
463.2242060100562
 31
0.0
  0
LINE
  5
1E3B
330
1E36
100
AcDbEntity
  8
AM_0N
100
AcDbLine
 10
308.7325927599473
 20
463.2242060100562
 30
0.0
 11
311.1550927599472
 21
464.6228370371682
 31
0.0
  0
LINE
  5
1E3C
330
1E36
100
AcDbEntity
  8
AM_0N
100
AcDbLine
 10
311.1550927599472
 20
464.6228370371682
 30
0.0
 11
311.1550927599472
 21
467.4200990913918
 31
0.0
  0
LINE
  5
1E3D
330
1E36
100
AcDbEntity
  8
AM_0N
100
AcDbLine
 10
311.1550927599472
 20
467.4200990913918
 30
0.0
 11
308.7325927599472
 21
468.8187301185037
 31
0.0
  0
LINE
  5
1E3E
330
1E36
100
AcDbEntity
  8
AM_0N
100
AcDbLine
 10
308.7325927599472
 20
468.8187301185037
 30
0.0
 11
306.3100927599472
 21
467.4200990913917
 31
0.0
  0
LINE
  5
1E3F
330
1E36
100
AcDbEntity
  8
AM_0N
100
AcDbLine
 10
306.3100927599472
 20
467.4200990913917
 30
0.0
 11
306.3100927599472
 21
464.622837037168
 31
0.0
  0
LINE
  5
1E40
330
1E36
100
AcDbEntity
  8
AM_7N
  6
AM_ISO08W050x2
100
AcDbLine
 10
308.7325927599472
 20
471.8187301185037
 30
0.0
 11
308.7325927599472
 21
460.2242060100563
 31
0.0
  0
LINE
  5
1E41
330
1E36
100
AcDbEntity
  8
AM_7N
  6
AM_ISO08W050x2
100
AcDbLine
 10
302.9353307057235
 20
466.0214680642799
 30
0.0
 11
314.5298548141709
 21
466.0214680642799
 31
0.0
  0
ENDBLK
  5
1E43
330
1E36
100
AcDbEntity
  8
0
100
AcDbBlockEnd
  0
BLOCK
  5
1E51
330
1E45
100
AcDbEntity
  8
0
100
AcDbBlockBegin
  2
*U33
 70
     1
 10
0.0
 20
0.0
 30
0.0
  3
*U33
  1

  0
CIRCLE
  5
1E46
330
1E45
100
AcDbEntity
  8
AM_0N
100
AcDbCircle
 10
328.1125927599472
 20
466.0214680642799
 30
0.0
 40
1.986449999999999
  0
ARC
  5
1E47
330
1E45
100
AcDbEntity
  8
AM_4N
100
AcDbCircle
 10
328.1125927599472
 20
466.0214680642799
 30
0.0
 40
1.211249999999999
100
AcDbArc
 50
260.0
 51
170.0
  0
CIRCLE
  5
1E48
330
1E45
100
AcDbEntity
  8
AM_0N
100
AcDbCircle
 10
328.1125927599472
 20
466.0214680642799
 30
0.0
 40
0.9752310141748898
  0
LINE
  5
1E49
330
1E45
100
AcDbEntity
  8
AM_0N
100
AcDbLine
 10
325.6900927599472
 20
464.622837037168
 30
0.0
 11
328.1125927599472
 21
463.2242060100562
 31
0.0
  0
LINE
  5
1E4A
330
1E45
100
AcDbEntity
  8
AM_0N
100
AcDbLine
 10
328.1125927599472
 20
463.2242060100562
 30
0.0
 11
330.5350927599472
 21
464.6228370371682
 31
0.0
  0
LINE
  5
1E4B
330
1E45
100
AcDbEntity
  8
AM_0N
100
AcDbLine
 10
330.5350927599472
 20
464.6228370371682
 30
0.0
 11
330.5350927599472
 21
467.4200990913918
 31
0.0
  0
LINE
  5
1E4C
330
1E45
100
AcDbEntity
  8
AM_0N
100
AcDbLine
 10
330.5350927599472
 20
467.4200990913918
 30
0.0
 11
328.1125927599472
 21
468.8187301185037
 31
0.0
  0
LINE
  5
1E4D
330
1E45
100
AcDbEntity
  8
AM_0N
100
AcDbLine
 10
328.1125927599472
 20
468.8187301185037
 30
0.0
 11
325.6900927599472
 21
467.4200990913917
 31
0.0
  0
LINE
  5
1E4E
330
1E45
100
AcDbEntity
  8
AM_0N
100
AcDbLine
 10
325.6900927599472
 20
467.4200990913917
 30
0.0
 11
325.6900927599472
 21
464.622837037168
 31
0.0
  0
LINE
  5
1E4F
330
1E45
100
AcDbEntity
  8
AM_7N
  6
AM_ISO08W050x2
100
AcDbLine
 10
328.1125927599472
 20
471.8187301185037
 30
0.0
 11
328.1125927599472
 21
460.2242060100563
 31
0.0
  0
LINE
  5
1E50
330
1E45
100
AcDbEntity
  8
AM_7N
  6
AM_ISO08W050x2
100
AcDbLine
 10
322.3153307057235
 20
466.0214680642799
 30
0.0
 11
333.9098548141709
 21
466.0214680642799
 31
0.0
  0
ENDBLK
  5
1E52
330
1E45
100
AcDbEntity
  8
0
100
AcDbBlockEnd
  0
BLOCK
  5
1E60
330
1E54
100
AcDbEntity
  8
0
100
AcDbBlockBegin
  2
*U34
 70
     1
 10
0.0
 20
0.0
 30
0.0
  3
*U34
  1

  0
CIRCLE
  5
1E55
330
1E54
100
AcDbEntity
  8
AM_0N
100
AcDbCircle
 10
318.4225927599472
 20
434.5585566220826
 30
0.0
 40
2.228699999999999
  0
ARC
  5
1E56
330
1E54
100
AcDbEntity
  8
AM_4N
100
AcDbCircle
 10
318.4225927599472
 20
434.5585566220826
 30
0.0
 40
1.453499999999999
100
AcDbArc
 50
260.0
 51
170.0
  0
CIRCLE
  5
1E57
330
1E54
100
AcDbEntity
  8
AM_0N
100
AcDbCircle
 10
318.4225927599472
 20
434.5585566220826
 30
0.0
 40
1.191256682416546
  0
LINE
  5
1E58
330
1E54
100
AcDbEntity
  8
AM_0N
100
AcDbLine
 10
315.7578427599471
 20
433.0200624922595
 30
0.0
 11
318.4225927599472
 21
431.4815683624365
 31
0.0
  0
LINE
  5
1E59
330
1E54
100
AcDbEntity
  8
AM_0N
100
AcDbLine
 10
318.4225927599472
 20
431.4815683624365
 30
0.0
 11
321.0873427599472
 21
433.0200624922596
 31
0.0
  0
LINE
  5
1E5A
330
1E54
100
AcDbEntity
  8
AM_0N
100
AcDbLine
 10
321.0873427599472
 20
433.0200624922596
 30
0.0
 11
321.0873427599472
 21
436.0970507519057
 31
0.0
  0
LINE
  5
1E5B
330
1E54
100
AcDbEntity
  8
AM_0N
100
AcDbLine
 10
321.0873427599472
 20
436.0970507519057
 30
0.0
 11
318.4225927599472
 21
437.6355448817288
 31
0.0
  0
LINE
  5
1E5C
330
1E54
100
AcDbEntity
  8
AM_0N
100
AcDbLine
 10
318.4225927599472
 20
437.6355448817288
 30
0.0
 11
315.7578427599471
 21
436.0970507519055
 31
0.0
  0
LINE
  5
1E5D
330
1E54
100
AcDbEntity
  8
AM_0N
100
AcDbLine
 10
315.7578427599471
 20
436.0970507519055
 30
0.0
 11
315.7578427599471
 21
433.0200624922595
 31
0.0
  0
LINE
  5
1E5E
330
1E54
100
AcDbEntity
  8
AM_7N
  6
AM_ISO08W050x2
100
AcDbLine
 10
318.4225927599472
 20
440.6355448817288
 30
0.0
 11
318.4225927599472
 21
428.4815683624365
 31
0.0
  0
LINE
  5
1E5F
330
1E54
100
AcDbEntity
  8
AM_7N
  6
AM_ISO08W050x2
100
AcDbLine
 10
312.345604500301
 20
434.5585566220826
 30
0.0
 11
324.4995810195933
 21
434.5585566220826
 31
0.0
  0
ENDBLK
  5
1E61
330
1E54
100
AcDbEntity
  8
0
100
AcDbBlockEnd
  0
ENDSEC
  0
SECTION
  2
ENTITIES
  0
LINE
  5
397
330
1F
100
AcDbEntity
  8
BORDER
100
AcDbLine
 10
917.9993114475564
 20
-83.57877258397016
 30
0.0
 11
917.9993114475564
 21
-88.57874758400905
 31
0.0
  0
TEXT
  5
398
330
1F
100
AcDbEntity
  8
BORDER
100
AcDbText
 10
841.5220513110025
 20
-85.7620282745386
 30
0.0
 40
1.499994000006
  1
SCALE                   RELEASED                          SHEET
  7
SIMPLEX
100
AcDbText
  0
LINE
  5
399
330
1F
100
AcDbEntity
  8
BORDER
100
AcDbLine
 10
771.3333781130504
 20
-48.57894758368903
 30
0.0
 11
964.5680707533575
 21
-48.57894758368903
 31
0.0
  0
LINE
  5
39A
330
1F
100
AcDbEntity
  8
BORDER
100
AcDbLine
 10
771.3333781130504
 20
-68.57884758384901
 30
0.0
 11
964.5680707533575
 21
-68.57884758384901
 31
0.0
  0
LINE
  5
39B
330
1F
100
AcDbEntity
  8
BORDER
100
AcDbLine
 10
771.3333781130504
 20
-38.57899758360978
 30
0.0
 11
964.6657447812636
 21
-38.57899758360978
 31
0.0
  0
LINE
  5
39C
330
1F
100
AcDbEntity
  8
BORDER
100
AcDbLine
 10
837.9997114469162
 20
-83.57877258397016
 30
0.0
 11
964.5680707533575
 21
-83.57877258397016
 31
0.0
  0
TEXT
  5
39D
330
1F
100
AcDbEntity
  8
BORDER
100
AcDbText
 10
850.67982198878
 20
-47.60043651270225
 30
0.0
 40
7.999968000032
  1
AMSAT-ZL
 41
1.5
  7
COMPLEX
 72
     1
 11
898.3939168461137
 21
-47.60043651270225
 31
0.0
100
AcDbText
  0
LINE
  5
39E
330
1F
100
AcDbEntity
  8
BORDER
100
AcDbLine
 10
871.3328781138521
 20
-83.57877258397016
 30
0.0
 11
871.3328781138521
 21
-88.57874758400905
 31
0.0
  0
LINE
  5
39F
330
1F
100
AcDbEntity
  8
BORDER
100
AcDbLine
 10
817.9998114467576
 20
-48.57894758368903
 30
0.0
 11
817.9998114467576
 21
-88.20489833541822
 31
0.0
  0
LINE
  5
3A0
330
1F
100
AcDbEntity
  8
BORDER
100
AcDbLine
 10
837.9997114469162
 20
-38.57899758360978
 30
0.0
 11
837.9997114469162
 21
-87.7262278505165
 31
0.0
  0
LINE
  5
3A1
330
1F
100
AcDbEntity
  8
BORDER
100
AcDbLine
 10
771.3333781130504
 20
-88.57874758400905
 30
0.0
 11
771.3333781130504
 21
-38.57899758360978
 31
0.0
  0
TEXT
  5
3A2
330
1F
100
AcDbEntity
  8
BORDER
100
AcDbText
 10
787.1781380117858
 20
-47.10526014900918
 30
0.0
 40
4.99998000002
  1
KiwiSAT
 41
1.3
  7
SIMPLEX
 72
     1
 11
804.9756858689997
 21
-47.10526014900918
 31
0.0
100
AcDbText
  0
LINE
  5
3A3
330
1F
100
AcDbEntity
  8
BORDER
100
AcDbLine
 10
771.3333781130504
 20
-58.57889758376976
 30
0.0
 11
837.9997114469162
 21
-58.57889758376976
 31
0.0
  0
LINE
  5
3A4
330
1F
100
AcDbEntity
  8
BORDER
100
AcDbLine
 10
771.3333781130504
 20
-78.57879758392974
 30
0.0
 11
837.9997114469162
 21
-78.57879758392974
 31
0.0
  0
TEXT
  5
3A5
330
1F
100
AcDbEntity
  8
BORDER
100
AcDbText
 10
774.6502257758532
 20
-70.5931256667856
 30
0.0
 40
1.499994000006
  1
DESIGN
  7
SIMPLEX
100
AcDbText
  0
TEXT
  5
3A6
330
1F
100
AcDbEntity
  8
BORDER
100
AcDbText
 10
774.6502257758532
 20
-80.87628815278092
 30
0.0
 40
1.499994000006
  1
ENGINEER
  7
SIMPLEX
100
AcDbText
  0
TEXT
  5
3A7
330
1F
100
AcDbEntity
  8
BORDER
100
AcDbText
 10
774.3013899618988
 20
-51.5123297858652
 30
0.0
 40
1.499994000006
  1
DRAWN
  7
SIMPLEX
100
AcDbText
  0
TEXT
  5
3A8
330
1F
100
AcDbEntity
  8
BORDER
100
AcDbText
 10
774.6502257758532
 20
-61.30031590817046
 30
0.0
 40
1.499994000006
  1
CHECK
  7
SIMPLEX
100
AcDbText
  0
TEXT
  5
3A9
330
1F
100
AcDbEntity
  8
BORDER
100
AcDbText
 10
774.6502257758532
 20
-41.24567317865822
 30
0.0
 40
1.499994000006
  1
PROJECT
  7
SIMPLEX
100
AcDbText
  0
TEXT
  5
3AA
330
1F
100
AcDbEntity
  8
BORDER
100
AcDbText
 10
821.5221313109234
 20
-51.0336593009649
 30
0.0
 40
1.499994000006
  1
DATE          TITLE
  7
SIMPLEX
100
AcDbText
  0
TEXT
  5
3AB
330
1F
100
AcDbEntity
  8
BORDER
100
AcDbText
 10
841.5220513110025
 20
-70.5931256667856
 30
0.0
 40
1.499994000006
  1
SIZE           DWG. NO.
  7
SIMPLEX
100
AcDbText
  0
LINE
  5
3AC
330
1F
100
AcDbEntity
  8
BORDER
100
AcDbLine
 10
857.9996114470748
 20
-68.57884758384901
 30
0.0
 11
857.9996114470748
 21
-83.57877258397016
 31
0.0
  0
TEXT
  5
3AD
330
1F
100
AcDbEntity
  8
BORDER
100
AcDbText
 10
845.9815612953541
 20
-79.4354668109876
 30
0.0
 40
7.619984759999998
  1
A
  7
SIMPLEX
 72
     1
 11
848.8844126324968
 21
-79.4354668109876
 31
0.0
100
AcDbText
  0
LWPOLYLINE
  5
DBB
330
1F
100
AcDbEntity
  8
0
100
AcDbPolyline
 90
        4
 70
     0
 43
0.0
 10
283.6505665654346
 20
264.9979524769014
 10
283.6505665654346
 20
293.4865524769013
 10
216.6829765654346
 20
293.4865524769013
 10
216.6829765654346
 20
264.9979524769014
  0
LWPOLYLINE
  5
DBC
330
1F
100
AcDbEntity
  8
0
100
AcDbPolyline
 90
        2
 70
     0
 43
0.0
 10
226.6636765654345
 20
294.4555524769013
 10
273.6698665654346
 20
294.4555524769013
  0
LWPOLYLINE
  5
DBD
330
1F
100
AcDbEntity
  8
0
100
AcDbPolyline
 90
        2
 70
     0
 43
0.0
 10
226.6636765654345
 20
255.0172524769014
 10
273.6698665654346
 20
255.0172524769014
  0
LWPOLYLINE
  5
DBE
330
1F
100
AcDbEntity
  8
0
100
AcDbPolyline
 90
        4
 70
     0
 43
0.0
 10
283.6505665654346
 20
304.4362524769014
 10
283.6505665654346
 20
332.9248524769015
 10
216.6829765654346
 20
332.9248524769015
 10
216.6829765654346
 20
304.4362524769014
  0
LINE
  5
DBF
330
1F
100
AcDbEntity
  8
0
100
AcDbLine
 10
283.6385118516466
 20
372.7796181140122
 30
0.0
 11
216.6709218516465
 21
372.7796181140122
 31
0.0
  0
LINE
  5
DC0
330
1F
100
AcDbEntity
  8
0
100
AcDbLine
 10
283.6385118516466
 20
412.2179181140123
 30
0.0
 11
216.6709218516465
 21
412.2179181140123
 31
0.0
  0
LINE
  5
DC1
330
1F
100
AcDbEntity
  8
0
100
AcDbLine
 10
226.6516218516465
 20
373.7486181140122
 30
0.0
 11
273.6578118516467
 21
373.7486181140122
 31
0.0
  0
LINE
  5
DC2
330
1F
100
AcDbEntity
  8
0
100
AcDbLine
 10
283.6505665654346
 20
304.4362524769014
 30
0.0
 11
273.6698665654346
 21
294.4555524769013
 31
0.0
  0
LINE
  5
DC3
330
1F
100
AcDbEntity
  8
0
100
AcDbLine
 10
274.2576427011089
 20
338.1090024769016
 30
0.0
 11
274.2576427011089
 21
332.9248524769015
 31
0.0
  0
LINE
  5
DC4
330
1F
100
AcDbEntity
  8
0
100
AcDbLine
 10
268.637442701109
 20
338.1090024769016
 30
0.0
 11
268.6374427011088
 21
332.9248524769015
 31
0.0
  0
LINE
  5
DC5
330
1F
100
AcDbEntity
  8
0
100
AcDbLine
 10
252.648942701109
 20
338.1090024769016
 30
0.0
 11
252.648942701109
 21
332.9248524769015
 31
0.0
  0
LINE
  5
DC6
330
1F
100
AcDbEntity
  8
0
100
AcDbLine
 10
247.803942701109
 20
338.1090024769016
 30
0.0
 11
247.803942701109
 21
332.9248524769015
 31
0.0
  0
LINE
  5
DC7
330
1F
100
AcDbEntity
  8
0
100
AcDbLine
 10
216.6709218516465
 20
372.7796181140122
 30
0.0
 11
216.6709218516465
 21
344.2910181140123
 31
0.0
  0
LINE
  5
DC8
330
1F
100
AcDbEntity
  8
0
100
AcDbLine
 10
283.6505665654346
 20
264.9979524769014
 30
0.0
 11
273.6698665654346
 21
255.0172524769014
 31
0.0
  0
LINE
  5
DC9
330
1F
100
AcDbEntity
  8
0
100
AcDbLine
 10
274.2576427011089
 20
298.5529276825139
 30
0.0
 11
274.2576427011089
 21
293.3687776825136
 31
0.0
  0
LINE
  5
DCA
330
1F
100
AcDbEntity
  8
0
100
AcDbLine
 10
268.637442701109
 20
298.5529276825139
 30
0.0
 11
268.6374427011088
 21
293.3687776825136
 31
0.0
  0
LINE
  5
DCB
330
1F
100
AcDbEntity
  8
0
100
AcDbLine
 10
274.2576427011089
 20
298.5529276825137
 30
0.0
 11
268.637442701109
 21
298.5529276825139
 31
0.0
  0
LINE
  5
DCC
330
1F
100
AcDbEntity
  8
0
100
AcDbLine
 10
252.648942701109
 20
298.5529276825139
 30
0.0
 11
247.803942701109
 21
298.5529276825139
 31
0.0
  0
LINE
  5
DCD
330
1F
100
AcDbEntity
  8
0
100
AcDbLine
 10
252.648942701109
 20
298.5529276825139
 30
0.0
 11
252.648942701109
 21
293.3687776825136
 31
0.0
  0
LINE
  5
DCE
330
1F
100
AcDbEntity
  8
0
100
AcDbLine
 10
247.803942701109
 20
298.5529276825139
 30
0.0
 11
247.803942701109
 21
293.3687776825136
 31
0.0
  0
LINE
  5
DCF
330
1F
100
AcDbEntity
  8
0
100
AcDbLine
 10
216.6709218516465
 20
344.2910181140123
 30
0.0
 11
226.6516218516465
 21
334.3103181140123
 31
0.0
  0
LINE
  5
DD0
330
1F
100
AcDbEntity
  8
0
100
AcDbLine
 10
216.6709218516465
 20
412.2179181140123
 30
0.0
 11
216.6709218516465
 21
383.7293181140122
 31
0.0
  0
LINE
  5
DD1
330
1F
100
AcDbEntity
  8
0
100
AcDbLine
 10
216.6709218516465
 20
383.7293181140122
 30
0.0
 11
226.6516218516465
 21
373.7486181140122
 31
0.0
  0
LINE
  5
DD2
330
1F
100
AcDbEntity
  8
0
100
AcDbLine
 10
226.1235168516466
 20
377.9637681140121
 30
0.0
 11
226.1235168516466
 21
372.7796181140122
 31
0.0
  0
LINE
  5
DD3
330
1F
100
AcDbEntity
  8
0
100
AcDbLine
 10
231.7437168516466
 20
377.9637681140123
 30
0.0
 11
231.7437168516466
 21
372.7796181140122
 31
0.0
  0
LINE
  5
DD4
330
1F
100
AcDbEntity
  8
0
100
AcDbLine
 10
231.7437168516466
 20
377.9637681140123
 30
0.0
 11
226.1235168516466
 21
377.9637681140123
 31
0.0
  0
LINE
  5
DD5
330
1F
100
AcDbEntity
  8
0
100
AcDbLine
 10
252.5772168516466
 20
377.9637681140124
 30
0.0
 11
247.7322168516467
 21
377.9637681140124
 31
0.0
  0
LINE
  5
DD6
330
1F
100
AcDbEntity
  8
0
100
AcDbLine
 10
247.7322168516466
 20
377.9637681140123
 30
0.0
 11
247.7322168516466
 21
372.7796181140122
 31
0.0
  0
LINE
  5
DD7
330
1F
100
AcDbEntity
  8
0
100
AcDbLine
 10
252.5772168516466
 20
377.9637681140124
 30
0.0
 11
252.5772168516466
 21
372.7796181140122
 31
0.0
  0
LINE
  5
DD8
330
1F
100
AcDbEntity
  8
0
100
AcDbLine
 10
231.7437168516466
 20
417.4020681140123
 30
0.0
 11
226.1235168516465
 21
417.4020681140123
 31
0.0
  0
LINE
  5
DD9
330
1F
100
AcDbEntity
  8
0
100
AcDbLine
 10
231.7437168516466
 20
417.4020681140123
 30
0.0
 11
231.7437168516466
 21
412.2179181140123
 31
0.0
  0
LINE
  5
DDA
330
1F
100
AcDbEntity
  8
0
100
AcDbLine
 10
226.1235168516466
 20
417.4020681140123
 30
0.0
 11
226.1235168516465
 21
412.2179181140123
 31
0.0
  0
LINE
  5
DDB
330
1F
100
AcDbEntity
  8
0
100
AcDbLine
 10
252.5772168516466
 20
417.4020681140123
 30
0.0
 11
247.7322168516466
 21
417.4020681140123
 31
0.0
  0
LINE
  5
DDC
330
1F
100
AcDbEntity
  8
0
100
AcDbLine
 10
247.7322168516466
 20
417.4020681140123
 30
0.0
 11
247.7322168516466
 21
412.2179181140123
 31
0.0
  0
LINE
  5
DDD
330
1F
100
AcDbEntity
  8
0
100
AcDbLine
 10
252.5772168516466
 20
417.4020681140123
 30
0.0
 11
252.5772168516466
 21
412.2179181140123
 31
0.0
  0
LINE
  5
DDE
330
1F
100
AcDbEntity
  8
0
100
AcDbLine
 10
351.844096542762
 20
298.0091531826963
 30
0.0
 11
341.8633965427621
 21
288.0284531826962
 31
0.0
  0
LINE
  5
DDF
330
1F
100
AcDbEntity
  8
0
100
AcDbLine
 10
216.6829765654346
 20
304.4362524769014
 30
0.0
 11
226.6636765654345
 21
294.4555524769013
 31
0.0
  0
LINE
  5
DE0
330
1F
100
AcDbEntity
  8
0
100
AcDbLine
 10
353.1616271926221
 20
289.8528478546186
 30
0.0
 11
363.1423271926221
 21
299.8335478546188
 31
0.0
  0
LINE
  5
DE1
330
1F
100
AcDbEntity
  8
0
100
AcDbLine
 10
284.8765065427619
 20
298.0091531826963
 30
0.0
 11
294.8572065427619
 21
288.0284531826962
 31
0.0
  0
LINE
  5
DE2
330
1F
100
AcDbEntity
  8
0
100
AcDbLine
 10
420.1292171926221
 20
289.8528478546186
 30
0.0
 11
410.1485171926222
 21
299.8335478546188
 31
0.0
  0
LINE
  5
DE3
330
1F
100
AcDbEntity
  8
0
100
AcDbLine
 10
353.1616271926221
 20
261.3642478546187
 30
0.0
 11
420.1292171926221
 21
261.3642478546187
 31
0.0
  0
LINE
  5
DE4
330
1F
100
AcDbEntity
  8
0
100
AcDbLine
 10
351.844096542762
 20
326.4977531826964
 30
0.0
 11
284.8765065427619
 21
326.4977531826964
 31
0.0
  0
LINE
  5
DE5
330
1F
100
AcDbEntity
  8
0
100
AcDbLine
 10
351.844096542762
 20
298.0091531826963
 30
0.0
 11
351.844096542762
 21
326.4977531826964
 31
0.0
  0
LINE
  5
DE6
330
1F
100
AcDbEntity
  8
0
100
AcDbLine
 10
231.815442701109
 20
338.1090024769016
 30
0.0
 11
231.815442701109
 21
332.9248524769015
 31
0.0
  0
LINE
  5
DE7
330
1F
100
AcDbEntity
  8
0
100
AcDbLine
 10
226.195242701109
 20
338.1090024769016
 30
0.0
 11
226.195242701109
 21
332.9248524769015
 31
0.0
  0
LINE
  5
DE8
330
1F
100
AcDbEntity
  8
0
100
AcDbLine
 10
342.391501542762
 20
331.6819031826963
 30
0.0
 11
336.771301542762
 21
331.6819031826964
 31
0.0
  0
LINE
  5
DE9
330
1F
100
AcDbEntity
  8
0
100
AcDbLine
 10
342.391501542762
 20
331.6819031826964
 30
0.0
 11
342.391501542762
 21
326.4977531826964
 31
0.0
  0
LINE
  5
DEA
330
1F
100
AcDbEntity
  8
0
100
AcDbLine
 10
336.771301542762
 20
331.6819031826964
 30
0.0
 11
336.7713015427619
 21
326.4977531826964
 31
0.0
  0
LINE
  5
DEB
330
1F
100
AcDbEntity
  8
0
100
AcDbLine
 10
320.7828015427619
 20
331.6819031826964
 30
0.0
 11
315.937801542762
 21
331.6819031826964
 31
0.0
  0
LINE
  5
DEC
330
1F
100
AcDbEntity
  8
0
100
AcDbLine
 10
320.7828015427619
 20
331.6819031826964
 30
0.0
 11
320.7828015427619
 21
326.4977531826964
 31
0.0
  0
LINE
  5
DED
330
1F
100
AcDbEntity
  8
0
100
AcDbLine
 10
315.937801542762
 20
331.6819031826964
 30
0.0
 11
315.937801542762
 21
326.4977531826964
 31
0.0
  0
LINE
  5
DEE
330
1F
100
AcDbEntity
  8
0
100
AcDbLine
 10
353.1616271926221
 20
289.8528478546186
 30
0.0
 11
353.1616271926221
 21
261.3642478546187
 31
0.0
  0
LINE
  5
DEF
330
1F
100
AcDbEntity
  8
0
100
AcDbLine
 10
284.8765065427619
 20
326.4977531826964
 30
0.0
 11
284.8765065427619
 21
298.0091531826963
 31
0.0
  0
LINE
  5
DF0
330
1F
100
AcDbEntity
  8
0
100
AcDbLine
 10
299.949301542762
 20
331.6819031826966
 30
0.0
 11
294.329101542762
 21
331.6819031826964
 31
0.0
  0
LINE
  5
DF1
330
1F
100
AcDbEntity
  8
0
100
AcDbLine
 10
299.949301542762
 20
331.6819031826964
 30
0.0
 11
299.949301542762
 21
326.4977531826964
 31
0.0
  0
LINE
  5
DF2
330
1F
100
AcDbEntity
  8
0
100
AcDbLine
 10
294.329101542762
 20
331.6819031826964
 30
0.0
 11
294.329101542762
 21
326.4977531826964
 31
0.0
  0
LINE
  5
DF3
330
1F
100
AcDbEntity
  8
0
100
AcDbLine
 10
405.0564221926221
 20
256.1800978546187
 30
0.0
 11
410.6766221926221
 21
256.1800978546187
 31
0.0
  0
LINE
  5
DF4
330
1F
100
AcDbEntity
  8
0
100
AcDbLine
 10
384.2229221926221
 20
256.1800978546187
 30
0.0
 11
389.0679221926222
 21
256.1800978546187
 31
0.0
  0
LINE
  5
DF5
330
1F
100
AcDbEntity
  8
0
100
AcDbLine
 10
362.6142221926222
 20
256.1800978546187
 30
0.0
 11
368.2344221926222
 21
256.1800978546187
 31
0.0
  0
LINE
  5
DF6
330
1F
100
AcDbEntity
  8
0
100
AcDbLine
 10
362.6142221926222
 20
256.1800978546187
 30
0.0
 11
362.6142221926222
 21
261.3642478546187
 31
0.0
  0
LINE
  5
DF7
330
1F
100
AcDbEntity
  8
0
100
AcDbLine
 10
368.2344221926222
 20
256.1800978546187
 30
0.0
 11
368.2344221926222
 21
261.3642478546187
 31
0.0
  0
LINE
  5
DF8
330
1F
100
AcDbEntity
  8
0
100
AcDbLine
 10
384.2229221926221
 20
256.1800978546187
 30
0.0
 11
384.2229221926221
 21
261.3642478546187
 31
0.0
  0
LINE
  5
DF9
330
1F
100
AcDbEntity
  8
0
100
AcDbLine
 10
389.0679221926222
 20
256.1800978546187
 30
0.0
 11
389.0679221926222
 21
261.3642478546187
 31
0.0
  0
LINE
  5
DFA
330
1F
100
AcDbEntity
  8
0
100
AcDbLine
 10
405.0564221926221
 20
256.1800978546187
 30
0.0
 11
405.056422192622
 21
261.3642478546187
 31
0.0
  0
LINE
  5
DFB
330
1F
100
AcDbEntity
  8
0
100
AcDbLine
 10
420.1292171926221
 20
261.3642478546187
 30
0.0
 11
420.1292171926221
 21
289.8528478546186
 31
0.0
  0
LINE
  5
DFC
330
1F
100
AcDbEntity
  8
0
100
AcDbLine
 10
410.676622192622
 20
256.1800978546187
 30
0.0
 11
410.6766221926221
 21
261.3642478546187
 31
0.0
  0
LINE
  5
DFD
330
1F
100
AcDbEntity
  8
0
100
AcDbLine
 10
353.1586840569308
 20
329.2911478546187
 30
0.0
 11
363.1393840569308
 21
339.2718478546188
 31
0.0
  0
LINE
  5
DFE
330
1F
100
AcDbEntity
  8
0
100
AcDbLine
 10
353.1616271926221
 20
300.8025478546188
 30
0.0
 11
420.1292171926221
 21
300.8025478546188
 31
0.0
  0
LWPOLYLINE
  5
DFF
330
1F
100
AcDbEntity
  8
0
100
AcDbPolyline
 90
        4
 70
     0
 43
0.0
 10
353.1276592662308
 20
368.7970977241554
 10
353.1276592662308
 20
340.3084977241554
 10
420.0952492662309
 20
340.3084977241554
 10
420.0952492662309
 20
368.7970977241554
  0
LINE
  5
E00
330
1F
100
AcDbEntity
  8
0
100
AcDbLine
 10
420.0952492662309
 20
408.2353977241553
 30
0.0
 11
410.1145492662309
 21
418.2160977241554
 31
0.0
  0
LINE
  5
E01
330
1F
100
AcDbEntity
  8
0
100
AcDbLine
 10
420.0952492662309
 20
368.7970977241554
 30
0.0
 11
410.1145492662309
 21
378.7777977241554
 31
0.0
  0
LWPOLYLINE
  5
E02
330
1F
100
AcDbEntity
  8
0
100
AcDbPolyline
 90
        4
 70
     0
 43
0.0
 10
353.1276592662308
 20
408.2353977241553
 10
353.1276592662308
 20
379.7467977241553
 10
420.0952492662309
 20
379.7467977241553
 10
420.0952492662309
 20
408.2353977241553
  0
LINE
  5
E03
330
1F
100
AcDbEntity
  8
0
100
AcDbLine
 10
351.9650064140685
 20
385.4724837901838
 30
0.0
 11
351.9650064140685
 21
413.9610837901838
 31
0.0
  0
LINE
  5
E04
330
1F
100
AcDbEntity
  8
0
100
AcDbLine
 10
284.9974164140683
 20
413.9610837901838
 30
0.0
 11
284.9974164140683
 21
385.4724837901838
 31
0.0
  0
LINE
  5
E05
330
1F
100
AcDbEntity
  8
0
100
AcDbLine
 10
283.6385118516466
 20
344.2910181140123
 30
0.0
 11
283.6385118516466
 21
372.7796181140122
 31
0.0
  0
LWPOLYLINE
  5
E06
330
1F
100
AcDbEntity
  8
0
100
AcDbPolyline
 90
        2
 70
     0
 43
0.0
 10
294.8572065427619
 20
248.5901531826963
 10
341.8633965427621
 20
248.5901531826963
  0
LINE
  5
E07
330
1F
100
AcDbEntity
  8
0
100
AcDbLine
 10
294.8572065427619
 20
288.0284531826962
 30
0.0
 11
341.8633965427621
 21
288.0284531826962
 31
0.0
  0
LINE
  5
E08
330
1F
100
AcDbEntity
  8
0
100
AcDbLine
 10
351.844096542762
 20
287.0594531826963
 30
0.0
 11
284.8765065427619
 21
287.0594531826963
 31
0.0
  0
LWPOLYLINE
  5
E09
330
1F
100
AcDbEntity
  8
0
100
AcDbPolyline
 90
        2
 70
     0
 43
0.0
 10
341.9843064140686
 20
423.9417837901839
 10
294.9781164140683
 20
423.9417837901839
  0
LINE
  5
E0A
330
1F
100
AcDbEntity
  8
0
100
AcDbLine
 10
351.844096542762
 20
258.5708531826963
 30
0.0
 11
341.8633965427621
 21
248.5901531826963
 31
0.0
  0
LINE
  5
E0B
330
1F
100
AcDbEntity
  8
0
100
AcDbLine
 10
216.6829765654346
 20
264.9979524769014
 30
0.0
 11
226.6636765654345
 21
255.0172524769014
 31
0.0
  0
LINE
  5
E0C
330
1F
100
AcDbEntity
  8
0
100
AcDbLine
 10
351.844096542762
 20
258.5708531826963
 30
0.0
 11
351.844096542762
 21
287.0594531826963
 31
0.0
  0
LINE
  5
E0D
330
1F
100
AcDbEntity
  8
0
100
AcDbLine
 10
231.815442701109
 20
298.5529276825139
 30
0.0
 11
226.195242701109
 21
298.5529276825139
 31
0.0
  0
LINE
  5
E0E
330
1F
100
AcDbEntity
  8
0
100
AcDbLine
 10
231.815442701109
 20
298.5529276825139
 30
0.0
 11
231.815442701109
 21
293.3687776825136
 31
0.0
  0
LINE
  5
E0F
330
1F
100
AcDbEntity
  8
0
100
AcDbLine
 10
226.195242701109
 20
298.5529276825139
 30
0.0
 11
226.195242701109
 21
293.3687776825136
 31
0.0
  0
LINE
  5
E10
330
1F
100
AcDbEntity
  8
0
100
AcDbLine
 10
342.391501542762
 20
292.2436031826965
 30
0.0
 11
336.7713015427619
 21
292.2436031826965
 31
0.0
  0
LINE
  5
E11
330
1F
100
AcDbEntity
  8
0
100
AcDbLine
 10
342.391501542762
 20
292.2436031826965
 30
0.0
 11
342.391501542762
 21
287.0594531826963
 31
0.0
  0
LINE
  5
E12
330
1F
100
AcDbEntity
  8
0
100
AcDbLine
 10
336.771301542762
 20
292.2436031826965
 30
0.0
 11
336.771301542762
 21
287.0594531826963
 31
0.0
  0
LINE
  5
E13
330
1F
100
AcDbEntity
  8
0
100
AcDbLine
 10
351.9650064140685
 20
413.9610837901838
 30
0.0
 11
341.9843064140686
 21
423.9417837901839
 31
0.0
  0
LINE
  5
E14
330
1F
100
AcDbEntity
  8
0
100
AcDbLine
 10
283.6385118516466
 20
344.2910181140123
 30
0.0
 11
273.6578118516467
 21
334.3103181140123
 31
0.0
  0
LINE
  5
E15
330
1F
100
AcDbEntity
  8
0
100
AcDbLine
 10
341.8633965427621
 20
248.5901531826963
 30
0.0
 11
334.0082553470349
 21
248.5901531826963
 31
0.0
  0
LINE
  5
E16
330
1F
100
AcDbEntity
  8
0
100
AcDbLine
 10
284.8765065427619
 20
258.5708531826963
 30
0.0
 11
294.8572065427619
 21
248.5901531826963
 31
0.0
  0
LINE
  5
E17
330
1F
100
AcDbEntity
  8
0
100
AcDbLine
 10
320.7828015427619
 20
292.2436031826965
 30
0.0
 11
315.937801542762
 21
292.2436031826965
 31
0.0
  0
LINE
  5
E18
330
1F
100
AcDbEntity
  8
0
100
AcDbLine
 10
320.7828015427619
 20
292.2436031826965
 30
0.0
 11
320.7828015427619
 21
287.0594531826963
 31
0.0
  0
LINE
  5
E19
330
1F
100
AcDbEntity
  8
0
100
AcDbLine
 10
315.937801542762
 20
292.2436031826965
 30
0.0
 11
315.937801542762
 21
287.0594531826963
 31
0.0
  0
LINE
  5
E1A
330
1F
100
AcDbEntity
  8
0
100
AcDbLine
 10
353.1616271926221
 20
329.2911478546187
 30
0.0
 11
353.1616271926221
 21
300.8025478546188
 31
0.0
  0
LINE
  5
E1B
330
1F
100
AcDbEntity
  8
0
100
AcDbLine
 10
284.8765065427619
 20
287.0594531826963
 30
0.0
 11
284.8765065427619
 21
258.5708531826963
 31
0.0
  0
LINE
  5
E1C
330
1F
100
AcDbEntity
  8
0
100
AcDbLine
 10
299.949301542762
 20
292.2436031826965
 30
0.0
 11
294.329101542762
 21
292.2436031826965
 31
0.0
  0
LINE
  5
E1D
330
1F
100
AcDbEntity
  8
0
100
AcDbLine
 10
299.949301542762
 20
292.2436031826965
 30
0.0
 11
299.949301542762
 21
287.0594531826963
 31
0.0
  0
LINE
  5
E1E
330
1F
100
AcDbEntity
  8
0
100
AcDbLine
 10
294.3291015427622
 20
292.2436031826965
 30
0.0
 11
294.329101542762
 21
287.0594531826963
 31
0.0
  0
LINE
  5
E1F
330
1F
100
AcDbEntity
  8
0
100
AcDbLine
 10
294.9781164140683
 20
423.9417837901839
 30
0.0
 11
302.8332576097954
 21
423.9417837901839
 31
0.0
  0
LINE
  5
E20
330
1F
100
AcDbEntity
  8
0
100
AcDbLine
 10
284.9974164140683
 20
413.9610837901838
 30
0.0
 11
294.9781164140683
 21
423.9417837901839
 31
0.0
  0
LINE
  5
E21
330
1F
100
AcDbEntity
  8
0
100
AcDbLine
 10
284.9974164140683
 20
385.4724837901838
 30
0.0
 11
351.9650064140685
 21
385.4724837901838
 31
0.0
  0
LINE
  5
E22
330
1F
100
AcDbEntity
  8
0
100
AcDbLine
 10
284.9974164140683
 20
346.0341837901838
 30
0.0
 11
351.9650064140685
 21
346.0341837901838
 31
0.0
  0
LINE
  5
E23
330
1F
100
AcDbEntity
  8
0
100
AcDbLine
 10
341.9843064140686
 20
384.5034837901838
 30
0.0
 11
294.9781164140683
 21
384.5034837901838
 31
0.0
  0
LINE
  5
E24
330
1F
100
AcDbEntity
  8
0
100
AcDbLine
 10
351.9650064140685
 20
346.0341837901838
 30
0.0
 11
351.9650064140685
 21
374.5227837901839
 31
0.0
  0
LINE
  5
E25
330
1F
100
AcDbEntity
  8
0
100
AcDbLine
 10
283.6385118516466
 20
383.7293181140122
 30
0.0
 11
283.6385118516466
 21
412.2179181140123
 31
0.0
  0
LINE
  5
E26
330
1F
100
AcDbEntity
  8
0
100
AcDbLine
 10
351.9650064140685
 20
374.5227837901839
 30
0.0
 11
341.9843064140686
 21
384.5034837901838
 31
0.0
  0
LINE
  5
E27
330
1F
100
AcDbEntity
  8
0
100
AcDbLine
 10
274.1859168516464
 20
377.9637681140124
 30
0.0
 11
268.5657168516466
 21
377.9637681140124
 31
0.0
  0
LINE
  5
E28
330
1F
100
AcDbEntity
  8
0
100
AcDbLine
 10
268.5657168516467
 20
377.9637681140124
 30
0.0
 11
268.5657168516466
 21
372.7796181140122
 31
0.0
  0
LINE
  5
E29
330
1F
100
AcDbEntity
  8
0
100
AcDbLine
 10
274.1859168516464
 20
377.9637681140123
 30
0.0
 11
274.1859168516464
 21
372.7796181140122
 31
0.0
  0
LINE
  5
E2A
330
1F
100
AcDbEntity
  8
0
100
AcDbLine
 10
283.6385118516466
 20
383.7293181140122
 30
0.0
 11
273.6578118516467
 21
373.7486181140122
 31
0.0
  0
LINE
  5
E2B
330
1F
100
AcDbEntity
  8
0
100
AcDbLine
 10
336.8922114140683
 20
380.2883337901837
 30
0.0
 11
342.5124114140683
 21
380.2883337901839
 31
0.0
  0
LINE
  5
E2C
330
1F
100
AcDbEntity
  8
0
100
AcDbLine
 10
342.5124114140682
 20
380.2883337901839
 30
0.0
 11
342.5124114140683
 21
385.4724837901838
 31
0.0
  0
LINE
  5
E2D
330
1F
100
AcDbEntity
  8
0
100
AcDbLine
 10
336.8922114140683
 20
380.2883337901837
 30
0.0
 11
336.8922114140683
 21
385.4724837901838
 31
0.0
  0
LINE
  5
E2E
330
1F
100
AcDbEntity
  8
0
100
AcDbLine
 10
274.1859168516464
 20
417.4020681140122
 30
0.0
 11
268.5657168516466
 21
417.4020681140123
 31
0.0
  0
LINE
  5
E2F
330
1F
100
AcDbEntity
  8
0
100
AcDbLine
 10
268.5657168516466
 20
417.4020681140123
 30
0.0
 11
268.5657168516466
 21
412.2179181140123
 31
0.0
  0
LINE
  5
E30
330
1F
100
AcDbEntity
  8
0
100
AcDbLine
 10
274.1859168516464
 20
417.4020681140123
 30
0.0
 11
274.1859168516464
 21
412.2179181140123
 31
0.0
  0
LINE
  5
E31
330
1F
100
AcDbEntity
  8
0
100
AcDbLine
 10
336.8922114140683
 20
340.8500337901836
 30
0.0
 11
342.5124114140683
 21
340.8500337901836
 31
0.0
  0
LINE
  5
E32
330
1F
100
AcDbEntity
  8
0
100
AcDbLine
 10
342.5124114140683
 20
340.8500337901838
 30
0.0
 11
342.5124114140683
 21
346.0341837901838
 31
0.0
  0
LINE
  5
E33
330
1F
100
AcDbEntity
  8
0
100
AcDbLine
 10
336.8922114140683
 20
340.8500337901838
 30
0.0
 11
336.8922114140683
 21
346.0341837901838
 31
0.0
  0
LINE
  5
E34
330
1F
100
AcDbEntity
  8
0
100
AcDbLine
 10
284.9974164140683
 20
374.5227837901839
 30
0.0
 11
284.9974164140683
 21
346.0341837901838
 31
0.0
  0
LINE
  5
E35
330
1F
100
AcDbEntity
  8
0
100
AcDbLine
 10
320.9037114140684
 20
380.2883337901837
 30
0.0
 11
320.9037114140684
 21
385.4724837901838
 31
0.0
  0
LINE
  5
E36
330
1F
100
AcDbEntity
  8
0
100
AcDbLine
 10
316.0587114140684
 20
380.2883337901837
 30
0.0
 11
316.0587114140684
 21
385.4724837901838
 31
0.0
  0
LINE
  5
E37
330
1F
100
AcDbEntity
  8
0
100
AcDbLine
 10
316.0587114140684
 20
380.2883337901837
 30
0.0
 11
320.9037114140684
 21
380.2883337901837
 31
0.0
  0
LINE
  5
E38
330
1F
100
AcDbEntity
  8
0
100
AcDbLine
 10
284.9974164140683
 20
374.5227837901839
 30
0.0
 11
294.9781164140683
 21
384.5034837901838
 31
0.0
  0
LINE
  5
E39
330
1F
100
AcDbEntity
  8
0
100
AcDbLine
 10
300.0702114140683
 20
380.2883337901837
 30
0.0
 11
300.0702114140683
 21
385.4724837901838
 31
0.0
  0
LINE
  5
E3A
330
1F
100
AcDbEntity
  8
0
100
AcDbLine
 10
294.4500114140684
 20
380.2883337901839
 30
0.0
 11
294.4500114140684
 21
385.4724837901838
 31
0.0
  0
LINE
  5
E3B
330
1F
100
AcDbEntity
  8
0
100
AcDbLine
 10
294.4500114140684
 20
380.2883337901837
 30
0.0
 11
300.0702114140685
 21
380.2883337901837
 31
0.0
  0
LINE
  5
E3C
330
1F
100
AcDbEntity
  8
0
100
AcDbLine
 10
316.0587114140684
 20
340.8500337901836
 30
0.0
 11
320.9037114140684
 21
340.8500337901836
 31
0.0
  0
LINE
  5
E3D
330
1F
100
AcDbEntity
  8
0
100
AcDbLine
 10
320.9037114140684
 20
340.8500337901838
 30
0.0
 11
320.9037114140684
 21
346.0341837901838
 31
0.0
  0
LINE
  5
E3E
330
1F
100
AcDbEntity
  8
0
100
AcDbLine
 10
316.0587114140684
 20
340.8500337901838
 30
0.0
 11
316.0587114140684
 21
346.0341837901838
 31
0.0
  0
LINE
  5
E3F
330
1F
100
AcDbEntity
  8
0
100
AcDbLine
 10
294.4500114140684
 20
340.8500337901838
 30
0.0
 11
294.4500114140684
 21
346.0341837901838
 31
0.0
  0
LINE
  5
E40
330
1F
100
AcDbEntity
  8
0
100
AcDbLine
 10
300.0702114140683
 20
340.8500337901838
 30
0.0
 11
300.0702114140685
 21
346.0341837901838
 31
0.0
  0
LINE
  5
E41
330
1F
100
AcDbEntity
  8
0
100
AcDbLine
 10
294.4500114140684
 20
340.8500337901839
 30
0.0
 11
300.0702114140683
 21
340.8500337901838
 31
0.0
  0
LINE
  5
E42
330
1F
100
AcDbEntity
  8
0
100
AcDbLine
 10
405.0564221926221
 20
295.6183978546186
 30
0.0
 11
410.676622192622
 21
295.6183978546188
 31
0.0
  0
LINE
  5
E43
330
1F
100
AcDbEntity
  8
0
100
AcDbLine
 10
410.1485171926222
 20
299.8335478546188
 30
0.0
 11
363.1423271926221
 21
299.8335478546188
 31
0.0
  0
LWPOLYLINE
  5
E44
330
1F
100
AcDbEntity
  8
0
100
AcDbPolyline
 90
        2
 70
     0
 43
0.0
 10
410.1485171926222
 20
339.2718478546188
 10
363.1423271926221
 20
339.2718478546188
  0
LWPOLYLINE
  5
E45
330
1F
100
AcDbEntity
  8
0
100
AcDbPolyline
 90
        2
 70
     0
 43
0.0
 10
410.1145492662309
 20
418.2160977241554
 10
363.1083592662307
 20
418.2160977241554
  0
LINE
  5
E46
330
1F
100
AcDbEntity
  8
0
100
AcDbLine
 10
384.2229221926221
 20
295.6183978546186
 30
0.0
 11
389.067922192622
 21
295.6183978546186
 31
0.0
  0
LINE
  5
E47
330
1F
100
AcDbEntity
  8
0
100
AcDbLine
 10
362.6142221926222
 20
295.6183978546186
 30
0.0
 11
368.2344221926222
 21
295.6183978546186
 31
0.0
  0
LINE
  5
E48
330
1F
100
AcDbEntity
  8
0
100
AcDbLine
 10
362.6142221926222
 20
295.6183978546186
 30
0.0
 11
362.6142221926222
 21
300.8025478546188
 31
0.0
  0
LINE
  5
E49
330
1F
100
AcDbEntity
  8
0
100
AcDbLine
 10
368.2344221926221
 20
295.6183978546186
 30
0.0
 11
368.2344221926222
 21
300.8025478546188
 31
0.0
  0
LINE
  5
E4A
330
1F
100
AcDbEntity
  8
0
100
AcDbLine
 10
384.2229221926221
 20
295.6183978546186
 30
0.0
 11
384.2229221926221
 21
300.8025478546188
 31
0.0
  0
LINE
  5
E4B
330
1F
100
AcDbEntity
  8
0
100
AcDbLine
 10
389.0679221926222
 20
295.6183978546186
 30
0.0
 11
389.0679221926222
 21
300.8025478546188
 31
0.0
  0
LINE
  5
E4C
330
1F
100
AcDbEntity
  8
0
100
AcDbLine
 10
405.056422192622
 20
295.6183978546188
 30
0.0
 11
405.0564221926221
 21
300.8025478546188
 31
0.0
  0
LINE
  5
E4D
330
1F
100
AcDbEntity
  8
0
100
AcDbLine
 10
420.1292171926221
 20
329.2911478546187
 30
0.0
 11
410.1485171926222
 21
339.2718478546188
 31
0.0
  0
LINE
  5
E4E
330
1F
100
AcDbEntity
  8
0
100
AcDbLine
 10
420.1292171926221
 20
300.8025478546188
 30
0.0
 11
420.1292171926221
 21
329.2911478546187
 31
0.0
  0
LINE
  5
E4F
330
1F
100
AcDbEntity
  8
0
100
AcDbLine
 10
410.676622192622
 20
295.6183978546189
 30
0.0
 11
410.676622192622
 21
300.8025478546188
 31
0.0
  0
LINE
  5
E50
330
1F
100
AcDbEntity
  8
0
100
AcDbLine
 10
353.1276592662308
 20
408.2353977241553
 30
0.0
 11
363.1083592662307
 21
418.2160977241554
 31
0.0
  0
LINE
  5
E51
330
1F
100
AcDbEntity
  8
0
100
AcDbLine
 10
362.5205831305565
 20
374.6804225185432
 30
0.0
 11
368.1407831305564
 21
374.6804225185432
 31
0.0
  0
LINE
  5
E52
330
1F
100
AcDbEntity
  8
0
100
AcDbLine
 10
362.5205831305564
 20
335.1243477241554
 30
0.0
 11
368.1407831305564
 21
335.1243477241553
 31
0.0
  0
LWPOLYLINE
  5
E53
330
1F
100
AcDbEntity
  8
0
100
AcDbPolyline
 90
        2
 70
     0
 43
0.0
 10
410.1145492662309
 20
378.7777977241554
 10
363.1083592662307
 20
378.7777977241554
  0
LINE
  5
E54
330
1F
100
AcDbEntity
  8
0
100
AcDbLine
 10
404.9627831305564
 20
374.680422518543
 30
0.0
 11
410.5829831305563
 21
374.680422518543
 31
0.0
  0
LINE
  5
E55
330
1F
100
AcDbEntity
  8
0
100
AcDbLine
 10
410.5829831305563
 20
374.6804225185432
 30
0.0
 11
410.5829831305563
 21
379.864572518543
 31
0.0
  0
LINE
  5
E56
330
1F
100
AcDbEntity
  8
0
100
AcDbLine
 10
404.9627831305564
 20
374.6804225185432
 30
0.0
 11
404.9627831305564
 21
379.864572518543
 31
0.0
  0
LINE
  5
E57
330
1F
100
AcDbEntity
  8
0
100
AcDbLine
 10
384.1292831305565
 20
374.680422518543
 30
0.0
 11
388.9742831305565
 21
374.680422518543
 31
0.0
  0
LINE
  5
E58
330
1F
100
AcDbEntity
  8
0
100
AcDbLine
 10
388.9742831305565
 20
374.6804225185432
 30
0.0
 11
388.9742831305565
 21
379.864572518543
 31
0.0
  0
LINE
  5
E59
330
1F
100
AcDbEntity
  8
0
100
AcDbLine
 10
384.1292831305565
 20
374.6804225185432
 30
0.0
 11
384.1292831305565
 21
379.864572518543
 31
0.0
  0
LINE
  5
E5A
330
1F
100
AcDbEntity
  8
0
100
AcDbLine
 10
368.1407831305564
 20
374.6804225185432
 30
0.0
 11
368.1407831305565
 21
379.864572518543
 31
0.0
  0
LINE
  5
E5B
330
1F
100
AcDbEntity
  8
0
100
AcDbLine
 10
404.9627831305564
 20
335.1243477241551
 30
0.0
 11
410.5829831305563
 21
335.1243477241553
 31
0.0
  0
LINE
  5
E5C
330
1F
100
AcDbEntity
  8
0
100
AcDbLine
 10
404.9627831305564
 20
335.1243477241553
 30
0.0
 11
404.9627831305564
 21
340.3084977241554
 31
0.0
  0
LINE
  5
E5D
330
1F
100
AcDbEntity
  8
0
100
AcDbLine
 10
410.5829831305563
 20
335.1243477241553
 30
0.0
 11
410.5829831305563
 21
340.3084977241554
 31
0.0
  0
LINE
  5
E5E
330
1F
100
AcDbEntity
  8
0
100
AcDbLine
 10
384.1292831305564
 20
335.1243477241553
 30
0.0
 11
388.9742831305564
 21
335.1243477241553
 31
0.0
  0
LINE
  5
E5F
330
1F
100
AcDbEntity
  8
0
100
AcDbLine
 10
384.1292831305564
 20
335.1243477241553
 30
0.0
 11
384.1292831305564
 21
340.3084977241554
 31
0.0
  0
LINE
  5
E60
330
1F
100
AcDbEntity
  8
0
100
AcDbLine
 10
388.9742831305564
 20
335.1243477241553
 30
0.0
 11
388.9742831305564
 21
340.3084977241554
 31
0.0
  0
LINE
  5
E61
330
1F
100
AcDbEntity
  8
0
100
AcDbLine
 10
368.1407831305564
 20
335.1243477241553
 30
0.0
 11
368.1407831305565
 21
340.3084977241554
 31
0.0
  0
LINE
  5
E62
330
1F
100
AcDbEntity
  8
0
100
AcDbLine
 10
362.5205831305565
 20
374.6804225185432
 30
0.0
 11
362.5205831305565
 21
379.864572518543
 31
0.0
  0
LINE
  5
E63
330
1F
100
AcDbEntity
  8
0
100
AcDbLine
 10
353.1276592662308
 20
368.7970977241554
 30
0.0
 11
363.1083592662307
 21
378.7777977241554
 31
0.0
  0
LINE
  5
E64
330
1F
100
AcDbEntity
  8
0
100
AcDbLine
 10
362.5205831305564
 20
335.1243477241553
 30
0.0
 11
362.5205831305564
 21
340.3084977241554
 31
0.0
  0
LINE
  5
E6A
330
1F
100
AcDbEntity
  8
0
  6
Continuous
100
AcDbLine
 10
200.2045927599471
 20
243.63596806428
 30
0.0
 11
200.2045927599472
 21
470.3819680642797
 31
0.0
  0
LINE
  5
E6B
330
1F
100
AcDbEntity
  8
0
  6
Continuous
100
AcDbLine
 10
201.7549927599471
 20
243.63596806428
 30
0.0
 11
201.7549927599472
 21
428.1335680642797
 31
0.0
  0
LINE
  5
E6C
330
1F
100
AcDbEntity
  8
0
  6
Continuous
100
AcDbLine
 10
436.6405927599471
 20
243.6359680642799
 30
0.0
 11
436.6405927599471
 21
470.38196806428
 31
0.0
  0
LINE
  5
E6D
330
1F
100
AcDbEntity
  8
0
  6
Continuous
100
AcDbLine
 10
435.0901927599472
 20
243.6359680642799
 30
0.0
 11
435.0901927599472
 21
428.1335680642797
 31
0.0
  0
LINE
  5
E6E
330
1F
100
AcDbEntity
  8
0
  6
Continuous
100
AcDbLine
 10
162.4135927599472
 20
233.94596806428
 30
0.0
 11
474.4315927599473
 21
233.94596806428
 31
0.0
  0
LINE
  5
E6F
330
1F
100
AcDbEntity
  8
0
  6
Continuous
100
AcDbLine
 10
205.0495927599472
 20
470.3819680642797
 30
0.0
 11
431.7955927599472
 21
470.38196806428
 31
0.0
  0
LINE
  5
E70
330
1F
100
AcDbEntity
  8
0
  6
Continuous
100
AcDbLine
 10
193.4215927599471
 20
243.63596806428
 30
0.0
 11
443.4235927599472
 21
243.6359680642799
 31
0.0
  0
LINE
  5
E71
330
1F
100
AcDbEntity
  8
0
  6
Continuous
100
AcDbLine
 10
226.6516218516465
 20
334.3103181140123
 30
0.0
 11
273.6578118516467
 21
334.3103181140123
 31
0.0
  0
LINE
  5
E72
330
1F
100
AcDbEntity
  8
0
  6
Continuous
100
AcDbLine
 10
226.195242701109
 20
338.1090024769016
 30
0.0
 11
231.815442701109
 21
338.1090024769016
 31
0.0
  0
LINE
  5
E73
330
1F
100
AcDbEntity
  8
0
  6
Continuous
100
AcDbLine
 10
247.803942701109
 20
338.1090024769016
 30
0.0
 11
252.648942701109
 21
338.1090024769016
 31
0.0
  0
LINE
  5
E74
330
1F
100
AcDbEntity
  8
0
  6
Continuous
100
AcDbLine
 10
252.648942701109
 20
338.1090024769016
 30
0.0
 11
252.648942701109
 21
338.1090024769016
 31
0.0
  0
LINE
  5
E75
330
1F
100
AcDbEntity
  8
0
  6
Continuous
100
AcDbLine
 10
268.637442701109
 20
338.1090024769016
 30
0.0
 11
274.2576427011089
 21
338.1090024769016
 31
0.0
  0
LINE
  5
E76
330
1F
100
AcDbEntity
  8
0
  6
Continuous
100
AcDbLine
 10
274.2576427011089
 20
338.1090024769016
 30
0.0
 11
271.4475427011089
 21
338.1090024769016
 31
0.0
  0
LINE
  5
E77
330
1F
100
AcDbEntity
  8
0
  6
Continuous
100
AcDbLine
 10
443.4235927599472
 20
233.94596806428
 30
0.0
 11
443.4235927599472
 21
243.63596806428
 31
0.0
  0
LINE
  5
E78
330
1F
100
AcDbEntity
  8
0
  6
Continuous
100
AcDbLine
 10
193.4215927599471
 20
233.94596806428
 30
0.0
 11
193.4215927599471
 21
243.63596806428
 31
0.0
  0
LINE
  5
E79
330
1F
100
AcDbEntity
  8
0
  6
Continuous
100
AcDbLine
 10
212.8015927599472
 20
233.94596806428
 30
0.0
 11
212.8015927599472
 21
243.63596806428
 31
0.0
  0
LINE
  5
E7A
330
1F
100
AcDbEntity
  8
0
  6
Continuous
100
AcDbLine
 10
424.0435927599471
 20
233.94596806428
 30
0.0
 11
424.0435927599471
 21
243.63596806428
 31
0.0
  0
LINE
  5
E7B
330
1F
100
AcDbEntity
  8
0
  6
Continuous
100
AcDbLine
 10
437.9487427599472
 20
233.94596806428
 30
0.0
 11
437.9487427599472
 21
237.48281806428
 31
0.0
  0
LINE
  5
E7C
330
1F
100
AcDbEntity
  8
0
  6
Continuous
100
AcDbLine
 10
198.8964427599471
 20
233.94596806428
 30
0.0
 11
198.8964427599471
 21
237.48281806428
 31
0.0
  0
LINE
  5
E7D
330
1F
100
AcDbEntity
  8
0
  6
Continuous
100
AcDbLine
 10
437.9487427599472
 20
237.48281806428
 30
0.0
 11
443.4235927599472
 21
237.48281806428
 31
0.0
  0
LINE
  5
E7E
330
1F
100
AcDbEntity
  8
0
  6
Continuous
100
AcDbLine
 10
429.8575927599472
 20
243.6359680642799
 30
0.0
 11
437.9487427599472
 21
237.48281806428
 31
0.0
  0
LINE
  5
E7F
330
1F
100
AcDbEntity
  8
0
  6
Continuous
100
AcDbLine
 10
206.9875927599472
 20
243.63596806428
 30
0.0
 11
198.8964427599471
 21
237.48281806428
 31
0.0
  0
LINE
  5
E80
330
1F
100
AcDbEntity
  8
0
  6
Continuous
100
AcDbLine
 10
198.8964427599471
 20
237.48281806428
 30
0.0
 11
193.4215927599471
 21
237.48281806428
 31
0.0
  0
LINE
  5
E81
330
1F
100
AcDbEntity
  8
0
  6
Continuous
100
AcDbLine
 10
200.2045927599472
 20
470.3819680642797
 30
0.0
 11
436.6405927599471
 21
470.38196806428
 31
0.0
  0
LINE
  5
E82
330
1F
100
AcDbEntity
  8
0
100
AcDbLine
 10
436.6405927599471
 20
428.1335680642798
 30
0.0
 11
200.2045927599472
 21
428.1335680642798
 31
0.0
  0
CIRCLE
  5
E83
330
1F
100
AcDbEntity
  8
0
  6
Continuous
100
AcDbCircle
 10
426.4660927599472
 20
421.9319680642798
 30
0.0
 40
4.360499999999999
  0
CIRCLE
  5
E84
330
1F
100
AcDbEntity
  8
0
  6
Continuous
100
AcDbCircle
 10
307.7635927599472
 20
336.2659684864401
 30
0.0
 40
4.360499999999999
  0
CIRCLE
  5
E85
330
1F
100
AcDbEntity
  8
0
  6
Continuous
100
AcDbCircle
 10
357.6670927599472
 20
422.8040680642799
 30
0.0
 40
4.360499999999999
  0
CIRCLE
  5
E86
330
1F
100
AcDbEntity
  8
0
  6
Continuous
100
AcDbCircle
 10
279.1780927599472
 20
422.8040680642799
 30
0.0
 40
4.360499999999999
  0
CIRCLE
  5
E87
330
1F
100
AcDbEntity
  8
0
  6
Continuous
100
AcDbCircle
 10
210.3790927599472
 20
417.0869680642797
 30
0.0
 40
4.360499999999999
  0
CIRCLE
  5
E88
330
1F
100
AcDbEntity
  8
0
  6
Continuous
100
AcDbCircle
 10
210.3790927599472
 20
362.8229680642799
 30
0.0
 40
4.360499999999999
  0
CIRCLE
  5
E89
330
1F
100
AcDbEntity
  8
0
  6
Continuous
100
AcDbCircle
 10
210.3790927599472
 20
306.62096806428
 30
0.0
 40
4.360499999999999
  0
CIRCLE
  5
E8A
330
1F
100
AcDbEntity
  8
0
  6
Continuous
100
AcDbCircle
 10
210.3790927599472
 20
251.38796806428
 30
0.0
 40
4.360499999999999
  0
CIRCLE
  5
E8B
330
1F
100
AcDbEntity
  8
0
  6
Continuous
100
AcDbCircle
 10
282.0850927599472
 20
248.96546806428
 30
0.0
 40
4.360499999999999
  0
CIRCLE
  5
E8C
330
1F
100
AcDbEntity
  8
0
  6
Continuous
100
AcDbCircle
 10
357.6670927599472
 20
248.9654680642799
 30
0.0
 40
4.360499999999999
  0
CIRCLE
  5
E8D
330
1F
100
AcDbEntity
  8
0
  6
Continuous
100
AcDbCircle
 10
426.4660927599472
 20
368.6369680642798
 30
0.0
 40
4.360499999999999
  0
CIRCLE
  5
E8E
330
1F
100
AcDbEntity
  8
0
  6
Continuous
100
AcDbCircle
 10
426.4660927599472
 20
312.4349680642798
 30
0.0
 40
4.360499999999999
  0
CIRCLE
  5
E8F
330
1F
100
AcDbEntity
  8
0
  6
Continuous
100
AcDbCircle
 10
426.4660927599472
 20
257.20196806428
 30
0.0
 40
4.360499999999999
  0
LINE
  5
F62
330
1F
100
AcDbEntity
  8
0
100
AcDbLine
 10
200.2045927599469
 20
461.66096806428
 30
0.0
 11
200.2045927599469
 21
470.38196806428
 31
0.0
  0
LINE
  5
F63
330
1F
100
AcDbEntity
  8
0
100
AcDbLine
 10
197.7820930983051
 20
461.6609677986409
 30
0.0
 11
197.7820930983051
 21
464.0834677986409
 31
0.0
  0
LINE
  5
F64
330
1F
100
AcDbEntity
  8
0
100
AcDbLine
 10
192.937092759947
 20
461.66096806428
 30
0.0
 11
200.2045927599469
 21
461.6609680642797
 31
0.0
  0
LINE
  5
F65
330
1F
100
AcDbEntity
  8
0
100
AcDbLine
 10
196.328592759947
 20
470.38196806428
 30
0.0
 11
200.2045927599472
 21
470.3819680642797
 31
0.0
  0
LINE
  5
F66
330
1F
100
AcDbEntity
  8
0
100
AcDbLine
 10
196.328592759947
 20
470.38196806428
 30
0.0
 11
190.514592759947
 21
465.1454153277071
 31
0.0
  0
LINE
  5
F67
330
1F
100
AcDbEntity
  8
0
100
AcDbLine
 10
167.7095610139948
 20
503.5505654059888
 30
0.0
 11
160.4125855502066
 21
496.9783265285198
 31
0.0
  0
LINE
  5
F68
330
1F
100
AcDbEntity
  8
0
100
AcDbLine
 10
193.4215927599469
 20
467.7636916959936
 30
0.0
 11
164.1095181401576
 21
500.3080792754811
 31
0.0
  0
LINE
  5
F69
330
1F
100
AcDbEntity
  8
0
100
AcDbLine
 10
190.514592759947
 20
465.1454153277071
 30
0.0
 11
192.937092759947
 21
461.66096806428
 31
0.0
  0
LINE
  5
F6A
330
1F
100
AcDbEntity
  8
0
100
AcDbLine
 10
191.1175653206912
 20
465.6885005724686
 30
0.0
 11
162.5254992756693
 21
498.8813853780578
 31
0.0
  0
LINE
  5
F6B
330
1F
100
AcDbEntity
  8
0
100
AcDbLine
 10
195.7256201992027
 20
469.8388828195184
 30
0.0
 11
165.693537004646
 21
501.7347731729045
 31
0.0
  0
LINE
  5
F6C
330
1F
100
AcDbEntity
  8
0
100
AcDbLine
 10
167.7095610139948
 20
503.5505654059888
 30
0.0
 11
160.5141267751866
 21
520.4972655896523
 31
0.0
  0
LINE
  5
F6D
330
1F
100
AcDbEntity
  8
0
100
AcDbLine
 10
165.4797320424602
 20
502.6037977429878
 30
0.0
 11
158.2842978036518
 21
519.5504979266513
 31
0.0
  0
LINE
  5
F6E
330
1F
100
AcDbEntity
  8
0
100
AcDbLine
 10
156.5604161563214
 20
498.8167270909833
 30
0.0
 11
149.3649819175131
 21
515.7634272746467
 31
0.0
  0
LINE
  5
F6F
330
1F
100
AcDbEntity
  8
0
100
AcDbLine
 10
153.7964573227203
 20
494.1691710551558
 30
0.0
 11
147.2448250947527
 21
509.5995875381756
 31
0.0
  0
LINE
  5
F70
330
1F
100
AcDbEntity
  8
0
100
AcDbLine
 10
178.0710500903991
 20
449.3945348036341
 30
0.0
 11
174.758295116109
 21
457.1967415180591
 31
0.0
  0
LINE
  5
F71
330
1F
100
AcDbEntity
  8
0
100
AcDbLine
 10
175.9710199295154
 20
458.0596087858087
 30
0.0
 11
159.5940126487104
 21
496.6307669789585
 31
0.0
  0
LINE
  5
F72
330
1F
100
AcDbEntity
  8
0
100
AcDbLine
 10
173.9498119071715
 20
456.6214966728926
 30
0.0
 11
157.3641836771758
 21
495.6839993159573
 31
0.0
  0
LINE
  5
F73
330
1F
100
AcDbEntity
  8
0
100
AcDbLine
 10
174.8600963713891
 20
448.0311893689125
 30
0.0
 11
155.0451615467797
 21
494.6993609464363
 31
0.0
  0
ARC
  5
F74
330
1F
100
AcDbEntity
  8
0
100
AcDbCircle
 10
189.8445470601022
 20
454.3934680642798
 30
0.0
 40
12.79079999999999
100
AcDbArc
 50
203.0056914635208
 51
270.0
1001
GENIUS_GENOBJ-N-FIL_13
1002
{
1000
OWNER
1000
GEN
1002
}
1001
GENIUS_GENODEF_13
1002
{
1000
HIER
1070
     0
1002
}
1002
{
1000
MANEDIT
1070
     0
1002
}
1002
{
1000
NOSEL
1070
     0
1002
}
1002
{
1000
BEHIND
1070
     0
1002
}
1002
{
1000
OTHER
1070
     0
1002
}
1002
{
1000
REACTOR
1002
}
  0
ARC
  5
F75
330
1F
100
AcDbEntity
  8
0
100
AcDbCircle
 10
189.8445470601022
 20
454.3934680642798
 30
0.0
 40
16.2792
100
AcDbArc
 50
203.0056914635208
 51
270.0
1001
GENIUS_GENOBJ-N-FIL_13
1002
{
1000
OWNER
1000
GEN
1002
}
1001
GENIUS_GENODEF_13
1002
{
1000
HIER
1070
     0
1002
}
1002
{
1000
MANEDIT
1070
     0
1002
}
1002
{
1000
NOSEL
1070
     0
1002
}
1002
{
1000
BEHIND
1070
     0
1002
}
1002
{
1000
OTHER
1070
     0
1002
}
1002
{
1000
REACTOR
1002
}
  0
LINE
  5
F76
330
1F
100
AcDbEntity
  8
0
100
AcDbLine
 10
162.3031354079242
 20
503.8868590515214
 30
0.0
 11
156.0544688321171
 21
518.6037302636501
 31
0.0
  0
LINE
  5
F77
330
1F
100
AcDbEntity
  8
0
100
AcDbLine
 10
160.5141267751865
 20
520.4972655896525
 30
0.0
 11
149.81094771182
 21
515.952780807247
 31
0.0
  0
ARC
  5
F78
330
1F
100
AcDbEntity
  8
0
100
AcDbCircle
 10
151.7044830378222
 20
511.4931228641778
 30
0.0
 40
4.844999999999998
100
AcDbArc
 50
113.0056914635207
 51
203.0056914635208
1001
GENIUS_GENOBJ-N-FIL_13
1002
{
1000
OWNER
1000
GEN
1002
}
1001
GENIUS_GENODEF_13
1002
{
1000
HIER
1070
     0
1002
}
1002
{
1000
MANEDIT
1070
     0
1002
}
1002
{
1000
NOSEL
1070
     0
1002
}
1002
{
1000
BEHIND
1070
     0
1002
}
1002
{
1000
OTHER
1070
     0
1002
}
1002
{
1000
REACTOR
1002
}
  0
LINE
  5
F79
330
1F
100
AcDbEntity
  8
0
100
AcDbLine
 10
162.4076621011886
 20
516.037607646583
 30
0.0
 11
144.6127163318802
 21
508.4820150723041
 31
0.0
  0
LINE
  5
F7A
330
1F
100
AcDbEntity
  8
0
100
AcDbLine
 10
162.3031354079242
 20
503.8868590515214
 30
0.0
 11
151.5999563445577
 21
499.3423742691161
 31
0.0
  0
LINE
  5
F7B
330
1F
100
AcDbEntity
  8
0
100
AcDbLine
 10
160.4125855502066
 20
496.9783265285198
 30
0.0
 11
153.7964573227203
 21
494.1691710551555
 31
0.0
  0
CIRCLE
  5
F7C
330
1F
100
AcDbEntity
  8
0
100
AcDbCircle
 10
160.177833129654
 20
515.0908399835819
 30
0.0
 40
0.9689999999999997
  0
CIRCLE
  5
F7D
330
1F
100
AcDbEntity
  8
0
100
AcDbCircle
 10
151.2585172435152
 20
511.3037693315775
 30
0.0
 40
0.9689999999999997
  0
LINE
  5
F7E
330
1F
100
AcDbEntity
  8
0
100
AcDbLine
 10
151.6372243087156
 20
510.4118377429637
 30
0.0
 11
160.5565401948543
 21
514.1989083949681
 31
0.0
  0
LINE
  5
F7F
330
1F
100
AcDbEntity
  8
0
100
AcDbLine
 10
150.8798101783147
 20
512.1957009201915
 30
0.0
 11
159.7991260644534
 21
515.9827715721958
 31
0.0
  0
LINE
  5
F81
330
1F
100
AcDbEntity
  8
0
100
AcDbLine
 10
199.6231930983049
 20
443.8231951932157
 30
0.0
 11
199.6231930983049
 21
437.9500563564436
 31
0.0
  0
LINE
  5
F82
330
1F
100
AcDbEntity
  8
0
100
AcDbLine
 10
197.7820930983051
 20
466.0214677986409
 30
0.0
 11
208.2739760355297
 21
466.0214677986409
 31
0.0
  0
LINE
  5
F83
330
1F
100
AcDbEntity
  8
0
100
AcDbLine
 10
189.8445470601023
 20
441.60266806428
 30
0.0
 11
200.2045927599469
 21
441.60266806428
 31
0.0
  0
LINE
  5
F84
330
1F
100
AcDbEntity
  8
0
100
AcDbLine
 10
189.8445470601023
 20
438.1142680642797
 30
0.0
 11
200.2045927599469
 21
438.1142680642799
 31
0.0
  0
LINE
  5
F85
330
1F
100
AcDbEntity
  8
0
100
AcDbLine
 10
199.623192759947
 20
443.8231954588547
 30
0.0
 11
200.2045927599469
 21
443.8231954588547
 31
0.0
  0
LINE
  5
F86
330
1F
100
AcDbEntity
  8
0
100
AcDbLine
 10
199.623192759947
 20
430.8293613541971
 30
0.0
 11
200.2045927599469
 21
430.8293613541973
 31
0.0
  0
INSERT
  5
F87
330
1F
100
AcDbEntity
  8
0
100
AcDbBlockReference
  2
*U24
 10
0.0
 20
0.0
 30
0.0
  0
INSERT
  5
F88
330
1F
100
AcDbEntity
  8
0
100
AcDbBlockReference
  2
*U25
 10
0.0
 20
0.0
 30
0.0
  0
LINE
  5
F89
330
1F
100
AcDbEntity
  8
0
100
AcDbLine
 10
173.9498119071715
 20
456.6214966728926
 30
0.0
 11
175.9710199295154
 21
458.0596087858087
 31
0.0
  0
INSERT
  5
F8A
330
1F
100
AcDbEntity
  8
0
100
AcDbBlockReference
  2
*U26
 10
0.0
 20
0.0
 30
0.0
  0
INSERT
  5
F8B
330
1F
100
AcDbEntity
  8
0
100
AcDbBlockReference
  2
*U27
 10
0.0
 20
0.0
 30
0.0
  0
LINE
  5
105D
330
1F
100
AcDbEntity
  8
0
100
AcDbLine
 10
200.2045927599469
 20
430.8293613541973
 30
0.0
 11
200.2045927599469
 21
443.8231954588547
 31
0.0
  0
LINE
  5
107C
330
1F
100
AcDbEntity
  8
0
100
AcDbLine
 10
436.6405927599471
 20
461.6609680642801
 30
0.0
 11
436.6405927599471
 21
470.38196806428
 31
0.0
  0
LINE
  5
107D
330
1F
100
AcDbEntity
  8
0
100
AcDbLine
 10
439.0630924215891
 20
461.6609677986409
 30
0.0
 11
439.0630924215891
 21
464.083467798641
 31
0.0
  0
LINE
  5
107E
330
1F
100
AcDbEntity
  8
0
100
AcDbLine
 10
443.9080927599471
 20
461.6609680642801
 30
0.0
 11
436.6405927599471
 21
461.66096806428
 31
0.0
  0
LINE
  5
107F
330
1F
100
AcDbEntity
  8
0
100
AcDbLine
 10
440.5165927599472
 20
470.38196806428
 30
0.0
 11
436.6405927599469
 21
470.38196806428
 31
0.0
  0
LINE
  5
1080
330
1F
100
AcDbEntity
  8
0
100
AcDbLine
 10
440.5165927599472
 20
470.38196806428
 30
0.0
 11
446.3305927599471
 21
465.1454153277071
 31
0.0
  0
LINE
  5
1081
330
1F
100
AcDbEntity
  8
0
100
AcDbLine
 10
469.1356245058994
 20
503.550565405989
 30
0.0
 11
476.4325999696875
 21
496.97832652852
 31
0.0
  0
LINE
  5
1082
330
1F
100
AcDbEntity
  8
0
100
AcDbLine
 10
443.4235927599472
 20
467.7636916959936
 30
0.0
 11
472.7356673797364
 21
500.3080792754812
 31
0.0
  0
LINE
  5
1083
330
1F
100
AcDbEntity
  8
0
100
AcDbLine
 10
446.3305927599471
 20
465.1454153277071
 30
0.0
 11
443.9080927599471
 21
461.6609680642801
 31
0.0
  0
LINE
  5
1084
330
1F
100
AcDbEntity
  8
0
100
AcDbLine
 10
445.7276201992028
 20
465.6885005724687
 30
0.0
 11
474.3196862442247
 21
498.8813853780578
 31
0.0
  0
LINE
  5
1085
330
1F
100
AcDbEntity
  8
0
100
AcDbLine
 10
441.1195653206914
 20
469.8388828195184
 30
0.0
 11
471.1516485152481
 21
501.7347731729047
 31
0.0
  0
LINE
  5
1086
330
1F
100
AcDbEntity
  8
0
100
AcDbLine
 10
469.1356245058994
 20
503.5505654059888
 30
0.0
 11
476.3310587447075
 21
520.4972655896525
 31
0.0
  0
LINE
  5
1087
330
1F
100
AcDbEntity
  8
0
100
AcDbLine
 10
471.365453477434
 20
502.6037977429878
 30
0.0
 11
478.5608877162423
 21
519.5504979266513
 31
0.0
  0
LINE
  5
1088
330
1F
100
AcDbEntity
  8
0
100
AcDbLine
 10
480.2847693635727
 20
498.8167270909833
 30
0.0
 11
487.480203602381
 21
515.763427274647
 31
0.0
  0
LINE
  5
1089
330
1F
100
AcDbEntity
  8
0
100
AcDbLine
 10
483.0487281971739
 20
494.1691710551558
 30
0.0
 11
489.6003604251413
 21
509.5995875381757
 31
0.0
  0
LINE
  5
108A
330
1F
100
AcDbEntity
  8
0
100
AcDbLine
 10
458.7741354294951
 20
449.3945348036342
 30
0.0
 11
462.0868904037851
 21
457.1967415180592
 31
0.0
  0
LINE
  5
108B
330
1F
100
AcDbEntity
  8
0
100
AcDbLine
 10
460.8741655903786
 20
458.0596087858088
 30
0.0
 11
477.2511728711838
 21
496.6307669789585
 31
0.0
  0
LINE
  5
108C
330
1F
100
AcDbEntity
  8
0
100
AcDbLine
 10
462.8953736127226
 20
456.6214966728926
 30
0.0
 11
479.4810018427183
 21
495.6839993159574
 31
0.0
  0
LINE
  5
108D
330
1F
100
AcDbEntity
  8
0
100
AcDbLine
 10
461.9850891485049
 20
448.0311893689125
 30
0.0
 11
481.8000239731144
 21
494.6993609464363
 31
0.0
  0
ARC
  5
108E
330
1F
100
AcDbEntity
  8
0
100
AcDbCircle
 10
447.0006384597919
 20
454.3934680642799
 30
0.0
 40
12.79079999999999
100
AcDbArc
 50
270.0
 51
336.9943085364778
1001
GENIUS_GENOBJ-N-FIL_13
1002
{
1000
OWNER
1000
GEN
1002
}
1001
GENIUS_GENODEF_13
1002
{
1000
HIER
1070
     0
1002
}
1002
{
1000
MANEDIT
1070
     0
1002
}
1002
{
1000
NOSEL
1070
     0
1002
}
1002
{
1000
BEHIND
1070
     0
1002
}
1002
{
1000
OTHER
1070
     0
1002
}
1002
{
1000
REACTOR
1002
}
  0
ARC
  5
108F
330
1F
100
AcDbEntity
  8
0
100
AcDbCircle
 10
447.0006384597919
 20
454.3934680642799
 30
0.0
 40
16.27919999999999
100
AcDbArc
 50
270.0
 51
336.9943085364778
1001
GENIUS_GENOBJ-N-FIL_13
1002
{
1000
OWNER
1000
GEN
1002
}
1001
GENIUS_GENODEF_13
1002
{
1000
HIER
1070
     0
1002
}
1002
{
1000
MANEDIT
1070
     0
1002
}
1002
{
1000
NOSEL
1070
     0
1002
}
1002
{
1000
BEHIND
1070
     0
1002
}
1002
{
1000
OTHER
1070
     0
1002
}
1002
{
1000
REACTOR
1002
}
  0
LINE
  5
1090
330
1F
100
AcDbEntity
  8
0
100
AcDbLine
 10
474.5420501119699
 20
503.8868590515215
 30
0.0
 11
480.790716687777
 21
518.6037302636504
 31
0.0
  0
LINE
  5
1091
330
1F
100
AcDbEntity
  8
0
100
AcDbLine
 10
476.3310587447076
 20
520.4972655896525
 30
0.0
 11
487.034237808074
 21
515.9527808072472
 31
0.0
  0
ARC
  5
1092
330
1F
100
AcDbEntity
  8
0
100
AcDbCircle
 10
485.1407024820718
 20
511.4931228641778
 30
0.0
 40
4.844999999999997
100
AcDbArc
 50
336.9943085364778
 51
66.9943085364853
1001
GENIUS_GENOBJ-N-FIL_13
1002
{
1000
OWNER
1000
GEN
1002
}
1001
GENIUS_GENODEF_13
1002
{
1000
HIER
1070
     0
1002
}
1002
{
1000
MANEDIT
1070
     0
1002
}
1002
{
1000
NOSEL
1070
     0
1002
}
1002
{
1000
BEHIND
1070
     0
1002
}
1002
{
1000
OTHER
1070
     0
1002
}
1002
{
1000
REACTOR
1002
}
  0
LINE
  5
1093
330
1F
100
AcDbEntity
  8
0
100
AcDbLine
 10
474.4375234187056
 20
516.0376076465833
 30
0.0
 11
492.2324691880139
 21
508.4820150723043
 31
0.0
  0
LINE
  5
1094
330
1F
100
AcDbEntity
  8
0
100
AcDbLine
 10
474.5420501119699
 20
503.8868590515215
 30
0.0
 11
485.2452291753364
 21
499.3423742691161
 31
0.0
  0
LINE
  5
1095
330
1F
100
AcDbEntity
  8
0
100
AcDbLine
 10
476.4325999696875
 20
496.97832652852
 30
0.0
 11
483.0487281971739
 21
494.1691710551558
 31
0.0
  0
CIRCLE
  5
1096
330
1F
100
AcDbEntity
  8
0
100
AcDbCircle
 10
476.6673523902401
 20
515.090839983582
 30
0.0
 40
0.9689999999999995
  0
CIRCLE
  5
1097
330
1F
100
AcDbEntity
  8
0
100
AcDbCircle
 10
485.5866682763788
 20
511.3037693315777
 30
0.0
 40
0.9689999999999995
  0
LINE
  5
1098
330
1F
100
AcDbEntity
  8
0
100
AcDbLine
 10
485.2079612111785
 20
510.4118377429639
 30
0.0
 11
476.2886453250398
 21
514.1989083949682
 31
0.0
  0
LINE
  5
1099
330
1F
100
AcDbEntity
  8
0
100
AcDbLine
 10
485.9653753415795
 20
512.1957009201915
 30
0.0
 11
477.0460594554407
 21
515.9827715721958
 31
0.0
  0
LINE
  5
109A
330
1F
100
AcDbEntity
  8
0
100
AcDbLine
 10
437.2219924215892
 20
443.8231951932157
 30
0.0
 11
437.2219924215892
 21
437.9500563564437
 31
0.0
  0
LINE
  5
109B
330
1F
100
AcDbEntity
  8
0
100
AcDbLine
 10
439.0630924215891
 20
466.0214677986409
 30
0.0
 11
428.5712094843646
 21
466.0214677986409
 31
0.0
  0
LINE
  5
109C
330
1F
100
AcDbEntity
  8
0
100
AcDbLine
 10
447.0006384597918
 20
441.60266806428
 30
0.0
 11
436.6405927599471
 21
441.60266806428
 31
0.0
  0
LINE
  5
109D
330
1F
100
AcDbEntity
  8
0
100
AcDbLine
 10
447.0006384597918
 20
438.1142680642799
 30
0.0
 11
436.6405927599471
 21
438.11426806428
 31
0.0
  0
LINE
  5
109E
330
1F
100
AcDbEntity
  8
0
100
AcDbLine
 10
437.221992759947
 20
443.8231954588549
 30
0.0
 11
436.6405927599471
 21
443.8231954588549
 31
0.0
  0
LINE
  5
109F
330
1F
100
AcDbEntity
  8
0
100
AcDbLine
 10
437.221992759947
 20
430.8293613541973
 30
0.0
 11
436.6405927599471
 21
430.8293613541975
 31
0.0
  0
INSERT
  5
10A0
330
1F
100
AcDbEntity
  8
0
100
AcDbBlockReference
  2
*U28
 10
0.0
 20
0.0
 30
0.0
  0
INSERT
  5
10A1
330
1F
100
AcDbEntity
  8
0
100
AcDbBlockReference
  2
*U29
 10
0.0
 20
0.0
 30
0.0
  0
LINE
  5
10A2
330
1F
100
AcDbEntity
  8
0
100
AcDbLine
 10
462.8953736127226
 20
456.6214966728926
 30
0.0
 11
460.8741655903786
 21
458.0596087858088
 31
0.0
  0
INSERT
  5
10A3
330
1F
100
AcDbEntity
  8
0
100
AcDbBlockReference
  2
*U30
 10
0.0
 20
0.0
 30
0.0
  0
INSERT
  5
10A4
330
1F
100
AcDbEntity
  8
0
100
AcDbBlockReference
  2
*U31
 10
0.0
 20
0.0
 30
0.0
  0
LINE
  5
10A5
330
1F
100
AcDbEntity
  8
0
100
AcDbLine
 10
436.6405927599471
 20
430.8293613541975
 30
0.0
 11
436.6405927599471
 21
443.8231954588549
 31
0.0
  0
LINE
  5
1247
330
1F
100
AcDbEntity
  8
0
100
AcDbLine
 10
300.0115924841493
 20
470.3819680160501
 30
0.0
 11
336.8335924841493
 21
470.3819680160501
 31
0.0
  0
LINE
  5
1248
330
1F
100
AcDbEntity
  8
0
100
AcDbLine
 10
300.0115924841492
 20
461.6609680160501
 30
0.0
 11
336.8335924841493
 21
461.6609680160501
 31
0.0
  0
LINE
  5
124A
330
1F
100
AcDbEntity
  8
0
100
AcDbLine
 10
336.8335924841493
 20
470.3819680160501
 30
0.0
 11
336.8335924841493
 21
461.6609680160501
 31
0.0
  0
LINE
  5
124B
330
1F
100
AcDbEntity
  8
0
100
AcDbLine
 10
300.0115924841493
 20
470.3819680160501
 30
0.0
 11
300.0115924841493
 21
461.6609680160501
 31
0.0
  0
LINE
  5
124C
330
1F
100
AcDbEntity
  8
0
100
AcDbLine
 10
322.2985924841494
 20
470.3819680160501
 30
0.0
 11
322.2985924841493
 21
461.6609680160501
 31
0.0
  0
LINE
  5
124D
330
1F
100
AcDbEntity
  8
0
100
AcDbLine
 10
314.5465924841494
 20
470.3819680160501
 30
0.0
 11
314.5465924841493
 21
461.6609680160501
 31
0.0
  0
LINE
  5
124E
330
1F
100
AcDbEntity
  8
0
100
AcDbLine
 10
320.1667924841494
 20
494.1691710069259
 30
0.0
 11
320.1667924841494
 21
439.8584680160503
 31
0.0
  0
LINE
  5
124F
330
1F
100
AcDbEntity
  8
0
100
AcDbLine
 10
321.1357924841493
 20
494.1691710069259
 30
0.0
 11
321.1357924841494
 21
457.1967414698295
 31
0.0
  0
LINE
  5
1250
330
1F
100
AcDbEntity
  8
0
100
AcDbLine
 10
316.6783924841492
 20
494.1691710069259
 30
0.0
 11
316.6783924841492
 21
439.8584680160503
 31
0.0
  0
LINE
  5
1251
330
1F
100
AcDbEntity
  8
0
100
AcDbLine
 10
315.7093924841491
 20
494.1691710069259
 30
0.0
 11
315.7093924841491
 21
457.1967414698295
 31
0.0
  0
LINE
  5
1252
330
1F
100
AcDbEntity
  8
0
100
AcDbLine
 10
325.2055924841493
 20
520.4972655414227
 30
0.0
 11
325.2055924841494
 21
494.1691710069259
 31
0.0
  0
LINE
  5
1253
330
1F
100
AcDbEntity
  8
0
100
AcDbLine
 10
311.6395924841492
 20
520.4972655414227
 30
0.0
 11
311.6395924841494
 21
494.1691710069259
 31
0.0
  0
LINE
  5
1254
330
1F
100
AcDbEntity
  8
0
100
AcDbLine
 10
311.6395924841492
 20
494.1691710069259
 30
0.0
 11
325.2055924841494
 21
494.1691710069259
 31
0.0
  0
LINE
  5
1255
330
1F
100
AcDbEntity
  8
0
100
AcDbLine
 10
311.6395924841492
 20
520.4972655414227
 30
0.0
 11
325.2055924841493
 21
520.4972655414227
 31
0.0
  0
ARC
  5
1256
330
1F
100
AcDbEntity
  8
0
100
AcDbCircle
 10
318.4225924841493
 20
439.8584680160503
 30
0.0
 40
1.7442
100
AcDbArc
 50
180.0
 51
0.0
  0
LINE
  5
1257
330
1F
100
AcDbEntity
  8
0
100
AcDbLine
 10
315.7093924841491
 20
457.1967414698295
 30
0.0
 11
316.6783924841492
 21
457.1967414698295
 31
0.0
  0
LINE
  5
1258
330
1F
100
AcDbEntity
  8
0
100
AcDbLine
 10
320.1667924841493
 20
457.1967414698295
 30
0.0
 11
321.1357924841494
 21
457.1967414698295
 31
0.0
  0
INSERT
  5
1259
330
1F
100
AcDbEntity
  8
0
100
AcDbBlockReference
  2
*U32
 10
0.0
 20
0.0
 30
0.0
  0
INSERT
  5
125A
330
1F
100
AcDbEntity
  8
0
100
AcDbBlockReference
  2
*U33
 10
0.0
 20
0.0
 30
0.0
  0
INSERT
  5
125B
330
1F
100
AcDbEntity
  8
AM_0N
100
AcDbBlockReference
  2
*U34
 10
0.0
 20
0.0
 30
0.0
  0
CIRCLE
  5
125C
330
1F
100
AcDbEntity
  8
0
100
AcDbCircle
 10
320.1153258251371
 20
431.9890214823806
 30
0.0
 40
0.0
  0
ARC
  5
125D
330
1F
100
AcDbEntity
  8
0
100
AcDbCircle
 10
318.4225924841493
 20
434.558556573853
 30
0.0
 40
3.837651009799571
100
AcDbArc
 50
179.9857785635877
 51
0.3690305705851039
  0
ARC
  5
125E
330
1F
100
AcDbEntity
  8
0
100
AcDbCircle
 10
318.4225924841493
 20
439.8584680160503
 30
0.0
 40
3.837651009799516
100
AcDbArc
 50
359.6309694299165
 51
62.96743960420839
  0
ARC
  5
125F
330
1F
100
AcDbEntity
  8
0
100
AcDbCircle
 10
318.4225924841493
 20
439.8584680160503
 30
0.0
 40
3.837651009799516
100
AcDbArc
 50
117.0325603957895
 51
181.0537308675755
  0
LINE
  5
1260
330
1F
100
AcDbEntity
  8
0
100
AcDbLine
 10
322.260163893887
 20
439.8337506501274
 30
0.0
 11
322.260163893887
 21
434.558556573853
 31
0.0
  0
LINE
  5
1261
330
1F
100
AcDbEntity
  8
0
100
AcDbLine
 10
314.5855904634175
 20
439.7878934744958
 30
0.0
 11
314.5849414743498
 21
434.558556573853
 31
0.0
  0
LINE
  5
1262
330
1F
100
AcDbEntity
  8
0
100
AcDbLine
 10
271.76777363053
 20
510.3347692833479
 30
0.0
 11
364.878983630531
 21
510.3347692833479
 31
0.0
  0
LINE
  5
1263
330
1F
100
AcDbEntity
  8
0
100
AcDbLine
 10
271.810603125335
 20
512.2727692833478
 30
0.0
 11
364.9218131253349
 21
512.2727692833478
 31
0.0
  0
LINE
  5
1264
330
1F
100
AcDbEntity
  8
0
100
AcDbLine
 10
271.8669874841493
 20
514.1218399353523
 30
0.0
 11
364.9781974841493
 21
514.1218399353523
 31
0.0
  0
LINE
  5
1265
330
1F
100
AcDbEntity
  8
0
100
AcDbLine
 10
271.8669874841493
 20
516.0598399353524
 30
0.0
 11
364.9781974841493
 21
516.0598399353524
 31
0.0
  0
ARC
  5
1266
330
1F
100
AcDbEntity
  8
0
100
AcDbCircle
 10
364.9781974841493
 20
513.1964449353525
 30
0.0
 40
0.9253949999999999
100
AcDbArc
 50
266.5068019100215
 51
90.0
  0
ARC
  5
1267
330
1F
100
AcDbEntity
  8
0
100
AcDbCircle
 10
364.9781974841493
 20
513.1964449353525
 30
0.0
 40
2.863394999999999
100
AcDbArc
 50
268.0143594825533
 51
90.0
  0
ARC
  5
1268
330
1F
100
AcDbEntity
  8
0
100
AcDbCircle
 10
271.8669874841493
 20
513.1964449353525
 30
0.0
 40
0.9253949999999999
100
AcDbArc
 50
90.0
 51
273.4931980899785
  0
ARC
  5
1269
330
1F
100
AcDbEntity
  8
0
100
AcDbCircle
 10
271.8669874841493
 20
513.1964449353525
 30
0.0
 40
2.863394999999999
100
AcDbArc
 50
90.0
 51
271.9856405174499
  0
LINE
  5
12EC
330
1F
100
AcDbEntity
  8
0
  6
Continuous
100
AcDbLine
 10
303.8875924841492
 20
473.4827680642799
 30
0.0
 11
332.9575924841492
 21
473.4827680642799
 31
0.0
  0
LINE
  5
12F6
330
1F
100
AcDbEntity
  8
0
100
AcDbLine
 10
303.8875924841492
 20
470.38196806428
 30
0.0
 11
303.8875924841492
 21
473.4827680642799
 31
0.0
  0
LINE
  5
12FC
330
1F
100
AcDbEntity
  8
0
100
AcDbLine
 10
332.9575924841492
 20
470.38196806428
 30
0.0
 11
332.9575924841492
 21
473.4827680642799
 31
0.0
  0
LINE
  5
134F
330
1F
100
AcDbEntity
  8
OUT
100
AcDbLine
 10
330.8202126573647
 20
546.0641559172666
 30
0.0
 11
330.8202126573647
 21
546.0641559172666
 31
0.0
  0
LINE
  5
135C
330
1F
100
AcDbEntity
  8
0
  6
Continuous
100
AcDbLine
 10
173.0725927599472
 20
-49.97103193571998
 30
0.0
 11
463.7725927599472
 21
-49.97103193571994
 31
0.0
  0
LINE
  5
1367
330
1F
100
AcDbEntity
  8
0
100
AcDbLine
 10
463.7725927599472
 20
221.63966806428
 30
0.0
 11
463.7725927599472
 21
-49.97103193571994
 31
0.0
  0
LINE
  5
136D
330
1F
100
AcDbEntity
  8
0
100
AcDbLine
 10
173.0725927599472
 20
221.63966806428
 30
0.0
 11
173.0725927599472
 21
-49.97103193571998
 31
0.0
  0
LINE
  5
1377
330
1F
100
AcDbEntity
  8
0
100
AcDbLine
 10
474.4315927599472
 20
233.94596806428
 30
0.0
 11
474.4315927599472
 21
221.63966806428
 31
0.0
  0
LINE
  5
137D
330
1F
100
AcDbEntity
  8
0
100
AcDbLine
 10
162.4135927599472
 20
233.94596806428
 30
0.0
 11
162.4135927599471
 21
221.63966806428
 31
0.0
  0
LINE
  5
13A7
330
1F
100
AcDbEntity
  8
0
  6
Continuous
100
AcDbLine
 10
162.4135927599472
 20
221.63966806428
 30
0.0
 11
463.7725927599472
 21
221.63966806428
 31
0.0
  0
LINE
  5
13B1
330
1F
100
AcDbEntity
  8
HID
100
AcDbLine
 10
458.9275927599471
 20
233.94596806428
 30
0.0
 11
458.9275927599472
 21
-36.40503193571993
 31
0.0
  0
LINE
  5
13B7
330
1F
100
AcDbEntity
  8
HID
100
AcDbLine
 10
177.9175927599472
 20
233.94596806428
 30
0.0
 11
177.9175927599472
 21
-36.40503193571998
 31
0.0
  0
LINE
  5
13B8
330
1F
100
AcDbEntity
  8
0
  6
Continuous
100
AcDbLine
 10
463.7725927599472
 20
221.63966806428
 30
0.0
 11
474.4315927599473
 21
221.63966806428
 31
0.0
  0
ARC
  5
13C7
330
1F
100
AcDbEntity
  8
HID
100
AcDbCircle
 10
183.7315927599472
 20
-36.40503193571998
 30
0.0
 40
5.813999999999999
100
AcDbArc
 50
180.0
 51
270.0
1001
GENIUS_GENODEF_13
1002
{
1000
HIER
1070
     0
1002
}
1002
{
1000
MANEDIT
1070
     0
1002
}
1002
{
1000
NOSEL
1070
     0
1002
}
1002
{
1000
BEHIND
1070
     0
1002
}
1002
{
1000
OTHER
1070
     0
1002
}
1002
{
1000
REACTOR
1002
}
1001
GENIUS_GENOBJ-N-FIL_13
1002
{
1000
OWNER
1000
GEN
1002
}
  0
ARC
  5
13C9
330
1F
100
AcDbEntity
  8
HID
100
AcDbCircle
 10
453.1135927599471
 20
-36.40503193571993
 30
0.0
 40
5.813999999999999
100
AcDbArc
 50
270.0
 51
0.0
1001
GENIUS_GENOBJ-N-FIL_13
1002
{
1000
OWNER
1000
GEN
1002
}
1001
GENIUS_GENODEF_13
1002
{
1000
HIER
1070
     0
1002
}
1002
{
1000
MANEDIT
1070
     0
1002
}
1002
{
1000
NOSEL
1070
     0
1002
}
1002
{
1000
BEHIND
1070
     0
1002
}
1002
{
1000
OTHER
1070
     0
1002
}
1002
{
1000
REACTOR
1002
}
  0
LINE
  5
13D2
330
1F
100
AcDbEntity
  8
HID
100
AcDbLine
 10
183.7315927599472
 20
-42.21903193571996
 30
0.0
 11
453.1135927599471
 21
-42.21903193571996
 31
0.0
  0
LINE
  5
1922
330
1F
100
AcDbEntity
  8
HID
100
AcDbLine
 10
420.6260972184024
 20
-29.22312213719605
 30
0.0
 11
416.4279347632243
 21
-5.504362983403204
 31
0.0
  0
LINE
  5
1923
330
1F
100
AcDbEntity
  8
HID
100
AcDbLine
 10
420.6260972184024
 20
-29.22312213719605
 30
0.0
 11
424.7978369473234
 21
-5.504362983403282
 31
0.0
  0
LINE
  5
1924
330
1F
100
AcDbEntity
  8
HID
100
AcDbLine
 10
424.7978369473231
 20
-5.504362983403353
 30
0.0
 11
416.4279347632243
 21
-5.504362983403204
 31
0.0
  0
HATCH
  5
1925
330
1F
100
AcDbEntity
  8
AM_8
100
AcDbHatch
 10
0.0
 20
0.0
 30
0.0
210
0.0
220
0.0
230
1.0
  2
SOLID
 70
     1
 71
     0
 91
        1
 92
        1
 93
        3
 72
     1
 10
416.4279347632243
 20
-5.504362983403204
 11
420.6260972184026
 21
-29.22312213719605
 72
     1
 10
420.6260972184024
 20
-29.22312213719605
 11
424.7978369473231
 21
-5.504362983403279
 72
     1
 10
424.7978369473234
 20
-5.504362983403282
 11
416.4279347632243
 21
-5.504362983403209
 97
        0
 75
     0
 76
     1
 98
        1
 10
1263.462772681457
 20
587.0166199753709
450
        0
451
        0
460
0.0
461
0.0
452
        0
462
0.0
453
        0
470

1001
GENIUS_GENOBJ-N-HTC_13
1002
{
1000
OWNER
1000
GEN
1002
}
1001
GENIUS_GENODEF_13
1002
{
1000
HIER
1070
     0
1002
}
1002
{
1000
MANEDIT
1070
     0
1002
}
1002
{
1000
NOSEL
1070
     0
1002
}
1002
{
1000
BEHIND
1070
     0
1002
}
1002
{
1000
OTHER
1070
     0
1002
}
1002
{
1000
REACTOR
1002
}
1001
GENIUS_GENHATCH_13
1002
{
1000
DATA
1040
0.0
1042
1.291999999999999
1000
SOLID
1070
     0
1011
422.5546296848874
1021
-9.506904447877538
1031
0.0
1002
}
1002
{
1000
UCS
1010
0.0
1020
0.0
1030
0.0
1010
1.0
1020
0.0
1030
0.0
1010
0.0
1020
1.0
1030
0.0
1002
}
  0
LINE
  5
1926
330
1F
100
AcDbEntity
  8
0
100
AcDbLine
 10
420.6260972184024
 20
-29.22312213719605
 30
0.0
 11
420.6260972184026
 21
32.89733596784919
 31
0.0
  0
TEXT
  5
1929
330
1F
100
AcDbEntity
  8
0
100
AcDbText
 10
433.4337447200174
 20
13.71315004701935
 30
0.0
 40
12.92
  1
B
100
AcDbText
  0
LEADER
  5
1A06
330
1F
100
AcDbEntity
  8
0
100
AcDbLeader
  3
AM_ISO$7
 76
     2
 10
463.772592759947
 20
48.01097527587917
 30
0.0
 10
577.8704886937466
 20
85.79974850726292
 30
0.0
1001
ACAD
1000
DSTYLE
1002
{
1070
   147
1040
1.5
1070
    77
1070
     0
1002
}
  0
TEXT
  5
1A07
330
1F
100
AcDbEntity
  8
0
100
AcDbText
 10
598.8696794232936
 20
92.75459767452399
 30
0.0
 40
8.0
  1
Launch adaptor
100
AcDbText
  0
LEADER
  5
1A09
330
1F
100
AcDbEntity
  8
0
100
AcDbLeader
  3
AM_ISO$7
 76
     2
 10
435.0901927599472
 20
335.8847680642798
 30
0.0
 10
563.526542920972
 20
382.89769245075
 30
0.0
1001
ACAD
1000
DSTYLE
1002
{
1070
   147
1040
1.5
1070
    77
1070
     0
1002
}
  0
TEXT
  5
1A0A
330
1F
100
AcDbEntity
  8
0
100
AcDbText
 10
578.2844791302859
 20
376.4882067255221
 30
0.0
 40
8.0
  1
SC "KiwiSAT"
100
AcDbText
  0
LEADER
  5
1A0B
330
1F
100
AcDbEntity
  8
0
100
AcDbLeader
  3
AM_ISO$7
 76
     2
 10
474.4315927599473
 20
233.94596806428
 30
0.0
 10
570.0465182722332
 20
274.7436164689637
 30
0.0
1001
ACAD
1000
DSTYLE
1002
{
1070
   147
1040
1.5
1070
    77
1070
     0
1002
}
  0
TEXT
  5
1A0C
330
1F
100
AcDbEntity
  8
0
100
AcDbText
 10
596.8314161931945
 20
286.1723849596562
 30
0.0
 40
8.0
  1
SC/LV Interface plane.
100
AcDbText
  0
TEXT
  5
1A10
330
1F
100
AcDbEntity
  8
0
100
AcDbText
 10
930.375572904837
 20
-86.87441863025672
 30
0.0
 40
2.0
  1
1 
100
AcDbText
  0
TEXT
  5
1A11
330
1F
100
AcDbEntity
  8
0
100
AcDbText
 10
785.6723924816015
 20
-55.25644903208737
 30
0.0
 40
5.0
  1
A.G.K
100
AcDbText
  0
TEXT
  5
1A12
330
1F
100
AcDbEntity
  8
0
100
AcDbText
 10
841.3599139544135
 20
-59.2613908234691
 30
0.0
 40
5.0
  1
Launch Adaptor-Concept 1
100
AcDbText
  0
TEXT
  5
1A3D
330
1F
100
AcDbEntity
  8
0
100
AcDbText
 10
204.927839217966
 20
140.5283184627653
 30
0.0
 40
6.459999999999999
  1
See sheet 2 for internal
100
AcDbText
  0
TEXT
  5
1A3E
330
1F
100
AcDbEntity
  8
0
100
AcDbText
 10
204.927839217966
 20
130.8383184627653
 30
0.0
 40
6.459999999999999
  1
detail of the adaptor.
100
AcDbText
  0
TEXT
  5
1BA9
330
1F
100
AcDbEntity
  8
0
100
AcDbText
 10
552.3560859766321
 20
522.2193594785492
 30
0.0
 40
8.0
  1
Spacecraft body dimensions
100
AcDbText
  0
TEXT
  5
1BAA
330
1F
100
AcDbEntity
  8
0
100
AcDbText
 10
552.3560859766321
 20
510.2193594785492
 30
0.0
 40
8.0
  1
 ( less antennas)
100
AcDbText
  0
TEXT
  5
1BAB
330
1F
100
AcDbEntity
  8
0
100
AcDbText
 10
590.3524935084492
 20
477.4033667382425
 30
0.0
 40
8.0
  1
236 x 236 x 236mm
100
AcDbText
  0
LINE
  5
1C41
330
1F
100
AcDbEntity
  8
AM_9
 60
     1
100
AcDbLine
 10
199.6231930983049
 20
437.9500563564436
 30
0.0
 11
199.6231930983049
 21
431.1670563564436
 31
0.0
1001
AMG_2DHIDE
1002
{
1040
1.687981611963896E+69
1002
{
1000
OE
1000
CON1
1002
}
1002
}
  0
LINE
  5
1C42
330
1F
100
AcDbEntity
  8
0
100
AcDbLine
 10
199.6231930983049
 20
431.1670563564436
 30
0.0
 11
199.6231930983049
 21
430.8293610885582
 31
0.0
  0
LINE
  5
1C44
330
1F
100
AcDbEntity
  8
AM_9
 60
     1
100
AcDbLine
 10
197.7820930983051
 20
464.0834677986409
 30
0.0
 11
197.7820930983051
 21
467.9594677986409
 31
0.0
1001
AMG_2DHIDE
1002
{
1040
0.0
1002
{
1000
OE
1000
CON1
1002
}
1002
}
  0
LINE
  5
1C45
330
1F
100
AcDbEntity
  8
0
100
AcDbLine
 10
197.7820930983051
 20
467.9594677986409
 30
0.0
 11
197.7820930983051
 21
470.381967798641
 31
0.0
  0
LINE
  5
1C49
330
1F
100
AcDbEntity
  8
AM_9
 60
     1
100
AcDbLine
 10
439.0630924215891
 20
464.083467798641
 30
0.0
 11
439.0630924215891
 21
467.9594677986409
 31
0.0
1001
AMG_2DHIDE
1002
{
1040
0.0
1002
{
1000
OE
1000
CON1
1002
}
1002
}
  0
LINE
  5
1C4A
330
1F
100
AcDbEntity
  8
0
100
AcDbLine
 10
439.0630924215891
 20
467.9594677986409
 30
0.0
 11
439.0630924215891
 21
470.3819677986411
 31
0.0
  0
LINE
  5
1C4C
330
1F
100
AcDbEntity
  8
AM_9
 60
     1
100
AcDbLine
 10
437.2219924215892
 20
437.9500563564437
 30
0.0
 11
437.2219924215892
 21
431.1670563564438
 31
0.0
1001
AMG_2DHIDE
1002
{
1040
0.0
1002
{
1000
OE
1000
CON1
1002
}
1002
}
  0
LINE
  5
1C4D
330
1F
100
AcDbEntity
  8
0
100
AcDbLine
 10
437.2219924215892
 20
431.1670563564438
 30
0.0
 11
437.2219924215892
 21
430.8293610885582
 31
0.0
  0
LINE
  5
1CA4
330
1F
100
AcDbEntity
  8
0
  6
Continuous
100
AcDbLine
 10
315.8385924841494
 20
673.7427680642795
 30
0.0
 11
321.0065924841494
 21
673.7427680642795
 31
0.0
  0
LINE
  5
1CA5
330
1F
100
AcDbEntity
  8
0
  6
Continuous
100
AcDbLine
 10
313.2545924841492
 20
538.0827680642799
 30
0.0
 11
323.5905924841492
 21
538.0827680642799
 31
0.0
  0
LINE
  5
1CA6
330
1F
100
AcDbEntity
  8
0
100
AcDbLine
 10
311.6395922083513
 20
523.5980655414228
 30
0.0
 11
325.2055922083512
 21
523.5980655414228
 31
0.0
  0
LINE
  5
1CA7
330
1F
100
AcDbEntity
  8
0
100
AcDbLine
 10
321.0065924841494
 20
538.0827680642799
 30
0.0
 11
321.0065924841494
 21
673.7427680642795
 31
0.0
  0
LINE
  5
1CA8
330
1F
100
AcDbEntity
  8
0
100
AcDbLine
 10
315.8385924841494
 20
538.0827680642799
 30
0.0
 11
315.8385924841494
 21
673.7427680642795
 31
0.0
  0
LINE
  5
1CA9
330
1F
100
AcDbEntity
  8
0
100
AcDbLine
 10
310.6705924841492
 20
473.4827680642799
 30
0.0
 11
310.6705924841492
 21
486.6637182154629
 31
0.0
  0
LINE
  5
1CAA
330
1F
100
AcDbEntity
  8
0
100
AcDbLine
 10
310.6705924841492
 20
504.774307882513
 30
0.0
 11
310.6705924841492
 21
516.3552299718942
 31
0.0
  0
LINE
  5
1CAB
330
1F
100
AcDbEntity
  8
0
100
AcDbLine
 10
326.1745924841492
 20
473.4827680642799
 30
0.0
 11
326.1745924841492
 21
486.6637182154631
 31
0.0
  0
LINE
  5
1CAC
330
1F
100
AcDbEntity
  8
0
100
AcDbLine
 10
326.1745924841492
 20
504.7743078825133
 30
0.0
 11
326.1745924841492
 21
516.3552299718942
 31
0.0
  0
LINE
  5
1CAD
330
1F
100
AcDbEntity
  8
0
100
AcDbLine
 10
308.7325924841493
 20
486.6637182154626
 30
0.0
 11
328.1125924841493
 21
486.6637182154631
 31
0.0
  0
LINE
  5
1CAE
330
1F
100
AcDbEntity
  8
0
100
AcDbLine
 10
308.7325924841493
 20
504.7743078825142
 30
0.0
 11
328.1125924841493
 21
504.774307882513
 31
0.0
  0
LINE
  5
1CAF
330
1F
100
AcDbEntity
  8
0
100
AcDbLine
 10
313.2545924841492
 20
538.0827680642799
 30
0.0
 11
310.6705924841492
 21
516.3552299718942
 31
0.0
  0
LINE
  5
1CB0
330
1F
100
AcDbEntity
  8
0
100
AcDbLine
 10
323.5905924841492
 20
538.0827680642799
 30
0.0
 11
326.1745924841492
 21
516.3552299718942
 31
0.0
  0
LINE
  5
1CB1
330
1F
100
AcDbEntity
  8
0
100
AcDbLine
 10
326.1745924841492
 20
473.4827680642799
 30
0.0
 11
310.6705924841492
 21
473.4827680642799
 31
0.0
  0
LINE
  5
1CB2
330
1F
100
AcDbEntity
  8
0
100
AcDbLine
 10
328.1125924841493
 20
486.6637182154631
 30
0.0
 11
328.1125924841493
 21
504.774307882513
 31
0.0
  0
LINE
  5
1CB3
330
1F
100
AcDbEntity
  8
0
100
AcDbLine
 10
308.7325924841493
 20
486.6637182154626
 30
0.0
 11
308.7325924841493
 21
504.7743078825142
 31
0.0
  0
LWPOLYLINE
  5
1CC3
330
1F
100
AcDbEntity
  8
0
100
AcDbPolyline
 90
        4
 70
     1
 43
0.0
 10
12.96820438197665
 20
740.8380944139062
 10
966.883874945689
 20
740.8380944139062
 10
966.883874945689
 20
-88.57874758400908
 10
12.96820438197665
 20
-88.57874758400896
1001
GENIUS_GENREC_14
1002
{
1000
PYDIR
1011
12.96820438197659
1021
-88.57874758400908
1031
0.0
1002
}
1002
{
1000
PXDIR
1011
966.883874945689
1021
740.8380944139062
1031
0.0
1002
}
1002
{
1000
PORI
1011
12.96820438197665
1021
740.8380944139062
1031
0.0
1002
}
1002
{
1000
PINS
1011
12.96820438197665
1021
740.8380944139062
1031
0.0
1002
}
1002
{
1000
PINS2
1011
966.883874945689
1021
-88.57874758400908
1031
0.0
1002
}
1002
{
1000
C
1070
     1
1002
}
1001
GENIUS_GENODEF_13
1002
{
1000
HIER
1070
     0
1002
}
1002
{
1000
MANEDIT
1070
     0
1002
}
1002
{
1000
NOSEL
1070
     0
1002
}
1002
{
1000
BEHIND
1070
     0
1002
}
1002
{
1000
OTHER
1070
     0
1002
}
1002
{
1000
REACTOR
1002
}
1001
GENIUS_GENOBJ-N-REC_13
1002
{
1000
OWNER
1000
GEN
1002
}
  0
DIMENSION
  5
1CD6
330
1F
100
AcDbEntity
  8
AM_5
100
AcDbDimension
  2
*D21
 10
120.2627594127594
 20
233.94596806428
 30
0.0
 11
111.7627594127593
 21
91.98746806428005
 31
0.0
 70
    32
 71
     5
 42
283.917
  3
AM_ISO$0
100
AcDbAlignedDimension
 13
173.0725927599472
 23
-49.97103193571998
 33
0.0
 14
162.4135927599472
 24
233.94596806428
 34
0.0
 50
90.0
100
AcDbRotatedDimension
1001
ACAD
1000
DSTYLE
1002
{
1070
   147
1040
5.0
1002
}
  0
DIMENSION
  5
1CFA
330
1F
100
AcDbEntity
  8
AM_5
100
AcDbDimension
  2
*D22
 10
81.70377997201883
 20
673.7427680642796
 30
0.0
 11
73.2037799720187
 21
311.8858680642798
 31
0.0
 70
    32
 71
     5
 42
723.7137999999995
  3
AM_ISO$0
100
AcDbAlignedDimension
 13
173.0725927599472
 23
-49.97103193571998
 33
0.0
 14
315.8385924841494
 24
673.7427680642795
 34
0.0
 50
90.0
100
AcDbRotatedDimension
1001
ACAD
1000
DSTYLE
1002
{
1070
   147
1040
5.0
1002
}
  0
DIMENSION
  5
1D22
330
1F
100
AcDbEntity
  8
AM_5
100
AcDbDimension
  2
*D23
 10
489.6003604251411
 20
698.7988726556935
 30
0.0
 11
318.406228710107
 21
707.2988726556935
 31
0.0
 70
    32
 71
     5
 42
342.3882634300682
  3
AM_ISO$0
100
AcDbAlignedDimension
 13
147.212096995073
 23
513.3076455680622
 33
0.0
 14
489.6003604251411
 24
509.5995875381754
 34
0.0
100
AcDbRotatedDimension
1001
ACAD
1000
DSTYLE
1002
{
1070
   147
1040
5.0
1002
}
  0
ENDSEC
  0
SECTION
  2
OBJECTS
  0
DICTIONARY
  5
C
330
0
100
AcDbDictionary
281
     1
  3
ACAD_COLOR
350
A9C
  3
ACAD_GROUP
350
D
  3
ACAD_LAYOUT
350
1A
  3
ACAD_MATERIAL
350
A9B
  3
ACAD_MLINESTYLE
350
17
  3
ACAD_PLOTSETTINGS
350
19
  3
ACAD_PLOTSTYLENAME
350
E
  3
ACAD_TABLESTYLE
350
A9D
  3
AcDbVariableDictionary
350
CCF
  3
AcmDictionary
350
AFE
  3
AMG
350
AA4
  3
AMGSNAPSETTINGS
350
C10
  0
DICTIONARY
  5
1913
330
2
100
AcDbDictionary
280
     1
281
     1
  3
ACAD_LAYERSTATES
360
1C5F
  3
AMLAYER_GROUPCOLORS
360
1914
  0
DICTIONARY
  5
F94
330
1F
100
AcDbDictionary
280
     1
281
     1
  3
ACAD_SORTENTS
360
F95
  0
DICTIONARY
  5
A9C
102
{ACAD_REACTORS
330
C
102
}
330
C
100
AcDbDictionary
281
     1
  0
DICTIONARY
  5
D
102
{ACAD_REACTORS
330
C
102
}
330
C
100
AcDbDictionary
281
     1
  0
DICTIONARY
  5
1A
102
{ACAD_REACTORS
330
C
102
}
330
C
100
AcDbDictionary
281
     1
  3
Layout1
350
1E
  3
Layout2
350
26
  3
Model
350
22
  0
DICTIONARY
  5
A9B
102
{ACAD_REACTORS
330
C
102
}
330
C
100
AcDbDictionary
281
     1
  0
DICTIONARY
  5
17
102
{ACAD_REACTORS
330
C
102
}
330
C
100
AcDbDictionary
281
     1
  3
Standard
350
18
  0
DICTIONARY
  5
19
102
{ACAD_REACTORS
330
C
102
}
330
C
100
AcDbDictionary
281
     1
  0
ACDBDICTIONARYWDFLT
  5
E
102
{ACAD_REACTORS
330
C
102
}
330
C
100
AcDbDictionary
281
     1
  3
Normal
350
F
100
AcDbDictionaryWithDefault
340
F
  0
DICTIONARY
  5
A9D
102
{ACAD_REACTORS
330
C
102
}
330
C
100
AcDbDictionary
281
     1
  3
Standard
350
A9E
  0
DICTIONARY
  5
CCF
102
{ACAD_REACTORS
330
C
102
}
330
C
100
AcDbDictionary
281
     1
  3
CTABLESTYLE
350
CD0
  0
DICTIONARY
  5
AFE
102
{ACAD_REACTORS
330
C
102
}
330
C
100
AcDbDictionary
281
     1
  3
AcmStdDictionary
350
B00
  3
AMDTSECTSYM_ARROWCOLOR
350
B1E
  0
DICTIONARY
  5
AA4
102
{ACAD_REACTORS
330
C
102
}
330
C
100
AcDbDictionary
281
     1
  0
DICTIONARY
  5
C10
102
{ACAD_REACTORS
330
C
102
}
330
C
100
AcDbDictionary
281
     1
  0
DICTIONARY
  5
1C5F
102
{ACAD_REACTORS
330
1913
102
}
330
1913
100
AcDbDictionary
281
     1
  0
DICTIONARY
  5
1914
102
{ACAD_REACTORS
330
1913
102
}
330
1913
100
AcDbDictionary
280
     1
281
     1
  0
SORTENTSTABLE
  5
F95
102
{ACAD_REACTORS
330
F94
102
}
330
F94
100
AcDbSortentsTable
330
1F
331
1A10
  5
1C3F
331
1267
  5
1908
331
1083
  5
11A0
331
F6F
  5
104C
331
108B
  5
1253
331
F77
  5
107D
331
1093
  5
125D
331
F7F
  5
1091
331
3A1
  5
3A1
331
E7A
  5
E80
331
E04
  5
E04
331
3A9
  5
3A9
331
DCD
  5
DCD
331
E43
  5
E43
331
E82
  5
E8A
331
DD5
  5
DD5
331
E0C
  5
E0C
331
E4B
  5
E4B
331
E8A
  5
F6C
331
E14
  5
E14
331
DDD
  5
DDD
331
E53
  5
E53
331
E1C
  5
E1C
331
1248
  5
1305
331
1929
  5
1991
331
109B
  5
1269
331
1250
  5
133F
331
136D
  5
1959
331
F87
  5
109E
331
1258
  5
1367
331
1A09
  5
1A3E
331
10A3
  5
12EC
331
137D
  5
1956
331
12F6
  5
1921
331
107C
  5
116F
331
E5B
  5
E5B
331
E24
  5
E24
331
DE5
  5
DE5
331
E2C
  5
E2C
331
DED
  5
DED
331
E63
  5
E63
331
E34
  5
E34
331
DF5
  5
DF5
331
39A
  5
39A
331
DBE
  5
DBE
331
E6B
  5
E6B
331
E73
  5
E79
331
DFD
  5
DFD
331
DC6
  5
DC6
331
E3C
  5
E3C
331
1260
  5
14D2
331
1A11
  5
1C41
331
1268
  5
1909
331
F68
  5
F82
331
1084
  5
11A2
331
F70
  5
104D
331
1BA9
  5
1C49
331
108C
  5
1254
331
1C41
  5
1093
331
F78
  5
1080
331
1094
  5
125E
331
3A2
  5
3A2
331
E7B
  5
E81
331
3AA
  5
3AA
331
DCE
  5
DCE
331
E05
  5
E05
331
E44
  5
E44
331
DD6
  5
DD6
331
E0D
  5
E0D
331
E4C
  5
E4C
331
E83
  5
E8B
331
E8B
  5
F6D
331
E15
  5
E15
331
DDE
  5
DDE
331
E54
  5
E54
331
E1D
  5
E1D
331
1922
  5
198B
331
1C49
  5
1174
331
109C
  5
126F
331
1251
  5
1349
331
F88
  5
109F
331
1259
  5
13A7
331
1A0A
  5
1BA9
331
10A4
  5
12F6
331
105D
  5
116D
331
107D
  5
1170
331
E5C
  5
E5C
331
DE6
  5
DE6
331
E25
  5
E25
331
E64
  5
E64
331
DEE
  5
DEE
331
E2D
  5
E2D
331
E35
  5
E35
331
39B
  5
39B
331
DBF
  5
DBF
331
DF6
  5
DF6
331
E6C
  5
E6C
331
E74
  5
E7A
331
E3D
  5
E3D
331
DFE
  5
DFE
331
DC7
  5
DC7
331
1261
  5
14D3
331
1A12
  5
1C42
331
1269
  5
190A
331
F69
  5
F83
331
1085
  5
11A3
331
134F
  5
1955
331
F71
  5
105D
331
1BAA
  5
1C4A
331
108D
  5
1255
331
1C42
  5
1094
331
F79
  5
1081
331
1095
  5
1261
331
3A3
  5
3A3
331
E7C
  5
E82
331
E06
  5
E06
331
3AB
  5
3AB
331
DCF
  5
DCF
331
E45
  5
E45
331
DD7
  5
DD7
331
E0E
  5
E0E
331
E4D
  5
E4D
331
E84
  5
E8C
331
E8C
  5
F6E
331
E16
  5
E16
331
DDF
  5
DDF
331
E55
  5
E55
331
E1E
  5
E1E
331
1923
  5
198C
331
1C4A
  5
1175
331
124A
  5
1307
331
1367
  5
195E
331
F81
  5
1092
331
109D
  5
1270
331
1252
  5
134B
331
F89
  5
10A0
331
125A
  5
13B1
331
1377
  5
1958
331
1A0B
  5
1BAA
331
10A5
  5
12FC
331
F62
  5
F72
331
107E
  5
1177
331
E5D
  5
E5D
331
E26
  5
E26
331
DE7
  5
DE7
331
DEF
  5
DEF
331
E2E
  5
E2E
331
DF7
  5
DF7
331
39C
  5
39C
331
DC0
  5
DC0
331
E36
  5
E36
331
E6D
  5
E6D
331
E75
  5
E7B
331
DFF
  5
DFF
331
E3E
  5
E3E
331
1262
  5
14D7
331
13A7
  5
E6F
331
F6A
  5
F87
331
1086
  5
1247
331
13B7
  5
195D
331
F72
  5
1067
331
1BAB
  5
1C4C
331
108E
  5
1258
331
F7A
  5
1084
331
13C7
  5
E74
331
1096
  5
1262
331
3A4
  5
3A4
331
DC8
  5
DC8
331
E7D
  5
E83
331
3AC
  5
3AC
331
DD0
  5
DD0
331
E07
  5
E07
331
E46
  5
E46
331
E0F
  5
E0F
331
DD8
  5
DD8
331
E4E
  5
E4E
331
E85
  5
E8D
331
E8D
  5
F6F
331
E17
  5
E17
331
E56
  5
E56
331
E1F
  5
E1F
331
1924
  5
198D
331
124B
  5
1308
331
F82
  5
1097
331
109E
  5
1271
331
1253
  5
134C
331
F8A
  5
10A1
331
125B
  5
13B7
331
1A0C
  5
1BAB
331
F63
  5
F79
331
107F
  5
1178
331
DE0
  5
DE0
331
E5E
  5
E5E
331
DE8
  5
DE8
331
E27
  5
E27
331
DF0
  5
DF0
331
E2F
  5
E2F
331
E37
  5
E37
331
39D
  5
39D
331
DC1
  5
DC1
331
DF8
  5
DF8
331
E6E
  5
E6E
331
E76
  5
E7C
331
E3F
  5
E3F
331
1263
  5
14D8
331
F6B
  5
F8A
331
1087
  5
1248
331
13B8
  5
E70
331
F73
  5
1068
331
108F
  5
1259
331
1C44
  5
F7C
331
F7B
  5
1085
331
1097
  5
1263
331
E00
  5
E00
331
3A5
  5
3A5
331
DC9
  5
DC9
331
E7E
  5
E84
331
3AD
  5
3AD
331
DD1
  5
DD1
331
E08
  5
E08
331
E47
  5
E47
331
E10
  5
E10
331
DD9
  5
DD9
331
E4F
  5
E4F
331
E86
  5
E8E
331
E8E
  5
F70
331
E18
  5
E18
331
E57
  5
E57
331
1C4C
  5
1267
331
1925
  5
198E
331
124C
  5
1309
331
F83
  5
1098
331
109F
  5
1272
331
1254
  5
134F
331
F8B
  5
10A4
331
125C
  5
13C2
331
F64
  5
F7E
331
E20
  5
E20
331
DE1
  5
DE1
331
E5F
  5
E5F
331
E28
  5
E28
331
DE9
  5
DE9
331
DF1
  5
DF1
331
E30
  5
E30
331
E6F
  5
E75
331
DF9
  5
DF9
331
39E
  5
39E
331
DC2
  5
DC2
331
E38
  5
E38
331
E77
  5
E7D
331
1264
  5
14DA
331
1080
  5
1189
331
13B1
  5
1960
331
F6C
  5
F8B
331
1A3D
  5
1C44
331
1088
  5
1250
331
F74
  5
106A
331
1090
  5
125A
331
1C45
  5
F7D
331
F7C
  5
108A
331
E01
  5
E01
331
3A6
  5
3A6
331
DCA
  5
DCA
331
E40
  5
E40
331
E7F
  5
E85
331
DD2
  5
DD2
331
E09
  5
E09
331
E48
  5
E48
331
E87
  5
E8F
331
E11
  5
E11
331
DDA
  5
DDA
331
E50
  5
E50
331
E8F
  5
F71
331
E19
  5
E19
331
13C9
  5
E73
331
1C4D
  5
1268
331
1926
  5
198F
331
1098
  5
1264
331
124D
  5
130A
331
F84
  5
1099
331
1255
  5
1350
331
10A0
  5
12D2
331
1A06
  5
1A12
331
125D
  5
13C7
331
F65
  5
F7F
331
E58
  5
E58
331
E21
  5
E21
331
DE2
  5
DE2
331
DEA
  5
DEA
331
E29
  5
E29
331
E60
  5
E60
331
397
  5
397
331
DBB
  5
DBB
331
DF2
  5
DF2
331
E31
  5
E31
331
E70
  5
E76
331
E39
  5
E39
331
39F
  5
39F
331
DC3
  5
DC3
331
DFA
  5
DFA
331
1265
  5
1520
331
1081
  5
118A
331
F6D
  5
F98
331
1A3E
  5
1C45
331
1089
  5
1251
331
F75
  5
106B
331
1091
  5
125B
331
F7D
  5
108B
331
E78
  5
E7E
331
E02
  5
E02
331
3A7
  5
3A7
331
DCB
  5
DCB
331
E41
  5
E41
331
E80
  5
E86
331
DD3
  5
DD3
331
E0A
  5
E0A
331
E49
  5
E49
331
E51
  5
E51
331
DDB
  5
DDB
331
E12
  5
E12
331
E88
  5
F62
331
E1A
  5
E1A
331
1099
  5
1265
331
F85
  5
109A
331
124E
  5
131A
331
13D2
  5
1961
331
10A1
  5
12DC
331
1A07
  5
1A3D
331
1256
  5
135C
331
12EC
  5
E89
331
125E
  5
13C9
331
F66
  5
F80
331
E59
  5
E59
331
E22
  5
E22
331
DE3
  5
DE3
331
E2A
  5
E2A
331
DEB
  5
DEB
331
E61
  5
E61
331
DF3
  5
DF3
331
398
  5
398
331
DBC
  5
DBC
331
E32
  5
E32
331
E71
  5
E77
331
DFB
  5
DFB
331
DC4
  5
DC4
331
E3A
  5
E3A
331
1266
  5
1528
331
12FC
  5
1915
331
1082
  5
119F
331
F6E
  5
F99
331
108A
  5
1252
331
F76
  5
107C
331
135C
  5
E71
331
1092
  5
125C
331
F7E
  5
108C
331
3A0
  5
3A0
331
E79
  5
E7F
331
3A8
  5
3A8
331
DCC
  5
DCC
331
E03
  5
E03
331
E42
  5
E42
331
E81
  5
E87
331
DD4
  5
DD4
331
E0B
  5
E0B
331
E4A
  5
E4A
331
E89
  5
F63
331
E13
  5
E13
331
DDC
  5
DDC
331
E52
  5
E52
331
E1B
  5
E1B
331
1247
  5
1300
331
109A
  5
1266
331
F86
  5
109D
331
124F
  5
1339
331
10A2
  5
12E2
331
1257
  5
135D
331
125F
  5
13D2
331
F67
  5
F81
331
E23
  5
E23
331
DE4
  5
DE4
331
E5A
  5
E5A
331
DEC
  5
DEC
331
E2B
  5
E2B
331
E62
  5
E62
331
E33
  5
E33
331
399
  5
399
331
DBD
  5
DBD
331
DF4
  5
DF4
331
E6A
  5
E6A
331
E72
  5
E78
331
E3B
  5
E3B
331
DC5
  5
DC5
331
DFC
  5
DFC
  0
LAYOUT
  5
1E
102
{ACAD_REACTORS
330
1A
102
}
330
1A
100
AcDbPlotSettings
  1

  2

  4

  6

 40
0.0
 41
0.0
 42
0.0
 43
0.0
 44
0.0
 45
0.0
 46
0.0
 47
0.0
 48
0.0
 49
0.0
140
0.0
141
0.0
142
1.0
143
1.0
 70
   688
 72
     0
 73
     0
 74
     5
  7
monochrome.ctb
 75
    16
147
1.0
 76
     0
 77
     2
 78
   300
148
0.0
149
0.0
100
AcDbLayout
  1
Layout1
 70
     1
 71
     1
 10
0.0
 20
0.0
 11
420.0
 21
297.0
 12
0.0
 22
0.0
 32
0.0
 14
1.000000000000000E+20
 24
1.000000000000000E+20
 34
1.000000000000000E+20
 15
-1.000000000000000E+20
 25
-1.000000000000000E+20
 35
-1.000000000000000E+20
146
0.0
 13
0.0
 23
0.0
 33
0.0
 16
1.0
 26
0.0
 36
0.0
 17
0.0
 27
1.0
 37
0.0
 76
     0
330
1B
  0
LAYOUT
  5
26
102
{ACAD_REACTORS
330
1A
102
}
330
1A
100
AcDbPlotSettings
  1

  2

  4

  6

 40
0.0
 41
0.0
 42
0.0
 43
0.0
 44
0.0
 45
0.0
 46
0.0
 47
0.0
 48
0.0
 49
0.0
140
0.0
141
0.0
142
1.0
143
1.0
 70
   688
 72
     0
 73
     0
 74
     5
  7
monochrome.ctb
 75
    16
147
1.0
 76
     0
 77
     2
 78
   300
148
0.0
149
0.0
100
AcDbLayout
  1
Layout2
 70
     1
 71
     2
 10
0.0
 20
0.0
 11
12.0
 21
9.0
 12
0.0
 22
0.0
 32
0.0
 14
0.0
 24
0.0
 34
0.0
 15
0.0
 25
0.0
 35
0.0
146
0.0
 13
0.0
 23
0.0
 33
0.0
 16
1.0
 26
0.0
 36
0.0
 17
0.0
 27
1.0
 37
0.0
 76
     0
330
23
  0
LAYOUT
  5
22
102
{ACAD_REACTORS
330
1A
102
}
330
1A
100
AcDbPlotSettings
  1

  2
Brother HL-1440 series
  4
A4
  6

 40
6.720416545867919
 41
5.027085304260253
 42
6.889755249023437
 43
5.027069091796875
 44
209.9733276367187
 45
296.9259948730469
 46
42.0
 47
27.52
 48
0.0
 49
0.0
140
0.0
141
0.0
142
1.0
143
1.0
 70
 11956
 72
     1
 73
     1
 74
     0
  7
monochrome.ctb
 75
    16
147
1.0
 76
     0
 77
     2
 78
   300
148
-215.2573456839555
149
-268.9032717017239
100
AcDbLayout
  1
Model
 70
     1
 71
     0
 10
0.0
 20
0.0
 11
12.0
 21
9.0
 12
0.0
 22
0.0
 32
0.0
 14
0.0
 24
0.0
 34
0.0
 15
0.0
 25
0.0
 35
0.0
146
0.0
 13
0.0
 23
0.0
 33
0.0
 16
1.0
 26
0.0
 36
0.0
 17
0.0
 27
1.0
 37
0.0
 76
     0
330
1F
  0
MLINESTYLE
  5
18
102
{ACAD_REACTORS
330
17
102
}
330
17
100
AcDbMlineStyle
  2
STANDARD
 70
     0
  3

 62
   256
 51
90.0
 52
90.0
 71
     2
 49
0.5
 62
   256
  6
BYLAYER
 49
-0.5
 62
   256
  6
BYLAYER
  0
ACDBPLACEHOLDER
  5
F
102
{ACAD_REACTORS
330
E
102
}
330
E
  0
TABLESTYLE
  5
A9E
102
{ACAD_REACTORS
330
A9D
102
}
330
A9D
100
AcDbTableStyle
  3
Standard
 70
     0
 71
     0
 40
1.5
 41
1.5
280
     0
281
     0
  7
Standard
140
4.5
170
     2
 62
     0
 63
     7
283
     0
274
    -2
284
     1
 64
     0
275
    -2
285
     1
 65
     0
276
    -2
286
     1
 66
     0
277
    -2
287
     1
 67
     0
278
    -2
288
     1
 68
     0
279
    -2
289
     1
 69
     0
  7
Standard
140
6.0
170
     5
 62
     0
 63
     7
283
     0
274
    -2
284
     1
 64
     0
275
    -2
285
     1
 65
     0
276
    -2
286
     1
 66
     0
277
    -2
287
     1
 67
     0
278
    -2
288
     1
 68
     0
279
    -2
289
     1
 69
     0
  7
Standard
140
4.5
170
     5
 62
     0
 63
     7
283
     0
274
    -2
284
     1
 64
     0
275
    -2
285
     1
 65
     0
276
    -2
286
     1
 66
     0
277
    -2
287
     1
 67
     0
278
    -2
288
     1
 68
     0
279
    -2
289
     1
 69
     0
  0
DICTIONARYVAR
  5
CD0
102
{ACAD_REACTORS
330
CCF
102
}
330
CCF
100
DictionaryVariables
280
     0
  1
STANDARD
  0
DICTIONARY
  5
B00
102
{ACAD_REACTORS
330
AFE
102
}
330
AFE
100
AcDbDictionary
281
     1
  0
XRECORD
  5
B1E
102
{ACAD_REACTORS
330
AFE
102
}
330
AFE
100
AcDbXrecord
280
     1
 90
-1023410169
  0
ENDSEC
  0
EOF
