  0
SECTION
  2
HEADER
  9
$ACADVER
  1
AC2.10
  0
ENDSEC
  0
SECTION
  2
TABLES
  0
TABLE
  2
LAYER
 70
     8
  0
LAYER
  2
0
 62
     7
 70
0
  6
CONTINUOUS
  0
LAYER
  2
1
 62
     1
 70
0
  6
CONTINUOUS
  0
LAYER
  2
2
 62
     2
 70
0
  6
CONTINUOUS
  0
LAYER
  2
3
 62
     3
 70
0
  6
CONTINUOUS
  0
LAYER
  2
4
 62
     4
 70
0
  6
CONTINUOUS
  0
LAYER
  2
5
 62
     5
 70
0
  6
CONTINUOUS
  0
LAYER
  2
6
 62
     6
 70
0
  6
CONTINUOUS
  0
LAYER
  2
7
 62
     7
 70
0
  6
CONTINUOUS
  0
ENDTAB
  0
TABLE
  2
STYLE
 70
     1
  0
STYLE
 70
     0
  2
STANDARD
  3
TXT
 40
0.00
 41
1.00
 42
1.00
 50
0.00
 71
     0
  0
ENDTAB
  0
ENDSEC
  0
SECTION
  2
BLOCKS
  0
BLOCK
  8
0
  2
EPAD
 70
0
 10
0.0
 20
0.0
  0
POLYLINE
  8
0
 66
1
 70
1
 40
0.5
 41
0.5
  0
VERTEX
  8
0
 10
-0.25
 20
0.0
 42
1.0
  0
VERTEX
  8
0
 10
0.25
 20
0.0
 42
1.0
  0
SEQEND
  8
0
  0
ENDBLK
  8
0
  0
BLOCK
  8
0
  2
RPAD
 70
0
 10
0.0
 20
0.0
  0
TRACE
  8
0
 10
-0.5
 20
-0.5
 11
-0.5
 21
0.5
 12
0.5
 22
-0.5
 13
0.5
 23
0.5
  0
ENDBLK
  8
0
  0
ENDSEC
0
SECTION
2
ENTITIES
0
INSERT
8
0
2
EPAD
10
0.403000
20
0.497000
41
0.030000
42
0.030000
0
CIRCLE
8
0
10
0.403000
20
0.497000
40
0.010000
0
INSERT
8
0
2
EPAD
10
-0.097000
20
-0.198000
41
0.030000
42
0.030000
0
CIRCLE
8
0
10
-0.097000
20
-0.198000
40
0.010000
0
INSERT
8
0
2
EPAD
10
0.068000
20
-0.143000
41
0.030000
42
0.030000
0
CIRCLE
8
0
10
0.068000
20
-0.143000
40
0.010000
0
INSERT
8
0
2
EPAD
10
0.313000
20
-0.088000
41
0.030000
42
0.030000
0
CIRCLE
8
0
10
0.313000
20
-0.088000
40
0.010000
0
INSERT
8
0
2
EPAD
10
0.238000
20
-0.088000
41
0.030000
42
0.030000
0
CIRCLE
8
0
10
0.238000
20
-0.088000
40
0.010000
0
INSERT
8
0
2
EPAD
10
0.198000
20
-0.088000
41
0.030000
42
0.030000
0
CIRCLE
8
0
10
0.198000
20
-0.088000
40
0.010000
0
INSERT
8
0
2
EPAD
10
0.353000
20
0.062000
41
0.030000
42
0.030000
0
CIRCLE
8
0
10
0.353000
20
0.062000
40
0.010000
0
INSERT
8
0
2
EPAD
10
0.403000
20
0.092000
41
0.030000
42
0.030000
0
CIRCLE
8
0
10
0.403000
20
0.092000
40
0.010000
0
INSERT
8
0
2
EPAD
10
0.323000
20
-0.283000
41
0.030000
42
0.030000
0
CIRCLE
8
0
10
0.323000
20
-0.283000
40
0.010000
0
INSERT
8
0
2
EPAD
10
0.453000
20
-0.513000
41
0.030000
42
0.030000
0
CIRCLE
8
0
10
0.453000
20
-0.513000
40
0.010000
0
INSERT
8
0
2
EPAD
10
0.103000
20
0.667000
41
0.030000
42
0.030000
0
CIRCLE
8
0
10
0.103000
20
0.667000
40
0.010000
0
INSERT
8
0
2
EPAD
10
0.203000
20
0.647000
41
0.030000
42
0.030000
0
CIRCLE
8
0
10
0.203000
20
0.647000
40
0.010000
0
INSERT
8
0
2
EPAD
10
-0.347000
20
-0.303000
41
0.030000
42
0.030000
0
CIRCLE
8
0
10
-0.347000
20
-0.303000
40
0.010000
0
INSERT
8
0
2
EPAD
10
-0.062000
20
-0.463000
41
0.030000
42
0.030000
0
CIRCLE
8
0
10
-0.062000
20
-0.463000
40
0.010000
0
INSERT
8
0
2
EPAD
10
0.348000
20
-0.243000
41
0.030000
42
0.030000
0
CIRCLE
8
0
10
0.348000
20
-0.243000
40
0.010000
0
INSERT
8
0
2
EPAD
10
-0.237000
20
-0.503000
41
0.030000
42
0.030000
0
CIRCLE
8
0
10
-0.237000
20
-0.503000
40
0.010000
0
INSERT
8
0
2
EPAD
10
0.168000
20
-0.313000
41
0.030000
42
0.030000
0
CIRCLE
8
0
10
0.168000
20
-0.313000
40
0.010000
0
INSERT
8
0
2
EPAD
10
-0.347000
20
0.332000
41
0.030000
42
0.030000
0
CIRCLE
8
0
10
-0.347000
20
0.332000
40
0.010000
0
INSERT
8
0
2
EPAD
10
0.328000
20
-0.333000
41
0.030000
42
0.030000
0
CIRCLE
8
0
10
0.328000
20
-0.333000
40
0.010000
0
INSERT
8
0
2
EPAD
10
-0.022000
20
-1.048000
41
0.030000
42
0.030000
0
CIRCLE
8
0
10
-0.022000
20
-1.048000
40
0.010000
0
INSERT
8
0
2
EPAD
10
-0.127000
20
-0.453000
41
0.030000
42
0.030000
0
CIRCLE
8
0
10
-0.127000
20
-0.453000
40
0.010000
0
INSERT
8
0
2
EPAD
10
0.128000
20
-0.413000
41
0.030000
42
0.030000
0
CIRCLE
8
0
10
0.128000
20
-0.413000
40
0.010000
0
INSERT
8
0
2
EPAD
10
0.163000
20
-0.638000
41
0.030000
42
0.030000
0
CIRCLE
8
0
10
0.163000
20
-0.638000
40
0.010000
0
INSERT
8
0
2
EPAD
10
0.163000
20
-0.803000
41
0.030000
42
0.030000
0
CIRCLE
8
0
10
0.163000
20
-0.803000
40
0.010000
0
INSERT
8
0
2
EPAD
10
-0.382000
20
0.372000
41
0.030000
42
0.030000
0
CIRCLE
8
0
10
-0.382000
20
0.372000
40
0.010000
0
INSERT
8
0
2
EPAD
10
-0.322000
20
0.412000
41
0.030000
42
0.030000
0
CIRCLE
8
0
10
-0.322000
20
0.412000
40
0.010000
0
INSERT
8
0
2
EPAD
10
0.193000
20
-0.538000
41
0.030000
42
0.030000
0
CIRCLE
8
0
10
0.193000
20
-0.538000
40
0.010000
0
INSERT
8
0
2
EPAD
10
0.277000
20
-0.108000
41
0.030000
42
0.030000
0
CIRCLE
8
0
10
0.277000
20
-0.108000
40
0.010000
0
INSERT
8
0
2
EPAD
10
0.353000
20
0.487000
41
0.030000
42
0.030000
0
CIRCLE
8
0
10
0.353000
20
0.487000
40
0.010000
0
INSERT
8
0
2
EPAD
10
0.033000
20
0.147000
41
0.030000
42
0.030000
0
CIRCLE
8
0
10
0.033000
20
0.147000
40
0.010000
0
INSERT
8
0
2
EPAD
10
-0.062000
20
-0.172000
41
0.030000
42
0.030000
0
CIRCLE
8
0
10
-0.062000
20
-0.172000
40
0.010000
0
INSERT
8
0
2
EPAD
10
0.558000
20
0.177000
41
0.030000
42
0.030000
0
CIRCLE
8
0
10
0.558000
20
0.177000
40
0.010000
0
INSERT
8
0
2
EPAD
10
0.438000
20
-0.018000
41
0.030000
42
0.030000
0
CIRCLE
8
0
10
0.438000
20
-0.018000
40
0.010000
0
INSERT
8
0
2
EPAD
10
-0.222000
20
0.442000
41
0.030000
42
0.030000
0
CIRCLE
8
0
10
-0.222000
20
0.442000
40
0.010000
0
INSERT
8
0
2
EPAD
10
-0.147000
20
0.427000
41
0.030000
42
0.030000
0
CIRCLE
8
0
10
-0.147000
20
0.427000
40
0.010000
0
INSERT
8
0
2
EPAD
10
0.228000
20
-1.058000
41
0.030000
42
0.030000
0
CIRCLE
8
0
10
0.228000
20
-1.058000
40
0.010000
0
INSERT
8
0
2
EPAD
10
0.013000
20
-1.238000
41
0.030000
42
0.030000
0
CIRCLE
8
0
10
0.013000
20
-1.238000
40
0.010000
0
INSERT
8
0
2
EPAD
10
0.293000
20
-0.543000
41
0.030000
42
0.030000
0
CIRCLE
8
0
10
0.293000
20
-0.543000
40
0.010000
0
INSERT
8
0
2
EPAD
10
0.403000
20
-0.708000
41
0.030000
42
0.030000
0
CIRCLE
8
0
10
0.403000
20
-0.708000
40
0.010000
0
INSERT
8
0
2
EPAD
10
0.703000
20
-0.572000
41
0.030000
42
0.030000
0
CIRCLE
8
0
10
0.703000
20
-0.572000
40
0.010000
0
INSERT
8
0
2
EPAD
10
-0.187000
20
-0.163000
41
0.030000
42
0.030000
0
CIRCLE
8
0
10
-0.187000
20
-0.163000
40
0.010000
0
INSERT
8
0
2
EPAD
10
-0.147000
20
-0.798000
41
0.030000
42
0.030000
0
CIRCLE
8
0
10
-0.147000
20
-0.798000
40
0.010000
0
INSERT
8
0
2
EPAD
10
-0.177000
20
-0.368000
41
0.030000
42
0.030000
0
CIRCLE
8
0
10
-0.177000
20
-0.368000
40
0.010000
0
INSERT
8
0
2
EPAD
10
0.928000
20
0.067000
41
0.030000
42
0.030000
0
CIRCLE
8
0
10
0.928000
20
0.067000
40
0.010000
0
INSERT
8
0
2
EPAD
10
0.963000
20
-0.203000
41
0.030000
42
0.030000
0
CIRCLE
8
0
10
0.963000
20
-0.203000
40
0.010000
0
INSERT
8
0
2
EPAD
10
0.597000
20
0.292000
41
0.030000
42
0.030000
0
CIRCLE
8
0
10
0.597000
20
0.292000
40
0.010000
0
INSERT
8
0
2
EPAD
10
0.188000
20
-0.243000
41
0.030000
42
0.030000
0
CIRCLE
8
0
10
0.188000
20
-0.243000
40
0.010000
0
INSERT
8
0
2
EPAD
10
0.303000
20
0.692000
41
0.030000
42
0.030000
0
CIRCLE
8
0
10
0.303000
20
0.692000
40
0.010000
0
INSERT
8
0
2
EPAD
10
0.203000
20
0.432000
41
0.030000
42
0.030000
0
CIRCLE
8
0
10
0.203000
20
0.432000
40
0.010000
0
INSERT
8
0
2
EPAD
10
-0.237000
20
-0.458000
41
0.030000
42
0.030000
0
CIRCLE
8
0
10
-0.237000
20
-0.458000
40
0.010000
0
INSERT
8
0
2
EPAD
10
0.418000
20
0.837000
41
0.030000
42
0.030000
0
CIRCLE
8
0
10
0.418000
20
0.837000
40
0.010000
0
INSERT
8
0
2
EPAD
10
-0.103000
20
1.007000
41
0.030000
42
0.030000
0
CIRCLE
8
0
10
-0.103000
20
1.007000
40
0.010000
0
INSERT
8
0
2
EPAD
10
-0.452000
20
0.782000
41
0.030000
42
0.030000
0
CIRCLE
8
0
10
-0.452000
20
0.782000
40
0.010000
0
INSERT
8
0
2
EPAD
10
0.048000
20
0.587000
41
0.030000
42
0.030000
0
CIRCLE
8
0
10
0.048000
20
0.587000
40
0.010000
0
INSERT
8
0
2
EPAD
10
0.123000
20
-0.888000
41
0.030000
42
0.030000
0
CIRCLE
8
0
10
0.123000
20
-0.888000
40
0.010000
0
INSERT
8
0
2
EPAD
10
0.883000
20
-0.353000
41
0.030000
42
0.030000
0
CIRCLE
8
0
10
0.883000
20
-0.353000
40
0.010000
0
INSERT
8
0
2
EPAD
10
0.123000
20
0.402000
41
0.030000
42
0.030000
0
CIRCLE
8
0
10
0.123000
20
0.402000
40
0.010000
0
INSERT
8
0
2
EPAD
10
0.368000
20
-0.178000
41
0.030000
42
0.030000
0
CIRCLE
8
0
10
0.368000
20
-0.178000
40
0.010000
0
INSERT
8
0
2
EPAD
10
0.258000
20
-0.243000
41
0.030000
42
0.030000
0
CIRCLE
8
0
10
0.258000
20
-0.243000
40
0.010000
0
INSERT
8
0
2
EPAD
10
0.258000
20
-0.398000
41
0.030000
42
0.030000
0
CIRCLE
8
0
10
0.258000
20
-0.398000
40
0.010000
0
INSERT
8
0
2
EPAD
10
0.253000
20
-0.333000
41
0.030000
42
0.030000
0
CIRCLE
8
0
10
0.253000
20
-0.333000
40
0.010000
0
INSERT
8
0
2
EPAD
10
0.483000
20
-0.428000
41
0.030000
42
0.030000
0
CIRCLE
8
0
10
0.483000
20
-0.428000
40
0.010000
0
INSERT
8
0
2
EPAD
10
-0.202000
20
-0.028000
41
0.030000
42
0.030000
0
CIRCLE
8
0
10
-0.202000
20
-0.028000
40
0.010000
0
INSERT
8
0
2
EPAD
10
0.678000
20
-0.328000
41
0.030000
42
0.030000
0
CIRCLE
8
0
10
0.678000
20
-0.328000
40
0.010000
0
INSERT
8
0
2
EPAD
10
-0.112000
20
0.317000
41
0.030000
42
0.030000
0
CIRCLE
8
0
10
-0.112000
20
0.317000
40
0.010000
0
INSERT
8
0
2
EPAD
10
0.468000
20
0.157000
41
0.030000
42
0.030000
0
CIRCLE
8
0
10
0.468000
20
0.157000
40
0.010000
0
INSERT
8
0
2
EPAD
10
-0.197000
20
0.647000
41
0.030000
42
0.030000
0
CIRCLE
8
0
10
-0.197000
20
0.647000
40
0.010000
0
INSERT
8
0
2
EPAD
10
-0.094000
20
0.703000
41
0.030000
42
0.030000
0
CIRCLE
8
0
10
-0.094000
20
0.703000
40
0.010000
0
INSERT
8
0
2
EPAD
10
-0.472000
20
-0.793000
41
0.030000
42
0.030000
0
CIRCLE
8
0
10
-0.472000
20
-0.793000
40
0.010000
0
INSERT
8
0
2
EPAD
10
0.072000
20
-1.058000
41
0.030000
42
0.030000
0
CIRCLE
8
0
10
0.072000
20
-1.058000
40
0.010000
0
INSERT
8
0
2
EPAD
10
0.768000
20
-0.123000
41
0.030000
42
0.030000
0
CIRCLE
8
0
10
0.768000
20
-0.123000
40
0.010000
0
INSERT
8
0
2
EPAD
10
-0.422000
20
-0.363000
41
0.030000
42
0.030000
0
CIRCLE
8
0
10
-0.422000
20
-0.363000
40
0.010000
0
INSERT
8
0
2
EPAD
10
0.673000
20
-0.453000
41
0.030000
42
0.030000
0
CIRCLE
8
0
10
0.673000
20
-0.453000
40
0.010000
0
INSERT
8
0
2
EPAD
10
-0.347000
20
0.497000
41
0.030000
42
0.030000
0
CIRCLE
8
0
10
-0.347000
20
0.497000
40
0.010000
0
INSERT
8
0
2
EPAD
10
-0.317000
20
-0.168000
41
0.030000
42
0.030000
0
CIRCLE
8
0
10
-0.317000
20
-0.168000
40
0.010000
0
INSERT
8
0
2
EPAD
10
-0.292000
20
-0.312000
41
0.030000
42
0.030000
0
CIRCLE
8
0
10
-0.292000
20
-0.312000
40
0.010000
0
INSERT
8
0
2
EPAD
10
0.488000
20
0.087000
41
0.030000
42
0.030000
0
CIRCLE
8
0
10
0.488000
20
0.087000
40
0.010000
0
INSERT
8
0
2
EPAD
10
0.558000
20
-0.188000
41
0.030000
42
0.030000
0
CIRCLE
8
0
10
0.558000
20
-0.188000
40
0.010000
0
INSERT
8
0
2
EPAD
10
0.118000
20
-0.203000
41
0.030000
42
0.030000
0
CIRCLE
8
0
10
0.118000
20
-0.203000
40
0.010000
0
INSERT
8
0
2
EPAD
10
0.068000
20
-0.338000
41
0.030000
42
0.030000
0
CIRCLE
8
0
10
0.068000
20
-0.338000
40
0.010000
0
INSERT
8
0
2
EPAD
10
0.123000
20
-0.103000
41
0.030000
42
0.030000
0
CIRCLE
8
0
10
0.123000
20
-0.103000
40
0.010000
0
INSERT
8
0
2
EPAD
10
0.218000
20
0.037000
41
0.030000
42
0.030000
0
CIRCLE
8
0
10
0.218000
20
0.037000
40
0.010000
0
INSERT
8
0
2
EPAD
10
-0.207000
20
-1.238000
41
0.030000
42
0.030000
0
CIRCLE
8
0
10
-0.207000
20
-1.238000
40
0.010000
0
INSERT
8
0
2
EPAD
10
0.758000
20
0.012000
41
0.030000
42
0.030000
0
CIRCLE
8
0
10
0.758000
20
0.012000
40
0.010000
0
INSERT
8
0
2
EPAD
10
0.648000
20
-0.128000
41
0.030000
42
0.030000
0
CIRCLE
8
0
10
0.648000
20
-0.128000
40
0.010000
0
INSERT
8
0
2
EPAD
10
0.403000
20
0.287000
41
0.030000
42
0.030000
0
CIRCLE
8
0
10
0.403000
20
0.287000
40
0.010000
0
INSERT
8
0
2
EPAD
10
0.558000
20
0.412000
41
0.030000
42
0.030000
0
CIRCLE
8
0
10
0.558000
20
0.412000
40
0.010000
0
INSERT
8
0
2
EPAD
10
-0.057000
20
0.422000
41
0.030000
42
0.030000
0
CIRCLE
8
0
10
-0.057000
20
0.422000
40
0.010000
0
INSERT
8
0
2
EPAD
10
-0.057000
20
0.777000
41
0.030000
42
0.030000
0
CIRCLE
8
0
10
-0.057000
20
0.777000
40
0.010000
0
INSERT
8
0
2
EPAD
10
-0.134000
20
-0.883000
41
0.030000
42
0.030000
0
CIRCLE
8
0
10
-0.134000
20
-0.883000
40
0.010000
0
INSERT
8
0
2
EPAD
10
-0.067000
20
-0.308000
41
0.030000
42
0.030000
0
CIRCLE
8
0
10
-0.067000
20
-0.308000
40
0.010000
0
INSERT
8
0
2
EPAD
10
-0.032000
20
-0.433000
41
0.030000
42
0.030000
0
CIRCLE
8
0
10
-0.032000
20
-0.433000
40
0.010000
0
INSERT
8
0
2
EPAD
10
0.153000
20
0.722000
41
0.030000
42
0.030000
0
CIRCLE
8
0
10
0.153000
20
0.722000
40
0.010000
0
INSERT
8
0
2
EPAD
10
-0.007000
20
0.562000
41
0.030000
42
0.030000
0
CIRCLE
8
0
10
-0.007000
20
0.562000
40
0.010000
0
INSERT
8
0
2
EPAD
10
0.158000
20
0.242000
41
0.030000
42
0.030000
0
CIRCLE
8
0
10
0.158000
20
0.242000
40
0.010000
0
INSERT
8
0
2
EPAD
10
0.368000
20
0.242000
41
0.030000
42
0.030000
0
CIRCLE
8
0
10
0.368000
20
0.242000
40
0.010000
0
INSERT
8
0
2
EPAD
10
0.413000
20
0.047000
41
0.030000
42
0.030000
0
CIRCLE
8
0
10
0.413000
20
0.047000
40
0.010000
0
INSERT
8
0
2
EPAD
10
0.498000
20
0.022000
41
0.030000
42
0.030000
0
CIRCLE
8
0
10
0.498000
20
0.022000
40
0.010000
0
INSERT
8
0
2
EPAD
10
0.371000
20
-0.098000
41
0.030000
42
0.030000
0
CIRCLE
8
0
10
0.371000
20
-0.098000
40
0.010000
0
INSERT
8
0
2
EPAD
10
0.198000
20
-0.383000
41
0.030000
42
0.030000
0
CIRCLE
8
0
10
0.198000
20
-0.383000
40
0.010000
0
INSERT
8
0
2
EPAD
10
0.356000
20
-0.398000
41
0.030000
42
0.030000
0
CIRCLE
8
0
10
0.356000
20
-0.398000
40
0.010000
0
INSERT
8
0
2
EPAD
10
0.368000
20
-0.308000
41
0.030000
42
0.030000
0
CIRCLE
8
0
10
0.368000
20
-0.308000
40
0.010000
0
INSERT
8
0
2
EPAD
10
0.443000
20
-0.463000
41
0.030000
42
0.030000
0
CIRCLE
8
0
10
0.443000
20
-0.463000
40
0.010000
0
INSERT
8
0
2
EPAD
10
0.523000
20
-0.178000
41
0.030000
42
0.030000
0
CIRCLE
8
0
10
0.523000
20
-0.178000
40
0.010000
0
INSERT
8
0
2
EPAD
10
0.118000
20
0.272000
41
0.030000
42
0.030000
0
CIRCLE
8
0
10
0.118000
20
0.272000
40
0.010000
0
INSERT
8
0
2
EPAD
10
0.273000
20
-0.838000
41
0.030000
42
0.030000
0
CIRCLE
8
0
10
0.273000
20
-0.838000
40
0.010000
0
INSERT
8
0
2
EPAD
10
-0.142000
20
-0.618000
41
0.030000
42
0.030000
0
CIRCLE
8
0
10
-0.142000
20
-0.618000
40
0.010000
0
INSERT
8
0
2
EPAD
10
0.678000
20
-0.833000
41
0.030000
42
0.030000
0
CIRCLE
8
0
10
0.678000
20
-0.833000
40
0.010000
0
INSERT
8
0
2
EPAD
10
0.468000
20
0.607000
41
0.030000
42
0.030000
0
CIRCLE
8
0
10
0.468000
20
0.607000
40
0.010000
0
INSERT
8
0
2
EPAD
10
0.703000
20
-0.098000
41
0.030000
42
0.030000
0
CIRCLE
8
0
10
0.703000
20
-0.098000
40
0.010000
0
INSERT
8
0
2
EPAD
10
0.659000
20
0.267000
41
0.030000
42
0.030000
0
CIRCLE
8
0
10
0.659000
20
0.267000
40
0.010000
0
INSERT
8
0
2
EPAD
10
0.798000
20
0.052000
41
0.030000
42
0.030000
0
CIRCLE
8
0
10
0.798000
20
0.052000
40
0.010000
0
INSERT
8
0
2
EPAD
10
1.003000
20
0.067000
41
0.030000
42
0.030000
0
CIRCLE
8
0
10
1.003000
20
0.067000
40
0.010000
0
INSERT
8
0
2
EPAD
10
0.608000
20
0.667000
41
0.030000
42
0.030000
0
CIRCLE
8
0
10
0.608000
20
0.667000
40
0.010000
0
INSERT
8
0
2
EPAD
10
0.659000
20
0.337000
41
0.030000
42
0.030000
0
CIRCLE
8
0
10
0.659000
20
0.337000
40
0.010000
0
INSERT
8
0
2
EPAD
10
0.659000
20
0.622000
41
0.030000
42
0.030000
0
CIRCLE
8
0
10
0.659000
20
0.622000
40
0.010000
0
INSERT
8
0
2
EPAD
10
0.253000
20
0.872000
41
0.150000
42
0.150000
0
CIRCLE
8
0
10
0.253000
20
0.872000
40
0.090000
0
INSERT
8
0
2
EPAD
10
0.688000
20
0.122000
41
0.150000
42
0.150000
0
CIRCLE
8
0
10
0.688000
20
0.122000
40
0.090000
0
INSERT
8
0
2
EPAD
10
-0.182000
20
0.122000
41
0.150000
42
0.150000
0
CIRCLE
8
0
10
-0.182000
20
0.122000
40
0.090000
0
INSERT
8
0
2
EPAD
10
-0.347000
20
-1.128000
41
0.250000
42
0.250000
0
CIRCLE
8
0
10
-0.347000
20
-1.128000
40
0.120000
0
INSERT
8
0
2
EPAD
10
0.853000
20
-1.128000
41
0.250000
42
0.250000
0
CIRCLE
8
0
10
0.853000
20
-1.128000
40
0.120000
0
INSERT
8
0
2
EPAD
10
-0.347000
20
0.972000
41
0.250000
42
0.250000
0
CIRCLE
8
0
10
-0.347000
20
0.972000
40
0.120000
0
INSERT
8
0
2
EPAD
10
0.853000
20
0.972000
41
0.250000
42
0.250000
0
CIRCLE
8
0
10
0.853000
20
0.972000
40
0.120000
0
INSERT
8
0
2
RPAD
10
0.778000
20
-0.928000
41
0.060000
42
0.060000
50
90.000000
0
CIRCLE
8
0
10
0.778000
20
-0.928000
40
0.030000
0
INSERT
8
0
2
RPAD
10
0.778000
20
-0.828000
41
0.060000
42
0.060000
50
90.000000
0
CIRCLE
8
0
10
0.778000
20
-0.828000
40
0.030000
0
INSERT
8
0
2
RPAD
10
0.778000
20
-0.728000
41
0.060000
42
0.060000
50
90.000000
0
CIRCLE
8
0
10
0.778000
20
-0.728000
40
0.030000
0
INSERT
8
0
2
RPAD
10
0.778000
20
-0.628000
41
0.060000
42
0.060000
50
90.000000
0
CIRCLE
8
0
10
0.778000
20
-0.628000
40
0.030000
0
INSERT
8
0
2
RPAD
10
0.778000
20
-0.528000
41
0.060000
42
0.060000
50
90.000000
0
CIRCLE
8
0
10
0.778000
20
-0.528000
40
0.030000
0
INSERT
8
0
2
RPAD
10
0.778000
20
-0.428000
41
0.060000
42
0.060000
50
90.000000
0
CIRCLE
8
0
10
0.778000
20
-0.428000
40
0.030000
0
INSERT
8
0
2
RPAD
10
-0.447000
20
0.222000
41
0.060000
42
0.060000
50
270.000000
0
CIRCLE
8
0
10
-0.447000
20
0.222000
40
0.030000
0
INSERT
8
0
2
RPAD
10
-0.447000
20
0.022000
41
0.060000
42
0.060000
50
270.000000
0
CIRCLE
8
0
10
-0.447000
20
0.022000
40
0.030000
0
INSERT
8
0
2
RPAD
10
-0.347000
20
0.022000
41
0.060000
42
0.060000
50
270.000000
0
CIRCLE
8
0
10
-0.347000
20
0.022000
40
0.030000
0
INSERT
8
0
2
RPAD
10
-0.347000
20
0.122000
41
0.060000
42
0.060000
50
270.000000
0
CIRCLE
8
0
10
-0.347000
20
0.122000
40
0.030000
0
INSERT
8
0
2
RPAD
10
-0.347000
20
0.222000
41
0.060000
42
0.060000
50
270.000000
0
CIRCLE
8
0
10
-0.347000
20
0.222000
40
0.030000
0
INSERT
8
0
2
RPAD
10
-0.447000
20
0.122000
41
0.060000
42
0.060000
50
270.000000
0
CIRCLE
8
0
10
-0.447000
20
0.122000
40
0.030000
0
INSERT
8
0
2
RPAD
10
0.478000
20
-1.178000
41
0.060000
42
0.060000
50
0.000000
0
CIRCLE
8
0
10
0.478000
20
-1.178000
40
0.020000
0
INSERT
8
0
2
RPAD
10
0.478000
20
-1.078000
41
0.060000
42
0.060000
50
0.000000
0
CIRCLE
8
0
10
0.478000
20
-1.078000
40
0.020000
0
INSERT
8
0
2
RPAD
10
0.478000
20
-0.978000
41
0.060000
42
0.060000
50
0.000000
0
CIRCLE
8
0
10
0.478000
20
-0.978000
40
0.020000
0
POLYLINE
8
0
66
1
40
0.008000
41
0.008000
0
VERTEX
8
0
10
-0.547000
20
-1.328000
0
VERTEX
8
0
10
1.053000
20
-1.328000
0
VERTEX
8
0
10
1.053000
20
1.172000
0
VERTEX
8
0
10
-0.547000
20
1.172000
0
VERTEX
8
0
10
-0.547000
20
-1.328000
0
SEQEND
8
0
0
TEXT
8
12632256
10
0.003000
20
1.278000
40
0.048000
41
1.041667
1
1.60" (40.6mm)
0
TEXT
8
12632256
10
-1.003000
20
-0.328000
40
0.048000
41
1.041667
50
90.000000
1
2.50" (63.5mm)
0
POLYLINE
8
0
66
1
40
0.008000
41
0.008000
0
VERTEX
8
0
10
-0.897000
20
1.172000
0
VERTEX
8
0
10
-0.947000
20
1.122000
0
SEQEND
8
0
0
POLYLINE
8
0
66
1
40
0.008000
41
0.008000
0
VERTEX
8
0
10
-0.897000
20
1.172000
0
VERTEX
8
0
10
-0.847000
20
1.122000
0
SEQEND
8
0
0
POLYLINE
8
0
66
1
40
0.008000
41
0.008000
0
VERTEX
8
0
10
-0.897000
20
1.172000
0
VERTEX
8
0
10
-0.897000
20
-1.328000
0
VERTEX
8
0
10
-0.847000
20
-1.278000
0
SEQEND
8
0
0
POLYLINE
8
0
66
1
40
0.008000
41
0.008000
0
VERTEX
8
0
10
-0.897000
20
-1.328000
0
VERTEX
8
0
10
-0.947000
20
-1.278000
0
SEQEND
8
0
0
POLYLINE
8
0
66
1
40
0.008000
41
0.008000
0
VERTEX
8
0
10
-0.497000
20
1.297000
0
VERTEX
8
0
10
-0.547000
20
1.247000
0
VERTEX
8
0
10
-0.497000
20
1.197000
0
SEQEND
8
0
0
POLYLINE
8
0
66
1
40
0.008000
41
0.008000
0
VERTEX
8
0
10
-0.547000
20
1.247000
0
VERTEX
8
0
10
1.053000
20
1.247000
0
SEQEND
8
0
0
POLYLINE
8
0
66
1
40
0.008000
41
0.008000
0
VERTEX
8
0
10
1.003000
20
1.297000
0
VERTEX
8
0
10
1.053000
20
1.247000
0
VERTEX
8
0
10
1.003000
20
1.197000
0
SEQEND
8
0
0
ENDSEC
0
EOF

