  0
SECTION
  2
HEADER
  9
$ACADVER
  1
AC2.10
  0
ENDSEC
  0
SECTION
  2
TABLES
  0
TABLE
  2
LAYER
 70
     8
  0
LAYER
  2
0
 62
     7
 70
0
  6
CONTINUOUS
  0
LAYER
  2
1
 62
     1
 70
0
  6
CONTINUOUS
  0
LAYER
  2
2
 62
     2
 70
0
  6
CONTINUOUS
  0
LAYER
  2
3
 62
     3
 70
0
  6
CONTINUOUS
  0
LAYER
  2
4
 62
     4
 70
0
  6
CONTINUOUS
  0
LAYER
  2
5
 62
     5
 70
0
  6
CONTINUOUS
  0
LAYER
  2
6
 62
     6
 70
0
  6
CONTINUOUS
  0
LAYER
  2
7
 62
     7
 70
0
  6
CONTINUOUS
  0
ENDTAB
  0
TABLE
  2
STYLE
 70
     1
  0
STYLE
 70
     0
  2
STANDARD
  3
TXT
 40
0.00
 41
1.00
 42
1.00
 50
0.00
 71
     0
  0
ENDTAB
  0
ENDSEC
  0
SECTION
  2
BLOCKS
  0
BLOCK
  8
0
  2
EPAD
 70
0
 10
0.0
 20
0.0
  0
POLYLINE
  8
0
 66
1
 70
1
 40
0.5
 41
0.5
  0
VERTEX
  8
0
 10
-0.25
 20
0.0
 42
1.0
  0
VERTEX
  8
0
 10
0.25
 20
0.0
 42
1.0
  0
SEQEND
  8
0
  0
ENDBLK
  8
0
  0
BLOCK
  8
0
  2
RPAD
 70
0
 10
0.0
 20
0.0
  0
TRACE
  8
0
 10
-0.5
 20
-0.5
 11
-0.5
 21
0.5
 12
0.5
 22
-0.5
 13
0.5
 23
0.5
  0
ENDBLK
  8
0
  0
ENDSEC
0
SECTION
2
ENTITIES
0
POLYLINE
8
0
66
1
40
0.008000
41
0.008000
0
VERTEX
8
0
10
-1.222000
20
-1.030000
0
VERTEX
8
0
10
0.377000
20
-1.030000
0
VERTEX
8
0
10
0.377000
20
1.370000
0
VERTEX
8
0
10
-1.222000
20
1.370000
0
VERTEX
8
0
10
-1.222000
20
-1.030000
0
SEQEND
8
0
0
TEXT
8
12632256
10
-0.672000
20
1.476000
40
0.048000
41
1.041667
1
1.60" (40.6mm)
0
TEXT
8
12632256
10
-1.678000
20
-0.030000
40
0.048000
41
1.041667
50
90.000000
1
2.40" (61.0mm)
0
POLYLINE
8
0
66
1
40
0.008000
41
0.008000
0
VERTEX
8
0
10
-1.572000
20
1.370000
0
VERTEX
8
0
10
-1.622000
20
1.320000
0
SEQEND
8
0
0
POLYLINE
8
0
66
1
40
0.008000
41
0.008000
0
VERTEX
8
0
10
-1.572000
20
1.370000
0
VERTEX
8
0
10
-1.522000
20
1.320000
0
SEQEND
8
0
0
POLYLINE
8
0
66
1
40
0.008000
41
0.008000
0
VERTEX
8
0
10
-1.572000
20
1.370000
0
VERTEX
8
0
10
-1.572000
20
-1.030000
0
VERTEX
8
0
10
-1.522000
20
-0.980000
0
SEQEND
8
0
0
POLYLINE
8
0
66
1
40
0.008000
41
0.008000
0
VERTEX
8
0
10
-1.572000
20
-1.030000
0
VERTEX
8
0
10
-1.622000
20
-0.980000
0
SEQEND
8
0
0
POLYLINE
8
0
66
1
40
0.008000
41
0.008000
0
VERTEX
8
0
10
-1.172000
20
1.495000
0
VERTEX
8
0
10
-1.222000
20
1.445000
0
VERTEX
8
0
10
-1.172000
20
1.395000
0
SEQEND
8
0
0
POLYLINE
8
0
66
1
40
0.008000
41
0.008000
0
VERTEX
8
0
10
-1.222000
20
1.445000
0
VERTEX
8
0
10
0.377000
20
1.445000
0
SEQEND
8
0
0
POLYLINE
8
0
66
1
40
0.008000
41
0.008000
0
VERTEX
8
0
10
0.327000
20
1.495000
0
VERTEX
8
0
10
0.377000
20
1.445000
0
VERTEX
8
0
10
0.327000
20
1.395000
0
SEQEND
8
0
0
POLYLINE
8
0
66
1
40
0.008000
41
0.008000
0
VERTEX
8
0
10
-1.022000
20
-0.830000
0
VERTEX
8
0
10
-0.972000
20
-1.180000
0
SEQEND
8
0
0
POLYLINE
8
0
66
1
40
0.008000
41
0.008000
0
VERTEX
8
0
10
0.177000
20
-0.830000
0
VERTEX
8
0
10
0.327000
20
-1.130000
0
SEQEND
8
0
0
POLYLINE
8
0
66
1
40
0.008000
41
0.008000
0
VERTEX
8
0
10
0.177000
20
1.170000
0
VERTEX
8
0
10
0.702000
20
1.220000
0
SEQEND
8
0
0
POLYLINE
8
0
66
1
40
0.008000
41
0.008000
0
VERTEX
8
0
10
-1.022000
20
1.170000
0
VERTEX
8
0
10
-0.622000
20
1.720000
0
SEQEND
8
0
0
POLYLINE
8
0
66
1
40
0.008000
41
0.008000
0
VERTEX
8
0
10
-0.422000
20
1.170000
0
VERTEX
8
0
10
0.602000
20
0.970000
0
SEQEND
8
0
0
POLYLINE
8
0
66
1
40
0.008000
41
0.008000
0
VERTEX
8
0
10
-0.422000
20
0.670000
0
VERTEX
8
0
10
0.627000
20
0.595000
0
SEQEND
8
0
0
POLYLINE
8
0
66
1
40
0.008000
41
0.008000
0
VERTEX
8
0
10
-0.857000
20
0.420000
0
VERTEX
8
0
10
0.677000
20
-0.130000
0
SEQEND
8
0
0
POLYLINE
8
0
66
1
40
0.008000
41
0.008000
0
VERTEX
8
0
10
0.012000
20
0.420000
0
VERTEX
8
0
10
0.677000
20
0.170000
0
SEQEND
8
0
0
POLYLINE
8
0
66
1
40
0.008000
41
0.008000
0
VERTEX
8
0
10
0.377000
20
1.370000
0
VERTEX
8
0
10
0.802000
20
1.545000
0
SEQEND
8
0
0
POLYLINE
8
0
66
1
40
0.008000
41
0.008000
0
VERTEX
8
0
10
-1.222000
20
-1.030000
0
VERTEX
8
0
10
-1.372000
20
-1.155000
0
SEQEND
8
0
0
TEXT
8
12632256
10
-1.472000
20
-1.224000
40
0.048000
41
1.041667
1
0,0
0
TEXT
8
12632256
10
-1.022000
20
-1.224000
40
0.048000
41
1.041667
1
200,200 (5.1,5.1)
0
TEXT
8
12632256
10
0.327000
20
-1.174000
40
0.048000
41
1.041667
1
1400,200 (35.6,5.1)
0
TEXT
8
12632256
10
0.527000
20
-0.174000
40
0.048000
41
1.041667
1
365,1450 (9.3,36.8)
0
TEXT
8
12632256
10
0.477000
20
0.126000
40
0.048000
41
1.041667
1
1235,1450 (31.4,36.8)
0
TEXT
8
12632256
10
0.677000
20
0.576000
40
0.048000
41
1.041667
1
centre of sensor
0
TEXT
8
12632256
10
0.477000
20
0.526000
40
0.048000
41
1.041667
1
800,1700 (20.3,43.2)
0
TEXT
8
12632256
10
0.477000
20
0.926000
40
0.048000
41
1.041667
1
800,2200 (20.3,55.9)
0
TEXT
8
12632256
10
0.527000
20
1.176000
40
0.048000
41
1.041667
1
1400,2200 (35.6,55.9)
0
TEXT
8
12632256
10
0.477000
20
1.576000
40
0.048000
41
1.041667
1
1600,2400 (40.6,61.0)
0
TEXT
8
12632256
10
-0.622000
20
1.726000
40
0.048000
41
1.041667
1
200,2200 (5.1,55.9)
0
TEXT
8
12632256
10
-1.372000
20
-1.524000
40
0.048000
41
1.041667
1
4 mounting holes are 130th (for M3)
0
TEXT
8
12632256
10
-1.372000
20
-1.624000
40
0.048000
41
1.041667
1
3 holes around sensor are 100th (for M2.5)
0
TEXT
8
12632256
10
-1.372000
20
-1.824000
40
0.048000
41
1.041667
1
2 holes (M1.5) for a plastic lens holder option
0
TEXT
8
12632256
10
-1.372000
20
-2.024000
40
0.048000
41
1.041667
1
Sensor is 93th (2.35mm) in height
0
TEXT
8
12632256
10
-1.272000
20
-1.724000
40
0.048000
41
1.041667
1
They are spaced 120 degrees around sensor
0
TEXT
8
12632256
10
-1.372000
20
-1.324000
40
0.048000
41
1.041667
1
Dimensions:  X,Y co-ordinates in thou of inches (mm)
0
CIRCLE
8
12632256
10
-1.022000
20
1.170000
40
0.075000
0
CIRCLE
8
12632256
10
0.177000
20
1.170000
40
0.075000
0
CIRCLE
8
12632256
10
0.177000
20
-0.830000
40
0.075000
0
CIRCLE
8
12632256
10
-1.022000
20
-0.830000
40
0.075000
0
CIRCLE
8
12632256
10
-0.422000
20
1.170000
40
0.050000
0
CIRCLE
8
12632256
10
-0.857000
20
0.420000
40
0.050000
0
CIRCLE
8
12632256
10
0.012000
20
0.420000
40
0.050000
0
POLYLINE
8
0
66
1
40
0.008000
41
0.008000
0
VERTEX
8
0
10
-0.647000
20
0.445000
0
VERTEX
8
0
10
-0.197000
20
0.445000
0
VERTEX
8
0
10
-0.197000
20
0.895000
0
VERTEX
8
0
10
-0.647000
20
0.895000
0
VERTEX
8
0
10
-0.647000
20
0.445000
0
SEQEND
8
0
0
TEXT
8
12632256
10
-1.372000
20
-1.924000
40
0.048000
41
1.041667
1
No through-hole parts are fitted - thru holes ate test points only
0
CIRCLE
8
12632256
10
-0.732000
20
0.470000
40
0.035000
0
CIRCLE
8
12632256
10
-0.112000
20
0.870000
40
0.035000
0
POLYLINE
8
0
66
1
40
0.008000
41
0.008000
0
VERTEX
8
0
10
-0.112000
20
0.870000
0
VERTEX
8
0
10
0.597000
20
0.795000
0
SEQEND
8
0
0
POLYLINE
8
0
66
1
40
0.008000
41
0.008000
0
VERTEX
8
0
10
-0.732000
20
0.470000
0
VERTEX
8
0
10
0.627000
20
0.045000
0
SEQEND
8
0
0
TEXT
8
12632256
10
0.502000
20
0.721000
40
0.048000
41
1.041667
1
1110,1900 (28.2,48.3)
0
TEXT
8
12632256
10
0.577000
20
-0.024000
40
0.048000
41
1.041667
1
490,1500 (12.4,38.1)
0
TEXT
8
12632256
10
-1.372000
20
-1.424000
40
0.048000
41
1.041667
1
Diagram is from back of camera - sensor is mounted on underside
0
TEXT
8
12632256
10
-1.422000
20
1.976000
40
0.048000
41
1.041667
1
KiwiSAT Camera V2.0    16 May 2008
0
TEXT
8
12632256
10
-1.322000
20
1.876000
40
0.048000
41
1.041667
1
Clayton Gumbrell
0
TEXT
8
12632256
10
0.833000
20
-0.280000
40
0.048000
41
1.041667
50
270.000000
1
TOP OF CAMERA
0
TEXT
8
12632256
10
0.733000
20
-0.280000
40
0.048000
41
1.041667
50
270.000000
1
for right way
0
TEXT
8
12632256
10
0.633000
20
-0.330000
40
0.048000
41
1.041667
50
270.000000
1
up images
0
ENDSEC
0
EOF

