  0
SECTION
  2
HEADER
  9
$ACADVER
  1
AC2.10
  0
ENDSEC
  0
SECTION
  2
TABLES
  0
TABLE
  2
LAYER
 70
     8
  0
LAYER
  2
0
 62
     7
 70
0
  6
CONTINUOUS
  0
LAYER
  2
1
 62
     1
 70
0
  6
CONTINUOUS
  0
LAYER
  2
2
 62
     2
 70
0
  6
CONTINUOUS
  0
LAYER
  2
3
 62
     3
 70
0
  6
CONTINUOUS
  0
LAYER
  2
4
 62
     4
 70
0
  6
CONTINUOUS
  0
LAYER
  2
5
 62
     5
 70
0
  6
CONTINUOUS
  0
LAYER
  2
6
 62
     6
 70
0
  6
CONTINUOUS
  0
LAYER
  2
7
 62
     7
 70
0
  6
CONTINUOUS
  0
ENDTAB
  0
TABLE
  2
STYLE
 70
     1
  0
STYLE
 70
     0
  2
STANDARD
  3
TXT
 40
0.00
 41
1.00
 42
1.00
 50
0.00
 71
     0
  0
ENDTAB
  0
ENDSEC
  0
SECTION
  2
BLOCKS
  0
BLOCK
  8
0
  2
EPAD
 70
0
 10
0.0
 20
0.0
  0
POLYLINE
  8
0
 66
1
 70
1
 40
0.5
 41
0.5
  0
VERTEX
  8
0
 10
-0.25
 20
0.0
 42
1.0
  0
VERTEX
  8
0
 10
0.25
 20
0.0
 42
1.0
  0
SEQEND
  8
0
  0
ENDBLK
  8
0
  0
BLOCK
  8
0
  2
RPAD
 70
0
 10
0.0
 20
0.0
  0
TRACE
  8
0
 10
-0.5
 20
-0.5
 11
-0.5
 21
0.5
 12
0.5
 22
-0.5
 13
0.5
 23
0.5
  0
ENDBLK
  8
0
  0
ENDSEC
0
SECTION
2
ENTITIES
0
POLYLINE
8
0
66
1
40
0.008000
41
0.008000
0
VERTEX
8
0
10
-1.145000
20
-1.105000
0
VERTEX
8
0
10
0.455000
20
-1.105000
0
VERTEX
8
0
10
0.455000
20
1.395000
0
VERTEX
8
0
10
-1.145000
20
1.395000
0
VERTEX
8
0
10
-1.145000
20
-1.105000
0
SEQEND
8
0
0
TEXT
8
12632256
10
-0.595000
20
1.501000
40
0.048000
41
1.041667
1
1.60" (40.6mm)
0
TEXT
8
12632256
10
-1.601000
20
-0.105000
40
0.048000
41
1.041667
50
90.000000
1
2.50" (63.5mm)
0
POLYLINE
8
0
66
1
40
0.008000
41
0.008000
0
VERTEX
8
0
10
-1.495000
20
1.395000
0
VERTEX
8
0
10
-1.545000
20
1.345000
0
SEQEND
8
0
0
POLYLINE
8
0
66
1
40
0.008000
41
0.008000
0
VERTEX
8
0
10
-1.495000
20
1.395000
0
VERTEX
8
0
10
-1.445000
20
1.345000
0
SEQEND
8
0
0
POLYLINE
8
0
66
1
40
0.008000
41
0.008000
0
VERTEX
8
0
10
-1.495000
20
1.395000
0
VERTEX
8
0
10
-1.495000
20
-1.105000
0
VERTEX
8
0
10
-1.445000
20
-1.055000
0
SEQEND
8
0
0
POLYLINE
8
0
66
1
40
0.008000
41
0.008000
0
VERTEX
8
0
10
-1.495000
20
-1.105000
0
VERTEX
8
0
10
-1.545000
20
-1.055000
0
SEQEND
8
0
0
POLYLINE
8
0
66
1
40
0.008000
41
0.008000
0
VERTEX
8
0
10
-1.095000
20
1.520000
0
VERTEX
8
0
10
-1.145000
20
1.470000
0
VERTEX
8
0
10
-1.095000
20
1.420000
0
SEQEND
8
0
0
POLYLINE
8
0
66
1
40
0.008000
41
0.008000
0
VERTEX
8
0
10
-1.145000
20
1.470000
0
VERTEX
8
0
10
0.455000
20
1.470000
0
SEQEND
8
0
0
POLYLINE
8
0
66
1
40
0.008000
41
0.008000
0
VERTEX
8
0
10
0.405000
20
1.520000
0
VERTEX
8
0
10
0.455000
20
1.470000
0
VERTEX
8
0
10
0.405000
20
1.420000
0
SEQEND
8
0
0
POLYLINE
8
0
66
1
40
0.008000
41
0.008000
0
VERTEX
8
0
10
-0.945000
20
-0.905000
0
VERTEX
8
0
10
-0.895000
20
-1.255000
0
SEQEND
8
0
0
POLYLINE
8
0
66
1
40
0.008000
41
0.008000
0
VERTEX
8
0
10
0.255000
20
-0.905000
0
VERTEX
8
0
10
0.405000
20
-1.205000
0
SEQEND
8
0
0
POLYLINE
8
0
66
1
40
0.008000
41
0.008000
0
VERTEX
8
0
10
0.255000
20
1.195000
0
VERTEX
8
0
10
0.780000
20
1.145000
0
SEQEND
8
0
0
POLYLINE
8
0
66
1
40
0.008000
41
0.008000
0
VERTEX
8
0
10
-0.945000
20
1.195000
0
VERTEX
8
0
10
-0.570000
20
1.795000
0
SEQEND
8
0
0
POLYLINE
8
0
66
1
40
0.008000
41
0.008000
0
VERTEX
8
0
10
-0.345000
20
1.095000
0
VERTEX
8
0
10
0.680000
20
0.895000
0
SEQEND
8
0
0
POLYLINE
8
0
66
1
40
0.008000
41
0.008000
0
VERTEX
8
0
10
-0.345000
20
0.595000
0
VERTEX
8
0
10
0.705000
20
0.520000
0
SEQEND
8
0
0
POLYLINE
8
0
66
1
40
0.008000
41
0.008000
0
VERTEX
8
0
10
-0.780000
20
0.345000
0
VERTEX
8
0
10
0.755000
20
-0.205000
0
SEQEND
8
0
0
POLYLINE
8
0
66
1
40
0.008000
41
0.008000
0
VERTEX
8
0
10
0.090000
20
0.345000
0
VERTEX
8
0
10
0.755000
20
0.095000
0
SEQEND
8
0
0
POLYLINE
8
0
66
1
40
0.008000
41
0.008000
0
VERTEX
8
0
10
0.455000
20
1.395000
0
VERTEX
8
0
10
0.880000
20
1.470000
0
SEQEND
8
0
0
POLYLINE
8
0
66
1
40
0.008000
41
0.008000
0
VERTEX
8
0
10
-1.145000
20
-1.105000
0
VERTEX
8
0
10
-1.295000
20
-1.230000
0
SEQEND
8
0
0
TEXT
8
12632256
10
-1.395000
20
-1.299000
40
0.048000
41
1.041667
1
0,0
0
TEXT
8
12632256
10
-0.945000
20
-1.299000
40
0.048000
41
1.041667
1
200,200 (5.1,5.1)
0
TEXT
8
12632256
10
0.405000
20
-1.249000
40
0.048000
41
1.041667
1
1400,200 (35.6,5.1)
0
TEXT
8
12632256
10
0.605000
20
-0.249000
40
0.048000
41
1.041667
1
365,1450 (9.3,36.8)
0
TEXT
8
12632256
10
0.555000
20
0.051000
40
0.048000
41
1.041667
1
1235,1450 (31.4,36.8)
0
TEXT
8
12632256
10
0.755000
20
0.501000
40
0.048000
41
1.041667
1
centre of sensor
0
TEXT
8
12632256
10
0.555000
20
0.451000
40
0.048000
41
1.041667
1
800,1700 (20.3,43.2)
0
TEXT
8
12632256
10
0.555000
20
0.851000
40
0.048000
41
1.041667
1
800,2200 (20.3,55.9)
0
TEXT
8
12632256
10
0.605000
20
1.101000
40
0.048000
41
1.041667
1
1400,2300 (35.6,58.4)
0
TEXT
8
12632256
10
0.555000
20
1.501000
40
0.048000
41
1.041667
1
1600,2500 (40.6,63.5)
0
TEXT
8
12632256
10
-0.495000
20
1.851000
40
0.048000
41
1.041667
1
200,2300 (5.1,58.4)
0
TEXT
8
12632256
10
-1.295000
20
-1.499000
40
0.048000
41
1.041667
1
4 mounting holes are 130th (for M3)
0
TEXT
8
12632256
10
-1.295000
20
-1.599000
40
0.048000
41
1.041667
1
3 holes around sensor are 100th (for M2.5)
0
TEXT
8
12632256
10
-1.295000
20
-1.799000
40
0.048000
41
1.041667
1
No through-hole parts are fitted
0
TEXT
8
12632256
10
-1.295000
20
-1.899000
40
0.048000
41
1.041667
1
Sensor is 93th (2.35mm) in height
0
TEXT
8
12632256
10
-1.295000
20
-1.699000
40
0.048000
41
1.041667
1
They are spaced 120 degrees around sensor
0
TEXT
8
12632256
10
-1.295000
20
-1.399000
40
0.048000
41
1.041667
1
Dimensions:  X,Y co-ordinates in thou of inches (mm)
0
CIRCLE
8
12632256
10
-0.945000
20
1.195000
40
0.075000
0
CIRCLE
8
12632256
10
0.255000
20
1.195000
40
0.075000
0
CIRCLE
8
12632256
10
0.255000
20
-0.905000
40
0.075000
0
CIRCLE
8
12632256
10
-0.945000
20
-0.905000
40
0.075000
0
CIRCLE
8
12632256
10
-0.345000
20
1.095000
40
0.050000
0
CIRCLE
8
12632256
10
-0.780000
20
0.345000
40
0.050000
0
CIRCLE
8
12632256
10
0.090000
20
0.345000
40
0.050000
0
POLYLINE
8
0
66
1
40
0.008000
41
0.008000
0
VERTEX
8
0
10
-0.570000
20
0.370000
0
VERTEX
8
0
10
-0.120000
20
0.370000
0
VERTEX
8
0
10
-0.120000
20
0.820000
0
VERTEX
8
0
10
-0.570000
20
0.820000
0
VERTEX
8
0
10
-0.570000
20
0.370000
0
SEQEND
8
0
0
ENDSEC
0
EOF

