%FSLAX24Y24*%
%MOIN*%
G70*
G01*
G75*
%ADD10C,0.0039*%
%ADD11C,0.1102*%
%ADD12C,0.1063*%
%ADD13C,0.0394*%
%ADD14R,0.0940X0.0590*%
%ADD15O,0.0256X0.0866*%
%ADD16R,0.0256X0.0866*%
%ADD17R,0.0827X0.0394*%
%ADD18R,0.0394X0.0827*%
%ADD19R,0.1083X0.0850*%
%ADD20R,0.0709X0.1102*%
%ADD21R,0.0709X0.0354*%
%ADD22R,0.0500X0.0600*%
%ADD23R,0.0709X0.0394*%
%ADD24R,0.1102X0.0472*%
%ADD25O,0.0787X0.0394*%
%ADD26R,0.0787X0.0394*%
%ADD27O,0.0800X0.0240*%
%ADD28R,0.0800X0.1000*%
%ADD29R,0.0551X0.0394*%
%ADD30R,0.1181X0.0906*%
%ADD31R,0.0394X0.0984*%
%ADD32O,0.0787X0.1299*%
%ADD33R,0.0315X0.0551*%
%ADD34R,0.0600X0.0500*%
%ADD35O,0.1299X0.0787*%
%ADD36R,0.0551X0.0315*%
%ADD37O,0.0787X0.1299*%
%ADD38R,0.0315X0.0551*%
%ADD39R,0.1000X0.0800*%
%ADD40R,0.0394X0.0709*%
%ADD41R,0.0984X0.0394*%
%ADD42R,0.0906X0.1181*%
%ADD43O,0.0240X0.0800*%
%ADD44C,0.0512*%
%ADD45C,0.0276*%
%ADD46C,0.0236*%
%ADD47C,0.0098*%
%ADD48C,0.0315*%
%ADD49C,0.0394*%
%ADD50C,0.0433*%
%ADD51C,0.0138*%
%ADD52C,0.0098*%
%ADD53C,0.0118*%
%ADD54C,0.0472*%
%ADD55C,0.0071*%
%ADD56C,0.0100*%
%ADD57R,0.0315X0.0827*%
%ADD58R,0.1378X0.0748*%
%ADD59R,0.1654X0.0984*%
%ADD60R,0.0827X0.0315*%
%ADD61R,0.0315X0.0827*%
%ADD62R,0.2087X0.1220*%
%ADD63R,0.1575X0.1220*%
%ADD64R,0.1575X0.1220*%
%ADD65R,0.1339X0.1496*%
%ADD66R,0.0500X0.0800*%
%ADD67R,0.1500X0.1000*%
%ADD68C,0.0500*%
%ADD69C,0.0600*%
%ADD70C,0.0750*%
%ADD71C,0.0400*%
%ADD72R,0.0400X0.0400*%
%ADD73C,0.1024*%
%ADD74R,0.0800X0.0800*%
%ADD75C,0.0800*%
%ADD76C,0.2750*%
%ADD77P,0.0500X8X0*%
%ADD78C,0.2362*%
%ADD79C,0.2362*%
%ADD80C,0.0551*%
%ADD81C,0.0512*%
%ADD82C,0.0157*%
%ADD83C,0.0787*%
%ADD84C,0.0197*%
%ADD85C,0.0079*%
%ADD86C,0.0080*%
%ADD87C,0.0060*%
%ADD88C,0.0120*%
%ADD89R,0.1019X0.0669*%
%ADD90O,0.0335X0.0945*%
%ADD91R,0.0335X0.0945*%
%ADD92R,0.0906X0.0472*%
%ADD93R,0.0472X0.0906*%
%ADD94R,0.1161X0.0929*%
%ADD95R,0.0787X0.1181*%
%ADD96R,0.0787X0.0433*%
%ADD97R,0.0579X0.0679*%
%ADD98R,0.0787X0.0472*%
%ADD99R,0.1181X0.0551*%
%ADD100O,0.0866X0.0472*%
%ADD101R,0.0866X0.0472*%
%ADD102O,0.0879X0.0319*%
%ADD103R,0.0879X0.1079*%
%ADD104R,0.0630X0.0472*%
%ADD105R,0.1260X0.0984*%
%ADD106R,0.0472X0.1063*%
%ADD107O,0.0866X0.1378*%
%ADD108R,0.0394X0.0630*%
%ADD109R,0.0679X0.0579*%
%ADD110O,0.1378X0.0866*%
%ADD111R,0.0630X0.0394*%
%ADD112O,0.0866X0.1378*%
%ADD113R,0.0394X0.0630*%
%ADD114R,0.1079X0.0879*%
%ADD115R,0.0472X0.0787*%
%ADD116R,0.1063X0.0472*%
%ADD117R,0.0984X0.1260*%
%ADD118O,0.0319X0.0879*%
%ADD119R,0.0579X0.0879*%
%ADD120R,0.1579X0.1079*%
%ADD121C,0.0579*%
%ADD122C,0.0679*%
%ADD123C,0.0829*%
%ADD124C,0.0479*%
%ADD125R,0.0479X0.0479*%
%ADD126C,0.0079*%
%ADD127C,0.1102*%
%ADD128R,0.0879X0.0879*%
%ADD129C,0.0879*%
%ADD130C,0.2829*%
%ADD131P,0.0579X8X0*%
%ADD132C,0.2441*%
%ADD133C,0.2441*%
%ADD134C,0.0071*%
%ADD135C,0.0098*%
%ADD136C,0.0059*%
%ADD137C,0.0067*%
%ADD138C,0.0040*%
D10*
X11964Y22949D02*
Y23349D01*
X12364D01*
Y22949D01*
X11964D01*
X11224D02*
Y23349D01*
X11624D01*
Y22949D01*
X11224D01*
X12704D02*
Y23349D01*
X13104D01*
Y22949D01*
X12704D01*
X11964Y26249D02*
Y26649D01*
X12364D01*
Y26249D01*
X11964D01*
X15507Y26288D02*
Y26688D01*
X15907D01*
Y26288D01*
X15507D01*
X16247Y22988D02*
Y23388D01*
X16647D01*
Y22988D01*
X16247D01*
X14767D02*
Y23388D01*
X15167D01*
Y22988D01*
X14767D01*
X15507D02*
Y23388D01*
X15907D01*
Y22988D01*
X15507D01*
X28028Y14265D02*
Y14665D01*
X28428D01*
Y14265D01*
X28028D01*
X29028D02*
Y14665D01*
X29428D01*
Y14265D01*
X29028D01*
Y13265D02*
Y13665D01*
X29428D01*
Y13265D01*
X29028D01*
X28028D02*
Y13665D01*
X28428D01*
Y13265D01*
X28028D01*
X30994Y20128D02*
X30794Y20528D01*
X31194D01*
X30994Y20128D01*
Y22928D02*
X30794Y23328D01*
X31194D01*
X30994Y22928D01*
X31669Y20643D02*
Y21043D01*
X32069D01*
Y20643D01*
X31669D01*
Y22413D02*
Y22813D01*
X32069D01*
Y22413D01*
X31669D01*
X29899Y20643D02*
Y21043D01*
X30299D01*
Y20643D01*
X29899D01*
Y22413D02*
Y22813D01*
X30299D01*
Y22413D01*
X29899D01*
Y21528D02*
Y21928D01*
X30299D01*
Y21528D01*
X29899D01*
X4606Y6316D02*
X4706Y6416D01*
X4806D01*
X4706Y6516D01*
X4806Y6616D01*
X4706D01*
X4606Y6716D01*
X4506Y6616D01*
X4406D01*
X4506Y6516D01*
X4406Y6416D01*
X4506D01*
X4606Y6316D01*
X6887Y1887D02*
X6987Y2087D01*
X6887Y2287D01*
X7087Y2187D01*
X7287Y2287D01*
X7187Y2087D01*
X7287Y1887D01*
X7087Y1987D01*
X6887Y1887D01*
X5987Y2987D02*
Y2887D01*
X6187D01*
Y2987D01*
X6287D01*
Y3187D01*
X6187D01*
Y3287D01*
X5987D01*
Y3187D01*
X5887D01*
Y2987D01*
X5987D01*
X7987Y987D02*
Y887D01*
X8187D01*
Y987D01*
X8287D01*
Y1187D01*
X8187D01*
Y1287D01*
X7987D01*
Y1187D01*
X7887D01*
Y987D01*
X7987D01*
Y2987D02*
Y2887D01*
X8187D01*
Y2987D01*
X8287D01*
Y3187D01*
X8187D01*
Y3287D01*
X7987D01*
Y3187D01*
X7887D01*
Y2987D01*
X7987D01*
X5987Y987D02*
Y887D01*
X6187D01*
Y987D01*
X6287D01*
Y1187D01*
X6187D01*
Y1287D01*
X5987D01*
Y1187D01*
X5887D01*
Y987D01*
X5987D01*
X15391Y4091D02*
X15491D01*
X15591Y4191D01*
X15691Y4091D01*
X15791D01*
Y4191D01*
X15691Y4291D01*
X15791Y4391D01*
Y4491D01*
X15691D01*
X15591Y4391D01*
X15491Y4491D01*
X15391D01*
Y4391D01*
X15491Y4291D01*
X15391Y4191D01*
Y4091D01*
X16471D02*
X16571D01*
X16671Y4191D01*
X16771Y4091D01*
X16871D01*
Y4191D01*
X16771Y4291D01*
X16871Y4391D01*
Y4491D01*
X16771D01*
X16671Y4391D01*
X16571Y4491D01*
X16471D01*
Y4391D01*
X16571Y4291D01*
X16471Y4191D01*
Y4091D01*
X17551D02*
X17651D01*
X17751Y4191D01*
X17851Y4091D01*
X17951D01*
Y4191D01*
X17851Y4291D01*
X17951Y4391D01*
Y4491D01*
X17851D01*
X17751Y4391D01*
X17651Y4491D01*
X17551D01*
Y4391D01*
X17651Y4291D01*
X17551Y4191D01*
Y4091D01*
X18631D02*
X18731D01*
X18831Y4191D01*
X18931Y4091D01*
X19031D01*
Y4191D01*
X18931Y4291D01*
X19031Y4391D01*
Y4491D01*
X18931D01*
X18831Y4391D01*
X18731Y4491D01*
X18631D01*
Y4391D01*
X18731Y4291D01*
X18631Y4191D01*
Y4091D01*
X19711D02*
X19811D01*
X19911Y4191D01*
X20011Y4091D01*
X20111D01*
Y4191D01*
X20011Y4291D01*
X20111Y4391D01*
Y4491D01*
X20011D01*
X19911Y4391D01*
X19811Y4491D01*
X19711D01*
Y4391D01*
X19811Y4291D01*
X19711Y4191D01*
Y4091D01*
X15931Y3011D02*
X16031D01*
X16131Y3111D01*
X16231Y3011D01*
X16331D01*
Y3111D01*
X16231Y3211D01*
X16331Y3311D01*
Y3411D01*
X16231D01*
X16131Y3311D01*
X16031Y3411D01*
X15931D01*
Y3311D01*
X16031Y3211D01*
X15931Y3111D01*
Y3011D01*
X17011D02*
X17111D01*
X17211Y3111D01*
X17311Y3011D01*
X17411D01*
Y3111D01*
X17311Y3211D01*
X17411Y3311D01*
Y3411D01*
X17311D01*
X17211Y3311D01*
X17111Y3411D01*
X17011D01*
Y3311D01*
X17111Y3211D01*
X17011Y3111D01*
Y3011D01*
X18091D02*
X18191D01*
X18291Y3111D01*
X18391Y3011D01*
X18491D01*
Y3111D01*
X18391Y3211D01*
X18491Y3311D01*
Y3411D01*
X18391D01*
X18291Y3311D01*
X18191Y3411D01*
X18091D01*
Y3311D01*
X18191Y3211D01*
X18091Y3111D01*
Y3011D01*
X12631Y3751D02*
X12831Y3951D01*
X13031Y3751D01*
X12831Y3551D01*
X12631Y3751D01*
X22471D02*
X22671Y3951D01*
X22871Y3751D01*
X22671Y3551D01*
X22471Y3751D01*
X19171Y3011D02*
X19271D01*
X19371Y3111D01*
X19471Y3011D01*
X19571D01*
Y3111D01*
X19471Y3211D01*
X19571Y3311D01*
Y3411D01*
X19471D01*
X19371Y3311D01*
X19271Y3411D01*
X19171D01*
Y3311D01*
X19271Y3211D01*
X19171Y3111D01*
Y3011D01*
X8855Y5627D02*
Y6027D01*
X9255D01*
Y5627D01*
X8855D01*
X1769Y37202D02*
Y37602D01*
X2168D01*
Y37202D01*
X1769D01*
X1849Y37282D02*
Y37522D01*
X2088D01*
Y37282D01*
X1849D01*
X15548Y20272D02*
Y20672D01*
X15948D01*
Y20272D01*
X15548D01*
X15628Y20352D02*
Y20592D01*
X15868D01*
Y20352D01*
X15628D01*
X32438Y10312D02*
Y10712D01*
X32838D01*
Y10312D01*
X32438D01*
X33265Y1769D02*
Y2168D01*
X33665D01*
Y1769D01*
X33265D01*
X33345Y1849D02*
Y2088D01*
X33585D01*
Y1849D01*
X33345D01*
X1769Y1769D02*
Y2168D01*
X2168D01*
Y1769D01*
X1769D01*
X1849Y1849D02*
Y2088D01*
X2088D01*
Y1849D01*
X1849D01*
X18580Y10272D02*
Y10672D01*
X18980D01*
Y10272D01*
X18580D01*
X15548Y9446D02*
Y9846D01*
X15948D01*
Y9446D01*
X15548D01*
X33265Y37202D02*
Y37602D01*
X33665D01*
Y37202D01*
X33265D01*
X33345Y37282D02*
Y37522D01*
X33585D01*
Y37282D01*
X33345D01*
X18619Y9131D02*
Y9531D01*
X19019D01*
Y9131D01*
X18619D01*
X10512Y21026D02*
X10312Y21426D01*
X10712D01*
X10512Y21026D01*
Y21106D02*
X10392Y21346D01*
X10632D01*
X10512Y21106D01*
X10984Y21026D02*
X10784Y21426D01*
X11184D01*
X10984Y21026D01*
Y21106D02*
X10864Y21346D01*
X11104D01*
X10984Y21106D01*
X10675Y17275D02*
X10475Y17675D01*
X10875D01*
X10675Y17275D01*
Y17355D02*
X10555Y17595D01*
X10795D01*
X10675Y17355D01*
X10202Y17275D02*
X10002Y17675D01*
X10402D01*
X10202Y17275D01*
Y17355D02*
X10082Y17595D01*
X10322D01*
X10202Y17355D01*
X12120Y17674D02*
X11920Y18074D01*
X12320D01*
X12120Y17674D01*
Y17754D02*
X12000Y17994D01*
X12240D01*
X12120Y17754D01*
Y18146D02*
X11920Y18546D01*
X12320D01*
X12120Y18146D01*
Y18226D02*
X12000Y18466D01*
X12240D01*
X12120Y18226D01*
X27638Y28737D02*
X27438Y29137D01*
X27838D01*
X27638Y28737D01*
Y28817D02*
X27518Y29057D01*
X27758D01*
X27638Y28817D01*
X9055Y34347D02*
X8855Y34747D01*
X9255D01*
X9055Y34347D01*
Y34427D02*
X8935Y34667D01*
X9175D01*
X9055Y34427D01*
X7047Y22753D02*
X6847Y23153D01*
X7247D01*
X7047Y22753D01*
Y22833D02*
X6927Y23073D01*
X7167D01*
X7047Y22833D01*
Y24406D02*
X6847Y24806D01*
X7247D01*
X7047Y24406D01*
Y24486D02*
X6927Y24726D01*
X7167D01*
X7047Y24486D01*
X8228Y6650D02*
X8028Y7050D01*
X8428D01*
X8228Y6650D01*
Y6730D02*
X8108Y6970D01*
X8348D01*
X8228Y6730D01*
X3307Y19918D02*
X3107Y20318D01*
X3507D01*
X3307Y19918D01*
Y19998D02*
X3187Y20238D01*
X3427D01*
X3307Y19998D01*
Y18855D02*
X3107Y19255D01*
X3507D01*
X3307Y18855D01*
Y18935D02*
X3187Y19175D01*
X3427D01*
X3307Y18935D01*
X2835Y9918D02*
X2635Y10318D01*
X3035D01*
X2835Y9918D01*
Y9998D02*
X2715Y10238D01*
X2955D01*
X2835Y9998D01*
Y12123D02*
X2635Y12523D01*
X3035D01*
X2835Y12123D01*
Y12203D02*
X2715Y12443D01*
X2955D01*
X2835Y12203D01*
Y12753D02*
X2635Y13153D01*
X3035D01*
X2835Y12753D01*
Y12833D02*
X2715Y13073D01*
X2955D01*
X2835Y12833D01*
Y11493D02*
X2635Y11893D01*
X3035D01*
X2835Y11493D01*
Y11573D02*
X2715Y11813D01*
X2955D01*
X2835Y11573D01*
Y10548D02*
X2635Y10948D01*
X3035D01*
X2835Y10548D01*
Y10628D02*
X2715Y10868D01*
X2955D01*
X2835Y10628D01*
X7244Y12123D02*
X7044Y12523D01*
X7444D01*
X7244Y12123D01*
Y12203D02*
X7124Y12443D01*
X7364D01*
X7244Y12203D01*
Y11493D02*
X7044Y11893D01*
X7444D01*
X7244Y11493D01*
Y11573D02*
X7124Y11813D01*
X7364D01*
X7244Y11573D01*
Y10548D02*
X7044Y10948D01*
X7444D01*
X7244Y10548D01*
Y10628D02*
X7124Y10868D01*
X7364D01*
X7244Y10628D01*
Y9288D02*
X7044Y9688D01*
X7444D01*
X7244Y9288D01*
Y9368D02*
X7124Y9608D01*
X7364D01*
X7244Y9368D01*
X3268Y13776D02*
X3068Y14176D01*
X3468D01*
X3268Y13776D01*
Y13856D02*
X3148Y14096D01*
X3388D01*
X3268Y13856D01*
Y14249D02*
X3068Y14649D01*
X3468D01*
X3268Y14249D01*
Y14329D02*
X3148Y14569D01*
X3388D01*
X3268Y14329D01*
X10236Y24131D02*
X10036Y24531D01*
X10436D01*
X10236Y24131D01*
Y24211D02*
X10116Y24451D01*
X10356D01*
X10236Y24211D01*
X7126Y6650D02*
X6926Y7050D01*
X7326D01*
X7126Y6650D01*
Y6730D02*
X7006Y6970D01*
X7246D01*
X7126Y6730D01*
X8661Y7280D02*
X8461Y7680D01*
X8861D01*
X8661Y7280D01*
Y7360D02*
X8541Y7600D01*
X8781D01*
X8661Y7360D01*
X7677Y6650D02*
X7477Y7050D01*
X7877D01*
X7677Y6650D01*
Y6730D02*
X7557Y6970D01*
X7797D01*
X7677Y6730D01*
X8701Y6769D02*
X8501Y7168D01*
X8901D01*
X8701Y6769D01*
Y6848D02*
X8581Y7089D01*
X8821D01*
X8701Y6848D01*
X7244Y9918D02*
X7044Y10318D01*
X7444D01*
X7244Y9918D01*
Y9998D02*
X7124Y10238D01*
X7364D01*
X7244Y9998D01*
X5118Y9918D02*
X4918Y10318D01*
X5318D01*
X5118Y9918D01*
Y9998D02*
X4998Y10238D01*
X5238D01*
X5118Y9998D01*
Y12123D02*
X4918Y12523D01*
X5318D01*
X5118Y12123D01*
Y12203D02*
X4998Y12443D01*
X5238D01*
X5118Y12203D01*
Y12753D02*
X4918Y13153D01*
X5318D01*
X5118Y12753D01*
Y12833D02*
X4998Y13073D01*
X5238D01*
X5118Y12833D01*
Y11493D02*
X4918Y11893D01*
X5318D01*
X5118Y11493D01*
Y11573D02*
X4998Y11813D01*
X5238D01*
X5118Y11573D01*
Y10548D02*
X4918Y10948D01*
X5318D01*
X5118Y10548D01*
Y10628D02*
X4998Y10868D01*
X5238D01*
X5118Y10628D01*
Y9288D02*
X4918Y9688D01*
X5318D01*
X5118Y9288D01*
Y9368D02*
X4998Y9608D01*
X5238D01*
X5118Y9368D01*
X6378Y33816D02*
X6178Y34216D01*
X6578D01*
X6378Y33816D01*
Y33896D02*
X6258Y34136D01*
X6498D01*
X6378Y33896D01*
Y31611D02*
X6178Y32011D01*
X6578D01*
X6378Y31611D01*
Y31691D02*
X6258Y31931D01*
X6498D01*
X6378Y31691D01*
Y30981D02*
X6178Y31381D01*
X6578D01*
X6378Y30981D01*
Y31061D02*
X6258Y31301D01*
X6498D01*
X6378Y31061D01*
Y32241D02*
X6178Y32641D01*
X6578D01*
X6378Y32241D01*
Y32321D02*
X6258Y32561D01*
X6498D01*
X6378Y32321D01*
Y33186D02*
X6178Y33586D01*
X6578D01*
X6378Y33186D01*
Y33266D02*
X6258Y33506D01*
X6498D01*
X6378Y33266D01*
X1969Y31611D02*
X1769Y32011D01*
X2169D01*
X1969Y31611D01*
Y31691D02*
X1849Y31931D01*
X2089D01*
X1969Y31691D01*
Y32241D02*
X1769Y32641D01*
X2169D01*
X1969Y32241D01*
Y32321D02*
X1849Y32561D01*
X2089D01*
X1969Y32321D01*
Y33186D02*
X1769Y33586D01*
X2169D01*
X1969Y33186D01*
Y33266D02*
X1849Y33506D01*
X2089D01*
X1969Y33266D01*
Y34446D02*
X1769Y34846D01*
X2169D01*
X1969Y34446D01*
Y34526D02*
X1849Y34766D01*
X2089D01*
X1969Y34526D01*
X1969Y33816D02*
X1769Y34216D01*
X2169D01*
X1969Y33816D01*
Y33896D02*
X1849Y34136D01*
X2089D01*
X1969Y33896D01*
X4094Y33816D02*
X3894Y34216D01*
X4294D01*
X4094Y33816D01*
Y33896D02*
X3974Y34136D01*
X4214D01*
X4094Y33896D01*
Y31611D02*
X3894Y32011D01*
X4294D01*
X4094Y31611D01*
Y31691D02*
X3974Y31931D01*
X4214D01*
X4094Y31691D01*
Y30981D02*
X3894Y31381D01*
X4294D01*
X4094Y30981D01*
Y31061D02*
X3974Y31301D01*
X4214D01*
X4094Y31061D01*
Y32241D02*
X3894Y32641D01*
X4294D01*
X4094Y32241D01*
Y32321D02*
X3974Y32561D01*
X4214D01*
X4094Y32321D01*
Y33186D02*
X3894Y33586D01*
X4294D01*
X4094Y33186D01*
Y33266D02*
X3974Y33506D01*
X4214D01*
X4094Y33266D01*
Y34446D02*
X3894Y34846D01*
X4294D01*
X4094Y34446D01*
Y34526D02*
X3974Y34766D01*
X4214D01*
X4094Y34526D01*
X13386Y34348D02*
X13186Y34748D01*
X13586D01*
X13386Y34348D01*
Y34428D02*
X13266Y34668D01*
X13506D01*
X13386Y34428D01*
X13465Y32143D02*
X13265Y32543D01*
X13665D01*
X13465Y32143D01*
Y32223D02*
X13345Y32463D01*
X13585D01*
X13465Y32223D01*
Y31513D02*
X13265Y31913D01*
X13665D01*
X13465Y31513D01*
Y31593D02*
X13345Y31833D01*
X13585D01*
X13465Y31593D01*
Y32772D02*
X13265Y33172D01*
X13665D01*
X13465Y32772D01*
Y32852D02*
X13345Y33092D01*
X13585D01*
X13465Y32852D01*
X13386Y33717D02*
X13186Y34117D01*
X13586D01*
X13386Y33717D01*
Y33797D02*
X13266Y34037D01*
X13506D01*
X13386Y33797D01*
X9055Y32143D02*
X8855Y32543D01*
X9255D01*
X9055Y32143D01*
Y32223D02*
X8935Y32463D01*
X9175D01*
X9055Y32223D01*
Y32772D02*
X8855Y33172D01*
X9255D01*
X9055Y32772D01*
Y32852D02*
X8935Y33092D01*
X9175D01*
X9055Y32852D01*
Y33717D02*
X8855Y34117D01*
X9255D01*
X9055Y33717D01*
Y33797D02*
X8935Y34037D01*
X9175D01*
X9055Y33797D01*
Y34977D02*
X8855Y35377D01*
X9255D01*
X9055Y34977D01*
Y35057D02*
X8935Y35297D01*
X9175D01*
X9055Y35057D01*
X11181Y34347D02*
X10981Y34747D01*
X11381D01*
X11181Y34347D01*
Y34427D02*
X11061Y34667D01*
X11301D01*
X11181Y34427D01*
Y32143D02*
X10981Y32543D01*
X11381D01*
X11181Y32143D01*
Y32223D02*
X11061Y32463D01*
X11301D01*
X11181Y32223D01*
Y31513D02*
X10981Y31913D01*
X11381D01*
X11181Y31513D01*
Y31593D02*
X11061Y31833D01*
X11301D01*
X11181Y31593D01*
Y32772D02*
X10981Y33172D01*
X11381D01*
X11181Y32772D01*
Y32852D02*
X11061Y33092D01*
X11301D01*
X11181Y32852D01*
Y33717D02*
X10981Y34117D01*
X11381D01*
X11181Y33717D01*
Y33797D02*
X11061Y34037D01*
X11301D01*
X11181Y33797D01*
Y34977D02*
X10981Y35377D01*
X11381D01*
X11181Y34977D01*
Y35057D02*
X11061Y35297D01*
X11301D01*
X11181Y35057D01*
X3307Y14997D02*
X3107Y15397D01*
X3507D01*
X3307Y14997D01*
Y15077D02*
X3187Y15317D01*
X3427D01*
X3307Y15077D01*
Y15469D02*
X3107Y15869D01*
X3507D01*
X3307Y15469D01*
Y15549D02*
X3187Y15789D01*
X3427D01*
X3307Y15549D01*
X2947Y17575D02*
X2747Y17975D01*
X3147D01*
X2947Y17575D01*
Y17655D02*
X2827Y17895D01*
X3067D01*
X2947Y17655D01*
Y18047D02*
X2747Y18447D01*
X3147D01*
X2947Y18047D01*
Y18127D02*
X2827Y18367D01*
X3067D01*
X2947Y18127D01*
X4297Y27595D02*
X4097Y27995D01*
X4497D01*
X4297Y27595D01*
Y27675D02*
X4177Y27915D01*
X4417D01*
X4297Y27675D01*
Y27123D02*
X4097Y27523D01*
X4497D01*
X4297Y27123D01*
Y27203D02*
X4177Y27443D01*
X4417D01*
X4297Y27203D01*
X8228Y17320D02*
X8028Y17720D01*
X8428D01*
X8228Y17320D01*
Y17400D02*
X8108Y17640D01*
X8348D01*
X8228Y17400D01*
X7717Y17320D02*
X7517Y17720D01*
X7917D01*
X7717Y17320D01*
Y17400D02*
X7597Y17640D01*
X7837D01*
X7717Y17400D01*
X7205Y17320D02*
X7005Y17720D01*
X7405D01*
X7205Y17320D01*
Y17400D02*
X7085Y17640D01*
X7325D01*
X7205Y17400D01*
X8937Y20669D02*
X8737Y21069D01*
X9137D01*
X8937Y20669D01*
Y20749D02*
X8817Y20989D01*
X9057D01*
X8937Y20749D01*
X9409Y20669D02*
X9209Y21069D01*
X9609D01*
X9409Y20669D01*
Y20749D02*
X9289Y20989D01*
X9529D01*
X9409Y20749D01*
X7047Y21454D02*
X6847Y21854D01*
X7247D01*
X7047Y21454D01*
Y21534D02*
X6927Y21774D01*
X7167D01*
X7047Y21534D01*
X7520Y21454D02*
X7320Y21854D01*
X7720D01*
X7520Y21454D01*
Y21534D02*
X7400Y21774D01*
X7640D01*
X7520Y21534D01*
X8307Y29972D02*
X8107Y30372D01*
X8507D01*
X8307Y29972D01*
Y30052D02*
X8187Y30292D01*
X8427D01*
X8307Y30052D01*
X7835Y29972D02*
X7635Y30372D01*
X8035D01*
X7835Y29972D01*
Y30052D02*
X7715Y30292D01*
X7955D01*
X7835Y30052D01*
X7835Y35967D02*
X7635Y36367D01*
X8035D01*
X7835Y35967D01*
Y36047D02*
X7715Y36287D01*
X7955D01*
X7835Y36047D01*
X8307Y35967D02*
X8107Y36367D01*
X8507D01*
X8307Y35967D01*
Y36047D02*
X8187Y36287D01*
X8427D01*
X8307Y36047D01*
X15236Y31212D02*
X15036Y31612D01*
X15436D01*
X15236Y31212D01*
Y31292D02*
X15116Y31532D01*
X15356D01*
X15236Y31292D01*
X14764Y31212D02*
X14564Y31612D01*
X14964D01*
X14764Y31212D01*
Y31292D02*
X14644Y31532D01*
X14884D01*
X14764Y31292D01*
X17165Y31139D02*
X16965Y31539D01*
X17365D01*
X17165Y31139D01*
Y31219D02*
X17045Y31459D01*
X17285D01*
X17165Y31219D01*
X16654Y31139D02*
X16454Y31539D01*
X16854D01*
X16654Y31139D01*
Y31219D02*
X16534Y31459D01*
X16774D01*
X16654Y31219D01*
X16142Y31139D02*
X15942Y31539D01*
X16342D01*
X16142Y31139D01*
Y31219D02*
X16022Y31459D01*
X16262D01*
X16142Y31219D01*
X20675Y35365D02*
X20475Y35765D01*
X20875D01*
X20675Y35365D01*
Y35445D02*
X20555Y35685D01*
X20795D01*
X20675Y35445D01*
Y34893D02*
X20475Y35293D01*
X20875D01*
X20675Y34893D01*
Y34973D02*
X20555Y35213D01*
X20795D01*
X20675Y34973D01*
X18858Y35750D02*
X18658Y36150D01*
X19058D01*
X18858Y35750D01*
Y35830D02*
X18738Y36070D01*
X18978D01*
X18858Y35830D01*
X19331Y35750D02*
X19131Y36150D01*
X19531D01*
X19331Y35750D01*
Y35830D02*
X19211Y36070D01*
X19451D01*
X19331Y35830D01*
X16575Y28146D02*
X16375Y28546D01*
X16775D01*
X16575Y28146D01*
Y28226D02*
X16455Y28466D01*
X16695D01*
X16575Y28226D01*
X16102Y28146D02*
X15902Y28546D01*
X16302D01*
X16102Y28146D01*
Y28226D02*
X15982Y28466D01*
X16222D01*
X16102Y28226D01*
X13819Y28146D02*
X13619Y28546D01*
X14019D01*
X13819Y28146D01*
Y28226D02*
X13699Y28466D01*
X13939D01*
X13819Y28226D01*
X13346Y28146D02*
X13146Y28546D01*
X13546D01*
X13346Y28146D01*
Y28226D02*
X13226Y28466D01*
X13466D01*
X13346Y28226D01*
X15197Y27511D02*
X14997Y27911D01*
X15397D01*
X15197Y27511D01*
Y27591D02*
X15077Y27831D01*
X15317D01*
X15197Y27591D01*
X14724Y27511D02*
X14524Y27911D01*
X14924D01*
X14724Y27511D01*
Y27591D02*
X14604Y27831D01*
X14844D01*
X14724Y27591D01*
X13819Y36513D02*
X13619Y36913D01*
X14019D01*
X13819Y36513D01*
Y36593D02*
X13699Y36833D01*
X13939D01*
X13819Y36593D01*
X14291Y36513D02*
X14091Y36913D01*
X14491D01*
X14291Y36513D01*
Y36593D02*
X14171Y36833D01*
X14411D01*
X14291Y36593D01*
X22047Y35002D02*
X21847Y35402D01*
X22247D01*
X22047Y35002D01*
Y35082D02*
X21927Y35322D01*
X22167D01*
X22047Y35082D01*
X22520Y35002D02*
X22320Y35402D01*
X22720D01*
X22520Y35002D01*
Y35082D02*
X22400Y35322D01*
X22640D01*
X22520Y35082D01*
X24163Y35715D02*
X23963Y36115D01*
X24363D01*
X24163Y35715D01*
Y35795D02*
X24043Y36035D01*
X24283D01*
X24163Y35795D01*
X24636Y35715D02*
X24436Y36115D01*
X24836D01*
X24636Y35715D01*
Y35795D02*
X24516Y36035D01*
X24756D01*
X24636Y35795D01*
X21412Y30661D02*
X21212Y31061D01*
X21612D01*
X21412Y30661D01*
Y30741D02*
X21292Y30981D01*
X21532D01*
X21412Y30741D01*
Y31133D02*
X21212Y31533D01*
X21612D01*
X21412Y31133D01*
Y31213D02*
X21292Y31453D01*
X21532D01*
X21412Y31213D01*
X26378Y28737D02*
X26178Y29137D01*
X26578D01*
X26378Y28737D01*
Y28817D02*
X26258Y29057D01*
X26498D01*
X26378Y28817D01*
X30709Y29721D02*
X30509Y30121D01*
X30909D01*
X30709Y29721D01*
Y29801D02*
X30589Y30041D01*
X30829D01*
X30709Y29801D01*
X30197Y29721D02*
X29997Y30121D01*
X30397D01*
X30197Y29721D01*
Y29801D02*
X30077Y30041D01*
X30317D01*
X30197Y29801D01*
X29685Y29721D02*
X29485Y30121D01*
X29885D01*
X29685Y29721D01*
Y29801D02*
X29565Y30041D01*
X29805D01*
X29685Y29801D01*
X28780Y35666D02*
X28580Y36066D01*
X28980D01*
X28780Y35666D01*
Y35746D02*
X28660Y35986D01*
X28900D01*
X28780Y35746D01*
X29291Y35666D02*
X29091Y36066D01*
X29491D01*
X29291Y35666D01*
Y35746D02*
X29171Y35986D01*
X29411D01*
X29291Y35746D01*
X29803Y35666D02*
X29603Y36066D01*
X30003D01*
X29803Y35666D01*
Y35746D02*
X29683Y35986D01*
X29923D01*
X29803Y35746D01*
X10236Y21769D02*
X10036Y22169D01*
X10436D01*
X10236Y21769D01*
Y21848D02*
X10116Y22088D01*
X10356D01*
X10236Y21848D01*
X22677Y12241D02*
X22477Y12641D01*
X22877D01*
X22677Y12241D01*
Y12321D02*
X22557Y12561D01*
X22797D01*
X22677Y12321D01*
X24705Y12261D02*
X24505Y12661D01*
X24905D01*
X24705Y12261D01*
Y12341D02*
X24585Y12581D01*
X24825D01*
X24705Y12341D01*
X27480Y10548D02*
X27280Y10948D01*
X27680D01*
X27480Y10548D01*
Y10628D02*
X27360Y10868D01*
X27600D01*
X27480Y10628D01*
X30276Y7123D02*
X30076Y7523D01*
X30476D01*
X30276Y7123D01*
Y7203D02*
X30156Y7443D01*
X30396D01*
X30276Y7203D01*
X30491Y2850D02*
X30291Y3250D01*
X30691D01*
X30491Y2850D01*
Y2930D02*
X30371Y3170D01*
X30611D01*
X30491Y2930D01*
X6260Y6296D02*
X6060Y6696D01*
X6460D01*
X6260Y6296D01*
Y6376D02*
X6140Y6616D01*
X6380D01*
X6260Y6376D01*
X5984Y5824D02*
X5784Y6224D01*
X6184D01*
X5984Y5824D01*
Y5904D02*
X5864Y6144D01*
X6104D01*
X5984Y5904D01*
X5433Y5824D02*
X5233Y6224D01*
X5633D01*
X5433Y5824D01*
Y5904D02*
X5313Y6144D01*
X5553D01*
X5433Y5904D01*
X5984Y6808D02*
X5784Y7208D01*
X6184D01*
X5984Y6808D01*
Y6888D02*
X5864Y7128D01*
X6104D01*
X5984Y6888D01*
X5433Y6808D02*
X5233Y7208D01*
X5633D01*
X5433Y6808D01*
Y6888D02*
X5313Y7128D01*
X5553D01*
X5433Y6888D01*
X2953Y6296D02*
X2753Y6696D01*
X3153D01*
X2953Y6296D01*
Y6376D02*
X2833Y6616D01*
X3073D01*
X2953Y6376D01*
X3228Y6808D02*
X3028Y7208D01*
X3428D01*
X3228Y6808D01*
Y6888D02*
X3108Y7128D01*
X3348D01*
X3228Y6888D01*
X3780Y6808D02*
X3580Y7208D01*
X3980D01*
X3780Y6808D01*
Y6888D02*
X3660Y7128D01*
X3900D01*
X3780Y6888D01*
X3228Y5824D02*
X3028Y6224D01*
X3428D01*
X3228Y5824D01*
Y5904D02*
X3108Y6144D01*
X3348D01*
X3228Y5904D01*
X3780Y5824D02*
X3580Y6224D01*
X3980D01*
X3780Y5824D01*
Y5904D02*
X3660Y6144D01*
X3900D01*
X3780Y5904D01*
X40745Y17631D02*
Y18031D01*
X41145D01*
Y17631D01*
X40745D01*
X40945Y15231D02*
X40745Y15631D01*
X41145D01*
X40945Y15231D01*
Y15311D02*
X40825Y15551D01*
X41065D01*
X40945Y15311D01*
X40745Y12831D02*
X40845D01*
X40945Y12931D01*
X41045Y12831D01*
X41145D01*
Y12931D01*
X41045Y13031D01*
X41145Y13131D01*
Y13231D01*
X41045D01*
X40945Y13131D01*
X40845Y13231D01*
X40745D01*
Y13131D01*
X40845Y13031D01*
X40745Y12931D01*
Y12831D01*
X40945Y11631D02*
X40745Y12031D01*
X41145D01*
X40945Y11631D01*
X40745Y10431D02*
X40845Y10631D01*
X40745Y10831D01*
X40945Y10731D01*
X41145Y10831D01*
X41045Y10631D01*
X41145Y10431D01*
X40945Y10531D01*
X40745Y10431D01*
X40845Y9331D02*
Y9231D01*
X41045D01*
Y9331D01*
X41145D01*
Y9531D01*
X41045D01*
Y9631D01*
X40845D01*
Y9531D01*
X40745D01*
Y9331D01*
X40845D01*
X40945Y8031D02*
X41045Y8131D01*
X41145D01*
X41045Y8231D01*
X41145Y8331D01*
X41045D01*
X40945Y8431D01*
X40845Y8331D01*
X40745D01*
X40845Y8231D01*
X40745Y8131D01*
X40845D01*
X40945Y8031D01*
X40745Y7031D02*
X40945Y7231D01*
X41145Y7031D01*
X40945Y6831D01*
X40745Y7031D01*
Y5631D02*
Y6031D01*
X41145D01*
Y5631D01*
X40745D01*
X40825Y5711D02*
Y5951D01*
X41065D01*
Y5711D01*
X40825D01*
D47*
X750Y-3937D02*
X375Y-2953D01*
X0Y-3937D01*
X141Y-3609D02*
X609D01*
X979Y-2953D02*
Y-3937D01*
Y-2953D02*
X1354Y-3937D01*
X1729Y-2953D02*
X1354Y-3937D01*
X1729Y-2953D02*
Y-3937D01*
X2666Y-3094D02*
X2573Y-3000D01*
X2432Y-2953D01*
X2245D01*
X2104Y-3000D01*
X2010Y-3094D01*
Y-3187D01*
X2057Y-3281D01*
X2104Y-3328D01*
X2198Y-3375D01*
X2479Y-3468D01*
X2573Y-3515D01*
X2619Y-3562D01*
X2666Y-3656D01*
Y-3796D01*
X2573Y-3890D01*
X2432Y-3937D01*
X2245D01*
X2104Y-3890D01*
X2010Y-3796D01*
X3636Y-3937D02*
X3261Y-2953D01*
X2887Y-3937D01*
X3027Y-3609D02*
X3496D01*
X4194Y-2953D02*
Y-3937D01*
X3866Y-2953D02*
X4522D01*
X5412D02*
Y-3937D01*
Y-2953D02*
X6068Y-3937D01*
Y-2953D02*
Y-3937D01*
X6949Y-2953D02*
X6340D01*
Y-3937D01*
X6949D01*
X6340Y-3422D02*
X6715D01*
X7113Y-2953D02*
X7348Y-3937D01*
X7582Y-2953D02*
X7348Y-3937D01*
X7582Y-2953D02*
X7816Y-3937D01*
X8050Y-2953D02*
X7816Y-3937D01*
X9676Y-2953D02*
X9020Y-3937D01*
Y-2953D02*
X9676D01*
X9020Y-3937D02*
X9676D01*
X10506Y-2953D02*
X9897D01*
Y-3937D01*
X10506D01*
X9897Y-3422D02*
X10272D01*
X11420Y-3937D02*
X11045Y-2953D01*
X10670Y-3937D01*
X10810Y-3609D02*
X11279D01*
X11649Y-2953D02*
Y-3937D01*
X12211D01*
X13069D02*
X12694Y-2953D01*
X12319Y-3937D01*
X12460Y-3609D02*
X12928D01*
X13299Y-2953D02*
Y-3937D01*
Y-2953D02*
X13955Y-3937D01*
Y-2953D02*
Y-3937D01*
X14226Y-2953D02*
Y-3937D01*
Y-2953D02*
X14554D01*
X14695Y-3000D01*
X14789Y-3094D01*
X14836Y-3187D01*
X14882Y-3328D01*
Y-3562D01*
X14836Y-3703D01*
X14789Y-3796D01*
X14695Y-3890D01*
X14554Y-3937D01*
X14226D01*
X87008Y3937D02*
Y22835D01*
X96457Y3937D02*
Y24409D01*
X69685Y3937D02*
Y24409D01*
Y3937D02*
X96457D01*
X69685Y11811D02*
X96457D01*
X69685Y10236D02*
X96457D01*
X69685Y8661D02*
X96457D01*
X69685Y7087D02*
X96457D01*
X69685Y13386D02*
X96457D01*
X69685Y14961D02*
X96457D01*
X69685Y16535D02*
X96457D01*
X69685Y18110D02*
X96457D01*
X69685Y19685D02*
X96457D01*
X69685Y21260D02*
X96457D01*
X69685Y22835D02*
X96457D01*
X69685Y24409D02*
X96457D01*
X69685Y5512D02*
X96457D01*
X13870Y61411D02*
Y63380D01*
X-13386Y63386D02*
X103150D01*
X35840Y61491D02*
Y63460D01*
X56693Y61417D02*
Y63386D01*
X78740Y61417D02*
Y63386D01*
X101181Y2362D02*
X103150D01*
X101181Y22047D02*
X103150D01*
X101181Y41732D02*
X103150D01*
X-13386Y22047D02*
X-9449D01*
X-13386Y41732D02*
X-9449D01*
X-13386Y2362D02*
X-9449D01*
Y61417D02*
X101181D01*
X103150Y-19291D02*
Y63386D01*
X101181Y-17323D02*
Y61417D01*
X-13386Y-19291D02*
X103150D01*
X-13386D02*
Y63386D01*
X-9449Y-17323D02*
Y61417D01*
Y-17323D02*
X101181D01*
X34646Y-19291D02*
Y-17323D01*
X12598Y-19291D02*
Y-17323D01*
X77559Y-17323D02*
Y-11417D01*
X65748Y-17323D02*
Y-11417D01*
X57874Y-17323D02*
Y-11417D01*
X56693Y-19291D02*
Y-17323D01*
X78740Y-19291D02*
Y-17323D01*
X57874Y-11417D02*
X101181D01*
X101772Y12598D02*
Y11614D01*
Y12598D02*
X102193D01*
X102334Y12551D01*
X102381Y12504D01*
X102428Y12411D01*
Y12317D01*
X102381Y12223D01*
X102334Y12176D01*
X102193Y12130D01*
X101772D02*
X102193D01*
X102334Y12083D01*
X102381Y12036D01*
X102428Y11942D01*
Y11802D01*
X102381Y11708D01*
X102334Y11661D01*
X102193Y11614D01*
X101772D01*
X102475Y32049D02*
X102428Y32143D01*
X102334Y32236D01*
X102240Y32283D01*
X102053D01*
X101959Y32236D01*
X101865Y32143D01*
X101819Y32049D01*
X101772Y31908D01*
Y31674D01*
X101819Y31534D01*
X101865Y31440D01*
X101959Y31346D01*
X102053Y31299D01*
X102240D01*
X102334Y31346D01*
X102428Y31440D01*
X102475Y31534D01*
X101772Y51968D02*
Y50984D01*
Y51968D02*
X102100D01*
X102240Y51921D01*
X102334Y51828D01*
X102381Y51734D01*
X102428Y51593D01*
Y51359D01*
X102381Y51219D01*
X102334Y51125D01*
X102240Y51031D01*
X102100Y50984D01*
X101772D01*
X45369Y-17914D02*
X45885D01*
X45604Y-18288D01*
X45744D01*
X45838Y-18335D01*
X45885Y-18382D01*
X45932Y-18523D01*
Y-18616D01*
X45885Y-18757D01*
X45791Y-18851D01*
X45650Y-18898D01*
X45510D01*
X45369Y-18851D01*
X45322Y-18804D01*
X45276Y-18710D01*
X1181Y-18101D02*
X1275Y-18054D01*
X1415Y-17914D01*
Y-18898D01*
X23275Y-18148D02*
Y-18101D01*
X23322Y-18007D01*
X23369Y-17960D01*
X23463Y-17914D01*
X23650D01*
X23744Y-17960D01*
X23791Y-18007D01*
X23838Y-18101D01*
Y-18195D01*
X23791Y-18288D01*
X23697Y-18429D01*
X23228Y-18898D01*
X23884D01*
X-10471Y-8071D02*
X-10846Y-7087D01*
X-11220Y-8071D01*
X-11080Y-7743D02*
X-10611D01*
X-11220Y12598D02*
Y11614D01*
Y12598D02*
X-10799D01*
X-10658Y12551D01*
X-10611Y12504D01*
X-10564Y12411D01*
Y12317D01*
X-10611Y12223D01*
X-10658Y12176D01*
X-10799Y12130D01*
X-11220D02*
X-10799D01*
X-10658Y12083D01*
X-10611Y12036D01*
X-10564Y11942D01*
Y11802D01*
X-10611Y11708D01*
X-10658Y11661D01*
X-10799Y11614D01*
X-11220D01*
X-10518Y32049D02*
X-10564Y32143D01*
X-10658Y32236D01*
X-10752Y32283D01*
X-10939D01*
X-11033Y32236D01*
X-11127Y32143D01*
X-11174Y32049D01*
X-11220Y31908D01*
Y31674D01*
X-11174Y31534D01*
X-11127Y31440D01*
X-11033Y31346D01*
X-10939Y31299D01*
X-10752D01*
X-10658Y31346D01*
X-10564Y31440D01*
X-10518Y31534D01*
X-11220Y51968D02*
Y50984D01*
Y51968D02*
X-10892D01*
X-10752Y51921D01*
X-10658Y51828D01*
X-10611Y51734D01*
X-10564Y51593D01*
Y51359D01*
X-10611Y51219D01*
X-10658Y51125D01*
X-10752Y51031D01*
X-10892Y50984D01*
X-11220D01*
X1181Y62608D02*
X1275Y62654D01*
X1415Y62795D01*
Y61811D01*
X23837Y62660D02*
Y62707D01*
X23884Y62800D01*
X23931Y62847D01*
X24024Y62894D01*
X24212D01*
X24305Y62847D01*
X24352Y62800D01*
X24399Y62707D01*
Y62613D01*
X24352Y62519D01*
X24259Y62379D01*
X23790Y61910D01*
X24446D01*
X67791Y62795D02*
X67323Y62139D01*
X68026D01*
X67791Y62795D02*
Y61811D01*
X89932Y62795D02*
X89464D01*
X89417Y62373D01*
X89464Y62420D01*
X89604Y62467D01*
X89745D01*
X89886Y62420D01*
X89979Y62326D01*
X90026Y62186D01*
Y62092D01*
X89979Y61952D01*
X89886Y61858D01*
X89745Y61811D01*
X89604D01*
X89464Y61858D01*
X89417Y61905D01*
X89370Y61998D01*
X45369Y62795D02*
X45885D01*
X45604Y62420D01*
X45744D01*
X45838Y62373D01*
X45885Y62326D01*
X45932Y62186D01*
Y62092D01*
X45885Y61952D01*
X45791Y61858D01*
X45650Y61811D01*
X45510D01*
X45369Y61858D01*
X45322Y61905D01*
X45276Y61998D01*
X85512Y-11929D02*
Y-12913D01*
Y-11929D02*
X86121D01*
X85512Y-12398D02*
X85887D01*
X86983Y-12913D02*
X86608Y-11929D01*
X86233Y-12913D01*
X86374Y-12585D02*
X86843D01*
X87213Y-11929D02*
Y-12913D01*
Y-11929D02*
X87635D01*
X87775Y-11976D01*
X87822Y-12023D01*
X87869Y-12117D01*
Y-12211D01*
X87822Y-12304D01*
X87775Y-12351D01*
X87635Y-12398D01*
X87213D02*
X87635D01*
X87775Y-12445D01*
X87822Y-12492D01*
X87869Y-12585D01*
Y-12726D01*
X87822Y-12820D01*
X87775Y-12867D01*
X87635Y-12913D01*
X87213D01*
X88089Y-11929D02*
Y-12913D01*
Y-11929D02*
X88511D01*
X88651Y-11976D01*
X88698Y-12023D01*
X88745Y-12117D01*
Y-12211D01*
X88698Y-12304D01*
X88651Y-12351D01*
X88511Y-12398D01*
X88089D01*
X88417D02*
X88745Y-12913D01*
X88965Y-11929D02*
Y-12913D01*
X89874Y-12164D02*
X89828Y-12070D01*
X89734Y-11976D01*
X89640Y-11929D01*
X89453D01*
X89359Y-11976D01*
X89265Y-12070D01*
X89218Y-12164D01*
X89172Y-12304D01*
Y-12539D01*
X89218Y-12679D01*
X89265Y-12773D01*
X89359Y-12867D01*
X89453Y-12913D01*
X89640D01*
X89734Y-12867D01*
X89828Y-12773D01*
X89874Y-12679D01*
X90901Y-12913D02*
X90526Y-11929D01*
X90151Y-12913D01*
X90291Y-12585D02*
X90760D01*
X91458Y-11929D02*
Y-12913D01*
X91130Y-11929D02*
X91786D01*
X91903D02*
Y-12913D01*
X92391Y-11929D02*
X92297Y-11976D01*
X92203Y-12070D01*
X92156Y-12164D01*
X92110Y-12304D01*
Y-12539D01*
X92156Y-12679D01*
X92203Y-12773D01*
X92297Y-12867D01*
X92391Y-12913D01*
X92578D01*
X92672Y-12867D01*
X92766Y-12773D01*
X92812Y-12679D01*
X92859Y-12539D01*
Y-12304D01*
X92812Y-12164D01*
X92766Y-12070D01*
X92672Y-11976D01*
X92578Y-11929D01*
X92391D01*
X93089D02*
Y-12913D01*
Y-11929D02*
X93745Y-12913D01*
Y-11929D02*
Y-12913D01*
X102521Y-8071D02*
X102147Y-7087D01*
X101772Y-8071D01*
X101912Y-7743D02*
X102381D01*
X67791Y-17914D02*
X67323Y-18570D01*
X68026D01*
X67791Y-17914D02*
Y-18898D01*
X89932Y-17914D02*
X89464D01*
X89417Y-18335D01*
X89464Y-18288D01*
X89604Y-18242D01*
X89745D01*
X89886Y-18288D01*
X89979Y-18382D01*
X90026Y-18523D01*
Y-18616D01*
X89979Y-18757D01*
X89886Y-18851D01*
X89745Y-18898D01*
X89604D01*
X89464Y-18851D01*
X89417Y-18804D01*
X89370Y-18710D01*
X60474Y-14134D02*
X60099Y-13150D01*
X59724Y-14134D01*
X59865Y-13806D02*
X60334D01*
X60704Y-13150D02*
Y-14134D01*
Y-13150D02*
X61079Y-14134D01*
X61454Y-13150D02*
X61079Y-14134D01*
X61454Y-13150D02*
Y-14134D01*
X62391Y-13290D02*
X62297Y-13197D01*
X62156Y-13150D01*
X61969D01*
X61828Y-13197D01*
X61735Y-13290D01*
Y-13384D01*
X61782Y-13478D01*
X61828Y-13525D01*
X61922Y-13572D01*
X62203Y-13665D01*
X62297Y-13712D01*
X62344Y-13759D01*
X62391Y-13853D01*
Y-13993D01*
X62297Y-14087D01*
X62156Y-14134D01*
X61969D01*
X61828Y-14087D01*
X61735Y-13993D01*
X63361Y-14134D02*
X62986Y-13150D01*
X62611Y-14134D01*
X62752Y-13806D02*
X63220D01*
X63918Y-13150D02*
Y-14134D01*
X63590Y-13150D02*
X64246D01*
X51968Y56496D02*
Y55512D01*
Y56496D02*
X52625Y55512D01*
Y56496D02*
Y55512D01*
X53177Y56496D02*
X53084Y56449D01*
X52990Y56355D01*
X52943Y56262D01*
X52896Y56121D01*
Y55887D01*
X52943Y55746D01*
X52990Y55652D01*
X53084Y55559D01*
X53177Y55512D01*
X53365D01*
X53459Y55559D01*
X53552Y55652D01*
X53599Y55746D01*
X53646Y55887D01*
Y56121D01*
X53599Y56262D01*
X53552Y56355D01*
X53459Y56449D01*
X53365Y56496D01*
X53177D01*
X54204D02*
Y55512D01*
X53876Y56496D02*
X54532D01*
X55258D02*
X54649D01*
Y55512D01*
X55258D01*
X54649Y56027D02*
X55024D01*
X56078Y56355D02*
X55984Y56449D01*
X55844Y56496D01*
X55656D01*
X55516Y56449D01*
X55422Y56355D01*
Y56262D01*
X55469Y56168D01*
X55516Y56121D01*
X55609Y56074D01*
X55891Y55980D01*
X55984Y55934D01*
X56031Y55887D01*
X56078Y55793D01*
Y55652D01*
X55984Y55559D01*
X55844Y55512D01*
X55656D01*
X55516Y55559D01*
X55422Y55652D01*
X56345Y56168D02*
X56298Y56121D01*
X56345Y56074D01*
X56392Y56121D01*
X56345Y56168D01*
Y55606D02*
X56298Y55559D01*
X56345Y55512D01*
X56392Y55559D01*
X56345Y55606D01*
D51*
X9449Y45472D02*
X9974Y44094D01*
X10498Y45472D02*
X9974Y44094D01*
X10676Y45472D02*
Y44094D01*
X11817Y45472D02*
X10964D01*
Y44094D01*
X11817D01*
X10964Y44816D02*
X11489D01*
X12047Y45472D02*
X12375Y44094D01*
X12703Y45472D02*
X12375Y44094D01*
X12703Y45472D02*
X13031Y44094D01*
X13359Y45472D02*
X13031Y44094D01*
X14487Y45472D02*
X13634D01*
Y44094D01*
X14487D01*
X13634Y44816D02*
X14159D01*
X14717Y45472D02*
Y44094D01*
Y45472D02*
X15176D01*
X15373Y45407D01*
X15504Y45275D01*
X15570Y45144D01*
X15635Y44947D01*
Y44619D01*
X15570Y44422D01*
X15504Y44291D01*
X15373Y44160D01*
X15176Y44094D01*
X14717D01*
X17026Y45472D02*
Y44094D01*
Y45472D02*
X17879D01*
X17026Y44816D02*
X17551D01*
X18036Y45472D02*
Y44094D01*
Y45472D02*
X18627D01*
X18823Y45407D01*
X18889Y45341D01*
X18955Y45210D01*
Y45079D01*
X18889Y44947D01*
X18823Y44882D01*
X18627Y44816D01*
X18036D01*
X18495D02*
X18955Y44094D01*
X19657Y45472D02*
X19525Y45407D01*
X19394Y45275D01*
X19329Y45144D01*
X19263Y44947D01*
Y44619D01*
X19329Y44422D01*
X19394Y44291D01*
X19525Y44160D01*
X19657Y44094D01*
X19919D01*
X20050Y44160D01*
X20181Y44291D01*
X20247Y44422D01*
X20313Y44619D01*
Y44947D01*
X20247Y45144D01*
X20181Y45275D01*
X20050Y45407D01*
X19919Y45472D01*
X19657D01*
X20634D02*
Y44094D01*
Y45472D02*
X21159Y44094D01*
X21684Y45472D02*
X21159Y44094D01*
X21684Y45472D02*
Y44094D01*
X23619Y45472D02*
Y44094D01*
X23160Y45472D02*
X24078D01*
X24636D02*
X24505Y45407D01*
X24373Y45275D01*
X24308Y45144D01*
X24242Y44947D01*
Y44619D01*
X24308Y44422D01*
X24373Y44291D01*
X24505Y44160D01*
X24636Y44094D01*
X24898D01*
X25029Y44160D01*
X25161Y44291D01*
X25226Y44422D01*
X25292Y44619D01*
Y44947D01*
X25226Y45144D01*
X25161Y45275D01*
X25029Y45407D01*
X24898Y45472D01*
X24636D01*
X25613Y44751D02*
X26204D01*
X26401Y44816D01*
X26466Y44882D01*
X26532Y45013D01*
Y45210D01*
X26466Y45341D01*
X26401Y45407D01*
X26204Y45472D01*
X25613D01*
Y44094D01*
D55*
X0Y-4803D02*
Y-5512D01*
Y-4803D02*
X236D01*
X337Y-4837D01*
X405Y-4905D01*
X439Y-4972D01*
X472Y-5073D01*
Y-5242D01*
X439Y-5343D01*
X405Y-5411D01*
X337Y-5478D01*
X236Y-5512D01*
X0D01*
X631Y-4803D02*
Y-5512D01*
Y-4803D02*
X935D01*
X1036Y-4837D01*
X1070Y-4871D01*
X1103Y-4938D01*
Y-5006D01*
X1070Y-5073D01*
X1036Y-5107D01*
X935Y-5141D01*
X631D01*
X867D02*
X1103Y-5512D01*
X1802D02*
X1532Y-4803D01*
X1262Y-5512D01*
X1363Y-5276D02*
X1700D01*
X1967Y-4803D02*
X2136Y-5512D01*
X2304Y-4803D02*
X2136Y-5512D01*
X2304Y-4803D02*
X2473Y-5512D01*
X2642Y-4803D02*
X2473Y-5512D01*
X2783Y-4803D02*
Y-5512D01*
X2932Y-4803D02*
Y-5512D01*
Y-4803D02*
X3404Y-5512D01*
Y-4803D02*
Y-5512D01*
X4106Y-4972D02*
X4072Y-4905D01*
X4005Y-4837D01*
X3937Y-4803D01*
X3802D01*
X3735Y-4837D01*
X3667Y-4905D01*
X3634Y-4972D01*
X3600Y-5073D01*
Y-5242D01*
X3634Y-5343D01*
X3667Y-5411D01*
X3735Y-5478D01*
X3802Y-5512D01*
X3937D01*
X4005Y-5478D01*
X4072Y-5411D01*
X4106Y-5343D01*
Y-5242D01*
X3937D02*
X4106D01*
X4825Y-4803D02*
Y-5512D01*
Y-4803D02*
X5297Y-5512D01*
Y-4803D02*
Y-5512D01*
X5493Y-5039D02*
Y-5512D01*
Y-5242D02*
X5526Y-5141D01*
X5594Y-5073D01*
X5661Y-5039D01*
X5763D01*
X5860D02*
X5827Y-5073D01*
X5860Y-5107D01*
X5894Y-5073D01*
X5860Y-5039D01*
Y-5444D02*
X5827Y-5478D01*
X5860Y-5512D01*
X5894Y-5478D01*
X5860Y-5444D01*
X6049Y-5208D02*
X6657D01*
X16535Y-6378D02*
Y-7087D01*
Y-6378D02*
X16805Y-7087D01*
X17075Y-6378D02*
X16805Y-7087D01*
X17075Y-6378D02*
Y-7087D01*
X17683Y-6614D02*
Y-7087D01*
Y-6715D02*
X17615Y-6648D01*
X17548Y-6614D01*
X17446D01*
X17379Y-6648D01*
X17311Y-6715D01*
X17278Y-6817D01*
Y-6884D01*
X17311Y-6985D01*
X17379Y-7053D01*
X17446Y-7087D01*
X17548D01*
X17615Y-7053D01*
X17683Y-6985D01*
X17871Y-6614D02*
Y-7087D01*
Y-6817D02*
X17905Y-6715D01*
X17973Y-6648D01*
X18040Y-6614D01*
X18141D01*
X18610Y-6715D02*
X18543Y-6648D01*
X18475Y-6614D01*
X18374D01*
X18307Y-6648D01*
X18239Y-6715D01*
X18205Y-6817D01*
Y-6884D01*
X18239Y-6985D01*
X18307Y-7053D01*
X18374Y-7087D01*
X18475D01*
X18543Y-7053D01*
X18610Y-6985D01*
X18762Y-6378D02*
Y-7087D01*
Y-6749D02*
X18863Y-6648D01*
X18931Y-6614D01*
X19032D01*
X19100Y-6648D01*
X19133Y-6749D01*
Y-7087D01*
X19909Y-6547D02*
Y-6513D01*
X19943Y-6446D01*
X19977Y-6412D01*
X20044Y-6378D01*
X20179D01*
X20247Y-6412D01*
X20280Y-6446D01*
X20314Y-6513D01*
Y-6581D01*
X20280Y-6648D01*
X20213Y-6749D01*
X19876Y-7087D01*
X20348D01*
X20709Y-6378D02*
X20608Y-6412D01*
X20540Y-6513D01*
X20506Y-6682D01*
Y-6783D01*
X20540Y-6952D01*
X20608Y-7053D01*
X20709Y-7087D01*
X20776D01*
X20878Y-7053D01*
X20945Y-6952D01*
X20979Y-6783D01*
Y-6682D01*
X20945Y-6513D01*
X20878Y-6412D01*
X20776Y-6378D01*
X20709D01*
X21340D02*
X21239Y-6412D01*
X21171Y-6513D01*
X21137Y-6682D01*
Y-6783D01*
X21171Y-6952D01*
X21239Y-7053D01*
X21340Y-7087D01*
X21407D01*
X21508Y-7053D01*
X21576Y-6952D01*
X21610Y-6783D01*
Y-6682D01*
X21576Y-6513D01*
X21508Y-6412D01*
X21407Y-6378D01*
X21340D01*
X22173Y-6479D02*
X22139Y-6412D01*
X22038Y-6378D01*
X21971D01*
X21869Y-6412D01*
X21802Y-6513D01*
X21768Y-6682D01*
Y-6850D01*
X21802Y-6985D01*
X21869Y-7053D01*
X21971Y-7087D01*
X22004D01*
X22106Y-7053D01*
X22173Y-6985D01*
X22207Y-6884D01*
Y-6850D01*
X22173Y-6749D01*
X22106Y-6682D01*
X22004Y-6648D01*
X21971D01*
X21869Y-6682D01*
X21802Y-6749D01*
X21768Y-6850D01*
X16569Y-4972D02*
Y-4938D01*
X16603Y-4871D01*
X16637Y-4837D01*
X16704Y-4803D01*
X16839D01*
X16907Y-4837D01*
X16940Y-4871D01*
X16974Y-4938D01*
Y-5006D01*
X16940Y-5073D01*
X16873Y-5174D01*
X16535Y-5512D01*
X17008D01*
X17369Y-4803D02*
X17268Y-4837D01*
X17200Y-4938D01*
X17166Y-5107D01*
Y-5208D01*
X17200Y-5377D01*
X17268Y-5478D01*
X17369Y-5512D01*
X17436D01*
X17537Y-5478D01*
X17605Y-5377D01*
X17639Y-5208D01*
Y-5107D01*
X17605Y-4938D01*
X17537Y-4837D01*
X17436Y-4803D01*
X17369D01*
X18000D02*
X17898Y-4837D01*
X17831Y-4938D01*
X17797Y-5107D01*
Y-5208D01*
X17831Y-5377D01*
X17898Y-5478D01*
X18000Y-5512D01*
X18067D01*
X18168Y-5478D01*
X18236Y-5377D01*
X18270Y-5208D01*
Y-5107D01*
X18236Y-4938D01*
X18168Y-4837D01*
X18067Y-4803D01*
X18000D01*
X18833Y-4905D02*
X18799Y-4837D01*
X18698Y-4803D01*
X18631D01*
X18529Y-4837D01*
X18462Y-4938D01*
X18428Y-5107D01*
Y-5276D01*
X18462Y-5411D01*
X18529Y-5478D01*
X18631Y-5512D01*
X18664D01*
X18766Y-5478D01*
X18833Y-5411D01*
X18867Y-5309D01*
Y-5276D01*
X18833Y-5174D01*
X18766Y-5107D01*
X18664Y-5073D01*
X18631D01*
X18529Y-5107D01*
X18462Y-5174D01*
X18428Y-5276D01*
X19224Y-4803D02*
X19123Y-4837D01*
X19056Y-4938D01*
X19022Y-5107D01*
Y-5208D01*
X19056Y-5377D01*
X19123Y-5478D01*
X19224Y-5512D01*
X19292D01*
X19393Y-5478D01*
X19461Y-5377D01*
X19494Y-5208D01*
Y-5107D01*
X19461Y-4938D01*
X19393Y-4837D01*
X19292Y-4803D01*
X19224D01*
X19720D02*
X20091D01*
X19889Y-5073D01*
X19990D01*
X20058Y-5107D01*
X20091Y-5141D01*
X20125Y-5242D01*
Y-5309D01*
X20091Y-5411D01*
X20024Y-5478D01*
X19923Y-5512D01*
X19822D01*
X19720Y-5478D01*
X19687Y-5444D01*
X19653Y-5377D01*
X20284Y-4938D02*
X20351Y-4905D01*
X20452Y-4803D01*
Y-5512D01*
X21006Y-4803D02*
X20905Y-4837D01*
X20837Y-4938D01*
X20803Y-5107D01*
Y-5208D01*
X20837Y-5377D01*
X20905Y-5478D01*
X21006Y-5512D01*
X21073D01*
X21174Y-5478D01*
X21242Y-5377D01*
X21276Y-5208D01*
Y-5107D01*
X21242Y-4938D01*
X21174Y-4837D01*
X21073Y-4803D01*
X21006D01*
X21434Y-5208D02*
X22042D01*
X22453Y-4803D02*
X22352Y-4837D01*
X22284Y-4938D01*
X22251Y-5107D01*
Y-5208D01*
X22284Y-5377D01*
X22352Y-5478D01*
X22453Y-5512D01*
X22521D01*
X22622Y-5478D01*
X22689Y-5377D01*
X22723Y-5208D01*
Y-5107D01*
X22689Y-4938D01*
X22622Y-4837D01*
X22521Y-4803D01*
X22453D01*
X23084D02*
X22983Y-4837D01*
X22915Y-4938D01*
X22882Y-5107D01*
Y-5208D01*
X22915Y-5377D01*
X22983Y-5478D01*
X23084Y-5512D01*
X23152D01*
X23253Y-5478D01*
X23320Y-5377D01*
X23354Y-5208D01*
Y-5107D01*
X23320Y-4938D01*
X23253Y-4837D01*
X23152Y-4803D01*
X23084D01*
X23513Y-4938D02*
X23580Y-4905D01*
X23681Y-4803D01*
Y-5512D01*
X0Y-6378D02*
Y-7087D01*
Y-6378D02*
X236D01*
X337Y-6412D01*
X405Y-6479D01*
X439Y-6547D01*
X472Y-6648D01*
Y-6817D01*
X439Y-6918D01*
X405Y-6985D01*
X337Y-7053D01*
X236Y-7087D01*
X0D01*
X1171D02*
X901Y-6378D01*
X631Y-7087D01*
X732Y-6850D02*
X1070D01*
X1572Y-6378D02*
Y-7087D01*
X1336Y-6378D02*
X1808D01*
X2331D02*
X1893D01*
Y-7087D01*
X2331D01*
X1893Y-6715D02*
X2163D01*
X2483Y-6614D02*
X2449Y-6648D01*
X2483Y-6682D01*
X2517Y-6648D01*
X2483Y-6614D01*
Y-7019D02*
X2449Y-7053D01*
X2483Y-7087D01*
X2517Y-7053D01*
X2483Y-7019D01*
X2672Y-6783D02*
X3279D01*
X52953Y53740D02*
Y54921D01*
X51772D02*
X52953D01*
X51772Y53740D02*
Y54921D01*
Y45079D02*
X52953D01*
Y46260D01*
X51772D02*
X52953D01*
X51772Y45079D02*
Y46260D01*
Y41535D02*
X52953D01*
Y42717D01*
X51772D02*
X52953D01*
X51772Y41535D02*
Y42717D01*
Y38386D02*
X52953D01*
Y39567D01*
X51772D02*
X52953D01*
X51772Y38386D02*
Y39567D01*
Y35236D02*
X52953D01*
Y36417D01*
X51772D02*
X52953D01*
X51772Y35236D02*
Y36417D01*
X51772Y53740D02*
X52953D01*
X16600Y41386D02*
X16566Y41285D01*
X16499Y41217D01*
X16397Y41183D01*
X16364D01*
X16262Y41217D01*
X16195Y41285D01*
X16161Y41386D01*
Y41420D01*
X16195Y41521D01*
X16262Y41588D01*
X16364Y41622D01*
X16397D01*
X16499Y41588D01*
X16566Y41521D01*
X16600Y41386D01*
Y41217D01*
X16566Y41048D01*
X16499Y40947D01*
X16397Y40913D01*
X16330D01*
X16229Y40947D01*
X16195Y41015D01*
X16995Y41622D02*
X16893Y41588D01*
X16826Y41487D01*
X16792Y41318D01*
Y41217D01*
X16826Y41048D01*
X16893Y40947D01*
X16995Y40913D01*
X17062D01*
X17163Y40947D01*
X17231Y41048D01*
X17264Y41217D01*
Y41318D01*
X17231Y41487D01*
X17163Y41588D01*
X17062Y41622D01*
X16995D01*
X17423Y41386D02*
Y40913D01*
Y41251D02*
X17524Y41352D01*
X17592Y41386D01*
X17693D01*
X17760Y41352D01*
X17794Y41251D01*
Y40913D01*
Y41251D02*
X17895Y41352D01*
X17963Y41386D01*
X18064D01*
X18132Y41352D01*
X18165Y41251D01*
Y40913D01*
X18388Y41386D02*
Y40913D01*
Y41251D02*
X18489Y41352D01*
X18557Y41386D01*
X18658D01*
X18725Y41352D01*
X18759Y41251D01*
Y40913D01*
Y41251D02*
X18860Y41352D01*
X18928Y41386D01*
X19029D01*
X19096Y41352D01*
X19130Y41251D01*
Y40913D01*
X53543Y49527D02*
Y48819D01*
Y49527D02*
X53779D01*
X53881Y49494D01*
X53948Y49426D01*
X53982Y49359D01*
X54016Y49257D01*
Y49089D01*
X53982Y48988D01*
X53948Y48920D01*
X53881Y48853D01*
X53779Y48819D01*
X53543D01*
X54174Y49527D02*
Y48819D01*
Y49527D02*
X54478D01*
X54579Y49494D01*
X54613Y49460D01*
X54647Y49392D01*
Y49325D01*
X54613Y49257D01*
X54579Y49224D01*
X54478Y49190D01*
X54174D01*
X54410D02*
X54647Y48819D01*
X54805Y49527D02*
Y48819D01*
X54954Y49527D02*
Y48819D01*
X55358D01*
X55436Y49527D02*
Y48819D01*
X55841D01*
X55918Y49527D02*
Y48819D01*
X56067Y49527D02*
Y48819D01*
Y49527D02*
X56539Y48819D01*
Y49527D02*
Y48819D01*
X57241Y49359D02*
X57207Y49426D01*
X57140Y49494D01*
X57072Y49527D01*
X56937D01*
X56870Y49494D01*
X56802Y49426D01*
X56769Y49359D01*
X56735Y49257D01*
Y49089D01*
X56769Y48988D01*
X56802Y48920D01*
X56870Y48853D01*
X56937Y48819D01*
X57072D01*
X57140Y48853D01*
X57207Y48920D01*
X57241Y48988D01*
Y49089D01*
X57072D02*
X57241D01*
X57993Y49291D02*
X57960Y49257D01*
X57993Y49224D01*
X58027Y49257D01*
X57993Y49291D01*
Y48886D02*
X57960Y48853D01*
X57993Y48819D01*
X58027Y48853D01*
X57993Y48886D01*
X87795Y20787D02*
Y20281D01*
X87829Y20180D01*
X87896Y20112D01*
X87998Y20079D01*
X88065D01*
X88166Y20112D01*
X88234Y20180D01*
X88268Y20281D01*
Y20787D01*
X88463D02*
Y20079D01*
X88936Y20787D02*
Y20079D01*
X88463Y20450D02*
X88936D01*
X89131Y20787D02*
Y20079D01*
Y20787D02*
X89570D01*
X89131Y20450D02*
X89401D01*
X90208Y20787D02*
Y20079D01*
Y20787D02*
X90646D01*
X90208Y20450D02*
X90477D01*
X90727Y20787D02*
Y20079D01*
Y20787D02*
X90997Y20079D01*
X91267Y20787D02*
X90997Y20079D01*
X91267Y20787D02*
Y20079D01*
X92026Y20787D02*
Y20079D01*
Y20787D02*
X92330D01*
X92431Y20754D01*
X92465Y20720D01*
X92498Y20652D01*
Y20585D01*
X92465Y20517D01*
X92431Y20484D01*
X92330Y20450D01*
X92026D01*
X92262D02*
X92498Y20079D01*
X92657Y20787D02*
X93129Y20079D01*
Y20787D02*
X92657Y20079D01*
X93322Y20146D02*
X93288Y20112D01*
X93322Y20079D01*
X93355Y20112D01*
X93322Y20146D01*
X94017Y20619D02*
X93983Y20686D01*
X93915Y20754D01*
X93848Y20787D01*
X93713D01*
X93646Y20754D01*
X93578Y20686D01*
X93544Y20619D01*
X93511Y20517D01*
Y20349D01*
X93544Y20247D01*
X93578Y20180D01*
X93646Y20112D01*
X93713Y20079D01*
X93848D01*
X93915Y20112D01*
X93983Y20180D01*
X94017Y20247D01*
Y20349D01*
X93848D02*
X94017D01*
X94415Y20787D02*
Y20079D01*
X94179Y20787D02*
X94651D01*
X94938D02*
X94870Y20754D01*
X94803Y20686D01*
X94769Y20619D01*
X94735Y20517D01*
Y20349D01*
X94769Y20247D01*
X94803Y20180D01*
X94870Y20112D01*
X94938Y20079D01*
X95073D01*
X95140Y20112D01*
X95208Y20180D01*
X95241Y20247D01*
X95275Y20349D01*
Y20517D01*
X95241Y20619D01*
X95208Y20686D01*
X95140Y20754D01*
X95073Y20787D01*
X94938D01*
X87795Y19212D02*
Y18706D01*
X87829Y18605D01*
X87896Y18538D01*
X87998Y18504D01*
X88065D01*
X88166Y18538D01*
X88234Y18605D01*
X88268Y18706D01*
Y19212D01*
X88463D02*
Y18504D01*
X88936Y19212D02*
Y18504D01*
X88463Y18875D02*
X88936D01*
X89131Y19212D02*
Y18504D01*
Y19212D02*
X89570D01*
X89131Y18875D02*
X89401D01*
X90208Y19212D02*
Y18504D01*
Y19212D02*
X90646D01*
X90208Y18875D02*
X90477D01*
X90727Y19212D02*
Y18504D01*
Y19212D02*
X90997Y18504D01*
X91267Y19212D02*
X90997Y18504D01*
X91267Y19212D02*
Y18504D01*
X92026Y19212D02*
Y18504D01*
Y19212D02*
X92330D01*
X92431Y19179D01*
X92465Y19145D01*
X92498Y19077D01*
Y19010D01*
X92465Y18943D01*
X92431Y18909D01*
X92330Y18875D01*
X92026D01*
X92262D02*
X92498Y18504D01*
X92657Y19212D02*
X93129Y18504D01*
Y19212D02*
X92657Y18504D01*
X93322Y18571D02*
X93288Y18538D01*
X93322Y18504D01*
X93355Y18538D01*
X93322Y18571D01*
X94017Y19044D02*
X93983Y19111D01*
X93915Y19179D01*
X93848Y19212D01*
X93713D01*
X93646Y19179D01*
X93578Y19111D01*
X93544Y19044D01*
X93511Y18943D01*
Y18774D01*
X93544Y18673D01*
X93578Y18605D01*
X93646Y18538D01*
X93713Y18504D01*
X93848D01*
X93915Y18538D01*
X93983Y18605D01*
X94017Y18673D01*
Y18774D01*
X93848D02*
X94017D01*
X94415Y19212D02*
Y18504D01*
X94179Y19212D02*
X94651D01*
X95208Y19111D02*
X95140Y19179D01*
X95039Y19212D01*
X94904D01*
X94803Y19179D01*
X94735Y19111D01*
Y19044D01*
X94769Y18976D01*
X94803Y18943D01*
X94870Y18909D01*
X95073Y18841D01*
X95140Y18808D01*
X95174Y18774D01*
X95208Y18706D01*
Y18605D01*
X95140Y18538D01*
X95039Y18504D01*
X94904D01*
X94803Y18538D01*
X94735Y18605D01*
X70709Y20787D02*
Y20079D01*
X70472Y20787D02*
X70945D01*
X71232D02*
X71164Y20754D01*
X71097Y20686D01*
X71063Y20619D01*
X71029Y20517D01*
Y20349D01*
X71063Y20247D01*
X71097Y20180D01*
X71164Y20112D01*
X71232Y20079D01*
X71367D01*
X71434Y20112D01*
X71501Y20180D01*
X71535Y20247D01*
X71569Y20349D01*
Y20517D01*
X71535Y20619D01*
X71501Y20686D01*
X71434Y20754D01*
X71367Y20787D01*
X71232D01*
X71734Y20416D02*
X72038D01*
X72139Y20450D01*
X72173Y20484D01*
X72207Y20551D01*
Y20652D01*
X72173Y20720D01*
X72139Y20754D01*
X72038Y20787D01*
X71734D01*
Y20079D01*
X73124Y20787D02*
X73057Y20754D01*
X72989Y20686D01*
X72956Y20619D01*
X72922Y20517D01*
Y20349D01*
X72956Y20247D01*
X72989Y20180D01*
X73057Y20112D01*
X73124Y20079D01*
X73259D01*
X73327Y20112D01*
X73394Y20180D01*
X73428Y20247D01*
X73462Y20349D01*
Y20517D01*
X73428Y20619D01*
X73394Y20686D01*
X73327Y20754D01*
X73259Y20787D01*
X73124D01*
X73627D02*
X73897Y20079D01*
X74167Y20787D02*
X73897Y20079D01*
X74697Y20787D02*
X74258D01*
Y20079D01*
X74697D01*
X74258Y20450D02*
X74528D01*
X74815Y20787D02*
Y20079D01*
Y20787D02*
X75118D01*
X75219Y20754D01*
X75253Y20720D01*
X75287Y20652D01*
Y20585D01*
X75253Y20517D01*
X75219Y20484D01*
X75118Y20450D01*
X74815D01*
X75051D02*
X75287Y20079D01*
X75445Y20787D02*
Y20079D01*
X75850D01*
X76468D02*
X76198Y20787D01*
X75928Y20079D01*
X76029Y20315D02*
X76367D01*
X76633Y20787D02*
X76903Y20450D01*
Y20079D01*
X77173Y20787D02*
X76903Y20450D01*
X78057Y20922D02*
X77989Y20855D01*
X77922Y20754D01*
X77854Y20619D01*
X77821Y20450D01*
Y20315D01*
X77854Y20146D01*
X77922Y20011D01*
X77989Y19910D01*
X78057Y19843D01*
X77989Y20855D02*
X77922Y20720D01*
X77888Y20619D01*
X77854Y20450D01*
Y20315D01*
X77888Y20146D01*
X77922Y20045D01*
X77989Y19910D01*
X78664Y20686D02*
X78597Y20754D01*
X78495Y20787D01*
X78361D01*
X78259Y20754D01*
X78192Y20686D01*
Y20619D01*
X78226Y20551D01*
X78259Y20517D01*
X78327Y20484D01*
X78529Y20416D01*
X78597Y20382D01*
X78630Y20349D01*
X78664Y20281D01*
Y20180D01*
X78597Y20112D01*
X78495Y20079D01*
X78361D01*
X78259Y20112D01*
X78192Y20180D01*
X78823Y20787D02*
Y20079D01*
X78971Y20787D02*
Y20079D01*
X79376D01*
X79454Y20787D02*
Y20079D01*
X79926Y20787D02*
X79454Y20315D01*
X79622Y20484D02*
X79926Y20079D01*
X80557Y20686D02*
X80489Y20754D01*
X80388Y20787D01*
X80253D01*
X80152Y20754D01*
X80085Y20686D01*
Y20619D01*
X80118Y20551D01*
X80152Y20517D01*
X80220Y20484D01*
X80422Y20416D01*
X80489Y20382D01*
X80523Y20349D01*
X80557Y20281D01*
Y20180D01*
X80489Y20112D01*
X80388Y20079D01*
X80253D01*
X80152Y20112D01*
X80085Y20180D01*
X81222Y20619D02*
X81188Y20686D01*
X81120Y20754D01*
X81053Y20787D01*
X80918D01*
X80850Y20754D01*
X80783Y20686D01*
X80749Y20619D01*
X80715Y20517D01*
Y20349D01*
X80749Y20247D01*
X80783Y20180D01*
X80850Y20112D01*
X80918Y20079D01*
X81053D01*
X81120Y20112D01*
X81188Y20180D01*
X81222Y20247D01*
X81421Y20787D02*
Y20079D01*
Y20787D02*
X81724D01*
X81825Y20754D01*
X81859Y20720D01*
X81893Y20652D01*
Y20585D01*
X81859Y20517D01*
X81825Y20484D01*
X81724Y20450D01*
X81421D01*
X81657D02*
X81893Y20079D01*
X82490Y20787D02*
X82052D01*
Y20079D01*
X82490D01*
X82052Y20450D02*
X82321D01*
X83047Y20787D02*
X82608D01*
Y20079D01*
X83047D01*
X82608Y20450D02*
X82878D01*
X83165Y20787D02*
Y20079D01*
Y20787D02*
X83637Y20079D01*
Y20787D02*
Y20079D01*
X83833Y20922D02*
X83900Y20855D01*
X83968Y20754D01*
X84035Y20619D01*
X84069Y20450D01*
Y20315D01*
X84035Y20146D01*
X83968Y20011D01*
X83900Y19910D01*
X83833Y19843D01*
X83900Y20855D02*
X83968Y20720D01*
X84002Y20619D01*
X84035Y20450D01*
Y20315D01*
X84002Y20146D01*
X83968Y20045D01*
X83900Y19910D01*
X87795Y14488D02*
Y13982D01*
X87829Y13881D01*
X87896Y13813D01*
X87998Y13780D01*
X88065D01*
X88166Y13813D01*
X88234Y13881D01*
X88268Y13982D01*
Y14488D01*
X88463D02*
Y13780D01*
X88936Y14488D02*
Y13780D01*
X88463Y14151D02*
X88936D01*
X89131Y14488D02*
Y13780D01*
Y14488D02*
X89570D01*
X89131Y14151D02*
X89401D01*
X90208Y14488D02*
Y13780D01*
Y14488D02*
X90646D01*
X90208Y14151D02*
X90477D01*
X90727Y14488D02*
Y13780D01*
Y14488D02*
X90997Y13780D01*
X91267Y14488D02*
X90997Y13780D01*
X91267Y14488D02*
Y13780D01*
X92026Y14488D02*
Y13780D01*
Y14488D02*
X92330D01*
X92431Y14454D01*
X92465Y14421D01*
X92498Y14353D01*
Y14286D01*
X92465Y14218D01*
X92431Y14184D01*
X92330Y14151D01*
X92026D01*
X92262D02*
X92498Y13780D01*
X92657Y14488D02*
X93129Y13780D01*
Y14488D02*
X92657Y13780D01*
X93322Y13847D02*
X93288Y13813D01*
X93322Y13780D01*
X93355Y13813D01*
X93322Y13847D01*
X94017Y14319D02*
X93983Y14387D01*
X93915Y14454D01*
X93848Y14488D01*
X93713D01*
X93646Y14454D01*
X93578Y14387D01*
X93544Y14319D01*
X93511Y14218D01*
Y14049D01*
X93544Y13948D01*
X93578Y13881D01*
X93646Y13813D01*
X93713Y13780D01*
X93848D01*
X93915Y13813D01*
X93983Y13881D01*
X94017Y13948D01*
Y14049D01*
X93848D02*
X94017D01*
X94179Y14488D02*
Y13780D01*
Y14488D02*
X94482D01*
X94583Y14454D01*
X94617Y14421D01*
X94651Y14353D01*
Y14286D01*
X94617Y14218D01*
X94583Y14184D01*
X94482Y14151D01*
X94179D02*
X94482D01*
X94583Y14117D01*
X94617Y14083D01*
X94651Y14016D01*
Y13914D01*
X94617Y13847D01*
X94583Y13813D01*
X94482Y13780D01*
X94179D01*
X95282Y14387D02*
X95214Y14454D01*
X95113Y14488D01*
X94978D01*
X94877Y14454D01*
X94810Y14387D01*
Y14319D01*
X94843Y14252D01*
X94877Y14218D01*
X94944Y14184D01*
X95147Y14117D01*
X95214Y14083D01*
X95248Y14049D01*
X95282Y13982D01*
Y13881D01*
X95214Y13813D01*
X95113Y13780D01*
X94978D01*
X94877Y13813D01*
X94810Y13881D01*
X70709Y19212D02*
Y18504D01*
X70472Y19212D02*
X70945D01*
X71232D02*
X71164Y19179D01*
X71097Y19111D01*
X71063Y19044D01*
X71029Y18943D01*
Y18774D01*
X71063Y18673D01*
X71097Y18605D01*
X71164Y18538D01*
X71232Y18504D01*
X71367D01*
X71434Y18538D01*
X71501Y18605D01*
X71535Y18673D01*
X71569Y18774D01*
Y18943D01*
X71535Y19044D01*
X71501Y19111D01*
X71434Y19179D01*
X71367Y19212D01*
X71232D01*
X71734Y18841D02*
X72038D01*
X72139Y18875D01*
X72173Y18909D01*
X72207Y18976D01*
Y19077D01*
X72173Y19145D01*
X72139Y19179D01*
X72038Y19212D01*
X71734D01*
Y18504D01*
X73394Y19111D02*
X73327Y19179D01*
X73226Y19212D01*
X73091D01*
X72989Y19179D01*
X72922Y19111D01*
Y19044D01*
X72956Y18976D01*
X72989Y18943D01*
X73057Y18909D01*
X73259Y18841D01*
X73327Y18808D01*
X73360Y18774D01*
X73394Y18706D01*
Y18605D01*
X73327Y18538D01*
X73226Y18504D01*
X73091D01*
X72989Y18538D01*
X72922Y18605D01*
X73755Y19212D02*
X73688Y19179D01*
X73620Y19111D01*
X73587Y19044D01*
X73553Y18943D01*
Y18774D01*
X73587Y18673D01*
X73620Y18605D01*
X73688Y18538D01*
X73755Y18504D01*
X73890D01*
X73958Y18538D01*
X74025Y18605D01*
X74059Y18673D01*
X74093Y18774D01*
Y18943D01*
X74059Y19044D01*
X74025Y19111D01*
X73958Y19179D01*
X73890Y19212D01*
X73755D01*
X74258D02*
Y18504D01*
X74663D01*
X74740Y19212D02*
Y18504D01*
Y19212D02*
X74977D01*
X75078Y19179D01*
X75145Y19111D01*
X75179Y19044D01*
X75213Y18943D01*
Y18774D01*
X75179Y18673D01*
X75145Y18605D01*
X75078Y18538D01*
X74977Y18504D01*
X74740D01*
X75810Y19212D02*
X75371D01*
Y18504D01*
X75810D01*
X75371Y18875D02*
X75641D01*
X75928Y19212D02*
Y18504D01*
Y19212D02*
X76232D01*
X76333Y19179D01*
X76367Y19145D01*
X76400Y19077D01*
Y19010D01*
X76367Y18943D01*
X76333Y18909D01*
X76232Y18875D01*
X75928D01*
X76164D02*
X76400Y18504D01*
X77116Y19212D02*
Y18504D01*
Y19212D02*
X77385Y18504D01*
X77655Y19212D02*
X77385Y18504D01*
X77655Y19212D02*
Y18504D01*
X78398D02*
X78128Y19212D01*
X77858Y18504D01*
X77959Y18740D02*
X78296D01*
X79035Y19111D02*
X78968Y19179D01*
X78867Y19212D01*
X78732D01*
X78630Y19179D01*
X78563Y19111D01*
Y19044D01*
X78597Y18976D01*
X78630Y18943D01*
X78698Y18909D01*
X78900Y18841D01*
X78968Y18808D01*
X79002Y18774D01*
X79035Y18706D01*
Y18605D01*
X78968Y18538D01*
X78867Y18504D01*
X78732D01*
X78630Y18538D01*
X78563Y18605D01*
X79194Y19212D02*
Y18504D01*
X79666Y19212D02*
X79194Y18740D01*
X79363Y18909D02*
X79666Y18504D01*
X87795Y11338D02*
Y10832D01*
X87829Y10731D01*
X87896Y10664D01*
X87998Y10630D01*
X88065D01*
X88166Y10664D01*
X88234Y10731D01*
X88268Y10832D01*
Y11338D01*
X88463D02*
Y10630D01*
X88936Y11338D02*
Y10630D01*
X88463Y11001D02*
X88936D01*
X89131Y11338D02*
Y10630D01*
Y11338D02*
X89570D01*
X89131Y11001D02*
X89401D01*
X90208Y11338D02*
Y10630D01*
Y11338D02*
X90646D01*
X90208Y11001D02*
X90477D01*
X90727Y11338D02*
Y10630D01*
Y11338D02*
X90997Y10630D01*
X91267Y11338D02*
X90997Y10630D01*
X91267Y11338D02*
Y10630D01*
X92026Y11338D02*
Y10630D01*
Y11338D02*
X92330D01*
X92431Y11305D01*
X92465Y11271D01*
X92498Y11203D01*
Y11136D01*
X92465Y11069D01*
X92431Y11035D01*
X92330Y11001D01*
X92026D01*
X92262D02*
X92498Y10630D01*
X92657Y11338D02*
X93129Y10630D01*
Y11338D02*
X92657Y10630D01*
X93322Y10697D02*
X93288Y10664D01*
X93322Y10630D01*
X93355Y10664D01*
X93322Y10697D01*
X94017Y11170D02*
X93983Y11237D01*
X93915Y11305D01*
X93848Y11338D01*
X93713D01*
X93646Y11305D01*
X93578Y11237D01*
X93544Y11170D01*
X93511Y11069D01*
Y10900D01*
X93544Y10799D01*
X93578Y10731D01*
X93646Y10664D01*
X93713Y10630D01*
X93848D01*
X93915Y10664D01*
X93983Y10731D01*
X94017Y10799D01*
Y10900D01*
X93848D02*
X94017D01*
X94179Y11338D02*
Y10630D01*
Y11338D02*
X94415D01*
X94516Y11305D01*
X94583Y11237D01*
X94617Y11170D01*
X94651Y11069D01*
Y10900D01*
X94617Y10799D01*
X94583Y10731D01*
X94516Y10664D01*
X94415Y10630D01*
X94179D01*
X94810Y11203D02*
X94877Y11237D01*
X94978Y11338D01*
Y10630D01*
X87795Y16063D02*
Y15557D01*
X87829Y15456D01*
X87896Y15388D01*
X87998Y15354D01*
X88065D01*
X88166Y15388D01*
X88234Y15456D01*
X88268Y15557D01*
Y16063D01*
X88463D02*
Y15354D01*
X88936Y16063D02*
Y15354D01*
X88463Y15725D02*
X88936D01*
X89131Y16063D02*
Y15354D01*
Y16063D02*
X89570D01*
X89131Y15725D02*
X89401D01*
X90208Y16063D02*
Y15354D01*
Y16063D02*
X90646D01*
X90208Y15725D02*
X90477D01*
X90727Y16063D02*
Y15354D01*
Y16063D02*
X90997Y15354D01*
X91267Y16063D02*
X90997Y15354D01*
X91267Y16063D02*
Y15354D01*
X92026Y16063D02*
Y15354D01*
Y16063D02*
X92330D01*
X92431Y16029D01*
X92465Y15995D01*
X92498Y15928D01*
Y15860D01*
X92465Y15793D01*
X92431Y15759D01*
X92330Y15725D01*
X92026D01*
X92262D02*
X92498Y15354D01*
X92657Y16063D02*
X93129Y15354D01*
Y16063D02*
X92657Y15354D01*
X93322Y15422D02*
X93288Y15388D01*
X93322Y15354D01*
X93355Y15388D01*
X93322Y15422D01*
X94017Y15894D02*
X93983Y15962D01*
X93915Y16029D01*
X93848Y16063D01*
X93713D01*
X93646Y16029D01*
X93578Y15962D01*
X93544Y15894D01*
X93511Y15793D01*
Y15624D01*
X93544Y15523D01*
X93578Y15456D01*
X93646Y15388D01*
X93713Y15354D01*
X93848D01*
X93915Y15388D01*
X93983Y15456D01*
X94017Y15523D01*
Y15624D01*
X93848D02*
X94017D01*
X94179Y16063D02*
Y15354D01*
Y16063D02*
X94482D01*
X94583Y16029D01*
X94617Y15995D01*
X94651Y15928D01*
Y15860D01*
X94617Y15793D01*
X94583Y15759D01*
X94482Y15725D01*
X94179D02*
X94482D01*
X94583Y15692D01*
X94617Y15658D01*
X94651Y15590D01*
Y15489D01*
X94617Y15422D01*
X94583Y15388D01*
X94482Y15354D01*
X94179D01*
X94810Y16063D02*
Y15354D01*
X95214D01*
X87795Y17638D02*
Y17132D01*
X87829Y17030D01*
X87896Y16963D01*
X87998Y16929D01*
X88065D01*
X88166Y16963D01*
X88234Y17030D01*
X88268Y17132D01*
Y17638D01*
X88463D02*
Y16929D01*
X88936Y17638D02*
Y16929D01*
X88463Y17300D02*
X88936D01*
X89131Y17638D02*
Y16929D01*
Y17638D02*
X89570D01*
X89131Y17300D02*
X89401D01*
X90208Y17638D02*
Y16929D01*
Y17638D02*
X90646D01*
X90208Y17300D02*
X90477D01*
X90727Y17638D02*
Y16929D01*
Y17638D02*
X90997Y16929D01*
X91267Y17638D02*
X90997Y16929D01*
X91267Y17638D02*
Y16929D01*
X92026Y17638D02*
Y16929D01*
Y17638D02*
X92330D01*
X92431Y17604D01*
X92465Y17570D01*
X92498Y17503D01*
Y17435D01*
X92465Y17368D01*
X92431Y17334D01*
X92330Y17300D01*
X92026D01*
X92262D02*
X92498Y16929D01*
X92657Y17638D02*
X93129Y16929D01*
Y17638D02*
X92657Y16929D01*
X93322Y16997D02*
X93288Y16963D01*
X93322Y16929D01*
X93355Y16963D01*
X93322Y16997D01*
X94017Y17469D02*
X93983Y17536D01*
X93915Y17604D01*
X93848Y17638D01*
X93713D01*
X93646Y17604D01*
X93578Y17536D01*
X93544Y17469D01*
X93511Y17368D01*
Y17199D01*
X93544Y17098D01*
X93578Y17030D01*
X93646Y16963D01*
X93713Y16929D01*
X93848D01*
X93915Y16963D01*
X93983Y17030D01*
X94017Y17098D01*
Y17199D01*
X93848D02*
X94017D01*
X94415Y17638D02*
Y16929D01*
X94179Y17638D02*
X94651D01*
X94735D02*
Y16929D01*
X95140D01*
X98661Y-16198D02*
X98729Y-16164D01*
X98830Y-16063D01*
Y-16772D01*
X99215Y-16704D02*
X99181Y-16738D01*
X99215Y-16772D01*
X99248Y-16738D01*
X99215Y-16704D01*
X99606Y-16063D02*
X99505Y-16097D01*
X99437Y-16198D01*
X99404Y-16367D01*
Y-16468D01*
X99437Y-16637D01*
X99505Y-16738D01*
X99606Y-16772D01*
X99674D01*
X99775Y-16738D01*
X99842Y-16637D01*
X99876Y-16468D01*
Y-16367D01*
X99842Y-16198D01*
X99775Y-16097D01*
X99674Y-16063D01*
X99606D01*
X86614Y-13662D02*
Y-14168D01*
X86648Y-14269D01*
X86715Y-14336D01*
X86817Y-14370D01*
X86884D01*
X86985Y-14336D01*
X87053Y-14269D01*
X87087Y-14168D01*
Y-13662D01*
X87282D02*
Y-14370D01*
X87755Y-13662D02*
Y-14370D01*
X87282Y-13999D02*
X87755D01*
X87950Y-13662D02*
Y-14370D01*
Y-13662D02*
X88389D01*
X87950Y-13999D02*
X88220D01*
X89026Y-13662D02*
Y-14370D01*
Y-13662D02*
X89465D01*
X89026Y-13999D02*
X89296D01*
X89546Y-13662D02*
Y-14370D01*
Y-13662D02*
X89816Y-14370D01*
X90086Y-13662D02*
X89816Y-14370D01*
X90086Y-13662D02*
Y-14370D01*
X90845Y-13662D02*
Y-14370D01*
Y-13662D02*
X91149D01*
X91250Y-13695D01*
X91284Y-13729D01*
X91317Y-13797D01*
Y-13864D01*
X91284Y-13931D01*
X91250Y-13965D01*
X91149Y-13999D01*
X90845D01*
X91081D02*
X91317Y-14370D01*
X91476Y-13662D02*
X91948Y-14370D01*
Y-13662D02*
X91476Y-14370D01*
X73358Y-14668D02*
X73324Y-14601D01*
X73223Y-14567D01*
X73155D01*
X73054Y-14601D01*
X72986Y-14702D01*
X72953Y-14871D01*
Y-15039D01*
X72986Y-15174D01*
X73054Y-15242D01*
X73155Y-15276D01*
X73189D01*
X73290Y-15242D01*
X73358Y-15174D01*
X73391Y-15073D01*
Y-15039D01*
X73358Y-14938D01*
X73290Y-14871D01*
X73189Y-14837D01*
X73155D01*
X73054Y-14871D01*
X72986Y-14938D01*
X72953Y-15039D01*
X71715Y-14567D02*
X71378Y-15039D01*
X71884D01*
X71715Y-14567D02*
Y-15276D01*
X69871Y-14567D02*
X70242D01*
X70039Y-14837D01*
X70141D01*
X70208Y-14871D01*
X70242Y-14904D01*
X70275Y-15006D01*
Y-15073D01*
X70242Y-15174D01*
X70174Y-15242D01*
X70073Y-15276D01*
X69972D01*
X69871Y-15242D01*
X69837Y-15208D01*
X69803Y-15141D01*
X71496Y-12340D02*
X71564Y-12306D01*
X71665Y-12205D01*
Y-12913D01*
X52165Y53937D02*
X52401D01*
X52283D01*
Y54645D01*
X52165Y54527D01*
X53543Y54646D02*
Y53937D01*
Y54646D02*
X53813Y53937D01*
X54083Y54646D02*
X53813Y53937D01*
X54083Y54646D02*
Y53937D01*
X54825D02*
X54555Y54646D01*
X54286Y53937D01*
X54387Y54173D02*
X54724D01*
X55227Y54646D02*
Y53937D01*
X54991Y54646D02*
X55463D01*
X55986D02*
X55547D01*
Y53937D01*
X55986D01*
X55547Y54308D02*
X55817D01*
X56104Y54646D02*
Y53937D01*
Y54646D02*
X56408D01*
X56509Y54612D01*
X56543Y54578D01*
X56576Y54511D01*
Y54443D01*
X56543Y54376D01*
X56509Y54342D01*
X56408Y54308D01*
X56104D01*
X56340D02*
X56576Y53937D01*
X56735Y54646D02*
Y53937D01*
X57423D02*
X57153Y54646D01*
X56883Y53937D01*
X56985Y54173D02*
X57322D01*
X57589Y54646D02*
Y53937D01*
X57993D01*
X58661Y54409D02*
X58628Y54376D01*
X58661Y54342D01*
X58695Y54376D01*
X58661Y54409D01*
Y54004D02*
X58628Y53971D01*
X58661Y53937D01*
X58695Y53971D01*
X58661Y54004D01*
X53543Y52283D02*
Y51575D01*
Y52283D02*
X53847D01*
X53948Y52250D01*
X53982Y52216D01*
X54016Y52148D01*
Y52081D01*
X53982Y52013D01*
X53948Y51980D01*
X53847Y51946D01*
X53543D02*
X53847D01*
X53948Y51912D01*
X53982Y51878D01*
X54016Y51811D01*
Y51710D01*
X53982Y51642D01*
X53948Y51609D01*
X53847Y51575D01*
X53543D01*
X54174Y52418D02*
X54242Y52351D01*
X54309Y52250D01*
X54377Y52115D01*
X54410Y51946D01*
Y51811D01*
X54377Y51642D01*
X54309Y51507D01*
X54242Y51406D01*
X54174Y51339D01*
X54242Y52351D02*
X54309Y52216D01*
X54343Y52115D01*
X54377Y51946D01*
Y51811D01*
X54343Y51642D01*
X54309Y51541D01*
X54242Y51406D01*
X55139Y52148D02*
X55207Y52182D01*
X55308Y52283D01*
Y51575D01*
X55827Y52047D02*
X55760Y52013D01*
X55692Y51946D01*
X55659Y51845D01*
Y51777D01*
X55692Y51676D01*
X55760Y51609D01*
X55827Y51575D01*
X55929D01*
X55996Y51609D01*
X56064Y51676D01*
X56097Y51777D01*
Y51845D01*
X56064Y51946D01*
X55996Y52013D01*
X55929Y52047D01*
X55827D01*
X56624D02*
X56253Y51575D01*
Y52047D02*
X56624D01*
X56253Y51575D02*
X56624D01*
X57835Y52115D02*
X57801Y52182D01*
X57734Y52250D01*
X57666Y52283D01*
X57531D01*
X57464Y52250D01*
X57396Y52182D01*
X57363Y52115D01*
X57329Y52013D01*
Y51845D01*
X57363Y51743D01*
X57396Y51676D01*
X57464Y51609D01*
X57531Y51575D01*
X57666D01*
X57734Y51609D01*
X57801Y51676D01*
X57835Y51743D01*
X58236Y52283D02*
X58169Y52250D01*
X58101Y52182D01*
X58068Y52115D01*
X58034Y52013D01*
Y51845D01*
X58068Y51743D01*
X58101Y51676D01*
X58169Y51609D01*
X58236Y51575D01*
X58371D01*
X58439Y51609D01*
X58506Y51676D01*
X58540Y51743D01*
X58574Y51845D01*
Y52013D01*
X58540Y52115D01*
X58506Y52182D01*
X58439Y52250D01*
X58371Y52283D01*
X58236D01*
X58739Y51912D02*
X59043D01*
X59144Y51946D01*
X59178Y51980D01*
X59211Y52047D01*
Y52148D01*
X59178Y52216D01*
X59144Y52250D01*
X59043Y52283D01*
X58739D01*
Y51575D01*
X59370Y51912D02*
X59674D01*
X59775Y51946D01*
X59809Y51980D01*
X59842Y52047D01*
Y52148D01*
X59809Y52216D01*
X59775Y52250D01*
X59674Y52283D01*
X59370D01*
Y51575D01*
X60439Y52283D02*
X60001D01*
Y51575D01*
X60439D01*
X60001Y51946D02*
X60271D01*
X60558Y52283D02*
Y51575D01*
Y52283D02*
X60861D01*
X60962Y52250D01*
X60996Y52216D01*
X61030Y52148D01*
Y52081D01*
X60996Y52013D01*
X60962Y51980D01*
X60861Y51946D01*
X60558D01*
X60794D02*
X61030Y51575D01*
X61745Y52283D02*
Y51575D01*
Y52283D02*
X62217Y51575D01*
Y52283D02*
Y51575D01*
X62616Y52283D02*
X62548Y52250D01*
X62481Y52182D01*
X62447Y52115D01*
X62413Y52013D01*
Y51845D01*
X62447Y51743D01*
X62481Y51676D01*
X62548Y51609D01*
X62616Y51575D01*
X62751D01*
X62818Y51609D01*
X62886Y51676D01*
X62919Y51743D01*
X62953Y51845D01*
Y52013D01*
X62919Y52115D01*
X62886Y52182D01*
X62818Y52250D01*
X62751Y52283D01*
X62616D01*
X63118D02*
Y51575D01*
Y52283D02*
X63388Y51575D01*
X63658Y52283D02*
X63388Y51575D01*
X63658Y52283D02*
Y51575D01*
X63861Y52283D02*
Y51575D01*
X64009Y52283D02*
Y51575D01*
Y52283D02*
X64481Y51575D01*
Y52283D02*
Y51575D01*
X65217D02*
X64947Y52283D01*
X64677Y51575D01*
X64778Y51811D02*
X65116D01*
X65382Y52283D02*
Y51575D01*
X65787D01*
X54049Y50934D02*
X54016Y51001D01*
X53948Y51068D01*
X53881Y51102D01*
X53746D01*
X53678Y51068D01*
X53611Y51001D01*
X53577Y50934D01*
X53543Y50832D01*
Y50664D01*
X53577Y50562D01*
X53611Y50495D01*
X53678Y50427D01*
X53746Y50394D01*
X53881D01*
X53948Y50427D01*
X54016Y50495D01*
X54049Y50562D01*
X54248Y51237D02*
X54316Y51170D01*
X54383Y51068D01*
X54451Y50934D01*
X54485Y50765D01*
Y50630D01*
X54451Y50461D01*
X54383Y50326D01*
X54316Y50225D01*
X54248Y50158D01*
X54316Y51170D02*
X54383Y51035D01*
X54417Y50934D01*
X54451Y50765D01*
Y50630D01*
X54417Y50461D01*
X54383Y50360D01*
X54316Y50225D01*
X55213Y51102D02*
Y50394D01*
Y51102D02*
X55652D01*
X55213Y50765D02*
X55483D01*
X55733Y51102D02*
Y50394D01*
X55881Y51102D02*
Y50394D01*
Y51102D02*
X56354Y50394D01*
Y51102D02*
Y50394D01*
X56549Y51102D02*
Y50394D01*
X57170Y51001D02*
X57103Y51068D01*
X57002Y51102D01*
X56867D01*
X56765Y51068D01*
X56698Y51001D01*
Y50934D01*
X56732Y50866D01*
X56765Y50832D01*
X56833Y50799D01*
X57035Y50731D01*
X57103Y50697D01*
X57136Y50664D01*
X57170Y50596D01*
Y50495D01*
X57103Y50427D01*
X57002Y50394D01*
X56867D01*
X56765Y50427D01*
X56698Y50495D01*
X57329Y51102D02*
Y50394D01*
X57801Y51102D02*
Y50394D01*
X57329Y50765D02*
X57801D01*
X58435Y51102D02*
X57997D01*
Y50394D01*
X58435D01*
X57997Y50765D02*
X58267D01*
X58553Y51102D02*
Y50394D01*
Y51102D02*
X58790D01*
X58891Y51068D01*
X58958Y51001D01*
X58992Y50934D01*
X59026Y50832D01*
Y50664D01*
X58992Y50562D01*
X58958Y50495D01*
X58891Y50427D01*
X58790Y50394D01*
X58553D01*
X59977Y51102D02*
Y50394D01*
X59741Y51102D02*
X60213D01*
X60298D02*
Y50394D01*
X60770Y51102D02*
Y50394D01*
X60298Y50765D02*
X60770D01*
X60966Y51102D02*
Y50394D01*
X61620Y50934D02*
X61587Y51001D01*
X61519Y51068D01*
X61452Y51102D01*
X61317D01*
X61249Y51068D01*
X61182Y51001D01*
X61148Y50934D01*
X61114Y50832D01*
Y50664D01*
X61148Y50562D01*
X61182Y50495D01*
X61249Y50427D01*
X61317Y50394D01*
X61452D01*
X61519Y50427D01*
X61587Y50495D01*
X61620Y50562D01*
X61819Y51102D02*
Y50394D01*
X62292Y51102D02*
X61819Y50630D01*
X61988Y50799D02*
X62292Y50394D01*
X62450Y51102D02*
Y50394D01*
Y51102D02*
X62923Y50394D01*
Y51102D02*
Y50394D01*
X63557Y51102D02*
X63118D01*
Y50394D01*
X63557D01*
X63118Y50765D02*
X63388D01*
X64147Y51001D02*
X64080Y51068D01*
X63979Y51102D01*
X63844D01*
X63742Y51068D01*
X63675Y51001D01*
Y50934D01*
X63709Y50866D01*
X63742Y50832D01*
X63810Y50799D01*
X64012Y50731D01*
X64080Y50697D01*
X64114Y50664D01*
X64147Y50596D01*
Y50495D01*
X64080Y50427D01*
X63979Y50394D01*
X63844D01*
X63742Y50427D01*
X63675Y50495D01*
X64778Y51001D02*
X64711Y51068D01*
X64610Y51102D01*
X64475D01*
X64373Y51068D01*
X64306Y51001D01*
Y50934D01*
X64340Y50866D01*
X64373Y50832D01*
X64441Y50799D01*
X64643Y50731D01*
X64711Y50697D01*
X64745Y50664D01*
X64778Y50596D01*
Y50495D01*
X64711Y50427D01*
X64610Y50394D01*
X64475D01*
X64373Y50427D01*
X64306Y50495D01*
X64971Y50866D02*
X64937Y50832D01*
X64971Y50799D01*
X65004Y50832D01*
X64971Y50866D01*
Y50461D02*
X64937Y50427D01*
X64971Y50394D01*
X65004Y50427D01*
X64971Y50461D01*
X65716Y50967D02*
X65784Y51001D01*
X65885Y51102D01*
Y50394D01*
X66269Y50461D02*
X66236Y50427D01*
X66269Y50394D01*
X66303Y50427D01*
X66269Y50461D01*
X66863Y51001D02*
X66830Y51068D01*
X66728Y51102D01*
X66661D01*
X66560Y51068D01*
X66492Y50967D01*
X66458Y50799D01*
Y50630D01*
X66492Y50495D01*
X66560Y50427D01*
X66661Y50394D01*
X66695D01*
X66796Y50427D01*
X66863Y50495D01*
X66897Y50596D01*
Y50630D01*
X66863Y50731D01*
X66796Y50799D01*
X66695Y50832D01*
X66661D01*
X66560Y50799D01*
X66492Y50731D01*
X66458Y50630D01*
X67052Y50866D02*
Y50394D01*
Y50731D02*
X67153Y50832D01*
X67221Y50866D01*
X67322D01*
X67390Y50832D01*
X67423Y50731D01*
Y50394D01*
Y50731D02*
X67525Y50832D01*
X67592Y50866D01*
X67693D01*
X67761Y50832D01*
X67794Y50731D01*
Y50394D01*
X68017Y50866D02*
Y50394D01*
Y50731D02*
X68118Y50832D01*
X68186Y50866D01*
X68287D01*
X68355Y50832D01*
X68388Y50731D01*
Y50394D01*
Y50731D02*
X68489Y50832D01*
X68557Y50866D01*
X68658D01*
X68726Y50832D01*
X68759Y50731D01*
Y50394D01*
X69539Y51102D02*
Y50394D01*
Y51102D02*
X70011Y50394D01*
Y51102D02*
Y50394D01*
X70409Y51102D02*
X70342Y51068D01*
X70274Y51001D01*
X70241Y50934D01*
X70207Y50832D01*
Y50664D01*
X70241Y50562D01*
X70274Y50495D01*
X70342Y50427D01*
X70409Y50394D01*
X70544D01*
X70612Y50427D01*
X70679Y50495D01*
X70713Y50562D01*
X70747Y50664D01*
Y50832D01*
X70713Y50934D01*
X70679Y51001D01*
X70612Y51068D01*
X70544Y51102D01*
X70409D01*
X70912D02*
Y50394D01*
Y51102D02*
X71182Y50394D01*
X71452Y51102D02*
X71182Y50394D01*
X71452Y51102D02*
Y50394D01*
X71654Y51102D02*
Y50394D01*
X71803Y51102D02*
Y50394D01*
Y51102D02*
X72275Y50394D01*
Y51102D02*
Y50394D01*
X73010D02*
X72741Y51102D01*
X72471Y50394D01*
X72572Y50630D02*
X72909D01*
X73176Y51102D02*
Y50394D01*
X73581D01*
X52638Y48819D02*
X52165D01*
X52638Y49291D01*
Y49409D01*
X52520Y49527D01*
X52283D01*
X52165Y49409D01*
X52874Y48819D02*
Y48937D01*
X52992D01*
Y48819D01*
X52874D01*
X54083Y47244D02*
X53813Y47953D01*
X53543Y47244D01*
X53645Y47480D02*
X53982D01*
X54248Y48088D02*
X54316Y48020D01*
X54383Y47919D01*
X54451Y47784D01*
X54485Y47615D01*
Y47480D01*
X54451Y47312D01*
X54383Y47177D01*
X54316Y47075D01*
X54248Y47008D01*
X54316Y48020D02*
X54383Y47885D01*
X54417Y47784D01*
X54451Y47615D01*
Y47480D01*
X54417Y47312D01*
X54383Y47210D01*
X54316Y47075D01*
X55686Y47851D02*
X55618Y47919D01*
X55517Y47953D01*
X55382D01*
X55281Y47919D01*
X55213Y47851D01*
Y47784D01*
X55247Y47716D01*
X55281Y47683D01*
X55348Y47649D01*
X55551Y47581D01*
X55618Y47548D01*
X55652Y47514D01*
X55686Y47447D01*
Y47345D01*
X55618Y47278D01*
X55517Y47244D01*
X55382D01*
X55281Y47278D01*
X55213Y47345D01*
X56283Y47953D02*
X55844D01*
Y47244D01*
X56283D01*
X55844Y47615D02*
X56114D01*
X56840Y47953D02*
X56401D01*
Y47244D01*
X56840D01*
X56401Y47615D02*
X56671D01*
X57514Y47953D02*
Y47244D01*
Y47953D02*
X57751D01*
X57852Y47919D01*
X57919Y47851D01*
X57953Y47784D01*
X57987Y47683D01*
Y47514D01*
X57953Y47413D01*
X57919Y47345D01*
X57852Y47278D01*
X57751Y47244D01*
X57514D01*
X58145Y47953D02*
Y47244D01*
Y47953D02*
X58449D01*
X58550Y47919D01*
X58584Y47885D01*
X58618Y47818D01*
Y47750D01*
X58584Y47683D01*
X58550Y47649D01*
X58449Y47615D01*
X58145D01*
X58381D02*
X58618Y47244D01*
X58776Y47953D02*
Y47244D01*
X58925Y47953D02*
Y47244D01*
X59329D01*
X59407Y47953D02*
Y47244D01*
X59812D01*
X60682Y47953D02*
Y47244D01*
X60446Y47953D02*
X60919D01*
X61543Y47244D02*
X61273Y47953D01*
X61003Y47244D01*
X61104Y47480D02*
X61441D01*
X61708Y47953D02*
Y47244D01*
Y47953D02*
X62012D01*
X62113Y47919D01*
X62147Y47885D01*
X62180Y47818D01*
Y47750D01*
X62147Y47683D01*
X62113Y47649D01*
X62012Y47615D01*
X61708D02*
X62012D01*
X62113Y47581D01*
X62147Y47548D01*
X62180Y47480D01*
Y47379D01*
X62147Y47312D01*
X62113Y47278D01*
X62012Y47244D01*
X61708D01*
X62339Y47953D02*
Y47244D01*
X62744D01*
X63260Y47953D02*
X62821D01*
Y47244D01*
X63260D01*
X62821Y47615D02*
X63091D01*
X63935Y47953D02*
Y47244D01*
Y47953D02*
X64373D01*
X63935Y47615D02*
X64205D01*
X64657Y47953D02*
X64589Y47919D01*
X64522Y47851D01*
X64488Y47784D01*
X64454Y47683D01*
Y47514D01*
X64488Y47413D01*
X64522Y47345D01*
X64589Y47278D01*
X64657Y47244D01*
X64792D01*
X64859Y47278D01*
X64927Y47345D01*
X64960Y47413D01*
X64994Y47514D01*
Y47683D01*
X64960Y47784D01*
X64927Y47851D01*
X64859Y47919D01*
X64792Y47953D01*
X64657D01*
X65159D02*
Y47244D01*
Y47953D02*
X65463D01*
X65564Y47919D01*
X65598Y47885D01*
X65632Y47818D01*
Y47750D01*
X65598Y47683D01*
X65564Y47649D01*
X65463Y47615D01*
X65159D01*
X65396D02*
X65632Y47244D01*
X66347Y47953D02*
Y47244D01*
X66819Y47953D02*
Y47244D01*
X66347Y47615D02*
X66819D01*
X67218Y47953D02*
X67150Y47919D01*
X67083Y47851D01*
X67049Y47784D01*
X67015Y47683D01*
Y47514D01*
X67049Y47413D01*
X67083Y47345D01*
X67150Y47278D01*
X67218Y47244D01*
X67352D01*
X67420Y47278D01*
X67487Y47345D01*
X67521Y47413D01*
X67555Y47514D01*
Y47683D01*
X67521Y47784D01*
X67487Y47851D01*
X67420Y47919D01*
X67352Y47953D01*
X67218D01*
X67720D02*
Y47244D01*
X68125D01*
X68641Y47953D02*
X68203D01*
Y47244D01*
X68641D01*
X68203Y47615D02*
X68473D01*
X69788Y47851D02*
X69721Y47919D01*
X69620Y47953D01*
X69485D01*
X69384Y47919D01*
X69316Y47851D01*
Y47784D01*
X69350Y47716D01*
X69384Y47683D01*
X69451Y47649D01*
X69653Y47581D01*
X69721Y47548D01*
X69755Y47514D01*
X69788Y47447D01*
Y47345D01*
X69721Y47278D01*
X69620Y47244D01*
X69485D01*
X69384Y47278D01*
X69316Y47345D01*
X69947Y47953D02*
Y47244D01*
X70568Y47953D02*
X70095Y47244D01*
Y47953D02*
X70568D01*
X70095Y47244D02*
X70568D01*
X71165Y47953D02*
X70726D01*
Y47244D01*
X71165D01*
X70726Y47615D02*
X70996D01*
X71755Y47851D02*
X71688Y47919D01*
X71587Y47953D01*
X71452D01*
X71351Y47919D01*
X71283Y47851D01*
Y47784D01*
X71317Y47716D01*
X71351Y47683D01*
X71418Y47649D01*
X71620Y47581D01*
X71688Y47548D01*
X71722Y47514D01*
X71755Y47447D01*
Y47345D01*
X71688Y47278D01*
X71587Y47244D01*
X71452D01*
X71351Y47278D01*
X71283Y47345D01*
X73010Y47244D02*
X72741Y47953D01*
X72471Y47244D01*
X72572Y47480D02*
X72909D01*
X73176Y47953D02*
Y47244D01*
Y47953D02*
X73648Y47244D01*
Y47953D02*
Y47244D01*
X73844Y47953D02*
Y47244D01*
Y47953D02*
X74080D01*
X74181Y47919D01*
X74249Y47851D01*
X74282Y47784D01*
X74316Y47683D01*
Y47514D01*
X74282Y47413D01*
X74249Y47345D01*
X74181Y47278D01*
X74080Y47244D01*
X73844D01*
X75031Y47581D02*
X75335D01*
X75436Y47615D01*
X75470Y47649D01*
X75504Y47716D01*
Y47818D01*
X75470Y47885D01*
X75436Y47919D01*
X75335Y47953D01*
X75031D01*
Y47244D01*
X75662Y47953D02*
Y47244D01*
X76067D01*
X76685D02*
X76415Y47953D01*
X76145Y47244D01*
X76246Y47480D02*
X76583D01*
X77086Y47953D02*
Y47244D01*
X76850Y47953D02*
X77322D01*
X77407D02*
Y47244D01*
X77555Y47953D02*
Y47244D01*
Y47953D02*
X78027Y47244D01*
Y47953D02*
Y47244D01*
X78729Y47784D02*
X78695Y47851D01*
X78628Y47919D01*
X78560Y47953D01*
X78425D01*
X78358Y47919D01*
X78291Y47851D01*
X78257Y47784D01*
X78223Y47683D01*
Y47514D01*
X78257Y47413D01*
X78291Y47345D01*
X78358Y47278D01*
X78425Y47244D01*
X78560D01*
X78628Y47278D01*
X78695Y47345D01*
X78729Y47413D01*
Y47514D01*
X78560D02*
X78729D01*
X79448Y47953D02*
Y47244D01*
Y47953D02*
X79751D01*
X79853Y47919D01*
X79886Y47885D01*
X79920Y47818D01*
Y47750D01*
X79886Y47683D01*
X79853Y47649D01*
X79751Y47615D01*
X79448D01*
X79684D02*
X79920Y47244D01*
X80517Y47953D02*
X80079D01*
Y47244D01*
X80517D01*
X80079Y47615D02*
X80349D01*
X80838Y47953D02*
X80770Y47919D01*
X80703Y47851D01*
X80669Y47784D01*
X80635Y47683D01*
Y47514D01*
X80669Y47413D01*
X80703Y47345D01*
X80770Y47278D01*
X80838Y47244D01*
X80973D01*
X81040Y47278D01*
X81108Y47345D01*
X81141Y47413D01*
X81175Y47514D01*
Y47683D01*
X81141Y47784D01*
X81108Y47851D01*
X81040Y47919D01*
X80973Y47953D01*
X80838D01*
X80939Y47379D02*
X81141Y47177D01*
X81340Y47953D02*
Y47447D01*
X81374Y47345D01*
X81442Y47278D01*
X81543Y47244D01*
X81610D01*
X81712Y47278D01*
X81779Y47345D01*
X81813Y47447D01*
Y47953D01*
X82009D02*
Y47244D01*
X82157Y47953D02*
Y47244D01*
Y47953D02*
X82461D01*
X82562Y47919D01*
X82596Y47885D01*
X82629Y47818D01*
Y47750D01*
X82596Y47683D01*
X82562Y47649D01*
X82461Y47615D01*
X82157D01*
X82393D02*
X82629Y47244D01*
X83226Y47953D02*
X82788D01*
Y47244D01*
X83226D01*
X82788Y47615D02*
X83058D01*
X83345Y47953D02*
Y47244D01*
Y47953D02*
X83614Y47244D01*
X83884Y47953D02*
X83614Y47244D01*
X83884Y47953D02*
Y47244D01*
X84525Y47953D02*
X84087D01*
Y47244D01*
X84525D01*
X84087Y47615D02*
X84357D01*
X84643Y47953D02*
Y47244D01*
Y47953D02*
X85116Y47244D01*
Y47953D02*
Y47244D01*
X85548Y47953D02*
Y47244D01*
X85312Y47953D02*
X85784D01*
X86341Y47851D02*
X86273Y47919D01*
X86172Y47953D01*
X86037D01*
X85936Y47919D01*
X85868Y47851D01*
Y47784D01*
X85902Y47716D01*
X85936Y47683D01*
X86003Y47649D01*
X86206Y47581D01*
X86273Y47548D01*
X86307Y47514D01*
X86341Y47447D01*
Y47345D01*
X86273Y47278D01*
X86172Y47244D01*
X86037D01*
X85936Y47278D01*
X85868Y47345D01*
X86533Y47312D02*
X86499Y47278D01*
X86533Y47244D01*
X86567Y47278D01*
X86533Y47312D01*
X52165Y45866D02*
X52283Y45984D01*
X52520D01*
X52638Y45866D01*
Y45748D01*
X52520Y45630D01*
X52401D01*
X52520D01*
X52638Y45512D01*
Y45394D01*
X52520Y45276D01*
X52283D01*
X52165Y45394D01*
X53543Y45613D02*
X53847D01*
X53948Y45647D01*
X53982Y45680D01*
X54016Y45748D01*
Y45849D01*
X53982Y45917D01*
X53948Y45950D01*
X53847Y45984D01*
X53543D01*
Y45276D01*
X54174Y45984D02*
Y45276D01*
X54579D01*
X55196D02*
X54927Y45984D01*
X54657Y45276D01*
X54758Y45512D02*
X55095D01*
X55598Y45984D02*
Y45276D01*
X55362Y45984D02*
X55834D01*
X55918D02*
Y45276D01*
X56067Y45984D02*
Y45276D01*
Y45984D02*
X56539Y45276D01*
Y45984D02*
Y45276D01*
X57241Y45815D02*
X57207Y45883D01*
X57140Y45950D01*
X57072Y45984D01*
X56937D01*
X56870Y45950D01*
X56802Y45883D01*
X56769Y45815D01*
X56735Y45714D01*
Y45546D01*
X56769Y45444D01*
X56802Y45377D01*
X56870Y45309D01*
X56937Y45276D01*
X57072D01*
X57140Y45309D01*
X57207Y45377D01*
X57241Y45444D01*
Y45546D01*
X57072D02*
X57241D01*
X57993Y45748D02*
X57960Y45714D01*
X57993Y45680D01*
X58027Y45714D01*
X57993Y45748D01*
Y45343D02*
X57960Y45309D01*
X57993Y45276D01*
X58027Y45309D01*
X57993Y45343D01*
X54083Y43701D02*
X53813Y44409D01*
X53543Y43701D01*
X53645Y43937D02*
X53982D01*
X54248Y44544D02*
X54316Y44477D01*
X54383Y44376D01*
X54451Y44241D01*
X54485Y44072D01*
Y43937D01*
X54451Y43768D01*
X54383Y43633D01*
X54316Y43532D01*
X54248Y43465D01*
X54316Y44477D02*
X54383Y44342D01*
X54417Y44241D01*
X54451Y44072D01*
Y43937D01*
X54417Y43768D01*
X54383Y43667D01*
X54316Y43532D01*
X55213Y44038D02*
X55517D01*
X55618Y44072D01*
X55652Y44106D01*
X55686Y44173D01*
Y44274D01*
X55652Y44342D01*
X55618Y44376D01*
X55517Y44409D01*
X55213D01*
Y43701D01*
X55844Y44409D02*
Y43701D01*
X56249D01*
X56867D02*
X56597Y44409D01*
X56327Y43701D01*
X56428Y43937D02*
X56765D01*
X57268Y44409D02*
Y43701D01*
X57032Y44409D02*
X57504D01*
X57589D02*
Y43701D01*
X57737Y44409D02*
Y43701D01*
Y44409D02*
X58209Y43701D01*
Y44409D02*
Y43701D01*
X58911Y44241D02*
X58877Y44308D01*
X58810Y44376D01*
X58742Y44409D01*
X58607D01*
X58540Y44376D01*
X58473Y44308D01*
X58439Y44241D01*
X58405Y44139D01*
Y43971D01*
X58439Y43869D01*
X58473Y43802D01*
X58540Y43735D01*
X58607Y43701D01*
X58742D01*
X58810Y43735D01*
X58877Y43802D01*
X58911Y43869D01*
Y43971D01*
X58742D02*
X58911D01*
X59630Y44409D02*
Y43701D01*
X59778Y44409D02*
Y43701D01*
Y44409D02*
X60251Y43701D01*
Y44409D02*
Y43701D01*
X61003Y44409D02*
Y43701D01*
X61475Y44409D02*
Y43701D01*
X61003Y44072D02*
X61475D01*
X61873Y44409D02*
X61806Y44376D01*
X61738Y44308D01*
X61705Y44241D01*
X61671Y44139D01*
Y43971D01*
X61705Y43869D01*
X61738Y43802D01*
X61806Y43735D01*
X61873Y43701D01*
X62008D01*
X62076Y43735D01*
X62143Y43802D01*
X62177Y43869D01*
X62211Y43971D01*
Y44139D01*
X62177Y44241D01*
X62143Y44308D01*
X62076Y44376D01*
X62008Y44409D01*
X61873D01*
X62376D02*
Y43701D01*
X62781D01*
X63297Y44409D02*
X62859D01*
Y43701D01*
X63297D01*
X62859Y44072D02*
X63128D01*
X63888Y44308D02*
X63820Y44376D01*
X63719Y44409D01*
X63584D01*
X63483Y44376D01*
X63415Y44308D01*
Y44241D01*
X63449Y44173D01*
X63483Y44139D01*
X63550Y44106D01*
X63753Y44038D01*
X63820Y44004D01*
X63854Y43971D01*
X63888Y43903D01*
Y43802D01*
X63820Y43735D01*
X63719Y43701D01*
X63584D01*
X63483Y43735D01*
X63415Y43802D01*
X64637Y44241D02*
Y44274D01*
X64670Y44342D01*
X64704Y44376D01*
X64771Y44409D01*
X64906D01*
X64974Y44376D01*
X65008Y44342D01*
X65041Y44274D01*
Y44207D01*
X65008Y44139D01*
X64940Y44038D01*
X64603Y43701D01*
X65075D01*
X65639Y44409D02*
X65301D01*
X65267Y44106D01*
X65301Y44139D01*
X65402Y44173D01*
X65504D01*
X65605Y44139D01*
X65672Y44072D01*
X65706Y43971D01*
Y43903D01*
X65672Y43802D01*
X65605Y43735D01*
X65504Y43701D01*
X65402D01*
X65301Y43735D01*
X65267Y43768D01*
X65234Y43836D01*
X65865Y44173D02*
Y43836D01*
X65898Y43735D01*
X65966Y43701D01*
X66067D01*
X66135Y43735D01*
X66236Y43836D01*
Y44173D02*
Y43701D01*
X66421Y44173D02*
Y43701D01*
Y44038D02*
X66523Y44139D01*
X66590Y44173D01*
X66691D01*
X66759Y44139D01*
X66792Y44038D01*
Y43701D01*
Y44038D02*
X66894Y44139D01*
X66961Y44173D01*
X67062D01*
X67130Y44139D01*
X67164Y44038D01*
Y43701D01*
X67943Y44409D02*
Y43701D01*
Y44409D02*
X68415Y43701D01*
Y44409D02*
Y43701D01*
X68813Y44409D02*
X68746Y44376D01*
X68678Y44308D01*
X68645Y44241D01*
X68611Y44139D01*
Y43971D01*
X68645Y43869D01*
X68678Y43802D01*
X68746Y43735D01*
X68813Y43701D01*
X68948D01*
X69016Y43735D01*
X69083Y43802D01*
X69117Y43869D01*
X69151Y43971D01*
Y44139D01*
X69117Y44241D01*
X69083Y44308D01*
X69016Y44376D01*
X68948Y44409D01*
X68813D01*
X69316D02*
Y43701D01*
Y44409D02*
X69586Y43701D01*
X69856Y44409D02*
X69586Y43701D01*
X69856Y44409D02*
Y43701D01*
X70058Y44409D02*
Y43701D01*
Y44409D02*
X70531Y43701D01*
Y44409D02*
Y43701D01*
X71266D02*
X70996Y44409D01*
X70726Y43701D01*
X70828Y43937D02*
X71165D01*
X71431Y44409D02*
Y43701D01*
X71836D01*
X52520Y41732D02*
Y42441D01*
X52165Y42087D01*
X52638D01*
X54016Y42340D02*
X53948Y42407D01*
X53847Y42441D01*
X53712D01*
X53611Y42407D01*
X53543Y42340D01*
Y42272D01*
X53577Y42205D01*
X53611Y42171D01*
X53678Y42137D01*
X53881Y42070D01*
X53948Y42036D01*
X53982Y42002D01*
X54016Y41935D01*
Y41834D01*
X53948Y41766D01*
X53847Y41732D01*
X53712D01*
X53611Y41766D01*
X53543Y41834D01*
X54377Y42441D02*
X54309Y42407D01*
X54242Y42340D01*
X54208Y42272D01*
X54174Y42171D01*
Y42002D01*
X54208Y41901D01*
X54242Y41834D01*
X54309Y41766D01*
X54377Y41732D01*
X54512D01*
X54579Y41766D01*
X54647Y41834D01*
X54680Y41901D01*
X54714Y42002D01*
Y42171D01*
X54680Y42272D01*
X54647Y42340D01*
X54579Y42407D01*
X54512Y42441D01*
X54377D01*
X54879D02*
Y41732D01*
X55284D01*
X55362Y42441D02*
Y41732D01*
Y42441D02*
X55598D01*
X55699Y42407D01*
X55767Y42340D01*
X55800Y42272D01*
X55834Y42171D01*
Y42002D01*
X55800Y41901D01*
X55767Y41834D01*
X55699Y41766D01*
X55598Y41732D01*
X55362D01*
X56431Y42441D02*
X55993D01*
Y41732D01*
X56431D01*
X55993Y42103D02*
X56263D01*
X56549Y42441D02*
Y41732D01*
Y42441D02*
X56853D01*
X56954Y42407D01*
X56988Y42373D01*
X57022Y42306D01*
Y42238D01*
X56988Y42171D01*
X56954Y42137D01*
X56853Y42103D01*
X56549D01*
X56786D02*
X57022Y41732D01*
X57180Y42441D02*
Y41732D01*
Y42441D02*
X57450Y41732D01*
X57720Y42441D02*
X57450Y41732D01*
X57720Y42441D02*
Y41732D01*
X58462D02*
X58192Y42441D01*
X57923Y41732D01*
X58024Y41968D02*
X58361D01*
X59100Y42340D02*
X59033Y42407D01*
X58931Y42441D01*
X58796D01*
X58695Y42407D01*
X58628Y42340D01*
Y42272D01*
X58661Y42205D01*
X58695Y42171D01*
X58763Y42137D01*
X58965Y42070D01*
X59033Y42036D01*
X59066Y42002D01*
X59100Y41935D01*
Y41834D01*
X59033Y41766D01*
X58931Y41732D01*
X58796D01*
X58695Y41766D01*
X58628Y41834D01*
X59259Y42441D02*
Y41732D01*
X59731Y42441D02*
X59259Y41968D01*
X59427Y42137D02*
X59731Y41732D01*
X60480Y42205D02*
X60446Y42171D01*
X60480Y42137D01*
X60514Y42171D01*
X60480Y42205D01*
Y41800D02*
X60446Y41766D01*
X60480Y41732D01*
X60514Y41766D01*
X60480Y41800D01*
X54083Y40551D02*
X53813Y41260D01*
X53543Y40551D01*
X53645Y40787D02*
X53982D01*
X54248Y41395D02*
X54316Y41327D01*
X54383Y41226D01*
X54451Y41091D01*
X54485Y40922D01*
Y40787D01*
X54451Y40619D01*
X54383Y40484D01*
X54316Y40382D01*
X54248Y40315D01*
X54316Y41327D02*
X54383Y41192D01*
X54417Y41091D01*
X54451Y40922D01*
Y40787D01*
X54417Y40619D01*
X54383Y40517D01*
X54316Y40382D01*
X55686Y41158D02*
X55618Y41226D01*
X55517Y41260D01*
X55382D01*
X55281Y41226D01*
X55213Y41158D01*
Y41091D01*
X55247Y41024D01*
X55281Y40990D01*
X55348Y40956D01*
X55551Y40889D01*
X55618Y40855D01*
X55652Y40821D01*
X55686Y40754D01*
Y40652D01*
X55618Y40585D01*
X55517Y40551D01*
X55382D01*
X55281Y40585D01*
X55213Y40652D01*
X56047Y41260D02*
X55979Y41226D01*
X55912Y41158D01*
X55878Y41091D01*
X55844Y40990D01*
Y40821D01*
X55878Y40720D01*
X55912Y40652D01*
X55979Y40585D01*
X56047Y40551D01*
X56182D01*
X56249Y40585D01*
X56317Y40652D01*
X56350Y40720D01*
X56384Y40821D01*
Y40990D01*
X56350Y41091D01*
X56317Y41158D01*
X56249Y41226D01*
X56182Y41260D01*
X56047D01*
X56549D02*
Y40551D01*
X56954D01*
X57032Y41260D02*
Y40551D01*
Y41260D02*
X57268D01*
X57369Y41226D01*
X57437Y41158D01*
X57470Y41091D01*
X57504Y40990D01*
Y40821D01*
X57470Y40720D01*
X57437Y40652D01*
X57369Y40585D01*
X57268Y40551D01*
X57032D01*
X58101Y41260D02*
X57663D01*
Y40551D01*
X58101D01*
X57663Y40922D02*
X57933D01*
X58219Y41260D02*
Y40551D01*
Y41260D02*
X58523D01*
X58624Y41226D01*
X58658Y41192D01*
X58692Y41125D01*
Y41057D01*
X58658Y40990D01*
X58624Y40956D01*
X58523Y40922D01*
X58219D01*
X58456D02*
X58692Y40551D01*
X58850Y41260D02*
Y40551D01*
Y41260D02*
X59120Y40551D01*
X59390Y41260D02*
X59120Y40551D01*
X59390Y41260D02*
Y40551D01*
X60132D02*
X59863Y41260D01*
X59593Y40551D01*
X59694Y40787D02*
X60031D01*
X60770Y41158D02*
X60703Y41226D01*
X60601Y41260D01*
X60466D01*
X60365Y41226D01*
X60298Y41158D01*
Y41091D01*
X60332Y41024D01*
X60365Y40990D01*
X60433Y40956D01*
X60635Y40889D01*
X60703Y40855D01*
X60736Y40821D01*
X60770Y40754D01*
Y40652D01*
X60703Y40585D01*
X60601Y40551D01*
X60466D01*
X60365Y40585D01*
X60298Y40652D01*
X60929Y41260D02*
Y40551D01*
X61401Y41260D02*
X60929Y40787D01*
X61097Y40956D02*
X61401Y40551D01*
X62352Y41260D02*
Y40551D01*
X62116Y41260D02*
X62589D01*
X62875D02*
X62808Y41226D01*
X62740Y41158D01*
X62707Y41091D01*
X62673Y40990D01*
Y40821D01*
X62707Y40720D01*
X62740Y40652D01*
X62808Y40585D01*
X62875Y40551D01*
X63010D01*
X63078Y40585D01*
X63145Y40652D01*
X63179Y40720D01*
X63213Y40821D01*
Y40990D01*
X63179Y41091D01*
X63145Y41158D01*
X63078Y41226D01*
X63010Y41260D01*
X62875D01*
X63935D02*
Y40551D01*
Y41260D02*
X64238D01*
X64340Y41226D01*
X64373Y41192D01*
X64407Y41125D01*
Y41057D01*
X64373Y40990D01*
X64340Y40956D01*
X64238Y40922D01*
X63935D02*
X64238D01*
X64340Y40889D01*
X64373Y40855D01*
X64407Y40787D01*
Y40686D01*
X64373Y40619D01*
X64340Y40585D01*
X64238Y40551D01*
X63935D01*
X65004Y41260D02*
X64566D01*
Y40551D01*
X65004D01*
X64566Y40922D02*
X64836D01*
X65679Y41260D02*
Y40551D01*
X66084D01*
X66162Y41260D02*
Y40551D01*
X66512Y41260D02*
X66445Y41226D01*
X66377Y41158D01*
X66344Y41091D01*
X66310Y40990D01*
Y40821D01*
X66344Y40720D01*
X66377Y40652D01*
X66445Y40585D01*
X66512Y40551D01*
X66647D01*
X66715Y40585D01*
X66782Y40652D01*
X66816Y40720D01*
X66850Y40821D01*
Y40990D01*
X66816Y41091D01*
X66782Y41158D01*
X66715Y41226D01*
X66647Y41260D01*
X66512D01*
X66614Y40686D02*
X66816Y40484D01*
X67015Y41260D02*
Y40754D01*
X67049Y40652D01*
X67116Y40585D01*
X67218Y40551D01*
X67285D01*
X67386Y40585D01*
X67454Y40652D01*
X67487Y40754D01*
Y41260D01*
X67683D02*
Y40551D01*
X67832Y41260D02*
Y40551D01*
Y41260D02*
X68068D01*
X68169Y41226D01*
X68236Y41158D01*
X68270Y41091D01*
X68304Y40990D01*
Y40821D01*
X68270Y40720D01*
X68236Y40652D01*
X68169Y40585D01*
X68068Y40551D01*
X67832D01*
X69019Y40889D02*
X69323D01*
X69424Y40922D01*
X69458Y40956D01*
X69492Y41024D01*
Y41125D01*
X69458Y41192D01*
X69424Y41226D01*
X69323Y41260D01*
X69019D01*
Y40551D01*
X69650Y41260D02*
Y40551D01*
X70122Y41260D02*
Y40551D01*
X69650Y40922D02*
X70122D01*
X70521Y41260D02*
X70453Y41226D01*
X70386Y41158D01*
X70352Y41091D01*
X70318Y40990D01*
Y40821D01*
X70352Y40720D01*
X70386Y40652D01*
X70453Y40585D01*
X70521Y40551D01*
X70655D01*
X70723Y40585D01*
X70790Y40652D01*
X70824Y40720D01*
X70858Y40821D01*
Y40990D01*
X70824Y41091D01*
X70790Y41158D01*
X70723Y41226D01*
X70655Y41260D01*
X70521D01*
X71259D02*
Y40551D01*
X71023Y41260D02*
X71496D01*
X71782D02*
X71715Y41226D01*
X71647Y41158D01*
X71614Y41091D01*
X71580Y40990D01*
Y40821D01*
X71614Y40720D01*
X71647Y40652D01*
X71715Y40585D01*
X71782Y40551D01*
X71917D01*
X71985Y40585D01*
X72052Y40652D01*
X72086Y40720D01*
X72120Y40821D01*
Y40990D01*
X72086Y41091D01*
X72052Y41158D01*
X71985Y41226D01*
X71917Y41260D01*
X71782D01*
X72285D02*
Y40551D01*
X72434Y41260D02*
Y40551D01*
Y41260D02*
X72703Y40551D01*
X72973Y41260D02*
X72703Y40551D01*
X72973Y41260D02*
Y40551D01*
X73716D02*
X73446Y41260D01*
X73176Y40551D01*
X73277Y40787D02*
X73614D01*
X74387Y41091D02*
X74353Y41158D01*
X74286Y41226D01*
X74218Y41260D01*
X74083D01*
X74016Y41226D01*
X73948Y41158D01*
X73915Y41091D01*
X73881Y40990D01*
Y40821D01*
X73915Y40720D01*
X73948Y40652D01*
X74016Y40585D01*
X74083Y40551D01*
X74218D01*
X74286Y40585D01*
X74353Y40652D01*
X74387Y40720D01*
Y40821D01*
X74218D02*
X74387D01*
X74988Y41260D02*
X74549D01*
Y40551D01*
X74988D01*
X74549Y40922D02*
X74819D01*
X75645Y40551D02*
X75376Y41260D01*
X75106Y40551D01*
X75207Y40787D02*
X75544D01*
X75811Y41260D02*
Y40551D01*
Y41260D02*
X76114D01*
X76216Y41226D01*
X76249Y41192D01*
X76283Y41125D01*
Y41057D01*
X76249Y40990D01*
X76216Y40956D01*
X76114Y40922D01*
X75811D02*
X76114D01*
X76216Y40889D01*
X76249Y40855D01*
X76283Y40787D01*
Y40686D01*
X76249Y40619D01*
X76216Y40585D01*
X76114Y40551D01*
X75811D01*
X76442Y41260D02*
Y40551D01*
X76847D01*
X77363Y41260D02*
X76924D01*
Y40551D01*
X77363D01*
X76924Y40922D02*
X77194D01*
X78274Y41395D02*
X78206Y41327D01*
X78139Y41226D01*
X78071Y41091D01*
X78037Y40922D01*
Y40787D01*
X78071Y40619D01*
X78139Y40484D01*
X78206Y40382D01*
X78274Y40315D01*
X78206Y41327D02*
X78139Y41192D01*
X78105Y41091D01*
X78071Y40922D01*
Y40787D01*
X78105Y40619D01*
X78139Y40517D01*
X78206Y40382D01*
X78409Y41260D02*
Y40551D01*
X78813D01*
X78891Y40889D02*
X79195D01*
X79296Y40922D01*
X79330Y40956D01*
X79363Y41024D01*
Y41125D01*
X79330Y41192D01*
X79296Y41226D01*
X79195Y41260D01*
X78891D01*
Y40551D01*
X79522Y41260D02*
Y40551D01*
X79670Y41395D02*
X79738Y41327D01*
X79805Y41226D01*
X79873Y41091D01*
X79907Y40922D01*
Y40787D01*
X79873Y40619D01*
X79805Y40484D01*
X79738Y40382D01*
X79670Y40315D01*
X79738Y41327D02*
X79805Y41192D01*
X79839Y41091D01*
X79873Y40922D01*
Y40787D01*
X79839Y40619D01*
X79805Y40517D01*
X79738Y40382D01*
X80146Y40585D02*
X80112Y40551D01*
X80079Y40585D01*
X80112Y40619D01*
X80146Y40585D01*
Y40517D01*
X80112Y40450D01*
X80079Y40416D01*
X81364Y41091D02*
X81330Y41158D01*
X81263Y41226D01*
X81195Y41260D01*
X81060D01*
X80993Y41226D01*
X80926Y41158D01*
X80892Y41091D01*
X80858Y40990D01*
Y40821D01*
X80892Y40720D01*
X80926Y40652D01*
X80993Y40585D01*
X81060Y40551D01*
X81195D01*
X81263Y40585D01*
X81330Y40652D01*
X81364Y40720D01*
X81766Y41260D02*
X81698Y41226D01*
X81631Y41158D01*
X81597Y41091D01*
X81563Y40990D01*
Y40821D01*
X81597Y40720D01*
X81631Y40652D01*
X81698Y40585D01*
X81766Y40551D01*
X81901D01*
X81968Y40585D01*
X82036Y40652D01*
X82069Y40720D01*
X82103Y40821D01*
Y40990D01*
X82069Y41091D01*
X82036Y41158D01*
X81968Y41226D01*
X81901Y41260D01*
X81766D01*
X82268D02*
Y40551D01*
X82673D01*
X82953Y41260D02*
X82886Y41226D01*
X82818Y41158D01*
X82785Y41091D01*
X82751Y40990D01*
Y40821D01*
X82785Y40720D01*
X82818Y40652D01*
X82886Y40585D01*
X82953Y40551D01*
X83088D01*
X83156Y40585D01*
X83223Y40652D01*
X83257Y40720D01*
X83291Y40821D01*
Y40990D01*
X83257Y41091D01*
X83223Y41158D01*
X83156Y41226D01*
X83088Y41260D01*
X82953D01*
X83456D02*
Y40754D01*
X83490Y40652D01*
X83557Y40585D01*
X83658Y40551D01*
X83726D01*
X83827Y40585D01*
X83895Y40652D01*
X83928Y40754D01*
Y41260D01*
X84124D02*
Y40551D01*
Y41260D02*
X84428D01*
X84529Y41226D01*
X84563Y41192D01*
X84596Y41125D01*
Y41057D01*
X84563Y40990D01*
X84529Y40956D01*
X84428Y40922D01*
X84124D01*
X84360D02*
X84596Y40551D01*
X85818Y41091D02*
X85784Y41158D01*
X85716Y41226D01*
X85649Y41260D01*
X85514D01*
X85446Y41226D01*
X85379Y41158D01*
X85345Y41091D01*
X85312Y40990D01*
Y40821D01*
X85345Y40720D01*
X85379Y40652D01*
X85446Y40585D01*
X85514Y40551D01*
X85649D01*
X85716Y40585D01*
X85784Y40652D01*
X85818Y40720D01*
Y40821D01*
X85649D02*
X85818D01*
X85980Y41260D02*
Y40551D01*
Y41260D02*
X86283D01*
X86384Y41226D01*
X86418Y41192D01*
X86452Y41125D01*
Y41057D01*
X86418Y40990D01*
X86384Y40956D01*
X86283Y40922D01*
X85980D01*
X86216D02*
X86452Y40551D01*
X87049Y41260D02*
X86610D01*
Y40551D01*
X87049D01*
X86610Y40922D02*
X86880D01*
X87606Y41260D02*
X87167D01*
Y40551D01*
X87606D01*
X87167Y40922D02*
X87437D01*
X87724Y41260D02*
Y40551D01*
Y41260D02*
X88196Y40551D01*
Y41260D02*
Y40551D01*
X88426Y40619D02*
X88392Y40585D01*
X88426Y40551D01*
X88459Y40585D01*
X88426Y40619D01*
X52638Y39291D02*
X52165D01*
Y38937D01*
X52401Y39055D01*
X52520D01*
X52638Y38937D01*
Y38701D01*
X52520Y38583D01*
X52283D01*
X52165Y38701D01*
X54016Y39190D02*
X53948Y39257D01*
X53847Y39291D01*
X53712D01*
X53611Y39257D01*
X53543Y39190D01*
Y39122D01*
X53577Y39055D01*
X53611Y39021D01*
X53678Y38988D01*
X53881Y38920D01*
X53948Y38886D01*
X53982Y38853D01*
X54016Y38785D01*
Y38684D01*
X53948Y38616D01*
X53847Y38583D01*
X53712D01*
X53611Y38616D01*
X53543Y38684D01*
X54174Y39291D02*
Y38583D01*
X54323Y39291D02*
Y38583D01*
X54728D01*
X54805Y39291D02*
Y38583D01*
X55277Y39291D02*
X54805Y38819D01*
X54974Y38988D02*
X55277Y38583D01*
X55908Y39190D02*
X55841Y39257D01*
X55740Y39291D01*
X55605D01*
X55504Y39257D01*
X55436Y39190D01*
Y39122D01*
X55470Y39055D01*
X55504Y39021D01*
X55571Y38988D01*
X55773Y38920D01*
X55841Y38886D01*
X55875Y38853D01*
X55908Y38785D01*
Y38684D01*
X55841Y38616D01*
X55740Y38583D01*
X55605D01*
X55504Y38616D01*
X55436Y38684D01*
X56573Y39122D02*
X56539Y39190D01*
X56472Y39257D01*
X56404Y39291D01*
X56269D01*
X56202Y39257D01*
X56134Y39190D01*
X56101Y39122D01*
X56067Y39021D01*
Y38853D01*
X56101Y38751D01*
X56134Y38684D01*
X56202Y38616D01*
X56269Y38583D01*
X56404D01*
X56472Y38616D01*
X56539Y38684D01*
X56573Y38751D01*
X56772Y39291D02*
Y38583D01*
Y39291D02*
X57076D01*
X57177Y39257D01*
X57211Y39224D01*
X57244Y39156D01*
Y39089D01*
X57211Y39021D01*
X57177Y38988D01*
X57076Y38954D01*
X56772D01*
X57008D02*
X57244Y38583D01*
X57842Y39291D02*
X57403D01*
Y38583D01*
X57842D01*
X57403Y38954D02*
X57673D01*
X58398Y39291D02*
X57960D01*
Y38583D01*
X58398D01*
X57960Y38954D02*
X58230D01*
X58516Y39291D02*
Y38583D01*
Y39291D02*
X58989Y38583D01*
Y39291D02*
Y38583D01*
X59775Y39055D02*
X59741Y39021D01*
X59775Y38988D01*
X59809Y39021D01*
X59775Y39055D01*
Y38650D02*
X59741Y38616D01*
X59775Y38583D01*
X59809Y38616D01*
X59775Y38650D01*
X54083Y37402D02*
X53813Y38110D01*
X53543Y37402D01*
X53645Y37638D02*
X53982D01*
X54248Y38245D02*
X54316Y38178D01*
X54383Y38076D01*
X54451Y37941D01*
X54485Y37773D01*
Y37638D01*
X54451Y37469D01*
X54383Y37334D01*
X54316Y37233D01*
X54248Y37165D01*
X54316Y38178D02*
X54383Y38043D01*
X54417Y37941D01*
X54451Y37773D01*
Y37638D01*
X54417Y37469D01*
X54383Y37368D01*
X54316Y37233D01*
X55686Y38009D02*
X55618Y38076D01*
X55517Y38110D01*
X55382D01*
X55281Y38076D01*
X55213Y38009D01*
Y37941D01*
X55247Y37874D01*
X55281Y37840D01*
X55348Y37806D01*
X55551Y37739D01*
X55618Y37705D01*
X55652Y37671D01*
X55686Y37604D01*
Y37503D01*
X55618Y37435D01*
X55517Y37402D01*
X55382D01*
X55281Y37435D01*
X55213Y37503D01*
X55844Y38110D02*
Y37402D01*
X55993Y38110D02*
Y37402D01*
X56398D01*
X56475Y38110D02*
Y37402D01*
X56948Y38110D02*
X56475Y37638D01*
X56644Y37806D02*
X56948Y37402D01*
X57578Y38009D02*
X57511Y38076D01*
X57410Y38110D01*
X57275D01*
X57174Y38076D01*
X57106Y38009D01*
Y37941D01*
X57140Y37874D01*
X57174Y37840D01*
X57241Y37806D01*
X57443Y37739D01*
X57511Y37705D01*
X57545Y37671D01*
X57578Y37604D01*
Y37503D01*
X57511Y37435D01*
X57410Y37402D01*
X57275D01*
X57174Y37435D01*
X57106Y37503D01*
X58243Y37941D02*
X58209Y38009D01*
X58142Y38076D01*
X58074Y38110D01*
X57939D01*
X57872Y38076D01*
X57804Y38009D01*
X57771Y37941D01*
X57737Y37840D01*
Y37671D01*
X57771Y37570D01*
X57804Y37503D01*
X57872Y37435D01*
X57939Y37402D01*
X58074D01*
X58142Y37435D01*
X58209Y37503D01*
X58243Y37570D01*
X58442Y38110D02*
Y37402D01*
Y38110D02*
X58746D01*
X58847Y38076D01*
X58881Y38043D01*
X58914Y37975D01*
Y37908D01*
X58881Y37840D01*
X58847Y37806D01*
X58746Y37773D01*
X58442D01*
X58678D02*
X58914Y37402D01*
X59512Y38110D02*
X59073D01*
Y37402D01*
X59512D01*
X59073Y37773D02*
X59343D01*
X60068Y38110D02*
X59630D01*
Y37402D01*
X60068D01*
X59630Y37773D02*
X59900D01*
X60186Y38110D02*
Y37402D01*
Y38110D02*
X60659Y37402D01*
Y38110D02*
Y37402D01*
X61647Y38110D02*
Y37402D01*
X61411Y38110D02*
X61883D01*
X62170D02*
X62103Y38076D01*
X62035Y38009D01*
X62002Y37941D01*
X61968Y37840D01*
Y37671D01*
X62002Y37570D01*
X62035Y37503D01*
X62103Y37435D01*
X62170Y37402D01*
X62305D01*
X62373Y37435D01*
X62440Y37503D01*
X62474Y37570D01*
X62508Y37671D01*
Y37840D01*
X62474Y37941D01*
X62440Y38009D01*
X62373Y38076D01*
X62305Y38110D01*
X62170D01*
X63230D02*
Y37402D01*
Y38110D02*
X63533D01*
X63635Y38076D01*
X63668Y38043D01*
X63702Y37975D01*
Y37908D01*
X63668Y37840D01*
X63635Y37806D01*
X63533Y37773D01*
X63230D02*
X63533D01*
X63635Y37739D01*
X63668Y37705D01*
X63702Y37638D01*
Y37537D01*
X63668Y37469D01*
X63635Y37435D01*
X63533Y37402D01*
X63230D01*
X64299Y38110D02*
X63861D01*
Y37402D01*
X64299D01*
X63861Y37773D02*
X64130D01*
X64974Y38110D02*
X65143Y37402D01*
X65311Y38110D02*
X65143Y37402D01*
X65311Y38110D02*
X65480Y37402D01*
X65649Y38110D02*
X65480Y37402D01*
X65790Y38110D02*
Y37402D01*
X66263Y38110D02*
Y37402D01*
X65790Y37773D02*
X66263D01*
X66458Y38110D02*
Y37402D01*
X66843Y38110D02*
Y37402D01*
X66607Y38110D02*
X67079D01*
X67602D02*
X67164D01*
Y37402D01*
X67602D01*
X67164Y37773D02*
X67433D01*
X68716Y38110D02*
X68277D01*
Y37402D01*
X68716D01*
X68277Y37773D02*
X68547D01*
X68834Y37739D02*
X69137D01*
X69238Y37773D01*
X69272Y37806D01*
X69306Y37874D01*
Y37975D01*
X69272Y38043D01*
X69238Y38076D01*
X69137Y38110D01*
X68834D01*
Y37402D01*
X69667Y38110D02*
X69599Y38076D01*
X69532Y38009D01*
X69498Y37941D01*
X69465Y37840D01*
Y37671D01*
X69498Y37570D01*
X69532Y37503D01*
X69599Y37435D01*
X69667Y37402D01*
X69802D01*
X69869Y37435D01*
X69937Y37503D01*
X69971Y37570D01*
X70004Y37671D01*
Y37840D01*
X69971Y37941D01*
X69937Y38009D01*
X69869Y38076D01*
X69802Y38110D01*
X69667D01*
X70170D02*
X70642Y37402D01*
Y38110D02*
X70170Y37402D01*
X70801Y38110D02*
X71070Y37773D01*
Y37402D01*
X71340Y38110D02*
X71070Y37773D01*
X71988Y38110D02*
Y37402D01*
X72137Y38110D02*
Y37402D01*
Y38110D02*
X72609Y37402D01*
Y38110D02*
Y37402D01*
X72805Y38110D02*
Y37402D01*
X73277Y38110D02*
X72805Y37638D01*
X72973Y37806D02*
X73277Y37402D01*
X52638Y36142D02*
X52401Y36023D01*
X52165Y35787D01*
Y35551D01*
X52283Y35433D01*
X52520D01*
X52638Y35551D01*
Y35669D01*
X52520Y35787D01*
X52165D01*
X53543Y36142D02*
Y35433D01*
Y36142D02*
X53982D01*
X53543Y35804D02*
X53813D01*
X54063Y36142D02*
Y35433D01*
X54211Y36142D02*
Y35433D01*
Y36142D02*
X54684Y35433D01*
Y36142D02*
Y35433D01*
X54879Y36142D02*
Y35433D01*
X55500Y36040D02*
X55433Y36108D01*
X55331Y36142D01*
X55196D01*
X55095Y36108D01*
X55028Y36040D01*
Y35973D01*
X55062Y35905D01*
X55095Y35872D01*
X55163Y35838D01*
X55365Y35770D01*
X55433Y35737D01*
X55466Y35703D01*
X55500Y35635D01*
Y35534D01*
X55433Y35467D01*
X55331Y35433D01*
X55196D01*
X55095Y35467D01*
X55028Y35534D01*
X55659Y36142D02*
Y35433D01*
X56131Y36142D02*
Y35433D01*
X55659Y35804D02*
X56131D01*
X56917Y35905D02*
X56883Y35872D01*
X56917Y35838D01*
X56951Y35872D01*
X56917Y35905D01*
Y35501D02*
X56883Y35467D01*
X56917Y35433D01*
X56951Y35467D01*
X56917Y35501D01*
X54083Y34252D02*
X53813Y34960D01*
X53543Y34252D01*
X53645Y34488D02*
X53982D01*
X54248Y35095D02*
X54316Y35028D01*
X54383Y34927D01*
X54451Y34792D01*
X54485Y34623D01*
Y34488D01*
X54451Y34319D01*
X54383Y34184D01*
X54316Y34083D01*
X54248Y34016D01*
X54316Y35028D02*
X54383Y34893D01*
X54417Y34792D01*
X54451Y34623D01*
Y34488D01*
X54417Y34319D01*
X54383Y34218D01*
X54316Y34083D01*
X55213Y34960D02*
Y34252D01*
X55686Y34960D02*
Y34252D01*
X55213Y34623D02*
X55686D01*
X56421Y34252D02*
X56151Y34960D01*
X55881Y34252D01*
X55983Y34488D02*
X56320D01*
X57059Y34859D02*
X56991Y34927D01*
X56890Y34960D01*
X56755D01*
X56654Y34927D01*
X56587Y34859D01*
Y34792D01*
X56620Y34724D01*
X56654Y34691D01*
X56721Y34657D01*
X56924Y34589D01*
X56991Y34556D01*
X57025Y34522D01*
X57059Y34454D01*
Y34353D01*
X56991Y34286D01*
X56890Y34252D01*
X56755D01*
X56654Y34286D01*
X56587Y34353D01*
X57217Y34960D02*
Y34252D01*
X57622D01*
X90551Y22362D02*
Y21654D01*
Y22362D02*
X90990D01*
X90551Y22025D02*
X90821D01*
X91071Y22362D02*
Y21654D01*
X91219Y22362D02*
Y21654D01*
X91624D01*
X92140Y22362D02*
X91702D01*
Y21654D01*
X92140D01*
X91702Y22025D02*
X91972D01*
X70472Y16063D02*
Y15354D01*
Y16063D02*
X70776D01*
X70877Y16029D01*
X70911Y15995D01*
X70945Y15928D01*
Y15860D01*
X70911Y15793D01*
X70877Y15759D01*
X70776Y15725D01*
X70472D02*
X70776D01*
X70877Y15692D01*
X70911Y15658D01*
X70945Y15590D01*
Y15489D01*
X70911Y15422D01*
X70877Y15388D01*
X70776Y15354D01*
X70472D01*
X71306Y16063D02*
X71238Y16029D01*
X71171Y15962D01*
X71137Y15894D01*
X71103Y15793D01*
Y15624D01*
X71137Y15523D01*
X71171Y15456D01*
X71238Y15388D01*
X71306Y15354D01*
X71441D01*
X71508Y15388D01*
X71576Y15456D01*
X71609Y15523D01*
X71643Y15624D01*
Y15793D01*
X71609Y15894D01*
X71576Y15962D01*
X71508Y16029D01*
X71441Y16063D01*
X71306D01*
X72045D02*
Y15354D01*
X71808Y16063D02*
X72281D01*
X72601D02*
Y15354D01*
X72365Y16063D02*
X72838D01*
X73124D02*
X73057Y16029D01*
X72989Y15962D01*
X72956Y15894D01*
X72922Y15793D01*
Y15624D01*
X72956Y15523D01*
X72989Y15456D01*
X73057Y15388D01*
X73124Y15354D01*
X73259D01*
X73327Y15388D01*
X73394Y15456D01*
X73428Y15523D01*
X73462Y15624D01*
Y15793D01*
X73428Y15894D01*
X73394Y15962D01*
X73327Y16029D01*
X73259Y16063D01*
X73124D01*
X73627D02*
Y15354D01*
Y16063D02*
X73897Y15354D01*
X74167Y16063D02*
X73897Y15354D01*
X74167Y16063D02*
Y15354D01*
X74926Y16063D02*
Y15354D01*
X75331D01*
X75948D02*
X75678Y16063D01*
X75408Y15354D01*
X75510Y15590D02*
X75847D01*
X76114Y16063D02*
X76383Y15725D01*
Y15354D01*
X76653Y16063D02*
X76383Y15725D01*
X77183Y16063D02*
X76744D01*
Y15354D01*
X77183D01*
X76744Y15725D02*
X77014D01*
X77301Y16063D02*
Y15354D01*
Y16063D02*
X77605D01*
X77706Y16029D01*
X77740Y15995D01*
X77773Y15928D01*
Y15860D01*
X77740Y15793D01*
X77706Y15759D01*
X77605Y15725D01*
X77301D01*
X77537D02*
X77773Y15354D01*
X78725Y16198D02*
X78657Y16130D01*
X78590Y16029D01*
X78522Y15894D01*
X78489Y15725D01*
Y15590D01*
X78522Y15422D01*
X78590Y15287D01*
X78657Y15186D01*
X78725Y15118D01*
X78657Y16130D02*
X78590Y15995D01*
X78556Y15894D01*
X78522Y15725D01*
Y15590D01*
X78556Y15422D01*
X78590Y15321D01*
X78657Y15186D01*
X79366Y15894D02*
X79332Y15962D01*
X79265Y16029D01*
X79197Y16063D01*
X79062D01*
X78995Y16029D01*
X78927Y15962D01*
X78894Y15894D01*
X78860Y15793D01*
Y15624D01*
X78894Y15523D01*
X78927Y15456D01*
X78995Y15388D01*
X79062Y15354D01*
X79197D01*
X79265Y15388D01*
X79332Y15456D01*
X79366Y15523D01*
X79767Y16063D02*
X79700Y16029D01*
X79632Y15962D01*
X79599Y15894D01*
X79565Y15793D01*
Y15624D01*
X79599Y15523D01*
X79632Y15456D01*
X79700Y15388D01*
X79767Y15354D01*
X79902D01*
X79970Y15388D01*
X80037Y15456D01*
X80071Y15523D01*
X80105Y15624D01*
Y15793D01*
X80071Y15894D01*
X80037Y15962D01*
X79970Y16029D01*
X79902Y16063D01*
X79767D01*
X80270Y15692D02*
X80574D01*
X80675Y15725D01*
X80709Y15759D01*
X80742Y15827D01*
Y15928D01*
X80709Y15995D01*
X80675Y16029D01*
X80574Y16063D01*
X80270D01*
Y15354D01*
X80901Y15692D02*
X81205D01*
X81306Y15725D01*
X81340Y15759D01*
X81373Y15827D01*
Y15928D01*
X81340Y15995D01*
X81306Y16029D01*
X81205Y16063D01*
X80901D01*
Y15354D01*
X81971Y16063D02*
X81532D01*
Y15354D01*
X81971D01*
X81532Y15725D02*
X81802D01*
X82089Y16063D02*
Y15354D01*
Y16063D02*
X82392D01*
X82493Y16029D01*
X82527Y15995D01*
X82561Y15928D01*
Y15860D01*
X82527Y15793D01*
X82493Y15759D01*
X82392Y15725D01*
X82089D01*
X82325D02*
X82561Y15354D01*
X82720Y16198D02*
X82787Y16130D01*
X82854Y16029D01*
X82922Y15894D01*
X82956Y15725D01*
Y15590D01*
X82922Y15422D01*
X82854Y15287D01*
X82787Y15186D01*
X82720Y15118D01*
X82787Y16130D02*
X82854Y15995D01*
X82888Y15894D01*
X82922Y15725D01*
Y15590D01*
X82888Y15422D01*
X82854Y15321D01*
X82787Y15186D01*
X70709Y17638D02*
Y16929D01*
X70472Y17638D02*
X70945D01*
X71232D02*
X71164Y17604D01*
X71097Y17536D01*
X71063Y17469D01*
X71029Y17368D01*
Y17199D01*
X71063Y17098D01*
X71097Y17030D01*
X71164Y16963D01*
X71232Y16929D01*
X71367D01*
X71434Y16963D01*
X71501Y17030D01*
X71535Y17098D01*
X71569Y17199D01*
Y17368D01*
X71535Y17469D01*
X71501Y17536D01*
X71434Y17604D01*
X71367Y17638D01*
X71232D01*
X71734Y17267D02*
X72038D01*
X72139Y17300D01*
X72173Y17334D01*
X72207Y17401D01*
Y17503D01*
X72173Y17570D01*
X72139Y17604D01*
X72038Y17638D01*
X71734D01*
Y16929D01*
X72922Y17638D02*
Y16929D01*
X73327D01*
X73944D02*
X73674Y17638D01*
X73404Y16929D01*
X73506Y17165D02*
X73843D01*
X74109Y17638D02*
X74379Y17300D01*
Y16929D01*
X74649Y17638D02*
X74379Y17300D01*
X75179Y17638D02*
X74740D01*
Y16929D01*
X75179D01*
X74740Y17300D02*
X75010D01*
X75297Y17638D02*
Y16929D01*
Y17638D02*
X75601D01*
X75702Y17604D01*
X75736Y17570D01*
X75769Y17503D01*
Y17435D01*
X75736Y17368D01*
X75702Y17334D01*
X75601Y17300D01*
X75297D01*
X75533D02*
X75769Y16929D01*
X76721Y17773D02*
X76653Y17705D01*
X76586Y17604D01*
X76518Y17469D01*
X76485Y17300D01*
Y17165D01*
X76518Y16997D01*
X76586Y16862D01*
X76653Y16760D01*
X76721Y16693D01*
X76653Y17705D02*
X76586Y17570D01*
X76552Y17469D01*
X76518Y17300D01*
Y17165D01*
X76552Y16997D01*
X76586Y16895D01*
X76653Y16760D01*
X77362Y17469D02*
X77328Y17536D01*
X77261Y17604D01*
X77193Y17638D01*
X77058D01*
X76991Y17604D01*
X76923Y17536D01*
X76890Y17469D01*
X76856Y17368D01*
Y17199D01*
X76890Y17098D01*
X76923Y17030D01*
X76991Y16963D01*
X77058Y16929D01*
X77193D01*
X77261Y16963D01*
X77328Y17030D01*
X77362Y17098D01*
X77763Y17638D02*
X77696Y17604D01*
X77628Y17536D01*
X77595Y17469D01*
X77561Y17368D01*
Y17199D01*
X77595Y17098D01*
X77628Y17030D01*
X77696Y16963D01*
X77763Y16929D01*
X77898D01*
X77966Y16963D01*
X78033Y17030D01*
X78067Y17098D01*
X78101Y17199D01*
Y17368D01*
X78067Y17469D01*
X78033Y17536D01*
X77966Y17604D01*
X77898Y17638D01*
X77763D01*
X78266Y17267D02*
X78570D01*
X78671Y17300D01*
X78705Y17334D01*
X78738Y17401D01*
Y17503D01*
X78705Y17570D01*
X78671Y17604D01*
X78570Y17638D01*
X78266D01*
Y16929D01*
X78897Y17267D02*
X79201D01*
X79302Y17300D01*
X79336Y17334D01*
X79369Y17401D01*
Y17503D01*
X79336Y17570D01*
X79302Y17604D01*
X79201Y17638D01*
X78897D01*
Y16929D01*
X79966Y17638D02*
X79528D01*
Y16929D01*
X79966D01*
X79528Y17300D02*
X79798D01*
X80085Y17638D02*
Y16929D01*
Y17638D02*
X80388D01*
X80489Y17604D01*
X80523Y17570D01*
X80557Y17503D01*
Y17435D01*
X80523Y17368D01*
X80489Y17334D01*
X80388Y17300D01*
X80085D01*
X80321D02*
X80557Y16929D01*
X80715Y17773D02*
X80783Y17705D01*
X80850Y17604D01*
X80918Y17469D01*
X80952Y17300D01*
Y17165D01*
X80918Y16997D01*
X80850Y16862D01*
X80783Y16760D01*
X80715Y16693D01*
X80783Y17705D02*
X80850Y17570D01*
X80884Y17469D01*
X80918Y17300D01*
Y17165D01*
X80884Y16997D01*
X80850Y16895D01*
X80783Y16760D01*
X74803Y22362D02*
Y21654D01*
Y22362D02*
X75039D01*
X75141Y22328D01*
X75208Y22261D01*
X75242Y22193D01*
X75275Y22092D01*
Y21923D01*
X75242Y21822D01*
X75208Y21755D01*
X75141Y21687D01*
X75039Y21654D01*
X74803D01*
X75873Y22362D02*
X75434D01*
Y21654D01*
X75873D01*
X75434Y22025D02*
X75704D01*
X76463Y22261D02*
X76396Y22328D01*
X76294Y22362D01*
X76159D01*
X76058Y22328D01*
X75991Y22261D01*
Y22193D01*
X76024Y22126D01*
X76058Y22092D01*
X76126Y22058D01*
X76328Y21991D01*
X76396Y21957D01*
X76429Y21923D01*
X76463Y21856D01*
Y21755D01*
X76396Y21687D01*
X76294Y21654D01*
X76159D01*
X76058Y21687D01*
X75991Y21755D01*
X77128Y22193D02*
X77094Y22261D01*
X77027Y22328D01*
X76959Y22362D01*
X76824D01*
X76757Y22328D01*
X76689Y22261D01*
X76655Y22193D01*
X76622Y22092D01*
Y21923D01*
X76655Y21822D01*
X76689Y21755D01*
X76757Y21687D01*
X76824Y21654D01*
X76959D01*
X77027Y21687D01*
X77094Y21755D01*
X77128Y21822D01*
X77327Y22362D02*
Y21654D01*
Y22362D02*
X77630D01*
X77732Y22328D01*
X77765Y22295D01*
X77799Y22227D01*
Y22160D01*
X77765Y22092D01*
X77732Y22058D01*
X77630Y22025D01*
X77327D01*
X77563D02*
X77799Y21654D01*
X77958Y22362D02*
Y21654D01*
X78106Y21991D02*
X78410D01*
X78511Y22025D01*
X78545Y22058D01*
X78578Y22126D01*
Y22227D01*
X78545Y22295D01*
X78511Y22328D01*
X78410Y22362D01*
X78106D01*
Y21654D01*
X78973Y22362D02*
Y21654D01*
X78737Y22362D02*
X79209D01*
X79294D02*
Y21654D01*
X79645Y22362D02*
X79577Y22328D01*
X79510Y22261D01*
X79476Y22193D01*
X79442Y22092D01*
Y21923D01*
X79476Y21822D01*
X79510Y21755D01*
X79577Y21687D01*
X79645Y21654D01*
X79780D01*
X79847Y21687D01*
X79915Y21755D01*
X79948Y21822D01*
X79982Y21923D01*
Y22092D01*
X79948Y22193D01*
X79915Y22261D01*
X79847Y22328D01*
X79780Y22362D01*
X79645D01*
X80147D02*
Y21654D01*
Y22362D02*
X80620Y21654D01*
Y22362D02*
Y21654D01*
X80315Y23937D02*
Y23228D01*
Y23937D02*
X80754D01*
X80315Y23599D02*
X80585D01*
X80835Y23937D02*
Y23228D01*
X80983Y23937D02*
Y23228D01*
X81388D01*
X81465Y23937D02*
Y23228D01*
Y23937D02*
X81735Y23228D01*
X82005Y23937D02*
X81735Y23228D01*
X82005Y23937D02*
Y23228D01*
X83237Y23836D02*
X83169Y23903D01*
X83068Y23937D01*
X82933D01*
X82832Y23903D01*
X82764Y23836D01*
Y23768D01*
X82798Y23701D01*
X82832Y23667D01*
X82899Y23633D01*
X83102Y23566D01*
X83169Y23532D01*
X83203Y23498D01*
X83237Y23431D01*
Y23330D01*
X83169Y23262D01*
X83068Y23228D01*
X82933D01*
X82832Y23262D01*
X82764Y23330D01*
X83834Y23937D02*
X83395D01*
Y23228D01*
X83834D01*
X83395Y23599D02*
X83665D01*
X84188Y23937D02*
Y23228D01*
X83952Y23937D02*
X84424D01*
X85065D02*
Y23228D01*
X85470D01*
X85548Y23937D02*
Y23228D01*
X86169Y23836D02*
X86101Y23903D01*
X86000Y23937D01*
X85865D01*
X85764Y23903D01*
X85696Y23836D01*
Y23768D01*
X85730Y23701D01*
X85764Y23667D01*
X85831Y23633D01*
X86034Y23566D01*
X86101Y23532D01*
X86135Y23498D01*
X86169Y23431D01*
Y23330D01*
X86101Y23262D01*
X86000Y23228D01*
X85865D01*
X85764Y23262D01*
X85696Y23330D01*
X86563Y23937D02*
Y23228D01*
X86327Y23937D02*
X86800D01*
X70472Y12913D02*
Y12205D01*
Y12913D02*
X70776D01*
X70877Y12880D01*
X70911Y12846D01*
X70945Y12778D01*
Y12711D01*
X70911Y12643D01*
X70877Y12610D01*
X70776Y12576D01*
X70472D02*
X70776D01*
X70877Y12542D01*
X70911Y12508D01*
X70945Y12441D01*
Y12340D01*
X70911Y12272D01*
X70877Y12238D01*
X70776Y12205D01*
X70472D01*
X71306Y12913D02*
X71238Y12880D01*
X71171Y12812D01*
X71137Y12745D01*
X71103Y12643D01*
Y12475D01*
X71137Y12373D01*
X71171Y12306D01*
X71238Y12238D01*
X71306Y12205D01*
X71441D01*
X71508Y12238D01*
X71576Y12306D01*
X71609Y12373D01*
X71643Y12475D01*
Y12643D01*
X71609Y12745D01*
X71576Y12812D01*
X71508Y12880D01*
X71441Y12913D01*
X71306D01*
X72045D02*
Y12205D01*
X71808Y12913D02*
X72281D01*
X72601D02*
Y12205D01*
X72365Y12913D02*
X72838D01*
X73124D02*
X73057Y12880D01*
X72989Y12812D01*
X72956Y12745D01*
X72922Y12643D01*
Y12475D01*
X72956Y12373D01*
X72989Y12306D01*
X73057Y12238D01*
X73124Y12205D01*
X73259D01*
X73327Y12238D01*
X73394Y12306D01*
X73428Y12373D01*
X73462Y12475D01*
Y12643D01*
X73428Y12745D01*
X73394Y12812D01*
X73327Y12880D01*
X73259Y12913D01*
X73124D01*
X73627D02*
Y12205D01*
Y12913D02*
X73897Y12205D01*
X74167Y12913D02*
X73897Y12205D01*
X74167Y12913D02*
Y12205D01*
X75128Y12913D02*
X75061Y12880D01*
X74993Y12812D01*
X74960Y12745D01*
X74926Y12643D01*
Y12475D01*
X74960Y12373D01*
X74993Y12306D01*
X75061Y12238D01*
X75128Y12205D01*
X75263D01*
X75331Y12238D01*
X75398Y12306D01*
X75432Y12373D01*
X75466Y12475D01*
Y12643D01*
X75432Y12745D01*
X75398Y12812D01*
X75331Y12880D01*
X75263Y12913D01*
X75128D01*
X75631D02*
X75901Y12205D01*
X76171Y12913D02*
X75901Y12205D01*
X76701Y12913D02*
X76262D01*
Y12205D01*
X76701D01*
X76262Y12576D02*
X76532D01*
X76819Y12913D02*
Y12205D01*
Y12913D02*
X77122D01*
X77224Y12880D01*
X77257Y12846D01*
X77291Y12778D01*
Y12711D01*
X77257Y12643D01*
X77224Y12610D01*
X77122Y12576D01*
X76819D01*
X77055D02*
X77291Y12205D01*
X77450Y12913D02*
Y12205D01*
X77854D01*
X78472D02*
X78202Y12913D01*
X77932Y12205D01*
X78033Y12441D02*
X78371D01*
X78637Y12913D02*
X78907Y12576D01*
Y12205D01*
X79177Y12913D02*
X78907Y12576D01*
X80061Y13048D02*
X79993Y12981D01*
X79926Y12880D01*
X79858Y12745D01*
X79825Y12576D01*
Y12441D01*
X79858Y12272D01*
X79926Y12137D01*
X79993Y12036D01*
X80061Y11969D01*
X79993Y12981D02*
X79926Y12846D01*
X79892Y12745D01*
X79858Y12576D01*
Y12441D01*
X79892Y12272D01*
X79926Y12171D01*
X79993Y12036D01*
X80668Y12812D02*
X80601Y12880D01*
X80500Y12913D01*
X80365D01*
X80263Y12880D01*
X80196Y12812D01*
Y12745D01*
X80230Y12677D01*
X80263Y12643D01*
X80331Y12610D01*
X80533Y12542D01*
X80601Y12508D01*
X80634Y12475D01*
X80668Y12407D01*
Y12306D01*
X80601Y12238D01*
X80500Y12205D01*
X80365D01*
X80263Y12238D01*
X80196Y12306D01*
X80827Y12913D02*
Y12205D01*
X80975Y12913D02*
Y12205D01*
X81380D01*
X81458Y12913D02*
Y12205D01*
X81930Y12913D02*
X81458Y12441D01*
X81626Y12610D02*
X81930Y12205D01*
X82561Y12812D02*
X82493Y12880D01*
X82392Y12913D01*
X82257D01*
X82156Y12880D01*
X82089Y12812D01*
Y12745D01*
X82122Y12677D01*
X82156Y12643D01*
X82224Y12610D01*
X82426Y12542D01*
X82493Y12508D01*
X82527Y12475D01*
X82561Y12407D01*
Y12306D01*
X82493Y12238D01*
X82392Y12205D01*
X82257D01*
X82156Y12238D01*
X82089Y12306D01*
X83226Y12745D02*
X83192Y12812D01*
X83124Y12880D01*
X83057Y12913D01*
X82922D01*
X82854Y12880D01*
X82787Y12812D01*
X82753Y12745D01*
X82720Y12643D01*
Y12475D01*
X82753Y12373D01*
X82787Y12306D01*
X82854Y12238D01*
X82922Y12205D01*
X83057D01*
X83124Y12238D01*
X83192Y12306D01*
X83226Y12373D01*
X83425Y12913D02*
Y12205D01*
Y12913D02*
X83728D01*
X83830Y12880D01*
X83863Y12846D01*
X83897Y12778D01*
Y12711D01*
X83863Y12643D01*
X83830Y12610D01*
X83728Y12576D01*
X83425D01*
X83661D02*
X83897Y12205D01*
X84494Y12913D02*
X84056D01*
Y12205D01*
X84494D01*
X84056Y12576D02*
X84325D01*
X85051Y12913D02*
X84612D01*
Y12205D01*
X85051D01*
X84612Y12576D02*
X84882D01*
X85169Y12913D02*
Y12205D01*
Y12913D02*
X85641Y12205D01*
Y12913D02*
Y12205D01*
X85837Y13048D02*
X85904Y12981D01*
X85972Y12880D01*
X86039Y12745D01*
X86073Y12576D01*
Y12441D01*
X86039Y12272D01*
X85972Y12137D01*
X85904Y12036D01*
X85837Y11969D01*
X85904Y12981D02*
X85972Y12846D01*
X86006Y12745D01*
X86039Y12576D01*
Y12441D01*
X86006Y12272D01*
X85972Y12171D01*
X85904Y12036D01*
X70472Y14488D02*
Y13780D01*
Y14488D02*
X70776D01*
X70877Y14454D01*
X70911Y14421D01*
X70945Y14353D01*
Y14286D01*
X70911Y14218D01*
X70877Y14184D01*
X70776Y14151D01*
X70472D02*
X70776D01*
X70877Y14117D01*
X70911Y14083D01*
X70945Y14016D01*
Y13914D01*
X70911Y13847D01*
X70877Y13813D01*
X70776Y13780D01*
X70472D01*
X71306Y14488D02*
X71238Y14454D01*
X71171Y14387D01*
X71137Y14319D01*
X71103Y14218D01*
Y14049D01*
X71137Y13948D01*
X71171Y13881D01*
X71238Y13813D01*
X71306Y13780D01*
X71441D01*
X71508Y13813D01*
X71576Y13881D01*
X71609Y13948D01*
X71643Y14049D01*
Y14218D01*
X71609Y14319D01*
X71576Y14387D01*
X71508Y14454D01*
X71441Y14488D01*
X71306D01*
X72045D02*
Y13780D01*
X71808Y14488D02*
X72281D01*
X72601D02*
Y13780D01*
X72365Y14488D02*
X72838D01*
X73124D02*
X73057Y14454D01*
X72989Y14387D01*
X72956Y14319D01*
X72922Y14218D01*
Y14049D01*
X72956Y13948D01*
X72989Y13881D01*
X73057Y13813D01*
X73124Y13780D01*
X73259D01*
X73327Y13813D01*
X73394Y13881D01*
X73428Y13948D01*
X73462Y14049D01*
Y14218D01*
X73428Y14319D01*
X73394Y14387D01*
X73327Y14454D01*
X73259Y14488D01*
X73124D01*
X73627D02*
Y13780D01*
Y14488D02*
X73897Y13780D01*
X74167Y14488D02*
X73897Y13780D01*
X74167Y14488D02*
Y13780D01*
X75398Y14387D02*
X75331Y14454D01*
X75230Y14488D01*
X75095D01*
X74993Y14454D01*
X74926Y14387D01*
Y14319D01*
X74960Y14252D01*
X74993Y14218D01*
X75061Y14184D01*
X75263Y14117D01*
X75331Y14083D01*
X75365Y14049D01*
X75398Y13982D01*
Y13881D01*
X75331Y13813D01*
X75230Y13780D01*
X75095D01*
X74993Y13813D01*
X74926Y13881D01*
X75759Y14488D02*
X75692Y14454D01*
X75624Y14387D01*
X75591Y14319D01*
X75557Y14218D01*
Y14049D01*
X75591Y13948D01*
X75624Y13881D01*
X75692Y13813D01*
X75759Y13780D01*
X75894D01*
X75962Y13813D01*
X76029Y13881D01*
X76063Y13948D01*
X76097Y14049D01*
Y14218D01*
X76063Y14319D01*
X76029Y14387D01*
X75962Y14454D01*
X75894Y14488D01*
X75759D01*
X76262D02*
Y13780D01*
X76667D01*
X76744Y14488D02*
Y13780D01*
Y14488D02*
X76981D01*
X77082Y14454D01*
X77149Y14387D01*
X77183Y14319D01*
X77217Y14218D01*
Y14049D01*
X77183Y13948D01*
X77149Y13881D01*
X77082Y13813D01*
X76981Y13780D01*
X76744D01*
X77814Y14488D02*
X77375D01*
Y13780D01*
X77814D01*
X77375Y14151D02*
X77645D01*
X77932Y14488D02*
Y13780D01*
Y14488D02*
X78236D01*
X78337Y14454D01*
X78371Y14421D01*
X78404Y14353D01*
Y14286D01*
X78371Y14218D01*
X78337Y14184D01*
X78236Y14151D01*
X77932D01*
X78168D02*
X78404Y13780D01*
X79120Y14488D02*
Y13780D01*
Y14488D02*
X79390Y13780D01*
X79659Y14488D02*
X79390Y13780D01*
X79659Y14488D02*
Y13780D01*
X80402D02*
X80132Y14488D01*
X79862Y13780D01*
X79963Y14016D02*
X80300D01*
X81039Y14387D02*
X80972Y14454D01*
X80871Y14488D01*
X80736D01*
X80634Y14454D01*
X80567Y14387D01*
Y14319D01*
X80601Y14252D01*
X80634Y14218D01*
X80702Y14184D01*
X80904Y14117D01*
X80972Y14083D01*
X81006Y14049D01*
X81039Y13982D01*
Y13881D01*
X80972Y13813D01*
X80871Y13780D01*
X80736D01*
X80634Y13813D01*
X80567Y13881D01*
X81198Y14488D02*
Y13780D01*
X81670Y14488D02*
X81198Y14016D01*
X81367Y14184D02*
X81670Y13780D01*
X87795Y12913D02*
Y12407D01*
X87829Y12306D01*
X87896Y12238D01*
X87998Y12205D01*
X88065D01*
X88166Y12238D01*
X88234Y12306D01*
X88268Y12407D01*
Y12913D01*
X88463D02*
Y12205D01*
X88936Y12913D02*
Y12205D01*
X88463Y12576D02*
X88936D01*
X89131Y12913D02*
Y12205D01*
Y12913D02*
X89570D01*
X89131Y12576D02*
X89401D01*
X90208Y12913D02*
Y12205D01*
Y12913D02*
X90646D01*
X90208Y12576D02*
X90477D01*
X90727Y12913D02*
Y12205D01*
Y12913D02*
X90997Y12205D01*
X91267Y12913D02*
X90997Y12205D01*
X91267Y12913D02*
Y12205D01*
X92026Y12913D02*
Y12205D01*
Y12913D02*
X92330D01*
X92431Y12880D01*
X92465Y12846D01*
X92498Y12778D01*
Y12711D01*
X92465Y12643D01*
X92431Y12610D01*
X92330Y12576D01*
X92026D01*
X92262D02*
X92498Y12205D01*
X92657Y12913D02*
X93129Y12205D01*
Y12913D02*
X92657Y12205D01*
X93322Y12272D02*
X93288Y12238D01*
X93322Y12205D01*
X93355Y12238D01*
X93322Y12272D01*
X94017Y12745D02*
X93983Y12812D01*
X93915Y12880D01*
X93848Y12913D01*
X93713D01*
X93646Y12880D01*
X93578Y12812D01*
X93544Y12745D01*
X93511Y12643D01*
Y12475D01*
X93544Y12373D01*
X93578Y12306D01*
X93646Y12238D01*
X93713Y12205D01*
X93848D01*
X93915Y12238D01*
X93983Y12306D01*
X94017Y12373D01*
Y12475D01*
X93848D02*
X94017D01*
X94179Y12913D02*
Y12205D01*
Y12913D02*
X94482D01*
X94583Y12880D01*
X94617Y12846D01*
X94651Y12778D01*
Y12711D01*
X94617Y12643D01*
X94583Y12610D01*
X94482Y12576D01*
X94179D02*
X94482D01*
X94583Y12542D01*
X94617Y12508D01*
X94651Y12441D01*
Y12340D01*
X94617Y12272D01*
X94583Y12238D01*
X94482Y12205D01*
X94179D01*
X95012Y12913D02*
X94944Y12880D01*
X94877Y12812D01*
X94843Y12745D01*
X94810Y12643D01*
Y12475D01*
X94843Y12373D01*
X94877Y12306D01*
X94944Y12238D01*
X95012Y12205D01*
X95147D01*
X95214Y12238D01*
X95282Y12306D01*
X95316Y12373D01*
X95349Y12475D01*
Y12643D01*
X95316Y12745D01*
X95282Y12812D01*
X95214Y12880D01*
X95147Y12913D01*
X95012D01*
D56*
X43445Y17531D02*
X43045D01*
X43445Y17931D01*
Y18031D01*
X43345Y18131D01*
X43145D01*
X43045Y18031D01*
X44045Y17531D02*
X43645D01*
X44045Y17931D01*
Y18031D01*
X43945Y18131D01*
X43745D01*
X43645Y18031D01*
X48345Y17531D02*
X47945D01*
X48345Y17931D01*
Y18031D01*
X48245Y18131D01*
X48045D01*
X47945Y18031D01*
X48945Y18131D02*
X48545D01*
Y17831D01*
X48745Y17931D01*
X48845D01*
X48945Y17831D01*
Y17631D01*
X48845Y17531D01*
X48645D01*
X48545Y17631D01*
X49144Y17531D02*
Y17931D01*
X49244D01*
X49344Y17831D01*
Y17531D01*
Y17831D01*
X49444Y17931D01*
X49544Y17831D01*
Y17531D01*
X49744D02*
X49944D01*
X49844D01*
Y17931D01*
X49744D01*
X50244Y17531D02*
X50444D01*
X50344D01*
Y18131D01*
X50244D01*
X54945Y18031D02*
X55045Y18131D01*
X55245D01*
X55345Y18031D01*
Y17631D01*
X55245Y17531D01*
X55045D01*
X54945Y17631D01*
Y18031D01*
X55545Y17531D02*
Y17631D01*
X55645D01*
Y17531D01*
X55545D01*
X56444Y18131D02*
X56244Y18031D01*
X56045Y17831D01*
Y17631D01*
X56144Y17531D01*
X56344D01*
X56444Y17631D01*
Y17731D01*
X56344Y17831D01*
X56045D01*
X56644Y18031D02*
X56744Y18131D01*
X56944D01*
X57044Y18031D01*
Y17931D01*
X56944Y17831D01*
X56844D01*
X56944D01*
X57044Y17731D01*
Y17631D01*
X56944Y17531D01*
X56744D01*
X56644Y17631D01*
X57644Y18131D02*
X57244D01*
Y17831D01*
X57444Y17931D01*
X57544D01*
X57644Y17831D01*
Y17631D01*
X57544Y17531D01*
X57344D01*
X57244Y17631D01*
X57844Y17531D02*
Y17931D01*
X57944D01*
X58044Y17831D01*
Y17531D01*
Y17831D01*
X58144Y17931D01*
X58244Y17831D01*
Y17531D01*
X58444D02*
Y17931D01*
X58544D01*
X58644Y17831D01*
Y17531D01*
Y17831D01*
X58744Y17931D01*
X58844Y17831D01*
Y17531D01*
X61945D02*
Y18131D01*
X62245D01*
X62345Y18031D01*
Y17831D01*
X62245Y17731D01*
X61945D01*
X62545Y18131D02*
X62945D01*
X62745D01*
Y17531D01*
X63144Y18131D02*
Y17531D01*
Y17831D01*
X63544D01*
Y18131D01*
Y17531D01*
X43445Y16931D02*
X43045D01*
Y16631D01*
X43245Y16731D01*
X43345D01*
X43445Y16631D01*
Y16431D01*
X43345Y16331D01*
X43145D01*
X43045Y16431D01*
X43645Y16831D02*
X43745Y16931D01*
X43945D01*
X44045Y16831D01*
Y16731D01*
X43945Y16631D01*
X43845D01*
X43945D01*
X44045Y16531D01*
Y16431D01*
X43945Y16331D01*
X43745D01*
X43645Y16431D01*
X48345Y16331D02*
X47945D01*
X48345Y16731D01*
Y16831D01*
X48245Y16931D01*
X48045D01*
X47945Y16831D01*
X48545D02*
X48645Y16931D01*
X48845D01*
X48945Y16831D01*
Y16731D01*
X48845Y16631D01*
X48945Y16531D01*
Y16431D01*
X48845Y16331D01*
X48645D01*
X48545Y16431D01*
Y16531D01*
X48645Y16631D01*
X48545Y16731D01*
Y16831D01*
X48645Y16631D02*
X48845D01*
X49144Y16331D02*
Y16731D01*
X49244D01*
X49344Y16631D01*
Y16331D01*
Y16631D01*
X49444Y16731D01*
X49544Y16631D01*
Y16331D01*
X49744D02*
X49944D01*
X49844D01*
Y16731D01*
X49744D01*
X50244Y16331D02*
X50444D01*
X50344D01*
Y16931D01*
X50244D01*
X54945Y16831D02*
X55045Y16931D01*
X55245D01*
X55345Y16831D01*
Y16431D01*
X55245Y16331D01*
X55045D01*
X54945Y16431D01*
Y16831D01*
X55545Y16331D02*
Y16431D01*
X55645D01*
Y16331D01*
X55545D01*
X56045Y16931D02*
X56444D01*
Y16831D01*
X56045Y16431D01*
Y16331D01*
X56644D02*
X56844D01*
X56744D01*
Y16931D01*
X56644Y16831D01*
X57144Y16331D02*
X57344D01*
X57244D01*
Y16931D01*
X57144Y16831D01*
X58044Y16331D02*
X57644D01*
X58044Y16731D01*
Y16831D01*
X57944Y16931D01*
X57744D01*
X57644Y16831D01*
X58244Y16331D02*
Y16731D01*
X58344D01*
X58444Y16631D01*
Y16331D01*
Y16631D01*
X58544Y16731D01*
X58644Y16631D01*
Y16331D01*
X58844D02*
Y16731D01*
X58944D01*
X59044Y16631D01*
Y16331D01*
Y16631D01*
X59144Y16731D01*
X59243Y16631D01*
Y16331D01*
X61945D02*
Y16931D01*
X62245D01*
X62345Y16831D01*
Y16631D01*
X62245Y16531D01*
X61945D01*
X62545Y16931D02*
X62945D01*
X62745D01*
Y16331D01*
X63144Y16931D02*
Y16331D01*
Y16631D01*
X63544D01*
Y16931D01*
Y16331D01*
X43045Y15131D02*
X43245D01*
X43145D01*
Y15731D01*
X43045Y15631D01*
X43545D02*
X43645Y15731D01*
X43845D01*
X43945Y15631D01*
Y15531D01*
X43845Y15431D01*
X43745D01*
X43845D01*
X43945Y15331D01*
Y15231D01*
X43845Y15131D01*
X43645D01*
X43545Y15231D01*
X44145Y15631D02*
X44244Y15731D01*
X44444D01*
X44544Y15631D01*
Y15231D01*
X44444Y15131D01*
X44244D01*
X44145Y15231D01*
Y15631D01*
X47945D02*
X48045Y15731D01*
X48245D01*
X48345Y15631D01*
Y15531D01*
X48245Y15431D01*
X48145D01*
X48245D01*
X48345Y15331D01*
Y15231D01*
X48245Y15131D01*
X48045D01*
X47945Y15231D01*
X48545Y15131D02*
X48745D01*
X48645D01*
Y15731D01*
X48545Y15631D01*
X49045Y15131D02*
Y15231D01*
X49144D01*
Y15131D01*
X49045D01*
X49844D02*
Y15731D01*
X49544Y15431D01*
X49944D01*
X50144Y15231D02*
X50244Y15131D01*
X50444D01*
X50544Y15231D01*
Y15631D01*
X50444Y15731D01*
X50244D01*
X50144Y15631D01*
Y15531D01*
X50244Y15431D01*
X50544D01*
X51144Y15731D02*
X50944Y15631D01*
X50744Y15431D01*
Y15231D01*
X50844Y15131D01*
X51044D01*
X51144Y15231D01*
Y15331D01*
X51044Y15431D01*
X50744D01*
X51344Y15131D02*
Y15531D01*
X51444D01*
X51544Y15431D01*
Y15131D01*
Y15431D01*
X51644Y15531D01*
X51744Y15431D01*
Y15131D01*
X51944D02*
X52144D01*
X52044D01*
Y15531D01*
X51944D01*
X52443Y15131D02*
X52643D01*
X52543D01*
Y15731D01*
X52443D01*
X54945Y15631D02*
X55045Y15731D01*
X55245D01*
X55345Y15631D01*
Y15231D01*
X55245Y15131D01*
X55045D01*
X54945Y15231D01*
Y15631D01*
X55545Y15131D02*
Y15231D01*
X55645D01*
Y15131D01*
X55545D01*
X56045Y15631D02*
X56144Y15731D01*
X56344D01*
X56444Y15631D01*
Y15531D01*
X56344Y15431D01*
X56444Y15331D01*
Y15231D01*
X56344Y15131D01*
X56144D01*
X56045Y15231D01*
Y15331D01*
X56144Y15431D01*
X56045Y15531D01*
Y15631D01*
X56144Y15431D02*
X56344D01*
X56644Y15131D02*
Y15531D01*
X56744D01*
X56844Y15431D01*
Y15131D01*
Y15431D01*
X56944Y15531D01*
X57044Y15431D01*
Y15131D01*
X57244D02*
Y15531D01*
X57344D01*
X57444Y15431D01*
Y15131D01*
Y15431D01*
X57544Y15531D01*
X57644Y15431D01*
Y15131D01*
X61945D02*
Y15731D01*
X62245D01*
X62345Y15631D01*
Y15431D01*
X62245Y15331D01*
X61945D01*
X62545Y15731D02*
X62945D01*
X62745D01*
Y15131D01*
X63144Y15731D02*
Y15131D01*
Y15431D01*
X63544D01*
Y15731D01*
Y15131D01*
X43445Y14531D02*
X43245Y14431D01*
X43045Y14231D01*
Y14031D01*
X43145Y13931D01*
X43345D01*
X43445Y14031D01*
Y14131D01*
X43345Y14231D01*
X43045D01*
X47945Y14431D02*
X48045Y14531D01*
X48245D01*
X48345Y14431D01*
Y14331D01*
X48245Y14231D01*
X48145D01*
X48245D01*
X48345Y14131D01*
Y14031D01*
X48245Y13931D01*
X48045D01*
X47945Y14031D01*
X48945Y14531D02*
X48545D01*
Y14231D01*
X48745Y14331D01*
X48845D01*
X48945Y14231D01*
Y14031D01*
X48845Y13931D01*
X48645D01*
X48545Y14031D01*
X49144Y13931D02*
Y14031D01*
X49244D01*
Y13931D01*
X49144D01*
X49944D02*
Y14531D01*
X49644Y14231D01*
X50044D01*
X50244Y14431D02*
X50344Y14531D01*
X50544D01*
X50644Y14431D01*
Y14331D01*
X50544Y14231D01*
X50444D01*
X50544D01*
X50644Y14131D01*
Y14031D01*
X50544Y13931D01*
X50344D01*
X50244Y14031D01*
X50844Y14431D02*
X50944Y14531D01*
X51144D01*
X51244Y14431D01*
Y14331D01*
X51144Y14231D01*
X51044D01*
X51144D01*
X51244Y14131D01*
Y14031D01*
X51144Y13931D01*
X50944D01*
X50844Y14031D01*
X51444Y13931D02*
Y14331D01*
X51544D01*
X51644Y14231D01*
Y13931D01*
Y14231D01*
X51744Y14331D01*
X51844Y14231D01*
Y13931D01*
X52044D02*
X52243D01*
X52144D01*
Y14331D01*
X52044D01*
X52543Y13931D02*
X52743D01*
X52643D01*
Y14531D01*
X52543D01*
X54945Y14431D02*
X55045Y14531D01*
X55245D01*
X55345Y14431D01*
Y14031D01*
X55245Y13931D01*
X55045D01*
X54945Y14031D01*
Y14431D01*
X55545Y13931D02*
Y14031D01*
X55645D01*
Y13931D01*
X55545D01*
X56045Y14031D02*
X56144Y13931D01*
X56344D01*
X56444Y14031D01*
Y14431D01*
X56344Y14531D01*
X56144D01*
X56045Y14431D01*
Y14331D01*
X56144Y14231D01*
X56444D01*
X56644Y13931D02*
Y14331D01*
X56744D01*
X56844Y14231D01*
Y13931D01*
Y14231D01*
X56944Y14331D01*
X57044Y14231D01*
Y13931D01*
X57244D02*
Y14331D01*
X57344D01*
X57444Y14231D01*
Y13931D01*
Y14231D01*
X57544Y14331D01*
X57644Y14231D01*
Y13931D01*
X61945D02*
Y14531D01*
X62245D01*
X62345Y14431D01*
Y14231D01*
X62245Y14131D01*
X61945D01*
X62545Y14531D02*
X62945D01*
X62745D01*
Y13931D01*
X63144Y14531D02*
Y13931D01*
Y14231D01*
X63544D01*
Y14531D01*
Y13931D01*
X43045Y12831D02*
X43145Y12731D01*
X43345D01*
X43445Y12831D01*
Y13231D01*
X43345Y13331D01*
X43145D01*
X43045Y13231D01*
Y13131D01*
X43145Y13031D01*
X43445D01*
X47945Y13231D02*
X48045Y13331D01*
X48245D01*
X48345Y13231D01*
Y13131D01*
X48245Y13031D01*
X48145D01*
X48245D01*
X48345Y12931D01*
Y12831D01*
X48245Y12731D01*
X48045D01*
X47945Y12831D01*
X48545D02*
X48645Y12731D01*
X48845D01*
X48945Y12831D01*
Y13231D01*
X48845Y13331D01*
X48645D01*
X48545Y13231D01*
Y13131D01*
X48645Y13031D01*
X48945D01*
X49144Y12731D02*
Y12831D01*
X49244D01*
Y12731D01*
X49144D01*
X49644Y13231D02*
X49744Y13331D01*
X49944D01*
X50044Y13231D01*
Y13131D01*
X49944Y13031D01*
X49844D01*
X49944D01*
X50044Y12931D01*
Y12831D01*
X49944Y12731D01*
X49744D01*
X49644Y12831D01*
X50244Y13331D02*
X50644D01*
Y13231D01*
X50244Y12831D01*
Y12731D01*
X50844D02*
Y13131D01*
X50944D01*
X51044Y13031D01*
Y12731D01*
Y13031D01*
X51144Y13131D01*
X51244Y13031D01*
Y12731D01*
X51444D02*
X51644D01*
X51544D01*
Y13131D01*
X51444D01*
X51944Y12731D02*
X52144D01*
X52044D01*
Y13331D01*
X51944D01*
X54945Y12731D02*
X55145D01*
X55045D01*
Y13331D01*
X54945Y13231D01*
X55445Y12731D02*
Y13131D01*
X55545D01*
X55645Y13031D01*
Y12731D01*
Y13031D01*
X55745Y13131D01*
X55845Y13031D01*
Y12731D01*
X56045D02*
Y13131D01*
X56144D01*
X56244Y13031D01*
Y12731D01*
Y13031D01*
X56344Y13131D01*
X56444Y13031D01*
Y12731D01*
X61945D02*
Y13331D01*
X62245D01*
X62345Y13231D01*
Y13031D01*
X62245Y12931D01*
X61945D01*
X62545Y13331D02*
X62945D01*
X62745D01*
Y12731D01*
X63144Y13331D02*
Y12731D01*
Y13031D01*
X63544D01*
Y13331D01*
Y12731D01*
X43445Y11531D02*
X43045D01*
X43445Y11931D01*
Y12031D01*
X43345Y12131D01*
X43145D01*
X43045Y12031D01*
X48245Y11531D02*
Y12131D01*
X47945Y11831D01*
X48345D01*
X48945Y12131D02*
X48545D01*
Y11831D01*
X48745Y11931D01*
X48845D01*
X48945Y11831D01*
Y11631D01*
X48845Y11531D01*
X48645D01*
X48545Y11631D01*
X49144Y11531D02*
Y11931D01*
X49244D01*
X49344Y11831D01*
Y11531D01*
Y11831D01*
X49444Y11931D01*
X49544Y11831D01*
Y11531D01*
X49744D02*
X49944D01*
X49844D01*
Y11931D01*
X49744D01*
X50244Y11531D02*
X50444D01*
X50344D01*
Y12131D01*
X50244D01*
X54945Y11531D02*
X55145D01*
X55045D01*
Y12131D01*
X54945Y12031D01*
X55445Y11531D02*
Y11631D01*
X55545D01*
Y11531D01*
X55445D01*
X55945D02*
X56144D01*
X56045D01*
Y12131D01*
X55945Y12031D01*
X56744Y11531D02*
Y12131D01*
X56444Y11831D01*
X56844D01*
X57044Y12031D02*
X57144Y12131D01*
X57344D01*
X57444Y12031D01*
Y11931D01*
X57344Y11831D01*
X57244D01*
X57344D01*
X57444Y11731D01*
Y11631D01*
X57344Y11531D01*
X57144D01*
X57044Y11631D01*
X57644Y11531D02*
Y11931D01*
X57744D01*
X57844Y11831D01*
Y11531D01*
Y11831D01*
X57944Y11931D01*
X58044Y11831D01*
Y11531D01*
X58244D02*
Y11931D01*
X58344D01*
X58444Y11831D01*
Y11531D01*
Y11831D01*
X58544Y11931D01*
X58644Y11831D01*
Y11531D01*
X61945D02*
Y12131D01*
X62245D01*
X62345Y12031D01*
Y11831D01*
X62245Y11731D01*
X61945D01*
X62545Y12131D02*
X62945D01*
X62745D01*
Y11531D01*
X63144Y12131D02*
Y11531D01*
Y11831D01*
X63544D01*
Y12131D01*
Y11531D01*
X43045Y10331D02*
X43245D01*
X43145D01*
Y10931D01*
X43045Y10831D01*
X48345Y10931D02*
X48145Y10831D01*
X47945Y10631D01*
Y10431D01*
X48045Y10331D01*
X48245D01*
X48345Y10431D01*
Y10531D01*
X48245Y10631D01*
X47945D01*
X48945Y10331D02*
X48545D01*
X48945Y10731D01*
Y10831D01*
X48845Y10931D01*
X48645D01*
X48545Y10831D01*
X49144Y10331D02*
Y10431D01*
X49244D01*
Y10331D01*
X49144D01*
X49644Y10431D02*
X49744Y10331D01*
X49944D01*
X50044Y10431D01*
Y10831D01*
X49944Y10931D01*
X49744D01*
X49644Y10831D01*
Y10731D01*
X49744Y10631D01*
X50044D01*
X50244Y10431D02*
X50344Y10331D01*
X50544D01*
X50644Y10431D01*
Y10831D01*
X50544Y10931D01*
X50344D01*
X50244Y10831D01*
Y10731D01*
X50344Y10631D01*
X50644D01*
X51244Y10331D02*
X50844D01*
X51244Y10731D01*
Y10831D01*
X51144Y10931D01*
X50944D01*
X50844Y10831D01*
X51444Y10331D02*
Y10731D01*
X51544D01*
X51644Y10631D01*
Y10331D01*
Y10631D01*
X51744Y10731D01*
X51844Y10631D01*
Y10331D01*
X52044D02*
X52243D01*
X52144D01*
Y10731D01*
X52044D01*
X52543Y10331D02*
X52743D01*
X52643D01*
Y10931D01*
X52543D01*
X54945Y10331D02*
X55145D01*
X55045D01*
Y10931D01*
X54945Y10831D01*
X55445Y10331D02*
Y10431D01*
X55545D01*
Y10331D01*
X55445D01*
X56344Y10931D02*
X56144Y10831D01*
X55945Y10631D01*
Y10431D01*
X56045Y10331D01*
X56244D01*
X56344Y10431D01*
Y10531D01*
X56244Y10631D01*
X55945D01*
X56544Y10331D02*
Y10731D01*
X56644D01*
X56744Y10631D01*
Y10331D01*
Y10631D01*
X56844Y10731D01*
X56944Y10631D01*
Y10331D01*
X57144D02*
Y10731D01*
X57244D01*
X57344Y10631D01*
Y10331D01*
Y10631D01*
X57444Y10731D01*
X57544Y10631D01*
Y10331D01*
X61945D02*
Y10931D01*
X62245D01*
X62345Y10831D01*
Y10631D01*
X62245Y10531D01*
X61945D01*
X62545Y10931D02*
X62945D01*
X62745D01*
Y10331D01*
X63144Y10931D02*
Y10331D01*
Y10631D01*
X63544D01*
Y10931D01*
Y10331D01*
X43345Y9131D02*
Y9731D01*
X43045Y9431D01*
X43445D01*
X48345Y9731D02*
X48145Y9631D01*
X47945Y9431D01*
Y9231D01*
X48045Y9131D01*
X48245D01*
X48345Y9231D01*
Y9331D01*
X48245Y9431D01*
X47945D01*
X48945Y9731D02*
X48745Y9631D01*
X48545Y9431D01*
Y9231D01*
X48645Y9131D01*
X48845D01*
X48945Y9231D01*
Y9331D01*
X48845Y9431D01*
X48545D01*
X49144Y9131D02*
Y9231D01*
X49244D01*
Y9131D01*
X49144D01*
X49644Y9231D02*
X49744Y9131D01*
X49944D01*
X50044Y9231D01*
Y9631D01*
X49944Y9731D01*
X49744D01*
X49644Y9631D01*
Y9531D01*
X49744Y9431D01*
X50044D01*
X50644Y9131D02*
X50244D01*
X50644Y9531D01*
Y9631D01*
X50544Y9731D01*
X50344D01*
X50244Y9631D01*
X50844Y9231D02*
X50944Y9131D01*
X51144D01*
X51244Y9231D01*
Y9631D01*
X51144Y9731D01*
X50944D01*
X50844Y9631D01*
Y9531D01*
X50944Y9431D01*
X51244D01*
X51444Y9131D02*
Y9531D01*
X51544D01*
X51644Y9431D01*
Y9131D01*
Y9431D01*
X51744Y9531D01*
X51844Y9431D01*
Y9131D01*
X52044D02*
X52243D01*
X52144D01*
Y9531D01*
X52044D01*
X52543Y9131D02*
X52743D01*
X52643D01*
Y9731D01*
X52543D01*
X54945Y9131D02*
X55145D01*
X55045D01*
Y9731D01*
X54945Y9631D01*
X55445Y9131D02*
Y9231D01*
X55545D01*
Y9131D01*
X55445D01*
X55945Y9731D02*
X56344D01*
Y9631D01*
X55945Y9231D01*
Y9131D01*
X56544D02*
Y9531D01*
X56644D01*
X56744Y9431D01*
Y9131D01*
Y9431D01*
X56844Y9531D01*
X56944Y9431D01*
Y9131D01*
X57144D02*
Y9531D01*
X57244D01*
X57344Y9431D01*
Y9131D01*
Y9431D01*
X57444Y9531D01*
X57544Y9431D01*
Y9131D01*
X61945D02*
Y9731D01*
X62245D01*
X62345Y9631D01*
Y9431D01*
X62245Y9331D01*
X61945D01*
X62545Y9731D02*
X62945D01*
X62745D01*
Y9131D01*
X63144Y9731D02*
Y9131D01*
Y9431D01*
X63544D01*
Y9731D01*
Y9131D01*
X43045Y7931D02*
X43245D01*
X43145D01*
Y8531D01*
X43045Y8431D01*
X47945Y8031D02*
X48045Y7931D01*
X48245D01*
X48345Y8031D01*
Y8431D01*
X48245Y8531D01*
X48045D01*
X47945Y8431D01*
Y8331D01*
X48045Y8231D01*
X48345D01*
X48845Y7931D02*
Y8531D01*
X48545Y8231D01*
X48945D01*
X49144Y7931D02*
Y8031D01*
X49244D01*
Y7931D01*
X49144D01*
X49944D02*
Y8531D01*
X49644Y8231D01*
X50044D01*
X50244Y8431D02*
X50344Y8531D01*
X50544D01*
X50644Y8431D01*
Y8331D01*
X50544Y8231D01*
X50644Y8131D01*
Y8031D01*
X50544Y7931D01*
X50344D01*
X50244Y8031D01*
Y8131D01*
X50344Y8231D01*
X50244Y8331D01*
Y8431D01*
X50344Y8231D02*
X50544D01*
X50844Y8431D02*
X50944Y8531D01*
X51144D01*
X51244Y8431D01*
Y8331D01*
X51144Y8231D01*
X51244Y8131D01*
Y8031D01*
X51144Y7931D01*
X50944D01*
X50844Y8031D01*
Y8131D01*
X50944Y8231D01*
X50844Y8331D01*
Y8431D01*
X50944Y8231D02*
X51144D01*
X51444Y7931D02*
Y8331D01*
X51544D01*
X51644Y8231D01*
Y7931D01*
Y8231D01*
X51744Y8331D01*
X51844Y8231D01*
Y7931D01*
X52044D02*
X52243D01*
X52144D01*
Y8331D01*
X52044D01*
X52543Y7931D02*
X52743D01*
X52643D01*
Y8531D01*
X52543D01*
X55345Y7931D02*
X54945D01*
X55345Y8331D01*
Y8431D01*
X55245Y8531D01*
X55045D01*
X54945Y8431D01*
X55545Y7931D02*
Y8031D01*
X55645D01*
Y7931D01*
X55545D01*
X56344D02*
Y8531D01*
X56045Y8231D01*
X56444D01*
X56644Y7931D02*
Y8331D01*
X56744D01*
X56844Y8231D01*
Y7931D01*
Y8231D01*
X56944Y8331D01*
X57044Y8231D01*
Y7931D01*
X57244D02*
Y8331D01*
X57344D01*
X57444Y8231D01*
Y7931D01*
Y8231D01*
X57544Y8331D01*
X57644Y8231D01*
Y7931D01*
X61945D02*
Y8531D01*
X62345Y7931D01*
Y8531D01*
X62545Y7931D02*
Y8531D01*
X62845D01*
X62945Y8431D01*
Y8231D01*
X62845Y8131D01*
X62545D01*
X63144Y8531D02*
X63544D01*
X63344D01*
Y7931D01*
X63744Y8531D02*
Y7931D01*
Y8231D01*
X64144D01*
Y8531D01*
Y7931D01*
X43445Y6731D02*
X43045D01*
X43445Y7131D01*
Y7231D01*
X43345Y7331D01*
X43145D01*
X43045Y7231D01*
X47945Y6731D02*
X48145D01*
X48045D01*
Y7331D01*
X47945Y7231D01*
X48845Y6731D02*
X48445D01*
X48845Y7131D01*
Y7231D01*
X48745Y7331D01*
X48545D01*
X48445Y7231D01*
X49444Y6731D02*
X49045D01*
X49444Y7131D01*
Y7231D01*
X49344Y7331D01*
X49144D01*
X49045Y7231D01*
X49644Y6731D02*
Y6831D01*
X49744D01*
Y6731D01*
X49644D01*
X50144Y7231D02*
X50244Y7331D01*
X50444D01*
X50544Y7231D01*
Y6831D01*
X50444Y6731D01*
X50244D01*
X50144Y6831D01*
Y7231D01*
X51044Y6731D02*
Y7331D01*
X50744Y7031D01*
X51144D01*
X51344Y7331D02*
X51744D01*
Y7231D01*
X51344Y6831D01*
Y6731D01*
X51944D02*
Y7131D01*
X52044D01*
X52144Y7031D01*
Y6731D01*
Y7031D01*
X52243Y7131D01*
X52343Y7031D01*
Y6731D01*
X52543D02*
X52743D01*
X52643D01*
Y7131D01*
X52543D01*
X53043Y6731D02*
X53243D01*
X53143D01*
Y7331D01*
X53043D01*
X54945Y7231D02*
X55045Y7331D01*
X55245D01*
X55345Y7231D01*
Y7131D01*
X55245Y7031D01*
X55145D01*
X55245D01*
X55345Y6931D01*
Y6831D01*
X55245Y6731D01*
X55045D01*
X54945Y6831D01*
X55545Y6731D02*
Y6831D01*
X55645D01*
Y6731D01*
X55545D01*
X56045D02*
X56244D01*
X56144D01*
Y7331D01*
X56045Y7231D01*
X56544Y6731D02*
Y7131D01*
X56644D01*
X56744Y7031D01*
Y6731D01*
Y7031D01*
X56844Y7131D01*
X56944Y7031D01*
Y6731D01*
X57144D02*
Y7131D01*
X57244D01*
X57344Y7031D01*
Y6731D01*
Y7031D01*
X57444Y7131D01*
X57544Y7031D01*
Y6731D01*
X61945D02*
Y7331D01*
X62245D01*
X62345Y7231D01*
Y7031D01*
X62245Y6931D01*
X61945D01*
X62545Y7331D02*
X62945D01*
X62745D01*
Y6731D01*
X63144Y7331D02*
Y6731D01*
Y7031D01*
X63544D01*
Y7331D01*
Y6731D01*
X43445Y6131D02*
X43045D01*
Y5831D01*
X43245Y5931D01*
X43345D01*
X43445Y5831D01*
Y5631D01*
X43345Y5531D01*
X43145D01*
X43045Y5631D01*
X47945Y5531D02*
X48145D01*
X48045D01*
Y6131D01*
X47945Y6031D01*
X48845Y5531D02*
X48445D01*
X48845Y5931D01*
Y6031D01*
X48745Y6131D01*
X48545D01*
X48445Y6031D01*
X49444Y6131D02*
X49045D01*
Y5831D01*
X49244Y5931D01*
X49344D01*
X49444Y5831D01*
Y5631D01*
X49344Y5531D01*
X49144D01*
X49045Y5631D01*
X49644Y5531D02*
Y5631D01*
X49744D01*
Y5531D01*
X49644D01*
X50144Y5631D02*
X50244Y5531D01*
X50444D01*
X50544Y5631D01*
Y6031D01*
X50444Y6131D01*
X50244D01*
X50144Y6031D01*
Y5931D01*
X50244Y5831D01*
X50544D01*
X50744Y6031D02*
X50844Y6131D01*
X51044D01*
X51144Y6031D01*
Y5931D01*
X51044Y5831D01*
X51144Y5731D01*
Y5631D01*
X51044Y5531D01*
X50844D01*
X50744Y5631D01*
Y5731D01*
X50844Y5831D01*
X50744Y5931D01*
Y6031D01*
X50844Y5831D02*
X51044D01*
X51644Y5531D02*
Y6131D01*
X51344Y5831D01*
X51744D01*
X51944Y5531D02*
Y5931D01*
X52044D01*
X52144Y5831D01*
Y5531D01*
Y5831D01*
X52243Y5931D01*
X52343Y5831D01*
Y5531D01*
X52543D02*
X52743D01*
X52643D01*
Y5931D01*
X52543D01*
X53043Y5531D02*
X53243D01*
X53143D01*
Y6131D01*
X53043D01*
X54945Y6031D02*
X55045Y6131D01*
X55245D01*
X55345Y6031D01*
Y5931D01*
X55245Y5831D01*
X55145D01*
X55245D01*
X55345Y5731D01*
Y5631D01*
X55245Y5531D01*
X55045D01*
X54945Y5631D01*
X55545Y5531D02*
Y5631D01*
X55645D01*
Y5531D01*
X55545D01*
X56444D02*
X56045D01*
X56444Y5931D01*
Y6031D01*
X56344Y6131D01*
X56144D01*
X56045Y6031D01*
X56644Y5531D02*
Y5931D01*
X56744D01*
X56844Y5831D01*
Y5531D01*
Y5831D01*
X56944Y5931D01*
X57044Y5831D01*
Y5531D01*
X57244D02*
Y5931D01*
X57344D01*
X57444Y5831D01*
Y5531D01*
Y5831D01*
X57544Y5931D01*
X57644Y5831D01*
Y5531D01*
X61945D02*
Y6131D01*
X62245D01*
X62345Y6031D01*
Y5831D01*
X62245Y5731D01*
X61945D01*
X62545Y6131D02*
X62945D01*
X62745D01*
Y5531D01*
X63144Y6131D02*
Y5531D01*
Y5831D01*
X63544D01*
Y6131D01*
Y5531D01*
X43445Y4331D02*
X43045D01*
X43445Y4731D01*
Y4831D01*
X43345Y4931D01*
X43145D01*
X43045Y4831D01*
X43645D02*
X43745Y4931D01*
X43945D01*
X44045Y4831D01*
Y4731D01*
X43945Y4631D01*
X43845D01*
X43945D01*
X44045Y4531D01*
Y4431D01*
X43945Y4331D01*
X43745D01*
X43645Y4431D01*
X44644Y4931D02*
X44244D01*
Y4631D01*
X44444Y4731D01*
X44544D01*
X44644Y4631D01*
Y4431D01*
X44544Y4331D01*
X44344D01*
X44244Y4431D01*
X47945Y4931D02*
X48345D01*
X48145D01*
Y4331D01*
X48645D02*
X48845D01*
X48945Y4431D01*
Y4631D01*
X48845Y4731D01*
X48645D01*
X48545Y4631D01*
Y4431D01*
X48645Y4331D01*
X49244Y4831D02*
Y4731D01*
X49144D01*
X49344D01*
X49244D01*
Y4431D01*
X49344Y4331D01*
X49744Y4731D02*
X49944D01*
X50044Y4631D01*
Y4331D01*
X49744D01*
X49644Y4431D01*
X49744Y4531D01*
X50044D01*
X50244Y4331D02*
X50444D01*
X50344D01*
Y4931D01*
X50244D01*
D85*
X0Y0D02*
X35433D01*
Y39370D01*
X0D02*
X35433D01*
X0Y0D02*
Y39370D01*
X35433Y41142D02*
Y41535D01*
X0Y41142D02*
Y41535D01*
X34724Y41102D02*
X35433Y41339D01*
X34724Y41575D02*
X35433Y41339D01*
X0D02*
X709Y41102D01*
X0Y41339D02*
X709Y41575D01*
X19372Y41339D02*
X35433D01*
X0D02*
X16061D01*
X0Y39764D02*
Y41142D01*
Y-1614D02*
Y-394D01*
X1969Y-1575D02*
Y1575D01*
X-1575Y1969D02*
X1181D01*
X1969Y-1614D02*
Y-1535D01*
X0Y-1614D02*
Y-1535D01*
X1378Y-1772D02*
X1969Y-1575D01*
X1378Y-1378D02*
X1969Y-1575D01*
X0D02*
X591Y-1772D01*
X0Y-1575D02*
X591Y-1378D01*
X1360Y-1575D02*
X1969D01*
X0D02*
X609D01*
X-1614Y1969D02*
X-1535D01*
X-1614Y0D02*
X-1535D01*
X-1575Y1969D02*
X-1378Y1378D01*
X-1772D02*
X-1575Y1969D01*
Y0D02*
X-1378Y591D01*
X-1772D02*
X-1575Y0D01*
Y1360D02*
Y1969D01*
Y0D02*
Y609D01*
X97638Y-17323D02*
Y-14961D01*
X77559D02*
X101181D01*
X72402Y-15748D02*
X73976D01*
Y-14173D01*
X72402D02*
X73976D01*
X70827Y-15748D02*
X72402D01*
Y-14173D01*
X70827D02*
X72402D01*
X70827Y-13386D02*
Y-11811D01*
Y-13386D02*
X72402D01*
Y-11811D01*
X70827D02*
X72402D01*
X69252Y-15748D02*
Y-14173D01*
Y-15748D02*
X70827D01*
Y-14173D01*
X69252D02*
X70827D01*
X65748Y-13780D02*
X77559D01*
X65748Y-16142D02*
X77559D01*
X-2756Y39370D02*
X-394D01*
X-2756Y0D02*
X-394D01*
X-2953Y39370D02*
X-2559D01*
X-2953Y0D02*
X-2559D01*
X-2756Y39370D02*
X-2520Y38661D01*
X-2992D02*
X-2756Y39370D01*
Y0D02*
X-2520Y709D01*
X-2992D02*
X-2756Y0D01*
Y21608D02*
Y39370D01*
Y0D02*
Y17762D01*
X1102Y-1358D02*
X709D01*
Y-1654D01*
X906Y-1555D01*
X1004D01*
X1102Y-1654D01*
Y-1850D01*
X1004Y-1949D01*
X807D01*
X709Y-1850D01*
X-1791Y1102D02*
Y709D01*
X-1496D01*
X-1594Y906D01*
Y1004D01*
X-1496Y1102D01*
X-1299D01*
X-1201Y1004D01*
Y807D01*
X-1299Y709D01*
X-2896Y17862D02*
X-2930Y17929D01*
X-3031Y18031D01*
X-2323D01*
X-3031Y18584D02*
X-2998Y18483D01*
X-2896Y18415D01*
X-2728Y18382D01*
X-2627D01*
X-2458Y18415D01*
X-2357Y18483D01*
X-2323Y18584D01*
Y18651D01*
X-2357Y18753D01*
X-2458Y18820D01*
X-2627Y18854D01*
X-2728D01*
X-2896Y18820D01*
X-2998Y18753D01*
X-3031Y18651D01*
Y18584D01*
Y19215D02*
X-2998Y19114D01*
X-2896Y19046D01*
X-2728Y19013D01*
X-2627D01*
X-2458Y19046D01*
X-2357Y19114D01*
X-2323Y19215D01*
Y19282D01*
X-2357Y19384D01*
X-2458Y19451D01*
X-2627Y19485D01*
X-2728D01*
X-2896Y19451D01*
X-2998Y19384D01*
X-3031Y19282D01*
Y19215D01*
X-2795Y19643D02*
X-2323D01*
X-2660D02*
X-2762Y19745D01*
X-2795Y19812D01*
Y19913D01*
X-2762Y19981D01*
X-2660Y20015D01*
X-2323D01*
X-2660D02*
X-2762Y20116D01*
X-2795Y20183D01*
Y20284D01*
X-2762Y20352D01*
X-2660Y20386D01*
X-2323D01*
X-2795Y20608D02*
X-2323D01*
X-2660D02*
X-2762Y20710D01*
X-2795Y20777D01*
Y20878D01*
X-2762Y20946D01*
X-2660Y20979D01*
X-2323D01*
X-2660D02*
X-2762Y21081D01*
X-2795Y21148D01*
Y21249D01*
X-2762Y21317D01*
X-2660Y21351D01*
X-2323D01*
D86*
X35433Y39764D02*
Y41339D01*
D134*
X70472Y9764D02*
Y9055D01*
Y9764D02*
X70709D01*
X70810Y9730D01*
X70877Y9662D01*
X70911Y9595D01*
X70945Y9494D01*
Y9325D01*
X70911Y9224D01*
X70877Y9156D01*
X70810Y9089D01*
X70709Y9055D01*
X70472D01*
X71103Y9764D02*
Y9055D01*
Y9764D02*
X71407D01*
X71508Y9730D01*
X71542Y9696D01*
X71576Y9629D01*
Y9561D01*
X71542Y9494D01*
X71508Y9460D01*
X71407Y9426D01*
X71103D01*
X71340D02*
X71576Y9055D01*
X71734Y9764D02*
Y9055D01*
X71883Y9764D02*
Y9055D01*
X72288D01*
X72365Y9764D02*
Y9055D01*
X72770D01*
X73404Y9764D02*
Y9055D01*
Y9764D02*
X73640D01*
X73742Y9730D01*
X73809Y9662D01*
X73843Y9595D01*
X73877Y9494D01*
Y9325D01*
X73843Y9224D01*
X73809Y9156D01*
X73742Y9089D01*
X73640Y9055D01*
X73404D01*
X74575D02*
X74305Y9764D01*
X74035Y9055D01*
X74136Y9291D02*
X74474D01*
X74977Y9764D02*
Y9055D01*
X74740Y9764D02*
X75213D01*
X75837Y9055D02*
X75567Y9764D01*
X75297Y9055D01*
X75398Y9291D02*
X75736D01*
X76559Y9764D02*
Y9055D01*
Y9764D02*
X76863D01*
X76964Y9730D01*
X76997Y9696D01*
X77031Y9629D01*
Y9561D01*
X76997Y9494D01*
X76964Y9460D01*
X76863Y9426D01*
X76559D01*
X76795D02*
X77031Y9055D01*
X77628Y9764D02*
X77190D01*
Y9055D01*
X77628D01*
X77190Y9426D02*
X77460D01*
X77746Y9392D02*
X78050D01*
X78151Y9426D01*
X78185Y9460D01*
X78219Y9527D01*
Y9629D01*
X78185Y9696D01*
X78151Y9730D01*
X78050Y9764D01*
X77746D01*
Y9055D01*
X78580Y9764D02*
X78512Y9730D01*
X78445Y9662D01*
X78411Y9595D01*
X78377Y9494D01*
Y9325D01*
X78411Y9224D01*
X78445Y9156D01*
X78512Y9089D01*
X78580Y9055D01*
X78715D01*
X78782Y9089D01*
X78850Y9156D01*
X78883Y9224D01*
X78917Y9325D01*
Y9494D01*
X78883Y9595D01*
X78850Y9662D01*
X78782Y9730D01*
X78715Y9764D01*
X78580D01*
X79083D02*
Y9055D01*
Y9764D02*
X79386D01*
X79487Y9730D01*
X79521Y9696D01*
X79555Y9629D01*
Y9561D01*
X79521Y9494D01*
X79487Y9460D01*
X79386Y9426D01*
X79083D01*
X79319D02*
X79555Y9055D01*
X79950Y9764D02*
Y9055D01*
X79713Y9764D02*
X80186D01*
X70472Y11338D02*
Y10630D01*
Y11338D02*
X70911D01*
X70472Y11001D02*
X70742D01*
X71532Y10630D02*
X71262Y11338D01*
X70992Y10630D01*
X71093Y10866D02*
X71431D01*
X71697Y11338D02*
Y10630D01*
Y11338D02*
X72001D01*
X72102Y11305D01*
X72136Y11271D01*
X72169Y11203D01*
Y11136D01*
X72136Y11069D01*
X72102Y11035D01*
X72001Y11001D01*
X71697D02*
X72001D01*
X72102Y10967D01*
X72136Y10934D01*
X72169Y10866D01*
Y10765D01*
X72136Y10697D01*
X72102Y10664D01*
X72001Y10630D01*
X71697D01*
X72328Y11338D02*
Y10630D01*
Y11338D02*
X72632D01*
X72733Y11305D01*
X72767Y11271D01*
X72800Y11203D01*
Y11136D01*
X72767Y11069D01*
X72733Y11035D01*
X72632Y11001D01*
X72328D01*
X72564D02*
X72800Y10630D01*
X72959Y11338D02*
Y10630D01*
X73614Y11170D02*
X73580Y11237D01*
X73512Y11305D01*
X73445Y11338D01*
X73310D01*
X73242Y11305D01*
X73175Y11237D01*
X73141Y11170D01*
X73107Y11069D01*
Y10900D01*
X73141Y10799D01*
X73175Y10731D01*
X73242Y10664D01*
X73310Y10630D01*
X73445D01*
X73512Y10664D01*
X73580Y10731D01*
X73614Y10799D01*
X74352Y10630D02*
X74082Y11338D01*
X73813Y10630D01*
X73914Y10866D02*
X74251D01*
X74754Y11338D02*
Y10630D01*
X74518Y11338D02*
X74990D01*
X75074D02*
Y10630D01*
X75425Y11338D02*
X75358Y11305D01*
X75290Y11237D01*
X75257Y11170D01*
X75223Y11069D01*
Y10900D01*
X75257Y10799D01*
X75290Y10731D01*
X75358Y10664D01*
X75425Y10630D01*
X75560D01*
X75628Y10664D01*
X75695Y10731D01*
X75729Y10799D01*
X75763Y10900D01*
Y11069D01*
X75729Y11170D01*
X75695Y11237D01*
X75628Y11305D01*
X75560Y11338D01*
X75425D01*
X75928D02*
Y10630D01*
Y11338D02*
X76400Y10630D01*
Y11338D02*
Y10630D01*
X77153Y11338D02*
Y10630D01*
Y11338D02*
X77389D01*
X77490Y11305D01*
X77558Y11237D01*
X77591Y11170D01*
X77625Y11069D01*
Y10900D01*
X77591Y10799D01*
X77558Y10731D01*
X77490Y10664D01*
X77389Y10630D01*
X77153D01*
X77784Y11338D02*
Y10630D01*
Y11338D02*
X78087D01*
X78188Y11305D01*
X78222Y11271D01*
X78256Y11203D01*
Y11136D01*
X78222Y11069D01*
X78188Y11035D01*
X78087Y11001D01*
X77784D01*
X78020D02*
X78256Y10630D01*
X78954D02*
X78684Y11338D01*
X78414Y10630D01*
X78516Y10866D02*
X78853D01*
X79120Y11338D02*
X79288Y10630D01*
X79457Y11338D02*
X79288Y10630D01*
X79457Y11338D02*
X79626Y10630D01*
X79794Y11338D02*
X79626Y10630D01*
X79936Y11338D02*
Y10630D01*
X80085Y11338D02*
Y10630D01*
Y11338D02*
X80557Y10630D01*
Y11338D02*
Y10630D01*
X81259Y11170D02*
X81225Y11237D01*
X81157Y11305D01*
X81090Y11338D01*
X80955D01*
X80888Y11305D01*
X80820Y11237D01*
X80786Y11170D01*
X80753Y11069D01*
Y10900D01*
X80786Y10799D01*
X80820Y10731D01*
X80888Y10664D01*
X80955Y10630D01*
X81090D01*
X81157Y10664D01*
X81225Y10731D01*
X81259Y10799D01*
Y10900D01*
X81090D02*
X81259D01*
X54083Y52756D02*
X53813Y53464D01*
X53543Y52756D01*
X53645Y52992D02*
X53982D01*
X54248Y53599D02*
X54316Y53532D01*
X54383Y53431D01*
X54451Y53296D01*
X54485Y53127D01*
Y52992D01*
X54451Y52823D01*
X54383Y52688D01*
X54316Y52587D01*
X54248Y52520D01*
X54316Y53532D02*
X54383Y53397D01*
X54417Y53296D01*
X54451Y53127D01*
Y52992D01*
X54417Y52823D01*
X54383Y52722D01*
X54316Y52587D01*
X55213Y53464D02*
Y52756D01*
Y53464D02*
X55652D01*
X55213Y53127D02*
X55483D01*
X55733Y53464D02*
Y52756D01*
Y53464D02*
X56037D01*
X56138Y53431D01*
X56172Y53397D01*
X56205Y53329D01*
Y53262D01*
X56172Y53195D01*
X56138Y53161D01*
X56037Y53127D01*
X55733D01*
X55969D02*
X56205Y52756D01*
X56701Y53464D02*
X56364Y52992D01*
X56870D01*
X56701Y53464D02*
Y52756D01*
X57062Y52790D02*
X57028Y52756D01*
X56995Y52790D01*
X57028Y52823D01*
X57062Y52790D01*
Y52722D01*
X57028Y52655D01*
X56995Y52621D01*
X57808Y53296D02*
Y53329D01*
X57842Y53397D01*
X57875Y53431D01*
X57943Y53464D01*
X58078D01*
X58145Y53431D01*
X58179Y53397D01*
X58213Y53329D01*
Y53262D01*
X58179Y53195D01*
X58112Y53093D01*
X57774Y52756D01*
X58246D01*
X58962Y53464D02*
Y52756D01*
X59367D01*
X59984D02*
X59714Y53464D01*
X59444Y52756D01*
X59545Y52992D02*
X59883D01*
X60149Y53464D02*
X60419Y53127D01*
Y52756D01*
X60689Y53464D02*
X60419Y53127D01*
X61219Y53464D02*
X60780D01*
Y52756D01*
X61219D01*
X60780Y53127D02*
X61050D01*
X61337Y53464D02*
Y52756D01*
Y53464D02*
X61641D01*
X61742Y53431D01*
X61775Y53397D01*
X61809Y53329D01*
Y53262D01*
X61775Y53195D01*
X61742Y53161D01*
X61641Y53127D01*
X61337D01*
X61573D02*
X61809Y52756D01*
X62035Y52790D02*
X62002Y52756D01*
X61968Y52790D01*
X62002Y52823D01*
X62035Y52790D01*
Y52722D01*
X62002Y52655D01*
X61968Y52621D01*
X62747Y53093D02*
X63051D01*
X63152Y53127D01*
X63186Y53161D01*
X63220Y53228D01*
Y53329D01*
X63186Y53397D01*
X63152Y53431D01*
X63051Y53464D01*
X62747D01*
Y52756D01*
X63378Y53464D02*
Y52756D01*
X63783D01*
X64400D02*
X64130Y53464D01*
X63861Y52756D01*
X63962Y52992D02*
X64299D01*
X64802Y53464D02*
Y52756D01*
X64566Y53464D02*
X65038D01*
X65561D02*
X65122D01*
Y52756D01*
X65561D01*
X65122Y53127D02*
X65392D01*
X65679Y53464D02*
Y52756D01*
Y53464D02*
X65915D01*
X66016Y53431D01*
X66084Y53363D01*
X66118Y53296D01*
X66151Y53195D01*
Y53026D01*
X66118Y52925D01*
X66084Y52857D01*
X66016Y52790D01*
X65915Y52756D01*
X65679D01*
X67103Y53464D02*
Y52756D01*
X66867Y53464D02*
X67339D01*
X67423D02*
Y52756D01*
X67896Y53464D02*
Y52756D01*
X67423Y53127D02*
X67896D01*
X68294Y53464D02*
X68226Y53431D01*
X68159Y53363D01*
X68125Y53296D01*
X68091Y53195D01*
Y53026D01*
X68125Y52925D01*
X68159Y52857D01*
X68226Y52790D01*
X68294Y52756D01*
X68429D01*
X68496Y52790D01*
X68564Y52857D01*
X68597Y52925D01*
X68631Y53026D01*
Y53195D01*
X68597Y53296D01*
X68564Y53363D01*
X68496Y53431D01*
X68429Y53464D01*
X68294D01*
X68796D02*
Y52958D01*
X68830Y52857D01*
X68898Y52790D01*
X68999Y52756D01*
X69066D01*
X69168Y52790D01*
X69235Y52857D01*
X69269Y52958D01*
Y53464D01*
X69971Y53296D02*
X69937Y53363D01*
X69869Y53431D01*
X69802Y53464D01*
X69667D01*
X69599Y53431D01*
X69532Y53363D01*
X69498Y53296D01*
X69465Y53195D01*
Y53026D01*
X69498Y52925D01*
X69532Y52857D01*
X69599Y52790D01*
X69667Y52756D01*
X69802D01*
X69869Y52790D01*
X69937Y52857D01*
X69971Y52925D01*
Y53026D01*
X69802D02*
X69971D01*
X70133Y53464D02*
Y52756D01*
X70605Y53464D02*
Y52756D01*
X70133Y53127D02*
X70605D01*
X71357Y53464D02*
Y52756D01*
X71830Y53464D02*
Y52756D01*
X71357Y53127D02*
X71830D01*
X72228Y53464D02*
X72160Y53431D01*
X72093Y53363D01*
X72059Y53296D01*
X72025Y53195D01*
Y53026D01*
X72059Y52925D01*
X72093Y52857D01*
X72160Y52790D01*
X72228Y52756D01*
X72363D01*
X72430Y52790D01*
X72498Y52857D01*
X72531Y52925D01*
X72565Y53026D01*
Y53195D01*
X72531Y53296D01*
X72498Y53363D01*
X72430Y53431D01*
X72363Y53464D01*
X72228D01*
X72730D02*
Y52756D01*
X73135D01*
X73651Y53464D02*
X73213D01*
Y52756D01*
X73651D01*
X73213Y53127D02*
X73483D01*
X74242Y53363D02*
X74174Y53431D01*
X74073Y53464D01*
X73938D01*
X73837Y53431D01*
X73770Y53363D01*
Y53296D01*
X73803Y53228D01*
X73837Y53195D01*
X73904Y53161D01*
X74107Y53093D01*
X74174Y53060D01*
X74208Y53026D01*
X74242Y52958D01*
Y52857D01*
X74174Y52790D01*
X74073Y52756D01*
X73938D01*
X73837Y52790D01*
X73770Y52857D01*
X87795Y9764D02*
Y9258D01*
X87829Y9156D01*
X87896Y9089D01*
X87998Y9055D01*
X88065D01*
X88166Y9089D01*
X88234Y9156D01*
X88268Y9258D01*
Y9764D01*
X88463D02*
Y9055D01*
X88936Y9764D02*
Y9055D01*
X88463Y9426D02*
X88936D01*
X89131Y9764D02*
Y9055D01*
Y9764D02*
X89570D01*
X89131Y9426D02*
X89401D01*
X90208Y9764D02*
Y9055D01*
Y9764D02*
X90646D01*
X90208Y9426D02*
X90477D01*
X90727Y9764D02*
Y9055D01*
Y9764D02*
X90997Y9055D01*
X91267Y9764D02*
X90997Y9055D01*
X91267Y9764D02*
Y9055D01*
X92026Y9764D02*
Y9055D01*
Y9764D02*
X92330D01*
X92431Y9730D01*
X92465Y9696D01*
X92498Y9629D01*
Y9561D01*
X92465Y9494D01*
X92431Y9460D01*
X92330Y9426D01*
X92026D01*
X92262D02*
X92498Y9055D01*
X92657Y9764D02*
X93129Y9055D01*
Y9764D02*
X92657Y9055D01*
X93322Y9123D02*
X93288Y9089D01*
X93322Y9055D01*
X93355Y9089D01*
X93322Y9123D01*
X93511Y9764D02*
Y9055D01*
Y9764D02*
X93747D01*
X93848Y9730D01*
X93915Y9662D01*
X93949Y9595D01*
X93983Y9494D01*
Y9325D01*
X93949Y9224D01*
X93915Y9156D01*
X93848Y9089D01*
X93747Y9055D01*
X93511D01*
X94141Y9764D02*
Y9055D01*
Y9764D02*
X94378D01*
X94479Y9730D01*
X94546Y9662D01*
X94580Y9595D01*
X94614Y9494D01*
Y9325D01*
X94580Y9224D01*
X94546Y9156D01*
X94479Y9089D01*
X94378Y9055D01*
X94141D01*
X94772Y9764D02*
Y9055D01*
Y9764D02*
X95076D01*
X95177Y9730D01*
X95211Y9696D01*
X95245Y9629D01*
Y9561D01*
X95211Y9494D01*
X95177Y9460D01*
X95076Y9426D01*
X94772D01*
X95009D02*
X95245Y9055D01*
X87795Y8189D02*
Y7683D01*
X87829Y7582D01*
X87896Y7514D01*
X87998Y7480D01*
X88065D01*
X88166Y7514D01*
X88234Y7582D01*
X88268Y7683D01*
Y8189D01*
X88463D02*
Y7480D01*
X88936Y8189D02*
Y7480D01*
X88463Y7851D02*
X88936D01*
X89131Y8189D02*
Y7480D01*
Y8189D02*
X89570D01*
X89131Y7851D02*
X89401D01*
X90208Y8189D02*
Y7480D01*
Y8189D02*
X90646D01*
X90208Y7851D02*
X90477D01*
X90727Y8189D02*
Y7480D01*
Y8189D02*
X90997Y7480D01*
X91267Y8189D02*
X90997Y7480D01*
X91267Y8189D02*
Y7480D01*
X92026Y8189D02*
Y7480D01*
Y8189D02*
X92330D01*
X92431Y8155D01*
X92465Y8121D01*
X92498Y8054D01*
Y7986D01*
X92465Y7919D01*
X92431Y7885D01*
X92330Y7851D01*
X92026D01*
X92262D02*
X92498Y7480D01*
X92657Y8189D02*
X93129Y7480D01*
Y8189D02*
X92657Y7480D01*
X93322Y7548D02*
X93288Y7514D01*
X93322Y7480D01*
X93355Y7514D01*
X93322Y7548D01*
X93511Y8189D02*
Y7480D01*
Y8189D02*
X93747D01*
X93848Y8155D01*
X93915Y8088D01*
X93949Y8020D01*
X93983Y7919D01*
Y7750D01*
X93949Y7649D01*
X93915Y7582D01*
X93848Y7514D01*
X93747Y7480D01*
X93511D01*
X94141Y8189D02*
Y7480D01*
Y8189D02*
X94445D01*
X94546Y8155D01*
X94580Y8121D01*
X94614Y8054D01*
Y7986D01*
X94580Y7919D01*
X94546Y7885D01*
X94445Y7851D01*
X94141D01*
X94378D02*
X94614Y7480D01*
X94772Y8189D02*
Y7480D01*
X95177D01*
X70472Y8189D02*
Y7480D01*
Y8189D02*
X70945Y7480D01*
Y8189D02*
Y7480D01*
X71647Y8020D02*
X71613Y8088D01*
X71545Y8155D01*
X71478Y8189D01*
X71343D01*
X71275Y8155D01*
X71208Y8088D01*
X71174Y8020D01*
X71140Y7919D01*
Y7750D01*
X71174Y7649D01*
X71208Y7582D01*
X71275Y7514D01*
X71343Y7480D01*
X71478D01*
X71545Y7514D01*
X71613Y7582D01*
X71647Y7649D01*
X72402Y8189D02*
Y7480D01*
Y8189D02*
X72638D01*
X72740Y8155D01*
X72807Y8088D01*
X72841Y8020D01*
X72875Y7919D01*
Y7750D01*
X72841Y7649D01*
X72807Y7582D01*
X72740Y7514D01*
X72638Y7480D01*
X72402D01*
X73033Y8189D02*
Y7480D01*
Y8189D02*
X73337D01*
X73438Y8155D01*
X73472Y8121D01*
X73506Y8054D01*
Y7986D01*
X73472Y7919D01*
X73438Y7885D01*
X73337Y7851D01*
X73033D01*
X73269D02*
X73506Y7480D01*
X73664Y8189D02*
Y7480D01*
X73813Y8189D02*
Y7480D01*
X74217D01*
X74295Y8189D02*
Y7480D01*
X74700D01*
X75334Y8189D02*
Y7480D01*
Y8189D02*
X75773D01*
X75334Y7851D02*
X75604D01*
X75854Y8189D02*
Y7480D01*
X76002Y8189D02*
Y7480D01*
X76407D01*
X76923Y8189D02*
X76485D01*
Y7480D01*
X76923D01*
X76485Y7851D02*
X76755D01*
D135*
X81890Y-15551D02*
Y-16535D01*
Y-15551D02*
X82265Y-16535D01*
X82640Y-15551D02*
X82265Y-16535D01*
X82640Y-15551D02*
Y-16535D01*
X82921Y-15551D02*
Y-16535D01*
X83483D01*
X84340D02*
X83966Y-15551D01*
X83591Y-16535D01*
X83731Y-16207D02*
X84200D01*
X84570Y-16114D02*
X85414D01*
X85751Y-15786D02*
Y-15739D01*
X85798Y-15645D01*
X85845Y-15598D01*
X85938Y-15551D01*
X86126D01*
X86220Y-15598D01*
X86266Y-15645D01*
X86313Y-15739D01*
Y-15833D01*
X86266Y-15926D01*
X86173Y-16067D01*
X85704Y-16535D01*
X86360D01*
X86861Y-15551D02*
X86721Y-15598D01*
X86627Y-15739D01*
X86580Y-15973D01*
Y-16114D01*
X86627Y-16348D01*
X86721Y-16489D01*
X86861Y-16535D01*
X86955D01*
X87096Y-16489D01*
X87190Y-16348D01*
X87236Y-16114D01*
Y-15973D01*
X87190Y-15739D01*
X87096Y-15598D01*
X86955Y-15551D01*
X86861D01*
X87738D02*
X87597Y-15598D01*
X87503Y-15739D01*
X87457Y-15973D01*
Y-16114D01*
X87503Y-16348D01*
X87597Y-16489D01*
X87738Y-16535D01*
X87831D01*
X87972Y-16489D01*
X88066Y-16348D01*
X88113Y-16114D01*
Y-15973D01*
X88066Y-15739D01*
X87972Y-15598D01*
X87831Y-15551D01*
X87738D01*
X88895Y-15692D02*
X88848Y-15598D01*
X88708Y-15551D01*
X88614D01*
X88473Y-15598D01*
X88380Y-15739D01*
X88333Y-15973D01*
Y-16207D01*
X88380Y-16395D01*
X88473Y-16489D01*
X88614Y-16535D01*
X88661D01*
X88801Y-16489D01*
X88895Y-16395D01*
X88942Y-16254D01*
Y-16207D01*
X88895Y-16067D01*
X88801Y-15973D01*
X88661Y-15926D01*
X88614D01*
X88473Y-15973D01*
X88380Y-16067D01*
X88333Y-16207D01*
X89439Y-15551D02*
X89298Y-15598D01*
X89204Y-15739D01*
X89158Y-15973D01*
Y-16114D01*
X89204Y-16348D01*
X89298Y-16489D01*
X89439Y-16535D01*
X89532D01*
X89673Y-16489D01*
X89767Y-16348D01*
X89814Y-16114D01*
Y-15973D01*
X89767Y-15739D01*
X89673Y-15598D01*
X89532Y-15551D01*
X89439D01*
X90128D02*
X90643D01*
X90362Y-15926D01*
X90502D01*
X90596Y-15973D01*
X90643Y-16020D01*
X90690Y-16161D01*
Y-16254D01*
X90643Y-16395D01*
X90549Y-16489D01*
X90409Y-16535D01*
X90268D01*
X90128Y-16489D01*
X90081Y-16442D01*
X90034Y-16348D01*
X90910Y-15739D02*
X91004Y-15692D01*
X91144Y-15551D01*
Y-16535D01*
X91913Y-15551D02*
X91772Y-15598D01*
X91679Y-15739D01*
X91632Y-15973D01*
Y-16114D01*
X91679Y-16348D01*
X91772Y-16489D01*
X91913Y-16535D01*
X92007D01*
X92147Y-16489D01*
X92241Y-16348D01*
X92288Y-16114D01*
Y-15973D01*
X92241Y-15739D01*
X92147Y-15598D01*
X92007Y-15551D01*
X91913D01*
X92508Y-16114D02*
X93351D01*
X93923Y-15551D02*
X93783Y-15598D01*
X93689Y-15739D01*
X93642Y-15973D01*
Y-16114D01*
X93689Y-16348D01*
X93783Y-16489D01*
X93923Y-16535D01*
X94017D01*
X94157Y-16489D01*
X94251Y-16348D01*
X94298Y-16114D01*
Y-15973D01*
X94251Y-15739D01*
X94157Y-15598D01*
X94017Y-15551D01*
X93923D01*
X94799D02*
X94659Y-15598D01*
X94565Y-15739D01*
X94518Y-15973D01*
Y-16114D01*
X94565Y-16348D01*
X94659Y-16489D01*
X94799Y-16535D01*
X94893D01*
X95034Y-16489D01*
X95127Y-16348D01*
X95174Y-16114D01*
Y-15973D01*
X95127Y-15739D01*
X95034Y-15598D01*
X94893Y-15551D01*
X94799D01*
X95395Y-15739D02*
X95488Y-15692D01*
X95629Y-15551D01*
Y-16535D01*
D136*
X97874Y-15158D02*
Y-15748D01*
Y-15158D02*
X98127D01*
X98211Y-15186D01*
X98240Y-15214D01*
X98268Y-15270D01*
Y-15326D01*
X98240Y-15383D01*
X98211Y-15411D01*
X98127Y-15439D01*
X97874D01*
X98071D02*
X98268Y-15748D01*
X98400Y-15523D02*
X98737D01*
Y-15467D01*
X98709Y-15411D01*
X98681Y-15383D01*
X98625Y-15354D01*
X98540D01*
X98484Y-15383D01*
X98428Y-15439D01*
X98400Y-15523D01*
Y-15579D01*
X98428Y-15664D01*
X98484Y-15720D01*
X98540Y-15748D01*
X98625D01*
X98681Y-15720D01*
X98737Y-15664D01*
X98864Y-15354D02*
X99032Y-15748D01*
X99201Y-15354D02*
X99032Y-15748D01*
X77835Y-15197D02*
Y-15787D01*
Y-15197D02*
X78031D01*
X78116Y-15225D01*
X78172Y-15281D01*
X78200Y-15338D01*
X78228Y-15422D01*
Y-15562D01*
X78200Y-15647D01*
X78172Y-15703D01*
X78116Y-15759D01*
X78031Y-15787D01*
X77835D01*
X78360Y-15197D02*
X78501Y-15787D01*
X78642Y-15197D02*
X78501Y-15787D01*
X78642Y-15197D02*
X78782Y-15787D01*
X78923Y-15197D02*
X78782Y-15787D01*
X79463Y-15338D02*
X79434Y-15281D01*
X79378Y-15225D01*
X79322Y-15197D01*
X79209D01*
X79153Y-15225D01*
X79097Y-15281D01*
X79069Y-15338D01*
X79041Y-15422D01*
Y-15562D01*
X79069Y-15647D01*
X79097Y-15703D01*
X79153Y-15759D01*
X79209Y-15787D01*
X79322D01*
X79378Y-15759D01*
X79434Y-15703D01*
X79463Y-15647D01*
Y-15562D01*
X79322D02*
X79463D01*
X80061Y-15197D02*
Y-15787D01*
Y-15197D02*
X80455Y-15787D01*
Y-15197D02*
Y-15787D01*
X80618Y-15394D02*
Y-15787D01*
Y-15562D02*
X80646Y-15478D01*
X80702Y-15422D01*
X80759Y-15394D01*
X80843D01*
X78031Y-11654D02*
Y-12244D01*
X77835Y-11654D02*
X78228D01*
X78299D02*
Y-12244D01*
X78619Y-11654D02*
Y-12244D01*
X78422Y-11654D02*
X78816D01*
X78886D02*
Y-12244D01*
X79224D01*
X79654Y-11654D02*
X79288D01*
Y-12244D01*
X79654D01*
X79288Y-11935D02*
X79513D01*
X66024Y-14134D02*
Y-14724D01*
Y-14134D02*
X66389D01*
X66024Y-14415D02*
X66249D01*
X66457Y-14134D02*
Y-14724D01*
X66580Y-14134D02*
Y-14724D01*
Y-14134D02*
X66974Y-14724D01*
Y-14134D02*
Y-14724D01*
X67137Y-14134D02*
Y-14724D01*
X67654Y-14218D02*
X67598Y-14162D01*
X67514Y-14134D01*
X67401D01*
X67317Y-14162D01*
X67261Y-14218D01*
Y-14275D01*
X67289Y-14331D01*
X67317Y-14359D01*
X67373Y-14387D01*
X67542Y-14443D01*
X67598Y-14471D01*
X67626Y-14499D01*
X67654Y-14556D01*
Y-14640D01*
X67598Y-14696D01*
X67514Y-14724D01*
X67401D01*
X67317Y-14696D01*
X67261Y-14640D01*
X67786Y-14134D02*
Y-14724D01*
X68180Y-14134D02*
Y-14724D01*
X67786Y-14415D02*
X68180D01*
X68371Y-14331D02*
X68343Y-14359D01*
X68371Y-14387D01*
X68399Y-14359D01*
X68371Y-14331D01*
Y-14668D02*
X68343Y-14696D01*
X68371Y-14724D01*
X68399Y-14696D01*
X68371Y-14668D01*
X66024Y-11614D02*
Y-12205D01*
Y-11614D02*
X66249Y-12205D01*
X66473Y-11614D02*
X66249Y-12205D01*
X66473Y-11614D02*
Y-12205D01*
X67092D02*
X66867Y-11614D01*
X66642Y-12205D01*
X66727Y-12008D02*
X67008D01*
X67427Y-11614D02*
Y-12205D01*
X67230Y-11614D02*
X67623D01*
X68059D02*
X67694D01*
Y-12205D01*
X68059D01*
X67694Y-11895D02*
X67919D01*
X68158Y-11614D02*
Y-12205D01*
Y-11614D02*
X68411D01*
X68495Y-11642D01*
X68523Y-11671D01*
X68551Y-11727D01*
Y-11783D01*
X68523Y-11839D01*
X68495Y-11867D01*
X68411Y-11895D01*
X68158D01*
X68354D02*
X68551Y-12205D01*
X68683Y-11614D02*
Y-12205D01*
X69257D02*
X69032Y-11614D01*
X68807Y-12205D01*
X68891Y-12008D02*
X69173D01*
X69395Y-11614D02*
Y-12205D01*
X69732D01*
X69825Y-11811D02*
X69797Y-11839D01*
X69825Y-11867D01*
X69853Y-11839D01*
X69825Y-11811D01*
Y-12148D02*
X69797Y-12177D01*
X69825Y-12205D01*
X69853Y-12177D01*
X69825Y-12148D01*
X66575Y-16457D02*
Y-17047D01*
Y-16457D02*
X66772D01*
X66856Y-16485D01*
X66912Y-16541D01*
X66940Y-16597D01*
X66968Y-16682D01*
Y-16822D01*
X66940Y-16907D01*
X66912Y-16963D01*
X66856Y-17019D01*
X66772Y-17047D01*
X66575D01*
X67269Y-16457D02*
X67213Y-16485D01*
X67157Y-16541D01*
X67129Y-16597D01*
X67101Y-16682D01*
Y-16822D01*
X67129Y-16907D01*
X67157Y-16963D01*
X67213Y-17019D01*
X67269Y-17047D01*
X67382D01*
X67438Y-17019D01*
X67494Y-16963D01*
X67522Y-16907D01*
X67550Y-16822D01*
Y-16682D01*
X67522Y-16597D01*
X67494Y-16541D01*
X67438Y-16485D01*
X67382Y-16457D01*
X67269D01*
X68152D02*
Y-17047D01*
Y-16457D02*
X68546Y-17047D01*
Y-16457D02*
Y-17047D01*
X68877Y-16457D02*
X68821Y-16485D01*
X68765Y-16541D01*
X68737Y-16597D01*
X68709Y-16682D01*
Y-16822D01*
X68737Y-16907D01*
X68765Y-16963D01*
X68821Y-17019D01*
X68877Y-17047D01*
X68990D01*
X69046Y-17019D01*
X69102Y-16963D01*
X69131Y-16907D01*
X69159Y-16822D01*
Y-16682D01*
X69131Y-16597D01*
X69102Y-16541D01*
X69046Y-16485D01*
X68990Y-16457D01*
X68877D01*
X69493D02*
Y-17047D01*
X69296Y-16457D02*
X69690D01*
X70618Y-16541D02*
X70562Y-16485D01*
X70477Y-16457D01*
X70365D01*
X70280Y-16485D01*
X70224Y-16541D01*
Y-16597D01*
X70252Y-16654D01*
X70280Y-16682D01*
X70337Y-16710D01*
X70505Y-16766D01*
X70562Y-16794D01*
X70590Y-16822D01*
X70618Y-16879D01*
Y-16963D01*
X70562Y-17019D01*
X70477Y-17047D01*
X70365D01*
X70280Y-17019D01*
X70224Y-16963D01*
X71172Y-16597D02*
X71144Y-16541D01*
X71087Y-16485D01*
X71031Y-16457D01*
X70919D01*
X70862Y-16485D01*
X70806Y-16541D01*
X70778Y-16597D01*
X70750Y-16682D01*
Y-16822D01*
X70778Y-16907D01*
X70806Y-16963D01*
X70862Y-17019D01*
X70919Y-17047D01*
X71031D01*
X71087Y-17019D01*
X71144Y-16963D01*
X71172Y-16907D01*
X71787Y-17047D02*
X71562Y-16457D01*
X71338Y-17047D01*
X71422Y-16850D02*
X71703D01*
X71925Y-16457D02*
Y-17047D01*
X72263D01*
X72693Y-16457D02*
X72327D01*
Y-17047D01*
X72693D01*
X72327Y-16738D02*
X72552D01*
X73255Y-16457D02*
Y-17047D01*
Y-16457D02*
X73452D01*
X73536Y-16485D01*
X73592Y-16541D01*
X73621Y-16597D01*
X73649Y-16682D01*
Y-16822D01*
X73621Y-16907D01*
X73592Y-16963D01*
X73536Y-17019D01*
X73452Y-17047D01*
X73255D01*
X73781Y-16457D02*
Y-17047D01*
Y-16457D02*
X74034D01*
X74118Y-16485D01*
X74146Y-16513D01*
X74174Y-16569D01*
Y-16626D01*
X74146Y-16682D01*
X74118Y-16710D01*
X74034Y-16738D01*
X73781D01*
X73978D02*
X74174Y-17047D01*
X74756D02*
X74531Y-16457D01*
X74307Y-17047D01*
X74391Y-16850D02*
X74672D01*
X74894Y-16457D02*
X75035Y-17047D01*
X75175Y-16457D02*
X75035Y-17047D01*
X75175Y-16457D02*
X75316Y-17047D01*
X75456Y-16457D02*
X75316Y-17047D01*
X75575Y-16457D02*
Y-17047D01*
X75698Y-16457D02*
Y-17047D01*
Y-16457D02*
X76092Y-17047D01*
Y-16457D02*
Y-17047D01*
X76677Y-16597D02*
X76649Y-16541D01*
X76592Y-16485D01*
X76536Y-16457D01*
X76424D01*
X76367Y-16485D01*
X76311Y-16541D01*
X76283Y-16597D01*
X76255Y-16682D01*
Y-16822D01*
X76283Y-16907D01*
X76311Y-16963D01*
X76367Y-17019D01*
X76424Y-17047D01*
X76536D01*
X76592Y-17019D01*
X76649Y-16963D01*
X76677Y-16907D01*
Y-16822D01*
X76536D02*
X76677D01*
X59094Y-14764D02*
Y-15354D01*
Y-14764D02*
X59488Y-15354D01*
Y-14764D02*
Y-15354D01*
X60017Y-14764D02*
X59651D01*
Y-15354D01*
X60017D01*
X59651Y-15045D02*
X59876D01*
X60115Y-14764D02*
X60256Y-15354D01*
X60396Y-14764D02*
X60256Y-15354D01*
X60396Y-14764D02*
X60537Y-15354D01*
X60677Y-14764D02*
X60537Y-15354D01*
X61653Y-14764D02*
X61259Y-15354D01*
Y-14764D02*
X61653D01*
X61259Y-15354D02*
X61653D01*
X62151Y-14764D02*
X61785D01*
Y-15354D01*
X62151D01*
X61785Y-15045D02*
X62010D01*
X62699Y-15354D02*
X62474Y-14764D01*
X62249Y-15354D01*
X62333Y-15158D02*
X62615D01*
X62837Y-14764D02*
Y-15354D01*
X63174D01*
X63689D02*
X63464Y-14764D01*
X63239Y-15354D01*
X63323Y-15158D02*
X63604D01*
X63826Y-14764D02*
Y-15354D01*
Y-14764D02*
X64220Y-15354D01*
Y-14764D02*
Y-15354D01*
X64383Y-14764D02*
Y-15354D01*
Y-14764D02*
X64580D01*
X64664Y-14792D01*
X64720Y-14848D01*
X64749Y-14904D01*
X64777Y-14989D01*
Y-15129D01*
X64749Y-15214D01*
X64720Y-15270D01*
X64664Y-15326D01*
X64580Y-15354D01*
X64383D01*
D137*
X19098Y27087D02*
X19075Y27180D01*
X19011Y27251D01*
X18922Y27285D01*
X18827Y27274D01*
X18748Y27219D01*
X18703Y27134D01*
Y27039D01*
X18748Y26954D01*
X18827Y26900D01*
X18922Y26888D01*
X19011Y26922D01*
X19075Y26994D01*
X19098Y27087D01*
X20476Y25394D02*
X20453Y25487D01*
X20389Y25558D01*
X20300Y25592D01*
X20205Y25581D01*
X20126Y25526D01*
X20081Y25442D01*
Y25346D01*
X20126Y25261D01*
X20205Y25207D01*
X20300Y25195D01*
X20389Y25229D01*
X20453Y25301D01*
X20476Y25394D01*
X19413D02*
X19390Y25487D01*
X19326Y25558D01*
X19237Y25592D01*
X19142Y25581D01*
X19063Y25526D01*
X19018Y25442D01*
Y25346D01*
X19063Y25261D01*
X19142Y25207D01*
X19237Y25195D01*
X19326Y25229D01*
X19390Y25301D01*
X19413Y25394D01*
X30003Y27362D02*
X29980Y27455D01*
X29917Y27527D01*
X29827Y27561D01*
X29732Y27549D01*
X29653Y27495D01*
X29609Y27410D01*
Y27314D01*
X29653Y27230D01*
X29732Y27175D01*
X29827Y27164D01*
X29917Y27198D01*
X29980Y27269D01*
X30003Y27362D01*
X28940D02*
X28917Y27455D01*
X28854Y27527D01*
X28764Y27561D01*
X28669Y27549D01*
X28590Y27495D01*
X28546Y27410D01*
Y27314D01*
X28590Y27230D01*
X28669Y27175D01*
X28764Y27164D01*
X28854Y27198D01*
X28917Y27269D01*
X28940Y27362D01*
X30318Y25669D02*
X30295Y25762D01*
X30232Y25834D01*
X30142Y25868D01*
X30047Y25856D01*
X29968Y25802D01*
X29924Y25717D01*
Y25621D01*
X29968Y25537D01*
X30047Y25482D01*
X30142Y25471D01*
X30232Y25505D01*
X30295Y25576D01*
X30318Y25669D01*
X30948Y6772D02*
X30925Y6865D01*
X30862Y6936D01*
X30772Y6970D01*
X30677Y6959D01*
X30598Y6904D01*
X30554Y6820D01*
Y6724D01*
X30598Y6639D01*
X30677Y6585D01*
X30772Y6573D01*
X30862Y6607D01*
X30925Y6679D01*
X30948Y6772D01*
X27247Y2302D02*
X27224Y2395D01*
X27161Y2467D01*
X27071Y2501D01*
X26976Y2489D01*
X26898Y2435D01*
X26853Y2350D01*
Y2254D01*
X26898Y2170D01*
X26976Y2115D01*
X27071Y2104D01*
X27161Y2138D01*
X27224Y2209D01*
X27247Y2302D01*
X30476Y9528D02*
X30453Y9621D01*
X30389Y9692D01*
X30300Y9726D01*
X30205Y9715D01*
X30126Y9660D01*
X30081Y9575D01*
Y9480D01*
X30126Y9395D01*
X30205Y9341D01*
X30300Y9329D01*
X30389Y9363D01*
X30453Y9435D01*
X30476Y9528D01*
X31460D02*
X31437Y9621D01*
X31373Y9692D01*
X31284Y9726D01*
X31189Y9715D01*
X31110Y9660D01*
X31066Y9575D01*
Y9480D01*
X31110Y9395D01*
X31189Y9341D01*
X31284Y9329D01*
X31373Y9363D01*
X31437Y9435D01*
X31460Y9528D01*
X26972D02*
X26949Y9621D01*
X26885Y9692D01*
X26796Y9726D01*
X26701Y9715D01*
X26622Y9660D01*
X26577Y9575D01*
Y9480D01*
X26622Y9395D01*
X26701Y9341D01*
X26796Y9329D01*
X26885Y9363D01*
X26949Y9435D01*
X26972Y9528D01*
X30003Y15354D02*
X29980Y15447D01*
X29917Y15519D01*
X29827Y15553D01*
X29732Y15541D01*
X29653Y15487D01*
X29609Y15402D01*
Y15306D01*
X29653Y15222D01*
X29732Y15167D01*
X29827Y15156D01*
X29917Y15190D01*
X29980Y15261D01*
X30003Y15354D01*
X30397Y15827D02*
X30374Y15920D01*
X30310Y15991D01*
X30221Y16025D01*
X30126Y16014D01*
X30047Y15959D01*
X30003Y15875D01*
Y15779D01*
X30047Y15694D01*
X30126Y15640D01*
X30221Y15628D01*
X30310Y15662D01*
X30374Y15734D01*
X30397Y15827D01*
X30121Y18465D02*
X30098Y18558D01*
X30035Y18629D01*
X29945Y18663D01*
X29850Y18652D01*
X29772Y18597D01*
X29727Y18512D01*
Y18417D01*
X29772Y18332D01*
X29850Y18278D01*
X29945Y18266D01*
X30035Y18300D01*
X30098Y18372D01*
X30121Y18465D01*
Y17441D02*
X30098Y17534D01*
X30035Y17606D01*
X29945Y17639D01*
X29850Y17628D01*
X29772Y17574D01*
X29727Y17489D01*
Y17393D01*
X29772Y17308D01*
X29850Y17254D01*
X29945Y17242D01*
X30035Y17276D01*
X30098Y17348D01*
X30121Y17441D01*
X26775Y26378D02*
X26752Y26471D01*
X26688Y26543D01*
X26599Y26576D01*
X26504Y26565D01*
X26425Y26511D01*
X26381Y26426D01*
Y26330D01*
X26425Y26245D01*
X26504Y26191D01*
X26599Y26179D01*
X26688Y26213D01*
X26752Y26285D01*
X26775Y26378D01*
X23350Y27047D02*
X23327Y27140D01*
X23263Y27212D01*
X23174Y27246D01*
X23079Y27234D01*
X23000Y27180D01*
X22955Y27095D01*
Y26999D01*
X23000Y26915D01*
X23079Y26860D01*
X23174Y26849D01*
X23263Y26883D01*
X23327Y26954D01*
X23350Y27047D01*
X29176Y23701D02*
X29153Y23794D01*
X29090Y23865D01*
X29000Y23899D01*
X28905Y23888D01*
X28827Y23833D01*
X28782Y23749D01*
Y23653D01*
X28827Y23568D01*
X28905Y23514D01*
X29000Y23502D01*
X29090Y23536D01*
X29153Y23608D01*
X29176Y23701D01*
X20003Y18268D02*
X19980Y18361D01*
X19917Y18432D01*
X19827Y18466D01*
X19732Y18455D01*
X19653Y18400D01*
X19609Y18316D01*
Y18220D01*
X19653Y18135D01*
X19732Y18081D01*
X19827Y18069D01*
X19917Y18103D01*
X19980Y18175D01*
X20003Y18268D01*
X18250Y17795D02*
X18227Y17888D01*
X18164Y17960D01*
X18075Y17994D01*
X17979Y17982D01*
X17901Y17928D01*
X17856Y17843D01*
Y17747D01*
X17901Y17663D01*
X17979Y17608D01*
X18075Y17597D01*
X18164Y17631D01*
X18227Y17702D01*
X18250Y17795D01*
Y18268D02*
X18227Y18361D01*
X18164Y18432D01*
X18075Y18466D01*
X17979Y18455D01*
X17901Y18400D01*
X17856Y18316D01*
Y18220D01*
X17901Y18135D01*
X17979Y18081D01*
X18075Y18069D01*
X18164Y18103D01*
X18227Y18175D01*
X18250Y18268D01*
X19098Y23701D02*
X19075Y23794D01*
X19011Y23865D01*
X18922Y23899D01*
X18827Y23888D01*
X18748Y23833D01*
X18703Y23749D01*
Y23653D01*
X18748Y23568D01*
X18827Y23514D01*
X18922Y23502D01*
X19011Y23536D01*
X19075Y23608D01*
X19098Y23701D01*
X4924Y19094D02*
X4902Y19187D01*
X4838Y19259D01*
X4749Y19293D01*
X4653Y19281D01*
X4575Y19227D01*
X4530Y19142D01*
Y19047D01*
X4575Y18962D01*
X4653Y18907D01*
X4749Y18896D01*
X4838Y18930D01*
X4902Y19002D01*
X4924Y19094D01*
Y20118D02*
X4902Y20211D01*
X4838Y20283D01*
X4749Y20317D01*
X4653Y20305D01*
X4575Y20251D01*
X4530Y20166D01*
Y20070D01*
X4575Y19985D01*
X4653Y19931D01*
X4749Y19920D01*
X4838Y19954D01*
X4902Y20025D01*
X4924Y20118D01*
X13389Y15906D02*
X13366Y15998D01*
X13303Y16070D01*
X13213Y16104D01*
X13118Y16093D01*
X13039Y16038D01*
X12995Y15953D01*
Y15858D01*
X13039Y15773D01*
X13118Y15719D01*
X13213Y15707D01*
X13303Y15741D01*
X13366Y15813D01*
X13389Y15906D01*
X12720Y16535D02*
X12697Y16628D01*
X12633Y16700D01*
X12544Y16734D01*
X12449Y16722D01*
X12370Y16668D01*
X12326Y16583D01*
Y16488D01*
X12370Y16403D01*
X12449Y16348D01*
X12544Y16337D01*
X12633Y16371D01*
X12697Y16442D01*
X12720Y16535D01*
X12798Y18937D02*
X12776Y19030D01*
X12712Y19102D01*
X12623Y19136D01*
X12528Y19124D01*
X12449Y19070D01*
X12404Y18985D01*
Y18889D01*
X12449Y18804D01*
X12528Y18750D01*
X12623Y18738D01*
X12712Y18772D01*
X12776Y18844D01*
X12798Y18937D01*
X18160Y6638D02*
X18137Y6731D01*
X18073Y6802D01*
X17984Y6836D01*
X17889Y6825D01*
X17810Y6770D01*
X17766Y6685D01*
Y6590D01*
X17810Y6505D01*
X17889Y6451D01*
X17984Y6439D01*
X18073Y6473D01*
X18137Y6545D01*
X18160Y6638D01*
X16661Y6661D02*
X16638Y6754D01*
X16574Y6826D01*
X16485Y6860D01*
X16390Y6848D01*
X16311Y6794D01*
X16266Y6709D01*
Y6613D01*
X16311Y6529D01*
X16390Y6474D01*
X16485Y6463D01*
X16574Y6497D01*
X16638Y6568D01*
X16661Y6661D01*
X15161Y6693D02*
X15138Y6786D01*
X15074Y6858D01*
X14985Y6891D01*
X14890Y6880D01*
X14811Y6826D01*
X14766Y6741D01*
Y6645D01*
X14811Y6560D01*
X14890Y6506D01*
X14985Y6494D01*
X15074Y6528D01*
X15138Y6600D01*
X15161Y6693D01*
X19674Y6683D02*
X19651Y6776D01*
X19587Y6847D01*
X19498Y6881D01*
X19403Y6870D01*
X19324Y6815D01*
X19279Y6731D01*
Y6635D01*
X19324Y6550D01*
X19403Y6496D01*
X19498Y6484D01*
X19587Y6518D01*
X19651Y6590D01*
X19674Y6683D01*
X21168Y6714D02*
X21145Y6807D01*
X21081Y6879D01*
X20992Y6913D01*
X20897Y6901D01*
X20818Y6847D01*
X20773Y6762D01*
Y6666D01*
X20818Y6581D01*
X20897Y6527D01*
X20992Y6516D01*
X21081Y6549D01*
X21145Y6621D01*
X21168Y6714D01*
X23243Y6339D02*
X23220Y6432D01*
X23156Y6504D01*
X23067Y6538D01*
X22972Y6526D01*
X22893Y6472D01*
X22848Y6387D01*
Y6291D01*
X22893Y6207D01*
X22972Y6152D01*
X23067Y6141D01*
X23156Y6175D01*
X23220Y6246D01*
X23243Y6339D01*
X12798Y6299D02*
X12776Y6392D01*
X12712Y6464D01*
X12623Y6498D01*
X12528Y6486D01*
X12449Y6432D01*
X12404Y6347D01*
Y6251D01*
X12449Y6167D01*
X12528Y6112D01*
X12623Y6101D01*
X12712Y6135D01*
X12776Y6206D01*
X12798Y6299D01*
X15568Y2326D02*
X15545Y2419D01*
X15481Y2490D01*
X15392Y2524D01*
X15297Y2513D01*
X15218Y2458D01*
X15173Y2374D01*
Y2278D01*
X15218Y2193D01*
X15297Y2139D01*
X15392Y2127D01*
X15481Y2161D01*
X15545Y2233D01*
X15568Y2326D01*
X20279Y2362D02*
X20256Y2455D01*
X20192Y2527D01*
X20103Y2561D01*
X20008Y2549D01*
X19929Y2495D01*
X19885Y2410D01*
Y2314D01*
X19929Y2230D01*
X20008Y2175D01*
X20103Y2164D01*
X20192Y2198D01*
X20256Y2269D01*
X20279Y2362D01*
X16735D02*
X16713Y2455D01*
X16649Y2527D01*
X16560Y2561D01*
X16465Y2549D01*
X16386Y2495D01*
X16341Y2410D01*
Y2314D01*
X16386Y2230D01*
X16465Y2175D01*
X16560Y2164D01*
X16649Y2198D01*
X16713Y2269D01*
X16735Y2362D01*
X17917D02*
X17894Y2455D01*
X17830Y2527D01*
X17741Y2561D01*
X17646Y2549D01*
X17567Y2495D01*
X17522Y2410D01*
Y2314D01*
X17567Y2230D01*
X17646Y2175D01*
X17741Y2164D01*
X17830Y2198D01*
X17894Y2269D01*
X17917Y2362D01*
X19098D02*
X19075Y2455D01*
X19011Y2527D01*
X18922Y2561D01*
X18827Y2549D01*
X18748Y2495D01*
X18703Y2410D01*
Y2314D01*
X18748Y2230D01*
X18827Y2175D01*
X18922Y2164D01*
X19011Y2198D01*
X19075Y2269D01*
X19098Y2362D01*
X20869Y2953D02*
X20846Y3046D01*
X20783Y3117D01*
X20693Y3151D01*
X20598Y3140D01*
X20520Y3085D01*
X20475Y3001D01*
Y2905D01*
X20520Y2820D01*
X20598Y2766D01*
X20693Y2754D01*
X20783Y2788D01*
X20846Y2860D01*
X20869Y2953D01*
X15006Y3002D02*
X14983Y3095D01*
X14920Y3167D01*
X14830Y3201D01*
X14735Y3189D01*
X14656Y3135D01*
X14612Y3050D01*
Y2955D01*
X14656Y2870D01*
X14735Y2815D01*
X14830Y2804D01*
X14920Y2838D01*
X14983Y2909D01*
X15006Y3002D01*
X15082Y18110D02*
X15059Y18203D01*
X14995Y18275D01*
X14906Y18309D01*
X14811Y18297D01*
X14732Y18243D01*
X14688Y18158D01*
Y18062D01*
X14732Y17978D01*
X14811Y17923D01*
X14906Y17912D01*
X14995Y17946D01*
X15059Y18017D01*
X15082Y18110D01*
X22838Y14173D02*
X22815Y14266D01*
X22751Y14338D01*
X22662Y14372D01*
X22567Y14360D01*
X22488Y14306D01*
X22444Y14221D01*
Y14125D01*
X22488Y14041D01*
X22567Y13986D01*
X22662Y13975D01*
X22751Y14009D01*
X22815Y14080D01*
X22838Y14173D01*
X20594Y17677D02*
X20571Y17770D01*
X20507Y17842D01*
X20418Y17876D01*
X20323Y17864D01*
X20244Y17810D01*
X20200Y17725D01*
Y17629D01*
X20244Y17545D01*
X20323Y17490D01*
X20418Y17479D01*
X20507Y17513D01*
X20571Y17584D01*
X20594Y17677D01*
X24894Y20472D02*
X24871Y20565D01*
X24808Y20637D01*
X24718Y20671D01*
X24623Y20659D01*
X24545Y20605D01*
X24500Y20520D01*
Y20425D01*
X24545Y20340D01*
X24623Y20285D01*
X24718Y20274D01*
X24808Y20308D01*
X24871Y20380D01*
X24894Y20472D01*
X30948Y10000D02*
X30925Y10093D01*
X30862Y10165D01*
X30772Y10199D01*
X30677Y10187D01*
X30598Y10133D01*
X30554Y10048D01*
Y9952D01*
X30598Y9867D01*
X30677Y9813D01*
X30772Y9801D01*
X30862Y9835D01*
X30925Y9907D01*
X30948Y10000D01*
X27995Y9528D02*
X27972Y9621D01*
X27909Y9692D01*
X27819Y9726D01*
X27724Y9715D01*
X27646Y9660D01*
X27601Y9575D01*
Y9480D01*
X27646Y9395D01*
X27724Y9341D01*
X27819Y9329D01*
X27909Y9363D01*
X27972Y9435D01*
X27995Y9528D01*
X27109Y3129D02*
X27086Y3222D01*
X27022Y3294D01*
X26933Y3328D01*
X26838Y3316D01*
X26759Y3262D01*
X26714Y3177D01*
Y3081D01*
X26759Y2997D01*
X26838Y2942D01*
X26933Y2931D01*
X27022Y2965D01*
X27086Y3036D01*
X27109Y3129D01*
X30003Y5433D02*
X29980Y5526D01*
X29917Y5598D01*
X29827Y5632D01*
X29732Y5620D01*
X29653Y5566D01*
X29609Y5481D01*
Y5385D01*
X29653Y5300D01*
X29732Y5246D01*
X29827Y5235D01*
X29917Y5268D01*
X29980Y5340D01*
X30003Y5433D01*
X24894Y22638D02*
X24871Y22731D01*
X24808Y22802D01*
X24718Y22836D01*
X24623Y22825D01*
X24545Y22770D01*
X24500Y22686D01*
Y22590D01*
X24545Y22505D01*
X24623Y22451D01*
X24718Y22439D01*
X24808Y22473D01*
X24871Y22545D01*
X24894Y22638D01*
X27602Y23071D02*
X27579Y23164D01*
X27515Y23235D01*
X27426Y23269D01*
X27331Y23258D01*
X27252Y23203D01*
X27207Y23119D01*
Y23023D01*
X27252Y22938D01*
X27331Y22884D01*
X27426Y22872D01*
X27515Y22906D01*
X27579Y22978D01*
X27602Y23071D01*
X20279Y23189D02*
X20256Y23282D01*
X20192Y23354D01*
X20103Y23388D01*
X20008Y23376D01*
X19929Y23322D01*
X19885Y23237D01*
Y23141D01*
X19929Y23056D01*
X20008Y23002D01*
X20103Y22990D01*
X20192Y23024D01*
X20256Y23096D01*
X20279Y23189D01*
X27208Y26496D02*
X27185Y26589D01*
X27121Y26661D01*
X27032Y26695D01*
X26937Y26683D01*
X26858Y26629D01*
X26814Y26544D01*
Y26448D01*
X26858Y26363D01*
X26937Y26309D01*
X27032Y26298D01*
X27121Y26331D01*
X27185Y26403D01*
X27208Y26496D01*
X22208Y26260D02*
X22185Y26353D01*
X22121Y26424D01*
X22032Y26458D01*
X21937Y26447D01*
X21858Y26392D01*
X21814Y26308D01*
Y26212D01*
X21858Y26127D01*
X21937Y26073D01*
X22032Y26061D01*
X22121Y26095D01*
X22185Y26167D01*
X22208Y26260D01*
X30121Y16417D02*
X30098Y16510D01*
X30035Y16582D01*
X29945Y16616D01*
X29850Y16604D01*
X29772Y16550D01*
X29727Y16465D01*
Y16369D01*
X29772Y16285D01*
X29850Y16230D01*
X29945Y16219D01*
X30035Y16253D01*
X30098Y16324D01*
X30121Y16417D01*
X25397Y18465D02*
X25374Y18558D01*
X25310Y18629D01*
X25221Y18663D01*
X25126Y18652D01*
X25047Y18597D01*
X25003Y18512D01*
Y18417D01*
X25047Y18332D01*
X25126Y18278D01*
X25221Y18266D01*
X25310Y18300D01*
X25374Y18372D01*
X25397Y18465D01*
X26972Y18504D02*
X26949Y18597D01*
X26885Y18669D01*
X26796Y18702D01*
X26701Y18691D01*
X26622Y18637D01*
X26577Y18552D01*
Y18456D01*
X26622Y18371D01*
X26701Y18317D01*
X26796Y18305D01*
X26885Y18339D01*
X26949Y18411D01*
X26972Y18504D01*
X16735Y15354D02*
X16713Y15447D01*
X16649Y15519D01*
X16560Y15553D01*
X16465Y15541D01*
X16386Y15487D01*
X16341Y15402D01*
Y15306D01*
X16386Y15222D01*
X16465Y15167D01*
X16560Y15156D01*
X16649Y15190D01*
X16713Y15261D01*
X16735Y15354D01*
X12798Y20118D02*
X12776Y20211D01*
X12712Y20283D01*
X12623Y20317D01*
X12528Y20305D01*
X12449Y20251D01*
X12404Y20166D01*
Y20070D01*
X12449Y19985D01*
X12528Y19931D01*
X12623Y19920D01*
X12712Y19954D01*
X12776Y20025D01*
X12798Y20118D01*
X41145Y16631D02*
X41122Y16724D01*
X41059Y16795D01*
X40969Y16829D01*
X40874Y16818D01*
X40795Y16763D01*
X40751Y16679D01*
Y16583D01*
X40795Y16498D01*
X40874Y16444D01*
X40969Y16432D01*
X41059Y16466D01*
X41122Y16538D01*
X41145Y16631D01*
Y14231D02*
X41122Y14324D01*
X41059Y14395D01*
X40969Y14429D01*
X40874Y14418D01*
X40795Y14363D01*
X40751Y14279D01*
Y14183D01*
X40795Y14098D01*
X40874Y14044D01*
X40969Y14032D01*
X41059Y14066D01*
X41122Y14138D01*
X41145Y14231D01*
D138*
X30868Y6772D02*
X30833Y6857D01*
X30748Y6892D01*
X30663Y6857D01*
X30628Y6772D01*
X30663Y6687D01*
X30748Y6652D01*
X30833Y6687D01*
X30868Y6772D01*
X27167Y2302D02*
X27132Y2387D01*
X27047Y2422D01*
X26962Y2387D01*
X26927Y2302D01*
X26962Y2218D01*
X27047Y2182D01*
X27132Y2218D01*
X27167Y2302D01*
X30396Y9528D02*
X30360Y9612D01*
X30276Y9648D01*
X30191Y9612D01*
X30156Y9528D01*
X30191Y9443D01*
X30276Y9408D01*
X30360Y9443D01*
X30396Y9528D01*
X31380D02*
X31345Y9612D01*
X31260Y9648D01*
X31175Y9612D01*
X31140Y9528D01*
X31175Y9443D01*
X31260Y9408D01*
X31345Y9443D01*
X31380Y9528D01*
X26892D02*
X26857Y9612D01*
X26772Y9648D01*
X26687Y9612D01*
X26652Y9528D01*
X26687Y9443D01*
X26772Y9408D01*
X26857Y9443D01*
X26892Y9528D01*
X29923Y15354D02*
X29888Y15439D01*
X29803Y15474D01*
X29718Y15439D01*
X29683Y15354D01*
X29718Y15269D01*
X29803Y15234D01*
X29888Y15269D01*
X29923Y15354D01*
X30317Y15827D02*
X30282Y15912D01*
X30197Y15947D01*
X30112Y15912D01*
X30077Y15827D01*
X30112Y15742D01*
X30197Y15707D01*
X30282Y15742D01*
X30317Y15827D01*
X30041Y18465D02*
X30006Y18549D01*
X29921Y18585D01*
X29836Y18549D01*
X29801Y18465D01*
X29836Y18380D01*
X29921Y18345D01*
X30006Y18380D01*
X30041Y18465D01*
Y17441D02*
X30006Y17526D01*
X29921Y17561D01*
X29836Y17526D01*
X29801Y17441D01*
X29836Y17356D01*
X29921Y17321D01*
X30006Y17356D01*
X30041Y17441D01*
X26695Y26378D02*
X26660Y26463D01*
X26575Y26498D01*
X26490Y26463D01*
X26455Y26378D01*
X26490Y26293D01*
X26575Y26258D01*
X26660Y26293D01*
X26695Y26378D01*
X23270Y27047D02*
X23234Y27132D01*
X23150Y27167D01*
X23065Y27132D01*
X23030Y27047D01*
X23065Y26962D01*
X23150Y26927D01*
X23234Y26962D01*
X23270Y27047D01*
X29096Y23701D02*
X29061Y23786D01*
X28976Y23821D01*
X28892Y23786D01*
X28856Y23701D01*
X28892Y23616D01*
X28976Y23581D01*
X29061Y23616D01*
X29096Y23701D01*
X19923Y18268D02*
X19888Y18353D01*
X19803Y18388D01*
X19718Y18353D01*
X19683Y18268D01*
X19718Y18183D01*
X19803Y18148D01*
X19888Y18183D01*
X19923Y18268D01*
X18170Y17795D02*
X18135Y17880D01*
X18050Y17915D01*
X17966Y17880D01*
X17930Y17795D01*
X17966Y17710D01*
X18050Y17675D01*
X18135Y17710D01*
X18170Y17795D01*
Y18268D02*
X18135Y18353D01*
X18050Y18388D01*
X17966Y18353D01*
X17930Y18268D01*
X17966Y18183D01*
X18050Y18148D01*
X18135Y18183D01*
X18170Y18268D01*
X19018Y23701D02*
X18982Y23786D01*
X18898Y23821D01*
X18813Y23786D01*
X18778Y23701D01*
X18813Y23616D01*
X18898Y23581D01*
X18982Y23616D01*
X19018Y23701D01*
X4844Y19094D02*
X4809Y19179D01*
X4724Y19214D01*
X4640Y19179D01*
X4604Y19094D01*
X4640Y19010D01*
X4724Y18974D01*
X4809Y19010D01*
X4844Y19094D01*
Y20118D02*
X4809Y20203D01*
X4724Y20238D01*
X4640Y20203D01*
X4604Y20118D01*
X4640Y20033D01*
X4724Y19998D01*
X4809Y20033D01*
X4844Y20118D01*
X13309Y15906D02*
X13274Y15990D01*
X13189Y16026D01*
X13104Y15990D01*
X13069Y15906D01*
X13104Y15821D01*
X13189Y15786D01*
X13274Y15821D01*
X13309Y15906D01*
X12640Y16535D02*
X12605Y16620D01*
X12520Y16655D01*
X12435Y16620D01*
X12400Y16535D01*
X12435Y16451D01*
X12520Y16415D01*
X12605Y16451D01*
X12640Y16535D01*
X12718Y18937D02*
X12683Y19022D01*
X12598Y19057D01*
X12514Y19022D01*
X12478Y18937D01*
X12514Y18852D01*
X12598Y18817D01*
X12683Y18852D01*
X12718Y18937D01*
X18080Y6638D02*
X18045Y6722D01*
X17960Y6758D01*
X17875Y6722D01*
X17840Y6638D01*
X17875Y6553D01*
X17960Y6518D01*
X18045Y6553D01*
X18080Y6638D01*
X16581Y6661D02*
X16545Y6746D01*
X16461Y6781D01*
X16376Y6746D01*
X16341Y6661D01*
X16376Y6576D01*
X16461Y6541D01*
X16545Y6576D01*
X16581Y6661D01*
X15081Y6693D02*
X15045Y6778D01*
X14961Y6813D01*
X14876Y6778D01*
X14841Y6693D01*
X14876Y6608D01*
X14961Y6573D01*
X15045Y6608D01*
X15081Y6693D01*
X19594Y6683D02*
X19558Y6768D01*
X19474Y6803D01*
X19389Y6768D01*
X19354Y6683D01*
X19389Y6598D01*
X19474Y6563D01*
X19558Y6598D01*
X19594Y6683D01*
X21088Y6714D02*
X21052Y6799D01*
X20968Y6834D01*
X20883Y6799D01*
X20848Y6714D01*
X20883Y6629D01*
X20968Y6594D01*
X21052Y6629D01*
X21088Y6714D01*
X23163Y6339D02*
X23127Y6424D01*
X23043Y6459D01*
X22958Y6424D01*
X22923Y6339D01*
X22958Y6254D01*
X23043Y6219D01*
X23127Y6254D01*
X23163Y6339D01*
X12718Y6299D02*
X12683Y6384D01*
X12598Y6419D01*
X12514Y6384D01*
X12478Y6299D01*
X12514Y6214D01*
X12598Y6179D01*
X12683Y6214D01*
X12718Y6299D01*
X15488Y2326D02*
X15453Y2411D01*
X15368Y2446D01*
X15283Y2411D01*
X15248Y2326D01*
X15283Y2241D01*
X15368Y2206D01*
X15453Y2241D01*
X15488Y2326D01*
X20199Y2362D02*
X20164Y2447D01*
X20079Y2482D01*
X19994Y2447D01*
X19959Y2362D01*
X19994Y2277D01*
X20079Y2242D01*
X20164Y2277D01*
X20199Y2362D01*
X16655D02*
X16620Y2447D01*
X16535Y2482D01*
X16451Y2447D01*
X16415Y2362D01*
X16451Y2277D01*
X16535Y2242D01*
X16620Y2277D01*
X16655Y2362D01*
X17837D02*
X17801Y2447D01*
X17717Y2482D01*
X17632Y2447D01*
X17597Y2362D01*
X17632Y2277D01*
X17717Y2242D01*
X17801Y2277D01*
X17837Y2362D01*
X19018D02*
X18982Y2447D01*
X18898Y2482D01*
X18813Y2447D01*
X18778Y2362D01*
X18813Y2277D01*
X18898Y2242D01*
X18982Y2277D01*
X19018Y2362D01*
X20789Y2953D02*
X20754Y3038D01*
X20669Y3073D01*
X20584Y3038D01*
X20549Y2953D01*
X20584Y2868D01*
X20669Y2833D01*
X20754Y2868D01*
X20789Y2953D01*
X14926Y3002D02*
X14891Y3087D01*
X14806Y3122D01*
X14721Y3087D01*
X14686Y3002D01*
X14721Y2918D01*
X14806Y2882D01*
X14891Y2918D01*
X14926Y3002D01*
X15002Y18110D02*
X14967Y18195D01*
X14882Y18230D01*
X14797Y18195D01*
X14762Y18110D01*
X14797Y18025D01*
X14882Y17990D01*
X14967Y18025D01*
X15002Y18110D01*
X22758Y14173D02*
X22723Y14258D01*
X22638Y14293D01*
X22553Y14258D01*
X22518Y14173D01*
X22553Y14088D01*
X22638Y14053D01*
X22723Y14088D01*
X22758Y14173D01*
X20514Y17677D02*
X20479Y17762D01*
X20394Y17797D01*
X20309Y17762D01*
X20274Y17677D01*
X20309Y17592D01*
X20394Y17557D01*
X20479Y17592D01*
X20514Y17677D01*
X24814Y20472D02*
X24779Y20557D01*
X24694Y20592D01*
X24609Y20557D01*
X24574Y20472D01*
X24609Y20388D01*
X24694Y20352D01*
X24779Y20388D01*
X24814Y20472D01*
X30868Y10000D02*
X30833Y10085D01*
X30748Y10120D01*
X30663Y10085D01*
X30628Y10000D01*
X30663Y9915D01*
X30748Y9880D01*
X30833Y9915D01*
X30868Y10000D01*
X27915Y9528D02*
X27880Y9612D01*
X27795Y9648D01*
X27710Y9612D01*
X27675Y9528D01*
X27710Y9443D01*
X27795Y9408D01*
X27880Y9443D01*
X27915Y9528D01*
X27029Y3129D02*
X26994Y3214D01*
X26909Y3249D01*
X26824Y3214D01*
X26789Y3129D01*
X26824Y3044D01*
X26909Y3009D01*
X26994Y3044D01*
X27029Y3129D01*
X29923Y5433D02*
X29888Y5518D01*
X29803Y5553D01*
X29718Y5518D01*
X29683Y5433D01*
X29718Y5348D01*
X29803Y5313D01*
X29888Y5348D01*
X29923Y5433D01*
X24814Y22638D02*
X24779Y22723D01*
X24694Y22758D01*
X24609Y22723D01*
X24574Y22638D01*
X24609Y22553D01*
X24694Y22518D01*
X24779Y22553D01*
X24814Y22638D01*
X27522Y23071D02*
X27486Y23156D01*
X27402Y23191D01*
X27317Y23156D01*
X27282Y23071D01*
X27317Y22986D01*
X27402Y22951D01*
X27486Y22986D01*
X27522Y23071D01*
X20199Y23189D02*
X20164Y23274D01*
X20079Y23309D01*
X19994Y23274D01*
X19959Y23189D01*
X19994Y23104D01*
X20079Y23069D01*
X20164Y23104D01*
X20199Y23189D01*
X27128Y26496D02*
X27093Y26581D01*
X27008Y26616D01*
X26923Y26581D01*
X26888Y26496D01*
X26923Y26411D01*
X27008Y26376D01*
X27093Y26411D01*
X27128Y26496D01*
X22128Y26260D02*
X22093Y26345D01*
X22008Y26380D01*
X21923Y26345D01*
X21888Y26260D01*
X21923Y26175D01*
X22008Y26140D01*
X22093Y26175D01*
X22128Y26260D01*
X30041Y16417D02*
X30006Y16502D01*
X29921Y16537D01*
X29836Y16502D01*
X29801Y16417D01*
X29836Y16332D01*
X29921Y16297D01*
X30006Y16332D01*
X30041Y16417D01*
X25317Y18465D02*
X25282Y18549D01*
X25197Y18585D01*
X25112Y18549D01*
X25077Y18465D01*
X25112Y18380D01*
X25197Y18345D01*
X25282Y18380D01*
X25317Y18465D01*
X26892Y18504D02*
X26857Y18589D01*
X26772Y18624D01*
X26687Y18589D01*
X26652Y18504D01*
X26687Y18419D01*
X26772Y18384D01*
X26857Y18419D01*
X26892Y18504D01*
X16655Y15354D02*
X16620Y15439D01*
X16535Y15474D01*
X16451Y15439D01*
X16415Y15354D01*
X16451Y15269D01*
X16535Y15234D01*
X16620Y15269D01*
X16655Y15354D01*
X12718Y20118D02*
X12683Y20203D01*
X12598Y20238D01*
X12514Y20203D01*
X12478Y20118D01*
X12514Y20033D01*
X12598Y19998D01*
X12683Y20033D01*
X12718Y20118D01*
X41065Y16631D02*
X41030Y16716D01*
X40945Y16751D01*
X40860Y16716D01*
X40825Y16631D01*
X40860Y16546D01*
X40945Y16511D01*
X41030Y16546D01*
X41065Y16631D01*
M02*
