%FSLAX24Y24*%
%MOIN*%
G70*
G01*
G75*
%ADD10C,0.0039*%
%ADD11C,0.1102*%
%ADD12C,0.1063*%
%ADD13C,0.0394*%
%ADD14R,0.0940X0.0590*%
%ADD15O,0.0256X0.0866*%
%ADD16R,0.0256X0.0866*%
%ADD17R,0.0827X0.0394*%
%ADD18R,0.0394X0.0827*%
%ADD19R,0.1083X0.0850*%
%ADD20R,0.0709X0.1102*%
%ADD21R,0.0709X0.0354*%
%ADD22R,0.0500X0.0600*%
%ADD23R,0.0709X0.0394*%
%ADD24R,0.1102X0.0472*%
%ADD25O,0.0787X0.0394*%
%ADD26R,0.0787X0.0394*%
%ADD27O,0.0800X0.0240*%
%ADD28R,0.0800X0.1000*%
%ADD29R,0.0551X0.0394*%
%ADD30R,0.1181X0.0906*%
%ADD31R,0.0394X0.0984*%
%ADD32O,0.0787X0.1299*%
%ADD33R,0.0315X0.0551*%
%ADD34R,0.0600X0.0500*%
%ADD35O,0.1299X0.0787*%
%ADD36R,0.0551X0.0315*%
%ADD37O,0.0787X0.1299*%
%ADD38R,0.0315X0.0551*%
%ADD39R,0.1000X0.0800*%
%ADD40R,0.0394X0.0709*%
%ADD41R,0.0984X0.0394*%
%ADD42R,0.0906X0.1181*%
%ADD43O,0.0240X0.0800*%
%ADD44C,0.0512*%
%ADD45C,0.0276*%
%ADD46C,0.0236*%
%ADD47C,0.0098*%
%ADD48C,0.0315*%
%ADD49C,0.0394*%
%ADD50C,0.0433*%
%ADD51C,0.0138*%
%ADD52C,0.0098*%
%ADD53C,0.0118*%
%ADD54C,0.0472*%
%ADD55C,0.0071*%
%ADD56C,0.0100*%
%ADD57R,0.0315X0.0827*%
%ADD58R,0.1378X0.0748*%
%ADD59R,0.1654X0.0984*%
%ADD60R,0.0827X0.0315*%
%ADD61R,0.0315X0.0827*%
%ADD62R,0.2087X0.1220*%
%ADD63R,0.1575X0.1220*%
%ADD64R,0.1575X0.1220*%
%ADD65R,0.1339X0.1496*%
%ADD66R,0.0500X0.0800*%
%ADD67R,0.1500X0.1000*%
%ADD68C,0.0500*%
%ADD69C,0.0600*%
%ADD70C,0.0750*%
%ADD71C,0.0400*%
%ADD72R,0.0400X0.0400*%
%ADD73C,0.1024*%
%ADD74R,0.0800X0.0800*%
%ADD75C,0.0800*%
%ADD76C,0.2750*%
%ADD77P,0.0500X8X0*%
%ADD78C,0.2362*%
%ADD79C,0.2362*%
%ADD80C,0.0551*%
%ADD81C,0.0512*%
%ADD82C,0.0157*%
%ADD83C,0.0787*%
%ADD84C,0.0197*%
%ADD85C,0.0079*%
%ADD86C,0.0080*%
%ADD87C,0.0060*%
%ADD88C,0.0120*%
D47*
X750Y-3937D02*
X375Y-2953D01*
X0Y-3937D01*
X141Y-3609D02*
X609D01*
X979Y-2953D02*
Y-3937D01*
Y-2953D02*
X1354Y-3937D01*
X1729Y-2953D02*
X1354Y-3937D01*
X1729Y-2953D02*
Y-3937D01*
X2666Y-3094D02*
X2573Y-3000D01*
X2432Y-2953D01*
X2245D01*
X2104Y-3000D01*
X2010Y-3094D01*
Y-3187D01*
X2057Y-3281D01*
X2104Y-3328D01*
X2198Y-3375D01*
X2479Y-3468D01*
X2573Y-3515D01*
X2619Y-3562D01*
X2666Y-3656D01*
Y-3796D01*
X2573Y-3890D01*
X2432Y-3937D01*
X2245D01*
X2104Y-3890D01*
X2010Y-3796D01*
X3636Y-3937D02*
X3261Y-2953D01*
X2887Y-3937D01*
X3027Y-3609D02*
X3496D01*
X4194Y-2953D02*
Y-3937D01*
X3866Y-2953D02*
X4522D01*
X5412D02*
Y-3937D01*
Y-2953D02*
X6068Y-3937D01*
Y-2953D02*
Y-3937D01*
X6949Y-2953D02*
X6340D01*
Y-3937D01*
X6949D01*
X6340Y-3422D02*
X6715D01*
X7113Y-2953D02*
X7348Y-3937D01*
X7582Y-2953D02*
X7348Y-3937D01*
X7582Y-2953D02*
X7816Y-3937D01*
X8050Y-2953D02*
X7816Y-3937D01*
X9676Y-2953D02*
X9020Y-3937D01*
Y-2953D02*
X9676D01*
X9020Y-3937D02*
X9676D01*
X10506Y-2953D02*
X9897D01*
Y-3937D01*
X10506D01*
X9897Y-3422D02*
X10272D01*
X11420Y-3937D02*
X11045Y-2953D01*
X10670Y-3937D01*
X10810Y-3609D02*
X11279D01*
X11649Y-2953D02*
Y-3937D01*
X12211D01*
X13069D02*
X12694Y-2953D01*
X12319Y-3937D01*
X12460Y-3609D02*
X12928D01*
X13299Y-2953D02*
Y-3937D01*
Y-2953D02*
X13955Y-3937D01*
Y-2953D02*
Y-3937D01*
X14226Y-2953D02*
Y-3937D01*
Y-2953D02*
X14554D01*
X14695Y-3000D01*
X14789Y-3094D01*
X14836Y-3187D01*
X14882Y-3328D01*
Y-3562D01*
X14836Y-3703D01*
X14789Y-3796D01*
X14695Y-3890D01*
X14554Y-3937D01*
X14226D01*
D55*
X16535Y-3228D02*
Y-3937D01*
Y-3228D02*
X16839D01*
X16940Y-3262D01*
X16974Y-3296D01*
X17008Y-3363D01*
Y-3431D01*
X16974Y-3498D01*
X16940Y-3532D01*
X16839Y-3566D01*
X16535D02*
X16839D01*
X16940Y-3600D01*
X16974Y-3633D01*
X17008Y-3701D01*
Y-3802D01*
X16974Y-3870D01*
X16940Y-3903D01*
X16839Y-3937D01*
X16535D01*
X17369Y-3228D02*
X17301Y-3262D01*
X17234Y-3330D01*
X17200Y-3397D01*
X17166Y-3498D01*
Y-3667D01*
X17200Y-3768D01*
X17234Y-3836D01*
X17301Y-3903D01*
X17369Y-3937D01*
X17504D01*
X17571Y-3903D01*
X17639Y-3836D01*
X17672Y-3768D01*
X17706Y-3667D01*
Y-3498D01*
X17672Y-3397D01*
X17639Y-3330D01*
X17571Y-3262D01*
X17504Y-3228D01*
X17369D01*
X18108D02*
Y-3937D01*
X17871Y-3228D02*
X18344D01*
X18664D02*
Y-3937D01*
X18428Y-3228D02*
X18901D01*
X19187D02*
X19120Y-3262D01*
X19052Y-3330D01*
X19019Y-3397D01*
X18985Y-3498D01*
Y-3667D01*
X19019Y-3768D01*
X19052Y-3836D01*
X19120Y-3903D01*
X19187Y-3937D01*
X19322D01*
X19390Y-3903D01*
X19457Y-3836D01*
X19491Y-3768D01*
X19525Y-3667D01*
Y-3498D01*
X19491Y-3397D01*
X19457Y-3330D01*
X19390Y-3262D01*
X19322Y-3228D01*
X19187D01*
X19690D02*
Y-3937D01*
Y-3228D02*
X19960Y-3937D01*
X20230Y-3228D02*
X19960Y-3937D01*
X20230Y-3228D02*
Y-3937D01*
X21191Y-3228D02*
X21124Y-3262D01*
X21056Y-3330D01*
X21023Y-3397D01*
X20989Y-3498D01*
Y-3667D01*
X21023Y-3768D01*
X21056Y-3836D01*
X21124Y-3903D01*
X21191Y-3937D01*
X21326D01*
X21394Y-3903D01*
X21461Y-3836D01*
X21495Y-3768D01*
X21529Y-3667D01*
Y-3498D01*
X21495Y-3397D01*
X21461Y-3330D01*
X21394Y-3262D01*
X21326Y-3228D01*
X21191D01*
X21694D02*
X21964Y-3937D01*
X22234Y-3228D02*
X21964Y-3937D01*
X22764Y-3228D02*
X22325D01*
Y-3937D01*
X22764D01*
X22325Y-3566D02*
X22595D01*
X22882Y-3228D02*
Y-3937D01*
Y-3228D02*
X23185D01*
X23287Y-3262D01*
X23320Y-3296D01*
X23354Y-3363D01*
Y-3431D01*
X23320Y-3498D01*
X23287Y-3532D01*
X23185Y-3566D01*
X22882D01*
X23118D02*
X23354Y-3937D01*
X23513Y-3228D02*
Y-3937D01*
X23917D01*
X24535D02*
X24265Y-3228D01*
X23995Y-3937D01*
X24096Y-3701D02*
X24434D01*
X24700Y-3228D02*
X24970Y-3566D01*
Y-3937D01*
X25240Y-3228D02*
X24970Y-3566D01*
X26124Y-3094D02*
X26056Y-3161D01*
X25989Y-3262D01*
X25921Y-3397D01*
X25888Y-3566D01*
Y-3701D01*
X25921Y-3870D01*
X25989Y-4004D01*
X26056Y-4106D01*
X26124Y-4173D01*
X26056Y-3161D02*
X25989Y-3296D01*
X25955Y-3397D01*
X25921Y-3566D01*
Y-3701D01*
X25955Y-3870D01*
X25989Y-3971D01*
X26056Y-4106D01*
X26731Y-3330D02*
X26664Y-3262D01*
X26563Y-3228D01*
X26428D01*
X26326Y-3262D01*
X26259Y-3330D01*
Y-3397D01*
X26293Y-3465D01*
X26326Y-3498D01*
X26394Y-3532D01*
X26596Y-3600D01*
X26664Y-3633D01*
X26697Y-3667D01*
X26731Y-3735D01*
Y-3836D01*
X26664Y-3903D01*
X26563Y-3937D01*
X26428D01*
X26326Y-3903D01*
X26259Y-3836D01*
X26890Y-3228D02*
Y-3937D01*
X27038Y-3228D02*
Y-3937D01*
X27443D01*
X27521Y-3228D02*
Y-3937D01*
X27993Y-3228D02*
X27521Y-3701D01*
X27689Y-3532D02*
X27993Y-3937D01*
X28624Y-3330D02*
X28556Y-3262D01*
X28455Y-3228D01*
X28320D01*
X28219Y-3262D01*
X28152Y-3330D01*
Y-3397D01*
X28185Y-3465D01*
X28219Y-3498D01*
X28287Y-3532D01*
X28489Y-3600D01*
X28556Y-3633D01*
X28590Y-3667D01*
X28624Y-3735D01*
Y-3836D01*
X28556Y-3903D01*
X28455Y-3937D01*
X28320D01*
X28219Y-3903D01*
X28152Y-3836D01*
X29289Y-3397D02*
X29255Y-3330D01*
X29187Y-3262D01*
X29120Y-3228D01*
X28985D01*
X28917Y-3262D01*
X28850Y-3330D01*
X28816Y-3397D01*
X28783Y-3498D01*
Y-3667D01*
X28816Y-3768D01*
X28850Y-3836D01*
X28917Y-3903D01*
X28985Y-3937D01*
X29120D01*
X29187Y-3903D01*
X29255Y-3836D01*
X29289Y-3768D01*
X29488Y-3228D02*
Y-3937D01*
Y-3228D02*
X29791D01*
X29893Y-3262D01*
X29926Y-3296D01*
X29960Y-3363D01*
Y-3431D01*
X29926Y-3498D01*
X29893Y-3532D01*
X29791Y-3566D01*
X29488D01*
X29724D02*
X29960Y-3937D01*
X30557Y-3228D02*
X30119D01*
Y-3937D01*
X30557D01*
X30119Y-3566D02*
X30388D01*
X31114Y-3228D02*
X30675D01*
Y-3937D01*
X31114D01*
X30675Y-3566D02*
X30945D01*
X31232Y-3228D02*
Y-3937D01*
Y-3228D02*
X31704Y-3937D01*
Y-3228D02*
Y-3937D01*
X31900Y-3094D02*
X31967Y-3161D01*
X32035Y-3262D01*
X32102Y-3397D01*
X32136Y-3566D01*
Y-3701D01*
X32102Y-3870D01*
X32035Y-4004D01*
X31967Y-4106D01*
X31900Y-4173D01*
X31967Y-3161D02*
X32035Y-3296D01*
X32069Y-3397D01*
X32102Y-3566D01*
Y-3701D01*
X32069Y-3870D01*
X32035Y-3971D01*
X31967Y-4106D01*
X0Y-4803D02*
Y-5512D01*
Y-4803D02*
X236D01*
X337Y-4837D01*
X405Y-4905D01*
X439Y-4972D01*
X472Y-5073D01*
Y-5242D01*
X439Y-5343D01*
X405Y-5411D01*
X337Y-5478D01*
X236Y-5512D01*
X0D01*
X631Y-4803D02*
Y-5512D01*
Y-4803D02*
X935D01*
X1036Y-4837D01*
X1070Y-4871D01*
X1103Y-4938D01*
Y-5006D01*
X1070Y-5073D01*
X1036Y-5107D01*
X935Y-5141D01*
X631D01*
X867D02*
X1103Y-5512D01*
X1802D02*
X1532Y-4803D01*
X1262Y-5512D01*
X1363Y-5276D02*
X1700D01*
X1967Y-4803D02*
X2136Y-5512D01*
X2304Y-4803D02*
X2136Y-5512D01*
X2304Y-4803D02*
X2473Y-5512D01*
X2642Y-4803D02*
X2473Y-5512D01*
X2783Y-4803D02*
Y-5512D01*
X2932Y-4803D02*
Y-5512D01*
Y-4803D02*
X3404Y-5512D01*
Y-4803D02*
Y-5512D01*
X4106Y-4972D02*
X4072Y-4905D01*
X4005Y-4837D01*
X3937Y-4803D01*
X3802D01*
X3735Y-4837D01*
X3667Y-4905D01*
X3634Y-4972D01*
X3600Y-5073D01*
Y-5242D01*
X3634Y-5343D01*
X3667Y-5411D01*
X3735Y-5478D01*
X3802Y-5512D01*
X3937D01*
X4005Y-5478D01*
X4072Y-5411D01*
X4106Y-5343D01*
Y-5242D01*
X3937D02*
X4106D01*
X4825Y-4803D02*
Y-5512D01*
Y-4803D02*
X5297Y-5512D01*
Y-4803D02*
Y-5512D01*
X5493Y-5039D02*
Y-5512D01*
Y-5242D02*
X5526Y-5141D01*
X5594Y-5073D01*
X5661Y-5039D01*
X5763D01*
X5860D02*
X5827Y-5073D01*
X5860Y-5107D01*
X5894Y-5073D01*
X5860Y-5039D01*
Y-5444D02*
X5827Y-5478D01*
X5860Y-5512D01*
X5894Y-5478D01*
X5860Y-5444D01*
X6049Y-5208D02*
X6657D01*
X16535Y-6378D02*
Y-7087D01*
Y-6378D02*
X16805Y-7087D01*
X17075Y-6378D02*
X16805Y-7087D01*
X17075Y-6378D02*
Y-7087D01*
X17683Y-6614D02*
Y-7087D01*
Y-6715D02*
X17615Y-6648D01*
X17548Y-6614D01*
X17446D01*
X17379Y-6648D01*
X17311Y-6715D01*
X17278Y-6817D01*
Y-6884D01*
X17311Y-6985D01*
X17379Y-7053D01*
X17446Y-7087D01*
X17548D01*
X17615Y-7053D01*
X17683Y-6985D01*
X17871Y-6614D02*
Y-7087D01*
Y-6817D02*
X17905Y-6715D01*
X17973Y-6648D01*
X18040Y-6614D01*
X18141D01*
X18610Y-6715D02*
X18543Y-6648D01*
X18475Y-6614D01*
X18374D01*
X18307Y-6648D01*
X18239Y-6715D01*
X18205Y-6817D01*
Y-6884D01*
X18239Y-6985D01*
X18307Y-7053D01*
X18374Y-7087D01*
X18475D01*
X18543Y-7053D01*
X18610Y-6985D01*
X18762Y-6378D02*
Y-7087D01*
Y-6749D02*
X18863Y-6648D01*
X18931Y-6614D01*
X19032D01*
X19100Y-6648D01*
X19133Y-6749D01*
Y-7087D01*
X19909Y-6547D02*
Y-6513D01*
X19943Y-6446D01*
X19977Y-6412D01*
X20044Y-6378D01*
X20179D01*
X20247Y-6412D01*
X20280Y-6446D01*
X20314Y-6513D01*
Y-6581D01*
X20280Y-6648D01*
X20213Y-6749D01*
X19876Y-7087D01*
X20348D01*
X20709Y-6378D02*
X20608Y-6412D01*
X20540Y-6513D01*
X20506Y-6682D01*
Y-6783D01*
X20540Y-6952D01*
X20608Y-7053D01*
X20709Y-7087D01*
X20776D01*
X20878Y-7053D01*
X20945Y-6952D01*
X20979Y-6783D01*
Y-6682D01*
X20945Y-6513D01*
X20878Y-6412D01*
X20776Y-6378D01*
X20709D01*
X21340D02*
X21239Y-6412D01*
X21171Y-6513D01*
X21137Y-6682D01*
Y-6783D01*
X21171Y-6952D01*
X21239Y-7053D01*
X21340Y-7087D01*
X21407D01*
X21508Y-7053D01*
X21576Y-6952D01*
X21610Y-6783D01*
Y-6682D01*
X21576Y-6513D01*
X21508Y-6412D01*
X21407Y-6378D01*
X21340D01*
X22173Y-6479D02*
X22139Y-6412D01*
X22038Y-6378D01*
X21971D01*
X21869Y-6412D01*
X21802Y-6513D01*
X21768Y-6682D01*
Y-6850D01*
X21802Y-6985D01*
X21869Y-7053D01*
X21971Y-7087D01*
X22004D01*
X22106Y-7053D01*
X22173Y-6985D01*
X22207Y-6884D01*
Y-6850D01*
X22173Y-6749D01*
X22106Y-6682D01*
X22004Y-6648D01*
X21971D01*
X21869Y-6682D01*
X21802Y-6749D01*
X21768Y-6850D01*
X16569Y-4972D02*
Y-4938D01*
X16603Y-4871D01*
X16637Y-4837D01*
X16704Y-4803D01*
X16839D01*
X16907Y-4837D01*
X16940Y-4871D01*
X16974Y-4938D01*
Y-5006D01*
X16940Y-5073D01*
X16873Y-5174D01*
X16535Y-5512D01*
X17008D01*
X17369Y-4803D02*
X17268Y-4837D01*
X17200Y-4938D01*
X17166Y-5107D01*
Y-5208D01*
X17200Y-5377D01*
X17268Y-5478D01*
X17369Y-5512D01*
X17436D01*
X17537Y-5478D01*
X17605Y-5377D01*
X17639Y-5208D01*
Y-5107D01*
X17605Y-4938D01*
X17537Y-4837D01*
X17436Y-4803D01*
X17369D01*
X18000D02*
X17898Y-4837D01*
X17831Y-4938D01*
X17797Y-5107D01*
Y-5208D01*
X17831Y-5377D01*
X17898Y-5478D01*
X18000Y-5512D01*
X18067D01*
X18168Y-5478D01*
X18236Y-5377D01*
X18270Y-5208D01*
Y-5107D01*
X18236Y-4938D01*
X18168Y-4837D01*
X18067Y-4803D01*
X18000D01*
X18833Y-4905D02*
X18799Y-4837D01*
X18698Y-4803D01*
X18631D01*
X18529Y-4837D01*
X18462Y-4938D01*
X18428Y-5107D01*
Y-5276D01*
X18462Y-5411D01*
X18529Y-5478D01*
X18631Y-5512D01*
X18664D01*
X18766Y-5478D01*
X18833Y-5411D01*
X18867Y-5309D01*
Y-5276D01*
X18833Y-5174D01*
X18766Y-5107D01*
X18664Y-5073D01*
X18631D01*
X18529Y-5107D01*
X18462Y-5174D01*
X18428Y-5276D01*
X19224Y-4803D02*
X19123Y-4837D01*
X19056Y-4938D01*
X19022Y-5107D01*
Y-5208D01*
X19056Y-5377D01*
X19123Y-5478D01*
X19224Y-5512D01*
X19292D01*
X19393Y-5478D01*
X19461Y-5377D01*
X19494Y-5208D01*
Y-5107D01*
X19461Y-4938D01*
X19393Y-4837D01*
X19292Y-4803D01*
X19224D01*
X19720D02*
X20091D01*
X19889Y-5073D01*
X19990D01*
X20058Y-5107D01*
X20091Y-5141D01*
X20125Y-5242D01*
Y-5309D01*
X20091Y-5411D01*
X20024Y-5478D01*
X19923Y-5512D01*
X19822D01*
X19720Y-5478D01*
X19687Y-5444D01*
X19653Y-5377D01*
X20284Y-4938D02*
X20351Y-4905D01*
X20452Y-4803D01*
Y-5512D01*
X21006Y-4803D02*
X20905Y-4837D01*
X20837Y-4938D01*
X20803Y-5107D01*
Y-5208D01*
X20837Y-5377D01*
X20905Y-5478D01*
X21006Y-5512D01*
X21073D01*
X21174Y-5478D01*
X21242Y-5377D01*
X21276Y-5208D01*
Y-5107D01*
X21242Y-4938D01*
X21174Y-4837D01*
X21073Y-4803D01*
X21006D01*
X21434Y-5208D02*
X22042D01*
X22453Y-4803D02*
X22352Y-4837D01*
X22284Y-4938D01*
X22251Y-5107D01*
Y-5208D01*
X22284Y-5377D01*
X22352Y-5478D01*
X22453Y-5512D01*
X22521D01*
X22622Y-5478D01*
X22689Y-5377D01*
X22723Y-5208D01*
Y-5107D01*
X22689Y-4938D01*
X22622Y-4837D01*
X22521Y-4803D01*
X22453D01*
X23084D02*
X22983Y-4837D01*
X22915Y-4938D01*
X22882Y-5107D01*
Y-5208D01*
X22915Y-5377D01*
X22983Y-5478D01*
X23084Y-5512D01*
X23152D01*
X23253Y-5478D01*
X23320Y-5377D01*
X23354Y-5208D01*
Y-5107D01*
X23320Y-4938D01*
X23253Y-4837D01*
X23152Y-4803D01*
X23084D01*
X23513Y-4938D02*
X23580Y-4905D01*
X23681Y-4803D01*
Y-5512D01*
X0Y-6378D02*
Y-7087D01*
Y-6378D02*
X236D01*
X337Y-6412D01*
X405Y-6479D01*
X439Y-6547D01*
X472Y-6648D01*
Y-6817D01*
X439Y-6918D01*
X405Y-6985D01*
X337Y-7053D01*
X236Y-7087D01*
X0D01*
X1171D02*
X901Y-6378D01*
X631Y-7087D01*
X732Y-6850D02*
X1070D01*
X1572Y-6378D02*
Y-7087D01*
X1336Y-6378D02*
X1808D01*
X2331D02*
X1893D01*
Y-7087D01*
X2331D01*
X1893Y-6715D02*
X2163D01*
X2483Y-6614D02*
X2449Y-6648D01*
X2483Y-6682D01*
X2517Y-6648D01*
X2483Y-6614D01*
Y-7019D02*
X2449Y-7053D01*
X2483Y-7087D01*
X2517Y-7053D01*
X2483Y-7019D01*
X2672Y-6783D02*
X3279D01*
D56*
X25484Y21943D02*
X25384Y22043D01*
Y22243D01*
X25484Y22343D01*
X25884D01*
X25984Y22243D01*
Y22043D01*
X25884Y21943D01*
X25984Y21343D02*
Y21743D01*
X25584Y21343D01*
X25484D01*
X25384Y21443D01*
Y21643D01*
X25484Y21743D01*
X25984Y20743D02*
Y21143D01*
X25584Y20743D01*
X25484D01*
X25384Y20843D01*
Y21043D01*
X25484Y21143D01*
D87*
X24374Y20629D02*
Y21279D01*
X25074Y20629D02*
Y21279D01*
X24374Y22329D02*
X25074D01*
Y21679D02*
Y22329D01*
X24374Y21679D02*
Y22329D01*
Y20629D02*
X25074D01*
M02*
