%FSLAX24Y24*%
%MOIN*%
G70*
G01*
G75*
%ADD10C,0.0039*%
%ADD11C,0.1102*%
%ADD12C,0.1063*%
%ADD13C,0.0394*%
%ADD14R,0.0940X0.0590*%
%ADD15O,0.0256X0.0866*%
%ADD16R,0.0256X0.0866*%
%ADD17R,0.0827X0.0394*%
%ADD18R,0.0394X0.0827*%
%ADD19R,0.1083X0.0850*%
%ADD20R,0.0709X0.1102*%
%ADD21R,0.0709X0.0354*%
%ADD22R,0.0500X0.0600*%
%ADD23R,0.0709X0.0394*%
%ADD24R,0.1102X0.0472*%
%ADD25O,0.0787X0.0394*%
%ADD26R,0.0787X0.0394*%
%ADD27O,0.0800X0.0240*%
%ADD28R,0.0800X0.1000*%
%ADD29R,0.0551X0.0394*%
%ADD30R,0.1181X0.0906*%
%ADD31R,0.0394X0.0984*%
%ADD32O,0.0787X0.1299*%
%ADD33R,0.0315X0.0551*%
%ADD34R,0.0600X0.0500*%
%ADD35O,0.1299X0.0787*%
%ADD36R,0.0551X0.0315*%
%ADD37O,0.0787X0.1299*%
%ADD38R,0.0315X0.0551*%
%ADD39R,0.1000X0.0800*%
%ADD40R,0.0394X0.0709*%
%ADD41R,0.0984X0.0394*%
%ADD42R,0.0906X0.1181*%
%ADD43O,0.0240X0.0800*%
%ADD44C,0.0512*%
%ADD45C,0.0276*%
%ADD46C,0.0236*%
%ADD47C,0.0098*%
%ADD48C,0.0315*%
%ADD49C,0.0394*%
%ADD50C,0.0433*%
%ADD51C,0.0138*%
%ADD52C,0.0098*%
%ADD53C,0.0118*%
%ADD54C,0.0472*%
%ADD55C,0.0071*%
%ADD56C,0.0100*%
%ADD57R,0.0315X0.0827*%
%ADD58R,0.1378X0.0748*%
%ADD59R,0.1654X0.0984*%
%ADD60R,0.0827X0.0315*%
%ADD61R,0.0315X0.0827*%
%ADD62R,0.2087X0.1220*%
%ADD63R,0.1575X0.1220*%
%ADD64R,0.1575X0.1220*%
%ADD65R,0.1339X0.1496*%
%ADD66R,0.0500X0.0800*%
%ADD67R,0.1500X0.1000*%
%ADD68C,0.0500*%
%ADD69C,0.0600*%
%ADD70C,0.0750*%
%ADD71C,0.0400*%
%ADD72R,0.0400X0.0400*%
%ADD73C,0.1024*%
%ADD74R,0.0800X0.0800*%
%ADD75C,0.0800*%
%ADD76C,0.2750*%
%ADD77P,0.0500X8X0*%
%ADD78C,0.2362*%
%ADD79C,0.2362*%
%ADD80C,0.0551*%
%ADD81C,0.0512*%
%ADD82C,0.0157*%
%ADD83C,0.0787*%
%ADD84C,0.0197*%
%ADD85C,0.0079*%
%ADD86C,0.0080*%
%ADD87C,0.0060*%
%ADD88C,0.0120*%
D47*
X3543Y21260D02*
X3937Y20866D01*
X2953Y21260D02*
X3543D01*
X6220Y21811D02*
X6417Y22047D01*
X17598Y33268D02*
Y33465D01*
X15906Y33425D02*
Y33622D01*
X24710Y18230D02*
Y19060D01*
X26575Y3346D02*
X26969Y3740D01*
X26575Y3346D02*
X26575D01*
X26181Y2953D02*
X26575Y3346D01*
X11024Y14252D02*
X17126D01*
Y11772D02*
Y14232D01*
X11024Y11772D02*
X17126D01*
X11024D02*
Y14232D01*
X29528Y20079D02*
X29724Y19882D01*
X750Y-3937D02*
X375Y-2953D01*
X0Y-3937D01*
X141Y-3609D02*
X609D01*
X979Y-2953D02*
Y-3937D01*
Y-2953D02*
X1354Y-3937D01*
X1729Y-2953D02*
X1354Y-3937D01*
X1729Y-2953D02*
Y-3937D01*
X2666Y-3094D02*
X2573Y-3000D01*
X2432Y-2953D01*
X2245D01*
X2104Y-3000D01*
X2010Y-3094D01*
Y-3187D01*
X2057Y-3281D01*
X2104Y-3328D01*
X2198Y-3375D01*
X2479Y-3468D01*
X2573Y-3515D01*
X2619Y-3562D01*
X2666Y-3656D01*
Y-3796D01*
X2573Y-3890D01*
X2432Y-3937D01*
X2245D01*
X2104Y-3890D01*
X2010Y-3796D01*
X3636Y-3937D02*
X3261Y-2953D01*
X2887Y-3937D01*
X3027Y-3609D02*
X3496D01*
X4194Y-2953D02*
Y-3937D01*
X3866Y-2953D02*
X4522D01*
X5412D02*
Y-3937D01*
Y-2953D02*
X6068Y-3937D01*
Y-2953D02*
Y-3937D01*
X6949Y-2953D02*
X6340D01*
Y-3937D01*
X6949D01*
X6340Y-3422D02*
X6715D01*
X7113Y-2953D02*
X7348Y-3937D01*
X7582Y-2953D02*
X7348Y-3937D01*
X7582Y-2953D02*
X7816Y-3937D01*
X8050Y-2953D02*
X7816Y-3937D01*
X9676Y-2953D02*
X9020Y-3937D01*
Y-2953D02*
X9676D01*
X9020Y-3937D02*
X9676D01*
X10506Y-2953D02*
X9897D01*
Y-3937D01*
X10506D01*
X9897Y-3422D02*
X10272D01*
X11420Y-3937D02*
X11045Y-2953D01*
X10670Y-3937D01*
X10810Y-3609D02*
X11279D01*
X11649Y-2953D02*
Y-3937D01*
X12211D01*
X13069D02*
X12694Y-2953D01*
X12319Y-3937D01*
X12460Y-3609D02*
X12928D01*
X13299Y-2953D02*
Y-3937D01*
Y-2953D02*
X13955Y-3937D01*
Y-2953D02*
Y-3937D01*
X14226Y-2953D02*
Y-3937D01*
Y-2953D02*
X14554D01*
X14695Y-3000D01*
X14789Y-3094D01*
X14836Y-3187D01*
X14882Y-3328D01*
Y-3562D01*
X14836Y-3703D01*
X14789Y-3796D01*
X14695Y-3890D01*
X14554Y-3937D01*
X14226D01*
D55*
X16772Y-3228D02*
Y-3937D01*
X16535Y-3228D02*
X17008D01*
X17295D02*
X17227Y-3262D01*
X17160Y-3330D01*
X17126Y-3397D01*
X17092Y-3498D01*
Y-3667D01*
X17126Y-3768D01*
X17160Y-3836D01*
X17227Y-3903D01*
X17295Y-3937D01*
X17429D01*
X17497Y-3903D01*
X17564Y-3836D01*
X17598Y-3768D01*
X17632Y-3667D01*
Y-3498D01*
X17598Y-3397D01*
X17564Y-3330D01*
X17497Y-3262D01*
X17429Y-3228D01*
X17295D01*
X17797Y-3600D02*
X18101D01*
X18202Y-3566D01*
X18236Y-3532D01*
X18270Y-3465D01*
Y-3363D01*
X18236Y-3296D01*
X18202Y-3262D01*
X18101Y-3228D01*
X17797D01*
Y-3937D01*
X19187Y-3228D02*
X19120Y-3262D01*
X19052Y-3330D01*
X19019Y-3397D01*
X18985Y-3498D01*
Y-3667D01*
X19019Y-3768D01*
X19052Y-3836D01*
X19120Y-3903D01*
X19187Y-3937D01*
X19322D01*
X19390Y-3903D01*
X19457Y-3836D01*
X19491Y-3768D01*
X19525Y-3667D01*
Y-3498D01*
X19491Y-3397D01*
X19457Y-3330D01*
X19390Y-3262D01*
X19322Y-3228D01*
X19187D01*
X19690D02*
X19960Y-3937D01*
X20230Y-3228D02*
X19960Y-3937D01*
X20759Y-3228D02*
X20321D01*
Y-3937D01*
X20759D01*
X20321Y-3566D02*
X20591D01*
X20878Y-3228D02*
Y-3937D01*
Y-3228D02*
X21181D01*
X21282Y-3262D01*
X21316Y-3296D01*
X21350Y-3363D01*
Y-3431D01*
X21316Y-3498D01*
X21282Y-3532D01*
X21181Y-3566D01*
X20878D01*
X21114D02*
X21350Y-3937D01*
X21508Y-3228D02*
Y-3937D01*
X21913D01*
X22531D02*
X22261Y-3228D01*
X21991Y-3937D01*
X22092Y-3701D02*
X22430D01*
X22696Y-3228D02*
X22966Y-3566D01*
Y-3937D01*
X23236Y-3228D02*
X22966Y-3566D01*
X24120Y-3094D02*
X24052Y-3161D01*
X23985Y-3262D01*
X23917Y-3397D01*
X23884Y-3566D01*
Y-3701D01*
X23917Y-3870D01*
X23985Y-4004D01*
X24052Y-4106D01*
X24120Y-4173D01*
X24052Y-3161D02*
X23985Y-3296D01*
X23951Y-3397D01*
X23917Y-3566D01*
Y-3701D01*
X23951Y-3870D01*
X23985Y-3971D01*
X24052Y-4106D01*
X24727Y-3330D02*
X24660Y-3262D01*
X24558Y-3228D01*
X24424D01*
X24322Y-3262D01*
X24255Y-3330D01*
Y-3397D01*
X24289Y-3465D01*
X24322Y-3498D01*
X24390Y-3532D01*
X24592Y-3600D01*
X24660Y-3633D01*
X24693Y-3667D01*
X24727Y-3735D01*
Y-3836D01*
X24660Y-3903D01*
X24558Y-3937D01*
X24424D01*
X24322Y-3903D01*
X24255Y-3836D01*
X24886Y-3228D02*
Y-3937D01*
X25034Y-3228D02*
Y-3937D01*
X25439D01*
X25517Y-3228D02*
Y-3937D01*
X25989Y-3228D02*
X25517Y-3701D01*
X25685Y-3532D02*
X25989Y-3937D01*
X26620Y-3330D02*
X26552Y-3262D01*
X26451Y-3228D01*
X26316D01*
X26215Y-3262D01*
X26148Y-3330D01*
Y-3397D01*
X26181Y-3465D01*
X26215Y-3498D01*
X26282Y-3532D01*
X26485Y-3600D01*
X26552Y-3633D01*
X26586Y-3667D01*
X26620Y-3735D01*
Y-3836D01*
X26552Y-3903D01*
X26451Y-3937D01*
X26316D01*
X26215Y-3903D01*
X26148Y-3836D01*
X27285Y-3397D02*
X27251Y-3330D01*
X27183Y-3262D01*
X27116Y-3228D01*
X26981D01*
X26913Y-3262D01*
X26846Y-3330D01*
X26812Y-3397D01*
X26778Y-3498D01*
Y-3667D01*
X26812Y-3768D01*
X26846Y-3836D01*
X26913Y-3903D01*
X26981Y-3937D01*
X27116D01*
X27183Y-3903D01*
X27251Y-3836D01*
X27285Y-3768D01*
X27484Y-3228D02*
Y-3937D01*
Y-3228D02*
X27787D01*
X27888Y-3262D01*
X27922Y-3296D01*
X27956Y-3363D01*
Y-3431D01*
X27922Y-3498D01*
X27888Y-3532D01*
X27787Y-3566D01*
X27484D01*
X27720D02*
X27956Y-3937D01*
X28553Y-3228D02*
X28115D01*
Y-3937D01*
X28553D01*
X28115Y-3566D02*
X28384D01*
X29110Y-3228D02*
X28671D01*
Y-3937D01*
X29110D01*
X28671Y-3566D02*
X28941D01*
X29228Y-3228D02*
Y-3937D01*
Y-3228D02*
X29700Y-3937D01*
Y-3228D02*
Y-3937D01*
X29896Y-3094D02*
X29963Y-3161D01*
X30031Y-3262D01*
X30098Y-3397D01*
X30132Y-3566D01*
Y-3701D01*
X30098Y-3870D01*
X30031Y-4004D01*
X29963Y-4106D01*
X29896Y-4173D01*
X29963Y-3161D02*
X30031Y-3296D01*
X30065Y-3397D01*
X30098Y-3566D01*
Y-3701D01*
X30065Y-3870D01*
X30031Y-3971D01*
X29963Y-4106D01*
X0Y-4803D02*
Y-5512D01*
Y-4803D02*
X236D01*
X337Y-4837D01*
X405Y-4905D01*
X439Y-4972D01*
X472Y-5073D01*
Y-5242D01*
X439Y-5343D01*
X405Y-5411D01*
X337Y-5478D01*
X236Y-5512D01*
X0D01*
X631Y-4803D02*
Y-5512D01*
Y-4803D02*
X935D01*
X1036Y-4837D01*
X1070Y-4871D01*
X1103Y-4938D01*
Y-5006D01*
X1070Y-5073D01*
X1036Y-5107D01*
X935Y-5141D01*
X631D01*
X867D02*
X1103Y-5512D01*
X1802D02*
X1532Y-4803D01*
X1262Y-5512D01*
X1363Y-5276D02*
X1700D01*
X1967Y-4803D02*
X2136Y-5512D01*
X2304Y-4803D02*
X2136Y-5512D01*
X2304Y-4803D02*
X2473Y-5512D01*
X2642Y-4803D02*
X2473Y-5512D01*
X2783Y-4803D02*
Y-5512D01*
X2932Y-4803D02*
Y-5512D01*
Y-4803D02*
X3404Y-5512D01*
Y-4803D02*
Y-5512D01*
X4106Y-4972D02*
X4072Y-4905D01*
X4005Y-4837D01*
X3937Y-4803D01*
X3802D01*
X3735Y-4837D01*
X3667Y-4905D01*
X3634Y-4972D01*
X3600Y-5073D01*
Y-5242D01*
X3634Y-5343D01*
X3667Y-5411D01*
X3735Y-5478D01*
X3802Y-5512D01*
X3937D01*
X4005Y-5478D01*
X4072Y-5411D01*
X4106Y-5343D01*
Y-5242D01*
X3937D02*
X4106D01*
X4825Y-4803D02*
Y-5512D01*
Y-4803D02*
X5297Y-5512D01*
Y-4803D02*
Y-5512D01*
X5493Y-5039D02*
Y-5512D01*
Y-5242D02*
X5526Y-5141D01*
X5594Y-5073D01*
X5661Y-5039D01*
X5763D01*
X5860D02*
X5827Y-5073D01*
X5860Y-5107D01*
X5894Y-5073D01*
X5860Y-5039D01*
Y-5444D02*
X5827Y-5478D01*
X5860Y-5512D01*
X5894Y-5478D01*
X5860Y-5444D01*
X6049Y-5208D02*
X6657D01*
X16535Y-6378D02*
Y-7087D01*
Y-6378D02*
X16805Y-7087D01*
X17075Y-6378D02*
X16805Y-7087D01*
X17075Y-6378D02*
Y-7087D01*
X17683Y-6614D02*
Y-7087D01*
Y-6715D02*
X17615Y-6648D01*
X17548Y-6614D01*
X17446D01*
X17379Y-6648D01*
X17311Y-6715D01*
X17278Y-6817D01*
Y-6884D01*
X17311Y-6985D01*
X17379Y-7053D01*
X17446Y-7087D01*
X17548D01*
X17615Y-7053D01*
X17683Y-6985D01*
X17871Y-6614D02*
Y-7087D01*
Y-6817D02*
X17905Y-6715D01*
X17973Y-6648D01*
X18040Y-6614D01*
X18141D01*
X18610Y-6715D02*
X18543Y-6648D01*
X18475Y-6614D01*
X18374D01*
X18307Y-6648D01*
X18239Y-6715D01*
X18205Y-6817D01*
Y-6884D01*
X18239Y-6985D01*
X18307Y-7053D01*
X18374Y-7087D01*
X18475D01*
X18543Y-7053D01*
X18610Y-6985D01*
X18762Y-6378D02*
Y-7087D01*
Y-6749D02*
X18863Y-6648D01*
X18931Y-6614D01*
X19032D01*
X19100Y-6648D01*
X19133Y-6749D01*
Y-7087D01*
X19909Y-6547D02*
Y-6513D01*
X19943Y-6446D01*
X19977Y-6412D01*
X20044Y-6378D01*
X20179D01*
X20247Y-6412D01*
X20280Y-6446D01*
X20314Y-6513D01*
Y-6581D01*
X20280Y-6648D01*
X20213Y-6749D01*
X19876Y-7087D01*
X20348D01*
X20709Y-6378D02*
X20608Y-6412D01*
X20540Y-6513D01*
X20506Y-6682D01*
Y-6783D01*
X20540Y-6952D01*
X20608Y-7053D01*
X20709Y-7087D01*
X20776D01*
X20878Y-7053D01*
X20945Y-6952D01*
X20979Y-6783D01*
Y-6682D01*
X20945Y-6513D01*
X20878Y-6412D01*
X20776Y-6378D01*
X20709D01*
X21340D02*
X21239Y-6412D01*
X21171Y-6513D01*
X21137Y-6682D01*
Y-6783D01*
X21171Y-6952D01*
X21239Y-7053D01*
X21340Y-7087D01*
X21407D01*
X21508Y-7053D01*
X21576Y-6952D01*
X21610Y-6783D01*
Y-6682D01*
X21576Y-6513D01*
X21508Y-6412D01*
X21407Y-6378D01*
X21340D01*
X22173Y-6479D02*
X22139Y-6412D01*
X22038Y-6378D01*
X21971D01*
X21869Y-6412D01*
X21802Y-6513D01*
X21768Y-6682D01*
Y-6850D01*
X21802Y-6985D01*
X21869Y-7053D01*
X21971Y-7087D01*
X22004D01*
X22106Y-7053D01*
X22173Y-6985D01*
X22207Y-6884D01*
Y-6850D01*
X22173Y-6749D01*
X22106Y-6682D01*
X22004Y-6648D01*
X21971D01*
X21869Y-6682D01*
X21802Y-6749D01*
X21768Y-6850D01*
X16569Y-4972D02*
Y-4938D01*
X16603Y-4871D01*
X16637Y-4837D01*
X16704Y-4803D01*
X16839D01*
X16907Y-4837D01*
X16940Y-4871D01*
X16974Y-4938D01*
Y-5006D01*
X16940Y-5073D01*
X16873Y-5174D01*
X16535Y-5512D01*
X17008D01*
X17369Y-4803D02*
X17268Y-4837D01*
X17200Y-4938D01*
X17166Y-5107D01*
Y-5208D01*
X17200Y-5377D01*
X17268Y-5478D01*
X17369Y-5512D01*
X17436D01*
X17537Y-5478D01*
X17605Y-5377D01*
X17639Y-5208D01*
Y-5107D01*
X17605Y-4938D01*
X17537Y-4837D01*
X17436Y-4803D01*
X17369D01*
X18000D02*
X17898Y-4837D01*
X17831Y-4938D01*
X17797Y-5107D01*
Y-5208D01*
X17831Y-5377D01*
X17898Y-5478D01*
X18000Y-5512D01*
X18067D01*
X18168Y-5478D01*
X18236Y-5377D01*
X18270Y-5208D01*
Y-5107D01*
X18236Y-4938D01*
X18168Y-4837D01*
X18067Y-4803D01*
X18000D01*
X18833Y-4905D02*
X18799Y-4837D01*
X18698Y-4803D01*
X18631D01*
X18529Y-4837D01*
X18462Y-4938D01*
X18428Y-5107D01*
Y-5276D01*
X18462Y-5411D01*
X18529Y-5478D01*
X18631Y-5512D01*
X18664D01*
X18766Y-5478D01*
X18833Y-5411D01*
X18867Y-5309D01*
Y-5276D01*
X18833Y-5174D01*
X18766Y-5107D01*
X18664Y-5073D01*
X18631D01*
X18529Y-5107D01*
X18462Y-5174D01*
X18428Y-5276D01*
X19224Y-4803D02*
X19123Y-4837D01*
X19056Y-4938D01*
X19022Y-5107D01*
Y-5208D01*
X19056Y-5377D01*
X19123Y-5478D01*
X19224Y-5512D01*
X19292D01*
X19393Y-5478D01*
X19461Y-5377D01*
X19494Y-5208D01*
Y-5107D01*
X19461Y-4938D01*
X19393Y-4837D01*
X19292Y-4803D01*
X19224D01*
X19720D02*
X20091D01*
X19889Y-5073D01*
X19990D01*
X20058Y-5107D01*
X20091Y-5141D01*
X20125Y-5242D01*
Y-5309D01*
X20091Y-5411D01*
X20024Y-5478D01*
X19923Y-5512D01*
X19822D01*
X19720Y-5478D01*
X19687Y-5444D01*
X19653Y-5377D01*
X20284Y-4938D02*
X20351Y-4905D01*
X20452Y-4803D01*
Y-5512D01*
X21006Y-4803D02*
X20905Y-4837D01*
X20837Y-4938D01*
X20803Y-5107D01*
Y-5208D01*
X20837Y-5377D01*
X20905Y-5478D01*
X21006Y-5512D01*
X21073D01*
X21174Y-5478D01*
X21242Y-5377D01*
X21276Y-5208D01*
Y-5107D01*
X21242Y-4938D01*
X21174Y-4837D01*
X21073Y-4803D01*
X21006D01*
X21434Y-5208D02*
X22042D01*
X22453Y-4803D02*
X22352Y-4837D01*
X22284Y-4938D01*
X22251Y-5107D01*
Y-5208D01*
X22284Y-5377D01*
X22352Y-5478D01*
X22453Y-5512D01*
X22521D01*
X22622Y-5478D01*
X22689Y-5377D01*
X22723Y-5208D01*
Y-5107D01*
X22689Y-4938D01*
X22622Y-4837D01*
X22521Y-4803D01*
X22453D01*
X23084D02*
X22983Y-4837D01*
X22915Y-4938D01*
X22882Y-5107D01*
Y-5208D01*
X22915Y-5377D01*
X22983Y-5478D01*
X23084Y-5512D01*
X23152D01*
X23253Y-5478D01*
X23320Y-5377D01*
X23354Y-5208D01*
Y-5107D01*
X23320Y-4938D01*
X23253Y-4837D01*
X23152Y-4803D01*
X23084D01*
X23513Y-4938D02*
X23580Y-4905D01*
X23681Y-4803D01*
Y-5512D01*
X0Y-6378D02*
Y-7087D01*
Y-6378D02*
X236D01*
X337Y-6412D01*
X405Y-6479D01*
X439Y-6547D01*
X472Y-6648D01*
Y-6817D01*
X439Y-6918D01*
X405Y-6985D01*
X337Y-7053D01*
X236Y-7087D01*
X0D01*
X1171D02*
X901Y-6378D01*
X631Y-7087D01*
X732Y-6850D02*
X1070D01*
X1572Y-6378D02*
Y-7087D01*
X1336Y-6378D02*
X1808D01*
X2331D02*
X1893D01*
Y-7087D01*
X2331D01*
X1893Y-6715D02*
X2163D01*
X2483Y-6614D02*
X2449Y-6648D01*
X2483Y-6682D01*
X2517Y-6648D01*
X2483Y-6614D01*
Y-7019D02*
X2449Y-7053D01*
X2483Y-7087D01*
X2517Y-7053D01*
X2483Y-7019D01*
X2672Y-6783D02*
X3279D01*
D56*
X5370Y18844D02*
X5351Y18940D01*
X5297Y19021D01*
X5216Y19075D01*
X5120Y19094D01*
X5025Y19075D01*
X4944Y19021D01*
X4890Y18940D01*
X4870Y18844D01*
X28481Y5038D02*
X28500Y4943D01*
X28554Y4861D01*
X28635Y4807D01*
X28731Y4788D01*
X28826Y4807D01*
X28907Y4861D01*
X28962Y4943D01*
X28981Y5038D01*
X32016Y14262D02*
X31920Y14243D01*
X31839Y14189D01*
X31785Y14108D01*
X31766Y14012D01*
X31785Y13917D01*
X31839Y13836D01*
X31920Y13781D01*
X32016Y13762D01*
X10664Y22649D02*
X13664D01*
Y27149D01*
X10664D02*
X13664D01*
X10664Y22649D02*
Y27149D01*
X14207Y22688D02*
Y27188D01*
X17207D01*
Y22688D02*
Y27188D01*
X14207Y22688D02*
X17207D01*
X32362Y20350D02*
Y23106D01*
X29606Y20350D02*
Y23106D01*
X31378D02*
X32362D01*
X31378Y20350D02*
X32362D01*
X29606D02*
X30591D01*
X29606Y23106D02*
X30591D01*
X5370Y18844D02*
X5620D01*
X4620D02*
X4870D01*
X4620D02*
Y20844D01*
X5620D01*
Y18844D02*
Y20844D01*
X19114Y34843D02*
Y35039D01*
X18228Y35630D02*
X19114D01*
X18228Y35236D02*
Y35630D01*
Y34252D02*
Y34646D01*
Y34252D02*
X19114D01*
X9862Y20413D02*
X10217D01*
X11260D02*
X11634D01*
X11024Y19468D02*
X11634D01*
Y20413D01*
X9862Y19468D02*
X10472D01*
X9862D02*
Y20413D01*
X12933Y17224D02*
Y17579D01*
Y18622D02*
Y18996D01*
X13878Y18386D02*
Y18996D01*
X12933D02*
X13878D01*
Y17224D02*
Y17835D01*
X12933Y17224D02*
X13878D01*
X15502Y28526D02*
X15856D01*
X14084D02*
X14458D01*
X14084Y29471D02*
X14694D01*
X14084Y28526D02*
Y29471D01*
X15246D02*
X15856D01*
Y28526D02*
Y29471D01*
X28888Y32195D02*
X29774D01*
X28888D02*
Y32589D01*
Y33179D02*
Y33573D01*
X29774D01*
Y32785D02*
Y32982D01*
X28231Y5038D02*
X28481D01*
X28981D02*
X29231D01*
Y3038D02*
Y5038D01*
X28231Y3038D02*
X29231D01*
X28231D02*
Y5038D01*
X32016Y14262D02*
Y14512D01*
Y13512D02*
Y13762D01*
X30016Y13512D02*
X32016D01*
X30016D02*
Y14512D01*
X32016D01*
X11732Y13897D02*
Y13110D01*
Y13373D01*
X12257Y13897D01*
X11863Y13504D01*
X12257Y13110D01*
X12519D02*
X12782D01*
X12651D01*
Y13635D01*
X12519D01*
X13175D02*
Y13241D01*
X13307Y13110D01*
X13438Y13241D01*
X13569Y13110D01*
X13700Y13241D01*
Y13635D01*
X13963Y13110D02*
X14225D01*
X14094D01*
Y13635D01*
X13963D01*
X15143Y13766D02*
X15012Y13897D01*
X14750D01*
X14618Y13766D01*
Y13635D01*
X14750Y13504D01*
X15012D01*
X15143Y13373D01*
Y13241D01*
X15012Y13110D01*
X14750D01*
X14618Y13241D01*
X15406Y13110D02*
Y13635D01*
X15668Y13897D01*
X15930Y13635D01*
Y13110D01*
Y13504D01*
X15406D01*
X16193Y13897D02*
X16718D01*
X16455D01*
Y13110D01*
X11457Y12726D02*
Y12226D01*
X11557Y12126D01*
X11757D01*
X11857Y12226D01*
Y12726D01*
X12056D02*
Y12126D01*
Y12426D01*
X12456D01*
Y12726D01*
Y12126D01*
X13056Y12726D02*
X12656D01*
Y12426D01*
X12856D01*
X12656D01*
Y12126D01*
X14256Y12726D02*
X13856D01*
Y12426D01*
X14056D01*
X13856D01*
Y12126D01*
X14456D02*
Y12726D01*
X14656Y12526D01*
X14856Y12726D01*
Y12126D01*
X15655D02*
Y12726D01*
X15955D01*
X16055Y12626D01*
Y12426D01*
X15955Y12326D01*
X15655D01*
X15855D02*
X16055Y12126D01*
X16255Y12726D02*
X16655Y12126D01*
Y12726D02*
X16255Y12126D01*
D85*
X21626Y21285D02*
X21722Y21304D01*
X21803Y21359D01*
X21857Y21440D01*
X21876Y21535D01*
X21857Y21631D01*
X21803Y21712D01*
X21722Y21766D01*
X21626Y21785D01*
X4289Y7150D02*
X4211Y7104D01*
X4138Y7048D01*
X4074Y6984D01*
X4018Y6911D01*
X3972Y6833D01*
Y6199D02*
X4018Y6120D01*
X4074Y6048D01*
X4138Y5983D01*
X4211Y5928D01*
X4289Y5882D01*
X4923D02*
X5002Y5928D01*
X5074Y5983D01*
X5139Y6048D01*
X5194Y6120D01*
X5240Y6199D01*
Y6833D02*
X5194Y6911D01*
X5139Y6984D01*
X5074Y7048D01*
X5002Y7104D01*
X4923Y7150D01*
X17616Y25012D02*
Y27512D01*
Y25012D02*
X21816D01*
Y27512D01*
X17616D02*
X21816D01*
X21626Y19510D02*
Y21285D01*
Y19510D02*
X21880D01*
X27030D02*
X27283D01*
Y23561D01*
X27030D02*
X27283D01*
X21626D02*
X21880D01*
X21626Y21785D02*
Y23561D01*
X11502Y7677D02*
Y10748D01*
Y7677D02*
X12250D01*
X12998D02*
Y10748D01*
X12250Y7677D02*
X12998D01*
X11502Y10748D02*
X12250D01*
X12998D01*
X11541Y10591D02*
X12959D01*
X11541Y10669D02*
X12959D01*
X8386Y79D02*
Y197D01*
X5787Y79D02*
Y197D01*
X5512Y3661D02*
X8661D01*
X5512Y197D02*
Y3661D01*
Y197D02*
X8661D01*
Y197D02*
Y3661D01*
X2283Y30669D02*
Y35197D01*
Y30669D02*
X6063D01*
Y35197D01*
X2283D02*
X6063D01*
Y34646D02*
X6417Y34921D01*
Y34370D02*
Y34921D01*
X6063Y34646D02*
X6417Y34370D01*
X6142Y34646D02*
X6378Y34843D01*
Y34449D02*
Y34843D01*
X6181Y34606D02*
X6378Y34449D01*
X6181Y34606D02*
X6339Y34764D01*
Y34528D02*
Y34764D01*
X6260Y34606D02*
X6339Y34528D01*
X6260Y34606D02*
X6299Y34646D01*
X28031Y33868D02*
Y37136D01*
X27323D02*
X28031D01*
X25197D02*
X25906D01*
X25197Y33868D02*
Y37136D01*
X28110Y33789D02*
Y33868D01*
X25118D02*
X28110D01*
X25118Y33789D02*
Y33868D01*
X27352Y33553D02*
Y33789D01*
X25876Y33553D02*
Y33789D01*
X25118D02*
X28110D01*
X13346Y35138D02*
X13386Y35177D01*
X13346Y35138D02*
X13425Y35059D01*
Y35295D01*
X13268Y35138D02*
X13425Y35295D01*
X13268Y35138D02*
X13465Y34980D01*
Y35374D01*
X13228Y35177D02*
X13465Y35374D01*
X13150Y35177D02*
X13504Y34902D01*
Y35453D01*
X13150Y35177D02*
X13504Y35453D01*
X9370Y35728D02*
X13150D01*
Y31201D02*
Y35728D01*
X9370Y31201D02*
X13150D01*
X9370D02*
Y35728D01*
X6929Y8937D02*
Y13465D01*
X3150D02*
X6929D01*
X3150Y8937D02*
Y13465D01*
Y8937D02*
X6929D01*
X2795Y9213D02*
X3150Y9488D01*
X2795Y9213D02*
Y9764D01*
X3150Y9488D01*
X2835Y9291D02*
X3071Y9488D01*
X2835Y9291D02*
Y9685D01*
X3031Y9528D01*
X2874Y9370D02*
X3031Y9528D01*
X2874Y9370D02*
Y9606D01*
X2953Y9528D01*
X2913Y9488D02*
X2953Y9528D01*
X21850Y12805D02*
Y15797D01*
Y13563D02*
X22087D01*
X21850Y15039D02*
X22087D01*
X21772Y12805D02*
X21850D01*
X21772D02*
Y15797D01*
X21850D01*
X18504Y12884D02*
X21772D01*
X18504D02*
Y13593D01*
Y15010D02*
Y15718D01*
X21772D01*
X27200Y25243D02*
X31400D01*
X27200D02*
Y27743D01*
X31400D01*
Y25243D02*
Y27743D01*
X17864Y24714D02*
X17470D01*
Y24419D01*
X17667D01*
X17470D01*
Y24124D01*
X18061Y24714D02*
Y24124D01*
X18454D01*
X18651Y24616D02*
X18750Y24714D01*
X18946D01*
X19045Y24616D01*
Y24518D01*
X18946Y24419D01*
X19045Y24321D01*
Y24222D01*
X18946Y24124D01*
X18750D01*
X18651Y24222D01*
Y24321D01*
X18750Y24419D01*
X18651Y24518D01*
Y24616D01*
X18750Y24419D02*
X18946D01*
X32559Y21260D02*
X33149D01*
Y21653D01*
X32559Y22244D02*
Y21850D01*
X32854D01*
X32756Y22047D01*
Y22145D01*
X32854Y22244D01*
X33051D01*
X33149Y22145D01*
Y21949D01*
X33051Y21850D01*
X24449Y17992D02*
X24646D01*
X24547D01*
Y17402D01*
X24449D01*
X24646D01*
X25334Y17894D02*
X25236Y17992D01*
X25039D01*
X24941Y17894D01*
Y17500D01*
X25039Y17402D01*
X25236D01*
X25334Y17500D01*
X25531Y17992D02*
X25925D01*
Y17894D01*
X25531Y17500D01*
Y17402D01*
X6772Y6260D02*
X6968D01*
X6870D01*
Y5669D01*
X6772D01*
X6968D01*
X7657Y6161D02*
X7559Y6260D01*
X7362D01*
X7264Y6161D01*
Y5768D01*
X7362Y5669D01*
X7559D01*
X7657Y5768D01*
X7854Y5669D02*
X8051D01*
X7952D01*
Y6260D01*
X7854Y6161D01*
X3909Y5335D02*
X3886Y5380D01*
X3819Y5447D01*
X4291D01*
X10591Y8622D02*
X11181D01*
Y8917D01*
X11083Y9016D01*
X10689D01*
X10591Y8917D01*
Y8622D01*
X11181Y9212D02*
Y9409D01*
Y9311D01*
X10591D01*
X10689Y9212D01*
X9036Y1653D02*
X8937Y1555D01*
Y1358D01*
X9036Y1260D01*
X9429D01*
X9528Y1358D01*
Y1555D01*
X9429Y1653D01*
X9528Y1850D02*
X8937D01*
X9528Y2244D01*
X8937D01*
X9528Y2441D02*
Y2637D01*
Y2539D01*
X8937D01*
X9036Y2441D01*
X10908Y5794D02*
X10810Y5695D01*
Y5498D01*
X10908Y5400D01*
X11302D01*
X11400Y5498D01*
Y5695D01*
X11302Y5794D01*
X11400Y5990D02*
X10810D01*
X11400Y6384D01*
X10810D01*
X11400Y6974D02*
Y6581D01*
X11006Y6974D01*
X10908D01*
X10810Y6876D01*
Y6679D01*
X10908Y6581D01*
X22244Y6197D02*
Y5934D01*
X22441D01*
Y6065D01*
Y5934D01*
X22637D01*
X22244Y6328D02*
X22637D01*
Y6590D01*
X22244Y6721D02*
Y6984D01*
X22309D01*
X22572Y6721D01*
X22637D01*
X8740Y5354D02*
X9134D01*
X8937D01*
Y4764D01*
X9331D02*
Y5354D01*
X9626D01*
X9724Y5256D01*
Y5059D01*
X9626Y4961D01*
X9331D01*
X10314Y5354D02*
X9921D01*
Y5059D01*
X10118Y5157D01*
X10216D01*
X10314Y5059D01*
Y4862D01*
X10216Y4764D01*
X10019D01*
X9921Y4862D01*
X8957Y17008D02*
X8858Y16909D01*
Y16713D01*
X8957Y16614D01*
X9350D01*
X9449Y16713D01*
Y16909D01*
X9350Y17008D01*
X9449Y17205D02*
Y17401D01*
Y17303D01*
X8858D01*
X8957Y17205D01*
Y17696D02*
X8858Y17795D01*
Y17992D01*
X8957Y18090D01*
X9055D01*
X9154Y17992D01*
X9252Y18090D01*
X9350D01*
X9449Y17992D01*
Y17795D01*
X9350Y17696D01*
X9252D01*
X9154Y17795D01*
X9055Y17696D01*
X8957D01*
X9154Y17795D02*
Y17992D01*
X13858Y32087D02*
X13780Y32008D01*
Y31850D01*
X13858Y31772D01*
X14173D01*
X14252Y31850D01*
Y32008D01*
X14173Y32087D01*
X13780Y32559D02*
Y32244D01*
X14016D01*
X13937Y32401D01*
Y32480D01*
X14016Y32559D01*
X14173D01*
X14252Y32480D01*
Y32323D01*
X14173Y32244D01*
X13858Y32716D02*
X13780Y32795D01*
Y32952D01*
X13858Y33031D01*
X13937D01*
X14016Y32952D01*
X14095Y33031D01*
X14173D01*
X14252Y32952D01*
Y32795D01*
X14173Y32716D01*
X14095D01*
X14016Y32795D01*
X13937Y32716D01*
X13858D01*
X14016Y32795D02*
Y32952D01*
X12933Y36378D02*
X12835Y36279D01*
Y36083D01*
X12933Y35984D01*
X13327D01*
X13425Y36083D01*
Y36279D01*
X13327Y36378D01*
X12835Y36968D02*
X12933Y36771D01*
X13130Y36575D01*
X13327D01*
X13425Y36673D01*
Y36870D01*
X13327Y36968D01*
X13228D01*
X13130Y36870D01*
Y36575D01*
X12933Y37165D02*
X12835Y37263D01*
Y37460D01*
X12933Y37559D01*
X13327D01*
X13425Y37460D01*
Y37263D01*
X13327Y37165D01*
X12933D01*
X15157Y22421D02*
X14764D01*
Y22126D01*
X14961D01*
X14764D01*
Y21831D01*
X15354Y22421D02*
Y21831D01*
X15748D01*
X15944D02*
X16141D01*
X16043D01*
Y22421D01*
X15944Y22323D01*
X16436Y21831D02*
X16633D01*
X16535D01*
Y22421D01*
X16436Y22323D01*
X3805Y30306D02*
X3412D01*
Y30011D01*
X3609D01*
X3412D01*
Y29716D01*
X4002Y30306D02*
Y29716D01*
X4396D01*
X4593D02*
X4789D01*
X4691D01*
Y30306D01*
X4593Y30208D01*
X5084D02*
X5183Y30306D01*
X5380D01*
X5478Y30208D01*
Y30109D01*
X5380Y30011D01*
X5281D01*
X5380D01*
X5478Y29912D01*
Y29814D01*
X5380Y29716D01*
X5183D01*
X5084Y29814D01*
X2047Y22047D02*
X2244D01*
X2146D01*
Y21457D01*
X2047D01*
X2244D01*
X2933Y21949D02*
X2834Y22047D01*
X2638D01*
X2539Y21949D01*
Y21555D01*
X2638Y21457D01*
X2834D01*
X2933Y21555D01*
X3523Y21457D02*
X3129D01*
X3523Y21850D01*
Y21949D01*
X3425Y22047D01*
X3228D01*
X3129Y21949D01*
X25984Y31063D02*
Y30472D01*
X26378D01*
X26575D02*
X26771D01*
X26673D01*
Y31063D01*
X26575Y30964D01*
X27067D02*
X27165Y31063D01*
X27362D01*
X27460Y30964D01*
Y30571D01*
X27362Y30472D01*
X27165D01*
X27067Y30571D01*
Y30964D01*
X7471Y34332D02*
X6881D01*
Y34627D01*
X6979Y34725D01*
X7176D01*
X7274Y34627D01*
Y34332D01*
Y34528D02*
X7471Y34725D01*
X6979Y34922D02*
X6881Y35020D01*
Y35217D01*
X6979Y35315D01*
X7077D01*
X7176Y35217D01*
Y35119D01*
Y35217D01*
X7274Y35315D01*
X7372D01*
X7471Y35217D01*
Y35020D01*
X7372Y34922D01*
X6979Y35512D02*
X6881Y35611D01*
Y35807D01*
X6979Y35906D01*
X7372D01*
X7471Y35807D01*
Y35611D01*
X7372Y35512D01*
X6979D01*
X17874Y35827D02*
Y36220D01*
Y36024D01*
X18465D01*
Y36417D02*
X17874D01*
Y36712D01*
X17973Y36811D01*
X18169D01*
X18268Y36712D01*
Y36417D01*
Y36614D02*
X18465Y36811D01*
Y37401D02*
Y37007D01*
X18071Y37401D01*
X17973D01*
X17874Y37303D01*
Y37106D01*
X17973Y37007D01*
X23819Y37106D02*
X24212Y36516D01*
Y37106D02*
X23819Y36516D01*
X24803D02*
X24409D01*
X24803Y36909D01*
Y37008D01*
X24704Y37106D01*
X24508D01*
X24409Y37008D01*
X9055Y21653D02*
X9213D01*
X9134D01*
Y21181D01*
X9055D01*
X9213D01*
X9764Y21575D02*
X9685Y21653D01*
X9527D01*
X9449Y21575D01*
Y21260D01*
X9527Y21181D01*
X9685D01*
X9764Y21260D01*
X9921Y21575D02*
X10000Y21653D01*
X10157D01*
X10236Y21575D01*
Y21496D01*
X10157Y21417D01*
X10078D01*
X10157D01*
X10236Y21339D01*
Y21260D01*
X10157Y21181D01*
X10000D01*
X9921Y21260D01*
X27724Y1523D02*
X27625Y1621D01*
X27428D01*
X27330Y1523D01*
Y1129D01*
X27428Y1031D01*
X27625D01*
X27724Y1129D01*
X28216Y1031D02*
Y1621D01*
X27920Y1326D01*
X28314D01*
X28806Y1031D02*
Y1621D01*
X28511Y1326D01*
X28904D01*
X29719Y7748D02*
X29128D01*
Y8043D01*
X29227Y8141D01*
X29424D01*
X29522Y8043D01*
Y7748D01*
Y7944D02*
X29719Y8141D01*
Y8338D02*
Y8535D01*
Y8436D01*
X29128D01*
X29227Y8338D01*
X29719Y9125D02*
X29128D01*
X29424Y8830D01*
Y9223D01*
X31932Y8088D02*
X31834Y7989D01*
Y7793D01*
X31932Y7694D01*
X32326D01*
X32424Y7793D01*
Y7989D01*
X32326Y8088D01*
X31932Y8285D02*
X31834Y8383D01*
Y8580D01*
X31932Y8678D01*
X32030D01*
X32129Y8580D01*
Y8481D01*
Y8580D01*
X32227Y8678D01*
X32326D01*
X32424Y8580D01*
Y8383D01*
X32326Y8285D01*
Y8875D02*
X32424Y8973D01*
Y9170D01*
X32326Y9268D01*
X31932D01*
X31834Y9170D01*
Y8973D01*
X31932Y8875D01*
X32030D01*
X32129Y8973D01*
Y9268D01*
X22283Y8268D02*
Y8858D01*
X22579D01*
X22677Y8760D01*
Y8563D01*
X22579Y8464D01*
X22283D01*
X22480D02*
X22677Y8268D01*
X23267D02*
X22874D01*
X23267Y8661D01*
Y8760D01*
X23169Y8858D01*
X22972D01*
X22874Y8760D01*
X23464D02*
X23563Y8858D01*
X23759D01*
X23858Y8760D01*
Y8366D01*
X23759Y8268D01*
X23563D01*
X23464Y8366D01*
Y8760D01*
X28387Y8071D02*
X28288Y7972D01*
Y7776D01*
X28387Y7677D01*
X28780D01*
X28879Y7776D01*
Y7972D01*
X28780Y8071D01*
X28879Y8563D02*
X28288D01*
X28584Y8268D01*
Y8661D01*
X28387Y8858D02*
X28288Y8956D01*
Y9153D01*
X28387Y9251D01*
X28780D01*
X28879Y9153D01*
Y8956D01*
X28780Y8858D01*
X28387D01*
X10590Y17027D02*
X10492Y17126D01*
X10295D01*
X10197Y17027D01*
Y16634D01*
X10295Y16535D01*
X10492D01*
X10590Y16634D01*
X10787Y16535D02*
X10984D01*
X10886D01*
Y17126D01*
X10787Y17027D01*
X11279Y17126D02*
X11673D01*
Y17027D01*
X11279Y16634D01*
Y16535D01*
X15276Y17480D02*
Y17677D01*
Y17579D01*
X15866D01*
Y17480D01*
Y17677D01*
X15374Y18366D02*
X15276Y18267D01*
Y18071D01*
X15374Y17972D01*
X15768D01*
X15866Y18071D01*
Y18267D01*
X15768Y18366D01*
X15866Y18858D02*
X15276D01*
X15571Y18563D01*
Y18956D01*
X13976Y31043D02*
X14173D01*
X14075D01*
Y30453D01*
X13976D01*
X14173D01*
X14862Y30945D02*
X14764Y31043D01*
X14567D01*
X14468Y30945D01*
Y30551D01*
X14567Y30453D01*
X14764D01*
X14862Y30551D01*
X15059Y30453D02*
X15255D01*
X15157D01*
Y31043D01*
X15059Y30945D01*
X15551D02*
X15649Y31043D01*
X15846D01*
X15944Y30945D01*
Y30551D01*
X15846Y30453D01*
X15649D01*
X15551Y30551D01*
Y30945D01*
X30295Y32234D02*
Y32628D01*
Y32431D01*
X30886D01*
Y32825D02*
X30295D01*
Y33120D01*
X30394Y33218D01*
X30591D01*
X30689Y33120D01*
Y32825D01*
Y33021D02*
X30886Y33218D01*
Y33415D02*
Y33612D01*
Y33513D01*
X30295D01*
X30394Y33415D01*
X7480Y32382D02*
X6890D01*
Y32677D01*
X6988Y32775D01*
X7185D01*
X7284Y32677D01*
Y32382D01*
Y32579D02*
X7480Y32775D01*
Y33366D02*
Y32972D01*
X7087Y33366D01*
X6988D01*
X6890Y33267D01*
Y33071D01*
X6988Y32972D01*
X7382Y33563D02*
X7480Y33661D01*
Y33858D01*
X7382Y33956D01*
X6988D01*
X6890Y33858D01*
Y33661D01*
X6988Y33563D01*
X7087D01*
X7185Y33661D01*
Y33956D01*
X7480Y30413D02*
X6890D01*
Y30709D01*
X6988Y30807D01*
X7185D01*
X7284Y30709D01*
Y30413D01*
Y30610D02*
X7480Y30807D01*
Y31397D02*
Y31004D01*
X7087Y31397D01*
X6988D01*
X6890Y31299D01*
Y31102D01*
X6988Y31004D01*
Y31594D02*
X6890Y31693D01*
Y31889D01*
X6988Y31988D01*
X7087D01*
X7185Y31889D01*
X7284Y31988D01*
X7382D01*
X7480Y31889D01*
Y31693D01*
X7382Y31594D01*
X7284D01*
X7185Y31693D01*
X7087Y31594D01*
X6988D01*
X7185Y31693D02*
Y31889D01*
X29134Y36378D02*
X28544D01*
Y36673D01*
X28642Y36772D01*
X28839D01*
X28937Y36673D01*
Y36378D01*
Y36575D02*
X29134Y36772D01*
Y37362D02*
Y36968D01*
X28740Y37362D01*
X28642D01*
X28544Y37263D01*
Y37067D01*
X28642Y36968D01*
X28544Y37559D02*
Y37952D01*
X28642D01*
X29035Y37559D01*
X29134D01*
X31890Y30157D02*
X31299D01*
Y30453D01*
X31398Y30551D01*
X31595D01*
X31693Y30453D01*
Y30157D01*
Y30354D02*
X31890Y30551D01*
Y31141D02*
Y30748D01*
X31496Y31141D01*
X31398D01*
X31299Y31043D01*
Y30846D01*
X31398Y30748D01*
X31299Y31732D02*
X31398Y31535D01*
X31595Y31338D01*
X31791D01*
X31890Y31437D01*
Y31633D01*
X31791Y31732D01*
X31693D01*
X31595Y31633D01*
Y31338D01*
X18189Y30354D02*
Y30827D01*
X18425D01*
X18504Y30748D01*
Y30590D01*
X18425Y30512D01*
X18189D01*
X18346D02*
X18504Y30354D01*
X18976D02*
X18661D01*
X18976Y30669D01*
Y30748D01*
X18897Y30827D01*
X18740D01*
X18661Y30748D01*
X19448Y30827D02*
X19134D01*
Y30590D01*
X19291Y30669D01*
X19370D01*
X19448Y30590D01*
Y30433D01*
X19370Y30354D01*
X19212D01*
X19134Y30433D01*
X17913Y32087D02*
Y32677D01*
X18209D01*
X18307Y32579D01*
Y32382D01*
X18209Y32283D01*
X17913D01*
X18110D02*
X18307Y32087D01*
X18897D02*
X18504D01*
X18897Y32480D01*
Y32579D01*
X18799Y32677D01*
X18602D01*
X18504Y32579D01*
X19389Y32087D02*
Y32677D01*
X19094Y32382D01*
X19488D01*
X17992Y28740D02*
Y29331D01*
X18287D01*
X18386Y29232D01*
Y29035D01*
X18287Y28937D01*
X17992D01*
X18189D02*
X18386Y28740D01*
X18976D02*
X18582D01*
X18976Y29134D01*
Y29232D01*
X18878Y29331D01*
X18681D01*
X18582Y29232D01*
X19173D02*
X19271Y29331D01*
X19468D01*
X19566Y29232D01*
Y29134D01*
X19468Y29035D01*
X19370D01*
X19468D01*
X19566Y28937D01*
Y28839D01*
X19468Y28740D01*
X19271D01*
X19173Y28839D01*
X23386Y27953D02*
X22795D01*
Y28248D01*
X22894Y28346D01*
X23091D01*
X23189Y28248D01*
Y27953D01*
Y28150D02*
X23386Y28346D01*
Y28937D02*
Y28543D01*
X22992Y28937D01*
X22894D01*
X22795Y28838D01*
Y28642D01*
X22894Y28543D01*
X23386Y29527D02*
Y29133D01*
X22992Y29527D01*
X22894D01*
X22795Y29429D01*
Y29232D01*
X22894Y29133D01*
X29134Y28583D02*
X28544D01*
Y28878D01*
X28642Y28976D01*
X28839D01*
X28937Y28878D01*
Y28583D01*
Y28779D02*
X29134Y28976D01*
Y29567D02*
Y29173D01*
X28740Y29567D01*
X28642D01*
X28544Y29468D01*
Y29271D01*
X28642Y29173D01*
X29134Y29763D02*
Y29960D01*
Y29862D01*
X28544D01*
X28642Y29763D01*
X3110Y26732D02*
X2520D01*
Y27027D01*
X2618Y27126D01*
X2815D01*
X2913Y27027D01*
Y26732D01*
Y26929D02*
X3110Y27126D01*
X2618Y27323D02*
X2520Y27421D01*
Y27618D01*
X2618Y27716D01*
X2717D01*
X2815Y27618D01*
Y27519D01*
Y27618D01*
X2913Y27716D01*
X3012D01*
X3110Y27618D01*
Y27421D01*
X3012Y27323D01*
X4606Y16063D02*
Y16653D01*
X4901D01*
X5000Y16555D01*
Y16358D01*
X4901Y16260D01*
X4606D01*
X4803D02*
X5000Y16063D01*
X5590D02*
X5197D01*
X5590Y16457D01*
Y16555D01*
X5492Y16653D01*
X5295D01*
X5197Y16555D01*
X5630Y7362D02*
Y7953D01*
X5925D01*
X6023Y7854D01*
Y7657D01*
X5925Y7559D01*
X5630D01*
X5827D02*
X6023Y7362D01*
X6220D02*
X6417D01*
X6319D01*
Y7953D01*
X6220Y7854D01*
X16339Y36516D02*
Y35925D01*
X16732D01*
X16929Y36024D02*
X17027Y35925D01*
X17224D01*
X17323Y36024D01*
Y36417D01*
X17224Y36516D01*
X17027D01*
X16929Y36417D01*
Y36319D01*
X17027Y36220D01*
X17323D01*
X25197Y29409D02*
X25787D01*
Y29803D01*
X25295Y30000D02*
X25197Y30098D01*
Y30295D01*
X25295Y30393D01*
X25394D01*
X25492Y30295D01*
X25591Y30393D01*
X25689D01*
X25787Y30295D01*
Y30098D01*
X25689Y30000D01*
X25591D01*
X25492Y30098D01*
X25394Y30000D01*
X25295D01*
X25492Y30098D02*
Y30295D01*
X5945Y26732D02*
X6535D01*
Y27126D01*
Y27618D02*
X5945D01*
X6240Y27323D01*
Y27716D01*
X4764Y26732D02*
X5354D01*
Y27126D01*
X4862Y27323D02*
X4764Y27421D01*
Y27618D01*
X4862Y27716D01*
X4961D01*
X5059Y27618D01*
Y27519D01*
Y27618D01*
X5158Y27716D01*
X5256D01*
X5354Y27618D01*
Y27421D01*
X5256Y27323D01*
X2008Y17165D02*
Y16575D01*
X2401D01*
X2992D02*
X2598D01*
X2992Y16968D01*
Y17067D01*
X2893Y17165D01*
X2697D01*
X2598Y17067D01*
X6890Y14468D02*
X7480D01*
Y14862D01*
Y15059D02*
Y15256D01*
Y15157D01*
X6890D01*
X6988Y15059D01*
X10630Y31004D02*
X10236D01*
Y30709D01*
X10433D01*
X10236D01*
Y30413D01*
X10827Y31004D02*
Y30413D01*
X11220D01*
X11417D02*
X11614D01*
X11515D01*
Y31004D01*
X11417Y30905D01*
X12302Y30413D02*
X11909D01*
X12302Y30807D01*
Y30905D01*
X12204Y31004D01*
X12007D01*
X11909Y30905D01*
X9646Y25551D02*
Y25157D01*
X9941D01*
Y25354D01*
Y25157D01*
X10236D01*
X9646Y25748D02*
X10236D01*
Y26141D01*
Y26338D02*
Y26535D01*
Y26437D01*
X9646D01*
X9744Y26338D01*
Y26830D02*
X9646Y26929D01*
Y27125D01*
X9744Y27224D01*
X10138D01*
X10236Y27125D01*
Y26929D01*
X10138Y26830D01*
X9744D01*
X7756Y12126D02*
Y11732D01*
X8051D01*
Y11929D01*
Y11732D01*
X8346D01*
X7756Y12323D02*
X8346D01*
Y12716D01*
Y12913D02*
Y13110D01*
Y13011D01*
X7756D01*
X7854Y12913D01*
X14862Y36083D02*
X14764Y35984D01*
Y35787D01*
X14862Y35689D01*
X15256D01*
X15354Y35787D01*
Y35984D01*
X15256Y36083D01*
X14764Y36673D02*
Y36279D01*
X15059D01*
X14961Y36476D01*
Y36575D01*
X15059Y36673D01*
X15256D01*
X15354Y36575D01*
Y36378D01*
X15256Y36279D01*
Y36870D02*
X15354Y36968D01*
Y37165D01*
X15256Y37263D01*
X14862D01*
X14764Y37165D01*
Y36968D01*
X14862Y36870D01*
X14961D01*
X15059Y36968D01*
Y37263D01*
X19862Y36378D02*
X19764Y36279D01*
Y36083D01*
X19862Y35984D01*
X20256D01*
X20354Y36083D01*
Y36279D01*
X20256Y36378D01*
X19764Y36968D02*
Y36575D01*
X20059D01*
X19961Y36771D01*
Y36870D01*
X20059Y36968D01*
X20256D01*
X20354Y36870D01*
Y36673D01*
X20256Y36575D01*
X19764Y37165D02*
Y37559D01*
X19862D01*
X20256Y37165D01*
X20354D01*
X21949Y36181D02*
X21851Y36083D01*
Y35886D01*
X21949Y35787D01*
X22343D01*
X22441Y35886D01*
Y36083D01*
X22343Y36181D01*
X21851Y36771D02*
Y36378D01*
X22146D01*
X22047Y36575D01*
Y36673D01*
X22146Y36771D01*
X22343D01*
X22441Y36673D01*
Y36476D01*
X22343Y36378D01*
X21851Y37362D02*
X21949Y37165D01*
X22146Y36968D01*
X22343D01*
X22441Y37067D01*
Y37263D01*
X22343Y37362D01*
X22244D01*
X22146Y37263D01*
Y36968D01*
X23327Y34449D02*
X23229Y34350D01*
Y34154D01*
X23327Y34055D01*
X23721D01*
X23819Y34154D01*
Y34350D01*
X23721Y34449D01*
X23229Y35039D02*
Y34645D01*
X23524D01*
X23425Y34842D01*
Y34941D01*
X23524Y35039D01*
X23721D01*
X23819Y34941D01*
Y34744D01*
X23721Y34645D01*
X23229Y35629D02*
Y35236D01*
X23524D01*
X23425Y35433D01*
Y35531D01*
X23524Y35629D01*
X23721D01*
X23819Y35531D01*
Y35334D01*
X23721Y35236D01*
X29508Y36732D02*
X29410Y36634D01*
Y36437D01*
X29508Y36339D01*
X29902D01*
X30000Y36437D01*
Y36634D01*
X29902Y36732D01*
X29410Y37323D02*
Y36929D01*
X29705D01*
X29606Y37126D01*
Y37224D01*
X29705Y37323D01*
X29902D01*
X30000Y37224D01*
Y37027D01*
X29902Y36929D01*
X30000Y37814D02*
X29410D01*
X29705Y37519D01*
Y37913D01*
X29508Y28386D02*
X29410Y28287D01*
Y28091D01*
X29508Y27992D01*
X29902D01*
X30000Y28091D01*
Y28287D01*
X29902Y28386D01*
X29410Y28976D02*
Y28582D01*
X29705D01*
X29606Y28779D01*
Y28878D01*
X29705Y28976D01*
X29902D01*
X30000Y28878D01*
Y28681D01*
X29902Y28582D01*
X29508Y29173D02*
X29410Y29271D01*
Y29468D01*
X29508Y29566D01*
X29606D01*
X29705Y29468D01*
Y29370D01*
Y29468D01*
X29803Y29566D01*
X29902D01*
X30000Y29468D01*
Y29271D01*
X29902Y29173D01*
X17028Y28996D02*
X16929Y28898D01*
Y28701D01*
X17028Y28602D01*
X17421D01*
X17520Y28701D01*
Y28898D01*
X17421Y28996D01*
X16929Y29586D02*
Y29193D01*
X17225D01*
X17126Y29390D01*
Y29488D01*
X17225Y29586D01*
X17421D01*
X17520Y29488D01*
Y29291D01*
X17421Y29193D01*
X17520Y30177D02*
Y29783D01*
X17126Y30177D01*
X17028D01*
X16929Y30078D01*
Y29881D01*
X17028Y29783D01*
X12500Y29094D02*
X12402Y28996D01*
Y28799D01*
X12500Y28701D01*
X12894D01*
X12992Y28799D01*
Y28996D01*
X12894Y29094D01*
X12402Y29685D02*
Y29291D01*
X12697D01*
X12599Y29488D01*
Y29586D01*
X12697Y29685D01*
X12894D01*
X12992Y29586D01*
Y29390D01*
X12894Y29291D01*
X12992Y29882D02*
Y30078D01*
Y29980D01*
X12402D01*
X12500Y29882D01*
X17874Y34055D02*
X17795Y34134D01*
X17638D01*
X17559Y34055D01*
Y33740D01*
X17638Y33661D01*
X17795D01*
X17874Y33740D01*
X18346Y34134D02*
X18031D01*
Y33898D01*
X18189Y33976D01*
X18267D01*
X18346Y33898D01*
Y33740D01*
X18267Y33661D01*
X18110D01*
X18031Y33740D01*
X18504Y34055D02*
X18582Y34134D01*
X18740D01*
X18818Y34055D01*
Y33740D01*
X18740Y33661D01*
X18582D01*
X18504Y33740D01*
Y34055D01*
X15630Y34134D02*
X15551Y34055D01*
Y33898D01*
X15630Y33819D01*
X15945D01*
X16024Y33898D01*
Y34055D01*
X15945Y34134D01*
X16024Y34527D02*
X15551D01*
X15787Y34291D01*
Y34606D01*
X15945Y34763D02*
X16024Y34842D01*
Y35000D01*
X15945Y35078D01*
X15630D01*
X15551Y35000D01*
Y34842D01*
X15630Y34763D01*
X15709D01*
X15787Y34842D01*
Y35078D01*
X19902Y30433D02*
X19803Y30335D01*
Y30138D01*
X19902Y30039D01*
X20295D01*
X20394Y30138D01*
Y30335D01*
X20295Y30433D01*
X20394Y30925D02*
X19803D01*
X20099Y30630D01*
Y31023D01*
X19902Y31220D02*
X19803Y31318D01*
Y31515D01*
X19902Y31614D01*
X20000D01*
X20099Y31515D01*
X20197Y31614D01*
X20295D01*
X20394Y31515D01*
Y31318D01*
X20295Y31220D01*
X20197D01*
X20099Y31318D01*
X20000Y31220D01*
X19902D01*
X20099Y31318D02*
Y31515D01*
X27658Y29035D02*
X27559Y28937D01*
Y28740D01*
X27658Y28642D01*
X28051D01*
X28150Y28740D01*
Y28937D01*
X28051Y29035D01*
X28150Y29527D02*
X27559D01*
X27854Y29232D01*
Y29626D01*
X27559Y29822D02*
Y30216D01*
X27658D01*
X28051Y29822D01*
X28150D01*
X23327Y32382D02*
X23229Y32283D01*
Y32087D01*
X23327Y31988D01*
X23721D01*
X23819Y32087D01*
Y32283D01*
X23721Y32382D01*
X23819Y32874D02*
X23229D01*
X23524Y32579D01*
Y32972D01*
X23229Y33562D02*
X23327Y33366D01*
X23524Y33169D01*
X23721D01*
X23819Y33267D01*
Y33464D01*
X23721Y33562D01*
X23622D01*
X23524Y33464D01*
Y33169D01*
X21870Y28307D02*
X21772Y28209D01*
Y28012D01*
X21870Y27913D01*
X22264D01*
X22362Y28012D01*
Y28209D01*
X22264Y28307D01*
X22362Y28799D02*
X21772D01*
X22067Y28504D01*
Y28897D01*
X21772Y29488D02*
Y29094D01*
X22067D01*
X21969Y29291D01*
Y29389D01*
X22067Y29488D01*
X22264D01*
X22362Y29389D01*
Y29193D01*
X22264Y29094D01*
X12480Y21358D02*
X12382Y21456D01*
X12185D01*
X12087Y21358D01*
Y20965D01*
X12185Y20866D01*
X12382D01*
X12480Y20965D01*
X13071Y20866D02*
X12677D01*
X13071Y21260D01*
Y21358D01*
X12972Y21456D01*
X12775D01*
X12677Y21358D01*
X13267D02*
X13366Y21456D01*
X13563D01*
X13661Y21358D01*
Y21260D01*
X13563Y21161D01*
X13661Y21063D01*
Y20965D01*
X13563Y20866D01*
X13366D01*
X13267Y20965D01*
Y21063D01*
X13366Y21161D01*
X13267Y21260D01*
Y21358D01*
X13366Y21161D02*
X13563D01*
X8779Y24232D02*
X8681Y24331D01*
X8484D01*
X8386Y24232D01*
Y23839D01*
X8484Y23740D01*
X8681D01*
X8779Y23839D01*
X8976Y23740D02*
X9173D01*
X9075D01*
Y24331D01*
X8976Y24232D01*
X9862Y24331D02*
X9665Y24232D01*
X9468Y24035D01*
Y23839D01*
X9567Y23740D01*
X9763D01*
X9862Y23839D01*
Y23937D01*
X9763Y24035D01*
X9468D01*
X2579Y25000D02*
X2481Y24901D01*
Y24705D01*
X2579Y24606D01*
X2972D01*
X3071Y24705D01*
Y24901D01*
X2972Y25000D01*
X3071Y25197D02*
Y25393D01*
Y25295D01*
X2481D01*
X2579Y25197D01*
X2481Y26082D02*
Y25689D01*
X2776D01*
X2677Y25885D01*
Y25984D01*
X2776Y26082D01*
X2972D01*
X3071Y25984D01*
Y25787D01*
X2972Y25689D01*
X2913Y23996D02*
X2815Y24094D01*
X2618D01*
X2520Y23996D01*
Y23602D01*
X2618Y23504D01*
X2815D01*
X2913Y23602D01*
X3110Y23504D02*
X3307D01*
X3208D01*
Y24094D01*
X3110Y23996D01*
X3897Y23504D02*
Y24094D01*
X3602Y23799D01*
X3996D01*
X2913Y23090D02*
X2815Y23189D01*
X2618D01*
X2520Y23090D01*
Y22697D01*
X2618Y22598D01*
X2815D01*
X2913Y22697D01*
X3110Y22598D02*
X3307D01*
X3208D01*
Y23189D01*
X3110Y23090D01*
X3602D02*
X3700Y23189D01*
X3897D01*
X3996Y23090D01*
Y22992D01*
X3897Y22894D01*
X3799D01*
X3897D01*
X3996Y22795D01*
Y22697D01*
X3897Y22598D01*
X3700D01*
X3602Y22697D01*
X7008Y22500D02*
X6909Y22598D01*
X6713D01*
X6614Y22500D01*
Y22106D01*
X6713Y22008D01*
X6909D01*
X7008Y22106D01*
X7205Y22008D02*
X7401D01*
X7303D01*
Y22598D01*
X7205Y22500D01*
X8090Y22008D02*
X7696D01*
X8090Y22401D01*
Y22500D01*
X7992Y22598D01*
X7795D01*
X7696Y22500D01*
X7933Y20354D02*
X7835Y20256D01*
Y20059D01*
X7933Y19961D01*
X8327D01*
X8425Y20059D01*
Y20256D01*
X8327Y20354D01*
X8425Y20551D02*
Y20748D01*
Y20649D01*
X7835D01*
X7933Y20551D01*
X8425Y21043D02*
Y21240D01*
Y21141D01*
X7835D01*
X7933Y21043D01*
X6299Y16555D02*
X6201Y16653D01*
X6004D01*
X5906Y16555D01*
Y16161D01*
X6004Y16063D01*
X6201D01*
X6299Y16161D01*
X6496D02*
X6594Y16063D01*
X6791D01*
X6889Y16161D01*
Y16555D01*
X6791Y16653D01*
X6594D01*
X6496Y16555D01*
Y16457D01*
X6594Y16358D01*
X6889D01*
X2382Y15472D02*
X2284Y15374D01*
Y15177D01*
X2382Y15079D01*
X2776D01*
X2874Y15177D01*
Y15374D01*
X2776Y15472D01*
X2382Y15669D02*
X2284Y15767D01*
Y15964D01*
X2382Y16063D01*
X2480D01*
X2579Y15964D01*
X2677Y16063D01*
X2776D01*
X2874Y15964D01*
Y15767D01*
X2776Y15669D01*
X2677D01*
X2579Y15767D01*
X2480Y15669D01*
X2382D01*
X2579Y15767D02*
Y15964D01*
X2382Y14094D02*
X2284Y13996D01*
Y13799D01*
X2382Y13701D01*
X2776D01*
X2874Y13799D01*
Y13996D01*
X2776Y14094D01*
X2284Y14291D02*
Y14685D01*
X2382D01*
X2776Y14291D01*
X2874D01*
X3976Y7854D02*
X3878Y7953D01*
X3681D01*
X3583Y7854D01*
Y7461D01*
X3681Y7362D01*
X3878D01*
X3976Y7461D01*
X4567Y7953D02*
X4370Y7854D01*
X4173Y7657D01*
Y7461D01*
X4271Y7362D01*
X4468D01*
X4567Y7461D01*
Y7559D01*
X4468Y7657D01*
X4173D01*
X8091Y16496D02*
X7992Y16398D01*
Y16201D01*
X8091Y16102D01*
X8484D01*
X8583Y16201D01*
Y16398D01*
X8484Y16496D01*
X8583Y16988D02*
X7992D01*
X8288Y16693D01*
Y17086D01*
X7264Y16457D02*
X7166Y16358D01*
Y16161D01*
X7264Y16063D01*
X7658D01*
X7756Y16161D01*
Y16358D01*
X7658Y16457D01*
X7264Y16653D02*
X7166Y16752D01*
Y16949D01*
X7264Y17047D01*
X7362D01*
X7461Y16949D01*
Y16850D01*
Y16949D01*
X7559Y17047D01*
X7658D01*
X7756Y16949D01*
Y16752D01*
X7658Y16653D01*
X8799Y8464D02*
X8701Y8366D01*
Y8169D01*
X8799Y8071D01*
X9193D01*
X9291Y8169D01*
Y8366D01*
X9193Y8464D01*
X9291Y9055D02*
Y8661D01*
X8898Y9055D01*
X8799D01*
X8701Y8956D01*
Y8760D01*
X8799Y8661D01*
X7854Y9449D02*
X7756Y9350D01*
Y9154D01*
X7854Y9055D01*
X8248D01*
X8346Y9154D01*
Y9350D01*
X8248Y9449D01*
X8346Y9645D02*
Y9842D01*
Y9744D01*
X7756D01*
X7854Y9645D01*
X31398Y10787D02*
X31299Y10689D01*
Y10492D01*
X31398Y10394D01*
X31791D01*
X31890Y10492D01*
Y10689D01*
X31791Y10787D01*
X31299Y11378D02*
X31398Y11181D01*
X31595Y10984D01*
X31791D01*
X31890Y11082D01*
Y11279D01*
X31791Y11378D01*
X31693D01*
X31595Y11279D01*
Y10984D01*
X31890Y11574D02*
Y11771D01*
Y11673D01*
X31299D01*
X31398Y11574D01*
X17890Y12620D02*
X18284Y12030D01*
Y12620D02*
X17890Y12030D01*
X18480D02*
X18677D01*
X18579D01*
Y12620D01*
X18480Y12522D01*
X17441Y16339D02*
X18032D01*
Y16732D01*
X17441Y16929D02*
Y17323D01*
X17540D01*
X17933Y16929D01*
X18032D01*
X22441Y16673D02*
X22342Y16771D01*
X22146D01*
X22047Y16673D01*
Y16279D01*
X22146Y16181D01*
X22342D01*
X22441Y16279D01*
X22638Y16673D02*
X22736Y16771D01*
X22933D01*
X23031Y16673D01*
Y16575D01*
X22933Y16476D01*
X22834D01*
X22933D01*
X23031Y16378D01*
Y16279D01*
X22933Y16181D01*
X22736D01*
X22638Y16279D01*
X23228Y16673D02*
X23326Y16771D01*
X23523D01*
X23622Y16673D01*
Y16575D01*
X23523Y16476D01*
X23425D01*
X23523D01*
X23622Y16378D01*
Y16279D01*
X23523Y16181D01*
X23326D01*
X23228Y16279D01*
X20737Y5511D02*
Y5249D01*
X20934D01*
Y5380D01*
Y5249D01*
X21130D01*
X20737Y5642D02*
X21130D01*
Y5905D01*
X20737Y6298D02*
X20802Y6167D01*
X20934Y6036D01*
X21065D01*
X21130Y6101D01*
Y6233D01*
X21065Y6298D01*
X20999D01*
X20934Y6233D01*
Y6036D01*
X19276Y5532D02*
Y5270D01*
X19473D01*
Y5401D01*
Y5270D01*
X19670D01*
X19276Y5664D02*
X19670D01*
Y5926D01*
X19276Y6320D02*
Y6057D01*
X19473D01*
X19408Y6188D01*
Y6254D01*
X19473Y6320D01*
X19604D01*
X19670Y6254D01*
Y6123D01*
X19604Y6057D01*
X17761Y5500D02*
Y5238D01*
X17958D01*
Y5369D01*
Y5238D01*
X18155D01*
X17761Y5631D02*
X18155D01*
Y5894D01*
Y6222D02*
X17761D01*
X17958Y6025D01*
Y6287D01*
X16276Y5518D02*
Y5256D01*
X16472D01*
Y5387D01*
Y5256D01*
X16669D01*
X16276Y5649D02*
X16669D01*
Y5912D01*
X16341Y6043D02*
X16276Y6109D01*
Y6240D01*
X16341Y6305D01*
X16407D01*
X16472Y6240D01*
Y6174D01*
Y6240D01*
X16538Y6305D01*
X16603D01*
X16669Y6240D01*
Y6109D01*
X16603Y6043D01*
X14754Y5501D02*
Y5239D01*
X14950D01*
Y5370D01*
Y5239D01*
X15147D01*
X14754Y5632D02*
X15147D01*
Y5895D01*
Y6288D02*
Y6026D01*
X14885Y6288D01*
X14819D01*
X14754Y6223D01*
Y6091D01*
X14819Y6026D01*
X7716Y4823D02*
X7618Y4921D01*
X7421D01*
X7323Y4823D01*
Y4429D01*
X7421Y4331D01*
X7618D01*
X7716Y4429D01*
X8307Y4921D02*
X7913D01*
Y4626D01*
X8110Y4724D01*
X8208D01*
X8307Y4626D01*
Y4429D01*
X8208Y4331D01*
X8012D01*
X7913Y4429D01*
X886Y19803D02*
X788Y19705D01*
Y19508D01*
X886Y19409D01*
X1280D01*
X1378Y19508D01*
Y19705D01*
X1280Y19803D01*
X1378Y20000D02*
Y20197D01*
Y20098D01*
X788D01*
X886Y20000D01*
Y20492D02*
X788Y20590D01*
Y20787D01*
X886Y20885D01*
X1280D01*
X1378Y20787D01*
Y20590D01*
X1280Y20492D01*
X886D01*
X13307Y20531D02*
X13209Y20630D01*
X13012D01*
X12913Y20531D01*
Y20138D01*
X13012Y20039D01*
X13209D01*
X13307Y20138D01*
X13504Y20039D02*
X13701D01*
X13602D01*
Y20630D01*
X13504Y20531D01*
X13996Y20138D02*
X14094Y20039D01*
X14291D01*
X14389Y20138D01*
Y20531D01*
X14291Y20630D01*
X14094D01*
X13996Y20531D01*
Y20433D01*
X14094Y20335D01*
X14389D01*
X31958Y6014D02*
X31860Y5916D01*
Y5719D01*
X31958Y5621D01*
X32352D01*
X32450Y5719D01*
Y5916D01*
X32352Y6014D01*
X32450Y6604D02*
Y6211D01*
X32056Y6604D01*
X31958D01*
X31860Y6506D01*
Y6309D01*
X31958Y6211D01*
Y6801D02*
X31860Y6900D01*
Y7096D01*
X31958Y7195D01*
X32352D01*
X32450Y7096D01*
Y6900D01*
X32352Y6801D01*
X31958D01*
X15669Y16752D02*
X15571Y16850D01*
X15374D01*
X15276Y16752D01*
Y16358D01*
X15374Y16260D01*
X15571D01*
X15669Y16358D01*
X16260Y16260D02*
X15866D01*
X16260Y16653D01*
Y16752D01*
X16161Y16850D01*
X15964D01*
X15866Y16752D01*
X16456Y16260D02*
X16653D01*
X16555D01*
Y16850D01*
X16456Y16752D01*
X30630Y18681D02*
X30531Y18779D01*
X30335D01*
X30236Y18681D01*
Y18287D01*
X30335Y18189D01*
X30531D01*
X30630Y18287D01*
X31220Y18189D02*
X30827D01*
X31220Y18583D01*
Y18681D01*
X31122Y18779D01*
X30925D01*
X30827Y18681D01*
X31417D02*
X31515Y18779D01*
X31712D01*
X31811Y18681D01*
Y18583D01*
X31712Y18484D01*
X31614D01*
X31712D01*
X31811Y18386D01*
Y18287D01*
X31712Y18189D01*
X31515D01*
X31417Y18287D01*
X26535Y16673D02*
X26437Y16771D01*
X26240D01*
X26142Y16673D01*
Y16279D01*
X26240Y16181D01*
X26437D01*
X26535Y16279D01*
X27126Y16181D02*
X26732D01*
X27126Y16575D01*
Y16673D01*
X27027Y16771D01*
X26830D01*
X26732Y16673D01*
X27618Y16181D02*
Y16771D01*
X27322Y16476D01*
X27716D01*
X27953Y19488D02*
X27854Y19586D01*
X27657D01*
X27559Y19488D01*
Y19094D01*
X27657Y18996D01*
X27854D01*
X27953Y19094D01*
X28543Y18996D02*
X28149D01*
X28543Y19390D01*
Y19488D01*
X28445Y19586D01*
X28248D01*
X28149Y19488D01*
X29133Y19586D02*
X28740D01*
Y19291D01*
X28937Y19390D01*
X29035D01*
X29133Y19291D01*
Y19094D01*
X29035Y18996D01*
X28838D01*
X28740Y19094D01*
X29921Y19586D02*
X29823Y19685D01*
X29626D01*
X29528Y19586D01*
Y19193D01*
X29626Y19094D01*
X29823D01*
X29921Y19193D01*
X30511Y19094D02*
X30118D01*
X30511Y19488D01*
Y19586D01*
X30413Y19685D01*
X30216D01*
X30118Y19586D01*
X31102Y19685D02*
X30905Y19586D01*
X30708Y19390D01*
Y19193D01*
X30807Y19094D01*
X31003D01*
X31102Y19193D01*
Y19291D01*
X31003Y19390D01*
X30708D01*
X27677Y24114D02*
X27579Y24212D01*
X27382D01*
X27283Y24114D01*
Y23720D01*
X27382Y23622D01*
X27579D01*
X27677Y23720D01*
X28267Y23622D02*
X27874D01*
X28267Y24016D01*
Y24114D01*
X28169Y24212D01*
X27972D01*
X27874Y24114D01*
X28464Y24212D02*
X28858D01*
Y24114D01*
X28464Y23720D01*
Y23622D01*
X17812Y22242D02*
X17714Y22144D01*
Y21947D01*
X17812Y21848D01*
X18206D01*
X18304Y21947D01*
Y22144D01*
X18206Y22242D01*
X18304Y22832D02*
Y22439D01*
X17911Y22832D01*
X17812D01*
X17714Y22734D01*
Y22537D01*
X17812Y22439D01*
X18206Y23029D02*
X18304Y23127D01*
Y23324D01*
X18206Y23423D01*
X17812D01*
X17714Y23324D01*
Y23127D01*
X17812Y23029D01*
X17911D01*
X18009Y23127D01*
Y23423D01*
X17822Y19772D02*
X17724Y19674D01*
Y19477D01*
X17822Y19378D01*
X18216D01*
X18314Y19477D01*
Y19674D01*
X18216Y19772D01*
X17822Y19969D02*
X17724Y20067D01*
Y20264D01*
X17822Y20362D01*
X17921D01*
X18019Y20264D01*
Y20166D01*
Y20264D01*
X18117Y20362D01*
X18216D01*
X18314Y20264D01*
Y20067D01*
X18216Y19969D01*
X17822Y20559D02*
X17724Y20657D01*
Y20854D01*
X17822Y20953D01*
X18216D01*
X18314Y20854D01*
Y20657D01*
X18216Y20559D01*
X17822D01*
X19612Y22492D02*
X19514Y22394D01*
Y22197D01*
X19612Y22098D01*
X20006D01*
X20104Y22197D01*
Y22394D01*
X20006Y22492D01*
X19612Y22689D02*
X19514Y22787D01*
Y22984D01*
X19612Y23082D01*
X19711D01*
X19809Y22984D01*
Y22885D01*
Y22984D01*
X19907Y23082D01*
X20006D01*
X20104Y22984D01*
Y22787D01*
X20006Y22689D01*
X20104Y23279D02*
Y23476D01*
Y23377D01*
X19514D01*
X19612Y23279D01*
X21063Y17618D02*
X20964Y17716D01*
X20768D01*
X20669Y17618D01*
Y17224D01*
X20768Y17126D01*
X20964D01*
X21063Y17224D01*
X21260Y17618D02*
X21358Y17716D01*
X21555D01*
X21653Y17618D01*
Y17520D01*
X21555Y17421D01*
X21456D01*
X21555D01*
X21653Y17323D01*
Y17224D01*
X21555Y17126D01*
X21358D01*
X21260Y17224D01*
X22244Y17126D02*
X21850D01*
X22244Y17520D01*
Y17618D01*
X22145Y17716D01*
X21948D01*
X21850Y17618D01*
X22992D02*
X22894Y17716D01*
X22697D01*
X22598Y17618D01*
Y17224D01*
X22697Y17126D01*
X22894D01*
X22992Y17224D01*
X23189Y17618D02*
X23287Y17716D01*
X23484D01*
X23582Y17618D01*
Y17520D01*
X23484Y17421D01*
X23386D01*
X23484D01*
X23582Y17323D01*
Y17224D01*
X23484Y17126D01*
X23287D01*
X23189Y17224D01*
X24074Y17126D02*
Y17716D01*
X23779Y17421D01*
X24173D01*
X28898Y7264D02*
X28799Y7362D01*
X28602D01*
X28504Y7264D01*
Y6870D01*
X28602Y6772D01*
X28799D01*
X28898Y6870D01*
X29389Y6772D02*
Y7362D01*
X29094Y7067D01*
X29488D01*
X29685Y6772D02*
X29881D01*
X29783D01*
Y7362D01*
X29685Y7264D01*
X19803Y11673D02*
X19705Y11771D01*
X19508D01*
X19409Y11673D01*
Y11279D01*
X19508Y11181D01*
X19705D01*
X19803Y11279D01*
X20295Y11181D02*
Y11771D01*
X20000Y11476D01*
X20393D01*
X20984Y11181D02*
X20590D01*
X20984Y11575D01*
Y11673D01*
X20885Y11771D01*
X20689D01*
X20590Y11673D01*
X19895Y8704D02*
X19816Y8782D01*
X19659D01*
X19580Y8704D01*
Y8389D01*
X19659Y8310D01*
X19816D01*
X19895Y8389D01*
X20288Y8310D02*
Y8782D01*
X20052Y8546D01*
X20367D01*
X20525Y8704D02*
X20603Y8782D01*
X20761D01*
X20839Y8704D01*
Y8625D01*
X20761Y8546D01*
X20682D01*
X20761D01*
X20839Y8467D01*
Y8389D01*
X20761Y8310D01*
X20603D01*
X20525Y8389D01*
X32260Y14320D02*
X32457D01*
X32358D01*
Y13730D01*
X32260D01*
X32457D01*
X33146Y14222D02*
X33047Y14320D01*
X32850D01*
X32752Y14222D01*
Y13828D01*
X32850Y13730D01*
X33047D01*
X33146Y13828D01*
X33736Y14320D02*
X33342D01*
Y14025D01*
X33539Y14124D01*
X33638D01*
X33736Y14025D01*
Y13828D01*
X33638Y13730D01*
X33441D01*
X33342Y13828D01*
X25197Y2756D02*
X25394D01*
X25295D01*
Y2165D01*
X25197D01*
X25394D01*
X26082Y2657D02*
X25984Y2756D01*
X25787D01*
X25689Y2657D01*
Y2264D01*
X25787Y2165D01*
X25984D01*
X26082Y2264D01*
X26673Y2756D02*
X26476Y2657D01*
X26279Y2461D01*
Y2264D01*
X26378Y2165D01*
X26574D01*
X26673Y2264D01*
Y2362D01*
X26574Y2461D01*
X26279D01*
X19414Y19788D02*
X20004D01*
Y20182D01*
X19414Y20772D02*
X19512Y20575D01*
X19709Y20379D01*
X19906D01*
X20004Y20477D01*
Y20674D01*
X19906Y20772D01*
X19807D01*
X19709Y20674D01*
Y20379D01*
X26575Y12283D02*
Y12874D01*
X26870D01*
X26968Y12775D01*
Y12579D01*
X26870Y12480D01*
X26575D01*
X26772D02*
X26968Y12283D01*
X27460D02*
Y12874D01*
X27165Y12579D01*
X27559D01*
X26575Y11299D02*
Y11890D01*
X26870D01*
X26968Y11791D01*
Y11594D01*
X26870Y11496D01*
X26575D01*
X26772D02*
X26968Y11299D01*
X27559Y11890D02*
X27165D01*
Y11594D01*
X27362Y11693D01*
X27460D01*
X27559Y11594D01*
Y11398D01*
X27460Y11299D01*
X27264D01*
X27165Y11398D01*
X32402Y15866D02*
Y16457D01*
X32697D01*
X32795Y16358D01*
Y16161D01*
X32697Y16063D01*
X32402D01*
X32598D02*
X32795Y15866D01*
X33386Y16457D02*
X33189Y16358D01*
X32992Y16161D01*
Y15965D01*
X33090Y15866D01*
X33287D01*
X33386Y15965D01*
Y16063D01*
X33287Y16161D01*
X32992D01*
X32402Y16850D02*
Y17441D01*
X32697D01*
X32795Y17342D01*
Y17146D01*
X32697Y17047D01*
X32402D01*
X32598D02*
X32795Y16850D01*
X32992Y17441D02*
X33386D01*
Y17342D01*
X32992Y16949D01*
Y16850D01*
X26654Y17165D02*
Y17756D01*
X26949D01*
X27047Y17657D01*
Y17461D01*
X26949Y17362D01*
X26654D01*
X26850D02*
X27047Y17165D01*
X27244Y17657D02*
X27342Y17756D01*
X27539D01*
X27637Y17657D01*
Y17559D01*
X27539Y17461D01*
X27637Y17362D01*
Y17264D01*
X27539Y17165D01*
X27342D01*
X27244Y17264D01*
Y17362D01*
X27342Y17461D01*
X27244Y17559D01*
Y17657D01*
X27342Y17461D02*
X27539D01*
X26614Y15079D02*
Y15669D01*
X26909D01*
X27008Y15571D01*
Y15374D01*
X26909Y15276D01*
X26614D01*
X26811D02*
X27008Y15079D01*
X27205Y15177D02*
X27303Y15079D01*
X27500D01*
X27598Y15177D01*
Y15571D01*
X27500Y15669D01*
X27303D01*
X27205Y15571D01*
Y15472D01*
X27303Y15374D01*
X27598D01*
X24930Y27020D02*
X24340D01*
Y27315D01*
X24438Y27414D01*
X24635D01*
X24733Y27315D01*
Y27020D01*
Y27217D02*
X24930Y27414D01*
Y27610D02*
Y27807D01*
Y27709D01*
X24340D01*
X24438Y27610D01*
Y28102D02*
X24340Y28201D01*
Y28398D01*
X24438Y28496D01*
X24832D01*
X24930Y28398D01*
Y28201D01*
X24832Y28102D01*
X24438D01*
X29370Y23622D02*
Y24212D01*
X29665D01*
X29764Y24114D01*
Y23917D01*
X29665Y23819D01*
X29370D01*
X29567D02*
X29764Y23622D01*
X29960D02*
X30157D01*
X30059D01*
Y24212D01*
X29960Y24114D01*
X30452Y23622D02*
X30649D01*
X30551D01*
Y24212D01*
X30452Y24114D01*
X25729Y3761D02*
X25139D01*
Y4056D01*
X25237Y4154D01*
X25434D01*
X25532Y4056D01*
Y3761D01*
Y3957D02*
X25729Y4154D01*
Y4351D02*
Y4548D01*
Y4449D01*
X25139D01*
X25237Y4351D01*
X25729Y5237D02*
Y4843D01*
X25336Y5237D01*
X25237D01*
X25139Y5138D01*
Y4941D01*
X25237Y4843D01*
X33800Y11520D02*
X33210D01*
Y11815D01*
X33308Y11914D01*
X33505D01*
X33603Y11815D01*
Y11520D01*
Y11717D02*
X33800Y11914D01*
Y12110D02*
Y12307D01*
Y12209D01*
X33210D01*
X33308Y12110D01*
Y12602D02*
X33210Y12701D01*
Y12898D01*
X33308Y12996D01*
X33406D01*
X33505Y12898D01*
Y12799D01*
Y12898D01*
X33603Y12996D01*
X33702D01*
X33800Y12898D01*
Y12701D01*
X33702Y12602D01*
X26241Y7750D02*
X25651D01*
Y8046D01*
X25749Y8144D01*
X25946D01*
X26044Y8046D01*
Y7750D01*
Y7947D02*
X26241Y8144D01*
Y8341D02*
Y8538D01*
Y8439D01*
X25651D01*
X25749Y8341D01*
X25651Y9226D02*
Y8833D01*
X25946D01*
X25847Y9030D01*
Y9128D01*
X25946Y9226D01*
X26143D01*
X26241Y9128D01*
Y8931D01*
X26143Y8833D01*
X26320Y6713D02*
Y7304D01*
X26615D01*
X26713Y7205D01*
Y7009D01*
X26615Y6910D01*
X26320D01*
X26516D02*
X26713Y6713D01*
X26910D02*
X27107D01*
X27008D01*
Y7304D01*
X26910Y7205D01*
X27796Y7304D02*
X27599Y7205D01*
X27402Y7009D01*
Y6812D01*
X27500Y6713D01*
X27697D01*
X27796Y6812D01*
Y6910D01*
X27697Y7009D01*
X27402D01*
X29730Y1131D02*
Y1721D01*
X30025D01*
X30124Y1623D01*
Y1426D01*
X30025Y1327D01*
X29730D01*
X29927D02*
X30124Y1131D01*
X30320D02*
X30517D01*
X30419D01*
Y1721D01*
X30320Y1623D01*
X30812Y1721D02*
X31206D01*
Y1623D01*
X30812Y1229D01*
Y1131D01*
X32120Y3671D02*
X31530D01*
Y3966D01*
X31628Y4064D01*
X31825D01*
X31923Y3966D01*
Y3671D01*
Y3867D02*
X32120Y4064D01*
Y4261D02*
Y4458D01*
Y4359D01*
X31530D01*
X31628Y4261D01*
Y4753D02*
X31530Y4851D01*
Y5048D01*
X31628Y5146D01*
X31726D01*
X31825Y5048D01*
X31923Y5146D01*
X32022D01*
X32120Y5048D01*
Y4851D01*
X32022Y4753D01*
X31923D01*
X31825Y4851D01*
X31726Y4753D01*
X31628D01*
X31825Y4851D02*
Y5048D01*
X21980Y11060D02*
Y11650D01*
X22275D01*
X22374Y11552D01*
Y11355D01*
X22275Y11257D01*
X21980D01*
X22177D02*
X22374Y11060D01*
X22570D02*
X22767D01*
X22669D01*
Y11650D01*
X22570Y11552D01*
X23062Y11158D02*
X23161Y11060D01*
X23358D01*
X23456Y11158D01*
Y11552D01*
X23358Y11650D01*
X23161D01*
X23062Y11552D01*
Y11454D01*
X23161Y11355D01*
X23456D01*
X13071Y14843D02*
Y15433D01*
X13366D01*
X13464Y15334D01*
Y15138D01*
X13366Y15039D01*
X13071D01*
X13268D02*
X13464Y14843D01*
X13661Y15433D02*
X14055D01*
X13858D01*
Y14843D01*
X14252D02*
X14448D01*
X14350D01*
Y15433D01*
X14252Y15334D01*
X13840Y9950D02*
X14234D01*
X14037D01*
Y9360D01*
X14430D02*
Y9950D01*
X14726D01*
X14824Y9852D01*
Y9655D01*
X14726Y9557D01*
X14430D01*
X15021Y9360D02*
X15218D01*
X15119D01*
Y9950D01*
X15021Y9852D01*
X33110Y9331D02*
Y9724D01*
Y9528D01*
X33701D01*
Y9921D02*
X33110D01*
Y10216D01*
X33209Y10315D01*
X33406D01*
X33504Y10216D01*
Y9921D01*
X33701Y10807D02*
X33110D01*
X33406Y10511D01*
Y10905D01*
X16680Y10780D02*
X17074D01*
X16877D01*
Y10190D01*
X17270D02*
Y10780D01*
X17566D01*
X17664Y10682D01*
Y10485D01*
X17566Y10387D01*
X17270D01*
X18254Y10190D02*
X17861D01*
X18254Y10584D01*
Y10682D01*
X18156Y10780D01*
X17959D01*
X17861Y10682D01*
X16740Y9640D02*
X17134D01*
X16937D01*
Y9050D01*
X17330D02*
Y9640D01*
X17626D01*
X17724Y9542D01*
Y9345D01*
X17626Y9247D01*
X17330D01*
X17921Y9542D02*
X18019Y9640D01*
X18216D01*
X18314Y9542D01*
Y9444D01*
X18216Y9345D01*
X18118D01*
X18216D01*
X18314Y9247D01*
Y9148D01*
X18216Y9050D01*
X18019D01*
X17921Y9148D01*
X27677Y24941D02*
X27579Y25039D01*
X27382D01*
X27283Y24941D01*
Y24547D01*
X27382Y24449D01*
X27579D01*
X27677Y24547D01*
X27874Y24941D02*
X27972Y25039D01*
X28169D01*
X28267Y24941D01*
Y24842D01*
X28169Y24744D01*
X28071D01*
X28169D01*
X28267Y24646D01*
Y24547D01*
X28169Y24449D01*
X27972D01*
X27874Y24547D01*
X28464Y24941D02*
X28563Y25039D01*
X28759D01*
X28858Y24941D01*
Y24842D01*
X28759Y24744D01*
X28858Y24646D01*
Y24547D01*
X28759Y24449D01*
X28563D01*
X28464Y24547D01*
Y24646D01*
X28563Y24744D01*
X28464Y24842D01*
Y24941D01*
X28563Y24744D02*
X28759D01*
X20905Y24626D02*
X20807Y24724D01*
X20610D01*
X20512Y24626D01*
Y24232D01*
X20610Y24134D01*
X20807D01*
X20905Y24232D01*
X21102Y24626D02*
X21201Y24724D01*
X21397D01*
X21496Y24626D01*
Y24527D01*
X21397Y24429D01*
X21299D01*
X21397D01*
X21496Y24331D01*
Y24232D01*
X21397Y24134D01*
X21201D01*
X21102Y24232D01*
X22086Y24724D02*
X21693D01*
Y24429D01*
X21889Y24527D01*
X21988D01*
X22086Y24429D01*
Y24232D01*
X21988Y24134D01*
X21791D01*
X21693Y24232D01*
X22795Y27756D02*
X22716Y27834D01*
X22559D01*
X22480Y27756D01*
Y27441D01*
X22559Y27362D01*
X22716D01*
X22795Y27441D01*
X22953Y27756D02*
X23031Y27834D01*
X23189D01*
X23267Y27756D01*
Y27677D01*
X23189Y27598D01*
X23110D01*
X23189D01*
X23267Y27520D01*
Y27441D01*
X23189Y27362D01*
X23031D01*
X22953Y27441D01*
X23740Y27834D02*
X23582Y27756D01*
X23425Y27598D01*
Y27441D01*
X23504Y27362D01*
X23661D01*
X23740Y27441D01*
Y27520D01*
X23661Y27598D01*
X23425D01*
X25787Y27559D02*
X25689Y27657D01*
X25492D01*
X25394Y27559D01*
Y27165D01*
X25492Y27067D01*
X25689D01*
X25787Y27165D01*
X25984Y27559D02*
X26082Y27657D01*
X26279D01*
X26378Y27559D01*
Y27460D01*
X26279Y27362D01*
X26181D01*
X26279D01*
X26378Y27264D01*
Y27165D01*
X26279Y27067D01*
X26082D01*
X25984Y27165D01*
X26574Y27657D02*
X26968D01*
Y27559D01*
X26574Y27165D01*
Y27067D01*
X31590Y26124D02*
Y25730D01*
X31885D01*
Y25927D01*
Y25730D01*
X32180D01*
X31590Y26320D02*
X32180D01*
Y26714D01*
X32082Y26911D02*
X32180Y27009D01*
Y27206D01*
X32082Y27304D01*
X31688D01*
X31590Y27206D01*
Y27009D01*
X31688Y26911D01*
X31786D01*
X31885Y27009D01*
Y27304D01*
D86*
X20881Y-2319D02*
X20981Y-2292D01*
X21054Y-2219D01*
X21081Y-2119D01*
X14421D02*
X14447Y-2219D01*
X14521Y-2292D01*
X14621Y-2319D01*
X20881D01*
X13951Y5011D02*
X21551D01*
X11686Y31D02*
Y2551D01*
X23816Y31D02*
Y2551D01*
X11701Y1D02*
X23801D01*
X21081Y-2119D02*
Y1D01*
X14421Y-2119D02*
Y1D01*
X9173Y18305D02*
Y18605D01*
X9023Y18455D02*
X9323D01*
X29359Y2152D02*
Y2452D01*
X29209Y2302D02*
X29509D01*
X21316Y9370D02*
X21616D01*
X21466Y9220D02*
Y9520D01*
X21316Y10512D02*
X21616D01*
X21466Y10362D02*
Y10662D01*
X27990Y6102D02*
X28290D01*
X28140Y5952D02*
Y6252D01*
X14741Y16535D02*
X15041D01*
X14891Y16385D02*
Y16685D01*
D87*
X22143Y5263D02*
Y8177D01*
X21277Y5263D02*
Y8177D01*
X22143D01*
X21277Y5263D02*
X22143D01*
X14370Y31654D02*
Y33622D01*
Y31654D02*
X15630D01*
Y33622D01*
X14370D02*
X15630D01*
X13705Y34777D02*
X14405D01*
Y35827D02*
Y36477D01*
X13705Y35827D02*
Y36477D01*
X14405D01*
X13705Y34777D02*
Y35427D01*
X14405Y34777D02*
Y35427D01*
X25505Y31191D02*
Y32391D01*
Y31191D02*
X27705D01*
X25505Y32391D02*
X27705D01*
Y31191D02*
Y32391D01*
X8421Y35282D02*
Y35931D01*
X7721Y34232D02*
X8421D01*
X7721D02*
Y34881D01*
Y35931D02*
X8421D01*
X7721Y35282D02*
Y35931D01*
X8421Y34232D02*
Y34881D01*
X29926Y8642D02*
Y9292D01*
X30626Y7592D02*
Y8242D01*
X29926Y7592D02*
X30626D01*
Y8642D02*
Y9292D01*
X29926D02*
X30626D01*
X29926Y7592D02*
Y8242D01*
X31610Y7592D02*
Y8242D01*
X30910Y7592D02*
Y8242D01*
Y9292D02*
X31610D01*
X30910Y8642D02*
Y9292D01*
X31610Y8642D02*
Y9292D01*
X30910Y7592D02*
X31610D01*
X28145Y7611D02*
Y8261D01*
X27445Y7611D02*
Y8261D01*
Y9311D02*
X28145D01*
X27445Y8661D02*
Y9311D01*
X28145Y8661D02*
Y9311D01*
X27445Y7611D02*
X28145D01*
X7721Y32376D02*
Y33026D01*
Y34076D02*
X8421D01*
Y33426D02*
Y34076D01*
X7721Y32376D02*
X8421D01*
Y33026D01*
X7721Y33426D02*
Y34076D01*
Y30407D02*
Y31057D01*
Y32107D02*
X8421D01*
Y31457D02*
Y32107D01*
X7721Y30407D02*
X8421D01*
Y31057D01*
X7721Y31457D02*
Y32107D01*
X29238Y34996D02*
Y35646D01*
X28538Y33946D02*
X29238D01*
X28538D02*
Y34596D01*
Y35646D02*
X29238D01*
X28538Y34996D02*
Y35646D01*
X29238Y33946D02*
Y34596D01*
X30309Y30161D02*
Y30811D01*
Y31861D02*
X31009D01*
Y31211D02*
Y31861D01*
X30309Y30161D02*
X31009D01*
Y30811D01*
X30309Y31211D02*
Y31861D01*
X17907Y31649D02*
X18557D01*
X19607Y30949D02*
Y31649D01*
X18957Y30949D02*
X19607D01*
X17907D02*
Y31649D01*
Y30949D02*
X18557D01*
X18957Y31649D02*
X19607D01*
X17794Y32859D02*
X18444D01*
X18844Y33559D02*
X19494D01*
Y32859D02*
Y33559D01*
X17794D02*
X18444D01*
X17794Y32859D02*
Y33559D01*
X18844Y32859D02*
X19494D01*
X18957Y30232D02*
X19607D01*
X17907Y29532D02*
X18557D01*
X17907D02*
Y30232D01*
X18957Y29532D02*
X19607D01*
Y30232D01*
X17907D02*
X18557D01*
X23421Y30793D02*
Y31443D01*
X22721Y29743D02*
X23421D01*
X22721D02*
Y30393D01*
Y31443D02*
X23421D01*
X22721Y30793D02*
Y31443D01*
X23421Y29743D02*
Y30393D01*
X29198Y31217D02*
Y31867D01*
X28498Y30167D02*
X29198D01*
X28498D02*
Y30817D01*
Y31867D02*
X29198D01*
X28498Y31217D02*
Y31867D01*
X29198Y30167D02*
Y30817D01*
X4011Y26259D02*
Y26909D01*
X3311Y27309D02*
Y27959D01*
X4011D01*
X3311Y26259D02*
Y26909D01*
Y26259D02*
X4011D01*
Y27309D02*
Y27959D01*
X4926Y16844D02*
Y17494D01*
Y18544D02*
X5626D01*
Y17894D02*
Y18544D01*
X4926Y16844D02*
X5626D01*
Y17494D01*
X4926Y17894D02*
Y18544D01*
X5151Y8775D02*
X5801D01*
X6851Y8075D02*
Y8775D01*
X6201Y8075D02*
X6851D01*
X5151D02*
Y8775D01*
Y8075D02*
X5801D01*
X6201Y8775D02*
X6851D01*
X16172Y35735D02*
X17372D01*
X16172Y33535D02*
Y35735D01*
X17372Y33535D02*
Y35735D01*
X16172Y33535D02*
X17372D01*
X23760Y31631D02*
X24960D01*
X23760Y29431D02*
Y31631D01*
X24960Y29431D02*
Y31631D01*
X23760Y29431D02*
X24960D01*
X5463Y24284D02*
X6663D01*
Y26484D01*
X5463Y24284D02*
Y26484D01*
X6663D01*
X4124Y26503D02*
X5324D01*
X4124Y24303D02*
Y26503D01*
X5324Y24303D02*
Y26503D01*
X4124Y24303D02*
X5324D01*
X3219Y18511D02*
X4419D01*
X3219Y16311D02*
Y18511D01*
X4419Y16311D02*
Y18511D01*
X3219Y16311D02*
X4419D01*
X5502Y15913D02*
X6702D01*
X5502Y13713D02*
Y15913D01*
X6702Y13713D02*
Y15913D01*
X5502Y13713D02*
X6702D01*
X15350Y33852D02*
Y34502D01*
X14650Y33852D02*
Y34502D01*
Y35552D02*
X15350D01*
X14650Y34902D02*
Y35552D01*
X15350Y34902D02*
Y35552D01*
X14650Y33852D02*
X15350D01*
X19689Y34029D02*
X20389D01*
Y35079D02*
Y35729D01*
X19689Y35079D02*
Y35729D01*
X20389D01*
X19689Y34029D02*
Y34679D01*
X20389Y34029D02*
Y34679D01*
X22913Y32815D02*
Y34783D01*
X21654D02*
X22913D01*
X21654Y32815D02*
Y34783D01*
Y32815D02*
X22913D01*
X24050Y33980D02*
X24750D01*
Y35030D02*
Y35680D01*
X24050Y35030D02*
Y35680D01*
X24750D01*
X24050Y33980D02*
Y34630D01*
X24750Y33980D02*
Y34630D01*
X29404Y33941D02*
X30104D01*
Y34991D02*
Y35641D01*
X29404Y34991D02*
Y35641D01*
X30104D01*
X29404Y33941D02*
Y34591D01*
X30104Y33941D02*
Y34591D01*
X29404Y31867D02*
X30104D01*
X29404Y30167D02*
Y30817D01*
X30104Y30167D02*
Y30817D01*
X29404Y30167D02*
X30104D01*
Y31217D02*
Y31867D01*
X29404Y31217D02*
Y31867D01*
X15989Y30282D02*
X16689D01*
X15989Y28582D02*
Y29232D01*
X16689Y28582D02*
Y29232D01*
X15989Y28582D02*
X16689D01*
Y29632D02*
Y30282D01*
X15989Y29632D02*
Y30282D01*
X13233D02*
X13933D01*
X13233Y28582D02*
Y29232D01*
X13933Y28582D02*
Y29232D01*
X13233Y28582D02*
X13933D01*
Y29632D02*
Y30282D01*
X13233Y29632D02*
Y30282D01*
X16737Y33294D02*
X17437D01*
X16737Y31594D02*
Y32244D01*
X17437Y31594D02*
Y32244D01*
X16737Y31594D02*
X17437D01*
Y32644D02*
Y33294D01*
X16737Y32644D02*
Y33294D01*
X15870Y31588D02*
X16570D01*
Y32638D02*
Y33288D01*
X15870Y32638D02*
Y33288D01*
X16570D01*
X15870Y31588D02*
Y32238D01*
X16570Y31588D02*
Y32238D01*
X19729Y31864D02*
X20429D01*
Y32914D02*
Y33564D01*
X19729Y32914D02*
Y33564D01*
X20429D01*
X19729Y31864D02*
Y32514D01*
X20429Y31864D02*
Y32514D01*
X26658Y29612D02*
Y30262D01*
X27358Y29612D02*
Y30262D01*
X26658Y28562D02*
X27358D01*
Y29212D01*
X26658Y28562D02*
Y29212D01*
Y30262D02*
X27358D01*
X24089Y31933D02*
X24789D01*
Y32983D02*
Y33633D01*
X24089Y32983D02*
Y33633D01*
X24789D01*
X24089Y31933D02*
Y32583D01*
X24789Y31933D02*
Y32583D01*
X21697Y29718D02*
X22397D01*
Y30768D02*
Y31418D01*
X21697Y30768D02*
Y31418D01*
X22397D01*
X21697Y29718D02*
Y30368D01*
X22397Y29718D02*
Y30368D01*
X12939Y22358D02*
X13589D01*
X12939Y21658D02*
X13589D01*
X11889D02*
Y22358D01*
Y21658D02*
X12539D01*
X11889Y22358D02*
X12539D01*
X13589Y21658D02*
Y22358D01*
X10282Y22800D02*
Y23500D01*
X8582D02*
X9232D01*
X8582Y22800D02*
X9232D01*
X8582D02*
Y23500D01*
X9632Y22800D02*
X10282D01*
X9632Y23500D02*
X10282D01*
X3311Y25459D02*
Y26109D01*
X4011Y25459D02*
Y26109D01*
X3311Y24409D02*
X4011D01*
Y25059D01*
X3311Y24409D02*
Y25059D01*
Y26109D02*
X4011D01*
X5991Y23430D02*
Y24130D01*
X4291D02*
X4941D01*
X4291Y23430D02*
X4941D01*
X4291D02*
Y24130D01*
X5341Y23430D02*
X5991D01*
X5341Y24130D02*
X5991D01*
X5341Y23185D02*
X5991D01*
X5341Y22485D02*
X5991D01*
X4291D02*
Y23185D01*
Y22485D02*
X4941D01*
X4291Y23185D02*
X4941D01*
X5991Y22485D02*
Y23185D01*
X4134Y21024D02*
Y22283D01*
X6102D01*
Y21024D02*
Y22283D01*
X4134Y21024D02*
X6102D01*
X7633Y19718D02*
Y20368D01*
X6933Y19718D02*
Y20368D01*
Y21418D02*
X7633D01*
X6933Y20768D02*
Y21418D01*
X7633Y20768D02*
Y21418D01*
X6933Y19718D02*
X7633D01*
X5989Y16844D02*
X6689D01*
Y17894D02*
Y18544D01*
X5989Y17894D02*
Y18544D01*
X6689D01*
X5989Y16844D02*
Y17494D01*
X6689Y16844D02*
Y17494D01*
X4593Y15783D02*
X5243D01*
X4593Y15083D02*
X5243D01*
X3543D02*
Y15783D01*
Y15083D02*
X4193D01*
X3543Y15783D02*
X4193D01*
X5243Y15083D02*
Y15783D01*
X5203Y13863D02*
Y14563D01*
X3503D02*
X4153D01*
X3503Y13863D02*
X4153D01*
X3503D02*
Y14563D01*
X4553Y13863D02*
X5203D01*
X4553Y14563D02*
X5203D01*
X5006Y8075D02*
Y8775D01*
X3306D02*
X3956D01*
X3306Y8075D02*
X3956D01*
X3306D02*
Y8775D01*
X4356Y8075D02*
X5006D01*
X4356Y8775D02*
X5006D01*
X7800Y18805D02*
Y19455D01*
X8500Y18805D02*
Y19455D01*
X7800Y17755D02*
X8500D01*
Y18405D01*
X7800Y17755D02*
Y18405D01*
Y19455D02*
X8500D01*
X6933D02*
X7633D01*
X6933Y17755D02*
Y18405D01*
X7633Y17755D02*
Y18405D01*
X6933Y17755D02*
X7633D01*
Y18805D02*
Y19455D01*
X6933Y18805D02*
Y19455D01*
X8421Y7080D02*
Y7730D01*
X7721Y7080D02*
Y7730D01*
Y8780D02*
X8421D01*
X7721Y8130D02*
Y8780D01*
X8421Y8130D02*
Y8780D01*
X7721Y7080D02*
X8421D01*
X6933D02*
X7633D01*
Y8130D02*
Y8780D01*
X6933Y8130D02*
Y8780D01*
X7633D01*
X6933Y7080D02*
Y7730D01*
X7633Y7080D02*
Y7730D01*
X14600Y15004D02*
X15250D01*
X14600Y15704D02*
X15250D01*
X16300Y15004D02*
Y15704D01*
X15650D02*
X16300D01*
X15650Y15004D02*
X16300D01*
X14600D02*
Y15704D01*
X27309Y5752D02*
X27959D01*
X26259D02*
Y6452D01*
X26909D01*
X27959Y5752D02*
Y6452D01*
X27309D02*
X27959D01*
X26259Y5752D02*
X26909D01*
X30398Y11935D02*
X31098D01*
X30398Y10235D02*
Y10885D01*
X31098Y10235D02*
Y10885D01*
X30398Y10235D02*
X31098D01*
Y11285D02*
Y11935D01*
X30398Y11285D02*
Y11935D01*
X18258Y18511D02*
X19458D01*
X18258Y16311D02*
Y18511D01*
X19458Y16311D02*
Y18511D01*
X18258Y16311D02*
X19458D01*
X21699Y16225D02*
Y16925D01*
X19999D02*
X20649D01*
X19999Y16225D02*
X20649D01*
X19999D02*
Y16925D01*
X21049Y16225D02*
X21699D01*
X21049Y16925D02*
X21699D01*
X13254Y19878D02*
X13904D01*
X13254Y19178D02*
X13904D01*
X12204D02*
Y19878D01*
Y19178D02*
X12854D01*
X12204Y19878D02*
X12854D01*
X13904Y19178D02*
Y19878D01*
X22978Y10162D02*
X23628D01*
X21928D02*
Y10862D01*
X22578D01*
X23628Y10162D02*
Y10862D01*
X22978D02*
X23628D01*
X21928Y10162D02*
X22578D01*
X13777Y5263D02*
X14643D01*
X13777Y8177D02*
X14643D01*
X13777Y5263D02*
Y8177D01*
X14643Y5263D02*
Y8177D01*
X15277Y5263D02*
X16143D01*
X15277Y8177D02*
X16143D01*
X15277Y5263D02*
Y8177D01*
X16143Y5263D02*
Y8177D01*
X16777Y5263D02*
X17643D01*
X16777Y8177D02*
X17643D01*
X16777Y5263D02*
Y8177D01*
X17643Y5263D02*
Y8177D01*
X18277Y5263D02*
X19143D01*
X18277Y8177D02*
X19143D01*
X18277Y5263D02*
Y8177D01*
X19143Y5263D02*
Y8177D01*
X19777Y5263D02*
X20643D01*
X19777Y8177D02*
X20643D01*
X19777Y5263D02*
Y8177D01*
X20643Y5263D02*
Y8177D01*
X19994Y17918D02*
Y18618D01*
X21044Y17918D02*
X21694D01*
X21044Y18618D02*
X21694D01*
Y17918D02*
Y18618D01*
X19994D02*
X20644D01*
X19994Y17918D02*
X20644D01*
X20304Y23578D02*
X21004D01*
X20304Y21878D02*
Y22528D01*
X21004Y21878D02*
Y22528D01*
X20304Y21878D02*
X21004D01*
Y22928D02*
Y23578D01*
X20304Y22928D02*
Y23578D01*
X18554Y19278D02*
X19254D01*
Y20328D02*
Y20978D01*
X18554Y20328D02*
Y20978D01*
X19254D01*
X18554Y19278D02*
Y19928D01*
X19254Y19278D02*
Y19928D01*
X18554Y21778D02*
X19254D01*
Y22828D02*
Y23478D01*
X18554Y22828D02*
Y23478D01*
X19254D01*
X18554Y21778D02*
Y22428D01*
X19254Y21778D02*
Y22428D01*
X27642Y23471D02*
X28342D01*
X27642Y21771D02*
Y22421D01*
X28342Y21771D02*
Y22421D01*
X27642Y21771D02*
X28342D01*
Y22821D02*
Y23471D01*
X27642Y22821D02*
Y23471D01*
X28604Y19848D02*
X29304D01*
Y20898D02*
Y21548D01*
X28604Y20898D02*
Y21548D01*
X29304D01*
X28604Y19848D02*
Y20498D01*
X29304Y19848D02*
Y20498D01*
X27604Y19848D02*
X28304D01*
Y20898D02*
Y21548D01*
X27604Y20898D02*
Y21548D01*
X28304D01*
X27604Y19848D02*
Y20498D01*
X28304Y19848D02*
Y20498D01*
X29691Y16067D02*
Y16767D01*
X27991D02*
X28641D01*
X27991Y16067D02*
X28641D01*
X27991D02*
Y16767D01*
X29041Y16067D02*
X29691D01*
X29041Y16767D02*
X29691D01*
X27986Y18115D02*
Y18815D01*
X29036Y18115D02*
X29686D01*
X29036Y18815D02*
X29686D01*
Y18115D02*
Y18815D01*
X27986D02*
X28636D01*
X27986Y18115D02*
X28636D01*
X30949Y5545D02*
X31649D01*
Y6595D02*
Y7245D01*
X30949Y6595D02*
Y7245D01*
X31649D01*
X30949Y5545D02*
Y6195D01*
X31649Y5545D02*
Y6195D01*
X1855Y20912D02*
X2555D01*
X1855Y19212D02*
Y19862D01*
X2555Y19212D02*
Y19862D01*
X1855Y19212D02*
X2555D01*
Y20262D02*
Y20912D01*
X1855Y20262D02*
Y20912D01*
X7093Y4335D02*
Y5035D01*
X5393D02*
X6043D01*
X5393Y4335D02*
X6043D01*
X5393D02*
Y5035D01*
X6443Y4335D02*
X7093D01*
X6443Y5035D02*
X7093D01*
X20054Y21378D02*
X21254D01*
X20054Y19178D02*
Y21378D01*
X21254Y19178D02*
Y21378D01*
X20054Y19178D02*
X21254D01*
X30614Y3556D02*
Y4206D01*
Y5256D02*
X31314D01*
Y4606D02*
Y5256D01*
X30614Y3556D02*
X31314D01*
Y4206D01*
X30614Y4606D02*
Y5256D01*
X29580Y2652D02*
X30230D01*
X31280Y1952D02*
Y2652D01*
X30630Y1952D02*
X31280D01*
X29580D02*
Y2652D01*
Y1952D02*
X30230D01*
X30630Y2652D02*
X31280D01*
X26422Y7611D02*
Y8261D01*
Y9311D02*
X27122D01*
Y8661D02*
Y9311D01*
X26422Y7611D02*
X27122D01*
Y8261D01*
X26422Y8661D02*
Y9311D01*
X32988Y12467D02*
Y13117D01*
X32288Y11417D02*
X32988D01*
X32288D02*
Y12067D01*
Y13117D02*
X32988D01*
X32288Y12467D02*
Y13117D01*
X32988Y11417D02*
Y12067D01*
X26028Y3655D02*
Y4305D01*
Y5355D02*
X26728D01*
Y4705D02*
Y5355D01*
X26028Y3655D02*
X26728D01*
Y4305D01*
X26028Y4705D02*
Y5355D01*
X29326Y22821D02*
Y23471D01*
X28626Y21771D02*
X29326D01*
X28626D02*
Y22421D01*
Y23471D02*
X29326D01*
X28626Y22821D02*
Y23471D01*
X29326Y21771D02*
Y22421D01*
X24217Y25112D02*
Y25762D01*
Y26812D02*
X24917D01*
Y26162D02*
Y26812D01*
X24217Y25112D02*
X24917D01*
Y25762D01*
X24217Y26162D02*
Y26812D01*
X27986Y15704D02*
X28636D01*
X29686Y15004D02*
Y15704D01*
X29036Y15004D02*
X29686D01*
X27986D02*
Y15704D01*
Y15004D02*
X28636D01*
X29036Y15704D02*
X29686D01*
X27986Y17791D02*
X28636D01*
X29686Y17091D02*
Y17791D01*
X29036Y17091D02*
X29686D01*
X27986D02*
Y17791D01*
Y17091D02*
X28636D01*
X29036Y17791D02*
X29686D01*
X31522Y16776D02*
X32172D01*
X30472D02*
Y17476D01*
X31122D01*
X32172Y16776D02*
Y17476D01*
X31522D02*
X32172D01*
X30472Y16776D02*
X31122D01*
X30466Y16492D02*
X31116D01*
X32166Y15792D02*
Y16492D01*
X31516Y15792D02*
X32166D01*
X30466D02*
Y16492D01*
Y15792D02*
X31116D01*
X31516Y16492D02*
X32166D01*
X28923Y11185D02*
X29573D01*
X27873D02*
Y11885D01*
X28523D01*
X29573Y11185D02*
Y11885D01*
X28923D02*
X29573D01*
X27873Y11185D02*
X28523D01*
X21928Y9059D02*
X22578D01*
X22978Y9759D02*
X23628D01*
Y9059D02*
Y9759D01*
X21928D02*
X22578D01*
X21928Y9059D02*
Y9759D01*
X22978Y9059D02*
X23628D01*
X27913Y12209D02*
X28563D01*
X28963Y12909D02*
X29613D01*
Y12209D02*
Y12909D01*
X27913D02*
X28563D01*
X27913Y12209D02*
Y12909D01*
X28963Y12209D02*
X29613D01*
X22939Y18618D02*
X23589D01*
X22939Y17918D02*
X23589D01*
X21889D02*
Y18618D01*
Y17918D02*
X22539D01*
X21889Y18618D02*
X22539D01*
X23589Y17918D02*
Y18618D01*
X11089Y18460D02*
X11739D01*
X11089Y17760D02*
X11739D01*
X10039D02*
Y18460D01*
Y17760D02*
X10689D01*
X10039Y18460D02*
X10689D01*
X11739Y17760D02*
Y18460D01*
X25427Y24099D02*
Y24799D01*
X26477Y24099D02*
X27127D01*
X26477Y24799D02*
X27127D01*
Y24099D02*
Y24799D01*
X25427D02*
X26077D01*
X25427Y24099D02*
X26077D01*
X22800Y26817D02*
X23500D01*
X22800Y25117D02*
Y25767D01*
X23500Y25117D02*
Y25767D01*
X22800Y25117D02*
X23500D01*
Y26167D02*
Y26817D01*
X22800Y26167D02*
Y26817D01*
X24056Y24099D02*
Y24799D01*
X22356D02*
X23006D01*
X22356Y24099D02*
X23006D01*
X22356D02*
Y24799D01*
X23406Y24099D02*
X24056D01*
X23406Y24799D02*
X24056D01*
X25674Y26778D02*
X26374D01*
X25674Y25078D02*
Y25728D01*
X26374Y25078D02*
Y25728D01*
X25674Y25078D02*
X26374D01*
Y26128D02*
Y26778D01*
X25674Y26128D02*
Y26778D01*
D88*
X9473Y18555D02*
X9623Y18705D01*
X8723D02*
X8873Y18555D01*
X8723Y20655D02*
X9623D01*
X8723Y18705D02*
Y19305D01*
X9623Y18705D02*
Y19305D01*
X8723Y19905D02*
Y20655D01*
X9623Y19905D02*
Y20655D01*
X27159Y2752D02*
X27909D01*
X27159Y1852D02*
X27909D01*
X28509Y2752D02*
X29109D01*
X28509Y1852D02*
X29109D01*
X27159D02*
Y2752D01*
X29109Y1852D02*
X29259Y2002D01*
X29109Y2752D02*
X29259Y2602D01*
X21216Y9820D02*
X21366Y9670D01*
X21216Y8920D02*
X21366Y9070D01*
X19266Y8920D02*
Y9820D01*
X20616Y8920D02*
X21216D01*
X20616Y9820D02*
X21216D01*
X19266Y8920D02*
X20016D01*
X19266Y9820D02*
X20016D01*
X21216Y10962D02*
X21366Y10812D01*
X21216Y10062D02*
X21366Y10212D01*
X19266Y10062D02*
Y10962D01*
X20616Y10062D02*
X21216D01*
X20616Y10962D02*
X21216D01*
X19266Y10062D02*
X20016D01*
X19266Y10962D02*
X20016D01*
X28240Y5802D02*
X28390Y5652D01*
X28240Y6402D02*
X28390Y6552D01*
X30340Y5652D02*
Y6552D01*
X28390D02*
X28990D01*
X28390Y5652D02*
X28990D01*
X29590Y6552D02*
X30340D01*
X29590Y5652D02*
X30340D01*
X14641Y16985D02*
X14791Y16835D01*
X14641Y16085D02*
X14791Y16235D01*
X12691Y16085D02*
Y16985D01*
X14041Y16085D02*
X14641D01*
X14041Y16985D02*
X14641D01*
X12691Y16085D02*
X13441D01*
X12691Y16985D02*
X13441D01*
M02*
