%FSLAX24Y24*%
%MOIN*%
G70*
G01*
G75*
%ADD10C,0.0039*%
%ADD11C,0.1102*%
%ADD12C,0.1063*%
%ADD13C,0.0394*%
%ADD14R,0.0940X0.0590*%
%ADD15O,0.0256X0.0866*%
%ADD16R,0.0256X0.0866*%
%ADD17R,0.0827X0.0394*%
%ADD18R,0.0394X0.0827*%
%ADD19R,0.1083X0.0850*%
%ADD20R,0.0709X0.1102*%
%ADD21R,0.0709X0.0354*%
%ADD22R,0.0500X0.0600*%
%ADD23R,0.0709X0.0394*%
%ADD24R,0.1102X0.0472*%
%ADD25O,0.0787X0.0394*%
%ADD26R,0.0787X0.0394*%
%ADD27O,0.0800X0.0240*%
%ADD28R,0.0800X0.1000*%
%ADD29R,0.0551X0.0394*%
%ADD30R,0.1181X0.0906*%
%ADD31R,0.0394X0.0984*%
%ADD32O,0.0787X0.1299*%
%ADD33R,0.0315X0.0551*%
%ADD34R,0.0600X0.0500*%
%ADD35O,0.1299X0.0787*%
%ADD36R,0.0551X0.0315*%
%ADD37O,0.0787X0.1299*%
%ADD38R,0.0315X0.0551*%
%ADD39R,0.1000X0.0800*%
%ADD40R,0.0394X0.0709*%
%ADD41R,0.0984X0.0394*%
%ADD42R,0.0906X0.1181*%
%ADD43O,0.0240X0.0800*%
%ADD44C,0.0512*%
%ADD45C,0.0276*%
%ADD46C,0.0236*%
%ADD47C,0.0098*%
%ADD48C,0.0315*%
%ADD49C,0.0394*%
%ADD50C,0.0433*%
%ADD51C,0.0138*%
%ADD52C,0.0098*%
%ADD53C,0.0118*%
%ADD54C,0.0472*%
%ADD55C,0.0071*%
%ADD56C,0.0100*%
%ADD57R,0.0315X0.0827*%
%ADD58R,0.1378X0.0748*%
%ADD59R,0.1654X0.0984*%
%ADD60R,0.0827X0.0315*%
%ADD61R,0.0315X0.0827*%
%ADD62R,0.2087X0.1220*%
%ADD63R,0.1575X0.1220*%
%ADD64R,0.1575X0.1220*%
%ADD65R,0.1339X0.1496*%
%ADD66R,0.0500X0.0800*%
%ADD67R,0.1500X0.1000*%
%ADD68C,0.0500*%
%ADD69C,0.0600*%
%ADD70C,0.0750*%
%ADD71C,0.0400*%
%ADD72R,0.0400X0.0400*%
%ADD73C,0.1024*%
%ADD74R,0.0800X0.0800*%
%ADD75C,0.0800*%
%ADD76C,0.2750*%
%ADD77P,0.0500X8X0*%
%ADD78C,0.2362*%
%ADD79C,0.2362*%
%ADD80C,0.0551*%
%ADD81C,0.0512*%
D10*
X24262Y3751D02*
X24259Y3851D01*
X24250Y3950D01*
X24234Y4049D01*
X24212Y4146D01*
X24185Y4242D01*
X24151Y4336D01*
X24111Y4428D01*
X24066Y4517D01*
X24015Y4602D01*
X23959Y4685D01*
X23898Y4764D01*
X23833Y4839D01*
X23762Y4910D01*
X23687Y4976D01*
X23609Y5037D01*
X23526Y5093D01*
X23441Y5144D01*
X23352Y5190D01*
X23260Y5230D01*
X23166Y5264D01*
X23071Y5292D01*
X22973Y5314D01*
X22875Y5330D01*
X22776Y5339D01*
X22676Y5343D01*
X22576Y5340D01*
X22477Y5331D01*
X22378Y5316D01*
X22281Y5294D01*
X21868Y5126D02*
X21783Y5073D01*
X21703Y5015D01*
X21626Y4952D01*
X21553Y4884D01*
X21484Y4812D01*
X21420Y4736D01*
X21361Y4656D01*
X21308Y4573D01*
X21259Y4486D01*
X21216Y4397D01*
X21178Y4305D01*
X21147Y4211D01*
X21121Y4115D01*
X21101Y4017D01*
X21088Y3919D01*
X21080Y3820D01*
X21079Y3720D01*
X21084Y3621D01*
X21096Y3522D01*
X21113Y3425D01*
X21136Y3328D01*
X21166Y3233D01*
X21201Y3140D01*
X21242Y3050D01*
X21289Y2962D01*
X21341Y2877D01*
X21398Y2796D01*
X21460Y2718D01*
X21527Y2645D01*
X21598Y2576D01*
X21673Y2511D01*
X21753Y2451D01*
X21836Y2396D01*
X21922Y2347D01*
X22011Y2303D01*
X22103Y2265D01*
X22196Y2232D01*
X22292Y2205D01*
X22389Y2185D01*
X22488Y2170D01*
X22587Y2162D01*
X22686Y2160D01*
X22785Y2164D01*
X22884Y2174D01*
X22982Y2191D01*
X23079Y2213D01*
X23174Y2242D01*
X23267Y2276D01*
X23358Y2316D01*
X23447Y2362D01*
X23532Y2413D01*
X23614Y2469D01*
X23692Y2531D01*
X23766Y2597D01*
X23836Y2667D01*
X23901Y2742D01*
X23962Y2821D01*
X24017Y2903D01*
X24068Y2989D01*
X24112Y3078D01*
X24152Y3169D01*
X24185Y3262D01*
X24213Y3358D01*
X24234Y3455D01*
X24250Y3553D01*
X24259Y3652D01*
X24262Y3751D01*
X20473Y4038D02*
X20559Y4096D01*
X20473Y4038D02*
X20559Y4096D01*
X19176Y5075D02*
X19116Y4986D01*
X19095Y4881D01*
X19176Y5075D02*
X19116Y4986D01*
X19095Y4881D01*
X20377Y4694D02*
X20309Y4762D01*
X20232Y4817D01*
X20147Y4861D01*
X20056Y4890D01*
X19962Y4906D01*
X19866Y4906D01*
X19772Y4892D01*
X19095Y4848D02*
X18986Y4888D01*
X19752Y3695D02*
X19847Y3678D01*
X19943Y3676D01*
X20039Y3688D01*
X20131Y3716D01*
X20218Y3757D01*
X20297Y3811D01*
X20368Y3877D01*
X20426Y3954D01*
X20473Y4038D01*
X19987Y3211D02*
X19980Y3304D01*
X19959Y3394D01*
X19925Y3480D01*
X19879Y3561D01*
X19821Y3633D01*
X19752Y3695D01*
X18831Y2914D02*
X18887Y2829D01*
X18956Y2755D01*
X19037Y2693D01*
X19126Y2645D01*
X19222Y2613D01*
X19323Y2597D01*
X19424Y2597D01*
X19524Y2614D01*
X19620Y2648D01*
X19709Y2696D01*
X19789Y2759D01*
X19858Y2834D01*
X19913Y2919D01*
X19954Y3012D01*
X19979Y3110D01*
X19987Y3211D01*
X17211Y3994D02*
X17280Y3893D01*
X17369Y3807D01*
X17052D02*
X17141Y3893D01*
X17211Y3994D01*
X17369Y3807D02*
X17264Y3826D01*
X17157D01*
X17052Y3807D01*
X16512Y3695D02*
X16617Y3677D01*
X16724D01*
X16829Y3695D01*
X16740Y3610D01*
X16671Y3509D01*
X17751Y2914D02*
X17806Y2830D01*
X17875Y2756D01*
X17955Y2694D01*
X18045Y2646D01*
X18140Y2613D01*
X18240Y2597D01*
X18341D01*
X18441Y2613D01*
X18537Y2646D01*
X18626Y2694D01*
X18706Y2756D01*
X18775Y2830D01*
X18831Y2914D01*
X16671Y2914D02*
X16726Y2830D01*
X16795Y2756D01*
X16875Y2694D01*
X16965Y2646D01*
X17060Y2613D01*
X17160Y2597D01*
X17261D01*
X17361Y2613D01*
X17457Y2646D01*
X17546Y2694D01*
X17626Y2756D01*
X17695Y2830D01*
X17751Y2914D01*
X16671Y3509D02*
X16601Y3610D01*
X16512Y3695D01*
X15218Y3675D02*
X15238Y3581D01*
X15279Y3494D01*
X15338Y3419D01*
X15218Y3675D02*
X15238Y3581D01*
X15278Y3495D01*
X15338Y3420D01*
X15515Y3242D02*
X15518Y3145D01*
X15536Y3049D01*
X15569Y2958D01*
X15616Y2872D01*
X15675Y2796D01*
X15747Y2729D01*
X15827Y2675D01*
X15916Y2633D01*
X16009Y2607D01*
X16106Y2595D01*
X16203Y2599D01*
X16299Y2618D01*
X16390Y2652D01*
X16475Y2700D01*
X16551Y2761D01*
X16617Y2832D01*
X16671Y2914D01*
X14422Y3751D02*
X14419Y3851D01*
X14410Y3950D01*
X14394Y4048D01*
X14373Y4145D01*
X14345Y4240D01*
X14312Y4334D01*
X14272Y4425D01*
X14228Y4514D01*
X14177Y4599D01*
X14122Y4682D01*
X14061Y4760D01*
X13996Y4835D01*
X13926Y4906D01*
X13852Y4972D01*
X13774Y5033D01*
X13692Y5090D01*
X13607Y5141D01*
X13518Y5187D01*
X13428Y5227D01*
X13334Y5261D01*
X13239Y5290D01*
X13142Y5312D01*
X13044Y5328D01*
X12946Y5339D01*
X12846Y5343D01*
X12747Y5341D01*
X12648Y5332D01*
X12550Y5318D01*
X12452Y5297D01*
X12357Y5271D01*
X12263Y5238D01*
X12171Y5200D01*
X12082Y5156D01*
X11996Y5106D01*
X11913Y5052D01*
X11834Y4992D01*
X11758Y4927D01*
X11687Y4858D01*
X11620Y4785D01*
Y2718D02*
X11687Y2645D01*
X11758Y2575D01*
X11834Y2511D01*
X11913Y2451D01*
X11996Y2396D01*
X12082Y2347D01*
X12171Y2303D01*
X12263Y2265D01*
X12357Y2232D01*
X12452Y2205D01*
X12550Y2185D01*
X12648Y2170D01*
X12747Y2162D01*
X12846Y2160D01*
X12946Y2164D01*
X13044Y2174D01*
X13142Y2191D01*
X13239Y2213D01*
X13334Y2242D01*
X13427Y2276D01*
X13518Y2316D01*
X13607Y2362D01*
X13692Y2413D01*
X13774Y2469D01*
X13852Y2531D01*
X13926Y2597D01*
X13996Y2667D01*
X14061Y2742D01*
X14122Y2821D01*
X14177Y2903D01*
X14228Y2989D01*
X14272Y3078D01*
X14312Y3169D01*
X14345Y3263D01*
X14373Y3358D01*
X14394Y3455D01*
X14410Y3553D01*
X14419Y3652D01*
X14422Y3751D01*
X23622Y7205D02*
X24370Y6457D01*
X23573Y7205D02*
X24370Y6408D01*
X23517Y7205D02*
X24370Y6352D01*
X23462Y7205D02*
X24370Y6296D01*
X23406Y7205D02*
X24370Y6241D01*
X23350Y7205D02*
X24370Y6185D01*
X23295Y7205D02*
X24370Y6129D01*
X23239Y7205D02*
X24370Y6074D01*
X23183Y7205D02*
X24370Y6018D01*
X23128Y7205D02*
X24370Y5962D01*
X23072Y7205D02*
X24370Y5907D01*
X23016Y7204D02*
X24370Y5851D01*
X22281Y7204D02*
X23622Y7205D01*
X22281Y5856D02*
X23626Y7201D01*
X22961Y7204D02*
X24370Y5795D01*
X22281Y6023D02*
X23463Y7205D01*
X22281Y6079D02*
X23407Y7205D01*
X22281Y5912D02*
X23574Y7205D01*
X22281Y5967D02*
X23518Y7205D01*
X22281Y6246D02*
X23240Y7205D01*
X22281Y6301D02*
X23184Y7205D01*
X22281Y6134D02*
X23351Y7205D01*
X22281Y6190D02*
X23295Y7205D01*
X22281Y6468D02*
X23017Y7204D01*
X22281Y6524D02*
X22961Y7204D01*
X22281Y6357D02*
X23128Y7205D01*
X22281Y6413D02*
X23073Y7205D01*
X22281Y6635D02*
X22850Y7204D01*
X22281Y6691D02*
X22794Y7204D01*
X22281Y6580D02*
X22906Y7204D01*
X22905D02*
X24370Y5739D01*
X22849Y7204D02*
X24370Y5684D01*
X22794Y7204D02*
X24370Y5628D01*
X22738Y7204D02*
X24370Y5572D01*
X22682Y7204D02*
X24370Y5517D01*
X22627Y7204D02*
X24370Y5461D01*
X22571Y7204D02*
X24370Y5405D01*
X22516Y7204D02*
X24370Y5350D01*
X23144Y5271D02*
X24350Y6477D01*
X23101Y5284D02*
X24322Y6505D01*
X22460Y7204D02*
X24370Y5294D01*
X23186Y5257D02*
X24370Y6442D01*
X22404Y7204D02*
X24370Y5238D01*
X22349Y7204D02*
X24370Y5183D01*
X22293Y7204D02*
X24370Y5127D01*
X22714Y5342D02*
X24099Y6728D01*
X22659Y5343D02*
X24071Y6755D01*
X22601Y5341D02*
X24043Y6783D01*
X22542Y5338D02*
X24016Y6811D01*
X22480Y5331D02*
X23988Y6839D01*
X22415Y5322D02*
X23960Y6867D01*
X22347Y5310D02*
X23932Y6895D01*
X23011Y5306D02*
X24266Y6561D01*
X22965Y5315D02*
X24238Y6588D01*
X23057Y5295D02*
X24294Y6533D01*
X22918Y5324D02*
X24210Y6616D01*
X22869Y5330D02*
X24183Y6644D01*
X22819Y5336D02*
X24155Y6672D01*
X22767Y5340D02*
X24127Y6700D01*
X22281Y6858D02*
X22627Y7204D01*
X22281Y6914D02*
X22571Y7204D01*
X22281Y6747D02*
X22738Y7204D01*
X22281Y6802D02*
X22683Y7204D01*
X22281Y7081D02*
X22404Y7204D01*
X22281Y7137D02*
X22349Y7204D01*
X22281Y6969D02*
X22516Y7204D01*
X22281Y7025D02*
X22460Y7204D01*
X21068Y7204D02*
X21139Y7133D01*
X21013Y7204D02*
X21139Y7077D01*
X20957Y7204D02*
X21139Y7022D01*
X20902Y7204D02*
X21139Y6966D01*
X20781Y7204D02*
X21139Y7204D01*
X20846Y7204D02*
X21139Y6910D01*
X20790Y7204D02*
X21139Y6855D01*
X20781Y6861D02*
X21123Y7204D01*
X20781Y6917D02*
X21067Y7204D01*
X20781Y6806D02*
X21139Y7164D01*
X20781Y7157D02*
X21139Y6799D01*
X20781Y6750D02*
X21139Y7108D01*
X20781Y7102D02*
X21139Y6743D01*
X20781Y6694D02*
X21139Y7053D01*
X20781Y7046D02*
X21139Y6688D01*
X20781Y6639D02*
X21139Y6997D01*
X20781Y6990D02*
X21139Y6632D01*
X20781Y6583D02*
X21139Y6941D01*
X20781Y6935D02*
X21139Y6576D01*
X20781Y6527D02*
X21139Y6886D01*
X20781Y6879D02*
X21139Y6521D01*
X22281Y5800D02*
X23654Y7173D01*
X22281Y5952D02*
Y7204D01*
Y7161D02*
X24370Y5071D01*
X22281Y5745D02*
X23682Y7145D01*
X22281Y5633D02*
X23737Y7090D01*
X22281Y5689D02*
X23709Y7117D01*
X22281Y5522D02*
X23793Y7034D01*
X22281Y5578D02*
X23765Y7062D01*
X22281Y5411D02*
X23849Y6978D01*
X22281Y5466D02*
X23821Y7006D01*
X22281Y5355D02*
X23876Y6950D01*
X22281Y5299D02*
X23904Y6923D01*
X20781Y6472D02*
X21139Y6830D01*
X20781Y6823D02*
X21139Y6465D01*
X20781Y6416D02*
X21139Y6774D01*
X20781Y6768D02*
X21139Y6409D01*
Y5952D02*
Y7204D01*
X20781Y6360D02*
X21139Y6719D01*
X20781Y6712D02*
X21139Y6354D01*
X20781Y6305D02*
X21139Y6663D01*
X20781Y6656D02*
X21139Y6298D01*
X20781Y6249D02*
X21139Y6607D01*
X20781Y6600D02*
X21139Y6242D01*
X20781Y6193D02*
X21139Y6552D01*
X20781Y6545D02*
X21139Y6187D01*
X20781Y6138D02*
X21139Y6496D01*
X20781Y6489D02*
X21139Y6131D01*
X22210Y5952D02*
X22281Y6023D01*
X22155Y5952D02*
X22281Y6079D01*
X22226Y5913D02*
X22266Y5952D01*
X22209D02*
X22248Y5913D01*
X22171D02*
X22210Y5952D01*
X22153D02*
X22192Y5913D01*
X22115D02*
X22155Y5952D01*
X22097D02*
X22137Y5913D01*
X22281Y5880D02*
X22826Y5335D01*
X22281Y5824D02*
X22765Y5340D01*
X22281Y5769D02*
X22707Y5342D01*
X22281Y5713D02*
X22651Y5343D01*
X22248Y5913D02*
X22281Y5880D01*
X22192Y5913D02*
X22281Y5824D01*
Y5657D02*
X22597Y5341D01*
X22059Y5913D02*
X22099Y5952D01*
X22042D02*
X22081Y5913D01*
X22004D02*
X22043Y5952D01*
X21986D02*
X22025Y5913D01*
X21948D02*
X21987Y5952D01*
X21930D02*
X21970Y5913D01*
X21892D02*
X21932Y5952D01*
X21874D02*
X21914Y5913D01*
X21837D02*
X21876Y5952D01*
X21819D02*
X21858Y5913D01*
X21781D02*
X21820Y5952D01*
X21763D02*
X21802Y5913D01*
X21725D02*
X21765Y5952D01*
X21707D02*
X21747Y5913D01*
X21670D02*
X21709Y5952D01*
X23306Y5211D02*
X24370Y6275D01*
X23267Y5227D02*
X24370Y6330D01*
X23344Y5193D02*
X24370Y6219D01*
X23382Y5175D02*
X24370Y6163D01*
X23227Y5243D02*
X24370Y6386D01*
X22281Y6214D02*
X23269Y5226D01*
X22281Y6325D02*
X23491Y5115D01*
X22281Y6270D02*
X23369Y5181D01*
X23490Y5116D02*
X24370Y5996D01*
X23454Y5136D02*
X24370Y6052D01*
X23524Y5095D02*
X24370Y5941D01*
X23558Y5073D02*
X24370Y5885D01*
X22281Y6158D02*
X23180Y5259D01*
X22281Y6103D02*
X23100Y5284D01*
X23418Y5156D02*
X24370Y6108D01*
X22281Y6047D02*
X23025Y5303D01*
X22281Y5602D02*
X22545Y5338D01*
X22281Y5991D02*
X22955Y5317D01*
X22281Y5294D02*
Y5913D01*
Y5546D02*
X22494Y5333D01*
X22281Y5490D02*
X22444Y5327D01*
X22264Y5952D02*
X22889Y5328D01*
X22281Y5435D02*
X22396Y5319D01*
X22281Y5379D02*
X22350Y5310D01*
X22281Y5323D02*
X22304Y5300D01*
X21810Y5126D02*
X21832Y5104D01*
X21760Y5057D02*
X21829Y5126D01*
X21755D02*
X21798Y5082D01*
X21699Y5126D02*
X21765Y5060D01*
X21652Y5952D02*
X21691Y5913D01*
X21614D02*
X21653Y5952D01*
X21596D02*
X21635Y5913D01*
X21558D02*
X21598Y5952D01*
X21139D02*
X22281D01*
X21540D02*
X21580Y5913D01*
X21503D02*
X21542Y5952D01*
X21485D02*
X21524Y5913D01*
X21447D02*
X21486Y5952D01*
X21429D02*
X21468Y5913D01*
X21391D02*
X21431Y5952D01*
X21373D02*
X21413Y5913D01*
X21336D02*
X21375Y5952D01*
X21318D02*
X21357Y5913D01*
X21139D02*
X22281D01*
X20781Y6082D02*
X21139Y6440D01*
X20781Y6433D02*
X21139Y6075D01*
X21262Y5952D01*
X20781Y6026D02*
X21139Y6385D01*
X20781Y6378D02*
X21139Y6019D01*
X20781Y5971D02*
X21139Y6329D01*
X20781Y6322D02*
X21139Y5964D01*
X21280Y5913D02*
X21319Y5952D01*
X21262D02*
X21301Y5913D01*
X21224D02*
X21264Y5952D01*
X21206D02*
X21246Y5913D01*
X21139Y6019D02*
X21206Y5952D01*
X21169Y5913D02*
X21208Y5952D01*
X21151D02*
X21190Y5913D01*
X20779D02*
X21139Y6273D01*
X20781Y6266D02*
X21139Y5908D01*
X20781Y5859D02*
X21139Y6218D01*
X20781Y6211D02*
X21139Y5852D01*
X20781Y5804D02*
X21139Y6162D01*
X20781Y6155D02*
X21139Y5797D01*
X20781Y5748D02*
X21139Y6106D01*
X20781Y6099D02*
X21139Y5741D01*
Y5828D02*
X21224Y5913D01*
X21139Y5883D02*
X21169Y5913D01*
X21588Y5126D02*
X21868D01*
X20781Y5692D02*
X21139Y6050D01*
X20781Y6044D02*
X21139Y5685D01*
X20781Y5637D02*
X21139Y5995D01*
X20781Y5988D02*
X21139Y5630D01*
X20781Y5581D02*
X21152Y5952D01*
X20781Y5525D02*
X21139Y5883D01*
X20781Y5877D02*
X21139Y5518D01*
Y5456D02*
Y5913D01*
X20761Y5952D02*
X21139Y5574D01*
X20781Y5469D02*
X21139Y5828D01*
X20781Y5821D02*
X21139Y5463D01*
X20781Y5414D02*
X21139Y5772D01*
X20781Y5765D02*
X21115Y5432D01*
X20781Y5358D02*
X21139Y5716D01*
X20781Y5302D02*
X21139Y5661D01*
X20781Y5247D02*
X21139Y5605D01*
X20781Y5191D02*
X21139Y5549D01*
X20781Y5135D02*
X21139Y5494D01*
X20781Y7084D02*
X20900Y7204D01*
X20781Y7140D02*
X20845Y7204D01*
X20781Y6973D02*
X21012Y7204D01*
X20781Y7028D02*
X20956Y7204D01*
X20781Y5952D02*
Y7204D01*
X20707Y5952D02*
X20781Y6026D01*
X20723Y5913D02*
X20763Y5952D01*
X20705D02*
X20745Y5913D01*
X20668D02*
X20707Y5952D01*
X20650D02*
X20689Y5913D01*
X19639Y5952D02*
X20781D01*
X20612Y5913D02*
X20651Y5952D01*
X20594D02*
X20633Y5913D01*
X19566Y7203D02*
X19639Y7130D01*
X19510Y7203D02*
X19639Y7074D01*
X19454Y7203D02*
X19639Y7018D01*
Y5952D02*
Y7203D01*
X19281Y7203D02*
X19639Y7203D01*
X19399Y7203D02*
X19639Y6963D01*
X19343Y7203D02*
X19639Y6907D01*
X19287Y7203D02*
X19639Y6851D01*
X19281Y6865D02*
X19619Y7203D01*
X19281Y6920D02*
X19564Y7203D01*
X19639Y6072D02*
X19759Y5952D01*
X19639Y6016D02*
X19703Y5952D01*
X19281Y7032D02*
X19452Y7203D01*
X19281Y7087D02*
X19396Y7203D01*
X19281Y6976D02*
X19508Y7203D01*
X20556Y5913D02*
X20596Y5952D01*
X20538D02*
X20578Y5913D01*
X20500D02*
X20540Y5952D01*
X20483D02*
X20522Y5913D01*
X20445D02*
X20484Y5952D01*
X20427D02*
X20466Y5913D01*
X20389D02*
X20428Y5952D01*
X20371D02*
X20411Y5913D01*
X20333D02*
X20373Y5952D01*
X20315D02*
X20355Y5913D01*
X20278D02*
X20317Y5952D01*
X20260D02*
X20299Y5913D01*
X20222D02*
X20261Y5952D01*
X20204D02*
X20244Y5913D01*
X20166D02*
X20206Y5952D01*
X20148D02*
X20188Y5913D01*
X20111D02*
X20150Y5952D01*
X20093D02*
X20132Y5913D01*
X20055D02*
X20094Y5952D01*
X20037D02*
X20076Y5913D01*
X19999D02*
X20039Y5952D01*
X19981D02*
X20021Y5913D01*
X19944D02*
X19983Y5952D01*
X19926D02*
X19965Y5913D01*
X19888D02*
X19927Y5952D01*
X19870D02*
X19909Y5913D01*
X19832D02*
X19872Y5952D01*
X19814D02*
X19854Y5913D01*
X19777D02*
X19816Y5952D01*
X19281Y6809D02*
X19639Y7167D01*
X19281Y7154D02*
X19639Y6796D01*
X19281Y6753D02*
X19639Y7112D01*
X19281Y7098D02*
X19639Y6740D01*
X19281Y6698D02*
X19639Y7056D01*
X19281Y7043D02*
X19639Y6684D01*
X19281Y6642D02*
X19639Y7000D01*
X19281Y6987D02*
X19639Y6629D01*
X19281Y6586D02*
X19639Y6945D01*
X19281Y6931D02*
X19639Y6573D01*
X19281Y6531D02*
X19639Y6889D01*
X19281Y6876D02*
X19639Y6517D01*
X19281Y6475D02*
X19639Y6833D01*
X19281Y6820D02*
X19639Y6462D01*
X19281Y6419D02*
X19639Y6778D01*
X19281Y7143D02*
X19341Y7203D01*
X18063Y7203D02*
X18139Y7127D01*
X18007Y7203D02*
X18139Y7071D01*
X17952Y7203D02*
X18139Y7015D01*
X17896Y7202D02*
X18139Y6959D01*
X17840Y7202D02*
X18139Y6904D01*
X19281Y6764D02*
X19639Y6406D01*
X19281Y6364D02*
X19639Y6722D01*
X19281Y6709D02*
X19639Y6350D01*
X19281Y6308D02*
X19639Y6666D01*
X19281Y6653D02*
X19639Y6295D01*
X19281Y6252D02*
X19639Y6611D01*
X19281Y6597D02*
X19639Y6239D01*
X19281Y6197D02*
X19639Y6555D01*
X19281Y6541D02*
X19639Y6183D01*
X19281Y6141D02*
X19639Y6499D01*
X19281Y6486D02*
X19639Y6128D01*
X19281Y6085D02*
X19639Y6444D01*
X19281Y6430D02*
X19639Y6072D01*
X19281Y6030D02*
X19639Y6388D01*
X19281Y6375D02*
X19639Y6016D01*
X19281Y5974D02*
X19639Y6332D01*
X19281Y6319D02*
X19639Y5961D01*
X19276Y5913D02*
X19639Y6276D01*
X19281Y6263D02*
X19639Y5905D01*
X19281Y5863D02*
X19639Y6221D01*
X19281Y6208D02*
X19639Y5849D01*
X19281Y5807D02*
X19639Y6165D01*
X19281Y5952D02*
Y7203D01*
Y6152D02*
X19639Y5794D01*
X19281Y5751D02*
X19639Y6109D01*
X19281Y6096D02*
X19639Y5738D01*
X18139Y5952D02*
Y7203D01*
X19281Y5696D02*
X19639Y6054D01*
X19281Y6040D02*
X19639Y5682D01*
X19259Y5952D02*
X19281Y5974D01*
Y5640D02*
X19639Y5998D01*
X19281Y5985D02*
X19639Y5627D01*
X19204Y5952D02*
X19281Y6030D01*
X18139Y6069D02*
X18255Y5952D01*
X18139Y6013D02*
X18200Y5952D01*
X19759D02*
X19798Y5913D01*
X19721D02*
X19760Y5952D01*
X19703D02*
X19742Y5913D01*
X19665D02*
X19705Y5952D01*
X19639Y5913D02*
X20781D01*
X19647Y5952D02*
X19687Y5913D01*
X19281Y5584D02*
X19649Y5952D01*
X19258D02*
X19639Y5571D01*
X20745Y5913D02*
X20781Y5877D01*
X20689Y5913D02*
X20781Y5821D01*
Y5710D02*
X21087Y5404D01*
X20781Y5654D02*
X21059Y5376D01*
X19639Y5831D02*
X19721Y5913D01*
X19639Y5887D02*
X19665Y5913D01*
X19639Y5539D02*
Y5913D01*
X19241D02*
X19281Y5873D01*
X19220Y5913D02*
X19259Y5952D01*
X19281Y5528D02*
X19639Y5887D01*
X19281Y5873D02*
X19627Y5527D01*
X19202Y5952D02*
X19241Y5913D01*
X19164D02*
X19204Y5952D01*
X19186Y5913D02*
X19281Y5818D01*
Y5473D02*
X19639Y5831D01*
X19281Y5818D02*
X19599Y5499D01*
X19281Y5417D02*
X19639Y5775D01*
X19281Y5762D02*
X19572Y5471D01*
X19281Y5706D02*
X19544Y5444D01*
X19281Y5651D02*
X19516Y5416D01*
X19281Y5361D02*
X19639Y5720D01*
X20781Y5598D02*
X21031Y5348D01*
X20781Y5543D02*
X21003Y5320D01*
X20781Y5487D02*
X20975Y5292D01*
X20781Y5126D02*
Y5913D01*
Y5431D02*
X20948Y5265D01*
X19281Y5306D02*
X19639Y5664D01*
X20781Y5376D02*
X20920Y5237D01*
X20781Y5320D02*
X20892Y5209D01*
X20781Y5264D02*
X20864Y5181D01*
X20781Y5209D02*
X20836Y5153D01*
X20781Y5153D02*
X20808Y5125D01*
X20753Y5126D02*
X20780Y5098D01*
X20715Y5126D02*
X20781Y5191D01*
X20660Y5126D02*
X20781Y5247D01*
X20005Y5126D02*
X20781D01*
X19281Y5250D02*
X19639Y5608D01*
X19281Y5595D02*
X19488Y5388D01*
X19281Y5194D02*
X19639Y5553D01*
X19281Y5181D02*
Y5913D01*
Y5539D02*
X19460Y5360D01*
X19281Y5484D02*
X19432Y5332D01*
X19281Y5181D02*
X19639Y5539D01*
X19281Y5428D02*
X19405Y5304D01*
X19281Y5372D02*
X19377Y5276D01*
X19281Y5317D02*
X19349Y5249D01*
X19281Y5261D02*
X19321Y5221D01*
X19226Y5126D02*
X19281Y5181D01*
X19212Y5126D02*
X19281Y5194D01*
X19156Y5126D02*
X19281Y5250D01*
X19146Y5952D02*
X19186Y5913D01*
X19109D02*
X19148Y5952D01*
X19091D02*
X19130Y5913D01*
X19053D02*
X19092Y5952D01*
X18139D02*
X19281D01*
X19035D02*
X19074Y5913D01*
X18997D02*
X19037Y5952D01*
X18979D02*
X19019Y5913D01*
X18941D02*
X18981Y5952D01*
X18924D02*
X18963Y5913D01*
X18886D02*
X18925Y5952D01*
X18868D02*
X18907Y5913D01*
X18830D02*
X18870Y5952D01*
X18812D02*
X18852Y5913D01*
X18774D02*
X18814Y5952D01*
X18757D02*
X18796Y5913D01*
X18719D02*
X18758Y5952D01*
X18701D02*
X18740Y5913D01*
X18663D02*
X18702Y5952D01*
X18645D02*
X18685Y5913D01*
X18607D02*
X18647Y5952D01*
X18590D02*
X18629Y5913D01*
X18552D02*
X18591Y5952D01*
X18534D02*
X18573Y5913D01*
X18496D02*
X18535Y5952D01*
X18478D02*
X18518Y5913D01*
X18440D02*
X18480Y5952D01*
X18423D02*
X18462Y5913D01*
X18385D02*
X18424Y5952D01*
X18367D02*
X18406Y5913D01*
X18329D02*
X18368Y5952D01*
X18311D02*
X18351Y5913D01*
X18273D02*
X18313Y5952D01*
X18255D02*
X18295Y5913D01*
X18218D02*
X18257Y5952D01*
X18200D02*
X18239Y5913D01*
X18162D02*
X18201Y5952D01*
X18986Y5126D02*
X19226D01*
X18144Y5952D02*
X18184Y5913D01*
X18254Y5126D02*
X18434D01*
X18288Y5092D02*
X18321Y5126D01*
X18139Y5913D02*
X19281D01*
X18139Y5834D02*
X18218Y5913D01*
X18139Y5241D02*
X18254Y5126D01*
X18139Y5890D02*
X18162Y5913D01*
X17898Y5482D02*
X18139Y5723D01*
X17926Y5454D02*
X18139Y5667D01*
Y5241D02*
Y5913D01*
X17814Y5565D02*
X18139Y5890D01*
X17842Y5537D02*
X18139Y5834D01*
X17870Y5510D02*
X18139Y5779D01*
X18009Y5370D02*
X18139Y5500D01*
X18037Y5343D02*
X18139Y5445D01*
X18065Y5315D02*
X18139Y5389D01*
X18093Y5287D02*
X18139Y5333D01*
X17954Y5426D02*
X18139Y5612D01*
X17981Y5398D02*
X18139Y5556D01*
X17781Y5647D02*
X18139Y5289D01*
X24083Y4485D02*
X24370Y4771D01*
X24102Y4448D02*
X24370Y4716D01*
X24120Y4410D02*
X24370Y4660D01*
X24137Y4371D02*
X24370Y4604D01*
X23978Y4658D02*
X24370Y5050D01*
X24023Y4591D02*
X24370Y4939D01*
X24044Y4556D02*
X24370Y4883D01*
X24064Y4521D02*
X24370Y4827D01*
X24168Y4291D02*
X24370Y4493D01*
X24182Y4249D02*
X24370Y4437D01*
X24195Y4207D02*
X24370Y4382D01*
X24208Y4164D02*
X24370Y4326D01*
X24153Y4331D02*
X24370Y4549D01*
X24034Y4572D02*
X24370Y4236D01*
X24100Y4450D02*
X24370Y4180D01*
X24219Y4119D02*
X24370Y4270D01*
X24229Y4074D02*
X24370Y4215D01*
X24238Y4027D02*
X24370Y4159D01*
X24246Y3979D02*
X24370Y4103D01*
X24145Y4349D02*
X24370Y4125D01*
X24178Y4261D02*
X24370Y4069D01*
X24203Y4180D02*
X24370Y4013D01*
X24222Y4106D02*
X24370Y3958D01*
X24252Y3930D02*
X24370Y4048D01*
X24257Y3879D02*
X24370Y3992D01*
X24260Y3827D02*
X24370Y3936D01*
X24255Y3906D02*
X24370Y3791D01*
X24236Y4036D02*
X24370Y3902D01*
X24247Y3969D02*
X24370Y3846D01*
X24262Y3773D02*
X24370Y3881D01*
X24262Y3717D02*
X24370Y3825D01*
X24259Y3846D02*
X24370Y3735D01*
X24259Y3659D02*
X24370Y3769D01*
X24262Y3788D02*
X24370Y3679D01*
X24262Y3732D02*
X24370Y3624D01*
X24255Y3598D02*
X24370Y3714D01*
X24260Y3678D02*
X24370Y3568D01*
X24247Y3535D02*
X24370Y3658D01*
X24257Y3625D02*
X24370Y3512D01*
X24237Y3469D02*
X24370Y3602D01*
X24252Y3575D02*
X24370Y3457D01*
X24223Y3399D02*
X24370Y3547D01*
X24246Y3525D02*
X24370Y3401D01*
X24238Y3477D02*
X24370Y3345D01*
X24204Y3325D02*
X24370Y3491D01*
X24229Y3430D02*
X24370Y3290D01*
X24219Y3385D02*
X24370Y3234D01*
X24208Y3340D02*
X24370Y3178D01*
Y1378D02*
Y6457D01*
X24179Y3244D02*
X24370Y3435D01*
X24147Y3156D02*
X24370Y3380D01*
X24102Y3056D02*
X24370Y3324D01*
X24196Y3297D02*
X24370Y3123D01*
X24183Y3254D02*
X24370Y3067D01*
X24168Y3213D02*
X24370Y3011D01*
X24153Y3173D02*
X24370Y2956D01*
X24037Y2935D02*
X24370Y3268D01*
X24137Y3133D02*
X24370Y2900D01*
X24120Y3094D02*
X24370Y2844D01*
X23623Y5027D02*
X24370Y5774D01*
X23591Y5050D02*
X24370Y5829D01*
X23654Y5002D02*
X24370Y5718D01*
X23685Y4977D02*
X24370Y5662D01*
X22281Y7105D02*
X24370Y5016D01*
X22281Y7049D02*
X24370Y4960D01*
X22281Y6994D02*
X24370Y4904D01*
X22281Y6938D02*
X24370Y4849D01*
X23802Y4871D02*
X24370Y5440D01*
X23829Y4843D02*
X24370Y5384D01*
X23856Y4814D02*
X24370Y5328D01*
X23882Y4784D02*
X24370Y5273D01*
X23715Y4952D02*
X24370Y5607D01*
X23745Y4926D02*
X24370Y5551D01*
X23773Y4899D02*
X24370Y5495D01*
X22281Y6882D02*
X24370Y4793D01*
X22281Y6826D02*
X24370Y4737D01*
X22281Y6771D02*
X24370Y4682D01*
X22281Y6715D02*
X24370Y4626D01*
X22281Y6659D02*
X24370Y4570D01*
X22281Y6604D02*
X24370Y4515D01*
X22281Y6548D02*
X24370Y4459D01*
X23907Y4754D02*
X24370Y5217D01*
X23931Y4723D02*
X24370Y5161D01*
X23955Y4691D02*
X24370Y5106D01*
X24001Y4625D02*
X24370Y4994D01*
X22281Y6492D02*
X24370Y4403D01*
X22281Y6381D02*
X23681Y4981D01*
X22281Y6437D02*
X24370Y4348D01*
X23900Y4762D02*
X24370Y4292D01*
X20321Y3831D02*
X22773Y1379D01*
X23908Y2750D02*
X24370Y3213D01*
X22648Y1380D02*
X24370Y3101D01*
X22593Y1380D02*
X24370Y3157D01*
X20291Y3806D02*
X22717Y1380D01*
X20258Y3782D02*
X22661Y1380D01*
X20224Y3761D02*
X22605Y1380D01*
X20188Y3741D02*
X22550Y1380D01*
X20150Y3723D02*
X22494Y1380D01*
X20110Y3708D02*
X22438Y1380D01*
X20067Y3695D02*
X22383Y1380D01*
X20022Y3685D02*
X22327Y1380D01*
X19973Y3678D02*
X22271Y1380D01*
X19976Y3328D02*
X21773Y5126D01*
X19920Y3675D02*
X22215Y1380D01*
X19984Y3278D02*
X21881Y1380D01*
X19987Y3219D02*
X21825Y1380D01*
X19950Y3423D02*
X21992Y1380D01*
X19973Y3344D02*
X21937Y1380D01*
X19863Y3677D02*
X22160Y1380D01*
X19898Y3530D02*
X22048Y1380D01*
X19799Y3685D02*
X22104Y1380D01*
X24102Y3056D02*
X24370Y2789D01*
X24084Y3019D02*
X24370Y2733D01*
X24064Y2983D02*
X24370Y2677D01*
X24044Y2947D02*
X24370Y2622D01*
X24023Y2913D02*
X24370Y2566D01*
X24002Y2879D02*
X24370Y2510D01*
X23979Y2845D02*
X24370Y2454D01*
X23956Y2813D02*
X24370Y2399D01*
X23932Y2781D02*
X24370Y2343D01*
X23908Y2750D02*
X24370Y2287D01*
X23882Y2720D02*
X24370Y2232D01*
X23856Y2690D02*
X24370Y2176D01*
X23830Y2661D02*
X24370Y2120D01*
X23802Y2632D02*
X24370Y2065D01*
X23774Y2605D02*
X24370Y2009D01*
X23746Y2578D02*
X24370Y1953D01*
X23716Y2552D02*
X24370Y1898D01*
X23686Y2526D02*
X24370Y1842D01*
X23655Y2501D02*
X24370Y1786D01*
X23624Y2477D02*
X24370Y1731D01*
X23592Y2453D02*
X24370Y1675D01*
X23559Y2431D02*
X24370Y1619D01*
X23525Y2409D02*
X24370Y1564D01*
X24317Y1378D02*
X24370Y1431D01*
X24262Y1378D02*
X24370Y1487D01*
X24206Y1378D02*
X24370Y1542D01*
X23491Y2387D02*
X24370Y1508D01*
X23456Y2367D02*
X24370Y1452D01*
X23420Y2347D02*
X24370Y1397D01*
X23761Y1379D02*
X24370Y1988D01*
X23705Y1379D02*
X24370Y2043D01*
X23650Y1379D02*
X24370Y2099D01*
X23594Y1379D02*
X24370Y2155D01*
X23539Y1379D02*
X24370Y2210D01*
X23483Y1379D02*
X24370Y2266D01*
X23427Y1379D02*
X24370Y2322D01*
X23372Y1379D02*
X24370Y2377D01*
X24150Y1378D02*
X24370Y1598D01*
X24095Y1378D02*
X24370Y1654D01*
X24039Y1378D02*
X24370Y1709D01*
X23984Y1378D02*
X24370Y1765D01*
X23928Y1378D02*
X24370Y1821D01*
X23872Y1378D02*
X24370Y1876D01*
X23817Y1378D02*
X24370Y1932D01*
X23316Y1379D02*
X24370Y2433D01*
X23383Y2328D02*
X24333Y1378D01*
X23260Y1379D02*
X24370Y2489D01*
X23205Y1379D02*
X24370Y2544D01*
X23149Y1379D02*
X24370Y2600D01*
X23094Y1379D02*
X24370Y2656D01*
X23038Y1379D02*
X24370Y2711D01*
X23345Y2310D02*
X24277Y1378D01*
X23307Y2293D02*
X24222Y1378D01*
X23268Y2276D02*
X24166Y1378D01*
X23228Y2261D02*
X24110Y1378D01*
X23187Y2246D02*
X24054Y1378D01*
X23145Y2232D02*
X23999Y1378D01*
X23102Y2219D02*
X23943Y1378D01*
X22982Y1379D02*
X24370Y2767D01*
X23058Y2208D02*
X23887Y1378D01*
X22927Y1379D02*
X24370Y2823D01*
X22871Y1379D02*
X24370Y2878D01*
X22815Y1379D02*
X24370Y2934D01*
X22760Y1379D02*
X24370Y2990D01*
X22704Y1380D02*
X24370Y3045D01*
X22537Y1380D02*
X23672Y2514D01*
X23013Y2197D02*
X23832Y1378D01*
X22967Y2188D02*
X23776Y1379D01*
X22919Y2179D02*
X23720Y1379D01*
X22871Y2172D02*
X23664Y1379D01*
X22820Y2167D02*
X23609Y1379D01*
X22769Y2163D02*
X23553Y1379D01*
X22715Y2160D02*
X23497Y1379D01*
X22482Y1380D02*
X23487Y2385D01*
X22426Y1380D02*
X23366Y2320D01*
X22370Y1380D02*
X23266Y2275D01*
X22315Y1380D02*
X23178Y2243D01*
X22277Y2209D02*
X23107Y1379D01*
X22259Y1380D02*
X23097Y2218D01*
X22199Y2231D02*
X23051Y1379D01*
X22660Y2160D02*
X23441Y1379D01*
X22603Y2161D02*
X23386Y1379D01*
X22544Y2165D02*
X23330Y1379D01*
X22482Y2171D02*
X23274Y1379D01*
X22417Y2180D02*
X23218Y1379D01*
X22349Y2193D02*
X23163Y1379D01*
X22204Y1380D02*
X23023Y2199D01*
X22115Y2260D02*
X22996Y1379D01*
X22148Y1380D02*
X22953Y2185D01*
X22021Y2299D02*
X22940Y1379D01*
X22092Y1380D02*
X22887Y2175D01*
X21910Y2353D02*
X22884Y1379D01*
X21766Y2442D02*
X22828Y1379D01*
X21647Y1381D02*
X22443Y2176D01*
X21592Y1381D02*
X22395Y2184D01*
X22037Y1380D02*
X22824Y2167D01*
X21981Y1380D02*
X22763Y2163D01*
X21925Y1380D02*
X22705Y2160D01*
X21870Y1380D02*
X22649Y2160D01*
X21814Y1380D02*
X22595Y2162D01*
X21758Y1380D02*
X22543Y2165D01*
X21703Y1380D02*
X22492Y2170D01*
X21202Y1381D02*
X22091Y2269D01*
X21091Y1381D02*
X22012Y2302D01*
X21035Y1381D02*
X21974Y2320D01*
X20980Y1381D02*
X21937Y2339D01*
X20924Y1381D02*
X21901Y2358D01*
X20868Y1381D02*
X21866Y2378D01*
X20813Y1381D02*
X21831Y2399D01*
X21536Y1381D02*
X22348Y2193D01*
X21480Y1381D02*
X22303Y2203D01*
X21425Y1381D02*
X22258Y2214D01*
X21369Y1381D02*
X22215Y2226D01*
X21313Y1381D02*
X22172Y2240D01*
X21258Y1381D02*
X22131Y2254D01*
X21147Y1381D02*
X22051Y2285D01*
X21643Y5126D02*
X21732Y5037D01*
X21588Y5125D02*
X21700Y5013D01*
X21560Y5098D02*
X21669Y4988D01*
X21532Y5070D02*
X21639Y4963D01*
X21504Y5042D02*
X21609Y4937D01*
X21476Y5014D02*
X21580Y4911D01*
X21449Y4986D02*
X21552Y4883D01*
X21421Y4958D02*
X21524Y4855D01*
X21393Y4931D02*
X21497Y4826D01*
X21365Y4903D02*
X21471Y4797D01*
X21337Y4875D02*
X21445Y4767D01*
X21309Y4847D02*
X21420Y4736D01*
X21282Y4819D02*
X21396Y4705D01*
X21254Y4791D02*
X21373Y4672D01*
X21226Y4763D02*
X21350Y4640D01*
X20697Y5126D02*
X20753Y5070D01*
X20641Y5126D02*
X20725Y5042D01*
X20585Y5126D02*
X20697Y5014D01*
X20530Y5126D02*
X20669Y4986D01*
X20332Y4742D02*
X20715Y5126D01*
X20474D02*
X20641Y4958D01*
X20377Y4694D02*
X21139Y5456D01*
X20359Y4714D02*
X20771Y5126D01*
X20419D02*
X20614Y4931D01*
X20363Y5126D02*
X20586Y4903D01*
X20302Y4768D02*
X20660Y5126D01*
X20307D02*
X20558Y4875D01*
X20237Y4814D02*
X20548Y5126D01*
X20252D02*
X20530Y4847D01*
X20270Y4792D02*
X20604Y5126D01*
X21198Y4736D02*
X21328Y4606D01*
X21170Y4708D02*
X21307Y4571D01*
X21142Y4680D02*
X21286Y4536D01*
X21115Y4652D02*
X21266Y4500D01*
X21087Y4624D02*
X21247Y4464D01*
X21059Y4597D02*
X21229Y4426D01*
X20559Y4096D02*
X21588Y5126D01*
X20409Y3928D02*
X21606Y5126D01*
X21031Y4569D02*
X21212Y4388D01*
X21003Y4541D02*
X21195Y4349D01*
X20975Y4513D02*
X21180Y4309D01*
X20948Y4485D02*
X21165Y4268D01*
X20920Y4457D02*
X21151Y4226D01*
X20892Y4429D02*
X21139Y4183D01*
X20864Y4402D02*
X21127Y4139D01*
X20836Y4374D02*
X21116Y4094D01*
X20808Y4346D02*
X21107Y4047D01*
X20781Y4318D02*
X21099Y4000D01*
X20753Y4290D02*
X21092Y3951D01*
X20725Y4262D02*
X21086Y3901D01*
X20697Y4235D02*
X21082Y3850D01*
X20669Y4207D02*
X21080Y3796D01*
X20641Y4179D02*
X21079Y3741D01*
X20613Y4151D02*
X21080Y3684D01*
X20586Y4123D02*
X21084Y3625D01*
X20558Y4095D02*
X21090Y3563D01*
X20528Y4070D02*
X21099Y3498D01*
X19991Y4903D02*
X20214Y5126D01*
X19940Y4907D02*
X20159Y5126D01*
X20083Y4883D02*
X20326Y5126D01*
X20039Y4894D02*
X20270Y5126D01*
X19885Y4907D02*
X20103Y5126D01*
X19176Y5075D02*
X19226Y5126D01*
X19823Y4902D02*
X20047Y5126D01*
X19772Y4892D02*
X20005Y5126D01*
X19878Y4998D02*
X19971Y4905D01*
X19850Y4970D02*
X19912Y4908D01*
X19934Y5054D02*
X20114Y4873D01*
X19906Y5026D02*
X20037Y4895D01*
X19138Y5126D02*
X19182Y5082D01*
X19082Y5126D02*
X19155Y5053D01*
X19822Y4942D02*
X19859Y4906D01*
X19027Y5126D02*
X19133Y5020D01*
X18986Y5010D02*
X19101Y5126D01*
X18986Y4955D02*
X19156Y5126D01*
X18986Y5111D02*
X19114Y4982D01*
X18986Y5066D02*
X19045Y5126D01*
X18343Y5036D02*
X18432Y5126D01*
X18358D02*
X18434Y5050D01*
X18371Y5009D02*
X18434Y5072D01*
X18399Y4981D02*
X18434Y5016D01*
X18986Y5055D02*
X19101Y4939D01*
X18434Y4945D02*
Y5126D01*
X18303D02*
X18434Y4994D01*
X18316Y5064D02*
X18377Y5126D01*
X18254D02*
X18434Y4945D01*
X20202Y4835D02*
X20493Y5126D01*
X20165Y4853D02*
X20437Y5126D01*
X20196D02*
X20502Y4819D01*
X20140Y5126D02*
X20474Y4791D01*
X20084Y5126D02*
X20446Y4764D01*
X20029Y5126D02*
X20419Y4736D01*
X19965Y3373D02*
X21717Y5126D01*
X19952Y3416D02*
X21662Y5126D01*
X19983Y3280D02*
X21365Y4662D01*
X19987Y3228D02*
X21274Y4515D01*
X19986Y3171D02*
X21219Y4405D01*
X19978Y3108D02*
X21180Y4310D01*
X19961Y3035D02*
X21151Y4225D01*
X19926Y2945D02*
X21129Y4147D01*
X18421Y1384D02*
X21112Y4075D01*
X20125Y4869D02*
X20381Y5126D01*
X19989Y5109D02*
X20391Y4708D01*
X19961Y5082D02*
X20216Y4827D01*
X18986Y4899D02*
X19212Y5126D01*
X18986Y4888D02*
Y5126D01*
X19020Y4878D02*
X19109Y4967D01*
X19095Y4848D02*
Y4881D01*
X19061Y4863D02*
X19095Y4898D01*
X18986Y4999D02*
X19095Y4890D01*
X18986Y4944D02*
X19070Y4860D01*
X20349Y3858D02*
X21361Y2847D01*
X20376Y3887D02*
X21272Y2991D01*
X20368Y1382D02*
X21579Y2593D01*
X20312Y1382D02*
X21551Y2620D01*
X20257Y1382D02*
X21523Y2648D01*
X20201Y1382D02*
X21496Y2677D01*
X20145Y1382D02*
X21470Y2707D01*
X20090Y1382D02*
X21444Y2737D01*
X20757Y1381D02*
X21797Y2421D01*
X20702Y1381D02*
X21764Y2443D01*
X20646Y1381D02*
X21731Y2467D01*
X20590Y1382D02*
X21699Y2491D01*
X20535Y1382D02*
X21668Y2515D01*
X20479Y1382D02*
X21638Y2540D01*
X20423Y1382D02*
X21608Y2566D01*
X20465Y4021D02*
X21128Y3358D01*
X20494Y4048D02*
X21112Y3430D01*
X20424Y3951D02*
X21179Y3196D01*
X20446Y3985D02*
X21150Y3280D01*
X19937Y3456D02*
X20274Y3793D01*
X20401Y3918D02*
X21218Y3101D01*
X19877Y3563D02*
X19994Y3680D01*
X19853Y3595D02*
X19933Y3675D01*
X19919Y3494D02*
X20147Y3722D01*
X19899Y3529D02*
X20063Y3694D01*
X19827Y3625D02*
X19878Y3676D01*
X19800Y3654D02*
X19827Y3680D01*
X19985Y3165D02*
X21769Y1380D01*
X19979Y3115D02*
X21714Y1380D01*
X19970Y3068D02*
X21658Y1381D01*
X19958Y3025D02*
X21602Y1381D01*
X19944Y2984D02*
X21547Y1381D01*
X19927Y2945D02*
X21491Y1381D01*
X19907Y2908D02*
X21435Y1381D01*
X19756Y1382D02*
X21306Y2932D01*
X20034Y1382D02*
X21420Y2767D01*
X19978Y1382D02*
X21395Y2799D01*
X19923Y1382D02*
X21372Y2831D01*
X19886Y2874D02*
X21379Y1381D01*
X19867Y1382D02*
X21349Y2864D01*
X19863Y2841D02*
X21324Y1381D01*
X19812Y1382D02*
X21327Y2898D01*
X19839Y2810D02*
X21268Y1381D01*
X19812Y2781D02*
X21212Y1381D01*
X19700Y1382D02*
X21285Y2967D01*
X19784Y2754D02*
X21156Y1381D01*
X19645Y1382D02*
X21266Y3003D01*
X19589Y1382D02*
X21247Y3040D01*
X19533Y1383D02*
X21229Y3078D01*
X19754Y2728D02*
X21101Y1381D01*
X19722Y2704D02*
X21045Y1381D01*
X19688Y2683D02*
X20989Y1381D01*
X19652Y2663D02*
X20934Y1381D01*
X19614Y2645D02*
X20878Y1381D01*
X19574Y2629D02*
X20822Y1381D01*
X19532Y2616D02*
X20766Y1381D01*
X19088Y1383D02*
X21116Y3410D01*
X19033Y1383D02*
X21107Y3457D01*
X18977Y1383D02*
X21098Y3504D01*
X18922Y1383D02*
X21091Y3553D01*
X18866Y1383D02*
X21086Y3603D01*
X18810Y1383D02*
X21082Y3655D01*
X18755Y1383D02*
X21080Y3708D01*
X18699Y1383D02*
X21079Y3763D01*
X19478Y1383D02*
X21211Y3116D01*
X19422Y1383D02*
X21195Y3155D01*
X19367Y1383D02*
X21179Y3195D01*
X19311Y1383D02*
X21165Y3236D01*
X19255Y1383D02*
X21151Y3278D01*
X19200Y1383D02*
X21138Y3321D01*
X19144Y1383D02*
X21127Y3365D01*
X18815Y2887D02*
X20320Y1382D01*
X18793Y2854D02*
X20265Y1382D01*
X18769Y2822D02*
X20209Y1382D01*
X18743Y2792D02*
X20153Y1382D01*
X18715Y2764D02*
X20098Y1382D01*
X18686Y2738D02*
X20042Y1382D01*
X19486Y2606D02*
X20711Y1381D01*
X19438Y2598D02*
X20655Y1381D01*
X19386Y2595D02*
X20599Y1382D01*
X19329Y2596D02*
X20543Y1382D01*
X19265Y2604D02*
X20488Y1382D01*
X19193Y2621D02*
X20432Y1382D01*
X19101Y2657D02*
X20376Y1382D01*
X18643Y1383D02*
X21081Y3820D01*
X18655Y2714D02*
X19986Y1382D01*
X18588Y1383D02*
X21084Y3880D01*
X18621Y2691D02*
X19930Y1382D01*
X18586Y2670D02*
X19875Y1382D01*
X18549Y2652D02*
X19819Y1382D01*
X18477Y1384D02*
X21100Y4007D01*
X18532Y1383D02*
X21090Y3942D01*
X18510Y2635D02*
X19763Y1382D01*
X18469Y2621D02*
X19707Y1382D01*
X18425Y2610D02*
X19652Y1382D01*
X18365Y1384D02*
X19637Y2655D01*
X18377Y2601D02*
X19596Y1382D01*
X18310Y1384D02*
X19546Y2620D01*
X18327Y2596D02*
X19540Y1383D01*
X18254Y1384D02*
X19474Y2604D01*
X18143Y2613D02*
X19373Y1383D01*
X18061Y2639D02*
X19317Y1383D01*
X18032Y1384D02*
X19254Y2606D01*
X17941Y2704D02*
X19262Y1383D01*
X17865Y1384D02*
X19126Y2645D01*
X17809Y1384D02*
X19088Y2663D01*
X18272Y2595D02*
X19485Y1383D01*
X18212Y2600D02*
X19429Y1383D01*
X18198Y1384D02*
X19411Y2596D01*
X18143Y1384D02*
X19354Y2595D01*
X18087Y1384D02*
X19302Y2599D01*
X17976Y1384D02*
X19208Y2616D01*
X17920Y1384D02*
X19166Y2630D01*
X17781Y7202D02*
X18139Y7203D01*
X17785Y7202D02*
X18139Y6848D01*
X17781Y6812D02*
X18139Y7171D01*
X17781Y7151D02*
X18139Y6792D01*
X17781Y6757D02*
X18139Y7115D01*
X17781Y7095D02*
X18139Y6737D01*
X17781Y6701D02*
X18139Y7059D01*
X17781Y7039D02*
X18139Y6681D01*
X17781Y6645D02*
X18139Y7004D01*
X17781Y6984D02*
X18139Y6625D01*
X17781Y6590D02*
X18139Y6948D01*
X17781Y6928D02*
X18139Y6570D01*
X17781Y6534D02*
X18139Y6892D01*
X17781Y6872D02*
X18139Y6514D01*
X17781Y6478D02*
X18139Y6837D01*
X17781Y6979D02*
X18004Y7203D01*
X17781Y7035D02*
X17948Y7203D01*
X17781Y6868D02*
X18115Y7203D01*
X17781Y6924D02*
X18060Y7203D01*
X17781Y7146D02*
X17837Y7202D01*
X16616Y7202D02*
X16639Y7179D01*
X17781Y7091D02*
X17893Y7202D01*
X16560Y7202D02*
X16639Y7123D01*
X17781Y6817D02*
X18139Y6458D01*
X17781Y6423D02*
X18139Y6781D01*
X17781Y6761D02*
X18139Y6403D01*
X17781Y6367D02*
X18139Y6725D01*
X16505Y7202D02*
X16639Y7068D01*
X16449Y7202D02*
X16639Y7012D01*
X17781Y6705D02*
X18139Y6347D01*
X17781Y6311D02*
X18139Y6670D01*
X17781Y6650D02*
X18139Y6291D01*
X17781Y6256D02*
X18139Y6614D01*
X17781Y6594D02*
X18139Y6236D01*
X17781Y6200D02*
X18139Y6558D01*
X17781Y6538D02*
X18139Y6180D01*
X17781Y6144D02*
X18139Y6503D01*
X17781Y6483D02*
X18139Y6124D01*
X17781Y6089D02*
X18139Y6447D01*
X17781Y6427D02*
X18139Y6069D01*
X17781Y6033D02*
X18139Y6391D01*
X17781Y6371D02*
X18139Y6013D01*
X17781Y5977D02*
X18139Y6335D01*
X17781Y6316D02*
X18139Y5957D01*
X17781Y6260D02*
X18139Y5902D01*
X17781Y5952D02*
Y7202D01*
Y5866D02*
X18139Y6224D01*
X17781Y6204D02*
X18139Y5846D01*
X17772Y5913D02*
X18139Y6280D01*
X16639Y5952D02*
Y7202D01*
X17781Y5810D02*
X18139Y6168D01*
X17781Y6149D02*
X18139Y5790D01*
X17781Y5754D02*
X18139Y6113D01*
X17781Y6093D02*
X18139Y5735D01*
X17781Y5699D02*
X18139Y6057D01*
X17700Y5952D02*
X17781Y6033D01*
X16639Y6065D02*
X16752Y5952D01*
X17781Y6037D02*
X18139Y5679D01*
X16281Y7202D02*
X16639Y7202D01*
X16393Y7202D02*
X16639Y6956D01*
X16338Y7202D02*
X16639Y6901D01*
X16281Y6871D02*
X16611Y7202D01*
X16282Y7202D02*
X16639Y6845D01*
X16281Y6816D02*
X16639Y7174D01*
X16281Y7147D02*
X16639Y6789D01*
X16281Y7092D02*
X16639Y6733D01*
X16281Y6760D02*
X16639Y7118D01*
X16281Y6704D02*
X16639Y7063D01*
X16281Y7036D02*
X16639Y6678D01*
X16281Y6649D02*
X16639Y7007D01*
X16281Y6980D02*
X16639Y6622D01*
X16281Y6593D02*
X16639Y6951D01*
X16281Y7038D02*
X16444Y7202D01*
X16281Y7094D02*
X16389Y7202D01*
X16281Y6927D02*
X16556Y7202D01*
X16281Y6983D02*
X16500Y7202D01*
X16281Y7150D02*
X16333Y7202D01*
X16281Y6925D02*
X16639Y6566D01*
X16281Y6537D02*
X16639Y6896D01*
X16281Y6869D02*
X16639Y6511D01*
X16281Y6482D02*
X16639Y6840D01*
X16281Y6813D02*
X16639Y6455D01*
X16281Y6426D02*
X16639Y6784D01*
X16281Y6758D02*
X16639Y6399D01*
X16281Y6370D02*
X16639Y6729D01*
X16281Y6702D02*
X16639Y6344D01*
X16281Y6315D02*
X16639Y6673D01*
X16281Y6646D02*
X16639Y6288D01*
X16281Y6259D02*
X16639Y6617D01*
X16281Y6591D02*
X16639Y6232D01*
X16281Y6203D02*
X16639Y6561D01*
X16281Y6535D02*
X16639Y6177D01*
X16281Y6148D02*
X16639Y6506D01*
X16281Y6479D02*
X16639Y6121D01*
X16281Y6092D02*
X16639Y6450D01*
X16281Y6424D02*
X16639Y6065D01*
X16281Y6036D02*
X16639Y6394D01*
X16281Y6036D02*
X16639Y6394D01*
X16281Y6368D02*
X16639Y6010D01*
X16281Y5981D02*
X16639Y6339D01*
X16281Y5952D02*
Y7202D01*
Y6312D02*
X16639Y5954D01*
X16269Y5913D02*
X16639Y6283D01*
X16281Y6257D02*
X16639Y5898D01*
X16281Y5869D02*
X16639Y6227D01*
X16281Y6201D02*
X16639Y5843D01*
X16281Y5813D02*
X16639Y6172D01*
X16281Y6145D02*
X16639Y5787D01*
X16281Y5758D02*
X16639Y6116D01*
X16281Y6090D02*
X16639Y5731D01*
X16281Y5702D02*
X16639Y6060D01*
X16197Y5952D02*
X16281Y6036D01*
Y6034D02*
X16639Y5676D01*
X17756Y5952D02*
X17781Y5977D01*
X17717Y5913D02*
X17756Y5952D01*
X17699D02*
X17738Y5913D01*
X17661D02*
X17700Y5952D01*
X16639D02*
X17781D01*
X17643D02*
X17682Y5913D01*
X17605D02*
X17645Y5952D01*
X17587D02*
X17627Y5913D01*
X17550D02*
X17589Y5952D01*
X17532D02*
X17571Y5913D01*
X17494D02*
X17533Y5952D01*
X17476D02*
X17515Y5913D01*
X17438D02*
X17478Y5952D01*
X17420D02*
X17460Y5913D01*
X17383D02*
X17422Y5952D01*
X17365D02*
X17404Y5913D01*
X17327D02*
X17366Y5952D01*
X17309D02*
X17348Y5913D01*
X17271D02*
X17311Y5952D01*
X17253D02*
X17293Y5913D01*
X16639Y6010D02*
X16697Y5952D01*
X17215Y5913D02*
X17255Y5952D01*
X17198D02*
X17237Y5913D01*
X17160D02*
X17199Y5952D01*
X17142D02*
X17181Y5913D01*
X17104D02*
X17143Y5952D01*
X17086D02*
X17126Y5913D01*
X17048D02*
X17088Y5952D01*
X17031D02*
X17070Y5913D01*
X17781Y5643D02*
X18139Y6001D01*
X17781Y5982D02*
X18139Y5623D01*
X17787Y5593D02*
X18146Y5952D01*
X17754D02*
X18139Y5568D01*
X16993Y5913D02*
X17032Y5952D01*
X16975D02*
X17014Y5913D01*
X16639D02*
X17781D01*
X16937D02*
X16976Y5952D01*
X17781Y5870D02*
X18139Y5512D01*
X17781Y5599D02*
Y5913D01*
Y5814D02*
X18139Y5456D01*
X17781Y5759D02*
X18139Y5401D01*
X17738Y5913D02*
X17781Y5870D01*
X17682Y5913D02*
X17781Y5814D01*
Y5703D02*
X18139Y5345D01*
X16919Y5952D02*
X16959Y5913D01*
X16881D02*
X16921Y5952D01*
X16864D02*
X16903Y5913D01*
X16826D02*
X16865Y5952D01*
X16808D02*
X16847Y5913D01*
X16770D02*
X16809Y5952D01*
X16752D02*
X16792Y5913D01*
X16714D02*
X16754Y5952D01*
X16697D02*
X16736Y5913D01*
X16659D02*
X16698Y5952D01*
X16641D02*
X16680Y5913D01*
X16639Y5838D02*
X16714Y5913D01*
X16639Y5286D02*
Y5913D01*
X16588Y5286D02*
X16639Y5337D01*
X16253Y5952D02*
X16281Y5981D01*
X16197Y5952D02*
X16281Y6036D01*
X16213Y5913D02*
X16253Y5952D01*
X16195D02*
X16235Y5913D01*
X15139Y5952D02*
X16281D01*
X16158Y5913D02*
X16197Y5952D01*
X16158Y5913D02*
X16197Y5952D01*
X16140D02*
X16179Y5913D01*
X16102D02*
X16141Y5952D01*
X16084D02*
X16123Y5913D01*
X16046D02*
X16086Y5952D01*
X16028D02*
X16068Y5913D01*
X15991D02*
X16030Y5952D01*
X15973D02*
X16012Y5913D01*
X15935D02*
X15974Y5952D01*
X15917D02*
X15956Y5913D01*
X15879D02*
X15919Y5952D01*
X15861D02*
X15901Y5913D01*
X15824D02*
X15863Y5952D01*
X15806D02*
X15845Y5913D01*
X15768D02*
X15807Y5952D01*
X15750D02*
X15789Y5913D01*
X15712D02*
X15752Y5952D01*
X15694D02*
X15734Y5913D01*
X15656D02*
X15696Y5952D01*
X15639D02*
X15678Y5913D01*
X15601D02*
X15640Y5952D01*
X15583D02*
X15622Y5913D01*
X15545D02*
X15584Y5952D01*
X16281Y5646D02*
X16639Y6005D01*
X16281Y5978D02*
X16639Y5620D01*
X16281Y5591D02*
X16642Y5952D01*
X16281Y5535D02*
X16639Y5893D01*
X16251Y5952D02*
X16639Y5564D01*
X15139Y5913D02*
X16281D01*
Y5867D02*
X16639Y5509D01*
X16281Y5479D02*
X16639Y5838D01*
X16281Y5811D02*
X16639Y5453D01*
X16281Y5424D02*
X16639Y5782D01*
X16309Y5340D02*
X16639Y5671D01*
X16338Y5314D02*
X16639Y5615D01*
X16281Y5755D02*
X16639Y5397D01*
X16281Y5368D02*
X16639Y5726D01*
X16281Y5700D02*
X16639Y5342D01*
X15527Y5952D02*
X15567Y5913D01*
X15489D02*
X15529Y5952D01*
X15472D02*
X15511Y5913D01*
X15434D02*
X15473Y5952D01*
X15416D02*
X15455Y5913D01*
X15378D02*
X15417Y5952D01*
X15360D02*
X15400Y5913D01*
X16235D02*
X16281Y5867D01*
X15322Y5913D02*
X15362Y5952D01*
X16179Y5913D02*
X16281Y5811D01*
Y5366D02*
Y5913D01*
X15305Y5952D02*
X15344Y5913D01*
X15267D02*
X15306Y5952D01*
X15249D02*
X15288Y5913D01*
X15113Y7201D02*
X15139Y7176D01*
X15058Y7201D02*
X15139Y7120D01*
X15002Y7201D02*
X15139Y7064D01*
X14946Y7201D02*
X15139Y7009D01*
X14781Y7201D02*
X15139Y7201D01*
X14891Y7201D02*
X15139Y6953D01*
X14835Y7201D02*
X15139Y6897D01*
X14781Y7200D02*
X15139Y6842D01*
X14781Y6819D02*
X15139Y7177D01*
X14781Y6875D02*
X15108Y7201D01*
X14781Y7144D02*
X15139Y6786D01*
X14781Y6763D02*
X15139Y7122D01*
X14781Y7088D02*
X15139Y6730D01*
X14781Y6708D02*
X15139Y7066D01*
X14781Y7033D02*
X15139Y6675D01*
X14781Y7042D02*
X14940Y7201D01*
X14781Y7097D02*
X14885Y7201D01*
X14781Y6930D02*
X15052Y7201D01*
X14781Y6986D02*
X14996Y7201D01*
X14781Y7153D02*
X14829Y7201D01*
X13611Y7201D02*
X13639Y7172D01*
X13555Y7201D02*
X13639Y7117D01*
X13499Y7201D02*
X13639Y7061D01*
X13444Y7201D02*
X13639Y7005D01*
X13388Y7201D02*
X13639Y6950D01*
X13332Y7201D02*
X13639Y6894D01*
X13277Y7201D02*
X13639Y6838D01*
X13221Y7201D02*
X13639Y6783D01*
X13165Y7201D02*
X13639Y6727D01*
X13110Y7201D02*
X13639Y6671D01*
X14781Y6652D02*
X15139Y7010D01*
X14781Y6977D02*
X15139Y6619D01*
X14781Y6596D02*
X15139Y6955D01*
X14781Y6921D02*
X15139Y6563D01*
X14781Y6541D02*
X15139Y6899D01*
X14781Y6866D02*
X15139Y6507D01*
X14781Y6485D02*
X15139Y6843D01*
X14781Y6810D02*
X15139Y6452D01*
X14781Y6429D02*
X15139Y6788D01*
X14781Y6754D02*
X15139Y6396D01*
X14781Y6374D02*
X15139Y6732D01*
X14781Y6699D02*
X15139Y6340D01*
X14781Y6318D02*
X15139Y6676D01*
X14781Y6643D02*
X15139Y6285D01*
X14781Y6262D02*
X15139Y6620D01*
X13054Y7201D02*
X13639Y6616D01*
X12998Y7201D02*
X13639Y6560D01*
X15139Y5952D02*
Y7201D01*
X14781Y5952D02*
Y7201D01*
X12943Y7201D02*
X13639Y6504D01*
X12887Y7201D02*
X13639Y6448D01*
X12831Y7200D02*
X13639Y6393D01*
X14781Y6587D02*
X15139Y6229D01*
X14781Y6207D02*
X15139Y6565D01*
X13639Y5952D02*
Y7201D01*
X12776Y7200D02*
X13639Y6337D01*
X12720Y7200D02*
X13639Y6281D01*
X12664Y7200D02*
X13639Y6226D01*
X12609Y7200D02*
X13639Y6170D01*
X12553Y7200D02*
X13639Y6114D01*
X12498Y7200D02*
X13639Y6059D01*
X11600Y7200D02*
X13639Y7201D01*
X12442Y7200D02*
X13639Y6003D01*
X11620Y5941D02*
X12880Y7200D01*
X11620Y5997D02*
X12824Y7200D01*
X11620Y6164D02*
X12657Y7200D01*
X11620Y6219D02*
X12601Y7200D01*
X11620Y6052D02*
X12768Y7200D01*
X11620Y6108D02*
X12712Y7200D01*
X11620Y6331D02*
X12490Y7200D01*
X11620Y6386D02*
X12434Y7200D01*
X11620Y6275D02*
X12545Y7200D01*
X11620Y6553D02*
X12267Y7200D01*
X11620Y6609D02*
X12211Y7200D01*
X11620Y6442D02*
X12378Y7200D01*
X11620Y6498D02*
X12323Y7200D01*
X11620Y6720D02*
X12100Y7200D01*
X11620Y6776D02*
X12044Y7200D01*
X11620Y6665D02*
X12155Y7200D01*
X11620Y6943D02*
X11877Y7200D01*
X11620Y6999D02*
X11821Y7200D01*
X11620Y6832D02*
X11988Y7200D01*
X11620Y6887D02*
X11933Y7200D01*
X11620Y7110D02*
X11710Y7200D01*
X11620Y7166D02*
X11654Y7200D01*
X11620Y7054D02*
X11766Y7200D01*
X12386Y7200D02*
X13674Y5913D01*
X12331Y7200D02*
X13639Y5892D01*
X12275Y7200D02*
X13639Y5836D01*
X12219Y7200D02*
X13639Y5780D01*
X12164Y7200D02*
X13639Y5725D01*
X12108Y7200D02*
X13639Y5669D01*
X12052Y7200D02*
X13639Y5613D01*
X11997Y7200D02*
X13639Y5558D01*
X11941Y7200D02*
X13639Y5502D01*
X11885Y7200D02*
X13639Y5446D01*
X11830Y7200D02*
X13639Y5391D01*
X11774Y7200D02*
X13639Y5335D01*
X11620Y5384D02*
X13437Y7201D01*
X11620Y5440D02*
X13381Y7201D01*
X11620Y5328D02*
X13492Y7201D01*
X11620Y5607D02*
X13214Y7201D01*
X11620Y5663D02*
X13158Y7201D01*
X11620Y5495D02*
X13325Y7201D01*
X11620Y5551D02*
X13269Y7201D01*
X11620Y5774D02*
X13047Y7201D01*
X11620Y5830D02*
X12991Y7201D01*
X11620Y5718D02*
X13102Y7201D01*
X11620Y6742D02*
X13031Y5330D01*
X11620Y5885D02*
X12935Y7201D01*
X11620Y6853D02*
X13166Y5307D01*
X11620Y6797D02*
X13097Y5320D01*
X11620Y6686D02*
X12969Y5337D01*
X11620Y6630D02*
X12909Y5341D01*
X11620Y6575D02*
X12852Y5343D01*
X14781Y6532D02*
X15139Y6173D01*
X14781Y6151D02*
X15139Y6509D01*
X14781Y6476D02*
X15139Y6118D01*
X14781Y6095D02*
X15139Y6453D01*
X14781Y6420D02*
X15139Y6062D01*
X14781Y6040D02*
X15139Y6398D01*
X14781Y6365D02*
X15139Y6006D01*
X14781Y5984D02*
X15139Y6342D01*
Y6062D02*
X15249Y5952D01*
X15211Y5913D02*
X15250Y5952D01*
X15193D02*
X15233Y5913D01*
X15155D02*
X15195Y5952D01*
X15139Y6006D02*
X15193Y5952D01*
X14781Y6309D02*
X15177Y5913D01*
X15139Y5841D02*
X15211Y5913D01*
X14766D02*
X15139Y6286D01*
X14749Y5952D02*
X14781Y5984D01*
Y6253D02*
X15139Y5895D01*
X14781Y5872D02*
X15139Y6231D01*
X14694Y5952D02*
X14781Y6040D01*
X14710Y5913D02*
X14749Y5952D01*
X14692D02*
X14731Y5913D01*
X14654D02*
X14694Y5952D01*
X14636D02*
X14676Y5913D01*
X14731D02*
X14781Y5864D01*
X14599Y5913D02*
X14638Y5952D01*
X14581D02*
X14620Y5913D01*
X14543D02*
X14582Y5952D01*
X14525D02*
X14564Y5913D01*
X14781Y6198D02*
X15139Y5839D01*
X14781Y5817D02*
X15139Y6175D01*
X14781Y6142D02*
X15139Y5784D01*
X14799Y5668D02*
X15139Y6008D01*
X14781Y5761D02*
X15139Y6119D01*
X14781Y6086D02*
X15139Y5728D01*
X14781Y5705D02*
X15139Y6064D01*
X14781Y6031D02*
X15139Y5672D01*
X14854Y5612D02*
X15139Y5897D01*
X14882Y5584D02*
X15139Y5841D01*
X14910Y5556D02*
X15139Y5785D01*
X14938Y5529D02*
X15139Y5730D01*
X14827Y5640D02*
X15139Y5952D01*
X14781Y5975D02*
X15139Y5617D01*
X14748Y5952D02*
X15139Y5561D01*
X14781Y5864D02*
X15139Y5505D01*
X14781Y5686D02*
Y5913D01*
Y5808D02*
X15139Y5450D01*
Y5327D02*
Y5913D01*
X14781Y5752D02*
X15139Y5394D01*
X14676Y5913D02*
X14781Y5808D01*
Y5696D02*
X15139Y5338D01*
X15022Y5445D02*
X15139Y5563D01*
X15077Y5389D02*
X15139Y5451D01*
X15049Y5417D02*
X15139Y5507D01*
X15105Y5361D02*
X15139Y5396D01*
X14966Y5501D02*
X15139Y5674D01*
X14994Y5473D02*
X15139Y5618D01*
X14781Y5686D02*
X15139Y5327D01*
X14487Y5913D02*
X14527Y5952D01*
X14469D02*
X14509Y5913D01*
X14432D02*
X14471Y5952D01*
X14414D02*
X14453Y5913D01*
X13639Y5952D02*
X14781D01*
X14376Y5913D02*
X14415Y5952D01*
X14358D02*
X14397Y5913D01*
X14320D02*
X14360Y5952D01*
X14302D02*
X14342Y5913D01*
X14265D02*
X14304Y5952D01*
X14247D02*
X14286Y5913D01*
X14209D02*
X14248Y5952D01*
X14191D02*
X14230Y5913D01*
X14153D02*
X14193Y5952D01*
X14135D02*
X14175Y5913D01*
X14097D02*
X14137Y5952D01*
X14080D02*
X14119Y5913D01*
X14042D02*
X14081Y5952D01*
X14024D02*
X14063Y5913D01*
X13639Y6059D02*
X13746Y5952D01*
X13639Y6003D02*
X13690Y5952D01*
X13986Y5913D02*
X14026Y5952D01*
X13968D02*
X14008Y5913D01*
X13930D02*
X13970Y5952D01*
X13913D02*
X13952Y5913D01*
X13875D02*
X13914Y5952D01*
X13857D02*
X13896Y5913D01*
X13819D02*
X13858Y5952D01*
X13801D02*
X13841Y5913D01*
X13763D02*
X13803Y5952D01*
X13746D02*
X13785Y5913D01*
X12965Y5337D02*
X13639Y6011D01*
X12913Y5341D02*
X13639Y6067D01*
X12859Y5343D02*
X13639Y6123D01*
X12803Y5343D02*
X13639Y6178D01*
X12746Y5341D02*
X13639Y6234D01*
X12686Y5336D02*
X13639Y6290D01*
X13708Y5913D02*
X13747Y5952D01*
X13690D02*
X13729Y5913D01*
X13639D02*
X14781D01*
X13652D02*
X13691Y5952D01*
X13639Y5789D02*
X13763Y5913D01*
X13639Y5844D02*
X13708Y5913D01*
X13016Y5332D02*
X13639Y5956D01*
X12623Y5329D02*
X13639Y6345D01*
X11620Y6519D02*
X12796Y5343D01*
X12557Y5319D02*
X13639Y6401D01*
X12488Y5306D02*
X13639Y6457D01*
X11620Y6463D02*
X12743Y5340D01*
X11620Y6408D02*
X12691Y5337D01*
X11620Y6352D02*
X12640Y5331D01*
X13205Y5298D02*
X13639Y5733D01*
X13159Y5309D02*
X13639Y5789D01*
X13113Y5318D02*
X13639Y5844D01*
X13065Y5326D02*
X13639Y5900D01*
X11620Y6296D02*
X12591Y5325D01*
X11620Y6240D02*
X12544Y5317D01*
X11620Y6185D02*
X12497Y5308D01*
X17781Y5599D02*
X18139Y5241D01*
X17189Y3957D02*
X17329Y3816D01*
X17166Y3924D02*
X17264Y3826D01*
X17129Y3823D02*
X17245Y3938D01*
X17061Y3809D02*
X17223Y3972D01*
X17296Y3822D02*
X17322Y3848D01*
X17245Y3827D02*
X17295Y3876D01*
X17190Y3828D02*
X17269Y3906D01*
X17141Y3893D02*
X17206Y3828D01*
X17115Y3864D02*
X17153Y3825D01*
X16477Y5286D02*
X16639Y5448D01*
X16421Y5286D02*
X16639Y5504D01*
X16367Y5287D02*
X16639Y5559D01*
X16281Y5644D02*
X16639Y5286D01*
X16281Y5588D02*
X16584Y5286D01*
X16281Y5533D02*
X16528Y5286D01*
X16281Y5477D02*
X16472Y5286D01*
X16281Y5421D02*
X16417Y5286D01*
X16532D02*
X16639Y5392D01*
X16368Y5286D02*
X16639D01*
X16743Y3679D02*
X16774Y3647D01*
X16281Y5366D02*
X16368Y5286D01*
X14974Y3777D02*
X15077Y3675D01*
X14974Y3722D02*
X15021Y3675D01*
X14974D02*
X15218D01*
X16691Y3675D02*
X16748Y3618D01*
X16663Y3523D02*
X16707Y3567D01*
X16618Y3589D02*
X16704Y3676D01*
X16634Y3676D02*
X16722Y3588D01*
X14400Y4018D02*
X17032Y1385D01*
X16641Y3557D02*
X16767Y3682D01*
X17743Y2901D02*
X17783Y2862D01*
X17691Y2825D02*
X17761Y2895D01*
X16651Y2880D02*
X18147Y1384D01*
X16593Y3620D02*
X16648Y3675D01*
X16566Y3648D02*
X16596Y3679D01*
X16572Y3683D02*
X16699Y3556D01*
X15077Y3675D02*
X15515Y3237D01*
X15021Y3675D02*
X15515Y3181D01*
X16639Y3560D02*
X16678Y3521D01*
X15338Y3419D02*
X15515Y3242D01*
X15132Y3675D02*
X15245Y3562D01*
X15188Y3675D02*
X15223Y3640D01*
X15195Y1387D02*
X16690Y2882D01*
X14409Y3952D02*
X16977Y1385D01*
X14416Y3890D02*
X16921Y1385D01*
X14420Y3830D02*
X16865Y1385D01*
X14422Y3773D02*
X16809Y1385D01*
X14422Y3717D02*
X16754Y1385D01*
X14420Y3664D02*
X16698Y1385D01*
X14416Y3612D02*
X16642Y1385D01*
X14411Y3561D02*
X16587Y1385D01*
X14404Y3512D02*
X16531Y1385D01*
X14396Y3464D02*
X16475Y1385D01*
X14387Y3418D02*
X16419Y1385D01*
X14376Y3373D02*
X16364Y1386D01*
X14365Y3329D02*
X16308Y1386D01*
X14352Y3285D02*
X16252Y1386D01*
X14339Y3243D02*
X16196Y1386D01*
X14172Y5126D02*
X14974Y4323D01*
X14127Y5126D02*
X14974Y4278D01*
X14315Y4325D02*
X15521Y3119D01*
X14346Y4239D02*
X15536Y3048D01*
X14071Y5126D02*
X14974Y4223D01*
X14016Y5126D02*
X14974Y4167D01*
X13960Y5126D02*
X14974Y4111D01*
X14386Y4087D02*
X15660Y2813D01*
X14369Y4160D02*
X15567Y2962D01*
X14324Y3202D02*
X16141Y1386D01*
X14309Y3162D02*
X16085Y1386D01*
X14293Y3122D02*
X16029Y1386D01*
X14275Y3084D02*
X15974Y1386D01*
X14257Y3046D02*
X15918Y1386D01*
X14239Y3009D02*
X15862Y1386D01*
X13860Y1388D02*
X15533Y3061D01*
X13804Y1388D02*
X15523Y3107D01*
X13748Y1388D02*
X15517Y3156D01*
X13693Y1388D02*
X15514Y3209D01*
X13637Y1388D02*
X15503Y3254D01*
X13582Y1388D02*
X15475Y3282D01*
X13526Y1388D02*
X15447Y3310D01*
X14219Y2973D02*
X15806Y1386D01*
X14199Y2938D02*
X15751Y1386D01*
X14177Y2904D02*
X15695Y1386D01*
X14082Y1388D02*
X15597Y2902D01*
X14027Y1388D02*
X15578Y2939D01*
X13971Y1388D02*
X15560Y2977D01*
X13915Y1388D02*
X15545Y3018D01*
X13081Y1389D02*
X15247Y3555D01*
X13025Y1389D02*
X15233Y3596D01*
X12970Y1389D02*
X15223Y3642D01*
X12914Y1389D02*
X15200Y3675D01*
X12858Y1389D02*
X15144Y3675D01*
X12803Y1389D02*
X15089Y3675D01*
X12747Y1389D02*
X15033Y3675D01*
X13470Y1388D02*
X15420Y3338D01*
X13415Y1388D02*
X15392Y3365D01*
X13359Y1388D02*
X15364Y3393D01*
X13303Y1388D02*
X15336Y3421D01*
X13248Y1388D02*
X15310Y3450D01*
X13192Y1389D02*
X15286Y3482D01*
X13137Y1389D02*
X15265Y3517D01*
X17722Y2867D02*
X19206Y1383D01*
X17699Y2835D02*
X19150Y1383D01*
X17673Y2804D02*
X19094Y1383D01*
X17646Y2775D02*
X19039Y1383D01*
X17531Y1384D02*
X18928Y2782D01*
X17475Y1384D02*
X18902Y2811D01*
X17420Y1385D02*
X18877Y2842D01*
X17364Y1385D02*
X18854Y2875D01*
X17753Y1384D02*
X19052Y2683D01*
X17698Y1384D02*
X19019Y2705D01*
X17642Y1384D02*
X18987Y2729D01*
X17618Y2748D02*
X18983Y1383D01*
X17587Y1384D02*
X18957Y2754D01*
X17587Y2723D02*
X18927Y1383D01*
X17555Y2700D02*
X18872Y1383D01*
X17521Y2678D02*
X18816Y1383D01*
X17484Y2659D02*
X18760Y1383D01*
X17446Y2642D02*
X18704Y1383D01*
X17406Y2626D02*
X18649Y1383D01*
X17308Y1385D02*
X18605Y2681D01*
X17362Y2614D02*
X18593Y1383D01*
X17317Y2604D02*
X18537Y1383D01*
X17267Y2597D02*
X18481Y1384D01*
X17253Y1385D02*
X18499Y2631D01*
X17214Y2595D02*
X18426Y1384D01*
X17197Y1385D02*
X18421Y2609D01*
X17142Y1385D02*
X18355Y2598D01*
X17156Y2597D02*
X18370Y1384D01*
X17091Y2606D02*
X18314Y1384D01*
X16918Y2669D02*
X18203Y1384D01*
X16808Y1385D02*
X18062Y2639D01*
X16628Y2847D02*
X18091Y1384D01*
X16697Y1385D02*
X17986Y2675D01*
X16604Y2816D02*
X18036Y1384D01*
X16641Y1385D02*
X17952Y2696D01*
X16577Y2786D02*
X17980Y1384D01*
X16549Y2759D02*
X17924Y1384D01*
X17086Y1385D02*
X18296Y2595D01*
X17030Y1385D02*
X18242Y2597D01*
X17016Y2626D02*
X18258Y1384D01*
X16975Y1385D02*
X18192Y2603D01*
X16919Y1385D02*
X18146Y2612D01*
X16863Y1385D02*
X18103Y2624D01*
X16752Y1385D02*
X18023Y2656D01*
X16585Y1385D02*
X17919Y2719D01*
X16530Y1385D02*
X17888Y2744D01*
X16519Y2733D02*
X17868Y1384D01*
X16474Y1385D02*
X17859Y2771D01*
X16418Y1385D02*
X17832Y2799D01*
X16363Y1386D02*
X17807Y2829D01*
X16307Y1386D02*
X17783Y2861D01*
X16488Y2709D02*
X17813Y1384D01*
X16454Y2687D02*
X17757Y1384D01*
X16419Y2666D02*
X17701Y1384D01*
X16382Y2648D02*
X17645Y1384D01*
X16342Y2632D02*
X17590Y1384D01*
X16300Y2619D02*
X17534Y1384D01*
X16255Y2608D02*
X17478Y1384D01*
X16252Y1386D02*
X17596Y2731D01*
X16196Y1386D02*
X17456Y2646D01*
X16207Y2600D02*
X17422Y1385D01*
X16140Y1386D02*
X17371Y2616D01*
X15968Y2617D02*
X17200Y1385D01*
X15881Y2648D02*
X17144Y1385D01*
X15862Y1386D02*
X17084Y2608D01*
X15732Y2741D02*
X17088Y1385D01*
X16156Y2595D02*
X17367Y1385D01*
X16085Y1386D02*
X17300Y2601D01*
X16100Y2596D02*
X17311Y1385D01*
X16038Y2602D02*
X17255Y1385D01*
X16029Y1386D02*
X17239Y2595D01*
X15973Y1386D02*
X17183Y2595D01*
X15918Y1386D02*
X17132Y2600D01*
X15640Y1386D02*
X16921Y2667D01*
X15528Y1386D02*
X16852Y2710D01*
X15473Y1386D02*
X16820Y2734D01*
X15417Y1386D02*
X16791Y2760D01*
X15362Y1386D02*
X16763Y2788D01*
X15306Y1387D02*
X16737Y2817D01*
X15250Y1387D02*
X16712Y2848D01*
X15807Y1386D02*
X17040Y2619D01*
X15751Y1386D02*
X16998Y2633D01*
X15695Y1386D02*
X16958Y2649D01*
X15584Y1386D02*
X16885Y2688D01*
X15139Y1387D02*
X16419Y2666D01*
X15083Y1387D02*
X16322Y2625D01*
X15028Y1387D02*
X16247Y2606D01*
X14638Y1387D02*
X15893Y2642D01*
X14583Y1387D02*
X15855Y2660D01*
X14527Y1387D02*
X15819Y2679D01*
X14472Y1387D02*
X15785Y2701D01*
X14416Y1387D02*
X15753Y2724D01*
X14360Y1387D02*
X15722Y2749D01*
X14305Y1387D02*
X15694Y2776D01*
X14249Y1388D02*
X15667Y2805D01*
X14972Y1387D02*
X16182Y2597D01*
X14917Y1387D02*
X16125Y2595D01*
X14861Y1387D02*
X16072Y2598D01*
X14805Y1387D02*
X16023Y2604D01*
X14750Y1387D02*
X15977Y2614D01*
X14694Y1387D02*
X15934Y2627D01*
X11620Y1390D02*
X24370Y1378D01*
X14193Y1388D02*
X15642Y2836D01*
X14156Y2870D02*
X15639Y1386D01*
X14138Y1388D02*
X15618Y2868D01*
X14133Y2837D02*
X15583Y1386D01*
X14110Y2804D02*
X15528Y1386D01*
X14086Y2773D02*
X15472Y1386D01*
X14061Y2742D02*
X15416Y1386D01*
X14035Y2712D02*
X15360Y1386D01*
X14009Y2682D02*
X15305Y1387D01*
X13982Y2653D02*
X15249Y1387D01*
X13955Y2625D02*
X15193Y1387D01*
X13927Y2597D02*
X15138Y1387D01*
X13898Y2571D02*
X15082Y1387D01*
X13868Y2545D02*
X15026Y1387D01*
X14035Y4792D02*
X14270Y5027D01*
X14008Y4822D02*
X14242Y5055D01*
X14085Y4731D02*
X14326Y4972D01*
X14060Y4762D02*
X14298Y5000D01*
X13639Y5126D02*
X14172D01*
X13926Y4906D02*
X14145Y5126D01*
X13982Y4850D02*
X14214Y5083D01*
X13954Y4879D02*
X14186Y5111D01*
X14198Y4566D02*
X14465Y4833D01*
X14155Y4634D02*
X14409Y4888D01*
X14238Y4494D02*
X14520Y4777D01*
X14218Y4530D02*
X14493Y4805D01*
X14109Y4699D02*
X14353Y4944D01*
X14132Y4667D02*
X14381Y4916D01*
X14177Y4600D02*
X14437Y4860D01*
X13639Y5224D02*
X13737Y5126D01*
X13639D02*
Y5913D01*
X13897Y4933D02*
X14090Y5126D01*
X13867Y4959D02*
X14034Y5126D01*
X13532Y5180D02*
X13639Y5288D01*
X13569Y5161D02*
X13639Y5232D01*
Y5168D02*
X13682Y5126D01*
X13605Y5142D02*
X13639Y5176D01*
X13774Y5033D02*
X13867Y5126D01*
X13742Y5056D02*
X13811Y5126D01*
X13837Y4984D02*
X13978Y5126D01*
X13806Y5009D02*
X13923Y5126D01*
X13709Y5079D02*
X13756Y5126D01*
X13675Y5100D02*
X13700Y5126D01*
X13682D02*
X13774Y5033D01*
X14112Y4695D02*
X14974Y3833D01*
X14416Y3893D02*
X14910Y4387D01*
X14215Y4536D02*
X14974Y3777D01*
X14274Y4422D02*
X14974Y3722D01*
X13904Y5126D02*
X14974Y4056D01*
X13849Y5126D02*
X14974Y4000D01*
X13793Y5126D02*
X14974Y3944D01*
X13737Y5126D02*
X14974Y3889D01*
X14422Y3787D02*
X14966Y4331D01*
X14420Y3841D02*
X14938Y4359D01*
X14422Y3732D02*
X14974Y4284D01*
Y3675D02*
Y4323D01*
X14420Y3674D02*
X14974Y4228D01*
X14416Y3615D02*
X14974Y4173D01*
X14410Y3552D02*
X14974Y4117D01*
X14324Y4302D02*
X14660Y4638D01*
X14308Y4342D02*
X14632Y4665D01*
X14352Y4219D02*
X14715Y4582D01*
X14338Y4261D02*
X14687Y4610D01*
X14275Y4420D02*
X14576Y4721D01*
X14257Y4458D02*
X14548Y4749D01*
X14292Y4381D02*
X14604Y4693D01*
X14396Y4040D02*
X14827Y4471D01*
X14376Y4131D02*
X14771Y4526D01*
X14410Y3943D02*
X14882Y4415D01*
X14404Y3992D02*
X14854Y4443D01*
X14376Y4131D02*
X14771Y4526D01*
X14365Y4176D02*
X14743Y4554D01*
X14386Y4086D02*
X14799Y4498D01*
X12414Y5287D02*
X13639Y6512D01*
X12335Y5264D02*
X13639Y6568D01*
X12248Y5232D02*
X13639Y6624D01*
X12149Y5190D02*
X13639Y6679D01*
X11718Y7200D02*
X13639Y5279D01*
X11663Y7200D02*
X13639Y5224D01*
X11620Y7187D02*
X13639Y5168D01*
X11620Y5217D02*
X13604Y7201D01*
X13376Y5247D02*
X13639Y5510D01*
X13455Y5215D02*
X13639Y5399D01*
X13416Y5231D02*
X13639Y5455D01*
X13494Y5198D02*
X13639Y5343D01*
X13292Y5274D02*
X13639Y5622D01*
X13249Y5287D02*
X13639Y5677D01*
X13334Y5261D02*
X13639Y5566D01*
X11620Y5273D02*
X13548Y7201D01*
X11620Y6964D02*
X13318Y5266D01*
X11620Y7076D02*
X13501Y5195D01*
X11620Y7020D02*
X13404Y5236D01*
X11620Y6909D02*
X13239Y5290D01*
X11620Y6129D02*
X12452Y5297D01*
X11620Y6073D02*
X12408Y5286D01*
X11620Y6018D02*
X12365Y5273D01*
X11620Y5962D02*
X12322Y5260D01*
X11620Y5906D02*
X12281Y5245D01*
X11620Y5851D02*
X12241Y5230D01*
X11620Y5795D02*
X12202Y5213D01*
X11620Y5739D02*
X12163Y5196D01*
X11620Y5684D02*
X12126Y5178D01*
X11620Y5161D02*
X13639Y7181D01*
X11620Y7131D02*
X13616Y5136D01*
X11620Y5106D02*
X13639Y7125D01*
X11620Y5050D02*
X13639Y7069D01*
X11620Y4994D02*
X13639Y7014D01*
X11620Y4939D02*
X13639Y6958D01*
X11620Y4883D02*
X13639Y6902D01*
X11620Y4827D02*
X13639Y6846D01*
X12032Y5128D02*
X13639Y6735D01*
X11620Y5628D02*
X12089Y5159D01*
X11864Y5016D02*
X13639Y6791D01*
X11620Y5572D02*
X12053Y5140D01*
X11620Y5517D02*
X12017Y5119D01*
X11620Y5461D02*
X11983Y5098D01*
X11620Y5405D02*
X11949Y5076D01*
X11620Y4785D02*
Y7200D01*
Y5350D02*
X11916Y5054D01*
X11620Y5294D02*
X11884Y5030D01*
X11620Y5238D02*
X11852Y5006D01*
X11620Y5183D02*
X11821Y4982D01*
X11620Y5127D02*
X11791Y4956D01*
X11620Y5071D02*
X11761Y4930D01*
X11620Y5016D02*
X11732Y4903D01*
X11620Y4960D02*
X11704Y4876D01*
X11620Y4904D02*
X11677Y4848D01*
X11620Y4849D02*
X11650Y4819D01*
X14400Y3487D02*
X14974Y4061D01*
X14387Y3418D02*
X14974Y4006D01*
X14369Y3345D02*
X14974Y3950D01*
X14346Y3267D02*
X14974Y3894D01*
X14316Y3181D02*
X14974Y3838D01*
X14276Y3084D02*
X14974Y3783D01*
X14217Y2970D02*
X14974Y3727D01*
X14117Y2815D02*
X14977Y3675D01*
X13838Y2519D02*
X14970Y1387D01*
X13807Y2495D02*
X14915Y1387D01*
X13775Y2471D02*
X14859Y1387D01*
X13743Y2447D02*
X14803Y1387D01*
X13710Y2425D02*
X14747Y1387D01*
X13676Y2403D02*
X14692Y1387D01*
X13641Y2382D02*
X14636Y1387D01*
X13606Y2361D02*
X14580Y1387D01*
X13570Y2342D02*
X14525Y1387D01*
X13533Y2323D02*
X14469Y1387D01*
X13495Y2305D02*
X14413Y1387D01*
X13457Y2288D02*
X14357Y1387D01*
X13417Y2272D02*
X14302Y1387D01*
X13377Y2257D02*
X14246Y1388D01*
X13336Y2242D02*
X14190Y1388D01*
X13293Y2229D02*
X14134Y1388D01*
X13250Y2216D02*
X14079Y1388D01*
X13206Y2205D02*
X14023Y1388D01*
X13161Y2194D02*
X13967Y1388D01*
X13114Y2185D02*
X13911Y1388D01*
X13066Y2177D02*
X13856Y1388D01*
X13017Y2171D02*
X13800Y1388D01*
X12692Y1389D02*
X13767Y2465D01*
X12636Y1389D02*
X13611Y2365D01*
X12580Y1389D02*
X13497Y2306D01*
X12559Y2183D02*
X13354Y1388D01*
X12525Y1389D02*
X13401Y2266D01*
X12469Y1389D02*
X13315Y2235D01*
X12967Y2166D02*
X13744Y1388D01*
X12915Y2162D02*
X13689Y1388D01*
X12861Y2160D02*
X13633Y1388D01*
X12805Y2160D02*
X13577Y1388D01*
X12748Y2162D02*
X13521Y1388D01*
X12688Y2166D02*
X13466Y1388D01*
X12625Y2173D02*
X13410Y1388D01*
X12490Y2197D02*
X13298Y1388D01*
X12413Y1389D02*
X13237Y2212D01*
X12417Y2215D02*
X13243Y1388D01*
X12337Y2238D02*
X13187Y1389D01*
X12251Y2269D02*
X13131Y1389D01*
X12153Y2311D02*
X13076Y1389D01*
X12036Y2372D02*
X13020Y1389D01*
X12358Y1389D02*
X13164Y2195D01*
X12302Y1389D02*
X13095Y2182D01*
X12247Y1389D02*
X13029Y2172D01*
X12191Y1389D02*
X12967Y2166D01*
X12135Y1390D02*
X12907Y2162D01*
X12080Y1390D02*
X12850Y2160D01*
X12024Y1390D02*
X12795Y2160D01*
X11620Y1876D02*
X12087Y2344D01*
X11872Y2481D02*
X12964Y1389D01*
X11620Y1765D02*
X12162Y2307D01*
X11620Y1821D02*
X12124Y2325D01*
X11620Y1654D02*
X12240Y2274D01*
X11620Y1709D02*
X12200Y2290D01*
X11968Y1390D02*
X12741Y2162D01*
X11620Y1542D02*
X12321Y2244D01*
X11913Y1390D02*
X12689Y2166D01*
X11857Y1390D02*
X12639Y2171D01*
X11620Y1487D02*
X12363Y2230D01*
X11620Y1598D02*
X12280Y2258D01*
X11620Y1431D02*
X12406Y2217D01*
X11620Y2600D02*
X11676Y2656D01*
X11620Y2656D02*
X11649Y2685D01*
X11620Y2433D02*
X11760Y2573D01*
X11620Y2545D02*
X11703Y2628D01*
X11620Y2378D02*
X11790Y2547D01*
X11620Y2489D02*
X11731Y2600D01*
X11620Y2322D02*
X11820Y2522D01*
X11620Y2210D02*
X11882Y2473D01*
X11620Y2266D02*
X11851Y2497D01*
X11620Y2099D02*
X11948Y2427D01*
X11620Y2155D02*
X11915Y2450D01*
X11620Y1988D02*
X12016Y2384D01*
X11620Y2043D02*
X11982Y2405D01*
X11620Y1932D02*
X12051Y2364D01*
X11620Y2677D02*
X12908Y1389D01*
X11620Y2621D02*
X12853Y1389D01*
X11620Y2566D02*
X12797Y1389D01*
X11620Y2510D02*
X12741Y1389D01*
X11620Y2454D02*
X12685Y1389D01*
X11620Y2399D02*
X12630Y1389D01*
X11620Y2343D02*
X12574Y1389D01*
X11620Y2287D02*
X12518Y1389D01*
X11802Y1390D02*
X12590Y2178D01*
X11746Y1390D02*
X12542Y2186D01*
X11690Y1390D02*
X12496Y2195D01*
X11620Y2232D02*
X12462Y1389D01*
X11635Y1390D02*
X12451Y2206D01*
X11635Y1390D02*
X12451Y2206D01*
X11620Y2176D02*
X12407Y1389D01*
X11620Y2120D02*
X12351Y1389D01*
X11620Y1390D02*
Y2718D01*
Y2065D02*
X12295Y1389D01*
X11620Y2009D02*
X12240Y1389D01*
X11620Y1953D02*
X12184Y1389D01*
X11620Y1898D02*
X12128Y1390D01*
X11620Y1842D02*
X12072Y1390D01*
X11620Y1786D02*
X12017Y1390D01*
X11620Y1731D02*
X11961Y1390D01*
X11620Y1675D02*
X11905Y1390D01*
X11620Y1619D02*
X11849Y1390D01*
X11620Y1564D02*
X11794Y1390D01*
X11620Y1508D02*
X11738Y1390D01*
X11620Y1452D02*
X11682Y1390D01*
D11*
X1614Y21602D02*
X1619Y21497D01*
X1633Y21393D01*
X1655Y21290D01*
X1687Y21190D01*
X1727Y21092D01*
X1776Y20999D01*
X1832Y20910D01*
X1897Y20826D01*
X1968Y20749D01*
X1614Y21602D02*
Y28476D01*
X1968Y29330D02*
X2481Y29843D01*
D12*
X1968Y29330D02*
X1897Y29252D01*
X1832Y29169D01*
X1776Y29080D01*
X1727Y28987D01*
X1687Y28889D01*
X1655Y28789D01*
X1633Y28686D01*
X1619Y28582D01*
X1614Y28476D01*
X2481Y29843D02*
X2552Y29921D01*
X2616Y30004D01*
X2673Y30093D01*
X2722Y30187D01*
X2762Y30284D01*
X2794Y30384D01*
X2816Y30487D01*
X2830Y30592D01*
X2835Y30697D01*
X2835D02*
Y30827D01*
D13*
X2205Y20512D02*
D03*
D03*
D14*
X21216Y27052D02*
D03*
Y25472D02*
D03*
Y26262D02*
D03*
X27800Y26493D02*
D03*
Y27283D02*
D03*
Y25703D02*
D03*
D15*
X26705Y23425D02*
D03*
X26205D02*
D03*
X25705D02*
D03*
X24705D02*
D03*
X24205D02*
D03*
X23705D02*
D03*
X22705D02*
D03*
X26705Y19646D02*
D03*
X26205D02*
D03*
X25705D02*
D03*
X25205D02*
D03*
X24705D02*
D03*
X24205D02*
D03*
X23705D02*
D03*
X23205D02*
D03*
X22705D02*
D03*
X22205Y23425D02*
D03*
X23205D02*
D03*
X25205D02*
D03*
D16*
X22205Y19646D02*
D03*
D17*
X5571Y6516D02*
D03*
X3642D02*
D03*
D18*
X4606Y5551D02*
D03*
Y7480D02*
D03*
D19*
X12250Y8260D02*
D03*
Y10000D02*
D03*
D20*
X21710Y6720D02*
D03*
X14210D02*
D03*
X15710D02*
D03*
X17210D02*
D03*
X18710D02*
D03*
X20210D02*
D03*
D21*
X21710Y5519D02*
D03*
Y7921D02*
D03*
X14210D02*
D03*
Y5519D02*
D03*
X15710Y7921D02*
D03*
Y5519D02*
D03*
X17210Y7921D02*
D03*
Y5519D02*
D03*
X18710Y7921D02*
D03*
Y5519D02*
D03*
X20210Y7921D02*
D03*
Y5519D02*
D03*
D22*
X9173Y20155D02*
D03*
Y19055D02*
D03*
X14055Y35177D02*
D03*
Y36077D02*
D03*
X8071Y34632D02*
D03*
Y35531D02*
D03*
X30276Y8892D02*
D03*
Y7992D02*
D03*
X31260D02*
D03*
Y8892D02*
D03*
X27795Y8911D02*
D03*
Y8011D02*
D03*
X8071Y33676D02*
D03*
Y32776D02*
D03*
Y31707D02*
D03*
Y30807D02*
D03*
X28888Y34346D02*
D03*
Y35246D02*
D03*
X30659Y31461D02*
D03*
Y30561D02*
D03*
X23071Y30143D02*
D03*
Y31043D02*
D03*
X28848Y30567D02*
D03*
Y31467D02*
D03*
X3661Y27559D02*
D03*
Y26659D02*
D03*
X5276Y18144D02*
D03*
Y17244D02*
D03*
X15000Y35152D02*
D03*
Y34252D02*
D03*
X20039Y34429D02*
D03*
Y35329D02*
D03*
X24400Y34380D02*
D03*
Y35280D02*
D03*
X29754Y34341D02*
D03*
Y35241D02*
D03*
Y31467D02*
D03*
Y30567D02*
D03*
X16339Y29882D02*
D03*
Y28982D02*
D03*
X13583Y29882D02*
D03*
Y28982D02*
D03*
X17087Y32894D02*
D03*
Y31994D02*
D03*
X16220Y31988D02*
D03*
Y32888D02*
D03*
X20079Y32264D02*
D03*
Y33164D02*
D03*
X27008Y28962D02*
D03*
Y29862D02*
D03*
X24439Y32333D02*
D03*
Y33233D02*
D03*
X22047Y30118D02*
D03*
Y31018D02*
D03*
X3661Y24809D02*
D03*
Y25709D02*
D03*
X7283Y21018D02*
D03*
Y20118D02*
D03*
X6339Y17244D02*
D03*
Y18144D02*
D03*
X8150Y18155D02*
D03*
Y19055D02*
D03*
X7283D02*
D03*
Y18155D02*
D03*
X8071Y8380D02*
D03*
Y7480D02*
D03*
X7283D02*
D03*
Y8380D02*
D03*
X24567Y26412D02*
D03*
X30748Y11535D02*
D03*
Y10635D02*
D03*
X20654Y23178D02*
D03*
Y22278D02*
D03*
X18904Y19678D02*
D03*
Y20578D02*
D03*
Y22178D02*
D03*
Y23078D02*
D03*
X27992Y23071D02*
D03*
Y22171D02*
D03*
X28954Y20248D02*
D03*
Y21148D02*
D03*
X27954Y20248D02*
D03*
Y21148D02*
D03*
X31299Y5945D02*
D03*
Y6845D02*
D03*
X2205Y20512D02*
D03*
Y19612D02*
D03*
X30964Y4856D02*
D03*
Y3956D02*
D03*
X26772Y8911D02*
D03*
Y8011D02*
D03*
X32638Y11817D02*
D03*
Y12717D02*
D03*
X26378Y4955D02*
D03*
Y4055D02*
D03*
X28976Y22171D02*
D03*
Y23071D02*
D03*
X24567Y25512D02*
D03*
X23150Y26417D02*
D03*
Y25517D02*
D03*
X26024Y26378D02*
D03*
Y25478D02*
D03*
D23*
X15000Y33307D02*
D03*
Y31969D02*
D03*
X22283Y33130D02*
D03*
Y34469D02*
D03*
D24*
X5354Y31811D02*
D03*
X2992D02*
D03*
Y34016D02*
D03*
X5354D02*
D03*
X12441Y34547D02*
D03*
X10079D02*
D03*
Y32343D02*
D03*
X12441D02*
D03*
X3858Y12323D02*
D03*
X6220D02*
D03*
Y10118D02*
D03*
X3858D02*
D03*
D25*
X5512Y33386D02*
D03*
Y32441D02*
D03*
Y31181D02*
D03*
X2835D02*
D03*
Y32441D02*
D03*
Y33386D02*
D03*
Y34646D02*
D03*
X9921Y35177D02*
D03*
Y33917D02*
D03*
Y32972D02*
D03*
Y31713D02*
D03*
X12598D02*
D03*
Y32972D02*
D03*
Y33917D02*
D03*
X3701Y10748D02*
D03*
Y11693D02*
D03*
Y12953D02*
D03*
X6378D02*
D03*
Y11693D02*
D03*
Y10748D02*
D03*
Y9488D02*
D03*
D26*
X5512Y34646D02*
D03*
X12598Y35177D02*
D03*
X3701Y9488D02*
D03*
D27*
X6220Y19094D02*
D03*
Y19594D02*
D03*
Y20094D02*
D03*
Y20594D02*
D03*
X4020D02*
D03*
Y20094D02*
D03*
Y19594D02*
D03*
Y19094D02*
D03*
X27631Y4788D02*
D03*
Y4288D02*
D03*
Y3788D02*
D03*
Y3288D02*
D03*
X29831D02*
D03*
Y3788D02*
D03*
Y4288D02*
D03*
Y4788D02*
D03*
D28*
X27205Y31791D02*
D03*
X26005D02*
D03*
D29*
X19094Y35315D02*
D03*
Y34567D02*
D03*
X18228Y34941D02*
D03*
X28888Y32884D02*
D03*
X29754Y32510D02*
D03*
Y33258D02*
D03*
D30*
X26614Y37136D02*
D03*
D31*
X27352Y33002D02*
D03*
X25876D02*
D03*
D32*
X10748Y20236D02*
D03*
D33*
X11339Y19055D02*
D03*
X10157D02*
D03*
D34*
X27659Y2302D02*
D03*
X28759D02*
D03*
X19207Y31299D02*
D03*
X18307D02*
D03*
X19094Y33209D02*
D03*
X18194D02*
D03*
X18307Y29882D02*
D03*
X19207D02*
D03*
X6451Y8425D02*
D03*
X5551D02*
D03*
X12289Y22008D02*
D03*
X13189D02*
D03*
X9882Y23150D02*
D03*
X8982D02*
D03*
X5591Y23780D02*
D03*
X4691D02*
D03*
Y22835D02*
D03*
X5591D02*
D03*
X3943Y15433D02*
D03*
X4843D02*
D03*
X4803Y14213D02*
D03*
X3903D02*
D03*
X4606Y8425D02*
D03*
X3706D02*
D03*
X15900Y15354D02*
D03*
X15000D02*
D03*
X26659Y6102D02*
D03*
X27559D02*
D03*
X21299Y16575D02*
D03*
X20399D02*
D03*
X12604Y19528D02*
D03*
X13504D02*
D03*
X22328Y10512D02*
D03*
X23228D02*
D03*
X20394Y18268D02*
D03*
X21294D02*
D03*
X29291Y16417D02*
D03*
X28391D02*
D03*
X28386Y18465D02*
D03*
X29286D02*
D03*
X6693Y4685D02*
D03*
X5793D02*
D03*
X19766Y9370D02*
D03*
X20866D02*
D03*
X19766Y10512D02*
D03*
X20866D02*
D03*
X29840Y6102D02*
D03*
X28740D02*
D03*
X13191Y16535D02*
D03*
X14291D02*
D03*
X30880Y2302D02*
D03*
X29980D02*
D03*
X29286Y15354D02*
D03*
X28386D02*
D03*
X29286Y17441D02*
D03*
X28386D02*
D03*
X30872Y17126D02*
D03*
X31772D02*
D03*
X31766Y16142D02*
D03*
X30866D02*
D03*
X28273Y11535D02*
D03*
X29173D02*
D03*
X23228Y9409D02*
D03*
X22328D02*
D03*
X29213Y12559D02*
D03*
X28313D02*
D03*
X22289Y18268D02*
D03*
X23189D02*
D03*
X10439Y18110D02*
D03*
X11339D02*
D03*
X25827Y24449D02*
D03*
X26727D02*
D03*
X23656D02*
D03*
X22756D02*
D03*
D35*
X13110Y18110D02*
D03*
D36*
X14291Y18701D02*
D03*
Y17520D02*
D03*
D37*
X14970Y28703D02*
D03*
D38*
X14380Y29884D02*
D03*
X15561D02*
D03*
D39*
X16772Y34035D02*
D03*
Y35235D02*
D03*
X24360Y29931D02*
D03*
Y31131D02*
D03*
X6063Y25984D02*
D03*
Y24784D02*
D03*
X4724Y26003D02*
D03*
Y24803D02*
D03*
X3819Y16811D02*
D03*
Y18011D02*
D03*
X6102Y14213D02*
D03*
Y15413D02*
D03*
X18858Y16811D02*
D03*
Y18011D02*
D03*
X20654Y19678D02*
D03*
Y20878D02*
D03*
D40*
X5787Y21654D02*
D03*
X4449D02*
D03*
D41*
X22638Y13563D02*
D03*
Y15039D02*
D03*
D42*
X18504Y14301D02*
D03*
D43*
X31766Y15112D02*
D03*
X31266D02*
D03*
X30766D02*
D03*
X30266Y15112D02*
D03*
X30266Y12912D02*
D03*
X30766D02*
D03*
X31266D02*
D03*
X31766D02*
D03*
D44*
X21710Y6720D02*
X22261D01*
X21159D02*
X21710D01*
X20210D02*
X20761D01*
X19659D02*
X20210D01*
X18710D02*
X19261D01*
X18159D02*
X18710D01*
X17210D02*
X17761D01*
X16659D02*
X17210D01*
X15710D02*
X16261D01*
X15159D02*
X15710D01*
X14210D02*
X14761D01*
X13659D02*
X14210D01*
D45*
X22671Y3751D02*
X23782Y4863D01*
X22671Y3751D02*
X23782Y2640D01*
X21559Y4863D02*
X22671Y3751D01*
X21559Y2640D02*
X22671Y3751D01*
X16671Y4291D02*
X17093Y3869D01*
X16789Y3633D02*
X17211Y3211D01*
X17633Y2789D01*
X16789D02*
X17211Y3211D01*
X12831Y3751D02*
X13942Y4863D01*
X11719D02*
X12831Y3751D01*
X13942Y2640D01*
X11719D02*
X12831Y3751D01*
D46*
X23694Y23428D02*
Y24449D01*
X23656D02*
X23694Y24410D01*
X23150Y25517D02*
X23656Y25011D01*
Y24449D02*
Y25011D01*
X29213Y12559D02*
X30157D01*
X30266Y12668D02*
Y12912D01*
X30157Y12559D02*
X30266Y12668D01*
X31766Y10163D02*
Y12912D01*
X30906Y5945D02*
X31732D01*
X32008Y6220D02*
Y9921D01*
X31732Y5945D02*
X32008Y6220D01*
X30748Y11535D02*
X31766D01*
X26659Y6102D02*
X26811Y5950D01*
Y5551D02*
Y5950D01*
Y5551D02*
X27107Y5255D01*
X28011D01*
X32638Y5709D02*
Y11783D01*
X24843Y2559D02*
Y6969D01*
Y2559D02*
X26417Y984D01*
X25354Y2992D02*
Y7205D01*
Y2992D02*
X26811Y1535D01*
X29252Y7992D02*
X31260D01*
X30276Y7992D02*
X30276Y7323D01*
X28504Y8740D02*
X29252Y7992D01*
X26280Y8011D02*
X28406D01*
X25866Y8425D02*
X26280Y8011D01*
X28406D02*
X29291Y7126D01*
X29291D01*
X29831Y4788D02*
X30103D01*
X30394Y5079D01*
Y5433D01*
X30906Y5945D01*
X23228Y8583D02*
X24843Y6969D01*
X20748Y8583D02*
X23228D01*
X24843Y7717D02*
X25354Y7205D01*
X23228Y9409D02*
X23937D01*
X24843Y8504D01*
Y7717D02*
Y8504D01*
X25394Y7953D02*
X25866Y7480D01*
X23228Y10512D02*
X24134D01*
X25394Y9252D01*
Y7953D02*
Y9252D01*
X25866Y5472D02*
Y7480D01*
Y5472D02*
X26378Y4961D01*
X25705Y9886D02*
X25866Y9724D01*
Y8425D02*
Y9724D01*
X26535Y10118D02*
X28110D01*
X28504Y9724D01*
X30197Y15827D02*
X30266Y15758D01*
Y15112D02*
Y15758D01*
X30084Y19370D02*
X30872Y18583D01*
X30084Y19370D02*
Y20231D01*
X30872Y17126D02*
Y18583D01*
X27834Y25669D02*
X30118D01*
X29272Y25679D02*
X29281Y25669D01*
X25669Y28041D02*
X28947D01*
X13189Y22118D02*
Y22945D01*
X12165Y22132D02*
X12289Y22008D01*
X12165Y22132D02*
Y23228D01*
X12905D02*
X13189Y22945D01*
X29291Y5669D02*
Y7126D01*
X28937Y5315D02*
X29291Y5669D01*
X28937Y4626D02*
Y5315D01*
X28109Y3798D02*
X28937Y4626D01*
X27641Y3798D02*
X28109D01*
X29803Y6024D02*
X29859Y6121D01*
X29803Y5433D02*
Y6024D01*
X27559Y6102D02*
X28740D01*
X24567Y26939D02*
X25669Y28041D01*
X24567Y26412D02*
Y26939D01*
X25205Y23425D02*
Y26652D01*
X25837Y27283D01*
X27800D01*
X27879Y27362D01*
X28740D01*
X20404Y24469D02*
X21398Y23474D01*
Y23199D02*
Y23474D01*
Y23199D02*
X21880Y22717D01*
X23053D01*
X23205Y22868D01*
Y23425D01*
X27677Y11929D02*
Y13913D01*
Y11929D02*
X28071Y11535D01*
X28273D01*
X31766Y10163D02*
X32008Y9921D01*
X32638Y11783D02*
X32672Y11817D01*
X32047Y5118D02*
X32638Y5709D01*
X15710Y9608D02*
X17717Y11614D01*
X23189Y18268D02*
X23705Y18783D01*
Y19646D01*
X22289Y18268D02*
Y18667D01*
X22520Y18898D01*
X22874D01*
X23205Y19228D01*
Y19646D01*
X25205Y18472D02*
Y19646D01*
X28386Y17441D02*
Y18465D01*
X26205Y10449D02*
Y19646D01*
Y10449D02*
X26535Y10118D01*
X28504Y8740D02*
Y9724D01*
X25705Y9886D02*
Y19843D01*
X26811Y1535D02*
X28148D01*
X21097Y9370D02*
X22126D01*
X18150Y10472D02*
X19727D01*
X17210Y9533D02*
X18150Y10472D01*
X17210Y7921D02*
Y9533D01*
X18710Y9222D02*
X18819Y9331D01*
X18710Y7921D02*
Y9222D01*
X20233Y8068D02*
X20748Y8583D01*
X20233Y7944D02*
Y8068D01*
X20210Y7921D02*
X20233Y7944D01*
X32638Y11817D02*
X32672D01*
X32638Y12717D02*
Y13150D01*
X32126Y13661D02*
X32638Y13150D01*
X31575Y13661D02*
X32126D01*
X26417Y984D02*
X31142D01*
X31266Y12912D02*
Y13353D01*
X30766Y12912D02*
X31266D01*
Y13353D02*
X31575Y13661D01*
X28386Y15354D02*
Y16412D01*
X31766Y15112D02*
Y16142D01*
X29606Y20709D02*
X30084Y20231D01*
X26378Y4955D02*
Y4961D01*
X26545Y4788D02*
X27631D01*
X26378Y4055D02*
X26611Y4288D01*
X27631D01*
X29831Y3288D02*
X30135D01*
X30373Y3050D01*
X30964Y2420D02*
Y3956D01*
X30396Y4288D02*
X30964Y4856D01*
X29831Y4288D02*
X30396D01*
X30796Y3788D02*
X30964Y3956D01*
X29831Y3788D02*
X30796D01*
X27631D02*
X27641Y3798D01*
X28208Y2972D02*
X29524Y4288D01*
X27107Y3288D02*
X27631D01*
X26909Y3129D02*
X26948D01*
X28011Y5255D02*
X28247Y5019D01*
Y4586D02*
Y5019D01*
X27950Y4288D02*
X28247Y4586D01*
X28208Y1595D02*
Y2972D01*
X28148Y1535D02*
X28208Y1595D01*
X22694Y23428D02*
Y24387D01*
X22756Y24449D01*
X24194Y23428D02*
Y24037D01*
X24567Y24409D01*
Y25512D01*
X26024Y24646D02*
Y25517D01*
X25694Y24316D02*
X26024Y24646D01*
X25694Y23428D02*
Y24316D01*
X26194Y23428D02*
Y23916D01*
X26727Y24449D01*
X15710Y7921D02*
Y9608D01*
X17205Y7926D02*
X17210Y7921D01*
X19727Y10472D02*
X19766Y10512D01*
X18819Y9331D02*
X19727D01*
X19766Y9370D01*
X20866Y10512D02*
X22328D01*
X30827Y13622D02*
X31266Y14061D01*
X29386Y13622D02*
X30827D01*
X30591Y14331D02*
X30766Y14506D01*
X29362Y14331D02*
X30591D01*
X31266Y14061D02*
Y15112D01*
X29228Y13465D02*
X29386Y13622D01*
X29228Y14465D02*
X29362Y14331D01*
X30766Y14506D02*
Y16042D01*
X28228Y12643D02*
Y13465D01*
X28386Y14622D02*
Y15354D01*
X27677Y13913D02*
X28386Y14622D01*
X31772Y16147D02*
Y17126D01*
X32047Y5079D02*
Y5118D01*
X31693Y4724D02*
X32047Y5079D01*
X31693Y1535D02*
Y4724D01*
X31142Y984D02*
X31693Y1535D01*
X22205Y23425D02*
Y23711D01*
X21216Y24700D02*
X22205Y23711D01*
X21216Y24700D02*
Y25472D01*
X20276Y25394D02*
X20354Y25472D01*
X21216D01*
X27800Y25703D02*
X27834Y25669D01*
X20394Y24469D02*
X20404D01*
X19764Y25098D02*
X20394Y24469D01*
X19764Y25098D02*
Y27087D01*
X18898D02*
X21182D01*
X28947Y28041D02*
X29272Y27717D01*
Y25679D02*
Y27717D01*
D47*
X28976Y12717D02*
X29213Y12559D01*
X28780Y14921D02*
X28840Y14982D01*
Y16850D01*
X28622Y17068D02*
X28840Y16850D01*
X28622Y17068D02*
Y17441D01*
X28386D02*
X28622D01*
X28780Y13228D02*
Y14921D01*
Y13228D02*
X28976Y12717D01*
X27244Y20709D02*
X29606D01*
X30766Y12912D02*
X30787Y12891D01*
X30766Y16042D02*
X30866Y16142D01*
X28386Y16412D02*
X28391Y16417D01*
X28228Y12643D02*
X28313Y12559D01*
X31766Y12912D02*
X31772Y12907D01*
X31766Y16142D02*
X31772Y16147D01*
X750Y-3937D02*
X375Y-2953D01*
X0Y-3937D01*
X141Y-3609D02*
X609D01*
X979Y-2953D02*
Y-3937D01*
Y-2953D02*
X1354Y-3937D01*
X1729Y-2953D02*
X1354Y-3937D01*
X1729Y-2953D02*
Y-3937D01*
X2666Y-3094D02*
X2573Y-3000D01*
X2432Y-2953D01*
X2245D01*
X2104Y-3000D01*
X2010Y-3094D01*
Y-3187D01*
X2057Y-3281D01*
X2104Y-3328D01*
X2198Y-3375D01*
X2479Y-3468D01*
X2573Y-3515D01*
X2619Y-3562D01*
X2666Y-3656D01*
Y-3796D01*
X2573Y-3890D01*
X2432Y-3937D01*
X2245D01*
X2104Y-3890D01*
X2010Y-3796D01*
X3636Y-3937D02*
X3261Y-2953D01*
X2887Y-3937D01*
X3027Y-3609D02*
X3496D01*
X4194Y-2953D02*
Y-3937D01*
X3866Y-2953D02*
X4522D01*
X5412D02*
Y-3937D01*
Y-2953D02*
X6068Y-3937D01*
Y-2953D02*
Y-3937D01*
X6949Y-2953D02*
X6340D01*
Y-3937D01*
X6949D01*
X6340Y-3422D02*
X6715D01*
X7113Y-2953D02*
X7348Y-3937D01*
X7582Y-2953D02*
X7348Y-3937D01*
X7582Y-2953D02*
X7816Y-3937D01*
X8050Y-2953D02*
X7816Y-3937D01*
X9676Y-2953D02*
X9020Y-3937D01*
Y-2953D02*
X9676D01*
X9020Y-3937D02*
X9676D01*
X10506Y-2953D02*
X9897D01*
Y-3937D01*
X10506D01*
X9897Y-3422D02*
X10272D01*
X11420Y-3937D02*
X11045Y-2953D01*
X10670Y-3937D01*
X10810Y-3609D02*
X11279D01*
X11649Y-2953D02*
Y-3937D01*
X12211D01*
X13069D02*
X12694Y-2953D01*
X12319Y-3937D01*
X12460Y-3609D02*
X12928D01*
X13299Y-2953D02*
Y-3937D01*
Y-2953D02*
X13955Y-3937D01*
Y-2953D02*
Y-3937D01*
X14226Y-2953D02*
Y-3937D01*
Y-2953D02*
X14554D01*
X14695Y-3000D01*
X14789Y-3094D01*
X14836Y-3187D01*
X14882Y-3328D01*
Y-3562D01*
X14836Y-3703D01*
X14789Y-3796D01*
X14695Y-3890D01*
X14554Y-3937D01*
X14226D01*
D48*
X23189Y15315D02*
Y18268D01*
X22638Y15039D02*
X22913D01*
X23189Y15315D01*
X3346Y19094D02*
X4724D01*
X3268Y19016D02*
X3346Y19094D01*
X31226Y6772D02*
X31299Y6845D01*
X30748Y6772D02*
X31226D01*
X26987Y2302D02*
X27047D01*
X26987D02*
X27659D01*
X31260Y8892D02*
Y9528D01*
X30276Y8892D02*
Y9528D01*
X30748Y10000D02*
Y10635D01*
X27795Y8911D02*
Y9528D01*
X26772Y8911D02*
Y9528D01*
X29173Y11535D02*
X30748D01*
X29286Y18465D02*
X29921D01*
X29286Y17441D02*
X29286Y17441D01*
X29921D01*
X29291Y16417D02*
X29291Y16417D01*
X29921D01*
X29286Y15354D02*
X29286Y15354D01*
X29803D01*
X24205Y12906D02*
Y21024D01*
X26575Y26378D02*
X27008Y26496D01*
X26024Y26378D02*
X26575D01*
X27010Y26493D02*
X27800D01*
X23150Y26417D02*
Y27047D01*
X22005Y26262D02*
X22008Y26260D01*
X21216Y26262D02*
X22005D01*
X27402Y23071D02*
X27402Y23071D01*
X27992D01*
X28976D02*
Y23701D01*
X24205Y21024D02*
X24520Y21339D01*
X25472D01*
X26102Y20709D01*
X27244D01*
X4701Y20094D02*
X4724Y20118D01*
X4020Y20094D02*
X4701D01*
X8150Y19055D02*
X10157D01*
X13189Y16533D02*
X13191Y16535D01*
X13189Y15906D02*
Y16533D01*
X12520Y16535D02*
X13191D01*
X12604Y18943D02*
Y20113D01*
X12598Y18937D02*
X12604Y18943D01*
X12598Y20118D02*
X12604Y20113D01*
X11142Y21969D02*
X11575Y21535D01*
Y19606D02*
Y21535D01*
Y20906D02*
X12992D01*
X11339Y19055D02*
Y19370D01*
X11575Y19606D01*
X13110Y18110D02*
X14882D01*
X11339Y10911D02*
Y18110D01*
Y10911D02*
X12250Y10000D01*
X14291Y16535D02*
Y17520D01*
X13504Y19528D02*
X13976D01*
X14291Y19213D01*
Y18701D02*
Y19213D01*
X12992Y20906D02*
X13504Y20394D01*
Y19528D02*
Y20394D01*
X11339Y18110D02*
Y19055D01*
X10236Y21969D02*
X11142D01*
X18097Y22178D02*
X18904D01*
X17087Y23189D02*
X18097Y22178D01*
X16449Y23189D02*
X17087D01*
X16141Y35235D02*
X17934D01*
X16226Y32894D02*
X17126D01*
X16762D02*
X16772Y32904D01*
X17126Y32894D02*
X17441Y33209D01*
X18194D01*
X20034D02*
X20079Y33164D01*
X19094Y33209D02*
X20034D01*
X17934Y35235D02*
X18228Y34941D01*
X20079Y32264D02*
X22254D01*
X19902Y34567D02*
X20079Y34390D01*
Y33164D02*
Y34390D01*
X19094Y34567D02*
X19902D01*
X20039Y35329D02*
Y35482D01*
X24370Y35309D02*
X24400Y35280D01*
X24360Y31131D02*
X24439Y31210D01*
X24388Y31158D02*
X24964D01*
X25404Y30719D01*
X27746D01*
X28081Y31053D01*
Y32136D01*
X28829Y32884D01*
X28888D01*
X25645Y33233D02*
X25876Y33002D01*
X24439Y33233D02*
X25645D01*
X24400Y33272D02*
X24439Y33233D01*
X24400Y33272D02*
Y34380D01*
X27205Y31791D02*
X27303Y31890D01*
Y32992D01*
X25876Y31920D02*
X26005Y31791D01*
X25876Y31920D02*
Y33002D01*
X24439Y31210D02*
Y32333D01*
X23071Y30143D02*
X23262Y29952D01*
X24429Y29862D02*
X28144D01*
X24360Y29931D02*
X24449Y29843D01*
X23283Y29931D02*
X24360D01*
X23071Y31043D02*
X23159Y31131D01*
X24360D01*
X28144Y29862D02*
X28848Y30567D01*
Y31467D02*
X29754D01*
X29754Y31491D02*
Y32510D01*
X29754Y31467D02*
X29759Y31461D01*
X30659D01*
X29748Y34346D02*
X29754Y34341D01*
X28888Y34346D02*
X29748D01*
X29754Y33258D02*
X29754Y33258D01*
X9882Y23150D02*
X11425D01*
X14929D02*
X14969Y23189D01*
X6220Y20094D02*
X7260D01*
X4691Y22835D02*
Y23780D01*
X4449Y21417D02*
Y22593D01*
X4691Y22835D01*
X4020Y20989D02*
X4449Y21417D01*
X4020Y20630D02*
Y20989D01*
X3331Y20094D02*
X4020D01*
X5276Y18144D02*
Y19252D01*
X5618Y19594D01*
X6220D01*
X12905Y23150D02*
X14929D01*
X6220Y19094D02*
X7244D01*
X7283Y19055D01*
X8150D01*
X5792Y21417D02*
Y22593D01*
X5550Y22835D02*
X5792Y22593D01*
Y21417D02*
X6220Y20989D01*
Y20630D02*
Y20989D01*
X3667Y24803D02*
X4488D01*
X3661Y24809D02*
X3667Y24803D01*
X3661Y25709D02*
Y26659D01*
X4691Y23780D02*
Y24769D01*
X4724Y24803D01*
X4488D02*
X4724D01*
X5591Y24312D02*
X6063Y24784D01*
X9173Y16575D02*
Y19055D01*
X8071Y15472D02*
X9173Y16575D01*
X8071Y8380D02*
Y15472D01*
X7283Y8380D02*
X8071D01*
X7239Y8425D02*
X7283Y8380D01*
X6451Y8425D02*
X7239D01*
X8150Y19055D02*
Y21850D01*
X7047Y22953D02*
X8150Y21850D01*
X7047Y24606D02*
Y25669D01*
X6732Y25984D02*
X7047Y25669D01*
X6063Y25984D02*
X6732D01*
X4724Y26003D02*
X6044D01*
X6063Y25984D01*
X16220Y32888D02*
Y33484D01*
X16772Y34035D01*
X13585Y29884D02*
X14380D01*
X13583Y29882D02*
X13585Y29884D01*
X15561D02*
X16336D01*
X16339Y29882D01*
X18307D01*
X18307Y29882D01*
X14380Y29884D02*
Y30364D01*
X14626Y30610D02*
X17618D01*
X18307Y31299D01*
X14380Y30364D02*
X14626Y30610D01*
X8307Y23150D02*
X8982D01*
X5591Y23780D02*
X7677D01*
X8307Y23150D01*
X5591Y22835D02*
Y24312D01*
X14975Y35177D02*
X15000Y35152D01*
X12598Y35177D02*
X14975D01*
X15000Y33307D02*
Y34252D01*
X15157D01*
X16141Y35235D01*
X23071Y31043D02*
Y31496D01*
X22254Y32264D02*
X22283Y32293D01*
Y32283D02*
X23071Y31496D01*
X22283Y32283D02*
Y33130D01*
X27352Y33002D02*
Y33140D01*
X27638Y33425D01*
X29754D01*
Y33258D02*
Y34341D01*
X7101Y34632D02*
X8071D01*
Y33676D02*
Y34632D01*
Y31707D02*
Y32776D01*
X5709Y34646D02*
X7087D01*
X8071Y31707D02*
X9916D01*
X10236Y24331D02*
Y27461D01*
X12657Y29882D02*
X13583D01*
X10236Y27461D02*
X12657Y29882D01*
X24694Y19656D02*
X24705Y19646D01*
X24694Y19656D02*
Y20482D01*
X18110Y12441D02*
X22677D01*
X17717Y11614D02*
X22913D01*
X24205Y12906D01*
X27480Y10748D02*
X28976D01*
X29173Y10945D01*
Y11535D01*
X24705Y12461D02*
Y19646D01*
X22638Y13563D02*
X22657Y13543D01*
X18858Y16811D02*
X19094Y16575D01*
X20399D01*
X21294Y16580D02*
X21299Y16575D01*
X21294Y16580D02*
Y18268D01*
X22289D01*
X22638Y13563D02*
Y14173D01*
X28759Y2302D02*
X29980D01*
X30880D02*
X30964Y2387D01*
X14210Y5519D02*
X14409Y5472D01*
X2222Y19594D02*
X4020D01*
X2205Y19612D02*
X2222Y19594D01*
X26694Y21967D02*
Y23428D01*
Y21967D02*
X27520Y21142D01*
X27948D01*
X27954Y21148D01*
X26732Y19646D02*
X27354Y19648D01*
X27954Y20248D01*
X28954D01*
X27992Y22171D02*
X28976D01*
X28954Y22149D02*
X28976Y22171D01*
X28954Y21148D02*
Y22149D01*
X30054Y22613D02*
X30099D01*
X29590Y22149D02*
X30054Y22613D01*
X28954Y22149D02*
X29590D01*
X24694Y22638D02*
Y23428D01*
X20684Y19648D02*
X22165Y19646D01*
X20654Y19678D02*
X20684Y19648D01*
X18904Y19678D02*
X20654D01*
X22694Y19648D02*
Y20259D01*
X22074Y20878D02*
X22694Y20259D01*
X20654Y20878D02*
X22074D01*
X20654D02*
Y22278D01*
X18904Y20578D02*
Y22178D01*
X26811Y18465D02*
X28386D01*
X26772Y18504D02*
X26811Y18465D01*
D49*
X19803Y18268D02*
X19803Y18268D01*
X20394D01*
Y17677D02*
Y18268D01*
X18050Y18032D02*
X18858Y18011D01*
X18050Y17795D02*
Y18268D01*
X20079Y23189D02*
X20089Y23178D01*
X20654D01*
X18898Y23701D02*
X18904Y23694D01*
Y23078D02*
Y23694D01*
X2835Y31063D02*
X2835Y30827D01*
X16654Y3768D02*
X17211Y3211D01*
X16654Y3768D02*
Y4331D01*
X17211Y3774D01*
Y3211D02*
Y3774D01*
X10512Y21226D02*
X10984D01*
X10748Y20236D02*
X10748Y21187D01*
X10202Y17475D02*
X10675D01*
X10439Y17514D02*
Y18110D01*
X12120Y17874D02*
Y18346D01*
X12160Y18110D02*
X13110D01*
X26403Y28962D02*
X27613D01*
X26378Y28937D02*
X26403Y28962D01*
X27613D02*
X27638Y28937D01*
X6102Y15413D02*
X6339Y15649D01*
Y17244D01*
X5276Y18144D02*
X6339D01*
X4843Y16811D02*
X5276Y17244D01*
X3819Y16811D02*
X4843D01*
X2835Y10118D02*
X3858Y10118D01*
X2835Y12953D02*
X3701D01*
X2835Y12323D02*
X3858D01*
X2835Y11693D02*
X3701D01*
X2835Y10748D02*
X3701D01*
X4606Y7480D02*
Y8425D01*
X3701Y8431D02*
Y9488D01*
X4606Y8425D02*
X5551D01*
X6378Y10748D02*
X7244Y10748D01*
X6378Y9488D02*
X7244D01*
X6378Y12953D02*
Y13898D01*
X6102Y14173D02*
X6378Y13898D01*
X22072Y30143D02*
X23071D01*
X20782Y30118D02*
X22047D01*
X19207Y31299D02*
Y31698D01*
X18194Y32711D02*
X19207Y31698D01*
X18194Y32711D02*
Y33209D01*
X6220Y10118D02*
X7244Y10118D01*
X3858Y10118D02*
X5118Y10118D01*
X3701Y12953D02*
X5118D01*
X3701Y11693D02*
X5118Y11693D01*
X3701Y10748D02*
X5118D01*
X5118Y9488D02*
X6378D01*
X5118Y10118D02*
X6220D01*
X5118Y10748D02*
X6378D01*
X5118Y11693D02*
X7244D01*
X3858Y12323D02*
X7244D01*
X5118D02*
Y12953D01*
Y11693D02*
Y12323D01*
Y10748D02*
Y11693D01*
Y10118D02*
Y10748D01*
Y9488D02*
Y10118D01*
X5354Y34016D02*
X6378Y34016D01*
X5512Y31181D02*
X6378D01*
X5354Y31811D02*
X6378D01*
X5512Y32441D02*
X6378D01*
X5512Y33386D02*
X6378D01*
X1969Y33386D02*
X2835Y33386D01*
X1969Y34646D02*
X2835D01*
X1969Y34016D02*
X2992Y34016D01*
X4094Y34016D02*
X5354Y34016D01*
X4094Y31181D02*
X5512D01*
X4094Y32441D02*
X5512Y32441D01*
X4094Y33386D02*
X5512D01*
X2835Y34646D02*
X4094D01*
X2992Y34016D02*
X4094D01*
X2835Y33386D02*
X4094D01*
X1969Y32441D02*
X4094D01*
X1969Y31811D02*
X5354D01*
X4094Y31181D02*
Y31811D01*
Y32441D01*
Y33386D01*
Y34016D01*
Y34646D01*
X12441Y34547D02*
X13386Y34548D01*
X12598Y31713D02*
X13465D01*
X12441Y32343D02*
X13465D01*
X12598Y32972D02*
X13465D01*
X12598Y33917D02*
X13386Y33917D01*
X9055Y33917D02*
X9921Y33917D01*
X9055Y35177D02*
X9921D01*
X9055Y34547D02*
X10079Y34547D01*
X11181Y34547D02*
X12441Y34547D01*
X11181Y31713D02*
X12598D01*
X11181Y32972D02*
X12598Y32972D01*
X11181Y33917D02*
X12598D01*
X9921Y35177D02*
X11181D01*
X10079Y34547D02*
X11181D01*
X9921Y33917D02*
X11181D01*
X9055Y32972D02*
X11181D01*
X9055Y32343D02*
X12441D01*
X11181Y31713D02*
Y32343D01*
Y32972D01*
Y33917D01*
Y34547D01*
Y35177D01*
X3268Y13976D02*
Y14449D01*
X3307Y14213D02*
X3903D01*
X3307Y15197D02*
Y15669D01*
X3346Y15433D02*
X3943D01*
X4297Y27323D02*
Y27795D01*
X3661Y27559D02*
X4257D01*
X8937Y20869D02*
X9409D01*
X9173Y20155D02*
Y20830D01*
X7047Y21654D02*
X7520D01*
X7283Y21018D02*
Y21614D01*
X7835Y30172D02*
X8307D01*
X8071Y30211D02*
Y30807D01*
X7835Y36167D02*
X8307D01*
X8071Y35531D02*
Y36128D01*
X14764Y31412D02*
X15236D01*
X15000Y31451D02*
Y31969D01*
X20675Y35093D02*
Y35565D01*
X20039Y35329D02*
X20635D01*
X18858Y35950D02*
X19331D01*
X19094Y35315D02*
Y35911D01*
X16102Y28346D02*
X16575D01*
X16339Y28386D02*
Y28982D01*
X13346Y28346D02*
X13819D01*
X13583Y28386D02*
Y28982D01*
X14724Y27711D02*
X15197D01*
X14961Y27750D02*
Y28346D01*
X20546Y29882D02*
X20782Y30118D01*
X19207Y29882D02*
X20546D01*
X13819Y36713D02*
X14291D01*
X14055Y36077D02*
Y36673D01*
X22047Y35202D02*
X22520D01*
X22283Y34567D02*
Y35163D01*
X24163Y35915D02*
X24636D01*
X24400Y35280D02*
Y35876D01*
X21412Y30861D02*
Y31333D01*
X21451Y31097D02*
X22047D01*
X15900Y15354D02*
X16535D01*
X14291Y16535D02*
X16496D01*
X17402Y15630D01*
Y13150D02*
Y15630D01*
Y13150D02*
X18110Y12441D01*
X12250Y8260D02*
X12589Y7921D01*
X14210D01*
X15630Y3712D02*
X16131Y3211D01*
X15630Y3712D02*
Y4252D01*
X14409Y5472D02*
X15630Y4252D01*
X1968Y20749D02*
X2205Y20512D01*
D50*
X4803Y14213D02*
X6102D01*
X4863Y15413D02*
X6102D01*
D51*
X14980Y15334D02*
X15000Y15354D01*
X14980Y7690D02*
Y15334D01*
X21162Y7530D02*
X21553Y7921D01*
X14980Y7690D02*
X15140Y7530D01*
X21162D01*
D52*
X29213Y12559D02*
D03*
D53*
X17032Y5010D02*
X17751Y4291D01*
X16260Y5010D02*
X17032D01*
X15721Y5509D02*
X16260Y5010D01*
X18291Y3211D02*
Y4699D01*
X17471Y5519D02*
X18291Y4699D01*
X17210Y5519D02*
X17471D01*
X18710Y4412D02*
X18831Y4291D01*
X18710Y4412D02*
Y5519D01*
X19371Y3211D02*
Y4881D01*
X20009Y5519D01*
X20210D01*
X19911Y4291D02*
X20364D01*
X21592Y5519D01*
D54*
X7087Y2087D02*
Y4291D01*
X6693Y4685D02*
X7087Y4291D01*
X4606Y5118D02*
Y5551D01*
Y5118D02*
X5039Y4685D01*
X5793D01*
D55*
X16772Y-3228D02*
Y-3937D01*
X16535Y-3228D02*
X17008D01*
X17295D02*
X17227Y-3262D01*
X17160Y-3330D01*
X17126Y-3397D01*
X17092Y-3498D01*
Y-3667D01*
X17126Y-3768D01*
X17160Y-3836D01*
X17227Y-3903D01*
X17295Y-3937D01*
X17429D01*
X17497Y-3903D01*
X17564Y-3836D01*
X17598Y-3768D01*
X17632Y-3667D01*
Y-3498D01*
X17598Y-3397D01*
X17564Y-3330D01*
X17497Y-3262D01*
X17429Y-3228D01*
X17295D01*
X17797Y-3600D02*
X18101D01*
X18202Y-3566D01*
X18236Y-3532D01*
X18270Y-3465D01*
Y-3363D01*
X18236Y-3296D01*
X18202Y-3262D01*
X18101Y-3228D01*
X17797D01*
Y-3937D01*
X18985Y-3228D02*
Y-3937D01*
X19390D01*
X20007D02*
X19737Y-3228D01*
X19467Y-3937D01*
X19569Y-3701D02*
X19906D01*
X20172Y-3228D02*
X20442Y-3566D01*
Y-3937D01*
X20712Y-3228D02*
X20442Y-3566D01*
X21242Y-3228D02*
X20803D01*
Y-3937D01*
X21242D01*
X20803Y-3566D02*
X21073D01*
X21360Y-3228D02*
Y-3937D01*
Y-3228D02*
X21664D01*
X21765Y-3262D01*
X21799Y-3296D01*
X21832Y-3363D01*
Y-3431D01*
X21799Y-3498D01*
X21765Y-3532D01*
X21664Y-3566D01*
X21360D01*
X21596D02*
X21832Y-3937D01*
X22784Y-3094D02*
X22716Y-3161D01*
X22649Y-3262D01*
X22581Y-3397D01*
X22548Y-3566D01*
Y-3701D01*
X22581Y-3870D01*
X22649Y-4004D01*
X22716Y-4106D01*
X22784Y-4173D01*
X22716Y-3161D02*
X22649Y-3296D01*
X22615Y-3397D01*
X22581Y-3566D01*
Y-3701D01*
X22615Y-3870D01*
X22649Y-3971D01*
X22716Y-4106D01*
X23425Y-3397D02*
X23391Y-3330D01*
X23324Y-3262D01*
X23256Y-3228D01*
X23121D01*
X23054Y-3262D01*
X22986Y-3330D01*
X22953Y-3397D01*
X22919Y-3498D01*
Y-3667D01*
X22953Y-3768D01*
X22986Y-3836D01*
X23054Y-3903D01*
X23121Y-3937D01*
X23256D01*
X23324Y-3903D01*
X23391Y-3836D01*
X23425Y-3768D01*
X23826Y-3228D02*
X23759Y-3262D01*
X23691Y-3330D01*
X23658Y-3397D01*
X23624Y-3498D01*
Y-3667D01*
X23658Y-3768D01*
X23691Y-3836D01*
X23759Y-3903D01*
X23826Y-3937D01*
X23961D01*
X24029Y-3903D01*
X24096Y-3836D01*
X24130Y-3768D01*
X24164Y-3667D01*
Y-3498D01*
X24130Y-3397D01*
X24096Y-3330D01*
X24029Y-3262D01*
X23961Y-3228D01*
X23826D01*
X24329Y-3600D02*
X24633D01*
X24734Y-3566D01*
X24768Y-3532D01*
X24801Y-3465D01*
Y-3363D01*
X24768Y-3296D01*
X24734Y-3262D01*
X24633Y-3228D01*
X24329D01*
Y-3937D01*
X24960Y-3600D02*
X25264D01*
X25365Y-3566D01*
X25399Y-3532D01*
X25432Y-3465D01*
Y-3363D01*
X25399Y-3296D01*
X25365Y-3262D01*
X25264Y-3228D01*
X24960D01*
Y-3937D01*
X26029Y-3228D02*
X25591D01*
Y-3937D01*
X26029D01*
X25591Y-3566D02*
X25861D01*
X26148Y-3228D02*
Y-3937D01*
Y-3228D02*
X26451D01*
X26552Y-3262D01*
X26586Y-3296D01*
X26620Y-3363D01*
Y-3431D01*
X26586Y-3498D01*
X26552Y-3532D01*
X26451Y-3566D01*
X26148D01*
X26384D02*
X26620Y-3937D01*
X26778Y-3094D02*
X26846Y-3161D01*
X26913Y-3262D01*
X26981Y-3397D01*
X27015Y-3566D01*
Y-3701D01*
X26981Y-3870D01*
X26913Y-4004D01*
X26846Y-4106D01*
X26778Y-4173D01*
X26846Y-3161D02*
X26913Y-3296D01*
X26947Y-3397D01*
X26981Y-3566D01*
Y-3701D01*
X26947Y-3870D01*
X26913Y-3971D01*
X26846Y-4106D01*
X0Y-4803D02*
Y-5512D01*
Y-4803D02*
X236D01*
X337Y-4837D01*
X405Y-4905D01*
X439Y-4972D01*
X472Y-5073D01*
Y-5242D01*
X439Y-5343D01*
X405Y-5411D01*
X337Y-5478D01*
X236Y-5512D01*
X0D01*
X631Y-4803D02*
Y-5512D01*
Y-4803D02*
X935D01*
X1036Y-4837D01*
X1070Y-4871D01*
X1103Y-4938D01*
Y-5006D01*
X1070Y-5073D01*
X1036Y-5107D01*
X935Y-5141D01*
X631D01*
X867D02*
X1103Y-5512D01*
X1802D02*
X1532Y-4803D01*
X1262Y-5512D01*
X1363Y-5276D02*
X1700D01*
X1967Y-4803D02*
X2136Y-5512D01*
X2304Y-4803D02*
X2136Y-5512D01*
X2304Y-4803D02*
X2473Y-5512D01*
X2642Y-4803D02*
X2473Y-5512D01*
X2783Y-4803D02*
Y-5512D01*
X2932Y-4803D02*
Y-5512D01*
Y-4803D02*
X3404Y-5512D01*
Y-4803D02*
Y-5512D01*
X4106Y-4972D02*
X4072Y-4905D01*
X4005Y-4837D01*
X3937Y-4803D01*
X3802D01*
X3735Y-4837D01*
X3667Y-4905D01*
X3634Y-4972D01*
X3600Y-5073D01*
Y-5242D01*
X3634Y-5343D01*
X3667Y-5411D01*
X3735Y-5478D01*
X3802Y-5512D01*
X3937D01*
X4005Y-5478D01*
X4072Y-5411D01*
X4106Y-5343D01*
Y-5242D01*
X3937D02*
X4106D01*
X4825Y-4803D02*
Y-5512D01*
Y-4803D02*
X5297Y-5512D01*
Y-4803D02*
Y-5512D01*
X5493Y-5039D02*
Y-5512D01*
Y-5242D02*
X5526Y-5141D01*
X5594Y-5073D01*
X5661Y-5039D01*
X5763D01*
X5860D02*
X5827Y-5073D01*
X5860Y-5107D01*
X5894Y-5073D01*
X5860Y-5039D01*
Y-5444D02*
X5827Y-5478D01*
X5860Y-5512D01*
X5894Y-5478D01*
X5860Y-5444D01*
X6049Y-5208D02*
X6657D01*
X16535Y-6378D02*
Y-7087D01*
Y-6378D02*
X16805Y-7087D01*
X17075Y-6378D02*
X16805Y-7087D01*
X17075Y-6378D02*
Y-7087D01*
X17683Y-6614D02*
Y-7087D01*
Y-6715D02*
X17615Y-6648D01*
X17548Y-6614D01*
X17446D01*
X17379Y-6648D01*
X17311Y-6715D01*
X17278Y-6817D01*
Y-6884D01*
X17311Y-6985D01*
X17379Y-7053D01*
X17446Y-7087D01*
X17548D01*
X17615Y-7053D01*
X17683Y-6985D01*
X17871Y-6614D02*
Y-7087D01*
Y-6817D02*
X17905Y-6715D01*
X17973Y-6648D01*
X18040Y-6614D01*
X18141D01*
X18610Y-6715D02*
X18543Y-6648D01*
X18475Y-6614D01*
X18374D01*
X18307Y-6648D01*
X18239Y-6715D01*
X18205Y-6817D01*
Y-6884D01*
X18239Y-6985D01*
X18307Y-7053D01*
X18374Y-7087D01*
X18475D01*
X18543Y-7053D01*
X18610Y-6985D01*
X18762Y-6378D02*
Y-7087D01*
Y-6749D02*
X18863Y-6648D01*
X18931Y-6614D01*
X19032D01*
X19100Y-6648D01*
X19133Y-6749D01*
Y-7087D01*
X19909Y-6547D02*
Y-6513D01*
X19943Y-6446D01*
X19977Y-6412D01*
X20044Y-6378D01*
X20179D01*
X20247Y-6412D01*
X20280Y-6446D01*
X20314Y-6513D01*
Y-6581D01*
X20280Y-6648D01*
X20213Y-6749D01*
X19876Y-7087D01*
X20348D01*
X20709Y-6378D02*
X20608Y-6412D01*
X20540Y-6513D01*
X20506Y-6682D01*
Y-6783D01*
X20540Y-6952D01*
X20608Y-7053D01*
X20709Y-7087D01*
X20776D01*
X20878Y-7053D01*
X20945Y-6952D01*
X20979Y-6783D01*
Y-6682D01*
X20945Y-6513D01*
X20878Y-6412D01*
X20776Y-6378D01*
X20709D01*
X21340D02*
X21239Y-6412D01*
X21171Y-6513D01*
X21137Y-6682D01*
Y-6783D01*
X21171Y-6952D01*
X21239Y-7053D01*
X21340Y-7087D01*
X21407D01*
X21508Y-7053D01*
X21576Y-6952D01*
X21610Y-6783D01*
Y-6682D01*
X21576Y-6513D01*
X21508Y-6412D01*
X21407Y-6378D01*
X21340D01*
X22173Y-6479D02*
X22139Y-6412D01*
X22038Y-6378D01*
X21971D01*
X21869Y-6412D01*
X21802Y-6513D01*
X21768Y-6682D01*
Y-6850D01*
X21802Y-6985D01*
X21869Y-7053D01*
X21971Y-7087D01*
X22004D01*
X22106Y-7053D01*
X22173Y-6985D01*
X22207Y-6884D01*
Y-6850D01*
X22173Y-6749D01*
X22106Y-6682D01*
X22004Y-6648D01*
X21971D01*
X21869Y-6682D01*
X21802Y-6749D01*
X21768Y-6850D01*
X16569Y-4972D02*
Y-4938D01*
X16603Y-4871D01*
X16637Y-4837D01*
X16704Y-4803D01*
X16839D01*
X16907Y-4837D01*
X16940Y-4871D01*
X16974Y-4938D01*
Y-5006D01*
X16940Y-5073D01*
X16873Y-5174D01*
X16535Y-5512D01*
X17008D01*
X17369Y-4803D02*
X17268Y-4837D01*
X17200Y-4938D01*
X17166Y-5107D01*
Y-5208D01*
X17200Y-5377D01*
X17268Y-5478D01*
X17369Y-5512D01*
X17436D01*
X17537Y-5478D01*
X17605Y-5377D01*
X17639Y-5208D01*
Y-5107D01*
X17605Y-4938D01*
X17537Y-4837D01*
X17436Y-4803D01*
X17369D01*
X18000D02*
X17898Y-4837D01*
X17831Y-4938D01*
X17797Y-5107D01*
Y-5208D01*
X17831Y-5377D01*
X17898Y-5478D01*
X18000Y-5512D01*
X18067D01*
X18168Y-5478D01*
X18236Y-5377D01*
X18270Y-5208D01*
Y-5107D01*
X18236Y-4938D01*
X18168Y-4837D01*
X18067Y-4803D01*
X18000D01*
X18833Y-4905D02*
X18799Y-4837D01*
X18698Y-4803D01*
X18631D01*
X18529Y-4837D01*
X18462Y-4938D01*
X18428Y-5107D01*
Y-5276D01*
X18462Y-5411D01*
X18529Y-5478D01*
X18631Y-5512D01*
X18664D01*
X18766Y-5478D01*
X18833Y-5411D01*
X18867Y-5309D01*
Y-5276D01*
X18833Y-5174D01*
X18766Y-5107D01*
X18664Y-5073D01*
X18631D01*
X18529Y-5107D01*
X18462Y-5174D01*
X18428Y-5276D01*
X19224Y-4803D02*
X19123Y-4837D01*
X19056Y-4938D01*
X19022Y-5107D01*
Y-5208D01*
X19056Y-5377D01*
X19123Y-5478D01*
X19224Y-5512D01*
X19292D01*
X19393Y-5478D01*
X19461Y-5377D01*
X19494Y-5208D01*
Y-5107D01*
X19461Y-4938D01*
X19393Y-4837D01*
X19292Y-4803D01*
X19224D01*
X19720D02*
X20091D01*
X19889Y-5073D01*
X19990D01*
X20058Y-5107D01*
X20091Y-5141D01*
X20125Y-5242D01*
Y-5309D01*
X20091Y-5411D01*
X20024Y-5478D01*
X19923Y-5512D01*
X19822D01*
X19720Y-5478D01*
X19687Y-5444D01*
X19653Y-5377D01*
X20284Y-4938D02*
X20351Y-4905D01*
X20452Y-4803D01*
Y-5512D01*
X21006Y-4803D02*
X20905Y-4837D01*
X20837Y-4938D01*
X20803Y-5107D01*
Y-5208D01*
X20837Y-5377D01*
X20905Y-5478D01*
X21006Y-5512D01*
X21073D01*
X21174Y-5478D01*
X21242Y-5377D01*
X21276Y-5208D01*
Y-5107D01*
X21242Y-4938D01*
X21174Y-4837D01*
X21073Y-4803D01*
X21006D01*
X21434Y-5208D02*
X22042D01*
X22453Y-4803D02*
X22352Y-4837D01*
X22284Y-4938D01*
X22251Y-5107D01*
Y-5208D01*
X22284Y-5377D01*
X22352Y-5478D01*
X22453Y-5512D01*
X22521D01*
X22622Y-5478D01*
X22689Y-5377D01*
X22723Y-5208D01*
Y-5107D01*
X22689Y-4938D01*
X22622Y-4837D01*
X22521Y-4803D01*
X22453D01*
X23084D02*
X22983Y-4837D01*
X22915Y-4938D01*
X22882Y-5107D01*
Y-5208D01*
X22915Y-5377D01*
X22983Y-5478D01*
X23084Y-5512D01*
X23152D01*
X23253Y-5478D01*
X23320Y-5377D01*
X23354Y-5208D01*
Y-5107D01*
X23320Y-4938D01*
X23253Y-4837D01*
X23152Y-4803D01*
X23084D01*
X23513Y-4938D02*
X23580Y-4905D01*
X23681Y-4803D01*
Y-5512D01*
X0Y-6378D02*
Y-7087D01*
Y-6378D02*
X236D01*
X337Y-6412D01*
X405Y-6479D01*
X439Y-6547D01*
X472Y-6648D01*
Y-6817D01*
X439Y-6918D01*
X405Y-6985D01*
X337Y-7053D01*
X236Y-7087D01*
X0D01*
X1171D02*
X901Y-6378D01*
X631Y-7087D01*
X732Y-6850D02*
X1070D01*
X1572Y-6378D02*
Y-7087D01*
X1336Y-6378D02*
X1808D01*
X2331D02*
X1893D01*
Y-7087D01*
X2331D01*
X1893Y-6715D02*
X2163D01*
X2483Y-6614D02*
X2449Y-6648D01*
X2483Y-6682D01*
X2517Y-6648D01*
X2483Y-6614D01*
Y-7019D02*
X2449Y-7053D01*
X2483Y-7087D01*
X2517Y-7053D01*
X2483Y-7019D01*
X2672Y-6783D02*
X3279D01*
D56*
X10280Y38620D02*
X10680D01*
Y38520D01*
X10280Y38120D01*
Y38020D01*
X10680D01*
X10880Y38620D02*
Y38020D01*
X11280D01*
X11480Y38520D02*
X11580Y38620D01*
X11780D01*
X11879Y38520D01*
Y38420D01*
X11780Y38320D01*
X11680D01*
X11780D01*
X11879Y38220D01*
Y38120D01*
X11780Y38020D01*
X11580D01*
X11480Y38120D01*
X12479Y38620D02*
X12279D01*
X12379D01*
Y38120D01*
X12279Y38020D01*
X12179D01*
X12079Y38120D01*
X12679Y38620D02*
Y38220D01*
X12879Y38020D01*
X13079Y38220D01*
Y38620D01*
X13279D02*
X13679Y38020D01*
Y38620D02*
X13279Y38020D01*
X14479D02*
Y38620D01*
X14679Y38420D01*
X14879Y38620D01*
Y38020D01*
X15078D02*
Y38420D01*
X15278Y38620D01*
X15478Y38420D01*
Y38020D01*
Y38320D01*
X15078D01*
X15678Y38020D02*
Y38620D01*
X15978D01*
X16078Y38520D01*
Y38320D01*
X15978Y38220D01*
X15678D01*
X15878D02*
X16078Y38020D01*
X16678Y38520D02*
X16578Y38620D01*
X16378D01*
X16278Y38520D01*
Y38120D01*
X16378Y38020D01*
X16578D01*
X16678Y38120D01*
X16878Y38620D02*
Y38020D01*
Y38320D01*
X17278D01*
Y38620D01*
Y38020D01*
X18477D02*
X18077D01*
X18477Y38420D01*
Y38520D01*
X18377Y38620D01*
X18177D01*
X18077Y38520D01*
X18677D02*
X18777Y38620D01*
X18977D01*
X19077Y38520D01*
Y38120D01*
X18977Y38020D01*
X18777D01*
X18677Y38120D01*
Y38520D01*
X19277D02*
X19377Y38620D01*
X19577D01*
X19677Y38520D01*
Y38120D01*
X19577Y38020D01*
X19377D01*
X19277Y38120D01*
Y38520D01*
X20277Y38620D02*
X20077Y38520D01*
X19877Y38320D01*
Y38120D01*
X19977Y38020D01*
X20177D01*
X20277Y38120D01*
Y38220D01*
X20177Y38320D01*
X19877D01*
X20577Y37920D02*
X20677Y38020D01*
Y38120D01*
X20577D01*
Y38020D01*
X20677D01*
X20577Y37920D01*
X20477Y37820D01*
X21676Y38020D02*
Y38620D01*
X21976D01*
X22076Y38520D01*
Y38320D01*
X21976Y38220D01*
X21676D01*
X21876D02*
X22076Y38020D01*
X22676Y38620D02*
X22276D01*
Y38020D01*
X22676D01*
X22276Y38320D02*
X22476D01*
X22876Y38620D02*
Y38220D01*
X23076Y38020D01*
X23276Y38220D01*
Y38620D01*
X24076Y38020D02*
X24275D01*
X24176D01*
Y38620D01*
X24076Y38520D01*
D57*
X10748Y19193D02*
D03*
D58*
X18602Y18012D02*
D03*
D59*
X3504D02*
D03*
D60*
X14153Y18110D02*
D03*
D61*
X14970Y29746D02*
D03*
D62*
X7933Y7185D02*
D03*
D63*
X7717Y17854D02*
D03*
D64*
X16654Y31673D02*
D03*
X30197Y30256D02*
D03*
X29291Y35531D02*
D03*
D65*
X5827Y6516D02*
D03*
X3386Y6516D02*
D03*
D66*
X12164Y23149D02*
D03*
X11424D02*
D03*
X12904D02*
D03*
X16447Y23188D02*
D03*
X14967D02*
D03*
X15707D02*
D03*
D67*
X12164Y26449D02*
D03*
X15707Y26488D02*
D03*
D68*
X28228Y14465D02*
D03*
X29228D02*
D03*
Y13465D02*
D03*
X28228D02*
D03*
X32638Y10512D02*
D03*
X30748Y6772D02*
D03*
X27047Y2302D02*
D03*
X30276Y9528D02*
D03*
X31260D02*
D03*
X26772D02*
D03*
X29803Y15354D02*
D03*
X30197Y15827D02*
D03*
X29921Y18465D02*
D03*
Y17441D02*
D03*
X26575Y26378D02*
D03*
X23150Y27047D02*
D03*
X28976Y23701D02*
D03*
X19803Y18268D02*
D03*
X18050Y17795D02*
D03*
Y18268D02*
D03*
X18898Y23701D02*
D03*
X4724Y19094D02*
D03*
Y20118D02*
D03*
X13189Y15906D02*
D03*
X12520Y16535D02*
D03*
X12598Y18937D02*
D03*
X17960Y6638D02*
D03*
X16461Y6661D02*
D03*
X14961Y6693D02*
D03*
X19474Y6683D02*
D03*
X20968Y6714D02*
D03*
X23043Y6339D02*
D03*
X12598Y6299D02*
D03*
X15368Y2326D02*
D03*
X20079Y2362D02*
D03*
X16535D02*
D03*
X17717D02*
D03*
X18898D02*
D03*
X20669Y2953D02*
D03*
X14806Y3002D02*
D03*
X14882Y18110D02*
D03*
X22638Y14173D02*
D03*
X20394Y17677D02*
D03*
X24694Y20472D02*
D03*
X30748Y10000D02*
D03*
X27795Y9528D02*
D03*
X26909Y3129D02*
D03*
X29803Y5433D02*
D03*
X24694Y22638D02*
D03*
X27402Y23071D02*
D03*
X20079Y23189D02*
D03*
X27008Y26496D02*
D03*
X22008Y26260D02*
D03*
X29921Y16417D02*
D03*
X25197Y18465D02*
D03*
X26772Y18504D02*
D03*
X16535Y15354D02*
D03*
X12598Y20118D02*
D03*
D69*
X18898Y27087D02*
D03*
X20276Y25394D02*
D03*
X19213D02*
D03*
X29803Y27362D02*
D03*
X28740D02*
D03*
X30118Y25669D02*
D03*
D70*
X30994Y20328D02*
D03*
Y23128D02*
D03*
D71*
X31869Y20843D02*
D03*
Y22613D02*
D03*
X30099Y20843D02*
D03*
Y21728D02*
D03*
D72*
Y22613D02*
D03*
D73*
X7087Y2087D02*
D03*
X6087Y3087D02*
D03*
X8087Y1087D02*
D03*
Y3087D02*
D03*
X6087Y1087D02*
D03*
D74*
X15591Y4291D02*
D03*
D75*
X16671D02*
D03*
X17751D02*
D03*
X18831D02*
D03*
X19911D02*
D03*
X16131Y3211D02*
D03*
X17211D02*
D03*
X18291D02*
D03*
X19371D02*
D03*
D76*
X12831Y3751D02*
D03*
X22671D02*
D03*
D77*
X9055Y5827D02*
D03*
X18780Y10472D02*
D03*
X15748Y9646D02*
D03*
X18819Y9331D02*
D03*
D78*
X1969Y37402D02*
D03*
X15748Y20472D02*
D03*
D79*
X33465Y1969D02*
D03*
X1969D02*
D03*
X33465Y37402D02*
D03*
D80*
X10512Y21226D02*
D03*
X10984D02*
D03*
X10675Y17475D02*
D03*
X10202D02*
D03*
X12120Y17874D02*
D03*
Y18346D02*
D03*
X27638Y28937D02*
D03*
X9055Y34547D02*
D03*
X7047Y22953D02*
D03*
Y24606D02*
D03*
X8228Y6850D02*
D03*
X3307Y20118D02*
D03*
Y19055D02*
D03*
X2835Y10118D02*
D03*
Y12323D02*
D03*
Y12953D02*
D03*
Y11693D02*
D03*
Y10748D02*
D03*
X7244Y12323D02*
D03*
Y11693D02*
D03*
Y10748D02*
D03*
Y9488D02*
D03*
X3268Y13976D02*
D03*
Y14449D02*
D03*
X10236Y24331D02*
D03*
X7126Y6850D02*
D03*
X8661Y7480D02*
D03*
X7677Y6850D02*
D03*
X8701Y6969D02*
D03*
X7244Y10118D02*
D03*
X5118Y10118D02*
D03*
Y12323D02*
D03*
Y12953D02*
D03*
Y11693D02*
D03*
Y10748D02*
D03*
Y9488D02*
D03*
X6378Y34016D02*
D03*
Y31811D02*
D03*
Y31181D02*
D03*
Y32441D02*
D03*
Y33386D02*
D03*
X1969Y31811D02*
D03*
Y32441D02*
D03*
Y33386D02*
D03*
Y34646D02*
D03*
X1969Y34016D02*
D03*
X4094Y34016D02*
D03*
Y31811D02*
D03*
Y31181D02*
D03*
Y32441D02*
D03*
Y33386D02*
D03*
Y34646D02*
D03*
X13386Y34548D02*
D03*
X13465Y32343D02*
D03*
Y31713D02*
D03*
Y32972D02*
D03*
X13386Y33917D02*
D03*
X9055Y32343D02*
D03*
Y32972D02*
D03*
Y33917D02*
D03*
Y35177D02*
D03*
X11181Y34547D02*
D03*
Y32343D02*
D03*
Y31713D02*
D03*
Y32972D02*
D03*
Y33917D02*
D03*
Y35177D02*
D03*
X3307Y15197D02*
D03*
Y15669D02*
D03*
X2947Y17775D02*
D03*
Y18247D02*
D03*
X4297Y27795D02*
D03*
Y27323D02*
D03*
X8228Y17520D02*
D03*
X7717D02*
D03*
X7205D02*
D03*
X8937Y20869D02*
D03*
X9409D02*
D03*
X7047Y21654D02*
D03*
X7520D02*
D03*
X8307Y30172D02*
D03*
X7835D02*
D03*
X7835Y36167D02*
D03*
X8307D02*
D03*
X15236Y31412D02*
D03*
X14764D02*
D03*
X17165Y31339D02*
D03*
X16654D02*
D03*
X16142D02*
D03*
X20675Y35565D02*
D03*
Y35093D02*
D03*
X18858Y35950D02*
D03*
X19331D02*
D03*
X16575Y28346D02*
D03*
X16102D02*
D03*
X13819D02*
D03*
X13346D02*
D03*
X15197Y27711D02*
D03*
X14724D02*
D03*
X13819Y36713D02*
D03*
X14291D02*
D03*
X22047Y35202D02*
D03*
X22520D02*
D03*
X24163Y35915D02*
D03*
X24636D02*
D03*
X21412Y30861D02*
D03*
Y31333D02*
D03*
X26378Y28937D02*
D03*
X30709Y29921D02*
D03*
X30197D02*
D03*
X29685D02*
D03*
X28780Y35866D02*
D03*
X29291D02*
D03*
X29803D02*
D03*
X10236Y21969D02*
D03*
X22677Y12441D02*
D03*
X24705Y12461D02*
D03*
X27480Y10748D02*
D03*
X30276Y7323D02*
D03*
X30491Y3050D02*
D03*
D81*
X6260Y6496D02*
D03*
X5984Y6024D02*
D03*
X5433D02*
D03*
X5984Y7008D02*
D03*
X5433D02*
D03*
X2953Y6496D02*
D03*
X3228Y7008D02*
D03*
X3780D02*
D03*
X3228Y6024D02*
D03*
X3780D02*
D03*
M02*
