  0
SECTION
  2
HEADER
  9
$ACADVER
  1
AC2.10
  0
ENDSEC
  0
SECTION
  2
TABLES
  0
TABLE
  2
LAYER
 70
     8
  0
LAYER
  2
0
 62
     7
 70
0
  6
CONTINUOUS
  0
LAYER
  2
1
 62
     1
 70
0
  6
CONTINUOUS
  0
LAYER
  2
2
 62
     2
 70
0
  6
CONTINUOUS
  0
LAYER
  2
3
 62
     3
 70
0
  6
CONTINUOUS
  0
LAYER
  2
4
 62
     4
 70
0
  6
CONTINUOUS
  0
LAYER
  2
5
 62
     5
 70
0
  6
CONTINUOUS
  0
LAYER
  2
6
 62
     6
 70
0
  6
CONTINUOUS
  0
LAYER
  2
7
 62
     7
 70
0
  6
CONTINUOUS
  0
ENDTAB
  0
TABLE
  2
STYLE
 70
     1
  0
STYLE
 70
     0
  2
STANDARD
  3
TXT
 40
0.00
 41
1.00
 42
1.00
 50
0.00
 71
     0
  0
ENDTAB
  0
ENDSEC
  0
SECTION
  2
BLOCKS
  0
BLOCK
  8
0
  2
EPAD
 70
0
 10
0.0
 20
0.0
  0
POLYLINE
  8
0
 66
1
 70
1
 40
0.5
 41
0.5
  0
VERTEX
  8
0
 10
-0.25
 20
0.0
 42
1.0
  0
VERTEX
  8
0
 10
0.25
 20
0.0
 42
1.0
  0
SEQEND
  8
0
  0
ENDBLK
  8
0
  0
BLOCK
  8
0
  2
RPAD
 70
0
 10
0.0
 20
0.0
  0
TRACE
  8
0
 10
-0.5
 20
-0.5
 11
-0.5
 21
0.5
 12
0.5
 22
-0.5
 13
0.5
 23
0.5
  0
ENDBLK
  8
0
  0
ENDSEC
0
SECTION
2
ENTITIES
0
INSERT
8
0
2
EPAD
10
0.325000
20
0.331000
41
0.036000
42
0.036000
0
CIRCLE
8
0
10
0.325000
20
0.331000
40
0.010000
0
INSERT
8
0
2
EPAD
10
1.775000
20
-0.269000
41
0.036000
42
0.036000
0
CIRCLE
8
0
10
1.775000
20
-0.269000
40
0.010000
0
INSERT
8
0
2
EPAD
10
0.600000
20
0.081000
41
0.036000
42
0.036000
0
CIRCLE
8
0
10
0.600000
20
0.081000
40
0.010000
0
INSERT
8
0
2
EPAD
10
0.600000
20
-0.119000
41
0.036000
42
0.036000
0
CIRCLE
8
0
10
0.600000
20
-0.119000
40
0.010000
0
INSERT
8
0
2
EPAD
10
1.150000
20
0.081000
41
0.036000
42
0.036000
0
CIRCLE
8
0
10
1.150000
20
0.081000
40
0.010000
0
INSERT
8
0
2
EPAD
10
0.300000
20
-0.294000
41
0.036000
42
0.036000
0
CIRCLE
8
0
10
0.300000
20
-0.294000
40
0.010000
0
INSERT
8
0
2
EPAD
10
0.050000
20
-0.294000
41
0.036000
42
0.036000
0
CIRCLE
8
0
10
0.050000
20
-0.294000
40
0.010000
0
INSERT
8
0
2
EPAD
10
1.800000
20
-0.344000
41
0.036000
42
0.036000
0
CIRCLE
8
0
10
1.800000
20
-0.344000
40
0.010000
0
INSERT
8
0
2
EPAD
10
0.450000
20
0.081000
41
0.036000
42
0.036000
0
CIRCLE
8
0
10
0.450000
20
0.081000
40
0.010000
0
INSERT
8
0
2
EPAD
10
0.600000
20
-0.044000
41
0.036000
42
0.036000
0
CIRCLE
8
0
10
0.600000
20
-0.044000
40
0.010000
0
INSERT
8
0
2
EPAD
10
0.200000
20
-0.669000
41
0.036000
42
0.036000
0
CIRCLE
8
0
10
0.200000
20
-0.669000
40
0.010000
0
INSERT
8
0
2
EPAD
10
1.075000
20
-0.794000
41
0.036000
42
0.036000
0
CIRCLE
8
0
10
1.075000
20
-0.794000
40
0.010000
0
INSERT
8
0
2
EPAD
10
-0.450000
20
-0.494000
41
0.036000
42
0.036000
0
CIRCLE
8
0
10
-0.450000
20
-0.494000
40
0.010000
0
INSERT
8
0
2
EPAD
10
-0.226000
20
-0.494000
41
0.036000
42
0.036000
0
CIRCLE
8
0
10
-0.226000
20
-0.494000
40
0.010000
0
INSERT
8
0
2
EPAD
10
-0.930000
20
-0.359000
41
0.036000
42
0.036000
0
CIRCLE
8
0
10
-0.930000
20
-0.359000
40
0.010000
0
INSERT
8
0
2
EPAD
10
-0.690000
20
-0.359000
41
0.036000
42
0.036000
0
CIRCLE
8
0
10
-0.690000
20
-0.359000
40
0.010000
0
INSERT
8
0
2
EPAD
10
0.325000
20
-0.419000
41
0.036000
42
0.036000
0
CIRCLE
8
0
10
0.325000
20
-0.419000
40
0.010000
0
INSERT
8
0
2
EPAD
10
0.725000
20
-0.219000
41
0.036000
42
0.036000
0
CIRCLE
8
0
10
0.725000
20
-0.219000
40
0.010000
0
INSERT
8
0
2
EPAD
10
0.725000
20
-0.019000
41
0.036000
42
0.036000
0
CIRCLE
8
0
10
0.725000
20
-0.019000
40
0.010000
0
INSERT
8
0
2
EPAD
10
-0.875000
20
-0.194000
41
0.036000
42
0.036000
0
CIRCLE
8
0
10
-0.875000
20
-0.194000
40
0.010000
0
INSERT
8
0
2
EPAD
10
-0.875000
20
-0.319000
41
0.036000
42
0.036000
0
CIRCLE
8
0
10
-0.875000
20
-0.319000
40
0.010000
0
INSERT
8
0
2
EPAD
10
-0.726000
20
-0.194000
41
0.036000
42
0.036000
0
CIRCLE
8
0
10
-0.726000
20
-0.194000
40
0.010000
0
INSERT
8
0
2
EPAD
10
-0.810000
20
0.006000
41
0.036000
42
0.036000
0
CIRCLE
8
0
10
-0.810000
20
0.006000
40
0.010000
0
INSERT
8
0
2
EPAD
10
-0.770000
20
0.231000
41
0.036000
42
0.036000
0
CIRCLE
8
0
10
-0.770000
20
0.231000
40
0.010000
0
INSERT
8
0
2
EPAD
10
-0.820000
20
0.356000
41
0.036000
42
0.036000
0
CIRCLE
8
0
10
-0.820000
20
0.356000
40
0.010000
0
INSERT
8
0
2
EPAD
10
-0.910000
20
-0.019000
41
0.036000
42
0.036000
0
CIRCLE
8
0
10
-0.910000
20
-0.019000
40
0.010000
0
INSERT
8
0
2
EPAD
10
-0.950000
20
0.101000
41
0.036000
42
0.036000
0
CIRCLE
8
0
10
-0.950000
20
0.101000
40
0.010000
0
INSERT
8
0
2
EPAD
10
-1.540000
20
-0.144000
41
0.036000
42
0.036000
0
CIRCLE
8
0
10
-1.540000
20
-0.144000
40
0.010000
0
INSERT
8
0
2
EPAD
10
-1.660000
20
-0.144000
41
0.036000
42
0.036000
0
CIRCLE
8
0
10
-1.660000
20
-0.144000
40
0.010000
0
INSERT
8
0
2
EPAD
10
-0.875000
20
-0.444000
41
0.036000
42
0.036000
0
CIRCLE
8
0
10
-0.875000
20
-0.444000
40
0.010000
0
INSERT
8
0
2
EPAD
10
-0.400000
20
-0.368000
41
0.036000
42
0.036000
0
CIRCLE
8
0
10
-0.400000
20
-0.368000
40
0.010000
0
INSERT
8
0
2
EPAD
10
-0.050000
20
0.101000
41
0.036000
42
0.036000
0
CIRCLE
8
0
10
-0.050000
20
0.101000
40
0.010000
0
INSERT
8
0
2
EPAD
10
0.040000
20
0.101000
41
0.036000
42
0.036000
0
CIRCLE
8
0
10
0.040000
20
0.101000
40
0.010000
0
INSERT
8
0
2
EPAD
10
0.040000
20
0.021000
41
0.036000
42
0.036000
0
CIRCLE
8
0
10
0.040000
20
0.021000
40
0.010000
0
INSERT
8
0
2
EPAD
10
0.040000
20
0.061000
41
0.036000
42
0.036000
0
CIRCLE
8
0
10
0.040000
20
0.061000
40
0.010000
0
INSERT
8
0
2
EPAD
10
-0.050000
20
0.021000
41
0.036000
42
0.036000
0
CIRCLE
8
0
10
-0.050000
20
0.021000
40
0.010000
0
INSERT
8
0
2
EPAD
10
-0.050000
20
0.061000
41
0.036000
42
0.036000
0
CIRCLE
8
0
10
-0.050000
20
0.061000
40
0.010000
0
INSERT
8
0
2
EPAD
10
-0.005000
20
0.126000
41
0.036000
42
0.036000
0
CIRCLE
8
0
10
-0.005000
20
0.126000
40
0.010000
0
INSERT
8
0
2
EPAD
10
-0.150000
20
0.221000
41
0.036000
42
0.036000
0
CIRCLE
8
0
10
-0.150000
20
0.221000
40
0.010000
0
INSERT
8
0
2
EPAD
10
0.435000
20
0.019000
41
0.036000
42
0.036000
0
CIRCLE
8
0
10
0.435000
20
0.019000
40
0.010000
0
INSERT
8
0
2
EPAD
10
0.340000
20
0.019000
41
0.036000
42
0.036000
0
CIRCLE
8
0
10
0.340000
20
0.019000
40
0.010000
0
INSERT
8
0
2
EPAD
10
0.315000
20
0.081000
41
0.036000
42
0.036000
0
CIRCLE
8
0
10
0.315000
20
0.081000
40
0.010000
0
INSERT
8
0
2
EPAD
10
0.185000
20
0.176000
41
0.036000
42
0.036000
0
CIRCLE
8
0
10
0.185000
20
0.176000
40
0.010000
0
INSERT
8
0
2
EPAD
10
0.210000
20
0.239000
41
0.036000
42
0.036000
0
CIRCLE
8
0
10
0.210000
20
0.239000
40
0.010000
0
INSERT
8
0
2
EPAD
10
0.525000
20
0.131000
41
0.036000
42
0.036000
0
CIRCLE
8
0
10
0.525000
20
0.131000
40
0.010000
0
INSERT
8
0
2
EPAD
10
0.565000
20
0.239000
41
0.036000
42
0.036000
0
CIRCLE
8
0
10
0.565000
20
0.239000
40
0.010000
0
INSERT
8
0
2
EPAD
10
1.045000
20
0.181000
41
0.036000
42
0.036000
0
CIRCLE
8
0
10
1.045000
20
0.181000
40
0.010000
0
INSERT
8
0
2
EPAD
10
1.275000
20
0.156000
41
0.036000
42
0.036000
0
CIRCLE
8
0
10
1.275000
20
0.156000
40
0.010000
0
INSERT
8
0
2
EPAD
10
1.405000
20
0.289000
41
0.036000
42
0.036000
0
CIRCLE
8
0
10
1.405000
20
0.289000
40
0.010000
0
INSERT
8
0
2
EPAD
10
1.515000
20
0.131000
41
0.036000
42
0.036000
0
CIRCLE
8
0
10
1.515000
20
0.131000
40
0.010000
0
INSERT
8
0
2
EPAD
10
1.635000
20
0.289000
41
0.036000
42
0.036000
0
CIRCLE
8
0
10
1.635000
20
0.289000
40
0.010000
0
INSERT
8
0
2
EPAD
10
1.790000
20
0.131000
41
0.036000
42
0.036000
0
CIRCLE
8
0
10
1.790000
20
0.131000
40
0.010000
0
INSERT
8
0
2
EPAD
10
1.635000
20
0.069000
41
0.036000
42
0.036000
0
CIRCLE
8
0
10
1.635000
20
0.069000
40
0.010000
0
INSERT
8
0
2
EPAD
10
1.790000
20
0.006000
41
0.036000
42
0.036000
0
CIRCLE
8
0
10
1.790000
20
0.006000
40
0.010000
0
INSERT
8
0
2
EPAD
10
1.360000
20
-0.519000
41
0.036000
42
0.036000
0
CIRCLE
8
0
10
1.360000
20
-0.519000
40
0.010000
0
INSERT
8
0
2
EPAD
10
1.540000
20
-0.501000
41
0.036000
42
0.036000
0
CIRCLE
8
0
10
1.540000
20
-0.501000
40
0.010000
0
INSERT
8
0
2
EPAD
10
1.790000
20
-0.564000
41
0.036000
42
0.036000
0
CIRCLE
8
0
10
1.790000
20
-0.564000
40
0.010000
0
INSERT
8
0
2
EPAD
10
1.790000
20
-0.439000
41
0.036000
42
0.036000
0
CIRCLE
8
0
10
1.790000
20
-0.439000
40
0.010000
0
INSERT
8
0
2
EPAD
10
1.385000
20
-0.219000
41
0.036000
42
0.036000
0
CIRCLE
8
0
10
1.385000
20
-0.219000
40
0.010000
0
INSERT
8
0
2
EPAD
10
1.515000
20
-0.344000
41
0.036000
42
0.036000
0
CIRCLE
8
0
10
1.515000
20
-0.344000
40
0.010000
0
INSERT
8
0
2
EPAD
10
1.225000
20
-0.264000
41
0.036000
42
0.036000
0
CIRCLE
8
0
10
1.225000
20
-0.264000
40
0.010000
0
INSERT
8
0
2
EPAD
10
0.450000
20
-0.519000
41
0.036000
42
0.036000
0
CIRCLE
8
0
10
0.450000
20
-0.519000
40
0.010000
0
INSERT
8
0
2
EPAD
10
0.338000
20
-0.609000
41
0.036000
42
0.036000
0
CIRCLE
8
0
10
0.338000
20
-0.609000
40
0.010000
0
INSERT
8
0
2
EPAD
10
0.558000
20
-0.609000
41
0.036000
42
0.036000
0
CIRCLE
8
0
10
0.558000
20
-0.609000
40
0.010000
0
INSERT
8
0
2
EPAD
10
0.665000
20
-0.519000
41
0.036000
42
0.036000
0
CIRCLE
8
0
10
0.665000
20
-0.519000
40
0.010000
0
INSERT
8
0
2
EPAD
10
0.445000
20
-0.769000
41
0.036000
42
0.036000
0
CIRCLE
8
0
10
0.445000
20
-0.769000
40
0.010000
0
INSERT
8
0
2
EPAD
10
0.558000
20
-0.834000
41
0.036000
42
0.036000
0
CIRCLE
8
0
10
0.558000
20
-0.834000
40
0.010000
0
INSERT
8
0
2
EPAD
10
0.338000
20
-0.834000
41
0.036000
42
0.036000
0
CIRCLE
8
0
10
0.338000
20
-0.834000
40
0.010000
0
INSERT
8
0
2
EPAD
10
0.230000
20
-0.794000
41
0.036000
42
0.036000
0
CIRCLE
8
0
10
0.230000
20
-0.794000
40
0.010000
0
INSERT
8
0
2
EPAD
10
-0.700000
20
-0.909000
41
0.036000
42
0.036000
0
CIRCLE
8
0
10
-0.700000
20
-0.909000
40
0.010000
0
INSERT
8
0
2
EPAD
10
-0.585000
20
-0.894000
41
0.036000
42
0.036000
0
CIRCLE
8
0
10
-0.585000
20
-0.894000
40
0.010000
0
INSERT
8
0
2
EPAD
10
-0.360000
20
-0.894000
41
0.036000
42
0.036000
0
CIRCLE
8
0
10
-0.360000
20
-0.894000
40
0.010000
0
INSERT
8
0
2
EPAD
10
-0.140000
20
-0.894000
41
0.036000
42
0.036000
0
CIRCLE
8
0
10
-0.140000
20
-0.894000
40
0.010000
0
INSERT
8
0
2
EPAD
10
-0.050000
20
-0.944000
41
0.036000
42
0.036000
0
CIRCLE
8
0
10
-0.050000
20
-0.944000
40
0.010000
0
INSERT
8
0
2
EPAD
10
0.175000
20
-0.869000
41
0.036000
42
0.036000
0
CIRCLE
8
0
10
0.175000
20
-0.869000
40
0.010000
0
INSERT
8
0
2
EPAD
10
-1.025000
20
-0.974000
41
0.036000
42
0.036000
0
CIRCLE
8
0
10
-1.025000
20
-0.974000
40
0.010000
0
INSERT
8
0
2
EPAD
10
-0.050000
20
-0.139000
41
0.036000
42
0.036000
0
CIRCLE
8
0
10
-0.050000
20
-0.139000
40
0.010000
0
INSERT
8
0
2
EPAD
10
-0.050000
20
-0.094000
41
0.036000
42
0.036000
0
CIRCLE
8
0
10
-0.050000
20
-0.094000
40
0.010000
0
INSERT
8
0
2
EPAD
10
-0.050000
20
-0.184000
41
0.036000
42
0.036000
0
CIRCLE
8
0
10
-0.050000
20
-0.184000
40
0.010000
0
INSERT
8
0
2
EPAD
10
0.040000
20
-0.139000
41
0.036000
42
0.036000
0
CIRCLE
8
0
10
0.040000
20
-0.139000
40
0.010000
0
INSERT
8
0
2
EPAD
10
0.040000
20
-0.094000
41
0.036000
42
0.036000
0
CIRCLE
8
0
10
0.040000
20
-0.094000
40
0.010000
0
INSERT
8
0
2
EPAD
10
0.040000
20
-0.184000
41
0.036000
42
0.036000
0
CIRCLE
8
0
10
0.040000
20
-0.184000
40
0.010000
0
INSERT
8
0
2
EPAD
10
-0.005000
20
-0.214000
41
0.036000
42
0.036000
0
CIRCLE
8
0
10
-0.005000
20
-0.214000
40
0.010000
0
INSERT
8
0
2
EPAD
10
0.975000
20
-0.689000
41
0.036000
42
0.036000
0
CIRCLE
8
0
10
0.975000
20
-0.689000
40
0.010000
0
INSERT
8
0
2
EPAD
10
1.065000
20
-0.689000
41
0.036000
42
0.036000
0
CIRCLE
8
0
10
1.065000
20
-0.689000
40
0.010000
0
INSERT
8
0
2
EPAD
10
0.975000
20
-0.649000
41
0.036000
42
0.036000
0
CIRCLE
8
0
10
0.975000
20
-0.649000
40
0.010000
0
INSERT
8
0
2
EPAD
10
0.975000
20
-0.729000
41
0.036000
42
0.036000
0
CIRCLE
8
0
10
0.975000
20
-0.729000
40
0.010000
0
INSERT
8
0
2
EPAD
10
1.065000
20
-0.729000
41
0.036000
42
0.036000
0
CIRCLE
8
0
10
1.065000
20
-0.729000
40
0.010000
0
INSERT
8
0
2
EPAD
10
1.065000
20
-0.649000
41
0.036000
42
0.036000
0
CIRCLE
8
0
10
1.065000
20
-0.649000
40
0.010000
0
INSERT
8
0
2
EPAD
10
1.020000
20
-0.424000
41
0.036000
42
0.036000
0
CIRCLE
8
0
10
1.020000
20
-0.424000
40
0.010000
0
INSERT
8
0
2
EPAD
10
0.975000
20
-0.499000
41
0.036000
42
0.036000
0
CIRCLE
8
0
10
0.975000
20
-0.499000
40
0.010000
0
INSERT
8
0
2
EPAD
10
1.065000
20
-0.499000
41
0.036000
42
0.036000
0
CIRCLE
8
0
10
1.065000
20
-0.499000
40
0.010000
0
INSERT
8
0
2
EPAD
10
0.975000
20
-0.459000
41
0.036000
42
0.036000
0
CIRCLE
8
0
10
0.975000
20
-0.459000
40
0.010000
0
INSERT
8
0
2
EPAD
10
1.065000
20
-0.459000
41
0.036000
42
0.036000
0
CIRCLE
8
0
10
1.065000
20
-0.459000
40
0.010000
0
INSERT
8
0
2
EPAD
10
0.975000
20
-0.539000
41
0.036000
42
0.036000
0
CIRCLE
8
0
10
0.975000
20
-0.539000
40
0.010000
0
INSERT
8
0
2
EPAD
10
1.065000
20
-0.539000
41
0.036000
42
0.036000
0
CIRCLE
8
0
10
1.065000
20
-0.539000
40
0.010000
0
INSERT
8
0
2
EPAD
10
0.745000
20
-0.870000
41
0.036000
42
0.036000
0
CIRCLE
8
0
10
0.745000
20
-0.870000
40
0.010000
0
INSERT
8
0
2
EPAD
10
0.900000
20
-0.924000
41
0.036000
42
0.036000
0
CIRCLE
8
0
10
0.900000
20
-0.924000
40
0.010000
0
INSERT
8
0
2
EPAD
10
1.000000
20
-0.924000
41
0.036000
42
0.036000
0
CIRCLE
8
0
10
1.000000
20
-0.924000
40
0.010000
0
INSERT
8
0
2
EPAD
10
0.725000
20
0.171000
41
0.036000
42
0.036000
0
CIRCLE
8
0
10
0.725000
20
0.171000
40
0.010000
0
INSERT
8
0
2
EPAD
10
-1.600000
20
0.601000
41
0.036000
42
0.036000
0
CIRCLE
8
0
10
-1.600000
20
0.601000
40
0.010000
0
INSERT
8
0
2
EPAD
10
-1.720000
20
0.496000
41
0.036000
42
0.036000
0
CIRCLE
8
0
10
-1.720000
20
0.496000
40
0.010000
0
INSERT
8
0
2
EPAD
10
-1.375000
20
0.396000
41
0.036000
42
0.036000
0
CIRCLE
8
0
10
-1.375000
20
0.396000
40
0.010000
0
INSERT
8
0
2
EPAD
10
-1.200000
20
0.456000
41
0.036000
42
0.036000
0
CIRCLE
8
0
10
-1.200000
20
0.456000
40
0.010000
0
INSERT
8
0
2
EPAD
10
-1.125000
20
0.216000
41
0.036000
42
0.036000
0
CIRCLE
8
0
10
-1.125000
20
0.216000
40
0.010000
0
INSERT
8
0
2
EPAD
10
-1.060000
20
0.301000
41
0.036000
42
0.036000
0
CIRCLE
8
0
10
-1.060000
20
0.301000
40
0.010000
0
INSERT
8
0
2
EPAD
10
-1.130000
20
0.421000
41
0.036000
42
0.036000
0
CIRCLE
8
0
10
-1.130000
20
0.421000
40
0.010000
0
INSERT
8
0
2
EPAD
10
-0.900000
20
0.481000
41
0.036000
42
0.036000
0
CIRCLE
8
0
10
-0.900000
20
0.481000
40
0.010000
0
INSERT
8
0
2
EPAD
10
-1.120000
20
0.061000
41
0.036000
42
0.036000
0
CIRCLE
8
0
10
-1.120000
20
0.061000
40
0.010000
0
INSERT
8
0
2
EPAD
10
-1.040000
20
0.236000
41
0.036000
42
0.036000
0
CIRCLE
8
0
10
-1.040000
20
0.236000
40
0.010000
0
INSERT
8
0
2
EPAD
10
-0.250000
20
0.151000
41
0.036000
42
0.036000
0
CIRCLE
8
0
10
-0.250000
20
0.151000
40
0.010000
0
INSERT
8
0
2
EPAD
10
-0.250000
20
0.061000
41
0.036000
42
0.036000
0
CIRCLE
8
0
10
-0.250000
20
0.061000
40
0.010000
0
INSERT
8
0
2
EPAD
10
0.170000
20
0.036000
41
0.036000
42
0.036000
0
CIRCLE
8
0
10
0.170000
20
0.036000
40
0.010000
0
INSERT
8
0
2
EPAD
10
0.175000
20
-0.084000
41
0.036000
42
0.036000
0
CIRCLE
8
0
10
0.175000
20
-0.084000
40
0.010000
0
INSERT
8
0
2
EPAD
10
0.215000
20
-0.454000
41
0.036000
42
0.036000
0
CIRCLE
8
0
10
0.215000
20
-0.454000
40
0.010000
0
INSERT
8
0
2
EPAD
10
0.080000
20
-0.444000
41
0.036000
42
0.036000
0
CIRCLE
8
0
10
0.080000
20
-0.444000
40
0.010000
0
INSERT
8
0
2
EPAD
10
-0.280000
20
-0.368000
41
0.036000
42
0.036000
0
CIRCLE
8
0
10
-0.280000
20
-0.368000
40
0.010000
0
INSERT
8
0
2
EPAD
10
-0.280000
20
-0.539000
41
0.036000
42
0.036000
0
CIRCLE
8
0
10
-0.280000
20
-0.539000
40
0.010000
0
INSERT
8
0
2
EPAD
10
-0.520000
20
-0.539000
41
0.036000
42
0.036000
0
CIRCLE
8
0
10
-0.520000
20
-0.539000
40
0.010000
0
INSERT
8
0
2
EPAD
10
0.000000
20
-0.584000
41
0.036000
42
0.036000
0
CIRCLE
8
0
10
0.000000
20
-0.584000
40
0.010000
0
INSERT
8
0
2
EPAD
10
0.225000
20
-0.234000
41
0.036000
42
0.036000
0
CIRCLE
8
0
10
0.225000
20
-0.234000
40
0.010000
0
INSERT
8
0
2
EPAD
10
0.125000
20
-0.234000
41
0.036000
42
0.036000
0
CIRCLE
8
0
10
0.125000
20
-0.234000
40
0.010000
0
INSERT
8
0
2
EPAD
10
0.745000
20
-0.444000
41
0.036000
42
0.036000
0
CIRCLE
8
0
10
0.745000
20
-0.444000
40
0.010000
0
INSERT
8
0
2
EPAD
10
1.620000
20
-0.281000
41
0.036000
42
0.036000
0
CIRCLE
8
0
10
1.620000
20
-0.281000
40
0.010000
0
INSERT
8
0
2
EPAD
10
1.625000
20
-0.501000
41
0.036000
42
0.036000
0
CIRCLE
8
0
10
1.625000
20
-0.501000
40
0.010000
0
INSERT
8
0
2
EPAD
10
0.390000
20
0.239000
41
0.036000
42
0.036000
0
CIRCLE
8
0
10
0.390000
20
0.239000
40
0.010000
0
INSERT
8
0
2
EPAD
10
-1.400000
20
-0.299000
41
0.036000
42
0.036000
0
CIRCLE
8
0
10
-1.400000
20
-0.299000
40
0.010000
0
INSERT
8
0
2
EPAD
10
-1.360000
20
-0.654000
41
0.036000
42
0.036000
0
CIRCLE
8
0
10
-1.360000
20
-0.654000
40
0.010000
0
INSERT
8
0
2
EPAD
10
-1.360000
20
-0.954000
41
0.036000
42
0.036000
0
CIRCLE
8
0
10
-1.360000
20
-0.954000
40
0.010000
0
INSERT
8
0
2
EPAD
10
-0.125000
20
0.831000
41
0.036000
42
0.036000
0
CIRCLE
8
0
10
-0.125000
20
0.831000
40
0.010000
0
INSERT
8
0
2
EPAD
10
0.330000
20
0.831000
41
0.036000
42
0.036000
0
CIRCLE
8
0
10
0.330000
20
0.831000
40
0.010000
0
INSERT
8
0
2
EPAD
10
0.750000
20
0.831000
41
0.036000
42
0.036000
0
CIRCLE
8
0
10
0.750000
20
0.831000
40
0.010000
0
INSERT
8
0
2
EPAD
10
1.720000
20
0.581000
41
0.036000
42
0.036000
0
CIRCLE
8
0
10
1.720000
20
0.581000
40
0.010000
0
INSERT
8
0
2
EPAD
10
1.045000
20
0.396000
41
0.036000
42
0.036000
0
CIRCLE
8
0
10
1.045000
20
0.396000
40
0.010000
0
INSERT
8
0
2
EPAD
10
1.460000
20
-0.924000
41
0.036000
42
0.036000
0
CIRCLE
8
0
10
1.460000
20
-0.924000
40
0.010000
0
INSERT
8
0
2
EPAD
10
-0.750000
20
0.831000
41
0.090000
42
0.090000
0
CIRCLE
8
0
10
-0.750000
20
0.831000
40
0.010000
0
INSERT
8
0
2
EPAD
10
-0.750000
20
0.631000
41
0.090000
42
0.090000
0
CIRCLE
8
0
10
-0.750000
20
0.631000
40
0.010000
0
INSERT
8
0
2
EPAD
10
-0.550000
20
0.631000
41
0.090000
42
0.090000
0
CIRCLE
8
0
10
-0.550000
20
0.631000
40
0.010000
0
INSERT
8
0
2
EPAD
10
-0.550000
20
0.831000
41
0.090000
42
0.090000
0
CIRCLE
8
0
10
-0.550000
20
0.831000
40
0.010000
0
INSERT
8
0
2
EPAD
10
-0.650000
20
0.731000
41
0.080000
42
0.080000
0
CIRCLE
8
0
10
-0.650000
20
0.731000
40
0.040000
0
INSERT
8
0
2
RPAD
10
0.180000
20
0.531000
41
0.070000
42
0.070000
50
0.000000
0
CIRCLE
8
0
10
0.180000
20
0.531000
40
0.030000
0
INSERT
8
0
2
RPAD
10
0.620000
20
0.531000
41
0.070000
42
0.070000
50
0.000000
0
CIRCLE
8
0
10
0.620000
20
0.531000
40
0.030000
0
INSERT
8
0
2
RPAD
10
0.510000
20
0.531000
41
0.070000
42
0.070000
50
0.000000
0
CIRCLE
8
0
10
0.510000
20
0.531000
40
0.030000
0
INSERT
8
0
2
RPAD
10
0.400000
20
0.531000
41
0.070000
42
0.070000
50
0.000000
0
CIRCLE
8
0
10
0.400000
20
0.531000
40
0.030000
0
INSERT
8
0
2
RPAD
10
0.290000
20
0.531000
41
0.070000
42
0.070000
50
0.000000
0
CIRCLE
8
0
10
0.290000
20
0.531000
40
0.030000
0
INSERT
8
0
2
RPAD
10
0.565000
20
0.631000
41
0.070000
42
0.070000
50
0.000000
0
CIRCLE
8
0
10
0.565000
20
0.631000
40
0.030000
0
INSERT
8
0
2
RPAD
10
0.455000
20
0.631000
41
0.070000
42
0.070000
50
0.000000
0
CIRCLE
8
0
10
0.455000
20
0.631000
40
0.030000
0
INSERT
8
0
2
RPAD
10
0.345000
20
0.631000
41
0.070000
42
0.070000
50
0.000000
0
CIRCLE
8
0
10
0.345000
20
0.631000
40
0.030000
0
INSERT
8
0
2
RPAD
10
0.235000
20
0.631000
41
0.070000
42
0.070000
50
0.000000
0
CIRCLE
8
0
10
0.235000
20
0.631000
40
0.030000
0
INSERT
8
0
2
EPAD
10
-0.100000
20
0.581000
41
0.200000
42
0.200000
0
CIRCLE
8
0
10
-0.100000
20
0.581000
40
0.120000
0
INSERT
8
0
2
EPAD
10
0.900000
20
0.581000
41
0.200000
42
0.200000
0
CIRCLE
8
0
10
0.900000
20
0.581000
40
0.120000
0
INSERT
8
0
2
EPAD
10
1.225000
20
0.631000
41
0.090000
42
0.090000
0
CIRCLE
8
0
10
1.225000
20
0.631000
40
0.010000
0
INSERT
8
0
2
EPAD
10
1.425000
20
0.631000
41
0.090000
42
0.090000
0
CIRCLE
8
0
10
1.425000
20
0.631000
40
0.010000
0
INSERT
8
0
2
EPAD
10
1.425000
20
0.831000
41
0.090000
42
0.090000
0
CIRCLE
8
0
10
1.425000
20
0.831000
40
0.010000
0
INSERT
8
0
2
EPAD
10
1.225000
20
0.831000
41
0.090000
42
0.090000
0
CIRCLE
8
0
10
1.225000
20
0.831000
40
0.010000
0
INSERT
8
0
2
EPAD
10
1.325000
20
0.731000
41
0.080000
42
0.080000
0
CIRCLE
8
0
10
1.325000
20
0.731000
40
0.040000
0
INSERT
8
0
2
EPAD
10
-1.175000
20
-0.574000
41
0.060000
42
0.060000
0
CIRCLE
8
0
10
-1.175000
20
-0.574000
40
0.025000
0
INSERT
8
0
2
EPAD
10
-1.175000
20
-0.394000
41
0.060000
42
0.060000
0
CIRCLE
8
0
10
-1.175000
20
-0.394000
40
0.025000
0
INSERT
8
0
2
EPAD
10
-1.675000
20
0.806000
41
0.250000
42
0.250000
0
CIRCLE
8
0
10
-1.675000
20
0.806000
40
0.120000
0
INSERT
8
0
2
EPAD
10
-1.675000
20
-0.844000
41
0.250000
42
0.250000
0
CIRCLE
8
0
10
-1.675000
20
-0.844000
40
0.120000
0
INSERT
8
0
2
EPAD
10
1.675000
20
0.806000
41
0.250000
42
0.250000
0
CIRCLE
8
0
10
1.675000
20
0.806000
40
0.120000
0
INSERT
8
0
2
EPAD
10
1.675000
20
-0.844000
41
0.250000
42
0.250000
0
CIRCLE
8
0
10
1.675000
20
-0.844000
40
0.120000
0
INSERT
8
0
2
EPAD
10
0.475000
20
-0.269000
41
0.250000
42
0.250000
0
CIRCLE
8
0
10
0.475000
20
-0.269000
40
0.120000
0
POLYLINE
8
0
66
1
40
0.008000
41
0.008000
0
VERTEX
8
0
10
-0.800000
20
0.581000
0
VERTEX
8
0
10
-0.500000
20
0.581000
0
VERTEX
8
0
10
-0.500000
20
0.881000
0
VERTEX
8
0
10
-0.800000
20
0.881000
0
VERTEX
8
0
10
-0.800000
20
0.581000
0
SEQEND
8
0
0
TEXT
8
12632256
10
-0.486000
20
0.701000
40
0.040000
41
1.000000
1
J1
0
POLYLINE
8
0
66
1
40
0.008000
41
0.008000
0
VERTEX
8
0
10
-0.300000
20
0.431000
0
VERTEX
8
0
10
1.100000
20
0.431000
0
VERTEX
8
0
10
1.100000
20
0.956000
0
VERTEX
8
0
10
-0.300000
20
0.956000
0
VERTEX
8
0
10
-0.300000
20
0.431000
0
SEQEND
8
0
0
POLYLINE
8
0
66
1
40
0.008000
41
0.008000
0
VERTEX
8
0
10
0.000000
20
0.956000
0
VERTEX
8
0
10
0.000000
20
1.131000
0
VERTEX
8
0
10
0.800000
20
1.131000
0
VERTEX
8
0
10
0.800000
20
0.956000
0
SEQEND
8
0
0
POLYLINE
8
0
66
1
40
0.008000
41
0.008000
0
VERTEX
8
0
10
-0.200000
20
0.956000
0
VERTEX
8
0
10
-0.200000
20
1.056000
0
VERTEX
8
0
10
-0.100000
20
1.056000
0
VERTEX
8
0
10
-0.100000
20
0.956000
0
SEQEND
8
0
0
POLYLINE
8
0
66
1
40
0.008000
41
0.008000
0
VERTEX
8
0
10
0.900000
20
0.956000
0
VERTEX
8
0
10
0.900000
20
1.056000
0
VERTEX
8
0
10
1.000000
20
1.056000
0
VERTEX
8
0
10
1.000000
20
0.956000
0
SEQEND
8
0
0
TEXT
8
12632256
10
0.695000
20
0.562000
40
0.048000
41
1.041667
1
M
0
POLYLINE
8
0
66
1
40
0.008000
41
0.008000
0
VERTEX
8
0
10
0.620000
20
0.481000
0
VERTEX
8
0
10
0.570000
20
0.431000
0
SEQEND
8
0
0
POLYLINE
8
0
66
1
40
0.008000
41
0.008000
0
VERTEX
8
0
10
0.620000
20
0.481000
0
VERTEX
8
0
10
0.670000
20
0.431000
0
SEQEND
8
0
0
TEXT
8
12632256
10
-0.390000
20
0.885000
40
0.040000
41
1.000000
1
P1
0
POLYLINE
8
0
66
1
40
0.008000
41
0.008000
0
VERTEX
8
0
10
1.175000
20
0.581000
0
VERTEX
8
0
10
1.475000
20
0.581000
0
VERTEX
8
0
10
1.475000
20
0.881000
0
VERTEX
8
0
10
1.175000
20
0.881000
0
VERTEX
8
0
10
1.175000
20
0.581000
0
SEQEND
8
0
0
TEXT
8
12632256
10
1.285000
20
0.520000
40
0.040000
41
1.000000
1
J2
0
POLYLINE
8
0
66
1
40
0.008000
41
0.008000
0
VERTEX
8
0
10
-0.718000
20
0.416000
0
VERTEX
8
0
10
-0.558000
20
0.416000
0
VERTEX
8
0
10
-0.558000
20
0.496000
0
VERTEX
8
0
10
-0.718000
20
0.496000
0
VERTEX
8
0
10
-0.718000
20
0.416000
0
SEQEND
8
0
0
TEXT
8
12632256
10
-0.698000
20
0.510000
40
0.040000
41
1.000000
1
L17
0
POLYLINE
8
0
66
1
40
0.008000
41
0.008000
0
VERTEX
8
0
10
-0.793000
20
0.316000
0
VERTEX
8
0
10
-0.633000
20
0.316000
0
VERTEX
8
0
10
-0.633000
20
0.396000
0
VERTEX
8
0
10
-0.793000
20
0.396000
0
VERTEX
8
0
10
-0.793000
20
0.316000
0
SEQEND
8
0
0
TEXT
8
12632256
10
-0.873000
20
0.402000
40
0.040000
41
1.000000
1
C40
0
POLYLINE
8
0
66
1
40
0.008000
41
0.008000
0
VERTEX
8
0
10
-0.515000
20
0.389000
0
VERTEX
8
0
10
-0.435000
20
0.389000
0
VERTEX
8
0
10
-0.435000
20
0.549000
0
VERTEX
8
0
10
-0.515000
20
0.549000
0
VERTEX
8
0
10
-0.515000
20
0.389000
0
SEQEND
8
0
0
TEXT
8
12632256
10
-0.429000
20
0.554000
40
0.040000
41
1.000000
50
90.000000
1
L5
0
POLYLINE
8
0
66
1
40
0.008000
41
0.008000
0
VERTEX
8
0
10
-0.415000
20
0.339000
0
VERTEX
8
0
10
-0.335000
20
0.339000
0
VERTEX
8
0
10
-0.335000
20
0.499000
0
VERTEX
8
0
10
-0.415000
20
0.499000
0
VERTEX
8
0
10
-0.415000
20
0.339000
0
SEQEND
8
0
0
TEXT
8
12632256
10
-0.334000
20
0.509000
40
0.040000
41
1.000000
50
90.000000
1
C12
0
POLYLINE
8
0
66
1
40
0.008000
41
0.008000
0
VERTEX
8
0
10
-0.390000
20
0.163000
0
VERTEX
8
0
10
-0.310000
20
0.163000
0
VERTEX
8
0
10
-0.310000
20
0.323000
0
VERTEX
8
0
10
-0.390000
20
0.323000
0
VERTEX
8
0
10
-0.390000
20
0.163000
0
SEQEND
8
0
0
TEXT
8
12632256
10
-0.266000
20
0.208000
40
0.040000
41
1.000000
50
90.000000
1
L1
0
POLYLINE
8
0
66
1
40
0.008000
41
0.008000
0
VERTEX
8
0
10
-0.590000
20
-0.111000
0
VERTEX
8
0
10
-0.510000
20
-0.111000
0
VERTEX
8
0
10
-0.510000
20
0.049000
0
VERTEX
8
0
10
-0.590000
20
0.049000
0
VERTEX
8
0
10
-0.590000
20
-0.111000
0
SEQEND
8
0
0
TEXT
8
12632256
10
-0.591000
20
-0.101000
40
0.040000
41
1.000000
50
90.000000
1
L2
0
POLYLINE
8
0
66
1
40
0.008000
41
0.008000
0
VERTEX
8
0
10
-0.668000
20
0.066000
0
VERTEX
8
0
10
-0.508000
20
0.066000
0
VERTEX
8
0
10
-0.508000
20
0.146000
0
VERTEX
8
0
10
-0.668000
20
0.146000
0
VERTEX
8
0
10
-0.668000
20
0.066000
0
SEQEND
8
0
0
TEXT
8
12632256
10
-0.753000
20
0.125000
40
0.040000
41
1.000000
1
L3
0
POLYLINE
8
0
66
1
40
0.008000
41
0.008000
0
VERTEX
8
0
10
-0.668000
20
-0.209000
0
VERTEX
8
0
10
-0.508000
20
-0.209000
0
VERTEX
8
0
10
-0.508000
20
-0.129000
0
VERTEX
8
0
10
-0.668000
20
-0.129000
0
VERTEX
8
0
10
-0.668000
20
-0.209000
0
SEQEND
8
0
0
TEXT
8
12632256
10
-0.753000
20
-0.160000
40
0.040000
41
1.000000
1
L4
0
POLYLINE
8
0
66
1
40
0.008000
41
0.008000
0
VERTEX
8
0
10
-0.568000
20
0.241000
0
VERTEX
8
0
10
-0.408000
20
0.241000
0
VERTEX
8
0
10
-0.408000
20
0.321000
0
VERTEX
8
0
10
-0.568000
20
0.321000
0
VERTEX
8
0
10
-0.568000
20
0.241000
0
SEQEND
8
0
0
TEXT
8
12632256
10
-0.503000
20
0.335000
40
0.040000
41
1.000000
1
L6
0
POLYLINE
8
0
66
1
40
0.008000
41
0.008000
0
VERTEX
8
0
10
0.268000
20
-0.101000
0
VERTEX
8
0
10
0.268000
20
-0.069000
0
SEQEND
8
0
0
POLYLINE
8
0
66
1
40
0.008000
41
0.008000
0
VERTEX
8
0
10
0.268000
20
-0.019000
0
VERTEX
8
0
10
0.268000
20
-0.011000
0
SEQEND
8
0
0
POLYLINE
8
0
66
1
40
0.008000
41
0.008000
0
VERTEX
8
0
10
0.268000
20
-0.101000
0
VERTEX
8
0
10
0.508000
20
-0.101000
0
VERTEX
8
0
10
0.508000
20
-0.071000
0
SEQEND
8
0
0
POLYLINE
8
0
66
1
40
0.008000
41
0.008000
0
VERTEX
8
0
10
0.508000
20
-0.021000
0
VERTEX
8
0
10
0.508000
20
-0.011000
0
SEQEND
8
0
0
POLYLINE
8
0
66
1
40
0.008000
41
0.008000
0
VERTEX
8
0
10
0.508000
20
0.049000
0
VERTEX
8
0
10
0.508000
20
0.056000
0
SEQEND
8
0
0
POLYLINE
8
0
66
1
40
0.008000
41
0.008000
0
VERTEX
8
0
10
0.508000
20
0.106000
0
VERTEX
8
0
10
0.508000
20
0.151000
0
SEQEND
8
0
0
POLYLINE
8
0
66
1
40
0.008000
41
0.008000
0
VERTEX
8
0
10
0.508000
20
0.201000
0
VERTEX
8
0
10
0.508000
20
0.209000
0
SEQEND
8
0
0
POLYLINE
8
0
66
1
40
0.008000
41
0.008000
0
VERTEX
8
0
10
0.508000
20
0.269000
0
VERTEX
8
0
10
0.508000
20
0.276000
0
SEQEND
8
0
0
POLYLINE
8
0
66
1
40
0.008000
41
0.008000
0
VERTEX
8
0
10
0.508000
20
0.326000
0
VERTEX
8
0
10
0.508000
20
0.359000
0
VERTEX
8
0
10
0.268000
20
0.359000
0
VERTEX
8
0
10
0.268000
20
0.326000
0
SEQEND
8
0
0
POLYLINE
8
0
66
1
40
0.008000
41
0.008000
0
VERTEX
8
0
10
0.268000
20
0.276000
0
VERTEX
8
0
10
0.268000
20
0.269000
0
SEQEND
8
0
0
POLYLINE
8
0
66
1
40
0.008000
41
0.008000
0
VERTEX
8
0
10
0.268000
20
0.209000
0
VERTEX
8
0
10
0.268000
20
0.201000
0
SEQEND
8
0
0
POLYLINE
8
0
66
1
40
0.008000
41
0.008000
0
VERTEX
8
0
10
0.268000
20
0.151000
0
VERTEX
8
0
10
0.268000
20
0.106000
0
SEQEND
8
0
0
POLYLINE
8
0
66
1
40
0.008000
41
0.008000
0
VERTEX
8
0
10
0.268000
20
0.056000
0
VERTEX
8
0
10
0.268000
20
0.049000
0
SEQEND
8
0
0
POLYLINE
8
0
66
1
40
0.008000
41
0.008000
0
VERTEX
8
0
10
0.258000
20
-0.071000
0
VERTEX
8
0
10
0.258000
20
-0.111000
0
VERTEX
8
0
10
0.298000
20
-0.111000
0
SEQEND
8
0
0
CIRCLE
8
12632256
10
0.313000
20
-0.061000
40
0.010000
0
TEXT
8
12632256
10
0.337000
20
0.375000
40
0.040000
41
1.000000
1
L7
0
POLYLINE
8
0
66
1
40
0.008000
41
0.008000
0
VERTEX
8
0
10
1.468000
20
-0.051000
0
VERTEX
8
0
10
1.468000
20
-0.019000
0
SEQEND
8
0
0
POLYLINE
8
0
66
1
40
0.008000
41
0.008000
0
VERTEX
8
0
10
1.468000
20
0.031000
0
VERTEX
8
0
10
1.468000
20
0.039000
0
SEQEND
8
0
0
POLYLINE
8
0
66
1
40
0.008000
41
0.008000
0
VERTEX
8
0
10
1.468000
20
-0.051000
0
VERTEX
8
0
10
1.708000
20
-0.051000
0
VERTEX
8
0
10
1.708000
20
-0.021000
0
SEQEND
8
0
0
POLYLINE
8
0
66
1
40
0.008000
41
0.008000
0
VERTEX
8
0
10
1.708000
20
0.029000
0
VERTEX
8
0
10
1.708000
20
0.039000
0
SEQEND
8
0
0
POLYLINE
8
0
66
1
40
0.008000
41
0.008000
0
VERTEX
8
0
10
1.708000
20
0.099000
0
VERTEX
8
0
10
1.708000
20
0.106000
0
SEQEND
8
0
0
POLYLINE
8
0
66
1
40
0.008000
41
0.008000
0
VERTEX
8
0
10
1.708000
20
0.156000
0
VERTEX
8
0
10
1.708000
20
0.201000
0
SEQEND
8
0
0
POLYLINE
8
0
66
1
40
0.008000
41
0.008000
0
VERTEX
8
0
10
1.708000
20
0.251000
0
VERTEX
8
0
10
1.708000
20
0.259000
0
SEQEND
8
0
0
POLYLINE
8
0
66
1
40
0.008000
41
0.008000
0
VERTEX
8
0
10
1.708000
20
0.319000
0
VERTEX
8
0
10
1.708000
20
0.326000
0
SEQEND
8
0
0
POLYLINE
8
0
66
1
40
0.008000
41
0.008000
0
VERTEX
8
0
10
1.708000
20
0.376000
0
VERTEX
8
0
10
1.708000
20
0.409000
0
VERTEX
8
0
10
1.468000
20
0.409000
0
VERTEX
8
0
10
1.468000
20
0.376000
0
SEQEND
8
0
0
POLYLINE
8
0
66
1
40
0.008000
41
0.008000
0
VERTEX
8
0
10
1.468000
20
0.326000
0
VERTEX
8
0
10
1.468000
20
0.319000
0
SEQEND
8
0
0
POLYLINE
8
0
66
1
40
0.008000
41
0.008000
0
VERTEX
8
0
10
1.468000
20
0.259000
0
VERTEX
8
0
10
1.468000
20
0.251000
0
SEQEND
8
0
0
POLYLINE
8
0
66
1
40
0.008000
41
0.008000
0
VERTEX
8
0
10
1.468000
20
0.201000
0
VERTEX
8
0
10
1.468000
20
0.156000
0
SEQEND
8
0
0
POLYLINE
8
0
66
1
40
0.008000
41
0.008000
0
VERTEX
8
0
10
1.468000
20
0.106000
0
VERTEX
8
0
10
1.468000
20
0.099000
0
SEQEND
8
0
0
POLYLINE
8
0
66
1
40
0.008000
41
0.008000
0
VERTEX
8
0
10
1.458000
20
-0.021000
0
VERTEX
8
0
10
1.458000
20
-0.061000
0
VERTEX
8
0
10
1.498000
20
-0.061000
0
SEQEND
8
0
0
CIRCLE
8
12632256
10
1.513000
20
-0.011000
40
0.010000
0
TEXT
8
12632256
10
1.547000
20
-0.105000
40
0.040000
41
1.000000
1
L8
0
POLYLINE
8
0
66
1
40
0.008000
41
0.008000
0
VERTEX
8
0
10
-0.490000
20
0.063000
0
VERTEX
8
0
10
-0.410000
20
0.063000
0
VERTEX
8
0
10
-0.410000
20
0.223000
0
VERTEX
8
0
10
-0.490000
20
0.223000
0
VERTEX
8
0
10
-0.490000
20
0.063000
0
SEQEND
8
0
0
TEXT
8
12632256
10
-0.409000
20
-0.027000
40
0.040000
41
1.000000
50
90.000000
1
C1
0
POLYLINE
8
0
66
1
40
0.008000
41
0.008000
0
VERTEX
8
0
10
-0.490000
20
-0.212000
0
VERTEX
8
0
10
-0.410000
20
-0.212000
0
VERTEX
8
0
10
-0.410000
20
-0.052000
0
VERTEX
8
0
10
-0.490000
20
-0.052000
0
VERTEX
8
0
10
-0.490000
20
-0.212000
0
SEQEND
8
0
0
TEXT
8
12632256
10
-0.354000
20
-0.122000
40
0.040000
41
1.000000
50
90.000000
1
C2
0
POLYLINE
8
0
66
1
40
0.008000
41
0.008000
0
VERTEX
8
0
10
-0.343000
20
-0.084000
0
VERTEX
8
0
10
-0.183000
20
-0.084000
0
VERTEX
8
0
10
-0.183000
20
-0.004000
0
VERTEX
8
0
10
-0.343000
20
-0.004000
0
VERTEX
8
0
10
-0.343000
20
-0.084000
0
SEQEND
8
0
0
TEXT
8
12632256
10
-0.268000
20
-0.133000
40
0.040000
41
1.000000
1
C3
0
POLYLINE
8
0
66
1
40
0.008000
41
0.008000
0
VERTEX
8
0
10
0.107000
20
-0.204000
0
VERTEX
8
0
10
0.267000
20
-0.204000
0
VERTEX
8
0
10
0.267000
20
-0.124000
0
VERTEX
8
0
10
0.107000
20
-0.124000
0
VERTEX
8
0
10
0.107000
20
-0.204000
0
SEQEND
8
0
0
TEXT
8
12632256
10
0.082000
20
-0.118000
40
0.040000
41
1.000000
1
C4
0
POLYLINE
8
0
66
1
40
0.008000
41
0.008000
0
VERTEX
8
0
10
-0.040000
20
0.138000
0
VERTEX
8
0
10
0.040000
20
0.138000
0
VERTEX
8
0
10
0.040000
20
0.298000
0
VERTEX
8
0
10
-0.040000
20
0.298000
0
VERTEX
8
0
10
-0.040000
20
0.138000
0
SEQEND
8
0
0
TEXT
8
12632256
10
0.034000
20
0.303000
40
0.040000
41
1.000000
50
90.000000
1
C7
0
POLYLINE
8
0
66
1
40
0.008000
41
0.008000
0
VERTEX
8
0
10
-0.240000
20
0.238000
0
VERTEX
8
0
10
-0.160000
20
0.238000
0
VERTEX
8
0
10
-0.160000
20
0.398000
0
VERTEX
8
0
10
-0.240000
20
0.398000
0
VERTEX
8
0
10
-0.240000
20
0.238000
0
SEQEND
8
0
0
TEXT
8
12632256
10
-0.246000
20
0.318000
40
0.040000
41
1.000000
50
90.000000
1
C8
0
POLYLINE
8
0
66
1
40
0.008000
41
0.008000
0
VERTEX
8
0
10
-0.140000
20
0.238000
0
VERTEX
8
0
10
-0.060000
20
0.238000
0
VERTEX
8
0
10
-0.060000
20
0.398000
0
VERTEX
8
0
10
-0.140000
20
0.398000
0
VERTEX
8
0
10
-0.140000
20
0.238000
0
SEQEND
8
0
0
TEXT
8
12632256
10
-0.011000
20
0.343000
40
0.040000
41
1.000000
50
90.000000
1
C9
0
CIRCLE
8
12632256
10
-0.005000
20
-0.044000
40
0.045000
0
CIRCLE
8
12632256
10
-0.035000
20
-0.044000
40
0.005000
0
TEXT
8
12632256
10
0.045000
20
-0.084000
40
0.040000
41
1.000000
50
90.000000
1
U1
0
POLYLINE
8
0
66
1
40
0.008000
41
0.008000
0
VERTEX
8
0
10
0.060000
20
0.064000
0
VERTEX
8
0
10
0.140000
20
0.064000
0
VERTEX
8
0
10
0.140000
20
0.224000
0
VERTEX
8
0
10
0.060000
20
0.224000
0
VERTEX
8
0
10
0.060000
20
0.064000
0
SEQEND
8
0
0
TEXT
8
12632256
10
0.191000
20
0.074000
40
0.040000
41
1.000000
50
90.000000
1
R1
0
POLYLINE
8
0
66
1
40
0.008000
41
0.008000
0
VERTEX
8
0
10
0.060000
20
0.238000
0
VERTEX
8
0
10
0.140000
20
0.238000
0
VERTEX
8
0
10
0.140000
20
0.398000
0
VERTEX
8
0
10
0.060000
20
0.398000
0
VERTEX
8
0
10
0.060000
20
0.238000
0
SEQEND
8
0
0
TEXT
8
12632256
10
0.191000
20
0.318000
40
0.040000
41
1.000000
50
90.000000
1
R2
0
POLYLINE
8
0
66
1
40
0.008000
41
0.008000
0
VERTEX
8
0
10
1.183000
20
-0.559000
0
VERTEX
8
0
10
1.343000
20
-0.559000
0
VERTEX
8
0
10
1.343000
20
-0.479000
0
VERTEX
8
0
10
1.183000
20
-0.479000
0
VERTEX
8
0
10
1.183000
20
-0.559000
0
SEQEND
8
0
0
TEXT
8
12632256
10
1.223000
20
-0.613000
40
0.040000
41
1.000000
1
R5
0
POLYLINE
8
0
66
1
40
0.008000
41
0.008000
0
VERTEX
8
0
10
1.183000
20
-0.359000
0
VERTEX
8
0
10
1.343000
20
-0.359000
0
VERTEX
8
0
10
1.343000
20
-0.279000
0
VERTEX
8
0
10
1.183000
20
-0.279000
0
VERTEX
8
0
10
1.183000
20
-0.359000
0
SEQEND
8
0
0
TEXT
8
12632256
10
1.258000
20
-0.270000
40
0.040000
41
1.000000
1
R6
0
POLYLINE
8
0
66
1
40
0.008000
41
0.008000
0
VERTEX
8
0
10
1.183000
20
-0.459000
0
VERTEX
8
0
10
1.343000
20
-0.459000
0
VERTEX
8
0
10
1.343000
20
-0.379000
0
VERTEX
8
0
10
1.183000
20
-0.379000
0
VERTEX
8
0
10
1.183000
20
-0.459000
0
SEQEND
8
0
0
TEXT
8
12632256
10
1.098000
20
-0.440000
40
0.040000
41
1.000000
1
R7
0
POLYLINE
8
0
66
1
40
0.008000
41
0.008000
0
VERTEX
8
0
10
1.182000
20
-0.114000
0
VERTEX
8
0
10
1.342000
20
-0.114000
0
VERTEX
8
0
10
1.342000
20
-0.034000
0
VERTEX
8
0
10
1.182000
20
-0.034000
0
VERTEX
8
0
10
1.182000
20
-0.114000
0
SEQEND
8
0
0
TEXT
8
12632256
10
1.227000
20
-0.165000
40
0.040000
41
1.000000
1
R8
0
POLYLINE
8
0
66
1
40
0.008000
41
0.008000
0
VERTEX
8
0
10
1.185000
20
-0.011000
0
VERTEX
8
0
10
1.265000
20
-0.011000
0
VERTEX
8
0
10
1.265000
20
0.149000
0
VERTEX
8
0
10
1.185000
20
0.149000
0
VERTEX
8
0
10
1.185000
20
-0.011000
0
SEQEND
8
0
0
TEXT
8
12632256
10
1.244000
20
0.179000
40
0.040000
41
1.000000
50
90.000000
1
R9
0
POLYLINE
8
0
66
1
40
0.008000
41
0.008000
0
VERTEX
8
0
10
1.285000
20
-0.011000
0
VERTEX
8
0
10
1.365000
20
-0.011000
0
VERTEX
8
0
10
1.365000
20
0.149000
0
VERTEX
8
0
10
1.285000
20
0.149000
0
VERTEX
8
0
10
1.285000
20
-0.011000
0
SEQEND
8
0
0
TEXT
8
12632256
10
1.344000
20
0.184000
40
0.040000
41
1.000000
50
90.000000
1
R10
0
POLYLINE
8
0
66
1
40
0.008000
41
0.008000
0
VERTEX
8
0
10
0.695000
20
-0.374000
0
VERTEX
8
0
10
0.695000
20
-0.394000
0
VERTEX
8
0
10
1.075000
20
-0.394000
0
VERTEX
8
0
10
1.075000
20
-0.374000
0
SEQEND
8
0
0
POLYLINE
8
0
66
1
40
0.008000
41
0.008000
0
VERTEX
8
0
10
1.075000
20
-0.264000
0
VERTEX
8
0
10
1.075000
20
-0.174000
0
SEQEND
8
0
0
POLYLINE
8
0
66
1
40
0.008000
41
0.008000
0
VERTEX
8
0
10
1.075000
20
-0.064000
0
VERTEX
8
0
10
1.075000
20
0.026000
0
SEQEND
8
0
0
POLYLINE
8
0
66
1
40
0.008000
41
0.008000
0
VERTEX
8
0
10
1.075000
20
0.136000
0
VERTEX
8
0
10
1.075000
20
0.226000
0
SEQEND
8
0
0
POLYLINE
8
0
66
1
40
0.008000
41
0.008000
0
VERTEX
8
0
10
1.075000
20
0.336000
0
VERTEX
8
0
10
1.075000
20
0.356000
0
VERTEX
8
0
10
0.695000
20
0.356000
0
VERTEX
8
0
10
0.695000
20
0.336000
0
SEQEND
8
0
0
POLYLINE
8
0
66
1
40
0.008000
41
0.008000
0
VERTEX
8
0
10
0.695000
20
0.226000
0
VERTEX
8
0
10
0.695000
20
0.136000
0
SEQEND
8
0
0
POLYLINE
8
0
66
1
40
0.008000
41
0.008000
0
VERTEX
8
0
10
0.695000
20
0.026000
0
VERTEX
8
0
10
0.695000
20
-0.064000
0
SEQEND
8
0
0
POLYLINE
8
0
66
1
40
0.008000
41
0.008000
0
VERTEX
8
0
10
0.695000
20
-0.174000
0
VERTEX
8
0
10
0.695000
20
-0.264000
0
SEQEND
8
0
0
POLYLINE
8
0
66
1
40
0.008000
41
0.008000
0
VERTEX
8
0
10
1.085000
20
-0.374000
0
VERTEX
8
0
10
1.085000
20
-0.404000
0
VERTEX
8
0
10
1.055000
20
-0.404000
0
SEQEND
8
0
0
CIRCLE
8
12632256
10
0.950000
20
-0.319000
40
0.015000
0
TEXT
8
12632256
10
0.681000
20
-0.064000
40
0.040000
41
1.000000
50
90.000000
1
U2
0
POLYLINE
8
0
66
1
40
0.008000
41
0.008000
0
VERTEX
8
0
10
-0.743000
20
0.191000
0
VERTEX
8
0
10
-0.583000
20
0.191000
0
VERTEX
8
0
10
-0.583000
20
0.271000
0
VERTEX
8
0
10
-0.743000
20
0.271000
0
VERTEX
8
0
10
-0.743000
20
0.191000
0
SEQEND
8
0
0
TEXT
8
12632256
10
-0.868000
20
0.252000
40
0.040000
41
1.000000
1
C13
0
POLYLINE
8
0
66
1
40
0.008000
41
0.008000
0
VERTEX
8
0
10
-0.793000
20
-0.034000
0
VERTEX
8
0
10
-0.633000
20
-0.034000
0
VERTEX
8
0
10
-0.633000
20
0.046000
0
VERTEX
8
0
10
-0.793000
20
0.046000
0
VERTEX
8
0
10
-0.793000
20
-0.034000
0
SEQEND
8
0
0
TEXT
8
12632256
10
-0.818000
20
0.057000
40
0.040000
41
1.000000
1
C10
0
POLYLINE
8
0
66
1
40
0.008000
41
0.008000
0
VERTEX
8
0
10
-0.768000
20
-0.309000
0
VERTEX
8
0
10
-0.608000
20
-0.309000
0
VERTEX
8
0
10
-0.608000
20
-0.229000
0
VERTEX
8
0
10
-0.768000
20
-0.229000
0
VERTEX
8
0
10
-0.768000
20
-0.309000
0
SEQEND
8
0
0
TEXT
8
12632256
10
-0.808000
20
-0.358000
40
0.040000
41
1.000000
1
C11
0
POLYLINE
8
0
66
1
40
0.008000
41
0.008000
0
VERTEX
8
0
10
0.735000
20
-0.712000
0
VERTEX
8
0
10
0.815000
20
-0.712000
0
VERTEX
8
0
10
0.815000
20
-0.552000
0
VERTEX
8
0
10
0.735000
20
-0.552000
0
VERTEX
8
0
10
0.735000
20
-0.712000
0
SEQEND
8
0
0
TEXT
8
12632256
10
0.869000
20
-0.692000
40
0.040000
41
1.000000
50
90.000000
1
C27
0
POLYLINE
8
0
66
1
40
0.008000
41
0.008000
0
VERTEX
8
0
10
1.468000
20
-0.621000
0
VERTEX
8
0
10
1.468000
20
-0.589000
0
SEQEND
8
0
0
POLYLINE
8
0
66
1
40
0.008000
41
0.008000
0
VERTEX
8
0
10
1.468000
20
-0.539000
0
VERTEX
8
0
10
1.468000
20
-0.531000
0
SEQEND
8
0
0
POLYLINE
8
0
66
1
40
0.008000
41
0.008000
0
VERTEX
8
0
10
1.468000
20
-0.621000
0
VERTEX
8
0
10
1.708000
20
-0.621000
0
VERTEX
8
0
10
1.708000
20
-0.591000
0
SEQEND
8
0
0
POLYLINE
8
0
66
1
40
0.008000
41
0.008000
0
VERTEX
8
0
10
1.708000
20
-0.541000
0
VERTEX
8
0
10
1.708000
20
-0.531000
0
SEQEND
8
0
0
POLYLINE
8
0
66
1
40
0.008000
41
0.008000
0
VERTEX
8
0
10
1.708000
20
-0.471000
0
VERTEX
8
0
10
1.708000
20
-0.464000
0
SEQEND
8
0
0
POLYLINE
8
0
66
1
40
0.008000
41
0.008000
0
VERTEX
8
0
10
1.708000
20
-0.414000
0
VERTEX
8
0
10
1.708000
20
-0.369000
0
SEQEND
8
0
0
POLYLINE
8
0
66
1
40
0.008000
41
0.008000
0
VERTEX
8
0
10
1.708000
20
-0.319000
0
VERTEX
8
0
10
1.708000
20
-0.311000
0
SEQEND
8
0
0
POLYLINE
8
0
66
1
40
0.008000
41
0.008000
0
VERTEX
8
0
10
1.708000
20
-0.251000
0
VERTEX
8
0
10
1.708000
20
-0.244000
0
SEQEND
8
0
0
POLYLINE
8
0
66
1
40
0.008000
41
0.008000
0
VERTEX
8
0
10
1.708000
20
-0.194000
0
VERTEX
8
0
10
1.708000
20
-0.161000
0
VERTEX
8
0
10
1.468000
20
-0.161000
0
VERTEX
8
0
10
1.468000
20
-0.194000
0
SEQEND
8
0
0
POLYLINE
8
0
66
1
40
0.008000
41
0.008000
0
VERTEX
8
0
10
1.468000
20
-0.244000
0
VERTEX
8
0
10
1.468000
20
-0.251000
0
SEQEND
8
0
0
POLYLINE
8
0
66
1
40
0.008000
41
0.008000
0
VERTEX
8
0
10
1.468000
20
-0.311000
0
VERTEX
8
0
10
1.468000
20
-0.319000
0
SEQEND
8
0
0
POLYLINE
8
0
66
1
40
0.008000
41
0.008000
0
VERTEX
8
0
10
1.468000
20
-0.369000
0
VERTEX
8
0
10
1.468000
20
-0.414000
0
SEQEND
8
0
0
POLYLINE
8
0
66
1
40
0.008000
41
0.008000
0
VERTEX
8
0
10
1.468000
20
-0.464000
0
VERTEX
8
0
10
1.468000
20
-0.471000
0
SEQEND
8
0
0
POLYLINE
8
0
66
1
40
0.008000
41
0.008000
0
VERTEX
8
0
10
1.458000
20
-0.591000
0
VERTEX
8
0
10
1.458000
20
-0.631000
0
VERTEX
8
0
10
1.498000
20
-0.631000
0
SEQEND
8
0
0
CIRCLE
8
12632256
10
1.513000
20
-0.581000
40
0.010000
0
TEXT
8
12632256
10
1.527000
20
-0.675000
40
0.040000
41
1.000000
1
L12
0
POLYLINE
8
0
66
1
40
0.008000
41
0.008000
0
VERTEX
8
0
10
1.285000
20
-0.912000
0
VERTEX
8
0
10
1.365000
20
-0.912000
0
VERTEX
8
0
10
1.365000
20
-0.752000
0
VERTEX
8
0
10
1.285000
20
-0.752000
0
VERTEX
8
0
10
1.285000
20
-0.912000
0
SEQEND
8
0
0
TEXT
8
12632256
10
1.416000
20
-0.877000
40
0.040000
41
1.000000
50
90.000000
1
C28
0
CIRCLE
8
12632256
10
1.020000
20
-0.594000
40
0.045000
0
CIRCLE
8
12632256
10
0.990000
20
-0.594000
40
0.005000
0
TEXT
8
12632256
10
0.950000
20
-0.564000
40
0.040000
41
1.000000
50
90.000000
1
U3
0
POLYLINE
8
0
66
1
40
0.008000
41
0.008000
0
VERTEX
8
0
10
0.218000
20
-0.537000
0
VERTEX
8
0
10
0.250000
20
-0.537000
0
SEQEND
8
0
0
POLYLINE
8
0
66
1
40
0.008000
41
0.008000
0
VERTEX
8
0
10
0.300000
20
-0.537000
0
VERTEX
8
0
10
0.308000
20
-0.537000
0
SEQEND
8
0
0
POLYLINE
8
0
66
1
40
0.008000
41
0.008000
0
VERTEX
8
0
10
0.218000
20
-0.537000
0
VERTEX
8
0
10
0.218000
20
-0.777000
0
VERTEX
8
0
10
0.248000
20
-0.777000
0
SEQEND
8
0
0
POLYLINE
8
0
66
1
40
0.008000
41
0.008000
0
VERTEX
8
0
10
0.298000
20
-0.777000
0
VERTEX
8
0
10
0.308000
20
-0.777000
0
SEQEND
8
0
0
POLYLINE
8
0
66
1
40
0.008000
41
0.008000
0
VERTEX
8
0
10
0.368000
20
-0.777000
0
VERTEX
8
0
10
0.375000
20
-0.777000
0
SEQEND
8
0
0
POLYLINE
8
0
66
1
40
0.008000
41
0.008000
0
VERTEX
8
0
10
0.425000
20
-0.777000
0
VERTEX
8
0
10
0.470000
20
-0.777000
0
SEQEND
8
0
0
POLYLINE
8
0
66
1
40
0.008000
41
0.008000
0
VERTEX
8
0
10
0.520000
20
-0.777000
0
VERTEX
8
0
10
0.528000
20
-0.777000
0
SEQEND
8
0
0
POLYLINE
8
0
66
1
40
0.008000
41
0.008000
0
VERTEX
8
0
10
0.588000
20
-0.777000
0
VERTEX
8
0
10
0.595000
20
-0.777000
0
SEQEND
8
0
0
POLYLINE
8
0
66
1
40
0.008000
41
0.008000
0
VERTEX
8
0
10
0.645000
20
-0.777000
0
VERTEX
8
0
10
0.678000
20
-0.777000
0
VERTEX
8
0
10
0.678000
20
-0.537000
0
VERTEX
8
0
10
0.645000
20
-0.537000
0
SEQEND
8
0
0
POLYLINE
8
0
66
1
40
0.008000
41
0.008000
0
VERTEX
8
0
10
0.595000
20
-0.537000
0
VERTEX
8
0
10
0.588000
20
-0.537000
0
SEQEND
8
0
0
POLYLINE
8
0
66
1
40
0.008000
41
0.008000
0
VERTEX
8
0
10
0.528000
20
-0.537000
0
VERTEX
8
0
10
0.520000
20
-0.537000
0
SEQEND
8
0
0
POLYLINE
8
0
66
1
40
0.008000
41
0.008000
0
VERTEX
8
0
10
0.470000
20
-0.537000
0
VERTEX
8
0
10
0.425000
20
-0.537000
0
SEQEND
8
0
0
POLYLINE
8
0
66
1
40
0.008000
41
0.008000
0
VERTEX
8
0
10
0.375000
20
-0.537000
0
VERTEX
8
0
10
0.368000
20
-0.537000
0
SEQEND
8
0
0
POLYLINE
8
0
66
1
40
0.008000
41
0.008000
0
VERTEX
8
0
10
0.248000
20
-0.527000
0
VERTEX
8
0
10
0.208000
20
-0.527000
0
VERTEX
8
0
10
0.208000
20
-0.567000
0
SEQEND
8
0
0
CIRCLE
8
12632256
10
0.258000
20
-0.582000
40
0.010000
0
TEXT
8
12632256
10
0.729000
20
-0.776000
40
0.040000
41
1.000000
50
90.000000
1
L11
0
POLYLINE
8
0
66
1
40
0.008000
41
0.008000
0
VERTEX
8
0
10
0.008000
20
-0.559000
0
VERTEX
8
0
10
0.168000
20
-0.559000
0
VERTEX
8
0
10
0.168000
20
-0.479000
0
VERTEX
8
0
10
0.008000
20
-0.479000
0
VERTEX
8
0
10
0.008000
20
-0.559000
0
SEQEND
8
0
0
TEXT
8
12632256
10
0.063000
20
-0.473000
40
0.040000
41
1.000000
1
C26
0
POLYLINE
8
0
66
1
40
0.008000
41
0.008000
0
VERTEX
8
0
10
0.007000
20
-0.909000
0
VERTEX
8
0
10
0.167000
20
-0.909000
0
VERTEX
8
0
10
0.167000
20
-0.749000
0
VERTEX
8
0
10
0.007000
20
-0.749000
0
VERTEX
8
0
10
0.007000
20
-0.909000
0
SEQEND
8
0
0
TEXT
8
12632256
10
0.047000
20
-0.960000
40
0.040000
41
1.000000
1
Q2
0
POLYLINE
8
0
66
1
40
0.008000
41
0.008000
0
VERTEX
8
0
10
-0.090000
20
-0.561000
0
VERTEX
8
0
10
-0.010000
20
-0.561000
0
VERTEX
8
0
10
-0.010000
20
-0.401000
0
VERTEX
8
0
10
-0.090000
20
-0.401000
0
VERTEX
8
0
10
-0.090000
20
-0.561000
0
SEQEND
8
0
0
TEXT
8
12632256
10
-0.049000
20
-0.386000
40
0.040000
41
1.000000
50
90.000000
1
L14
0
POLYLINE
8
0
66
1
40
0.008000
41
0.008000
0
VERTEX
8
0
10
-0.268000
20
-0.484000
0
VERTEX
8
0
10
-0.108000
20
-0.484000
0
VERTEX
8
0
10
-0.108000
20
-0.404000
0
VERTEX
8
0
10
-0.268000
20
-0.404000
0
VERTEX
8
0
10
-0.268000
20
-0.484000
0
SEQEND
8
0
0
TEXT
8
12632256
10
-0.233000
20
-0.388000
40
0.040000
41
1.000000
1
R17
0
POLYLINE
8
0
66
1
40
0.008000
41
0.008000
0
VERTEX
8
0
10
-0.390000
20
-0.486000
0
VERTEX
8
0
10
-0.310000
20
-0.486000
0
VERTEX
8
0
10
-0.310000
20
-0.326000
0
VERTEX
8
0
10
-0.390000
20
-0.326000
0
VERTEX
8
0
10
-0.390000
20
-0.486000
0
SEQEND
8
0
0
TEXT
8
12632256
10
-0.319000
20
-0.316000
40
0.040000
41
1.000000
50
90.000000
1
C30
0
POLYLINE
8
0
66
1
40
0.008000
41
0.008000
0
VERTEX
8
0
10
0.085000
20
-0.412000
0
VERTEX
8
0
10
0.165000
20
-0.412000
0
VERTEX
8
0
10
0.165000
20
-0.252000
0
VERTEX
8
0
10
0.085000
20
-0.252000
0
VERTEX
8
0
10
0.085000
20
-0.412000
0
SEQEND
8
0
0
TEXT
8
12632256
10
0.081000
20
-0.417000
40
0.040000
41
1.000000
50
90.000000
1
C29
0
POLYLINE
8
0
66
1
40
0.008000
41
0.008000
0
VERTEX
8
0
10
0.185000
20
-0.412000
0
VERTEX
8
0
10
0.265000
20
-0.412000
0
VERTEX
8
0
10
0.265000
20
-0.252000
0
VERTEX
8
0
10
0.185000
20
-0.252000
0
VERTEX
8
0
10
0.185000
20
-0.412000
0
SEQEND
8
0
0
TEXT
8
12632256
10
0.311000
20
-0.422000
40
0.040000
41
1.000000
50
90.000000
1
C31
0
POLYLINE
8
0
66
1
40
0.008000
41
0.008000
0
VERTEX
8
0
10
-0.090000
20
-0.936000
0
VERTEX
8
0
10
-0.010000
20
-0.936000
0
VERTEX
8
0
10
-0.010000
20
-0.776000
0
VERTEX
8
0
10
-0.090000
20
-0.776000
0
VERTEX
8
0
10
-0.090000
20
-0.936000
0
SEQEND
8
0
0
TEXT
8
12632256
10
-0.094000
20
-0.896000
40
0.040000
41
1.000000
50
90.000000
1
R16
0
POLYLINE
8
0
66
1
40
0.008000
41
0.008000
0
VERTEX
8
0
10
-0.168000
20
-0.734000
0
VERTEX
8
0
10
-0.008000
20
-0.734000
0
VERTEX
8
0
10
-0.008000
20
-0.654000
0
VERTEX
8
0
10
-0.168000
20
-0.654000
0
VERTEX
8
0
10
-0.168000
20
-0.734000
0
SEQEND
8
0
0
TEXT
8
12632256
10
-0.148000
20
-0.638000
40
0.040000
41
1.000000
1
C23
0
POLYLINE
8
0
66
1
40
0.008000
41
0.008000
0
VERTEX
8
0
10
-0.240000
20
-0.936000
0
VERTEX
8
0
10
-0.160000
20
-0.936000
0
VERTEX
8
0
10
-0.160000
20
-0.776000
0
VERTEX
8
0
10
-0.240000
20
-0.776000
0
VERTEX
8
0
10
-0.240000
20
-0.936000
0
SEQEND
8
0
0
TEXT
8
12632256
10
-0.244000
20
-0.996000
40
0.040000
41
1.000000
1
L15
0
POLYLINE
8
0
66
1
40
0.008000
41
0.008000
0
VERTEX
8
0
10
-0.340000
20
-0.936000
0
VERTEX
8
0
10
-0.260000
20
-0.936000
0
VERTEX
8
0
10
-0.260000
20
-0.776000
0
VERTEX
8
0
10
-0.340000
20
-0.776000
0
VERTEX
8
0
10
-0.340000
20
-0.936000
0
SEQEND
8
0
0
TEXT
8
12632256
10
-0.376000
20
-0.986000
40
0.040000
41
1.000000
1
C24
0
POLYLINE
8
0
66
1
40
0.008000
41
0.008000
0
VERTEX
8
0
10
-0.393000
20
-0.759000
0
VERTEX
8
0
10
-0.233000
20
-0.759000
0
VERTEX
8
0
10
-0.233000
20
-0.679000
0
VERTEX
8
0
10
-0.393000
20
-0.679000
0
VERTEX
8
0
10
-0.393000
20
-0.759000
0
SEQEND
8
0
0
TEXT
8
12632256
10
-0.373000
20
-0.663000
40
0.040000
41
1.000000
1
C22
0
POLYLINE
8
0
66
1
40
0.008000
41
0.008000
0
VERTEX
8
0
10
-0.565000
20
-0.936000
0
VERTEX
8
0
10
-0.485000
20
-0.936000
0
VERTEX
8
0
10
-0.485000
20
-0.776000
0
VERTEX
8
0
10
-0.565000
20
-0.776000
0
VERTEX
8
0
10
-0.565000
20
-0.936000
0
SEQEND
8
0
0
TEXT
8
12632256
10
-0.581000
20
-0.766000
40
0.040000
41
1.000000
1
C20
0
POLYLINE
8
0
66
1
40
0.008000
41
0.008000
0
VERTEX
8
0
10
-0.465000
20
-0.936000
0
VERTEX
8
0
10
-0.385000
20
-0.936000
0
VERTEX
8
0
10
-0.385000
20
-0.776000
0
VERTEX
8
0
10
-0.465000
20
-0.776000
0
VERTEX
8
0
10
-0.465000
20
-0.936000
0
SEQEND
8
0
0
TEXT
8
12632256
10
-0.504000
20
-0.986000
40
0.040000
41
1.000000
1
L13
0
POLYLINE
8
0
66
1
40
0.008000
41
0.008000
0
VERTEX
8
0
10
-0.568000
20
-0.659000
0
VERTEX
8
0
10
-0.408000
20
-0.659000
0
VERTEX
8
0
10
-0.408000
20
-0.579000
0
VERTEX
8
0
10
-0.568000
20
-0.579000
0
VERTEX
8
0
10
-0.568000
20
-0.659000
0
SEQEND
8
0
0
TEXT
8
12632256
10
-0.403000
20
-0.618000
40
0.040000
41
1.000000
1
C21
0
POLYLINE
8
0
66
1
40
0.008000
41
0.008000
0
VERTEX
8
0
10
-0.790000
20
-0.661000
0
VERTEX
8
0
10
-0.710000
20
-0.661000
0
VERTEX
8
0
10
-0.710000
20
-0.501000
0
VERTEX
8
0
10
-0.790000
20
-0.501000
0
VERTEX
8
0
10
-0.790000
20
-0.661000
0
SEQEND
8
0
0
TEXT
8
12632256
10
-0.796000
20
-0.681000
40
0.040000
41
1.000000
50
90.000000
1
C18
0
POLYLINE
8
0
66
1
40
0.008000
41
0.008000
0
VERTEX
8
0
10
-0.690000
20
-0.661000
0
VERTEX
8
0
10
-0.610000
20
-0.661000
0
VERTEX
8
0
10
-0.610000
20
-0.501000
0
VERTEX
8
0
10
-0.690000
20
-0.501000
0
VERTEX
8
0
10
-0.690000
20
-0.661000
0
SEQEND
8
0
0
TEXT
8
12632256
10
-0.569000
20
-0.616000
40
0.040000
41
1.000000
50
90.000000
1
L10
0
POLYLINE
8
0
66
1
40
0.008000
41
0.008000
0
VERTEX
8
0
10
-0.868000
20
-0.859000
0
VERTEX
8
0
10
-0.708000
20
-0.859000
0
VERTEX
8
0
10
-0.708000
20
-0.699000
0
VERTEX
8
0
10
-0.868000
20
-0.699000
0
VERTEX
8
0
10
-0.868000
20
-0.859000
0
SEQEND
8
0
0
TEXT
8
12632256
10
-0.948000
20
-0.775000
40
0.040000
41
1.000000
1
Q1
0
POLYLINE
8
0
66
1
40
0.008000
41
0.008000
0
VERTEX
8
0
10
-0.690000
20
-0.936000
0
VERTEX
8
0
10
-0.610000
20
-0.936000
0
VERTEX
8
0
10
-0.610000
20
-0.776000
0
VERTEX
8
0
10
-0.690000
20
-0.776000
0
VERTEX
8
0
10
-0.690000
20
-0.936000
0
SEQEND
8
0
0
TEXT
8
12632256
10
-0.699000
20
-0.986000
40
0.040000
41
1.000000
1
R14
0
POLYLINE
8
0
66
1
40
0.008000
41
0.008000
0
VERTEX
8
0
10
-0.965000
20
-0.961000
0
VERTEX
8
0
10
-0.885000
20
-0.961000
0
VERTEX
8
0
10
-0.885000
20
-0.801000
0
VERTEX
8
0
10
-0.965000
20
-0.801000
0
VERTEX
8
0
10
-0.965000
20
-0.961000
0
SEQEND
8
0
0
TEXT
8
12632256
10
-0.986000
20
-1.011000
40
0.040000
41
1.000000
1
C15
0
POLYLINE
8
0
66
1
40
0.008000
41
0.008000
0
VERTEX
8
0
10
-0.868000
20
-0.959000
0
VERTEX
8
0
10
-0.708000
20
-0.959000
0
VERTEX
8
0
10
-0.708000
20
-0.879000
0
VERTEX
8
0
10
-0.868000
20
-0.879000
0
VERTEX
8
0
10
-0.868000
20
-0.959000
0
SEQEND
8
0
0
TEXT
8
12632256
10
-0.853000
20
-1.010000
40
0.040000
41
1.000000
1
C16
0
POLYLINE
8
0
66
1
40
0.008000
41
0.008000
0
VERTEX
8
0
10
-1.065000
20
-0.962000
0
VERTEX
8
0
10
-0.985000
20
-0.962000
0
VERTEX
8
0
10
-0.985000
20
-0.802000
0
VERTEX
8
0
10
-1.065000
20
-0.802000
0
VERTEX
8
0
10
-1.065000
20
-0.962000
0
SEQEND
8
0
0
TEXT
8
12632256
10
-1.159000
20
-1.007000
40
0.040000
41
1.000000
1
R13
0
POLYLINE
8
0
66
1
40
0.008000
41
0.008000
0
VERTEX
8
0
10
-1.065000
20
-0.786000
0
VERTEX
8
0
10
-0.985000
20
-0.786000
0
VERTEX
8
0
10
-0.985000
20
-0.626000
0
VERTEX
8
0
10
-1.065000
20
-0.626000
0
VERTEX
8
0
10
-1.065000
20
-0.786000
0
SEQEND
8
0
0
TEXT
8
12632256
10
-0.939000
20
-0.726000
40
0.040000
41
1.000000
50
90.000000
1
R12
0
POLYLINE
8
0
66
1
40
0.008000
41
0.008000
0
VERTEX
8
0
10
-1.267000
20
-0.934000
0
VERTEX
8
0
10
-1.107000
20
-0.934000
0
VERTEX
8
0
10
-1.107000
20
-0.854000
0
VERTEX
8
0
10
-1.267000
20
-0.854000
0
VERTEX
8
0
10
-1.267000
20
-0.934000
0
SEQEND
8
0
0
TEXT
8
12632256
10
-1.392000
20
-0.913000
40
0.040000
41
1.000000
1
C14
0
POLYLINE
8
0
66
1
40
0.008000
41
0.008000
0
VERTEX
8
0
10
-1.240000
20
-0.836000
0
VERTEX
8
0
10
-1.160000
20
-0.836000
0
VERTEX
8
0
10
-1.160000
20
-0.676000
0
VERTEX
8
0
10
-1.240000
20
-0.676000
0
VERTEX
8
0
10
-1.240000
20
-0.836000
0
SEQEND
8
0
0
TEXT
8
12632256
10
-1.106000
20
-0.796000
40
0.040000
41
1.000000
50
90.000000
1
L9
0
POLYLINE
8
0
66
1
40
0.008000
41
0.008000
0
VERTEX
8
0
10
-1.300000
20
-0.724000
0
VERTEX
8
0
10
-1.275000
20
-0.724000
0
VERTEX
8
0
10
-1.275000
20
-0.224000
0
VERTEX
8
0
10
-1.300000
20
-0.224000
0
VERTEX
8
0
10
-1.300000
20
-0.724000
0
SEQEND
8
0
0
POLYLINE
8
0
66
1
40
0.008000
41
0.008000
0
VERTEX
8
0
10
-1.215000
20
-0.574000
0
VERTEX
8
0
10
-1.275000
20
-0.574000
0
SEQEND
8
0
0
POLYLINE
8
0
66
1
40
0.008000
41
0.008000
0
VERTEX
8
0
10
-1.215000
20
-0.394000
0
VERTEX
8
0
10
-1.275000
20
-0.394000
0
SEQEND
8
0
0
POLYLINE
8
0
66
1
40
0.008000
41
0.008000
0
VERTEX
8
0
10
-1.775000
20
-0.699000
0
VERTEX
8
0
10
-1.775000
20
-0.564000
0
SEQEND
8
0
0
POLYLINE
8
0
66
1
40
0.008000
41
0.008000
0
VERTEX
8
0
10
-1.775000
20
-0.384000
0
VERTEX
8
0
10
-1.775000
20
-0.249000
0
SEQEND
8
0
0
POLYLINE
8
0
66
1
40
0.008000
41
0.008000
0
VERTEX
8
0
10
-1.775000
20
-0.699000
0
VERTEX
8
0
10
-1.300000
20
-0.699000
0
SEQEND
8
0
0
POLYLINE
8
0
66
1
40
0.008000
41
0.008000
0
VERTEX
8
0
10
-1.775000
20
-0.249000
0
VERTEX
8
0
10
-1.300000
20
-0.249000
0
SEQEND
8
0
0
TEXT
8
12632256
10
-1.477000
20
-0.753000
40
0.040000
41
1.000000
1
X1
0
POLYLINE
8
0
66
1
40
0.008000
41
0.008000
0
VERTEX
8
0
10
-1.115000
20
-0.611000
0
VERTEX
8
0
10
-1.035000
20
-0.611000
0
VERTEX
8
0
10
-1.035000
20
-0.451000
0
VERTEX
8
0
10
-1.115000
20
-0.451000
0
VERTEX
8
0
10
-1.115000
20
-0.611000
0
SEQEND
8
0
0
TEXT
8
12632256
10
-1.126000
20
-0.546000
40
0.040000
41
1.000000
50
90.000000
1
R11
0
POLYLINE
8
0
66
1
40
0.008000
41
0.008000
0
VERTEX
8
0
10
-0.993000
20
-0.559000
0
VERTEX
8
0
10
-0.833000
20
-0.559000
0
VERTEX
8
0
10
-0.833000
20
-0.479000
0
VERTEX
8
0
10
-0.993000
20
-0.479000
0
VERTEX
8
0
10
-0.993000
20
-0.559000
0
SEQEND
8
0
0
TEXT
8
12632256
10
-1.008000
20
-0.470000
40
0.040000
41
1.000000
1
C17
0
POLYLINE
8
0
66
1
40
0.008000
41
0.008000
0
VERTEX
8
0
10
-0.692000
20
-0.484000
0
VERTEX
8
0
10
-0.532000
20
-0.484000
0
VERTEX
8
0
10
-0.532000
20
-0.404000
0
VERTEX
8
0
10
-0.692000
20
-0.404000
0
VERTEX
8
0
10
-0.692000
20
-0.484000
0
SEQEND
8
0
0
TEXT
8
12632256
10
-0.817000
20
-0.455000
40
0.040000
41
1.000000
1
R15
0
POLYLINE
8
0
66
1
40
0.008000
41
0.008000
0
VERTEX
8
0
10
-0.490000
20
-0.486000
0
VERTEX
8
0
10
-0.410000
20
-0.486000
0
VERTEX
8
0
10
-0.410000
20
-0.326000
0
VERTEX
8
0
10
-0.490000
20
-0.326000
0
VERTEX
8
0
10
-0.490000
20
-0.486000
0
SEQEND
8
0
0
TEXT
8
12632256
10
-0.499000
20
-0.376000
40
0.040000
41
1.000000
50
90.000000
1
C19
0
POLYLINE
8
0
66
1
40
0.008000
41
0.008000
0
VERTEX
8
0
10
1.135000
20
-0.911000
0
VERTEX
8
0
10
1.215000
20
-0.911000
0
VERTEX
8
0
10
1.215000
20
-0.751000
0
VERTEX
8
0
10
1.135000
20
-0.751000
0
VERTEX
8
0
10
1.135000
20
-0.911000
0
SEQEND
8
0
0
TEXT
8
12632256
10
1.214000
20
-0.741000
40
0.040000
41
1.000000
50
90.000000
1
R18
0
POLYLINE
8
0
66
1
40
0.008000
41
0.008000
0
VERTEX
8
0
10
0.960000
20
-0.912000
0
VERTEX
8
0
10
1.040000
20
-0.912000
0
VERTEX
8
0
10
1.040000
20
-0.752000
0
VERTEX
8
0
10
0.960000
20
-0.752000
0
VERTEX
8
0
10
0.960000
20
-0.912000
0
SEQEND
8
0
0
TEXT
8
12632256
10
1.019000
20
-0.972000
40
0.040000
41
1.000000
1
C32
0
POLYLINE
8
0
66
1
40
0.008000
41
0.008000
0
VERTEX
8
0
10
0.860000
20
-0.912000
0
VERTEX
8
0
10
0.940000
20
-0.912000
0
VERTEX
8
0
10
0.940000
20
-0.752000
0
VERTEX
8
0
10
0.860000
20
-0.752000
0
VERTEX
8
0
10
0.860000
20
-0.912000
0
SEQEND
8
0
0
TEXT
8
12632256
10
0.849000
20
-0.987000
40
0.040000
41
1.000000
1
C33
0
POLYLINE
8
0
66
1
40
0.008000
41
0.008000
0
VERTEX
8
0
10
0.760000
20
-0.912000
0
VERTEX
8
0
10
0.840000
20
-0.912000
0
VERTEX
8
0
10
0.840000
20
-0.752000
0
VERTEX
8
0
10
0.760000
20
-0.752000
0
VERTEX
8
0
10
0.760000
20
-0.912000
0
SEQEND
8
0
0
TEXT
8
12632256
10
0.729000
20
-0.962000
40
0.040000
41
1.000000
1
C34
0
POLYLINE
8
0
66
1
40
0.008000
41
0.008000
0
VERTEX
8
0
10
-1.295000
20
0.276000
0
VERTEX
8
0
10
-1.055000
20
0.276000
0
VERTEX
8
0
10
-1.055000
20
0.596000
0
VERTEX
8
0
10
-1.295000
20
0.596000
0
VERTEX
8
0
10
-1.295000
20
0.276000
0
SEQEND
8
0
0
POLYLINE
8
0
66
1
40
0.008000
41
0.008000
0
VERTEX
8
0
10
-1.260000
20
0.436000
0
VERTEX
8
0
10
-1.262000
20
0.446000
0
VERTEX
8
0
10
-1.267000
20
0.454000
0
VERTEX
8
0
10
-1.275000
20
0.459000
0
VERTEX
8
0
10
-1.285000
20
0.461000
0
SEQEND
8
0
0
POLYLINE
8
0
66
1
40
0.008000
41
0.008000
0
VERTEX
8
0
10
-1.260000
20
0.436000
0
VERTEX
8
0
10
-1.260000
20
0.430000
0
VERTEX
8
0
10
-1.262000
20
0.426000
0
VERTEX
8
0
10
-1.267000
20
0.418000
0
VERTEX
8
0
10
-1.275000
20
0.413000
0
VERTEX
8
0
10
-1.285000
20
0.411000
0
SEQEND
8
0
0
POLYLINE
8
0
66
1
40
0.008000
41
0.008000
0
VERTEX
8
0
10
-1.285000
20
0.386000
0
VERTEX
8
0
10
-1.065000
20
0.386000
0
VERTEX
8
0
10
-1.065000
20
0.486000
0
VERTEX
8
0
10
-1.285000
20
0.486000
0
VERTEX
8
0
10
-1.285000
20
0.386000
0
SEQEND
8
0
0
POLYLINE
8
0
66
1
40
0.008000
41
0.008000
0
VERTEX
8
0
10
-1.260000
20
0.266000
0
VERTEX
8
0
10
-1.240000
20
0.266000
0
VERTEX
8
0
10
-1.240000
20
0.281000
0
VERTEX
8
0
10
-1.260000
20
0.281000
0
VERTEX
8
0
10
-1.260000
20
0.266000
0
SEQEND
8
0
0
POLYLINE
8
0
66
1
40
0.008000
41
0.008000
0
VERTEX
8
0
10
-1.260000
20
0.271000
0
VERTEX
8
0
10
-1.240000
20
0.271000
0
SEQEND
8
0
0
TEXT
8
12632256
10
-1.259000
20
0.191000
40
0.040000
41
1.000000
50
90.000000
1
U4
0
POLYLINE
8
0
66
1
40
0.008000
41
0.008000
0
VERTEX
8
0
10
0.008000
20
-0.709000
0
VERTEX
8
0
10
0.168000
20
-0.709000
0
VERTEX
8
0
10
0.168000
20
-0.629000
0
VERTEX
8
0
10
0.008000
20
-0.629000
0
VERTEX
8
0
10
0.008000
20
-0.709000
0
SEQEND
8
0
0
TEXT
8
12632256
10
0.053000
20
-0.620000
40
0.040000
41
1.000000
1
C25
0
POLYLINE
8
0
66
1
40
0.008000
41
0.008000
0
VERTEX
8
0
10
-1.480000
20
0.096000
0
VERTEX
8
0
10
-1.480000
20
0.076000
0
SEQEND
8
0
0
POLYLINE
8
0
66
1
40
0.008000
41
0.008000
0
VERTEX
8
0
10
-1.490000
20
0.086000
0
VERTEX
8
0
10
-1.470000
20
0.086000
0
SEQEND
8
0
0
POLYLINE
8
0
66
1
40
0.008000
41
0.008000
0
VERTEX
8
0
10
-1.740000
20
-0.184000
0
VERTEX
8
0
10
-1.630000
20
-0.184000
0
SEQEND
8
0
0
POLYLINE
8
0
66
1
40
0.008000
41
0.008000
0
VERTEX
8
0
10
-1.570000
20
-0.184000
0
VERTEX
8
0
10
-1.460000
20
-0.184000
0
VERTEX
8
0
10
-1.460000
20
0.036000
0
VERTEX
8
0
10
-1.520000
20
0.096000
0
VERTEX
8
0
10
-1.570000
20
0.096000
0
SEQEND
8
0
0
POLYLINE
8
0
66
1
40
0.008000
41
0.008000
0
VERTEX
8
0
10
-1.630000
20
0.096000
0
VERTEX
8
0
10
-1.680000
20
0.096000
0
VERTEX
8
0
10
-1.740000
20
0.036000
0
VERTEX
8
0
10
-1.740000
20
-0.184000
0
SEQEND
8
0
0
TEXT
8
12632256
10
-1.450000
20
-0.110000
40
0.040000
41
1.000000
1
C35
0
POLYLINE
8
0
66
1
40
0.008000
41
0.008000
0
VERTEX
8
0
10
-1.115000
20
-0.149000
0
VERTEX
8
0
10
-1.095000
20
-0.149000
0
SEQEND
8
0
0
POLYLINE
8
0
66
1
40
0.008000
41
0.008000
0
VERTEX
8
0
10
-1.105000
20
-0.159000
0
VERTEX
8
0
10
-1.105000
20
-0.139000
0
SEQEND
8
0
0
POLYLINE
8
0
66
1
40
0.008000
41
0.008000
0
VERTEX
8
0
10
-0.835000
20
-0.409000
0
VERTEX
8
0
10
-0.835000
20
-0.299000
0
SEQEND
8
0
0
POLYLINE
8
0
66
1
40
0.008000
41
0.008000
0
VERTEX
8
0
10
-0.835000
20
-0.239000
0
VERTEX
8
0
10
-0.835000
20
-0.129000
0
VERTEX
8
0
10
-1.055000
20
-0.129000
0
VERTEX
8
0
10
-1.115000
20
-0.189000
0
VERTEX
8
0
10
-1.115000
20
-0.239000
0
SEQEND
8
0
0
POLYLINE
8
0
66
1
40
0.008000
41
0.008000
0
VERTEX
8
0
10
-1.115000
20
-0.299000
0
VERTEX
8
0
10
-1.115000
20
-0.349000
0
VERTEX
8
0
10
-1.055000
20
-0.409000
0
VERTEX
8
0
10
-0.835000
20
-0.409000
0
SEQEND
8
0
0
TEXT
8
12632256
10
-1.154000
20
-0.329000
40
0.040000
41
1.000000
50
90.000000
1
C36
0
POLYLINE
8
0
66
1
40
0.008000
41
0.008000
0
VERTEX
8
0
10
-1.415000
20
0.214000
0
VERTEX
8
0
10
-1.335000
20
0.214000
0
VERTEX
8
0
10
-1.335000
20
0.374000
0
VERTEX
8
0
10
-1.415000
20
0.374000
0
VERTEX
8
0
10
-1.415000
20
0.214000
0
SEQEND
8
0
0
TEXT
8
12632256
10
-1.429000
20
0.234000
40
0.040000
41
1.000000
50
90.000000
1
C37
0
POLYLINE
8
0
66
1
40
0.008000
41
0.008000
0
VERTEX
8
0
10
-1.415000
20
0.414000
0
VERTEX
8
0
10
-1.335000
20
0.414000
0
VERTEX
8
0
10
-1.335000
20
0.574000
0
VERTEX
8
0
10
-1.415000
20
0.574000
0
VERTEX
8
0
10
-1.415000
20
0.414000
0
SEQEND
8
0
0
TEXT
8
12632256
10
-1.431000
20
0.434000
40
0.040000
41
1.000000
50
90.000000
1
C38
0
POLYLINE
8
0
66
1
40
0.008000
41
0.008000
0
VERTEX
8
0
10
-1.705000
20
0.256000
0
VERTEX
8
0
10
-1.705000
20
0.191000
0
SEQEND
8
0
0
POLYLINE
8
0
66
1
40
0.008000
41
0.008000
0
VERTEX
8
0
10
-1.495000
20
0.191000
0
VERTEX
8
0
10
-1.495000
20
0.256000
0
SEQEND
8
0
0
POLYLINE
8
0
66
1
40
0.008000
41
0.008000
0
VERTEX
8
0
10
-1.700000
20
0.201000
0
VERTEX
8
0
10
-1.500000
20
0.201000
0
VERTEX
8
0
10
-1.500000
20
0.551000
0
VERTEX
8
0
10
-1.700000
20
0.551000
0
VERTEX
8
0
10
-1.700000
20
0.201000
0
SEQEND
8
0
0
POLYLINE
8
0
66
1
40
0.008000
41
0.008000
0
VERTEX
8
0
10
-1.705000
20
0.191000
0
VERTEX
8
0
10
-1.495000
20
0.191000
0
SEQEND
8
0
0
POLYLINE
8
0
66
1
40
0.008000
41
0.008000
0
VERTEX
8
0
10
-1.495000
20
0.196000
0
VERTEX
8
0
10
-1.705000
20
0.196000
0
SEQEND
8
0
0
TEXT
8
12632256
10
-1.649000
20
0.576000
40
0.040000
41
1.000000
1
C39
0
POLYLINE
8
0
66
1
40
0.008000
41
0.008000
0
VERTEX
8
0
10
-1.225000
20
0.086000
0
VERTEX
8
0
10
-1.290000
20
0.086000
0
SEQEND
8
0
0
POLYLINE
8
0
66
1
40
0.008000
41
0.008000
0
VERTEX
8
0
10
-1.290000
20
-0.124000
0
VERTEX
8
0
10
-1.225000
20
-0.124000
0
SEQEND
8
0
0
POLYLINE
8
0
66
1
40
0.008000
41
0.008000
0
VERTEX
8
0
10
-1.280000
20
-0.119000
0
VERTEX
8
0
10
-0.930000
20
-0.119000
0
VERTEX
8
0
10
-0.930000
20
0.081000
0
VERTEX
8
0
10
-1.280000
20
0.081000
0
VERTEX
8
0
10
-1.280000
20
-0.119000
0
SEQEND
8
0
0
POLYLINE
8
0
66
1
40
0.008000
41
0.008000
0
VERTEX
8
0
10
-1.290000
20
0.086000
0
VERTEX
8
0
10
-1.290000
20
-0.124000
0
SEQEND
8
0
0
POLYLINE
8
0
66
1
40
0.008000
41
0.008000
0
VERTEX
8
0
10
-1.285000
20
-0.124000
0
VERTEX
8
0
10
-1.285000
20
0.086000
0
SEQEND
8
0
0
TEXT
8
12632256
10
-1.295000
20
-0.175000
40
0.040000
41
1.000000
1
C41
0
POLYLINE
8
0
66
1
40
0.008000
41
0.008000
0
VERTEX
8
0
10
-1.360000
20
0.666000
0
VERTEX
8
0
10
-0.960000
20
0.666000
0
VERTEX
8
0
10
-0.960000
20
0.946000
0
VERTEX
8
0
10
-1.360000
20
0.946000
0
VERTEX
8
0
10
-1.360000
20
0.666000
0
SEQEND
8
0
0
POLYLINE
8
0
66
1
40
0.008000
41
0.008000
0
VERTEX
8
0
10
-1.355000
20
0.666000
0
VERTEX
8
0
10
-1.350000
20
0.666000
0
VERTEX
8
0
10
-1.350000
20
0.946000
0
VERTEX
8
0
10
-1.355000
20
0.946000
0
VERTEX
8
0
10
-1.355000
20
0.666000
0
SEQEND
8
0
0
POLYLINE
8
0
66
1
40
0.008000
41
0.008000
0
VERTEX
8
0
10
-1.135000
20
0.681000
0
VERTEX
8
0
10
-1.135000
20
0.731000
0
VERTEX
8
0
10
-1.185000
20
0.706000
0
VERTEX
8
0
10
-1.135000
20
0.681000
0
SEQEND
8
0
0
POLYLINE
8
0
66
1
40
0.008000
41
0.008000
0
VERTEX
8
0
10
-1.185000
20
0.681000
0
VERTEX
8
0
10
-1.185000
20
0.731000
0
SEQEND
8
0
0
POLYLINE
8
0
66
1
40
0.008000
41
0.008000
0
VERTEX
8
0
10
-1.185000
20
0.706000
0
VERTEX
8
0
10
-1.210000
20
0.706000
0
SEQEND
8
0
0
POLYLINE
8
0
66
1
40
0.008000
41
0.008000
0
VERTEX
8
0
10
-1.135000
20
0.706000
0
VERTEX
8
0
10
-1.110000
20
0.706000
0
SEQEND
8
0
0
TEXT
8
12632256
10
-1.375000
20
0.777000
40
0.040000
41
1.000000
50
90.000000
1
D1
0
POLYLINE
8
0
66
1
40
0.008000
41
0.008000
0
VERTEX
8
0
10
-1.243000
20
0.116000
0
VERTEX
8
0
10
-1.083000
20
0.116000
0
VERTEX
8
0
10
-1.083000
20
0.196000
0
VERTEX
8
0
10
-1.243000
20
0.196000
0
VERTEX
8
0
10
-1.243000
20
0.116000
0
SEQEND
8
0
0
TEXT
8
12632256
10
-1.368000
20
0.105000
40
0.040000
41
1.000000
1
R19
0
POLYLINE
8
0
66
1
40
0.008000
41
0.008000
0
VERTEX
8
0
10
-1.068000
20
0.116000
0
VERTEX
8
0
10
-0.908000
20
0.116000
0
VERTEX
8
0
10
-0.908000
20
0.196000
0
VERTEX
8
0
10
-1.068000
20
0.196000
0
VERTEX
8
0
10
-1.068000
20
0.116000
0
SEQEND
8
0
0
TEXT
8
12632256
10
-0.898000
20
0.135000
40
0.040000
41
1.000000
1
R20
0
POLYLINE
8
0
66
1
40
0.008000
41
0.008000
0
VERTEX
8
0
10
-1.015000
20
0.438000
0
VERTEX
8
0
10
-0.935000
20
0.438000
0
VERTEX
8
0
10
-0.935000
20
0.598000
0
VERTEX
8
0
10
-1.015000
20
0.598000
0
VERTEX
8
0
10
-1.015000
20
0.438000
0
SEQEND
8
0
0
TEXT
8
12632256
10
-0.881000
20
0.508000
40
0.040000
41
1.000000
50
90.000000
1
R21
0
POLYLINE
8
0
66
1
40
0.008000
41
0.008000
0
VERTEX
8
0
10
-1.015000
20
0.238000
0
VERTEX
8
0
10
-0.935000
20
0.238000
0
VERTEX
8
0
10
-0.935000
20
0.398000
0
VERTEX
8
0
10
-1.015000
20
0.398000
0
VERTEX
8
0
10
-1.015000
20
0.238000
0
SEQEND
8
0
0
TEXT
8
12632256
10
-0.884000
20
0.263000
40
0.040000
41
1.000000
50
90.000000
1
R22
0
POLYLINE
8
0
66
1
40
0.008000
41
0.008000
0
VERTEX
8
0
10
-1.850000
20
-1.019000
0
VERTEX
8
0
10
1.850000
20
-1.019000
0
VERTEX
8
0
10
1.850000
20
0.981000
0
VERTEX
8
0
10
-1.850000
20
0.981000
0
VERTEX
8
0
10
-1.850000
20
-1.019000
0
SEQEND
8
0
0
CIRCLE
8
12632256
10
-1.675000
20
0.806000
40
0.150000
0
TEXT
8
12632256
10
-1.715000
20
1.070000
40
0.040000
41
1.000000
1
J3
0
CIRCLE
8
12632256
10
-1.675000
20
-0.844000
40
0.150000
0
TEXT
8
12632256
10
-1.715000
20
-1.105000
40
0.040000
41
1.000000
1
J4
0
CIRCLE
8
12632256
10
1.675000
20
0.806000
40
0.150000
0
TEXT
8
12632256
10
1.635000
20
1.070000
40
0.040000
41
1.000000
1
J5
0
CIRCLE
8
12632256
10
1.675000
20
-0.844000
40
0.150000
0
TEXT
8
12632256
10
1.635000
20
-1.130000
40
0.040000
41
1.000000
1
J6
0
CIRCLE
8
12632256
10
0.475000
20
-0.269000
40
0.150000
0
TEXT
8
12632256
10
1.485000
20
1.075000
40
0.040000
41
1.000000
1
J7
0
POLYLINE
8
0
66
1
40
0.008000
41
0.008000
0
VERTEX
8
0
10
-0.243000
20
0.111000
0
VERTEX
8
0
10
-0.083000
20
0.111000
0
VERTEX
8
0
10
-0.083000
20
0.191000
0
VERTEX
8
0
10
-0.243000
20
0.191000
0
VERTEX
8
0
10
-0.243000
20
0.111000
0
SEQEND
8
0
0
TEXT
8
12632256
10
-0.338000
20
0.122000
40
0.040000
41
1.000000
1
C5
0
POLYLINE
8
0
66
1
40
0.008000
41
0.008000
0
VERTEX
8
0
10
-0.243000
20
0.021000
0
VERTEX
8
0
10
-0.083000
20
0.021000
0
VERTEX
8
0
10
-0.083000
20
0.101000
0
VERTEX
8
0
10
-0.243000
20
0.101000
0
VERTEX
8
0
10
-0.243000
20
0.021000
0
SEQEND
8
0
0
TEXT
8
12632256
10
-0.343000
20
0.047000
40
0.040000
41
1.000000
1
C6
0
TEXT
8
12632256
10
-1.780000
20
-0.229000
40
0.044000
41
1.022727
50
90.000000
1
LBand Down Converter
0
TEXT
8
12632256
10
-1.725000
20
0.086000
40
0.044000
41
1.022727
50
90.000000
1
V1.0  May 07
0
TEXT
8
12632256
10
-0.770000
20
0.902000
40
0.048000
41
1.041667
1
INPUT
0
TEXT
8
12632256
10
1.190000
20
0.897000
40
0.048000
41
1.041667
1
OUTPUT
0
ENDSEC
0
EOF

